<svg viewBox="0 0 915.25 400" xmlns="http://www.w3.org/2000/svg"><g><g><g><g><g><line x1="30.78125" y1="377" x2="25.78125" y2="377" style="visibility: inherit;" fill="rgb(0, 0, 0)" stroke="rgb(204, 204, 204)" stroke-width="1px"></line><line x1="30.78125" y1="335.1111111111111" x2="25.78125" y2="335.1111111111111" style="visibility: inherit;" fill="rgb(0, 0, 0)" stroke="rgb(204, 204, 204)" stroke-width="1px"></line><line x1="30.78125" y1="293.22222222222223" x2="25.78125" y2="293.22222222222223" style="visibility: inherit;" fill="rgb(0, 0, 0)" stroke="rgb(204, 204, 204)" stroke-width="1px"></line><line x1="30.78125" y1="251.33333333333337" x2="25.78125" y2="251.33333333333337" style="visibility: inherit;" fill="rgb(0, 0, 0)" stroke="rgb(204, 204, 204)" stroke-width="1px"></line><line x1="30.78125" y1="209.44444444444446" x2="25.78125" y2="209.44444444444446" style="visibility: inherit;" fill="rgb(0, 0, 0)" stroke="rgb(204, 204, 204)" stroke-width="1px"></line><line x1="30.78125" y1="167.55555555555554" x2="25.78125" y2="167.55555555555554" style="visibility: inherit;" fill="rgb(0, 0, 0)" stroke="rgb(204, 204, 204)" stroke-width="1px"></line><line x1="30.78125" y1="125.66666666666669" x2="25.78125" y2="125.66666666666669" style="visibility: inherit;" fill="rgb(0, 0, 0)" stroke="rgb(204, 204, 204)" stroke-width="1px"></line><line x1="30.78125" y1="83.77777777777777" x2="25.78125" y2="83.77777777777777" style="visibility: inherit;" fill="rgb(0, 0, 0)" stroke="rgb(204, 204, 204)" stroke-width="1px"></line><line x1="30.78125" y1="41.88888888888891" x2="25.78125" y2="41.88888888888891" style="visibility: inherit;" fill="rgb(0, 0, 0)" stroke="rgb(204, 204, 204)" stroke-width="1px"></line><line x1="30.78125" y1="0" x2="25.78125" y2="0" style="visibility: inherit;" fill="rgb(0, 0, 0)" stroke="rgb(204, 204, 204)" stroke-width="1px"></line></g><g transform="translate(20.78125, 0)"><text x="0" y="377" dx="0em" dy="0.3em" style="text-anchor: end; visibility: hidden; font-family: Roboto, sans-serif; font-size: 12px; font-weight: 200;" fill="rgb(33, 33, 33)" stroke="none" stroke-width="1px">79</text><text x="0" y="335.1111111111111" dx="0em" dy="0.3em" style="text-anchor: end; visibility: inherit; font-family: Roboto, sans-serif; font-size: 12px; font-weight: 200;" fill="rgb(33, 33, 33)" stroke="none" stroke-width="1px">80</text><text x="0" y="293.22222222222223" dx="0em" dy="0.3em" style="text-anchor: end; visibility: inherit; font-family: Roboto, sans-serif; font-size: 12px; font-weight: 200;" fill="rgb(33, 33, 33)" stroke="none" stroke-width="1px">81</text><text x="0" y="251.33333333333337" dx="0em" dy="0.3em" style="text-anchor: end; visibility: inherit; font-family: Roboto, sans-serif; font-size: 12px; font-weight: 200;" fill="rgb(33, 33, 33)" stroke="none" stroke-width="1px">82</text><text x="0" y="209.44444444444446" dx="0em" dy="0.3em" style="text-anchor: end; visibility: inherit; font-family: Roboto, sans-serif; font-size: 12px; font-weight: 200;" fill="rgb(33, 33, 33)" stroke="none" stroke-width="1px">83</text><text x="0" y="167.55555555555554" dx="0em" dy="0.3em" style="text-anchor: end; visibility: inherit; font-family: Roboto, sans-serif; font-size: 12px; font-weight: 200;" fill="rgb(33, 33, 33)" stroke="none" stroke-width="1px">84</text><text x="0" y="125.66666666666669" dx="0em" dy="0.3em" style="text-anchor: end; visibility: inherit; font-family: Roboto, sans-serif; font-size: 12px; font-weight: 200;" fill="rgb(33, 33, 33)" stroke="none" stroke-width="1px">85</text><text x="0" y="83.77777777777777" dx="0em" dy="0.3em" style="text-anchor: end; visibility: inherit; font-family: Roboto, sans-serif; font-size: 12px; font-weight: 200;" fill="rgb(33, 33, 33)" stroke="none" stroke-width="1px">86</text><text x="0" y="41.88888888888891" dx="0em" dy="0.3em" style="text-anchor: end; visibility: inherit; font-family: Roboto, sans-serif; font-size: 12px; font-weight: 200;" fill="rgb(33, 33, 33)" stroke="none" stroke-width="1px">87</text><text x="0" y="0" dx="0em" dy="0.3em" style="text-anchor: end; visibility: hidden; font-family: Roboto, sans-serif; font-size: 12px; font-weight: 200;" fill="rgb(33, 33, 33)" stroke="none" stroke-width="1px">88</text></g><line x1="30.78125" y1="0" x2="30.78125" y2="377" fill="rgb(0, 0, 0)" stroke="rgb(204, 204, 204)" stroke-width="1px"></line></g></g><g transform="translate(30, 0)" clip-path="url(#clip_0)"><clipPath id="clip_0"><rect width="884" height="377"></rect></clipPath><g><g><g><line x1="0" y1="0" x2="0" y2="377" fill="rgb(0, 0, 0)" stroke="rgb(66, 66, 66)" stroke-width="1px" opacity="0.25"></line><line x1="73.70572916666666" y1="0" x2="73.70572916666666" y2="377" fill="rgb(0, 0, 0)" stroke="rgb(66, 66, 66)" stroke-width="1px" opacity="0.25"></line><line x1="147.41145833333331" y1="0" x2="147.41145833333331" y2="377" fill="rgb(0, 0, 0)" stroke="rgb(66, 66, 66)" stroke-width="1px" opacity="0.25"></line><line x1="221.1171875" y1="0" x2="221.1171875" y2="377" fill="rgb(0, 0, 0)" stroke="rgb(66, 66, 66)" stroke-width="1px" opacity="0.25"></line><line x1="294.82291666666663" y1="0" x2="294.82291666666663" y2="377" fill="rgb(0, 0, 0)" stroke="rgb(66, 66, 66)" stroke-width="1px" opacity="0.25"></line><line x1="368.52864583333337" y1="0" x2="368.52864583333337" y2="377" fill="rgb(0, 0, 0)" stroke="rgb(66, 66, 66)" stroke-width="1px" opacity="0.25"></line><line x1="442.234375" y1="0" x2="442.234375" y2="377" fill="rgb(0, 0, 0)" stroke="rgb(66, 66, 66)" stroke-width="1px" opacity="0.25"></line><line x1="515.9401041666667" y1="0" x2="515.9401041666667" y2="377" fill="rgb(0, 0, 0)" stroke="rgb(66, 66, 66)" stroke-width="1px" opacity="0.25"></line><line x1="589.6458333333333" y1="0" x2="589.6458333333333" y2="377" fill="rgb(0, 0, 0)" stroke="rgb(66, 66, 66)" stroke-width="1px" opacity="0.25"></line><line x1="663.3515625" y1="0" x2="663.3515625" y2="377" fill="rgb(0, 0, 0)" stroke="rgb(66, 66, 66)" stroke-width="1px" opacity="0.25"></line><line x1="737.0572916666667" y1="0" x2="737.0572916666667" y2="377" fill="rgb(0, 0, 0)" stroke="rgb(66, 66, 66)" stroke-width="1px" opacity="0.25"></line><line x1="810.7630208333333" y1="0" x2="810.7630208333333" y2="377" fill="rgb(0, 0, 0)" stroke="rgb(66, 66, 66)" stroke-width="1px" opacity="0.25"></line><line x1="884.46875" y1="0" x2="884.46875" y2="377" fill="rgb(0, 0, 0)" stroke="rgb(66, 66, 66)" stroke-width="1px" opacity="0.25"></line></g><g><line x1="0" y1="377" x2="884.46875" y2="377" fill="rgb(0, 0, 0)" stroke="rgb(66, 66, 66)" stroke-width="1px" opacity="0.25"></line><line x1="0" y1="335.1111111111111" x2="884.46875" y2="335.1111111111111" fill="rgb(0, 0, 0)" stroke="rgb(66, 66, 66)" stroke-width="1px" opacity="0.25"></line><line x1="0" y1="293.22222222222223" x2="884.46875" y2="293.22222222222223" fill="rgb(0, 0, 0)" stroke="rgb(66, 66, 66)" stroke-width="1px" opacity="0.25"></line><line x1="0" y1="251.33333333333337" x2="884.46875" y2="251.33333333333337" fill="rgb(0, 0, 0)" stroke="rgb(66, 66, 66)" stroke-width="1px" opacity="0.25"></line><line x1="0" y1="209.44444444444446" x2="884.46875" y2="209.44444444444446" fill="rgb(0, 0, 0)" stroke="rgb(66, 66, 66)" stroke-width="1px" opacity="0.25"></line><line x1="0" y1="167.55555555555554" x2="884.46875" y2="167.55555555555554" fill="rgb(0, 0, 0)" stroke="rgb(66, 66, 66)" stroke-width="1px" opacity="0.25"></line><line x1="0" y1="125.66666666666669" x2="884.46875" y2="125.66666666666669" fill="rgb(0, 0, 0)" stroke="rgb(66, 66, 66)" stroke-width="1px" opacity="0.25"></line><line x1="0" y1="83.77777777777777" x2="884.46875" y2="83.77777777777777" fill="rgb(0, 0, 0)" stroke="rgb(66, 66, 66)" stroke-width="1px" opacity="0.25"></line><line x1="0" y1="41.88888888888891" x2="884.46875" y2="41.88888888888891" fill="rgb(0, 0, 0)" stroke="rgb(66, 66, 66)" stroke-width="1px" opacity="0.25"></line><line x1="0" y1="0" x2="884.46875" y2="0" fill="rgb(0, 0, 0)" stroke="rgb(66, 66, 66)" stroke-width="1px" opacity="0.25"></line></g></g></g><g><g><line x1="0" y1="3686.2222222222226" x2="884.46875" y2="3686.2222222222226" fill="rgb(0, 0, 0)" stroke="rgb(153, 153, 153)" stroke-width="1.5px"></line></g></g><g><g><line x1="73.70572916666666" y1="0" x2="73.70572916666666" y2="377" fill="rgb(0, 0, 0)" stroke="rgb(153, 153, 153)" stroke-width="1.5px"></line></g></g><g><g><g><g><g><path stroke="rgb(255, 112, 67)" stroke-width="2px" d="M93.90109895833334,399.73930009107534L96.48079947916668,350.59757965143604L96.6282109375,337.86829960570856L97.21785677083334,351.3428265467919L98.76567708333333,327.92696950177555L99.35532291666667,322.75790005726043L100.8294375,370.2583284319241L104.809546875,186.46566911456486L104.88325260416667,86.24340862838113L106.13624999999999,238.9055822021106L106.3573671875,316.26068123506735L106.578484375,301.8511159019741L107.6840703125,183.12138018731116L107.9051875,95.12798433640396L107.97889322916667,26.581684179911562L108.71595052083333,35.21792499585254L110.116359375,320.3849880818417L111.6641796875,145.98562348891534L112.91717708333334,246.43409708786763L113.28570572916666,353.1160138596145L115.27576041666666,251.41272962429386L116.01281770833332,316.89525470215347L116.45505208333333,397.5708845869482L116.9709921875,355.999010987749L117.04469791666666,299.89054326860963L119.47698697916667,167.87030550464263L119.6243984375,61.17906196345806L120.50886718750002,33.021194502066436L121.02480729166666,99.40160559045066L121.09851302083332,145.5969173338975L121.24592447916667,190.73989749785645L121.46704166666667,255.52568559622108L121.61445312500001,287.35985580219733L122.49892187500001,292.050569921208L123.23597916666667,228.51301373276698L126.40532552083333,232.94960647099742L126.70014843749999,185.0097127486977L126.99497135416668,140.16045852215507L127.58461718749999,150.61585112240846L128.24796874999998,124.38326799766345L129.20614322916668,102.9468905946048L129.50096614583333,69.97832078525641L130.16431770833333,87.89717889964744L130.459140625,124.28447331472302L130.60655208333333,160.86182066689392L130.75396354166668,167.3931486474238L131.26990364583332,126.7421062972865L131.63843229166667,52.25240556982154L131.78584375,1.861629770387097L132.15437239583335,-61.21370925799413L132.59660677083335,-15.368256947461198L132.8914296875,79.58354140986505L133.3336640625,210.11149908637006L133.40736979166667,294.62774743359273L135.10260156249998,264.5757237775386L135.39742447916666,186.55971784942233L137.82971354166665,254.52564428115937L138.34565364583335,289.2731899134224L138.78788802083335,338.4385192540429L139.81976822916667,184.96708087208697L140.11459114583334,122.8766776275275L140.63053125,105.5615876990207L140.77794270833334,100.36671505702128L141.36758854166666,161.75865479376162L142.39946875,118.16722866998549L142.47317447916666,104.91409452621015L143.21023177083333,116.56618335960631L143.43134895833333,108.64500244197906L144.09470052083333,202.91768858541326L144.68434635416668,169.5039209176325L145.34769791666668,132.70010476140826L145.42140364583332,112.62852775484868L145.86363802083332,135.60463130134647L145.93734375,168.324153021259L146.30587239583332,166.34118404637132L147.6325755208333,156.6060335343764L147.8536927083333,150.09470566478817L148.51704427083334,180.70444031510578L150.72821614583333,144.2795428511733L151.686390625,110.02552905543033L152.128625,103.7153174332582L152.3497421875,122.54916489300612L152.49715364583332,128.82288340303484L152.7919765625,131.2466393842687L153.2342109375,142.92179208867768L153.60273958333332,150.2619385751466L154.339796875,70.72065733996607L154.78203125,88.6777635310415L155.15055989583334,160.944885454237L155.88761718749998,185.70648171470833L158.9832578125,225.864364153608L159.27808072916667,260.51504759644024L159.35178645833332,277.11656877325066L159.4254921875,300.4819770576788L160.7521953125,260.04566647277966L161.71036979166666,221.70914698110724L162.66854427083334,160.00194285988806L164.58489322916665,199.38291281337257L165.46936197916665,167.0480005905843L166.280125,95.2020825537866L166.5012421875,39.19281020121752L166.722359375,-9.827833641096738L168.19647395833334,23.425522037564303L168.63870833333334,55.27396454903561L169.15464843750001,151.29109652998582L169.5968828125,180.75203727183288L170.77617447916666,127.38495412036949L170.99729166666665,111.45002222265549L171.8080546875,92.84117557860183L172.029171875,65.75801311354599L172.2502890625,36.94144896784527L172.32399479166668,20.991985605208036L175.86186979166666,54.65167160129757L176.08298697916666,51.89232606733259L176.30410416666666,48.89624362217086L176.37780989583334,57.3194932707415L177.9993359375,80.97211995332984L178.8838046875,50.593984659172634L179.62086197916668,87.15771390205788L179.91568489583332,159.69780081302267L181.758328125,113.24447360576052L181.83203385416667,72.47062791616912L182.642796875,49.68197832576461L183.23244270833334,204.23458168946914L183.52726562499998,285.40476946724056L183.67467708333334,314.3353214649576L186.03326041666668,194.8007944550377L186.32808333333332,142.51645621946358L188.1707265625,186.04320706501136L189.35001822916666,171.77830732277428L189.42372395833334,156.8523023868291L190.52930989583334,194.97976962925435L190.8241328125,198.08468930576421L192.00342447916665,189.55927848146223L192.07713020833333,180.4227344472758L193.69865625,190.85853467064433L194.06718489583335,179.86181303600182L194.43571354166667,156.17304180109304L194.65683072916667,112.30250197410226L195.025359375,79.61311298730445L195.2464765625,63.35053957243888L196.1309453125,81.74233397024284L196.72059114583334,106.68455240037511L197.23653125,184.4832167917873L197.75247135416666,242.72366183234237L198.41582291666666,223.04490978658012L198.71064583333333,183.42337497622313L198.85805729166665,154.79132763872843L199.00546875,124.71037770574151L199.2265859375,138.16220616988576L199.74252604166665,160.97827395149744L200.40587760416668,137.80561569739572L201.14293489583332,106.14117276316414L201.4377578125,51.955865902906815L201.58516927083332,15.423256412403791L201.80628645833332,0.8761760696649787L202.17481510416667,2.2012356304053005L202.39593229166667,13.049579133234383L202.46963802083332,19.55858523493195L203.94375260416666,84.11914602756941L204.60710416666666,27.851513183490564L205.04933854166666,-39.922823847176076L205.638984375,-42.454492925044384L206.3023359375,2.509051342412361L206.81827604166668,134.87963768750024L208.36609635416667,105.22328703415803L208.66091927083332,104.35262354699209L209.3979765625,192.132074819927L209.69279947916667,219.49882090107093L210.35615104166666,179.28500895774303L211.31432552083334,79.08661206409882L211.53544270833333,54.154215027630286L211.97767708333333,143.9169990279714L212.12508854166668,222.74041141222568L214.63108333333332,152.91316130317307L215.07331770833335,142.34961831239428L216.32631510416667,165.33371474014902L217.06337239583334,242.292688628703L217.28448958333334,244.23341652194827L217.43190104166666,214.06491834849882L218.75860416666666,151.22651679143422L219.790484375,167.97903141275083L219.93789583333333,199.98027705620098L221.26459895833332,179.63790310438029L221.559421875,156.37387854068794L222.14906770833332,171.06744846230313L223.40206510416667,93.089807524105L223.84429947916666,74.2849700586253L225.61323697916666,142.59095646822638L226.57141145833333,99.12653297381758L226.79252864583336,79.75012666634373L226.866234375,80.85854089780992L227.01364583333333,80.51829701047429L227.16105729166668,93.71851842167123L227.45588020833333,111.69195903477333L227.750703125,130.68633766587317L228.26664322916668,167.7189443909733L229.3722291666667,151.73586221292587L231.87822395833334,210.00593620525106L232.173046875,238.0982692969351L232.68898697916666,166.31676492288813L233.35233854166665,174.68741274062498L234.23680729166665,194.11958943582462L234.97386458333332,195.89305120110004L235.12127604166665,198.96784094743978L235.2686875,203.99631125791677L235.63721614583335,224.77424142597377L235.85833333333332,226.01480798492474L236.44797916666664,179.50848636701798L236.74280208333334,168.5277124663701L238.21691666666666,209.02244616471802L238.58544531249998,162.94587634954695L238.65915104166666,126.41951046955853L238.8065625,92.60726183729058L239.02767968749998,83.54610419981357L239.3225026041667,60.851207848664075L239.39620833333333,52.76363405164626L239.91214843749998,64.83423667827508L240.133265625,71.4063606918605L240.5017942708333,113.55228131312003L241.90220312500003,119.23586436621426L242.63926041666664,145.09839728183806L243.08149479166664,140.844356362267L243.52372916666664,104.44576583558936L243.81855208333334,123.65767149679607L244.70302083333334,169.5337549163068L244.7767265625,194.3784547184473L246.61936979166666,106.40617371540043L247.28272135416668,100.20322910445731L249.86242187499997,62.63529636295626L249.93612760416667,31.38157624171015L250.0835390625,13.802227944461713L253.32659114583333,93.73464453306124L253.91623697916668,120.74965004177639L254.43217708333336,155.72492158973583L254.57958854166665,163.13812542562982L254.72699999999998,165.91038990381537L255.09552864583333,184.49689549556615L256.93817187499997,160.9648039640061L257.01187760416667,143.8295439316806L257.7489348958333,127.34878633622213L257.89634635416667,120.64392824162022L258.26487499999996,131.19839273870053L259.29675520833337,183.2736665161587L259.73898958333336,165.92769410457333L260.4023411458333,94.86508136074721L261.50792708333336,182.41812413383164L261.80275,242.49002649852818L261.95016145833335,277.5277476563867L263.7928046875,284.3081836958286L264.6772734375,249.50356154399452L265.41433072916664,188.91007556571975L265.85656510416663,161.60199931892382L267.1095625,215.25538090645819L267.551796875,294.0278338498643L267.6255026041666,342.12913452758374L268.65738281250003,221.02774384589029L269.09961718750003,169.14376253203457L269.4681458333333,224.97474798417278L271.16337760416667,195.30482322355533L271.6793177083333,173.64916217686323L272.04784635416667,194.83711422235083L273.0060208333333,232.348036084409L273.5219609375,246.97945763697305L274.627546875,267.9899223713544L275.512015625,213.07133277665363L275.7331328125,182.80100143465503L276.76501302083335,186.58853950011616L276.9861302083333,164.56555791773474L279.3447135416667,153.69753651930415L279.41841927083334,151.19802121985097L279.492125,158.7463273803483L280.818828125,144.67663418320055L281.9244140625,133.218813151522L285.46228906249996,151.98022791369965L286.125640625,183.00863743995146L286.78899218749996,213.35452091069394L287.2312265625,211.62289897491078L288.779046875,303.57731028067127L288.9264583333333,366.1224424156902L289.0001640625,404.6548141229166L292.46433333333334,300.0968577934112L293.05397916666664,288.9692257871577L294.7492109375,227.1668534654587L295.41256250000004,162.60632918810782L295.7073854166666,131.24249997325919L296.00220833333333,127.00145396344769L296.8866770833333,197.34359529202308L297.1077942708333,222.79332453361278L297.6974401041667,212.76223739594917L297.9185572916667,239.24940379824653L299.68749479166667,309.26207649661313L299.9823177083333,349.09150391391836L300.12972916666666,365.9517298765626L302.19348958333336,186.89775572650177L303.8887213541667,206.9751592410225L304.99430729166664,171.1007022340666L305.583953125,242.40169331309662L305.95248177083334,344.664561316634L306.32101041666664,307.8347163364215L306.76324479166664,238.6537391443005L307.94253645833334,306.72650150253094L309.26923958333333,189.73272842973034L309.3429453125,113.33699084473068L309.8588854166667,54.09505271538851L310.0800026041667,25.58719249077827L311.8489401041667,211.22480084602932L312.07005729166667,317.2455931947921L312.5859973958333,317.68955257214867L312.8071145833334,293.49283242762056L312.8808203125,268.4188463614119L313.0282317708333,236.2837164675635L313.10193749999996,212.98134099164972L314.94458072916666,141.19330017333183L315.60793229166666,192.78926230343487L317.37686979166665,196.10027518262535L317.966515625,244.16466068791746L318.99839583333335,193.41440310220358L319.0721015625,158.1051220994954L320.32509895833334,173.78172458619485L322.46256510416663,282.3805442867647L322.60997656250004,347.0371898939987L323.3470338541666,279.43342504751047L324.60003125,210.88941904217802L324.9685598958333,204.94965653869656L326.5900859375,237.91291526110834L326.811203125,240.0974860273246L327.1797317708333,235.54380960955893L327.99049479166666,183.04758330534042L328.13790625,169.47828685386395L328.65384635416666,311.1314165567628L329.09608072916666,351.72104658933137L329.6120208333333,310.39307751143286L330.0542552083333,259.792725168969L330.27537239583336,210.16359930765324L331.5283697916667,241.71151848487384L332.4128385416667,173.34384088693085L332.63395572916664,158.62945143699747L333.14989583333335,214.14208973969386L334.3291875,195.67506741532293L334.47659895833334,188.1135053471977L334.91883333333334,215.41214922882642L335.21365625,218.05178511563776L336.3929479166667,208.5768386203813L337.6459453125,208.75628960072245L339.1200598958333,259.96845576726963L340.4467630208334,247.4663914535259L340.59417447916667,255.54782464533548L340.74158593749996,279.83319036554343L340.962703125,298.425707337273L341.18382031249996,312.5972226337011L342.4368177083333,326.1267217773778L343.24758072916666,241.25116463109694L344.2794609375,170.88932453820675L346.4906328125,193.18121163915634L346.63804427083335,205.5509236387668L348.40698177083334,161.86838309493564L348.7018046875,160.95965561651L348.84921614583334,156.7281764536736L349.29145052083334,175.3013247497003L349.51256770833334,242.07365305837067L349.65997916666663,337.26284316151964L350.3233307291667,506.8061196610177L350.83927083333333,434.2742822159897L351.7974453125,337.30504445437634L352.3870911458333,267.8973102555251L353.345265625,192.40637592653567L353.4926770833333,162.1918408960903L353.7137942708333,149.25730119292763L354.8930859375,150.87977540976712L355.2616145833333,117.6719112663681L355.40902604166666,94.22854145383128L356.14608333333337,79.32469065463384L356.44090625,102.88819886001082L358.5783723958333,102.61651577868011L358.94690104166665,109.15562588430889L359.4628411458333,163.01070375052876L362.7058932291667,261.00549756770005L363.2955390625,292.49086432295513L363.8114791666667,315.57097326499695L364.10630208333333,328.5812097185464L364.9170651041667,196.9811344818441L365.3592994791667,94.39582248055598L365.8015338541667,56.46990213904949L367.4230598958333,107.60641129482282L368.23382291666667,116.67363478145089L368.6023515625,154.1170135104723L369.26570312499996,184.62576366183916L369.33940885416666,202.0931848409836L370.22387760416666,227.31860825159524L371.034640625,187.83071539312272L371.2557578125,181.3961814467024L371.99281510416665,173.3465721899613L375.456984375,159.97143750885527L375.82551302083334,143.2335240585903L375.89921875,125.48323577304507L376.6362760416667,137.955683447877L382.0167942708333,112.43068715477241L382.82755729166666,115.88195762163961L382.9012630208333,126.6656803781054L383.04867447916666,141.01091776191078L383.1960859375,162.8549644212521L383.417203125,186.1822915325251L383.49090885416666,192.6387389331872L385.3335520833333,197.01525358669207L385.70208072916665,206.17581881868202L385.9231979166667,202.12149640459896L386.51284375,168.02091318292867L387.32360677083335,84.39204721802544L387.9869583333333,38.236153013432094L388.20807552083335,27.968409608623467L388.28178125,24.82376867912833L389.3873671875,171.22362522114875L390.5666588541667,168.24845871558819L391.0088932291667,121.72592832451397L391.30371614583333,107.38449701749462L391.96706770833333,122.57249644183358L392.1144791666667,138.5550074001481L392.7778307291667,155.85205419052278L393.0726536458333,155.17168207214775L393.8834166666667,205.36518033161332L395.799765625,141.65019374313079L396.46311718749996,119.84170248177233L397.568703125,205.4468197204003L398.08464322916666,237.87603047156287L398.52687760416666,222.6495620356504L398.82170052083336,190.55865167722806L398.89540625,165.9423327977867L400.29581510416665,151.8427790325129L400.51693229166665,151.76082455112643L403.17033854166664,93.06720741785044L403.61257291666664,79.29812779543695L404.7181588541667,85.44646802654626L404.8655703125,87.96258838971262L406.11856770833333,44.0647203922261L406.1922734375,18.228645806841637L407.5926822916667,27.692743039660193L407.6663880208333,32.03072625456881L407.8875052083333,51.556663088353154L408.5508567708333,81.03307317039443L409.36161979166667,123.34960633984497L411.2042630208333,116.23370755661941L411.42538020833337,111.96416828668433L412.23614322916666,100.18696587001394L412.45726041666666,97.97977087129186L412.604671875,102.68746409883872L412.75208333333336,109.36578622568729L413.63655208333336,182.57330576047775L414.8895494791667,180.42003970357348L416.43736979166664,174.9391911805428L416.95330989583334,143.16616092143306L417.5429557291667,108.01702477280344L417.83777864583334,68.99910375257119L418.35371875,69.38120934898184L418.4274244791667,64.24870004243996L418.50113020833334,57.81813448130188L419.2381875,59.15397645972286L421.1545364583333,40.016329628546366L421.5230651041667,10.437838684245648L422.7023567708333,67.92315276838195L423.51311979166667,140.78457878125437L423.80794270833337,167.4106961348552L423.8816484375,175.17618011852161L424.4712942708333,151.18348584889085L424.9135286458333,147.17635975206454L425.13464583333337,135.72406875379926L425.7979973958333,91.82293171723182L426.0928203125,75.2003745631084L426.60876041666666,99.0731340803132L426.6824661458333,123.95274377012754L427.1247005208333,158.48447890367856L427.56693489583336,221.42759157126503L427.71434635416665,260.3663429473162L427.93546354166665,261.4446742037196L430.5151640625,184.84855161967064L431.3996328125,202.89709517807407L432.8000416666667,161.28137844473505L432.947453125,114.52967504861235L434.49527343750003,98.37508211521296L435.9693880208333,89.01750905374172L437.7383255208333,39.67095499007935L437.9594427083333,10.063022551881689L438.9176171875,48.26175728384217L439.50726302083336,180.59488328198077L440.1706145833333,233.52095042274763L440.39173177083336,217.35569159153923L440.53914322916665,188.55521318626012L440.6128489583333,174.79357746959028L443.8559010416667,123.13964067663261L444.29813541666664,91.4771688732106L444.5192526041667,97.44542777520664L445.03519270833334,98.68061556540623L445.9933671875,160.41194023496843L446.1407786458333,203.65033661276874L446.2144843749999,239.31149950726606L446.7304244791667,201.0584603733052L448.05712760416674,179.27952066842755L449.75235937499997,134.7117584215646L450.1208880208334,169.96660549510432L451.5950026041666,158.61369505433234L451.7424140625,136.38686835909667L452.18464843749996,122.88318099267154L454.1009973958333,163.70728794944407L454.4695260416667,154.18786696454458L455.42770052083335,127.69936127844485L455.7225234375,135.4316525607952L457.04922656250005,141.07631975642045L457.6388723958333,153.17595271539744L459.33410416666663,95.08916809191183L459.6289270833334,83.52730931326356L459.92375000000004,68.04482491901294L459.9974557291667,59.09038914628645L461.9138046875,85.05066259204705L463.6090364583333,158.09838732844847L465.7465026041666,70.56352797541086L466.55726562499996,43.84605542456969L467.7365572916667,64.67787081713351L468.7684375,89.7436267193385L468.8421432291667,104.44789756209306L470.31625781249994,48.92918809509004L472.08519531249993,67.56015907016143L472.23260677083334,68.35037902499606L473.2644869791667,69.82980342411246L474.6648958333333,83.95436229263984L474.8860130208334,58.247748940253814L475.2545416666667,2.6104220285404374L477.9816536458333,18.656863636503463L478.49759375,11.529173045726361L478.79241666666667,-2.633157725840662L479.2346510416666,0.5982815662097828L479.67688541666666,-26.44989438221438L480.04541406249996,-12.18369395354733L480.26653125,28.044016076873447L480.41394270833337,65.58513767346804L482.18288020833336,72.02436480351685L482.7725260416666,39.69596755561245L484.0255234375,105.24959076014689L484.3940520833333,92.13692181448619L484.54146354166664,75.55635997074421L485.42593229166664,113.19386711634431L485.57334375000005,144.65679539458912L486.015578125,145.2709303319138L486.900046875,120.50607796097545L487.2685755208334,80.17877834125561L488.0056328125,61.00898853524421L488.7426901041666,73.80274690803864L490.80645052083327,78.12781411975834L490.9538619791667,79.54997067129061L491.2486848958333,112.0712543754305L492.3542708333333,160.06854574320548L495.3762057291667,115.31004190176131L495.59732291666666,83.93086800943776L496.92402604166665,70.13008147460832L498.2507291666667,52.29894800043314L499.5037265625,116.66508521736083L499.72484374999993,142.0479911532025L500.09337239583334,122.09096578024626L500.46190104166664,75.60034701914569L501.7886041666667,61.780708903219626L501.86230989583333,51.64580469577283L503.1153072916666,67.01195282885658L503.33642447916674,58.470665892192415L503.8523645833333,56.194435329043756L505.8424192708333,53.82327673019581L505.9898307291667,58.09753693384278L506.5057708333333,33.18299217169916L507.83247395833337,102.68228065458246L507.9798854166667,144.54931725885191L508.4958255208333,136.15842811030197L509.1591770833333,88.39730465535246L509.896234375,102.29975703366239L510.70699739583335,110.1385822475412L511.0018203125,115.00934089040788L511.07552604166665,118.60203363851991L512.4759348958333,183.42339127143637L512.8444635416666,188.47003987625146L512.9918749999999,189.65490770124993L513.2866979166668,156.0168883734624L513.9500494791666,98.30166812607374L515.2767526041666,166.5516368619719L516.7508671875,82.84037169780402L517.1193958333333,-8.772630076478158L517.7827473958333,12.832452634451535L518.2249817708333,107.394976002329L518.2986874999999,160.4463751820183L518.5935104166667,214.05936021120763L518.8146276041667,235.16855103612127L520.4361536458333,167.74240259432915L521.7628567708333,189.95258334804726L522.0576796875,188.8689037957207L522.4262083333333,204.80666027059647L523.6055,149.52526813501413L523.7529114583333,106.80577130038816L524.48996875,76.65012944689931L524.932203125,47.83319900603034L525.0796145833333,27.191980764295536L525.5218489583333,22.012015986789343L525.6692604166667,12.369380680398622L525.816671875,15.631814836732994L526.701140625,35.68530601087215L526.8485520833333,57.603244967200496L526.9959635416667,78.96419476949127L528.6911953125,53.24293573919056L529.354546875,5.136898121573772L529.5756640625,-32.10450222677361L531.4920130208333,-6.966640509211896L531.56571875,14.251101238635199L531.7131302083333,22.29021118534678L532.1553645833334,33.983516291829226L533.1135390625,38.486140455435844L533.4820677083333,51.91126028237618L533.9980078125,56.280089502759054L534.4402421875,40.47030149082631L535.3984166666667,17.07728689221726L537.3147656250001,22.310392588889396L539.0099973958334,42.876049124839696L539.3048203125,63.42562947490396L539.3785260416666,79.27402901144L539.8944661458333,122.62936254304L541.1474635416666,99.04600572298156L541.9582265625,27.759613660568682L542.7689895833333,66.58737999918432L543.2849296874999,143.66935779551767L543.7271640625,174.00068999469354L545.4961015625,126.18268735293604L549.5499166666666,139.8834208698783L549.8447395833333,188.48468339486584L550.8029140625,164.36276912980145L551.6136770833334,101.96872145509414L551.9085,46.26879865539203L552.4981458333334,76.68747073511912L552.5718515625,115.71565491285956L552.8666744791667,191.57740828788465L553.6037317708333,197.38374762572585L554.3407890625,176.4044554574887L554.4144947916667,161.30352125626393L554.4882005208333,153.24838099648804L555.0778463541667,136.68633125088712L556.5519609375,117.36603119953388L558.3208984375,76.2840375972161L558.7631328125,79.1139423201567L558.8368385416667,78.96876381603055L559.0579557291667,78.54660184973102L559.7950130208334,63.5484618015704L560.4583645833334,38.966905992618074L560.6794817708334,27.569032484459946L561.4165390625001,72.84009638412192L561.7850677083334,107.71027493930512L564.4384739583334,119.08172051913863L565.1018255208334,101.44149209609736L565.2492369791667,98.2298403938351L565.5440598958334,96.13525802319344L565.9862942708334,115.48777034668518L566.2074114583334,143.01713221940383L566.7233515625,147.80578375330006L567.3129973958333,176.48254556936283L567.5341145833333,217.98423491540268L568.1237604166666,228.6429240330087L568.4185833333333,203.20268421581193L568.71340625,154.42742921438253L570.4086380208333,155.65738221124693L570.7034609375,140.31003601620102L571.2194010416667,120.54554648493763L571.5142239583333,130.97177233540702L572.3249869791666,103.71639673457746L573.2094557291666,129.75470647607594L574.3887473958333,177.3808647927635L576.231390625,129.21608465799355L577.3369765625,77.86470565862003L578.3688567708334,149.76551562878734L578.9585026041666,158.05441537499388L579.5481484375,132.53264922499633L579.9903828125,124.08942867345245L580.0640885416667,123.21238523141518L581.9804375,118.16208757873642L583.0123177083334,105.91630229767608L583.2334348958333,98.23377626521614L584.8549609375,143.55587244858307L586.1079583333333,145.9508516890934L586.9924270833333,136.49670255533994L587.2135442708334,105.18823352864659L587.6557786458334,52.55698613769612L588.9824817708334,59.51593878005644L589.1298932291667,94.85665392558568L590.4565963541667,84.89573945279065L590.7514192708334,52.445382310997054L592.2992395833332,88.60373519171988L592.5940625000001,121.35734711275329L593.1100026041667,150.05752960554258L594.0681770833334,175.8230082282778L594.5104114583334,162.46271939280402L595.5422916666666,97.64522298496624L596.4267604166666,96.95737135337075L597.5323463541666,87.83169989806835L598.1219921875,155.91330352174032L598.1956979166666,200.61597188626467L599.8172239583333,133.60648736081708L600.112046875,93.40079664554793L601.1439270833333,156.07116510755435L602.0283958333333,158.48674508504075L602.1021015625,149.04495639347226L602.6180416666667,147.7363634167039L603.649921875,176.44089336740493L604.09215625,174.22723336744826L604.6080963541666,148.4359415965322L604.7555078125,132.45839248613163L605.418859375,148.00519635322456L605.5662708333333,171.91065802732055L605.6399765625,187.59441015656185L607.0403854166667,143.72198965405008L607.2615026041667,116.8958911394349L607.9248541666667,139.84070715544865L608.8830286458333,189.12929272859884L609.9149088541667,246.18154495682063L610.6519661458334,200.32136119175732L611.8312578125,129.0732407059399L612.6420208333333,153.34659063667158L613.9687239583334,173.43996460878247L614.70578125,120.3168881077173L614.7794869791667,91.96169353357581L615.2217213541667,77.2943443400888L615.7376614583334,59.27832813454396L616.032484375,29.534986653947357L616.1061901041667,11.353926901765359L616.1798958333334,4.6341799393452945L617.801421875,64.94360373454889L617.8751276041667,110.8475109142318L618.1699505208333,138.22226387275782L618.3173619791667,156.99288319887182L618.9807135416667,158.2019470281559L619.2755364583334,134.46428955478444L621.4130026041666,123.23770018415078L621.4867083333334,120.02039788826814L622.1500598958334,141.0451736423572L622.3711770833334,143.77419484296644L622.8871171875,148.4276126767212L623.6241744791666,161.60815384192708L623.6978802083333,162.14399318948762L623.8452916666668,147.55306258035935L624.2138203124999,115.0056460063319L624.6560546875,96.81767118669856L624.9508776041666,72.5003907165767L625.0982890625,58.077613783787164L626.2775807291666,75.56257338366157L626.7198151041666,77.67577136580894L626.7935208333333,72.24144236592633L627.3831666666667,64.7919560771079L628.7835755208333,116.4533498479789L630.0365729166667,104.3884134461136L631.952921875,122.78543115143586L633.6481536458334,103.99877333929905L634.606328125,95.74278376540644L634.8274453125,84.42212493046827L637.1123229166667,106.78436050244329L637.1860286458334,119.02881807012966L638.3653203125,67.5634568170127L638.4390260416667,35.511356289643395L639.1760833333334,41.07837444273108L639.3972005208333,61.3417322394234L639.5446119791667,71.32144288098067L640.355375,109.31244173770347L640.797609375,88.87767703806429L641.0187265625,47.29459599605956L641.3135494791667,17.988267132683003L642.6402526041667,58.713859395278305L642.7139583333334,78.457679650839L643.00878125,75.05635488794238L643.2298984375,50.06053073332992L643.3773098958334,27.69055088899946L644.4091901041667,37.223720114020075L644.7040130208334,49.980924302027724L645.5147760416667,78.57969125927679L645.7358932291667,108.80826431340003L647.2100078125001,127.95070057208952L647.7996536458334,90.84502564924317L648.5367109375,51.15595541233237L648.6104166666667,26.002038145402892L649.4211796875,34.367491129971754L651.1164114583333,14.92366714977125L651.4849401041668,42.297720051690135L652.7379375,156.90971757517627L655.9809895833333,101.01566968356053L656.0546953125,73.34365982608657L656.3495182291666,70.14482165520056L656.6443411458333,37.5629492404078L657.9710442708333,106.14795597273881L658.4132786458333,114.79326916198568L658.486984375,117.2995068259672L661.582625,110.5930629958623L662.1722708333334,255.19089266134105L662.7619166666666,354.18120226347145L662.8356223958333,405.53266511079556L664.0886197916667,218.68891194625178L665.0467942708333,233.92485670279902L665.3416171875,256.47091913506966L666.1523802083333,119.1985565944313L667.0368489583333,63.47641104270454L667.2579661458333,60.873412407957694L667.4053776041667,112.7618763564503L667.7002005208334,207.56598913581078L668.2898463541667,239.8177696832006L672.7121901041667,274.919101140975L673.1544244791667,202.4838693353008L673.2281302083334,149.80725139718766L674.4811276041667,115.5203303847538L674.9970677083334,110.19579469352612L676.6922994791666,114.37343079560762L676.9871223958334,90.07114913491617L677.7978854166666,54.88051839262553L678.0190026041666,41.641143677177126L679.272,62.01444864391502L679.7142343749999,136.5691187441831L680.6724088541666,108.58274321916622L682.1465234375,176.406524593609L682.809875,191.79986873565747L683.9891666666666,160.31987010749737L684.1365781249999,160.8683767357225L684.7999296875,136.5667935924319L685.46328125,120.81295993095779L686.0529270833333,76.17401863435602L687.5270416666666,115.0724009538341L687.674453125,149.30256702358122L687.8955703125,200.83841887625806L688.0429817708333,258.4013297952643L688.4852161458333,248.36923720821287L689.3696848958333,205.82286543148157L689.443390625,200.90443194606345L689.9593307291667,185.55416870268627L690.1804479166667,150.20538499711077L690.5489765625,115.08897298231557L691.0649166666667,63.52401977571748L691.212328125,18.34285119648493L694.9713203125,32.9554475885509L695.7820833333333,107.2372890066896L696.0032005208334,133.37530831341033L696.3717291666667,138.33457456866722L697.5510208333333,132.76476519475958L697.8458437500001,136.4601822234096L697.9195494791667,134.82372625027813L698.0669609375,127.80984243962001L698.8040182291667,209.55746613271756L699.0988411458334,276.70207102891436L699.3936640625,277.6133039780257L700.057015625,121.49549703525302L700.1307213541667,36.03512713282695L700.4992500000001,-13.565564820021343L700.7940729166667,-6.798863767229822L700.8677786458334,9.157585968720037L701.9733645833333,73.52206622966942L704.2582421875001,64.21985527057112L705.1427109375,188.99685829851884L705.6586510416666,236.3838313962118L706.0271796875,211.53347130951482L707.0590598958333,209.1899219241642L707.7224114583333,189.1851153995073L708.8279973958333,130.26662479525984L709.6387604166666,175.1746568839921L710.1547005208333,205.1354812506205L710.22840625,204.34570762786808L710.8917578124999,179.07369281945097L713.6925755208333,329.9579730158894L713.9136927083333,414.45653090697306L714.2822213541666,378.7889293735806L714.3559270833333,331.6605249825469L714.65075,222.45411833425467L717.0093333333333,265.84138545639075L718.0412135416666,232.39147237355232L720.0312682291667,242.81663052157077L720.4735026041667,284.25836651009956L720.7683255208333,315.1554183299964L722.0950286458334,238.1870338891655L722.4635572916667,210.26949741954564L723.5691432291667,119.29185931327203L723.7902604166667,43.92842335434753L724.0113776041667,-12.013183549783417L725.5591979166667,196.20452408779485L726.3699609375001,180.55604778601003L727.3281354166667,115.03587646077699L727.4018411458334,84.60419765652287L728.1388984375001,140.0696603853635L728.360015625,162.45780134460762L728.6548385416667,160.64306900392205L729.9078359375001,107.77962429352124L730.0552473958334,78.40732501827833L730.2763645833334,106.35907701780314L731.8241848958334,83.7545982289113L731.9715963541666,65.16519315501174L732.340125,70.5995143169439L733.1508880208333,103.85256679871694L733.7405338541666,113.58349917211189L734.0353567708333,129.47549419727764L735.2883541666667,84.05236160896979L735.7305885416666,73.55403761154074L736.4676458333333,104.28480565069177L736.6150572916666,124.56638781207354L737.0572916666667,107.24565137213997L737.4258203125,81.94077529051502L737.7943489583333,52.51552515152254L738.0154661458333,13.245820896034804L739.1210520833333,22.022097843610343L739.1947578125,30.303869125545432L741.1848125,72.30282216705916L741.7744583333333,116.60351709852134L742.511515625,123.57983690299298L743.3222786458333,110.84260971558062L744.8700989583333,85.60688893590182L745.3123333333333,74.48675400769994L746.1230963541667,164.66189154307506L746.1968020833333,236.6954133953547L748.5553854166667,175.5283591483238L748.6290911458334,147.70855059099057L749.0713255208333,167.71137303037582L752.9040234375,163.29256580227474L753.0514348958334,201.85993279191217L753.567375,298.0545854346959L753.7884921875,357.1118521451496L754.3044322916667,267.54978306714645L756.2944869791667,239.61611251606863L757.8423072916667,157.34162660252312L758.5793645833334,122.05166819512947L759.75865625,139.41539422762477L759.9060677083334,142.46127233030327L760.0534791666666,145.29409161812507L760.4220078125,125.04404632015878L762.7805911458333,44.363730445090404L763.1491197916666,-1.1960453158448459L763.9598828125,64.62906504410859L764.0335885416666,119.20415682702948L764.1072942708333,163.84564100105686L764.3284114583333,221.1256375031949L765.507703125,100.83980137941258L767.4977578125,135.56882596382414L767.718875,162.94089715435834L769.1929895833333,170.31612452850885L769.6352239583333,142.06785091881997L769.7089296875,122.27047298890061L771.6252786458333,81.57247022183464L772.14121875,49.613719695492385L772.6571588541667,60.09574646573284L775.0894479166666,55.493953684561L775.3105651041667,43.85232619022832L776.7109739583333,153.82118371869427L776.7846796875,238.73622999304402L777.44803125,353.8590662157699L777.9639713541667,401.15049459328606L778.1850885416667,389.14452920497337L778.7010286458333,288.444919291647L778.9221458333334,239.2513448855351L780.3225546875,248.60808401736725L780.543671875,208.14434971868837L781.3544348958333,152.3657107155444L782.1651979166667,134.98384530682205L782.9022552083334,156.2227158348095L783.0496666666667,195.60743795900214L783.1233723958333,223.0919774238389L783.3444895833334,236.90187868791844L785.1134270833334,143.8166572013577L785.4819557291667,82.9389343436011L785.5556614583334,48.25542196683772L785.850484375,40.84968228437745L787.2508932291666,9.597375152961526L787.3245989583334,-13.84554422788402L787.9879505208334,111.66251260172457L788.5775963541666,250.9735638083222L789.4620651041666,210.90411271804476L792.1891770833333,210.65530027242866L792.4102942708333,199.78246747628268L793.0736458333333,152.87794538377335L793.1473515625,122.89211079037688L793.5895859375,112.60815024972514L793.7369973958333,104.59465258744393L794.4003489583333,102.63496775418089L796.9800494791667,93.58415312429659L797.2748723958333,123.17271409679995" style="fill: none;" fill="none"></path></g></g></g></g><g opacity="0.2"><g><g><g><path stroke="rgb(255, 112, 67)" stroke-width="2px" d="M91.02657552083333,985.2265260484482L92.13216145833334,368.20337168375653L92.57439583333334,322.5443166097005L92.94292447916666,320.8690422905816L93.45886458333334,217.82209438747827L93.90109895833334,397.106807284885L96.48079947916668,276.88558112250433L96.6282109375,318.77447001139325L97.21785677083334,371.554559495714L98.76567708333333,292.8032438490126L99.35532291666667,315.00430382622613L100.8294375,441.508927239312L106.3573671875,432.2933205498589L106.578484375,280.2367689344618L107.6840703125,5.0267817179362115L107.9051875,-36.862107170952655L107.97889322916667,-76.23776499430336L108.71595052083333,48.17228613959418L110.116359375,748.1355811225044L113.28570572916666,513.1388888888889L115.27576041666666,98.85780334472656L116.01281770833332,415.11904229058155L116.45505208333333,518.5843293931749L116.9709921875,293.6412005954319L117.04469791666666,215.72784169514978L119.47698697916667,-30.16005113389758L120.50886718750002,-9.215606689453125L121.02480729166666,198.97222222222223L121.09851302083332,214.88988494873047L121.24592447916667,258.4543677435981L121.46704166666667,352.7043677435981L121.61445312500001,335.1111111111111L122.49892187500001,299.0866410997179L123.23597916666667,133.20667945014105L126.40532552083333,239.60449557834204L126.70014843749999,113.0998721652561L126.99497135416668,72.88657718234595L127.58461718749999,166.29894002278644L128.24796874999998,85.03439331054688L129.20614322916668,70.79232449001734L129.50096614583333,20.525466071234803L130.16431770833333,114.7754660712348L130.459140625,178.86541493733722L130.60655208333333,215.72784169514978L130.75396354166668,177.19014061821832L131.26990364583332,65.76554277208118L131.63843229166667,-59.482145521375855L132.30178385416667,-90.8988121880425L132.59660677083335,71.21098327636719L132.8914296875,222.01123894585504L133.3336640625,405.9034356011284L133.40736979166667,421.4021199544271L135.10260156249998,219.49768829345703L135.39742447916666,69.53570895724829L137.82971354166665,356.4745339287652L138.34565364583335,341.3945083618164L138.78788802083335,412.186513264974L139.81976822916667,-45.24007670084632L140.11459114583334,29.741072760687928L140.63053125,79.58895280626086L140.77794270833334,92.57440609402124L141.36758854166666,253.84656439887152L142.39946875,52.78008948432074L142.47317447916666,85.03439331054688L143.21023177083333,134.0443166097005L143.43134895833333,96.7632310655382L144.09470052083333,344.3267178005642L144.68434635416668,119.38326941596137L145.34769791666668,77.49438052707251L145.42140364583332,82.52116224500867L145.86363802083332,170.06878662109375L145.93734375,217.40343560112848L146.30587239583332,163.36673058403863L147.6325755208333,142.00330776638452L147.8536927083333,140.32771386040582L148.51704427083334,226.6190422905816L150.72821614583333,89.64219665527344L151.686390625,58.644508361816406L152.128625,94.25L152.3497421875,150.79993608262805L152.49715364583332,138.23346116807727L152.7919765625,134.8822733561198L153.2342109375,160.43452114529077L153.60273958333332,161.27215830485028L154.339796875,-48.59126451280383L154.78203125,115.61342281765405L155.15055989583334,269.3455683390299L155.88761718749998,222.8488761054145L158.9832578125,286.10118781195746L159.27808072916667,312.4910727606879L159.35178645833332,302.0188505384657L159.4254921875,335.53008948432074L160.7521953125,199.39120059543188L161.71036979166666,164.20436774359808L162.66854427083334,67.44113667805988L164.58489322916665,258.4543677435981L165.46936197916665,118.54563225640192L166.280125,-12.566794501410627L166.722359375,-83.35879940456812L168.19647395833334,73.30555555555554L168.63870833333334,103.04662831624347L169.15464843750001,295.3167945014106L169.5968828125,224.9434483846029L170.77617447916666,47.334329393174926L170.99729166666665,87.54762437608508L171.8080546875,64.92790561252173L172.029171875,25.133269415961365L172.2502890625,-6.283397250705313L172.32399479166668,-2.9322094387478113L175.86186979166666,105.14120059543188L176.08298697916666,47.75330776638453L176.30410416666666,44.40211995442707L176.37780989583334,69.95436774359808L177.9993359375,116.45105997721356L178.8838046875,5.0267817179362115L179.62086197916668,142.00330776638452L179.91568489583332,268.50793117947046L181.758328125,43.564482794867615L181.83203385416667,11.30985938178168L182.642796875,15.499003940158438L183.23244270833334,436.063486735026L183.52726562499998,407.1600511338976L183.67467708333334,357.7311494615343L186.03326041666668,15.499003940158438L186.32808333333332,64.08994886610242L188.1707265625,251.33333333333337L189.35001822916666,150.3809577094184L189.42372395833334,134.46329498291016L190.52930989583334,252.17097049289282L190.8241328125,202.74206882052954L192.00342447916665,176.77116224500867L192.07713020833333,166.7179183959961L193.69865625,206.51223500569665L194.06718489583335,163.36673058403863L194.43571354166667,120.63988494873047L194.65683072916667,46.49669223361547L195.025359375,30.579029507107187L195.2464765625,38.95667945014105L196.1309453125,109.33002556694879L196.72059114583334,144.09788004557294L197.23653125,301.18121337890625L197.75247135416666,330.0843293931749L198.41582291666666,193.52678171793616L198.71064583333333,123.99107276068793L198.85805729166665,111.843256632487L199.00546875,79.58895280626086L199.2265859375,158.33994886610242L199.74252604166665,195.20237562391492L200.40587760416668,103.04662831624347L201.14293489583332,58.644508361816406L201.4377578125,-29.32209438747828L201.80628645833332,-20.944444444444454L202.17481510416667,4.1888249715169135L202.39593229166667,29.32209438747828L202.46963802083332,29.32209438747828L203.94375260416666,180.95998721652563L204.60710416666666,-56.54993608262805L205.638984375,-54.87434217664929L206.3023359375,69.95436774359808L206.81827604166668,333.4355172051324L208.36609635416667,60.73876105414496L208.66091927083332,103.04662831624347L209.3979765625,323.8012517293294L209.69279947916667,260.5489400227865L210.35615104166666,118.96429104275171L211.31432552083334,-71.21098327636719L211.53544270833333,16.7556194729275L211.97767708333333,278.56117502848304L212.12508854166668,340.97552998860675L214.63108333333332,48.17228613959418L215.07331770833335,126.50430382622613L216.32631510416667,199.80985938178168L217.06337239583334,357.7311494615343L217.28448958333334,247.1445083618164L217.43190104166666,168.81217108832465L218.75860416666666,56.968914455837655L219.790484375,193.10780334472656L219.93789583333333,247.98214552137586L221.26459895833332,149.1243421766493L221.559421875,121.47784169514972L222.14906770833332,193.10780334472656L223.40206510416667,-23.876653883192265L223.84429947916666,46.07771386040582L225.61323697916666,245.04993608262805L226.57141145833333,33.92989773220484L226.79252864583336,50.685517205132385L226.866234375,82.52116224500867L227.01364583333333,80.00793117947046L227.16105729166668,113.5188505384657L227.45588020833333,138.65211995442706L227.750703125,159.17790561252173L228.26664322916668,223.26785447862414L229.3722291666667,127.76123894585504L231.87822395833334,297.41104719373914L232.173046875,280.2367689344618L232.68898697916666,58.644508361816406L233.35233854166665,187.2433844672309L234.23680729166665,223.26785447862414L234.97386458333332,198.55324384901257L235.12127604166665,203.5800255669488L235.2686875,211.5390167236328L235.63721614583335,255.94113667805993L235.85833333333332,227.8756578233507L236.44797916666664,109.74900394015845L236.74280208333334,152.05655161539715L238.21691666666666,269.7645467122396L238.58544531249998,93.83102162679035L238.65915104166666,71.62996164957684L238.8065625,41.88888888888891L239.02767968749998,69.95436774359808L239.3225026041667,26.80886332194012L239.39620833333333,40.6322733561198L239.91214843749998,82.94014061821832L240.133265625,81.26454671223956L240.5017942708333,176.77116224500867L241.90220312500003,127.76123894585504L242.63926041666664,183.89219665527344L243.08149479166664,134.46329498291016L243.52372916666664,49.84788004557293L243.81855208333334,152.47552998860675L244.70302083333334,238.34788004557288L244.7767265625,231.64550442165796L246.61936979166666,-25.552247789171016L247.28272135416668,90.89881218804254L249.86242187499997,6.283397250705313L249.93612760416667,-15.499003940158438L250.0835390625,-12.566794501410627L253.32659114583333,213.63326941596137L253.91623697916668,161.27215830485028L254.43217708333336,208.18782891167535L254.57958854166665,174.25793117947046L254.72699999999998,170.06878662109375L255.09552864583333,212.37665388319226L256.93817187499997,125.66666666666669L257.01187760416667,118.12665388319226L257.7489348958333,102.62764994303387L257.89634635416667,110.5866410997179L258.26487499999996,147.03008948432074L259.29675520833337,261.38657718234595L259.73898958333336,139.90873548719617L260.4023411458333,-11.728837754991329L261.50792708333336,313.74768829345703L261.80275,332.59788004557294L261.95016145833335,330.0843293931749L263.7928046875,294.47883775499133L264.6772734375,197.29662831624353L265.41433072916664,98.01984659830731L265.85656510416663,120.63988494873047L267.1095625,295.73545328776044L267.551796875,412.186513264974L267.6255026041666,414.28108554416235L268.65738281250003,39.37565782335071L269.09961718750003,91.3177905612522L269.4681458333333,308.7212261623806L271.16337760416667,150.79993608262805L271.6793177083333,141.16567060682507L272.04784635416667,226.6190422905816L273.0060208333333,288.61441887749567L273.5219609375,268.9265899658203L274.627546875,299.5056194729275L275.512015625,130.69344838460285L275.7331328125,137.39550442165796L276.76501302083335,192.26984659830725L276.9861302083333,131.53108554416235L279.3447135416667,137.39550442165796L279.41841927083334,147.4487482706706L279.492125,170.06878662109375L280.818828125,123.57209438747827L281.9244140625,116.0320816040039L285.46228906249996,180.12235005696613L286.125640625,229.55125172932946L286.78899218749996,258.87334611680774L287.2312265625,209.0254660712348L288.779046875,441.508927239312L289.0001640625,462.4533716837565L292.46433333333334,143.25992329915363L293.05397916666664,272.27777777777777L294.7492109375,134.46329498291016L295.41256250000004,65.76554277208118L295.7073854166666,84.19675615098743L296.00220833333333,120.63988494873047L296.8866770833333,302.856807284885L297.1077942708333,260.9679183959961L297.6974401041667,197.71560668945312L297.9185572916667,278.98015340169275L299.68749479166667,414.28108554416235L302.19348958333336,-81.68320549858937L303.8887213541667,237.09126451280383L304.99430729166664,117.28901672363281L305.583953125,349.3531799316406L305.95248177083334,498.05886332194007L306.32101041666664,252.58994886610242L306.76324479166664,134.8822733561198L307.94253645833334,408.83564503987634L309.26923958333333,14.242068820529532L309.3429453125,-1.25661553276906L312.07005729166667,476.27678171793616L312.5859973958333,318.3554916381836L312.8071145833334,257.197752210829L312.8808203125,230.8078672620985L313.0282317708333,188.08102162679035L313.10193749999996,178.02777777777777L314.94458072916666,33.51123894585504L315.60793229166666,270.1832054985894L317.37686979166665,201.06679450141058L317.966515625,316.26123894585504L318.99839583333335,117.28901672363281L319.0721015625,105.14120059543188L320.32509895833334,197.29662831624353L322.46256510416663,445.2787738376194L322.60997656250004,444.0221583048502L323.3470338541666,178.02777777777777L324.60003125,108.07341003417969L324.9685598958333,196.04001278347437L326.5900859375,287.35780334472656L326.811203125,243.3743421766493L327.1797317708333,228.71329498291016L327.99049479166666,104.30324384901257L328.13790625,149.1243421766493L328.65384635416666,523.6111111111111L329.09608072916666,412.6054916381836L329.6120208333333,248.4011238945855L330.0542552083333,183.89219665527344L330.27537239583336,135.71991051567926L331.5283697916667,289.0333972507053L332.4128385416667,70.79232449001734L332.63395572916664,136.5578672620985L333.14989583333335,297.41104719373914L334.3291875,167.9745339287652L334.47659895833334,176.77116224500867L334.91883333333334,256.36011505126953L335.21365625,222.01123894585504L336.3929479166667,194.36441887749567L337.6459453125,209.0254660712348L339.1200598958333,336.78670501708984L340.4467630208334,228.71329498291016L340.59417447916667,267.6699744330512L340.74158593749996,316.26123894585504L340.962703125,326.3144827948676L341.18382031249996,333.85449557834204L342.4368177083333,346.4209704928928L343.24758072916666,113.93782891167535L344.2794609375,65.34656439887152L346.4906328125,226.6190422905816L346.63804427083335,224.1054916381836L348.40698177083334,96.34457227918836L348.7018046875,159.59656439887152L348.84921614583334,150.3809577094184L349.29145052083334,203.16104719373914L349.51256770833334,342.23214552137586L349.65997916666663,480.0466283162435L350.3233307291667,761.1210344102647L350.83927083333333,325.47652604844836L351.7974453125,191.85118781195746L352.3870911458333,163.7857089572483L353.345265625,79.16997443305121L353.4926770833333,116.87003835042316L353.7137942708333,129.8554916381836L354.8930859375,153.31348673502606L355.2616145833333,67.86011505126953L355.40902604166666,59.06348673502605L356.14608333333337,56.968914455837655L356.44090625,138.23346116807727L358.5783723958333,102.20899115668402L358.94690104166665,118.96429104275171L359.4628411458333,243.79332054985895L362.7058932291667,407.99768829345703L363.2955390625,339.71891445583765L363.8114791666667,350.1911366780599L364.10630208333333,348.0965643988715L364.9170651041667,-0.4189783732096075L365.8015338541667,-0.4189783732096075L367.4230598958333,184.3111750284831L368.23382291666667,130.27447001139325L368.6023515625,210.2820816040039L369.26570312499996,230.3888888888889L369.33940885416666,228.29431660970056L370.22387760416666,265.15674336751306L371.034640625,128.5988761054145L371.2557578125,171.7443805270725L371.99281510416665,161.27215830485028L375.456984375,139.90873548719617L375.82551302083334,118.12665388319226L375.89921875,98.85780334472656L376.6362760416667,156.66435496012372L382.0167942708333,74.14319271511499L382.82755729166666,121.05886332194012L382.9012630208333,142.84126451280383L383.04867447916666,162.52877383761938L383.1960859375,195.62103441026477L383.417203125,221.1732821994358L383.49090885416666,202.3234100341797L385.3335520833333,203.5800255669488L385.70208072916665,219.91666666666663L385.9231979166667,196.04001278347437L386.51284375,116.87003835042316L387.32360677083335,-41.05125172932946L387.9869583333333,-30.99768829345703L388.20807552083335,12.566794501410586L388.28178125,20.106807284885L389.3873671875,390.8234100341797L390.5666588541667,163.7857089572483L391.0088932291667,51.94213273790149L391.30371614583333,85.87235005696613L391.96706770833333,145.35449557834204L392.1144791666667,162.52877383761938L392.7778307291667,181.79762437608508L393.0726536458333,154.1511238945855L393.8834166666667,280.65542772081164L395.799765625,46.07771386040582L396.46311718749996,87.12896558973523L397.568703125,333.85449557834204L398.08464322916666,286.5198465983073L398.52687760416666,199.80985938178168L398.82170052083336,142.42228613959418L398.89540625,129.01785447862414L400.29581510416665,130.69344838460285L400.51693229166665,151.6378928290473L403.17033854166664,5.0267817179362115L403.61257291666664,58.644508361816406L404.7181588541667,94.66897837320965L404.8655703125,91.7367689344618L406.11856770833333,-21.782081604003906L406.1922734375,-20.525466071234845L407.5926822916667,41.88888888888891L407.6663880208333,38.537701076931405L407.8875052083333,80.84556833902997L408.5508567708333,125.24768829345703L409.36161979166667,186.82440609402124L411.2042630208333,105.55985938178168L411.42538020833337,105.55985938178168L412.23614322916666,82.52116224500867L412.45726041666666,94.66897837320965L412.604671875,109.74900394015845L412.75208333333336,119.38326941596137L413.63655208333336,292.3845850626628L414.8895494791667,177.19014061821832L416.43736979166664,166.7179183959961L416.95330989583334,95.5066155327691L417.5429557291667,55.29332054985895L417.83777864583334,10.472222222222227L418.35371875,69.95436774359808L418.4274244791667,56.54993608262805L418.50113020833334,48.17228613959418L419.2381875,61.15773942735461L421.1545364583333,11.30985938178168L421.5230651041667,-33.92989773220484L422.7023567708333,154.1511238945855L423.51311979166667,250.0767178005642L423.80794270833337,207.3498721652561L423.8816484375,186.82440609402124L424.4712942708333,115.19444444444446L424.9135286458333,141.16567060682507L425.13464583333337,118.54563225640192L425.7979973958333,25.971226162380624L426.0928203125,50.26653883192273L426.60876041666666,134.8822733561198L426.6824661458333,161.27215830485028L427.1247005208333,210.2820816040039L427.56693489583336,315.8422605726454L427.71434635416665,318.77447001139325L427.93546354166665,263.06217108832465L430.5151640625,69.95436774359808L431.3996328125,229.96991051567926L432.8000416666667,98.85780334472656L432.947453125,44.40211995442707L434.49527343750003,74.14319271511499L435.9693880208333,74.9811494615343L437.7383255208333,-34.34887610541453L437.9594427083333,-34.34887610541453L438.9176171875,105.55985938178168L439.50726302083336,379.09457227918836L440.1706145833333,312.9100511338976L440.39173177083336,193.10780334472656L440.53914322916665,145.35449557834204L440.6128489583333,154.1511238945855L443.8559010416667,45.65873548719617L444.29813541666664,43.98346116807727L444.5192526041667,106.39781612820093L445.03519270833334,100.53339725070532L445.9933671875,253.00892723931207L446.1407786458333,268.50793117947046L446.2144843749999,292.8032438490126L446.7304244791667,143.67890167236328L448.05712760416674,146.6111111111111L449.75235937499997,67.86011505126953L450.1208880208334,222.8488761054145L451.5950026041666,141.58432939317493L451.7424140625,103.04662831624347L452.18464843749996,102.62764994303387L454.1009973958333,224.9434483846029L454.4695260416667,139.90873548719617L455.42770052083335,87.96660274929468L455.7225234375,147.03008948432074L457.04922656250005,149.54332054985895L457.6388723958333,171.32540215386285L459.33410416666663,7.958991156684023L459.6289270833334,66.18452114529077L459.92375000000004,44.82109832763672L459.9974557291667,45.65873548719617L461.9138046875,123.99107276068793L463.6090364583333,267.6699744330512L465.7465026041666,-60.738761054145L466.55726562499996,3.7698465983073057L467.7365572916667,95.92559390597876L468.7684375,127.34226057264539L468.8421432291667,126.50430382622613L470.31625781249994,-34.34887610541453L472.08519531249993,95.5066155327691L472.23260677083334,69.53570895724829L473.2644869791667,72.04894002278644L474.6648958333333,105.14120059543188L474.8860130208334,19.687828911675354L475.2545416666667,-80.84556833902992L477.9816536458333,42.72652604844836L478.49759375,0.8376371595594525L478.79241666666667,-23.876653883192265L479.2346510416666,5.445440504286015L479.67688541666666,-67.02215830485024L480.04541406249996,9.215606689453125L480.26653125,88.38558112250433L480.41394270833337,121.89682006835938L482.18288020833336,81.68320549858942L482.7725260416666,-8.796628316243517L484.0255234375,203.5800255669488L484.3940520833333,72.4679183959961L484.54146354166664,50.685517205132385L485.42593229166664,169.6501278347439L485.57334375000005,191.85118781195746L486.015578125,146.1921327379015L486.900046875,83.35879940456812L487.2685755208334,19.687828911675354L488.0056328125,32.254303826226135L488.7426901041666,92.9933844672309L490.80645052083327,84.61541493733722L490.9538619791667,81.68320549858942L491.2486848958333,160.85317993164062L492.3542708333333,232.06448279486762L495.3762057291667,48.17228613959418L495.59732291666666,36.8621071709527L496.92402604166665,49.42890167236328L498.2507291666667,25.552247789171016L499.5037265625,213.2142910427517L499.72484374999993,180.12235005696613L500.09337239583334,92.15542772081164L500.46190104166664,5.864418877495664L501.7886041666667,41.051251729329415L501.86230989583333,36.44344838460285L503.1153072916666,90.06117502848309L503.33642447916674,45.65873548719617L503.8523645833333,52.78008948432074L505.8424192708333,50.26653883192273L505.9898307291667,64.50892723931207L506.5057708333333,-4.188824971516955L507.83247395833337,206.93121337890625L507.9798854166667,207.3498721652561L508.4958255208333,123.57209438747827L509.1591770833333,16.7556194729275L509.896234375,123.15343560112848L510.70699739583335,121.89682006835938L511.0018203125,122.31547885470923L511.07552604166665,123.99107276068793L512.4759348958333,280.65542772081164L512.8444635416666,196.04001278347437L512.9918749999999,191.4322094387478L513.2866979166668,105.55985938178168L513.9500494791666,11.728837754991329L515.2767526041666,268.9265899658203L516.7508671875,-42.72652604844836L517.1193958333333,-146.1921327379015L517.7827473958333,45.240076700846366L518.2249817708333,249.23876105414496L518.2986874999999,240.02347395155164L518.5935104166667,294.47883775499133L518.8146276041667,266.83233727349176L520.4361536458333,66.60317993164062L521.7628567708333,223.26785447862414L522.0576796875,187.2433844672309L522.4262083333333,228.71329498291016L523.6055,66.60317993164062L523.7529114583333,42.72652604844836L524.48996875,31.416666666666682L524.932203125,4.6078033447265625L525.0796145833333,-3.7698465983072635L525.5218489583333,14.242068820529532L525.6692604166667,-2.094572279188359L525.816671875,20.525466071234803L526.701140625,65.76554277208118L526.8485520833333,90.48015340169269L526.9959635416667,111.00561947292749L528.6911953125,14.66104719373914L529.354546875,-67.02215830485024L530.7549557291667,-52.78008948432078L531.4920130208333,43.14550442165797L531.56571875,46.07771386040582L531.7131302083333,34.34887610541449L532.1553645833334,51.52347395155164L533.1135390625,45.240076700846366L533.4820677083333,72.04894002278644L533.9980078125,62.83333333333332L534.4402421875,16.7556194729275L535.3984166666667,-18.012235005696642L537.3147656250001,30.16005113389758L539.0099973958334,73.7245339287652L539.3048203125,94.25L539.3785260416666,103.04662831624347L539.8944661458333,187.66236284044055L541.1474635416666,63.67097049289281L541.9582265625,-79.16997443305125L542.7689895833333,124.82902950710718L543.2849296874999,259.29232449001734L543.7271640625,219.49768829345703L545.4961015625,54.45568339029949L549.5499166666666,160.43452114529077L549.8447395833333,261.38657718234595L550.8029140625,128.17989773220484L551.6136770833334,8.377649943033868L551.9085,-37.281085544162345L552.4981458333334,122.31547885470923L552.5718515625,174.25793117947046L552.8666744791667,305.37003835042316L553.6037317708333,206.09325663248694L554.3407890625,144.93551720513238L554.4144947916667,138.65211995442706L554.4882005208333,141.16567060682507L555.0778463541667,111.843256632487L556.5519609375,88.38558112250433L558.3208984375,14.66104719373914L558.7631328125,83.35879940456812L558.8368385416667,78.75099605984155L559.0579557291667,77.9133589002821L559.7950130208334,41.051251729329415L560.4583645833334,2.094572279188359L560.6794817708334,10.472222222222227L561.4165390625001,140.74669223361548L561.7850677083334,160.01554277208118L564.4384739583334,136.1388888888889L565.1018255208334,74.9811494615343L565.2492369791667,93.41236284044055L565.5440598958334,92.9933844672309L565.9862942708334,144.51653883192273L566.2074114583334,184.3111750284831L566.7233515625,154.98876105414496L567.3129973958333,219.49768829345703L567.5341145833333,280.2367689344618L568.1237604166666,244.6309577094184L568.4185833333333,165.04232449001734L568.71340625,81.26454671223956L570.4086380208333,157.50231170654297L570.7034609375,117.28901672363281L571.2194010416667,90.89881218804254L571.5142239583333,146.6111111111111L572.3249869791666,62.83333333333332L573.2094557291666,168.81217108832465L574.3887473958333,248.82010226779516L576.231390625,56.968914455837655L577.3369765625,0.8376371595594525L578.3688567708334,257.61673058403863L578.9585026041666,170.4877649943034L579.5481484375,94.25L579.9903828125,111.42459784613715L580.0640885416667,121.89682006835938L581.9804375,110.5866410997179L583.0123177083334,87.54762437608508L583.2334348958333,86.70998721652563L584.8549609375,211.5390167236328L586.1079583333333,149.54332054985895L586.9924270833333,122.31547885470923L587.2135442708334,58.22552998860676L587.6557786458334,-26.38988494873047L588.9824817708334,69.95436774359808L589.1298932291667,147.8677266438802L590.4565963541667,69.95436774359808L590.7514192708334,3.7698465983073057L592.2992395833332,142.84126451280383L592.5940625000001,170.4877649943034L593.1100026041667,193.10780334472656L594.0681770833334,214.47122616238062L594.5104114583334,142.42228613959418L595.5422916666666,0.41897837320964937L596.4267604166666,95.92559390597876L597.5323463541666,74.14319271511499L598.1219921875,258.0357089572483L598.1956979166666,267.6699744330512L599.8172239583333,33.09226057264539L600.112046875,33.09226057264539L601.1439270833333,250.0767178005642L602.0283958333333,162.11011505126953L602.1021015625,134.8822733561198L602.6180416666667,145.77347395155164L603.649921875,219.49768829345703L604.09215625,170.906743367513L604.6080963541666,109.74900394015845L604.7555078125,108.49206882052954L605.418859375,171.32540215386285L605.5662708333333,207.7688505384657L605.6399765625,211.12003835042321L607.0403854166667,77.9133589002821L607.2615026041667,76.656743367513L607.9248541666667,174.25793117947046L608.8830286458333,263.06217108832465L609.9149088541667,331.7599232991536L610.6519661458334,131.53108554416235L611.8312578125,22.201059977213557L612.6420208333333,189.7566155327691L613.9687239583334,203.5800255669488L614.70578125,40.6322733561198L614.7794869791667,49.42890167236328L615.2217213541667,55.29332054985895L615.7376614583334,32.254303826226135L616.032484375,-15.080025566948748L616.1798958333334,-5.445440504286015L617.801421875,155.4077394273546L617.8751276041667,179.70337168375653L618.1699505208333,179.28439331054688L618.3173619791667,185.14881218804254L618.9807135416667,160.01554277208118L619.2755364583334,98.85780334472656L621.4130026041666,106.39781612820093L621.4867083333334,115.19444444444446L622.1500598958334,172.58233727349176L622.3711770833334,147.8677266438802L622.8871171875,155.4077394273546L623.6241744791666,181.37896558973523L623.6978802083333,162.94775221082898L623.8452916666668,125.66666666666669L624.2138203124999,66.18452114529077L624.6560546875,69.53570895724829L624.9508776041666,36.02447001139324L625.0982890625,36.44344838460285L626.2775807291666,101.79001278347437L626.7198151041666,80.84556833902997L626.7935208333333,64.08994886610242L627.3831666666667,53.6177266438802L628.7835755208333,193.945440504286L630.0365729166667,86.29100884331598L631.952921875,150.3809577094184L633.6481536458334,75.81878662109375L634.606328125,83.35879940456812L634.8274453125,67.44113667805988L637.1123229166667,140.32771386040582L637.1860286458334,137.39550442165796L638.3653203125,-9.634585062662733L638.4390260416667,-12.566794501410627L639.1760833333334,49.42890167236328L639.3972005208333,91.7367689344618L639.5446119791667,86.29100884331598L640.355375,166.29894002278644L640.797609375,58.22552998860676L641.0187265625,-15.080025566948748L641.3135494791667,-25.971226162380624L642.6402526041667,119.80224778917102L642.7139583333334,108.07341003417969L643.00878125,69.95436774359808L643.2298984375,12.566794501410586L643.3773098958334,-5.8644188774956225L644.4091901041667,51.52347395155164L644.7040130208334,69.11673058403863L645.5147760416667,121.47784169514972L645.7358932291667,154.1511238945855L647.2100078125001,156.66435496012372L647.7996536458334,35.18651326497395L648.5367109375,-8.377649943033827L648.6104166666667,-11.728837754991329L649.4211796875,46.915670606825074L651.1164114583333,-14.242068820529532L651.4849401041668,83.35879940456812L652.7379375,328.8277138604058L655.9809895833333,17.174597846137146L656.0546953125,31.835645039876287L656.3495182291666,65.34656439887152L656.6443411458333,-11.30985938178172L657.9710442708333,209.0254660712348L658.4132786458333,127.76123894585504L658.486984375,121.05886332194012L661.582625,100.53339725070532L662.1722708333334,472.08763715955945L664.0886197916667,-61.57671780056422L665.0467942708333,256.7787738376194L665.3416171875,290.29001278347437L666.1523802083333,-86.70998721652563L667.0368489583333,-20.106807284885L667.2579661458333,56.968914455837655L667.4053776041667,190.59457227918836L667.7002005208334,349.7721583048503L668.2898463541667,288.195440504286L672.7121901041667,327.5710983276367L673.1544244791667,93.83102162679035L673.2281302083334,70.79232449001734L674.4811276041667,64.08994886610242L674.9970677083334,102.20899115668402L676.6922994791666,120.63988494873047L676.9871223958334,53.6177266438802L677.7978854166666,2.094572279188359L678.0190026041666,21.782081604003906L679.272,92.57440609402124L679.7142343749999,248.4011238945855L680.6724088541666,66.60317993164062L682.1465234375,278.14219665527344L682.809875,214.88988494873047L683.9891666666666,113.0998721652561L684.1365781249999,161.69113667805988L684.7999296875,100.11441887749567L685.46328125,97.1822094387478L686.0529270833333,9.215606689453125L687.5270416666666,173.4199744330512L687.674453125,200.64781612820093L687.8955703125,278.14219665527344L688.0429817708333,344.74569617377387L688.4852161458333,233.32109832763672L689.3696848958333,142.00330776638452L689.443390625,193.52678171793616L689.9593307291667,162.52877383761938L690.1804479166667,97.1822094387478L690.5489765625,62.41435496012371L691.0649166666667,-13.823410034179688L691.212328125,-49.42890167236328L694.9713203125,54.87434217664929L695.7820833333333,218.66005113389758L696.0032005208334,172.58233727349176L696.3717291666667,145.77347395155164L697.5510208333333,124.41005113389758L697.8458437500001,142.00330776638452L697.9195494791667,132.3690422905816L698.0669609375,117.28901672363281L698.8040182291667,332.1789016723633L699.0988411458334,377.4189783732096L699.3936640625,278.98015340169275L700.057015625,-112.68121337890625L700.4992500000001,-87.96660274929468L700.7940729166667,3.3511878119574607L700.8677786458334,33.09226057264539L701.9733645833333,170.06878662109375L704.2582421875001,50.26653883192273L705.1427109375,376.16236284044055L705.6586510416666,307.4642910427517L706.0271796875,174.25793117947046L707.0590598958333,205.67459784613715L707.7224114583333,159.17790561252173L708.8279973958333,41.88888888888891L709.6387604166666,242.53670501708984L710.1547005208333,250.0767178005642L710.22840625,203.16104719373914L710.8917578124999,141.16567060682507L713.6925755208333,556.2843933105469L714.0611041666667,449.0489400227865L714.2822213541666,304.5320816040039L714.3559270833333,260.9679183959961L714.65075,58.644508361816406L717.0093333333333,330.9222861395942L718.0412135416666,182.21660274929468L720.0312682291667,258.4543677435981L720.4735026041667,346.4209704928928L720.7683255208333,361.50099605984155L722.0950286458334,122.73445722791882L722.4635572916667,168.393192715115L723.5691432291667,-17.17459784613719L725.5591979166667,508.53108554416235L726.3699609375001,157.08333333333331L727.3281354166667,16.7556194729275L727.4018411458334,38.95667945014105L728.1388984375001,223.26785447862414L728.360015625,196.04001278347437L728.6548385416667,157.92097049289282L729.9078359375001,28.484457227918828L730.0552473958334,34.34887610541449L730.2763645833334,148.28670501708984L731.8241848958334,49.84788004557293L731.9715963541666,37.281085544162345L732.340125,78.75099605984155L733.1508880208333,153.73214552137586L733.7405338541666,128.17989773220484L734.0353567708333,153.31348673502606L735.2883541666667,15.917662726508242L735.7305885416666,57.80655161539715L736.4676458333333,150.3809577094184L736.6150572916666,154.98876105414496L737.0572916666667,81.26454671223956L737.4258203125,43.98346116807727L737.7943489583333,8.377649943033868L738.0154661458333,-45.65873548719617L739.1210520833333,35.18651326497395L739.1947578125,42.72652604844836L741.1848125,135.3012517293294L741.7744583333333,183.054559495714L742.511515625,134.0443166097005L743.3222786458333,91.7367689344618L744.8700989583333,47.75330776638453L745.3123333333333,57.80655161539715L746.1230963541667,299.92459784613715L746.1968020833333,344.74569617377387L748.5553854166667,83.77777777777777L748.6290911458334,105.97883775499133L749.0713255208333,197.71560668945312L752.9040234375,156.66435496012372L753.0514348958334,259.7109832763672L753.567375,442.3465643988716L753.7884921875,445.697752210829L754.3044322916667,133.20667945014105L756.2944869791667,197.71560668945312L757.8423072916667,33.92989773220484L758.5793645833334,69.11673058403863L759.75865625,165.4609832763672L759.9060677083334,147.03008948432074L760.0534791666666,149.54332054985895L760.4220078125,94.66897837320965L762.7805911458333,-76.65674336751304L763.1491197916666,-69.53570895724829L763.9598828125,163.36673058403863L764.0335885416666,201.06679450141058L764.1072942708333,230.8078672620985L764.3284114583333,307.0456322564019L765.507703125,-79.58895280626086L767.4977578125,187.66236284044055L767.718875,203.99900394015845L769.1929895833333,181.37896558973523L769.6352239583333,99.69544050428601L769.7089296875,92.57440609402124L771.6252786458333,20.525466071234803L772.14121875,1.6755939059787512L772.6571588541667,75.81878662109375L775.0894479166666,48.59126451280383L775.3105651041667,26.38988494873047L776.7109739583333,318.77447001139325L776.7846796875,366.1087994045681L777.44803125,526.5433205498589L777.9639713541667,472.08763715955945L778.1850885416667,371.13558112250433L778.7010286458333,137.39550442165796L778.9221458333334,165.4609832763672L780.3225546875,262.643192715115L780.543671875,147.4487482706706L781.3544348958333,68.69775221082898L782.1651979166667,108.91104719373914L782.9022552083334,188.08102162679035L783.0496666666667,254.68452114529077L783.1233723958333,264.31878662109375L783.3444895833334,257.61673058403863L785.1134270833334,4.1888249715169135L785.4819557291667,-8.377649943033827L785.5556614583334,-3.7698465983072635L785.850484375,29.741072760687928L787.2508932291666,-37.281085544162345L787.3245989583334,-49.00992329915368L787.9879505208334,299.92459784613715L788.5775963541666,459.94014061821827L789.4620651041666,150.79993608262805L792.1891770833333,210.2820816040039L792.4102942708333,183.47321828206378L793.0736458333333,82.52116224500867L793.1473515625,77.9133589002821L793.5895859375,97.1822094387478L793.7369973958333,92.57440609402124L794.4003489583333,99.69544050428601L796.9800494791667,80.00793117947046L797.2748723958333,167.55555555555554" style="fill: none;" fill="none"></path></g></g></g></g></g></g><g transform="translate(30, 377)" clip-path="url(#clip_1)"><clipPath id="clip_1"><rect width="884" height="23"></rect></clipPath><g><g><line x1="0" y1="0" x2="0" y2="5" style="visibility: inherit;" fill="rgb(0, 0, 0)" stroke="rgb(204, 204, 204)" stroke-width="1px"></line><line x1="73.70572916666666" y1="0" x2="73.70572916666666" y2="5" style="visibility: inherit;" fill="rgb(0, 0, 0)" stroke="rgb(204, 204, 204)" stroke-width="1px"></line><line x1="147.41145833333331" y1="0" x2="147.41145833333331" y2="5" style="visibility: inherit;" fill="rgb(0, 0, 0)" stroke="rgb(204, 204, 204)" stroke-width="1px"></line><line x1="221.1171875" y1="0" x2="221.1171875" y2="5" style="visibility: inherit;" fill="rgb(0, 0, 0)" stroke="rgb(204, 204, 204)" stroke-width="1px"></line><line x1="294.82291666666663" y1="0" x2="294.82291666666663" y2="5" style="visibility: inherit;" fill="rgb(0, 0, 0)" stroke="rgb(204, 204, 204)" stroke-width="1px"></line><line x1="368.52864583333337" y1="0" x2="368.52864583333337" y2="5" style="visibility: inherit;" fill="rgb(0, 0, 0)" stroke="rgb(204, 204, 204)" stroke-width="1px"></line><line x1="442.234375" y1="0" x2="442.234375" y2="5" style="visibility: inherit;" fill="rgb(0, 0, 0)" stroke="rgb(204, 204, 204)" stroke-width="1px"></line><line x1="515.9401041666667" y1="0" x2="515.9401041666667" y2="5" style="visibility: inherit;" fill="rgb(0, 0, 0)" stroke="rgb(204, 204, 204)" stroke-width="1px"></line><line x1="589.6458333333333" y1="0" x2="589.6458333333333" y2="5" style="visibility: inherit;" fill="rgb(0, 0, 0)" stroke="rgb(204, 204, 204)" stroke-width="1px"></line><line x1="663.3515625" y1="0" x2="663.3515625" y2="5" style="visibility: inherit;" fill="rgb(0, 0, 0)" stroke="rgb(204, 204, 204)" stroke-width="1px"></line><line x1="737.0572916666667" y1="0" x2="737.0572916666667" y2="5" style="visibility: inherit;" fill="rgb(0, 0, 0)" stroke="rgb(204, 204, 204)" stroke-width="1px"></line><line x1="810.7630208333333" y1="0" x2="810.7630208333333" y2="5" style="visibility: inherit;" fill="rgb(0, 0, 0)" stroke="rgb(204, 204, 204)" stroke-width="1px"></line><line x1="884.46875" y1="0" x2="884.46875" y2="5" style="visibility: inherit;" fill="rgb(0, 0, 0)" stroke="rgb(204, 204, 204)" stroke-width="1px"></line></g><g transform="translate(0, 8)"><text x="0" y="0" dx="0em" dy="0.95em" style="text-anchor: middle; visibility: hidden; font-family: Roboto, sans-serif; font-size: 12px; font-weight: 200;" fill="rgb(33, 33, 33)" stroke="none" stroke-width="1px">-50k</text><text x="73.70572916666666" y="0" dx="0em" dy="0.95em" style="text-anchor: middle; visibility: inherit; font-family: Roboto, sans-serif; font-size: 12px; font-weight: 200;" fill="rgb(33, 33, 33)" stroke="none" stroke-width="1px">0</text><text x="147.41145833333331" y="0" dx="0em" dy="0.95em" style="text-anchor: middle; visibility: inherit; font-family: Roboto, sans-serif; font-size: 12px; font-weight: 200;" fill="rgb(33, 33, 33)" stroke="none" stroke-width="1px">50k</text><text x="221.1171875" y="0" dx="0em" dy="0.95em" style="text-anchor: middle; visibility: inherit; font-family: Roboto, sans-serif; font-size: 12px; font-weight: 200;" fill="rgb(33, 33, 33)" stroke="none" stroke-width="1px">100k</text><text x="294.82291666666663" y="0" dx="0em" dy="0.95em" style="text-anchor: middle; visibility: inherit; font-family: Roboto, sans-serif; font-size: 12px; font-weight: 200;" fill="rgb(33, 33, 33)" stroke="none" stroke-width="1px">150k</text><text x="368.52864583333337" y="0" dx="0em" dy="0.95em" style="text-anchor: middle; visibility: inherit; font-family: Roboto, sans-serif; font-size: 12px; font-weight: 200;" fill="rgb(33, 33, 33)" stroke="none" stroke-width="1px">200k</text><text x="442.234375" y="0" dx="0em" dy="0.95em" style="text-anchor: middle; visibility: inherit; font-family: Roboto, sans-serif; font-size: 12px; font-weight: 200;" fill="rgb(33, 33, 33)" stroke="none" stroke-width="1px">250k</text><text x="515.9401041666667" y="0" dx="0em" dy="0.95em" style="text-anchor: middle; visibility: inherit; font-family: Roboto, sans-serif; font-size: 12px; font-weight: 200;" fill="rgb(33, 33, 33)" stroke="none" stroke-width="1px">300k</text><text x="589.6458333333333" y="0" dx="0em" dy="0.95em" style="text-anchor: middle; visibility: inherit; font-family: Roboto, sans-serif; font-size: 12px; font-weight: 200;" fill="rgb(33, 33, 33)" stroke="none" stroke-width="1px">350k</text><text x="663.3515625" y="0" dx="0em" dy="0.95em" style="text-anchor: middle; visibility: inherit; font-family: Roboto, sans-serif; font-size: 12px; font-weight: 200;" fill="rgb(33, 33, 33)" stroke="none" stroke-width="1px">400k</text><text x="737.0572916666667" y="0" dx="0em" dy="0.95em" style="text-anchor: middle; visibility: inherit; font-family: Roboto, sans-serif; font-size: 12px; font-weight: 200;" fill="rgb(33, 33, 33)" stroke="none" stroke-width="1px">450k</text><text x="810.7630208333333" y="0" dx="0em" dy="0.95em" style="text-anchor: middle; visibility: inherit; font-family: Roboto, sans-serif; font-size: 12px; font-weight: 200;" fill="rgb(33, 33, 33)" stroke="none" stroke-width="1px">500k</text><text x="884.46875" y="0" dx="0em" dy="0.95em" style="text-anchor: middle; visibility: hidden; font-family: Roboto, sans-serif; font-size: 12px; font-weight: 200;" fill="rgb(33, 33, 33)" stroke="none" stroke-width="1px">550k</text></g><line x1="0" y1="0" x2="884.46875" y2="0" fill="rgb(0, 0, 0)" stroke="rgb(204, 204, 204)" stroke-width="1px"></line></g></g></g></g></svg>