<svg viewBox="0 0 915.25 400" xmlns="http://www.w3.org/2000/svg"><g><g><g><g><g><line x1="31.59375" y1="376" x2="26.59375" y2="376" style="visibility: inherit;" fill="rgb(0, 0, 0)" stroke="rgb(204, 204, 204)" stroke-width="1px"></line><line x1="31.59375" y1="347.0769230769231" x2="26.59375" y2="347.0769230769231" style="visibility: inherit;" fill="rgb(0, 0, 0)" stroke="rgb(204, 204, 204)" stroke-width="1px"></line><line x1="31.59375" y1="318.15384615384613" x2="26.59375" y2="318.15384615384613" style="visibility: inherit;" fill="rgb(0, 0, 0)" stroke="rgb(204, 204, 204)" stroke-width="1px"></line><line x1="31.59375" y1="289.2307692307692" x2="26.59375" y2="289.2307692307692" style="visibility: inherit;" fill="rgb(0, 0, 0)" stroke="rgb(204, 204, 204)" stroke-width="1px"></line><line x1="31.59375" y1="260.3076923076923" x2="26.59375" y2="260.3076923076923" style="visibility: inherit;" fill="rgb(0, 0, 0)" stroke="rgb(204, 204, 204)" stroke-width="1px"></line><line x1="31.59375" y1="231.3846153846154" x2="26.59375" y2="231.3846153846154" style="visibility: inherit;" fill="rgb(0, 0, 0)" stroke="rgb(204, 204, 204)" stroke-width="1px"></line><line x1="31.59375" y1="202.46153846153845" x2="26.59375" y2="202.46153846153845" style="visibility: inherit;" fill="rgb(0, 0, 0)" stroke="rgb(204, 204, 204)" stroke-width="1px"></line><line x1="31.59375" y1="173.53846153846155" x2="26.59375" y2="173.53846153846155" style="visibility: inherit;" fill="rgb(0, 0, 0)" stroke="rgb(204, 204, 204)" stroke-width="1px"></line><line x1="31.59375" y1="144.6153846153846" x2="26.59375" y2="144.6153846153846" style="visibility: inherit;" fill="rgb(0, 0, 0)" stroke="rgb(204, 204, 204)" stroke-width="1px"></line><line x1="31.59375" y1="115.6923076923077" x2="26.59375" y2="115.6923076923077" style="visibility: inherit;" fill="rgb(0, 0, 0)" stroke="rgb(204, 204, 204)" stroke-width="1px"></line><line x1="31.59375" y1="86.76923076923076" x2="26.59375" y2="86.76923076923076" style="visibility: inherit;" fill="rgb(0, 0, 0)" stroke="rgb(204, 204, 204)" stroke-width="1px"></line><line x1="31.59375" y1="57.84615384615385" x2="26.59375" y2="57.84615384615385" style="visibility: inherit;" fill="rgb(0, 0, 0)" stroke="rgb(204, 204, 204)" stroke-width="1px"></line><line x1="31.59375" y1="28.923076923076906" x2="26.59375" y2="28.923076923076906" style="visibility: inherit;" fill="rgb(0, 0, 0)" stroke="rgb(204, 204, 204)" stroke-width="1px"></line><line x1="31.59375" y1="0" x2="26.59375" y2="0" style="visibility: inherit;" fill="rgb(0, 0, 0)" stroke="rgb(204, 204, 204)" stroke-width="1px"></line></g><g transform="translate(21.59375, 0)"><text x="0" y="376" dx="0em" dy="0.3em" style="text-anchor: end; visibility: hidden; font-family: Roboto, sans-serif; font-size: 12px; font-weight: 200;" fill="rgb(33, 33, 33)" stroke="none" stroke-width="1px">-5</text><text x="0" y="347.0769230769231" dx="0em" dy="0.3em" style="text-anchor: end; visibility: inherit; font-family: Roboto, sans-serif; font-size: 12px; font-weight: 200;" fill="rgb(33, 33, 33)" stroke="none" stroke-width="1px">0</text><text x="0" y="318.15384615384613" dx="0em" dy="0.3em" style="text-anchor: end; visibility: inherit; font-family: Roboto, sans-serif; font-size: 12px; font-weight: 200;" fill="rgb(33, 33, 33)" stroke="none" stroke-width="1px">5</text><text x="0" y="289.2307692307692" dx="0em" dy="0.3em" style="text-anchor: end; visibility: inherit; font-family: Roboto, sans-serif; font-size: 12px; font-weight: 200;" fill="rgb(33, 33, 33)" stroke="none" stroke-width="1px">10</text><text x="0" y="260.3076923076923" dx="0em" dy="0.3em" style="text-anchor: end; visibility: inherit; font-family: Roboto, sans-serif; font-size: 12px; font-weight: 200;" fill="rgb(33, 33, 33)" stroke="none" stroke-width="1px">15</text><text x="0" y="231.3846153846154" dx="0em" dy="0.3em" style="text-anchor: end; visibility: inherit; font-family: Roboto, sans-serif; font-size: 12px; font-weight: 200;" fill="rgb(33, 33, 33)" stroke="none" stroke-width="1px">20</text><text x="0" y="202.46153846153845" dx="0em" dy="0.3em" style="text-anchor: end; visibility: inherit; font-family: Roboto, sans-serif; font-size: 12px; font-weight: 200;" fill="rgb(33, 33, 33)" stroke="none" stroke-width="1px">25</text><text x="0" y="173.53846153846155" dx="0em" dy="0.3em" style="text-anchor: end; visibility: inherit; font-family: Roboto, sans-serif; font-size: 12px; font-weight: 200;" fill="rgb(33, 33, 33)" stroke="none" stroke-width="1px">30</text><text x="0" y="144.6153846153846" dx="0em" dy="0.3em" style="text-anchor: end; visibility: inherit; font-family: Roboto, sans-serif; font-size: 12px; font-weight: 200;" fill="rgb(33, 33, 33)" stroke="none" stroke-width="1px">35</text><text x="0" y="115.6923076923077" dx="0em" dy="0.3em" style="text-anchor: end; visibility: inherit; font-family: Roboto, sans-serif; font-size: 12px; font-weight: 200;" fill="rgb(33, 33, 33)" stroke="none" stroke-width="1px">40</text><text x="0" y="86.76923076923076" dx="0em" dy="0.3em" style="text-anchor: end; visibility: inherit; font-family: Roboto, sans-serif; font-size: 12px; font-weight: 200;" fill="rgb(33, 33, 33)" stroke="none" stroke-width="1px">45</text><text x="0" y="57.84615384615385" dx="0em" dy="0.3em" style="text-anchor: end; visibility: inherit; font-family: Roboto, sans-serif; font-size: 12px; font-weight: 200;" fill="rgb(33, 33, 33)" stroke="none" stroke-width="1px">50</text><text x="0" y="28.923076923076906" dx="0em" dy="0.3em" style="text-anchor: end; visibility: inherit; font-family: Roboto, sans-serif; font-size: 12px; font-weight: 200;" fill="rgb(33, 33, 33)" stroke="none" stroke-width="1px">55</text><text x="0" y="0" dx="0em" dy="0.3em" style="text-anchor: end; visibility: hidden; font-family: Roboto, sans-serif; font-size: 12px; font-weight: 200;" fill="rgb(33, 33, 33)" stroke="none" stroke-width="1px">60</text></g><line x1="31.59375" y1="0" x2="31.59375" y2="376" fill="rgb(0, 0, 0)" stroke="rgb(204, 204, 204)" stroke-width="1px"></line></g></g><g transform="translate(31, 0)" clip-path="url(#clip_0)"><clipPath id="clip_0"><rect width="883" height="376"></rect></clipPath><g><g><g><line x1="0" y1="0" x2="0" y2="376" fill="rgb(0, 0, 0)" stroke="rgb(66, 66, 66)" stroke-width="1px" opacity="0.25"></line><line x1="73.63802083333333" y1="0" x2="73.63802083333333" y2="376" fill="rgb(0, 0, 0)" stroke="rgb(66, 66, 66)" stroke-width="1px" opacity="0.25"></line><line x1="147.27604166666666" y1="0" x2="147.27604166666666" y2="376" fill="rgb(0, 0, 0)" stroke="rgb(66, 66, 66)" stroke-width="1px" opacity="0.25"></line><line x1="220.9140625" y1="0" x2="220.9140625" y2="376" fill="rgb(0, 0, 0)" stroke="rgb(66, 66, 66)" stroke-width="1px" opacity="0.25"></line><line x1="294.5520833333333" y1="0" x2="294.5520833333333" y2="376" fill="rgb(0, 0, 0)" stroke="rgb(66, 66, 66)" stroke-width="1px" opacity="0.25"></line><line x1="368.1901041666667" y1="0" x2="368.1901041666667" y2="376" fill="rgb(0, 0, 0)" stroke="rgb(66, 66, 66)" stroke-width="1px" opacity="0.25"></line><line x1="441.828125" y1="0" x2="441.828125" y2="376" fill="rgb(0, 0, 0)" stroke="rgb(66, 66, 66)" stroke-width="1px" opacity="0.25"></line><line x1="515.4661458333334" y1="0" x2="515.4661458333334" y2="376" fill="rgb(0, 0, 0)" stroke="rgb(66, 66, 66)" stroke-width="1px" opacity="0.25"></line><line x1="589.1041666666666" y1="0" x2="589.1041666666666" y2="376" fill="rgb(0, 0, 0)" stroke="rgb(66, 66, 66)" stroke-width="1px" opacity="0.25"></line><line x1="662.7421875" y1="0" x2="662.7421875" y2="376" fill="rgb(0, 0, 0)" stroke="rgb(66, 66, 66)" stroke-width="1px" opacity="0.25"></line><line x1="736.3802083333334" y1="0" x2="736.3802083333334" y2="376" fill="rgb(0, 0, 0)" stroke="rgb(66, 66, 66)" stroke-width="1px" opacity="0.25"></line><line x1="810.0182291666666" y1="0" x2="810.0182291666666" y2="376" fill="rgb(0, 0, 0)" stroke="rgb(66, 66, 66)" stroke-width="1px" opacity="0.25"></line><line x1="883.65625" y1="0" x2="883.65625" y2="376" fill="rgb(0, 0, 0)" stroke="rgb(66, 66, 66)" stroke-width="1px" opacity="0.25"></line></g><g><line x1="0" y1="376" x2="883.65625" y2="376" fill="rgb(0, 0, 0)" stroke="rgb(66, 66, 66)" stroke-width="1px" opacity="0.25"></line><line x1="0" y1="347.0769230769231" x2="883.65625" y2="347.0769230769231" fill="rgb(0, 0, 0)" stroke="rgb(66, 66, 66)" stroke-width="1px" opacity="0.25"></line><line x1="0" y1="318.15384615384613" x2="883.65625" y2="318.15384615384613" fill="rgb(0, 0, 0)" stroke="rgb(66, 66, 66)" stroke-width="1px" opacity="0.25"></line><line x1="0" y1="289.2307692307692" x2="883.65625" y2="289.2307692307692" fill="rgb(0, 0, 0)" stroke="rgb(66, 66, 66)" stroke-width="1px" opacity="0.25"></line><line x1="0" y1="260.3076923076923" x2="883.65625" y2="260.3076923076923" fill="rgb(0, 0, 0)" stroke="rgb(66, 66, 66)" stroke-width="1px" opacity="0.25"></line><line x1="0" y1="231.3846153846154" x2="883.65625" y2="231.3846153846154" fill="rgb(0, 0, 0)" stroke="rgb(66, 66, 66)" stroke-width="1px" opacity="0.25"></line><line x1="0" y1="202.46153846153845" x2="883.65625" y2="202.46153846153845" fill="rgb(0, 0, 0)" stroke="rgb(66, 66, 66)" stroke-width="1px" opacity="0.25"></line><line x1="0" y1="173.53846153846155" x2="883.65625" y2="173.53846153846155" fill="rgb(0, 0, 0)" stroke="rgb(66, 66, 66)" stroke-width="1px" opacity="0.25"></line><line x1="0" y1="144.6153846153846" x2="883.65625" y2="144.6153846153846" fill="rgb(0, 0, 0)" stroke="rgb(66, 66, 66)" stroke-width="1px" opacity="0.25"></line><line x1="0" y1="115.6923076923077" x2="883.65625" y2="115.6923076923077" fill="rgb(0, 0, 0)" stroke="rgb(66, 66, 66)" stroke-width="1px" opacity="0.25"></line><line x1="0" y1="86.76923076923076" x2="883.65625" y2="86.76923076923076" fill="rgb(0, 0, 0)" stroke="rgb(66, 66, 66)" stroke-width="1px" opacity="0.25"></line><line x1="0" y1="57.84615384615385" x2="883.65625" y2="57.84615384615385" fill="rgb(0, 0, 0)" stroke="rgb(66, 66, 66)" stroke-width="1px" opacity="0.25"></line><line x1="0" y1="28.923076923076906" x2="883.65625" y2="28.923076923076906" fill="rgb(0, 0, 0)" stroke="rgb(66, 66, 66)" stroke-width="1px" opacity="0.25"></line><line x1="0" y1="0" x2="883.65625" y2="0" fill="rgb(0, 0, 0)" stroke="rgb(66, 66, 66)" stroke-width="1px" opacity="0.25"></line></g></g></g><g><g><line x1="0" y1="347.0769230769231" x2="883.65625" y2="347.0769230769231" fill="rgb(0, 0, 0)" stroke="rgb(153, 153, 153)" stroke-width="1.5px"></line></g></g><g><g><line x1="73.63802083333333" y1="0" x2="73.63802083333333" y2="376" fill="rgb(0, 0, 0)" stroke="rgb(153, 153, 153)" stroke-width="1.5px"></line></g></g><g><g><g><g><g><path stroke="rgb(255, 112, 67)" stroke-width="2px" d="M75.03714322916667,347.0769230769231L75.47897135416667,347.0769230769231L76.65717968749999,347.0769230769231L76.80445572916668,347.0769230769231L77.02536979166668,347.0769230769231L77.83538802083334,347.0769230769231L78.93995833333334,347.0769230769231L79.16087239583334,347.0769230769231L80.6336328125,347.0769230769231L81.5172890625,347.0769230769231L82.99004947916666,347.0769230769231L85.12555208333335,347.0769230769231L85.34646614583333,347.0769230769231L86.00920833333333,347.0769230769231L87.18741666666666,347.0769230769231L87.33469270833334,347.0769230769231L90.574765625,347.0769230769231L90.94295572916667,347.0769230769231L92.04752604166667,347.0769230769231L92.48935416666667,347.0769230769231L92.85754427083333,347.0769230769231L93.37301041666667,347.0769230769231L93.81483854166667,347.0769230769231L96.39216927083334,347.0769230769231L96.5394453125,347.0769230769231L97.12854947916667,347.0769230769231L98.67494791666667,347.0769230769231L99.26405208333333,347.0769230769231L100.7368125,347.0769230769231L104.71326562499999,347.0769230769231L104.78690364583333,347.0769230769231L106.03875,347.0769230769231L106.2596640625,347.0769230769231L106.480578125,347.0769230769231L107.5851484375,347.0769230769231L107.8060625,347.0769230769231L107.87970052083334,347.0769230769231L108.61608072916665,347.0769230769231L110.015203125,347.0769230769231L111.5616015625,347.0769230769231L112.81344791666668,347.0769230769231L113.18163802083333,347.0769230769231L115.16986458333334,347.0769230769231L115.90624479166665,347.0769230769231L116.34807291666665,347.0769230769231L116.86353906250001,347.0769230769231L116.93717708333332,347.0769230769231L119.36723177083333,347.0769230769231L119.51450781250001,347.0769230769231L120.39816406250002,347.0769230769231L120.91363020833333,347.0769230769231L120.98726822916666,347.0769230769231L121.13454427083333,347.0769230769231L121.35545833333333,347.0769230769231L121.502734375,347.0769230769231L122.386390625,347.0769230769231L123.12277083333333,347.0769230769231L126.28920572916667,347.0769230769231L126.5837578125,347.0769230769231L126.87830989583334,347.0769230769231L127.46741406249998,347.0769230769231L128.13015625,347.0769230769231L129.08745052083333,347.0769230769231L129.38200260416667,347.0769230769231L130.04474479166666,347.0769230769231L130.339296875,347.0769230769231L130.48657291666666,347.0769230769231L130.63384895833335,347.0769230769231L131.14931510416667,347.0769230769231L131.51750520833335,347.0769230769231L131.66478125,347.0769230769231L132.03297135416668,347.0769230769231L132.18024739583333,347.0769230769231L132.47479947916668,347.0769230769231L132.7693515625,347.0769230769231L133.2111796875,347.0769230769231L133.28481770833335,347.0769230769231L134.9784921875,347.0769230769231L135.2730442708333,347.0769230769231L137.70309895833333,347.0769230769231L138.2185651041667,347.0769230769231L138.6603932291667,347.0769230769231L139.69132552083332,347.0769230769231L139.9858776041667,346.8455384580906L140.50134375,346.66043077336826L140.64861979166668,346.52622770582343L141.23772395833333,346.7465058542633L142.26865625,346.87867274332723L142.34229427083332,346.95797287676555L143.07867447916666,347.0055529568285L143.29958854166665,347.0341010048664L143.96233072916667,346.9123990675614L144.55143489583332,346.70054713905074L145.21417708333334,346.8048205921571L145.28781510416667,346.86738466402096L145.72964322916667,346.78923079772295L145.80328125,346.53409233306263L146.17147135416667,345.87196310317853L147.49695572916667,346.3539470926763L147.71786979166666,346.64313748637505L148.38061197916667,346.53899019033895L150.58975260416665,346.2219787199339L151.547046875,346.30943338718566L151.98887499999998,346.6164292630806L152.2097890625,346.8006267886176L152.35706510416665,346.91114530393975L152.6516171875,346.9774564131331L153.0934453125,347.0172430786491L153.46163541666667,346.92542276854243L154.19801562499998,346.40756135343315L154.63984374999998,345.1944445374674L155.00803385416665,342.8931589088067L155.7444140625,336.65331055336696L158.8372109375,340.10546324958045L159.13176302083335,342.8940471805175L159.20540104166668,344.56719753907976L159.2790390625,345.5710877542171L160.6045234375,342.3555757846197L161.5618177083333,332.90626832702935L162.51911197916667,338.5282533049443L164.43370052083333,323.29812024280733L165.31735677083333,322.6981339489446L166.127375,327.0583882382069L166.3482890625,329.92906364595524L166.569203125,330.47140737420926L168.0419635416667,323.9478289075108L168.4837916666667,316.4472209510269L168.9992578125,306.9952246135098L169.4410859375,307.9416271199313L170.61929427083334,305.45519130350925L170.84020833333332,300.63139232304604L171.6502265625,303.72997372296675L171.871140625,305.3577381682001L172.0920546875,308.34744272438763L172.16569270833332,311.52957292974224L175.70031770833333,319.4779898234253L175.92123177083334,319.8507320466618L176.14214583333333,316.8349925445536L176.21578385416666,315.34948809922315L177.8358203125,309.06692407009575L178.7194765625,313.21073857197786L179.45585677083335,317.66379683487463L179.75040885416666,313.3940938827382L181.591359375,302.3173186625005L181.66499739583335,294.60688421132244L182.475015625,287.6667773867694L183.06411979166666,277.07021939555324L183.358671875,274.92348610134934L183.50594791666666,274.0288001475133L185.86236458333335,259.6089094454792L186.15691666666666,248.94393134186683L187.9978671875,220.28574253784248L189.1760755208333,241.06104649363394L189.24971354166667,257.9919504435061L190.35428385416668,264.7260015649318L190.6488359375,262.14883082552757L191.8270442708333,240.44893050027449L191.90068229166667,227.96117386131252L193.52071875,214.12858194599426L193.8889088541667,207.79579691023477L194.25709895833333,208.13790820924183L194.47801302083332,202.83622308434917L194.846203125,193.03761059715396L195.0671171875,198.12607334447026L195.9507734375,187.3654910431906L196.5398776041667,191.7842159375129L197.05534375,180.8531764224837L197.57080989583332,185.14649241073175L198.23355208333334,209.44949597603647L198.52810416666665,227.24754285680575L198.67538020833334,239.22212580234967L198.82265625,241.52466097945666L199.0435703125,243.92427562914037L199.55903645833334,234.67407324632438L200.22177864583333,229.10081282549893L200.95815885416667,220.8283662071684L201.2527109375,221.04791309118806L201.39998697916667,215.97348737544598L201.62090104166666,210.96206183256928L201.98909114583333,203.3969311725584L202.21000520833334,201.03286498358312L202.28364322916667,200.81762632939265L203.75640364583333,206.19543945448657L204.41914583333335,215.13732574075084L204.86097395833335,231.12301171172814L205.37644010416665,242.03331489587706L205.450078125,248.74146533100577L206.11282031250002,252.6506628430596L206.62828645833335,257.5645519933208L208.17468489583334,219.7660555086427L208.46923697916665,192.1121892697289L209.2056171875,181.46645343563543L209.50016927083334,182.6684244952755L210.16291145833333,185.0093012040763L211.12020572916666,167.9724705586838L211.34111979166667,156.52403653442903L211.78294791666667,148.081560029131L211.93022395833333,145.14481717733432L214.43391666666668,169.1358728033958L214.87574479166668,172.8868174019894L216.12759114583335,190.84839725083904L216.86397135416667,171.10571315519093L217.08488541666668,140.032046808379L217.2321614583333,114.49257769440236L218.5576458333333,119.32250293424956L219.588578125,137.5149781540293L219.73585416666668,153.40523163400414L221.06133854166666,188.80818442811886L221.355890625,200.93340102270662L221.94499479166666,190.43819622510233L223.19684114583333,187.3573180881263L223.63866927083333,194.99556131937214L225.40598177083334,179.12410249174349L226.36327604166667,166.2230139289403L226.58419010416668,162.39276644029687L226.657828125,158.03528745582477L226.80510416666667,154.81920394885543L226.95238020833335,150.27490521937335L227.24693229166667,145.99805329538603L227.541484375,136.5135382572797L228.05695052083334,131.2161876704135L229.16152083333336,125.21488218608225L231.66521354166667,146.5573620227371L231.95976562500002,152.44445045432738L232.47523177083335,146.23540449735606L233.1379739583333,142.04721475370206L234.0216302083333,116.76605440059868L234.75801041666665,135.6340329934241L234.9052864583333,147.39445215407733L235.05256250000002,158.06030241474207L235.4207526041667,163.7887950681361L235.64166666666665,169.35462929824345L236.2307708333333,184.51788509472135L236.52532291666665,184.47614449959121L237.9980833333333,175.7973160567259L238.36627343749998,159.11334418631918L238.4399114583333,147.02049599496462L238.58718750000003,137.75174339776L238.80810156249998,144.89351110776659L239.10265364583333,160.84035405423325L239.17629166666666,171.2414414364462L239.6917578125,175.90868218834007L239.91267187500003,178.08428711874325L240.28086197916664,175.0164778451642L241.67998437500003,170.74625558480284L242.41636458333332,188.06006104318936L242.85819270833332,206.08403486058913L243.30002083333332,214.53829942822247L243.59457291666666,216.09381095576163L244.47822916666667,212.95474811191846L244.5518671875,209.52103330600326L246.39281770833333,205.40148275779063L247.05555989583334,204.64199805311188L249.632890625,156.31283348481188L249.70652864583334,127.61612838866361L249.8538046875,116.52980116931592L253.09387760416666,116.31049432088045L253.68298177083335,133.99552736175906L254.19844791666668,171.33146849788477L254.34572395833334,190.84072548725246L254.49299999999997,193.8462220261255L254.86119010416667,187.31967291294092L256.70214062499997,207.46774256236793L256.7757786458334,221.40765950977652L257.51215885416667,223.66305724432746L257.6594348958334,206.55180463656046L258.027625,162.41034679185213L259.05855729166666,169.0828828797988L259.5003854166667,182.8971161085884L260.1631276041667,165.0854654283742L261.2676979166667,138.54863239704855L261.56225,118.11453081292866L261.70952604166666,107.42748595320194L263.5504765625,119.82683073958945L264.4341328125,141.14951453449885L265.1705130208333,150.8888485944974L265.61234114583334,142.34032312905418L266.8641875,162.4089954662246L267.306015625,162.23308958742706L267.37965364583334,163.83979168439734L268.4105859375,169.15384618326462L268.85241406250003,164.8454178737208L269.22060416666665,170.2894054530486L270.9142786458333,145.2111782027186L271.4297447916666,120.67747615240039L271.7979348958333,94.31861159288258L272.75522916666665,78.87350788872233L273.27069531250004,91.86564319477188L274.375265625,128.53772331920686L275.258921875,150.1476173711816L275.4798359375,162.81275574422338L276.5107682291667,160.73996113884172L276.73168229166663,156.23376165175452L279.0880989583334,144.13582339730274L279.1617369791667,137.52494336981192L279.235375,136.5201356057213L280.560859375,127.86506739107702L281.66542968749997,126.5824232847063L285.20005468749997,132.06022320159298L285.862796875,147.40203949487406L286.5255390625,148.2541432431985L286.9673671875,146.86805235216906L288.513765625,101.95763035210673L288.6610416666667,78.92177397448522L288.7346796875,65.16968153463104L292.1956666666667,151.55473288036396L292.7847708333333,191.7702549363013L294.4784453125,218.44479982175676L295.1411875,221.42257043542182L295.4357395833333,213.16714014286367L295.7302916666667,198.1486547287471L296.6139479166667,158.38654597727225L296.83486197916665,132.77076153317827L297.42396614583333,118.48879255692616L297.64488020833335,111.60871780428788L299.4121927083333,121.5257272270439L299.70674479166667,125.97192935004847L299.8540208333333,131.32371180924778L301.9158854166667,154.78093513092125L303.60955989583334,139.67766771166572L304.7141302083333,113.30813908853789L305.303234375,108.96309671934873L305.67142447916666,99.09059578701789L306.03961458333333,96.12881548002323L306.4814427083333,93.19482421890335L307.6596510416667,109.55184908362565L308.9851354166667,121.72618813857683L309.0587734375,130.00260271938407L309.57423958333334,130.4564497025439L309.79515364583335,111.61639254538453L311.56246614583335,108.13316072254321L311.7833802083333,104.90943312973982L312.29884635416664,137.79858383742925L312.51976041666666,162.20604455200683L312.5933984375,172.4079361888363L312.74067447916667,169.29682113337387L312.81431249999997,161.76122725784887L314.65526302083333,132.43544616540643L315.3180052083333,90.66028343692415L317.0853177083333,80.75087634220262L317.674421875,70.70972333386725L318.70535416666667,86.55087944803668L318.7789921875,98.90160282657442L320.0308385416667,112.44373269203842L322.1663411458333,134.52150009448985L322.31361718750003,150.1051456809427L323.0499973958333,146.79859616006806L324.30184375,134.33294619513939L324.67003385416666,123.08198451395863L326.2900703125,132.64402112454104L326.510984375,133.26764520927995L326.8791744791667,122.67418500717854L327.68919270833334,92.16155821734796L327.83646875,78.20401538413475L328.3519348958333,97.41053160127412L328.7937630208333,114.78846927626927L329.3092291666666,157.88674151543105L329.75105729166665,205.51899902021117L329.97197135416667,232.15472240078353L331.22381770833334,208.47683255780785L332.10747395833334,163.68105408696837L332.3283880208333,145.01773908529398L332.84385416666663,146.43021338807543L334.0220625,140.05850044119862L334.16933854166666,136.23547267307256L334.61116666666663,154.4886079164938L334.90571875,168.14768923907894L336.0839270833334,136.4061484743368L337.3357734375,145.93722931146502L338.8085338541667,143.95076588465542L340.13401822916666,133.29525670627405L340.2812942708333,128.6604792190769L340.42857031249997,132.42779275229952L340.649484375,135.3823329530624L340.8703984375,140.3250326594576L342.1222447916667,138.7323727356986L342.9322630208333,150.54920860986869L343.9631953125,160.48533984440675L346.1723359375,122.7153227467883L346.31961197916667,94.70833352187105L348.08692447916667,110.32112071859136L348.3814765625,117.46750284732069L348.5287526041667,113.56431462155348L348.97058072916667,91.13821636457871L349.1914947916667,77.38176376556211L349.33877083333334,73.96383102075552L350.00151302083333,92.57571823384754L350.51697916666666,131.16192395413066L351.4742734375,125.29801449868029L352.06337760416665,109.74766706008558L353.020671875,116.75321562066675L353.16794791666666,124.38103600551304L353.3888619791666,135.7604327511443L354.5670703125,179.91041173151592L354.93526041666667,197.93172254972689L355.0825364583333,207.21737093217985L355.81891666666667,201.15011663232474L356.11346875000004,177.28674478408234L358.24897135416666,175.67174094346623L358.6171614583333,178.8213819684235L359.13262760416666,191.192891249113L362.37270052083335,129.10786065091006L362.9618046875,110.85351709667586L363.4772708333333,112.2799843565632L363.7718229166667,119.03617946610139L364.5818411458334,122.00238601499736L365.02366927083335,114.11023231512821L365.4654973958334,126.08091215049518L367.08553385416667,148.92805515913724L367.8955520833333,154.53787942586092L368.2637421875,143.83558954704304L368.926484375,117.93162641452388L369.00012239583333,101.53312792954368L369.88377864583333,92.71212679528628L370.693796875,110.65053479111408L370.9147109375,117.6188733085627L371.65109114583333,106.57477331656791L375.112078125,144.32787884495875L375.48026822916665,168.29863376355576L375.55390625,182.0563516072921L376.29028645833336,164.419038202957L381.66586197916666,151.47653485086076L382.47588020833336,145.7703545042664L382.54951822916667,142.60117078549254L382.6967942708333,138.87171997430033L382.84407031250004,133.02444631000088L383.064984375,121.13996150595244L383.1386223958333,111.55659052286234L384.97957291666665,101.36398755440251L385.3477630208333,101.33383480277371L385.56867708333334,107.58627293695268L386.15778125,114.71594908368601L386.9677994791667,113.23227396493515L387.63054166666666,105.56249895678559L387.8514557291667,101.60851687707617L387.92509375,100.09224823471925L389.0296640625,107.55860765477388L390.2078723958333,122.61269952375373L390.64970052083333,131.0898365111273L390.9442526041667,126.87445610589509L391.60699479166664,131.3099009021188L391.75427083333335,137.85843002444435L392.41701302083334,127.97389196148153L392.71156510416665,120.03011661468942L393.52158333333335,109.89572903582085L395.436171875,63.345932200639126L396.0989140625,100.52768345650131L397.203484375,131.02774729971205L397.71895052083335,145.30169382754357L398.1607786458333,137.57658270277614L398.4553307291667,126.18508949546376L398.52896875,117.08262539950186L399.9280911458333,106.80834270514585L400.14900520833334,105.52598988540724L402.79997395833334,112.69307120738615L403.2418020833333,110.23688464149896L404.3463723958333,96.01388427798832L404.4936484375,85.67528688440115L405.74549479166666,44.04714065528012L405.8191328125,23.374008176220983L407.21825520833335,64.85960773025184L407.29189322916665,90.76905659277847L407.51280729166666,113.51078886101561L408.17554947916665,128.24333873878487L408.9855677083333,120.72396823726126L410.82651822916665,118.36422356555386L411.04743229166667,114.91219850231312L411.85745052083337,116.38116525523401L412.0783645833333,140.33158987204064L412.22564062500004,153.15156754251524L412.3729166666667,157.21081638939134L413.2565729166667,146.8276558868199L414.5084192708334,146.12785930733233L416.0548177083333,149.4564096574162L416.57028385416663,161.07913951440165L417.1593880208334,156.4835466593621L417.45394010416663,137.85320491869416L417.96940624999996,84.95635654496651L418.0430442708334,51.20519501171552L418.1166822916667,37.24816245474564L418.85306249999996,43.034678910647884L420.7676510416667,66.544496123432L421.13584114583335,75.93014700548947L422.31404947916667,110.34578051098597L423.1240677083333,84.11664142107479L423.4186197916667,85.70986071652709L423.4922578125,94.69484127216387L424.0813619791667,87.6836128086709L424.52319010416664,72.71748758454147L424.74410416666666,39.1416341898475L425.40684635416665,22.9527969577186L425.7013984375,12.915557569162413L426.21686458333335,-3.727340263190081L426.29050260416665,-12.9032363394044L426.7323307291667,5.1461805671506236L427.17415885416665,52.627154141071586L427.3214348958333,96.71106083274994L427.5423489583333,136.90565223733026L430.1196796875,130.17883361253035L431.0033359375,127.69302395057113L432.40245833333336,97.78751020868401L432.549734375,81.71841169912868L434.0961328125,98.66304878480175L435.5688932291667,81.87351981324882L437.3362057291667,77.02909968091807L437.55711979166665,78.79641789148354L438.5144140625,84.53077028116421L439.1035182291667,75.54603034027303L439.7662604166666,79.2486024664835L439.9871744791667,88.4348187815728L440.1344505208333,94.61756607363118L440.20808854166665,99.64610605042873L443.44816145833335,107.54544683338224L443.8899895833333,103.79324015531782L444.1109036458334,100.26929370256563L444.62636979166666,96.23443811306583L445.58366406249996,78.77352475936594L445.7309401041666,59.458085145583496L445.804578125,45.11534763182121L446.3200442708333,34.98255818846774L447.6455286458334,28.023629339162348L449.339203125,56.63546779280028L449.70739322916666,96.15432435807203L451.1801536458333,56.48939355564848L451.32742968750006,34.356407129482854L451.7692578125,32.8309491454782L453.68384635416663,24.742754808801344L454.05203645833336,-10.676067367123009L455.00933072916666,8.333557108271808L455.3038828125,12.26560977578043L456.62936718750007,41.32662811005964L457.21847135416664,71.3505590099661L458.91214583333334,86.79654690688106L459.2066979166667,86.04519038872002L459.50125,85.08532749945793L459.5748880208333,82.9822716574272L461.4894765625,93.45163744607893L463.1831510416667,72.75381111848866L465.3186536458333,74.95862230811242L466.12867187499995,66.79474332176649L467.3068802083334,59.81395086084832L468.33781250000004,38.10966070581189L468.41145052083334,24.02271950041019L469.8842109375,27.34803205331103L471.6515234375,40.63479128727507L471.7987994791667,56.05742544093471L472.82973177083335,88.63457940067862L474.2288541666666,83.14505709803936L474.4497682291667,74.2286968564799L474.8179583333333,62.677772313106686L477.54256510416667,42.211221117731796L478.05803125000006,39.626302607538115L478.3525833333333,40.80569066909018L478.7944114583333,46.95085843691081L479.2362395833333,53.46085422981478L479.6044296875,52.8779933446797L479.82534375000006,40.889624657649186L479.97261979166666,23.72393217139242L481.73993229166666,42.78722119436184L482.3290364583333,36.33916489810751L483.5808828125,47.371497173539986L483.94907291666664,80.20677769865524L484.0963489583333,99.67655610236622L484.9800052083333,105.85147565360722L485.12728125000007,109.6952525045441L485.569109375,107.88287528577936L486.452765625,73.40664824839075L486.8209557291667,63.850515203541654L487.55733593749994,59.64397348510574L488.29371614583334,89.97665677736155L490.3555807291666,58.590551796284736L490.5028567708334,36.49636608378044L490.7974088541667,23.63320426565288L491.90197916666665,56.36133688481241L494.9211380208334,45.270342357750394L495.14205208333334,36.37131204776322L496.4675364583333,24.923341427876704L497.79302083333334,31.521142965199594L499.04486718749996,61.14037808681209L499.26578125,82.26699784818099L499.6339713541667,86.21976864580766L500.0021614583333,82.41345730377063L501.32764583333335,73.44265652619265L501.4012838541667,73.31260788807137L502.6531302083333,74.62289169347984L502.8740442708334,75.08511610082344L503.38951041666667,75.73266577678011L505.3777369791666,92.43381802826758L505.5250130208334,96.92440965710482L506.04047916666667,97.23550592046482L507.3659635416667,96.82056756219473L507.51323958333336,96.36335804032164L508.02870572916663,78.55007424426513L508.6914479166667,31.002534029732132L509.427828125,-21.21976977146356L510.60603645833334,-23.21641196234284L512.0051588541667,6.0617821795654265L512.3733489583333,13.401502901489263L512.520625,17.45825488091758L512.8151770833333,23.131694214608228L513.4779192708332,35.837420412478885L514.8034036458333,-2.561551283161748L516.2761640625,11.536303529982732L516.6443541666666,31.54110378265316L517.3070963541667,22.02521646881065L517.7489244791666,16.338818658329664L517.8225625,12.163415331115623L518.1171145833333,9.958975806241515L518.3380286458333,13.888735093119886L519.9580651041667,53.2912725312325L521.2835494791666,51.34165335497752L521.5781015625,39.73643957909224L521.9462916666666,28.19189698814045L523.1245,20.270216881285712L523.2717760416666,18.363238527208942L524.00815625,28.30237671007533L524.449984375,44.053427791369735L524.5972604166667,61.81076648551895L525.0390885416666,68.94812248896764L525.1863645833333,75.77576332961857L525.333640625,75.70742652241054L526.217296875,65.02273566104247L526.3645729166667,54.79407145972643L526.5118489583333,44.72333271207388L528.2055234375,59.62119539046549L528.868265625,63.97849867207977L529.0891796875,69.6471568579955L530.2673880208333,72.26164372417227L531.0037682291667,56.17569604520051L531.07740625,50.7121833272405L531.2246822916667,44.657467373147185L531.6665104166667,49.74783003326331L532.6238046875,87.44032737692916L532.9919947916667,113.9662314321671L533.5074609375,117.06306405461277L533.9492890624999,106.8660272849311L534.9065833333333,81.21893803562209L536.821171875,68.5841670581521L538.5148463541667,76.08957362731917L538.8093984375,87.95084904417995L538.8830364583333,93.81814407945265L539.3985026041668,88.05999308078458L540.6503489583333,75.85876684456444L541.4603671875,78.8346482527723L542.2703854166667,86.68245154931964L542.7858515624999,82.22830487640665L543.2276796875,75.59913324134878L544.9949921875,82.08021593489345L549.0450833333333,36.9153253241572L549.3396354166667,11.042726594734718L550.2969296875,51.56052402775426L551.1069479166667,68.49003643438094L551.4015,71.03518791381371L551.9906041666667,70.98886271072816L552.0642421875,70.26691550804745L552.3587942708333,68.95449200314579L553.0951744791666,68.30586302039711L553.8315546875,84.41441117912528L553.9051927083334,95.35215369365305L553.9788307291667,100.85043208998992L554.5679348958333,100.10016835856129L556.0406953125,88.96004336038918L557.8080078125,96.80691938312052L558.2498359375,105.67996630835789L558.3234739583334,110.72613539649312L558.5443880208334,114.00836133855695L559.2807682291667,112.02101327248512L559.9435104166668,101.08731424353917L560.1644244791667,93.99491126998166L560.9008046875,87.5181792965443L561.2689947916666,82.45207363111167L563.9199635416667,87.27949068557808L564.5827057291667,71.4337906027531L564.7299817708333,58.24735481537784L565.0245338541666,52.62619609235171L565.4663619791667,55.593443203788404L565.6872760416667,64.96320403074661L566.2027421875,75.25903081688547L566.7918463541666,86.29560028099664L567.0127604166668,93.75052798710757L567.6018645833333,89.29203704466838L567.8964166666667,80.9711610414044L568.19096875,76.58023155573204L569.8846432291667,91.29952001817479L570.1791953125,102.42180467166209L570.6946614583334,98.79855831381458L570.9892135416667,83.1117486075796L571.7992317708333,66.2953533262064L572.6828880208334,53.79912286561567L573.8610963541666,60.41584259707372L575.702046875,85.39560174965045L576.8066171875,60.49274566517487L577.8375494791667,32.89429072843185L578.4266536458333,42.898170553345174L579.0157578125,39.876503744266735L579.4575859375001,27.18842497041819L579.5312239583334,17.84019309072449L581.4458125,28.914082613749578L582.4767447916666,57.30857370436758L582.6976588541667,76.56655854804124L584.3176953125,91.86977775202186L585.5695416666666,93.36974074977083L586.4531979166667,99.96178679511489L586.6741119791667,99.21990072791029L587.1159401041666,94.91065024744327L588.4414244791667,91.19131146006454L588.5887005208334,87.22432357225266L589.9141848958333,82.9699211039886L590.2087369791667,83.14760996407587L591.7551354166667,79.29754847544075L592.0496875,78.12130008135817L592.5651536458333,80.21530277267307L593.5224479166667,67.65804002448124L593.9642760416667,64.61254956306617L594.9952083333334,69.40285669847675L595.8788645833333,71.62915805454278L596.9834348958333,75.7415560181223L597.5725390625,73.74327101321714L597.6461770833333,71.75759196490144L599.2662135416667,64.15682963056344L599.560765625,41.29384950610251L600.5916979166666,65.38430793833702L601.4753541666666,88.74689598595897L601.5489921875,97.6277075284744L602.0644583333334,105.61712106155576L603.095390625,90.37285301553925L603.5372187500001,86.24734293161923L604.0526848958333,88.02951415740907L604.1999609375,90.78792352599596L604.862703125,100.51829610778508L605.0099791666667,103.88070497837298L605.0836171875,104.16276568534109L606.4827395833333,86.39969441721422L606.7036536458334,74.81630966415067L607.3663958333334,58.12498862300963L608.3236901041666,48.38785506533224L609.3546223958333,47.49720428769694L610.0910026041666,52.654873241187886L611.2692109375,62.41335400781371L612.0792291666667,75.16370294705607L613.4047135416668,72.79496305429132L614.14109375,76.37162645787525L614.2147317708334,77.15245491619153L614.6565598958333,67.02353236978703L615.1720260416668,56.850670090441945L615.466578125,39.84873945660896L615.5402161458334,29.78641502312399L615.6138541666667,24.790252897588363L617.233890625,60.64202583711071L617.3075286458334,80.20945847852845L617.6020807291667,94.93478172023005L617.7493567708333,102.86757707751059L618.4120989583333,101.93519487180683L618.7066510416668,102.50954522086055L620.8421536458334,90.47508203786488L620.9157916666667,84.24935868035115L621.5785338541667,82.98973934432848L621.7994479166666,92.46116350593603L622.3149140625001,120.98168148321905L623.0512942708333,119.09731305159002L623.1249322916667,110.67808190397083L623.2722083333333,95.05226699845221L623.6403984375,77.67086365460021L624.0822265625001,51.55414754973128L624.3767786458334,35.62959339762723L624.5240546875,30.378616164778293L625.7022630208332,41.66643370878282L626.1440911458334,40.66459974600292L626.2177291666667,38.0735902637676L626.8068333333333,32.35406326282789L628.2059557291666,25.983761387684737L629.4578020833334,19.63948760184158L631.372390625,20.73827470503523L633.0660651041667,7.861550497600452L634.023359375,28.549543917851103L634.2442734375,42.859693110025574L636.5270520833334,38.696494201351875L636.6006901041667,36.383677958611635L637.7788984375,47.72214205912133L637.8525364583334,54.52522051942711L638.5889166666667,63.83636484621156L638.8098307291666,70.9270461463087L638.9571067708333,75.89875041164339L639.767125,82.12116111687787L640.208953125,91.08389596399697L640.4298671875,96.73919593927556L640.7244192708333,94.07010147282011L642.0499036458334,80.64488953453343L642.1235416666667,72.35838128682586L642.41809375,73.17109172281666L642.6390078124999,71.96961135129818L642.7862838541668,68.54151853854331L643.8172161458334,71.18177654530143L644.1117682291666,74.26992605338279L644.9217864583334,80.42657101664504L645.1427005208333,82.13064889003512L646.6154609375,87.38743831238646L647.2045651041667,84.57178465209536L647.9409453124999,83.78479104366104L648.0145833333332,82.98865782932162L648.8246015625,83.25140796381896L650.5182760416667,90.32746192823129L650.8864661458333,89.991679981458L652.1383125,71.0249170934421L655.3783854166667,52.77273345919028L655.4520234375,42.654409306283405L655.7465755208333,39.61455645366184L656.0411276041666,38.94756781901199L657.3666119791667,33.71143582361876L657.8084401041666,22.008524091827468L657.882078125,18.827761315072433L660.974875,32.838567658935304L661.5639791666667,43.90596924620256L662.1530833333333,59.917485356315275L662.2267213541667,67.48821676216659L663.4785677083333,68.37477444582159L664.4358619791667,64.62609720204826L664.7304140625,70.93812339033951L665.5404322916667,103.83351912885516L666.4240885416666,92.24127753049818L666.6450026041666,82.04655325207297L666.7922786458333,77.503134775763L667.0868307291666,65.82249271942418L667.6759348958334,51.618053361522314L672.0942161458332,101.19606366880642L672.5360442708334,80.31591794888L672.6096822916667,60.45293361938809L673.8615286458332,64.06104859561121L674.3769947916667,65.53176550051577L676.0706692708334,76.15548583276139L676.3652213541667,86.208733769789L677.1752395833333,105.33705140970994L677.3961536458332,121.23349662106632L678.648,82.22686367275998L679.0898281249999,47.76270211291081L680.0471223958333,23.243220914681583L681.5198828125,57.05288886641714L682.182625,89.50951652297528L683.3608333333333,120.8766653487311L683.508109375,134.00489081080113L684.1708515625,88.98730159886048L684.83359375,47.677178134797096L685.4226979166666,25.922245695481614L686.8954583333333,75.06547331873129L687.042734375,123.71005322200803L687.2636484375,139.26824873007982L687.4109244791667,135.7844562242258L687.8527526041667,128.09467726518452L688.7364088541666,128.1316367752766L688.810046875,130.9072862268246L689.3255130208333,144.5815430852534L689.5464270833334,151.35150622975783L689.9146171875001,141.6229631579268L690.4300833333333,110.91199116098204L690.577359375,97.50645870650507L694.3328984374999,112.69414791020112L695.1429166666667,146.7731635508082L695.3638307291667,163.17134216594164L695.7320208333333,162.06575808652408L696.9102291666667,138.35650206495532L697.20478125,133.687135538853L697.2784192708334,132.48206629176133L697.4256953125,136.45612961129476L698.1620755208334,135.1152738830629L698.4566276041667,123.45882516216953L698.7511796875,116.21043144045073L699.413921875,103.43899661967913L699.4875598958333,89.92210778250455L699.8557500000001,75.77283460640179L700.1503020833334,57.70394903607665L700.2239401041667,42.14236942164599L701.3285104166666,25.26228707516307L703.6112890625,42.62272361979736L704.4949453125,52.59935795493129L705.0104114583332,76.12428781232174L705.3786015625,102.41008143889543L706.4095338541666,109.4352219778204L707.0722760416667,102.10421010976917L708.1768463541666,105.48012747812112L708.9868645833334,116.22887895832699L709.5023307291666,105.43997423497214L709.57596875,99.63764890396409L710.2387109375,88.93704735019095L713.0369557291666,111.46290674545111L713.2578697916667,116.71799231950624L713.4051458333333,122.20802439560998L713.6260598958334,125.06241604962558L713.6996979166667,126.4511139927561L713.9942500000001,121.36088342720417L716.3506666666666,146.16545489857012L717.3815989583333,137.42383066900985L719.3698255208334,123.96469522382175L719.8116536458333,129.77229087978583L720.1062057291666,143.64602138784744L721.4316901041667,118.99795200037676L721.7998802083333,109.25329568940874L722.9044505208334,105.697204652227L723.1253645833334,114.27666019367994L723.3462786458333,123.40415172768633L724.8926770833334,135.45197007807818L725.7026953125,128.6356156405969L726.6599895833334,105.2714602797908L726.7336276041667,89.07795485627591L727.4700078125001,65.77957715054441L727.690921875,63.901964852526135L727.9854739583333,88.43595167293395L729.2373203125001,104.7066164514767L729.3845963541667,110.90569012328984L729.6055104166667,107.01258718845709L731.1519088541667,119.06884250237717L731.2991848958334,122.92438242450321L731.667375,121.18847560854807L732.4773932291666,127.08846998051348L733.0664973958334,118.96667986991866L733.3610494791667,99.6320673420233L734.6128958333334,86.27278063207697L735.0547239583333,68.72416492371734L735.7911041666666,62.244226267932305L735.9383802083333,59.09669313756229L736.3802083333334,61.04915752166L736.7483984375,66.22358893907776L737.1165885416666,71.91975301038174L737.3375026041667,83.82927142762327L738.4420729166667,108.21312926282397L738.5157109375,127.07778666226166L740.5039375,98.43645696580653L741.0930416666666,94.62568709264495L741.829421875,100.02119369338746L742.6394401041667,100.96779490443393L744.1858385416666,97.64849338647046L744.6276666666666,88.66909603188226L745.4376848958334,91.95838069605247L745.5113229166667,94.3484445083767L747.8677395833333,69.3352205511799L747.9413776041667,52.75387008611659L748.3832057291667,48.79792169860503L752.2123828125,67.87370757144669L752.3596588541667,80.36041162970692L752.875125,91.1843693486174L753.0960390624999,102.5378173723916L753.6115052083334,112.82065541742536L755.5997317708333,107.07405584811144L757.1461302083334,107.02745277719617L757.8825104166667,89.06718324233933L759.06071875,58.2068361999108L759.2079947916667,35.43315069831189L759.3552708333333,36.53127150372272L759.7234609375,36.21833283913266L762.0798776041668,80.47955213737387L762.4480677083334,108.81794631397482L763.2580859375,82.99169439595697L763.3317239583333,63.44671247591556L763.4053619791666,51.53461139480409L763.6262760416666,51.62969167913009L764.804484375,62.28415064449731L766.7927109375,55.071416994270514L767.013625,43.77909493814885L768.4863854166667,70.9941073535143L768.9282135416667,98.38329659359896L769.0018515625,119.5833275655344L770.9164401041667,88.66421510152018L771.43190625,73.652929413977L771.9473723958333,91.74129434460009L774.3774270833333,62.68046714912782L774.5983411458334,48.830430604981494L775.9974635416667,64.28360973768842L776.0711015625,71.28794904573805L776.73384375,75.21289356356057L777.2493098958333,92.19136726043205L777.4702239583333,94.34940250018951L777.9856901041667,73.70896316477717L778.2066041666667,70.11731318282057L779.6057265625,68.5870627143799L779.826640625,77.17882153788275L780.6366588541666,83.25941882417197L781.4466770833333,71.38186279540461L782.1830572916666,77.58308796720671L782.3303333333333,79.77668496181437L782.4039713541666,82.64311584487712L782.6248854166668,83.22919470223877L784.3921979166668,92.41973361821829L784.7603880208334,85.53184017093099L784.8340260416667,84.06003071013072L785.128578125,98.61029464302553L786.5277005208334,97.34463832427687L786.6013385416667,100.00973578152522L787.2640807291667,73.63439390280936L787.8531848958332,66.1853093810486L788.7368411458333,102.37014371156184L791.4614479166668,64.63833096852368L791.6823619791667,40.934876210320944L792.3451041666666,43.534465953055516L792.4187421875,43.75218479268668L792.8605703125,45.94213776112883L793.0078463541666,55.863620059021L793.6705885416667,91.34119130374194L796.2479192708333,75.00459064612735L796.5424713541667,93.5935236184456" style="fill: none;" fill="none"></path></g></g></g></g><g opacity="0.2"><g><g><g><path stroke="rgb(255, 112, 67)" stroke-width="2px" d="M75.03714322916667,347.0769230769231L75.47897135416667,347.0769230769231L76.65717968749999,347.0769230769231L76.80445572916668,347.0769230769231L77.02536979166668,347.0769230769231L77.83538802083334,347.0769230769231L78.93995833333334,347.0769230769231L79.16087239583334,347.0769230769231L80.6336328125,347.0769230769231L81.5172890625,347.0769230769231L82.99004947916666,347.0769230769231L85.12555208333335,347.0769230769231L85.34646614583333,347.0769230769231L86.00920833333333,347.0769230769231L87.18741666666666,347.0769230769231L87.33469270833334,347.0769230769231L90.574765625,347.0769230769231L90.94295572916667,347.0769230769231L92.04752604166667,347.0769230769231L92.48935416666667,347.0769230769231L92.85754427083333,347.0769230769231L93.37301041666667,347.0769230769231L93.81483854166667,347.0769230769231L96.39216927083334,347.0769230769231L96.5394453125,347.0769230769231L97.12854947916667,347.0769230769231L98.67494791666667,347.0769230769231L99.26405208333333,347.0769230769231L100.7368125,347.0769230769231L104.71326562499999,347.0769230769231L104.78690364583333,347.0769230769231L106.03875,347.0769230769231L106.2596640625,347.0769230769231L106.480578125,347.0769230769231L107.5851484375,347.0769230769231L107.8060625,347.0769230769231L107.87970052083334,347.0769230769231L108.61608072916665,347.0769230769231L110.015203125,347.0769230769231L111.5616015625,347.0769230769231L112.81344791666668,347.0769230769231L113.18163802083333,347.0769230769231L115.16986458333334,347.0769230769231L115.90624479166665,347.0769230769231L116.34807291666665,347.0769230769231L116.86353906250001,347.0769230769231L116.93717708333332,347.0769230769231L119.36723177083333,347.0769230769231L119.51450781250001,347.0769230769231L120.39816406250002,347.0769230769231L120.91363020833333,347.0769230769231L120.98726822916666,347.0769230769231L121.13454427083333,347.0769230769231L121.35545833333333,347.0769230769231L121.502734375,347.0769230769231L122.386390625,347.0769230769231L123.12277083333333,347.0769230769231L126.28920572916667,347.0769230769231L126.5837578125,347.0769230769231L126.87830989583334,347.0769230769231L127.46741406249998,347.0769230769231L128.13015625,347.0769230769231L129.08745052083333,347.0769230769231L129.38200260416667,347.0769230769231L130.04474479166666,347.0769230769231L130.339296875,347.0769230769231L130.48657291666666,347.0769230769231L130.63384895833335,347.0769230769231L131.14931510416667,347.0769230769231L131.51750520833335,347.0769230769231L131.66478125,347.0769230769231L132.03297135416668,347.0769230769231L132.18024739583333,347.0769230769231L132.47479947916668,347.0769230769231L132.7693515625,347.0769230769231L133.2111796875,347.0769230769231L133.28481770833335,347.0769230769231L134.9784921875,347.0769230769231L135.2730442708333,347.0769230769231L137.70309895833333,347.0769230769231L138.2185651041667,347.0769230769231L138.6603932291667,347.0769230769231L139.69132552083332,347.0769230769231L139.9858776041667,346.4984615298418L140.50134375,346.3827692462848L140.64861979166668,346.3249231045063L141.23772395833333,347.0769230769231L142.26865625,347.0769230769231L142.34229427083332,347.0769230769231L143.07867447916666,347.0769230769231L143.29958854166665,347.0769230769231L143.96233072916667,346.7298461616039L144.55143489583332,346.3827692462848L145.21417708333334,346.96123077181664L145.28781510416667,346.96123077181664L145.72964322916667,346.6719999982761L145.80328125,346.151384636072L146.17147135416667,344.87876925835246L147.49695572916667,347.0769230769231L147.71786979166666,347.0769230769231L148.38061197916667,346.3827692462848L150.58975260416665,345.7464615143262L151.547046875,346.4406153880633L151.98887499999998,347.0769230769231L152.2097890625,347.0769230769231L152.35706510416665,347.0769230769231L152.6516171875,347.0769230769231L153.0934453125,347.0769230769231L153.46163541666667,346.7876923033824L154.19801562499998,345.6307692307692L154.63984374999998,343.3747693135188L155.00803385416665,339.44123046581564L155.7444140625,327.29353802020734L158.8372109375,345.2836922939007L159.13176302083335,347.0769230769231L159.20540104166668,347.0769230769231L159.2790390625,347.0769230769231L160.6045234375,337.53230783022366L161.5618177083333,318.7323071406438L162.51911197916667,346.96123077181664L164.43370052083333,300.4529206496019L165.31735677083333,321.79815450815056L166.127375,333.5987696721004L166.3482890625,334.23507675757776L166.569203125,331.2849229665903L168.0419635416667,314.1624612074632L168.4837916666667,305.1963090163011L168.9992578125,292.8172301072341L169.4410859375,309.36123087956355L170.61929427083334,301.7255375788762L170.84020833333332,293.39569385235126L171.6502265625,308.3778458228478L171.871140625,307.79938483605014L172.0920546875,312.8319995586689L172.16569270833332,316.3027682377742L175.70031770833333,331.4006151639498L175.92123177083334,320.4098453815167L176.14214583333333,312.3113832913912L176.21578385416666,313.12123143122744L177.8358203125,299.64307802640474L178.7194765625,319.4264603248009L179.45585677083335,324.3433842292199L179.75040885416666,306.9895394545335L181.591359375,285.7021558321439L181.66499739583335,283.04123253455526L182.475015625,277.2566171499399L183.06411979166666,261.175382408729L183.358671875,271.7033861600436L183.50594791666666,272.6867712167593L185.86236458333335,237.97907339242786L186.15691666666666,232.94646418644828L187.9978671875,177.2984593318059L189.1760755208333,272.22400242732124L189.24971354166667,283.3883063683143L190.35428385416668,274.82707824707035L190.6488359375,258.2830747164213L191.8270442708333,207.89908001239482L191.90068229166667,209.2295389028696L193.52071875,193.37969407301682L193.8889088541667,198.29661935659556L194.25709895833333,208.65107515775242L194.47801302083332,194.88369539701023L194.846203125,178.3396918663612L195.0671171875,205.75876746544472L195.9507734375,171.22461759127103L196.5398776041667,198.41230327899638L197.05534375,164.45661714993992L197.57080989583332,191.586466393104L198.23355208333334,245.90400132399338L198.52810416666665,253.94461317795975L198.67538020833334,257.18400022066555L198.82265625,244.97846374511718L199.0435703125,247.52369760366582L199.55903645833334,220.79876967210038L200.22177864583333,220.74092219426083L200.95815885416667,208.41969627967248L201.2527109375,221.37723341721755L201.39998697916667,208.3618488018329L201.62090104166666,203.44492351825423L201.98909114583333,192.04923518254208L202.21000520833334,197.4867657001202L202.28364322916667,200.49476834810696L203.75640364583333,214.26215914212742L204.41914583333335,228.55015517014724L204.86097395833335,255.1015406681941L205.37644010416665,258.39876967210034L205.450078125,258.8036909836989L206.11282031250002,258.51445911114035L206.62828645833335,264.93538571871244L208.17468489583334,163.0683107816256L208.46923697916665,150.63138991135816L209.2056171875,165.4978496844952L209.50016927083334,184.47138108473558L210.16291145833333,188.52061626727763L211.12020572916666,142.41722459059497L211.34111979166667,139.35138549804688L211.78294791666667,135.41784527118392L211.93022395833333,140.7397028996394L214.43391666666668,205.122456242488L214.87574479166668,178.5132342998798L216.12759114583335,217.79076702411356L216.86397135416667,141.49168701171874L217.08488541666668,93.42154728816104L217.2321614583333,76.1833740234375L218.5576458333333,126.56739079402041L219.588578125,164.80369098369894L219.73585416666668,177.24061185396633L221.06133854166666,241.91261361929082L221.355890625,219.12122591458836L221.94499479166666,174.69538902869593L223.19684114583333,182.73600088266224L223.63866927083333,206.45292616624099L225.40598177083334,155.3169142503005L226.36327604166667,146.8713810847356L226.58419010416668,156.64739520733175L226.657828125,151.49906897911657L226.80510416666667,149.99507868840146L226.95238020833335,143.45845712515026L227.24693229166667,139.58277540940503L227.541484375,122.28676570012021L228.05695052083334,123.27016179011419L229.16152083333336,116.21292395958534L231.66521354166667,178.57108177771934L231.95976562500002,161.27508310171274L232.47523177083335,136.92183556189903L233.1379739583333,135.76493013822116L234.0216302083333,78.8443138709435L234.75801041666665,163.93600088266226L234.9052864583333,165.0350808950571L235.05256250000002,174.0590778057392L235.4207526041667,172.38153404822717L235.64166666666665,177.70338064340444L236.2307708333333,207.2627687894381L236.52532291666665,184.41353360689607L237.9980833333333,162.77907339242788L238.36627343749998,134.08738638070912L238.4399114583333,128.88122370793266L238.58718750000003,123.84861450195314L238.80810156249998,155.60616267277646L239.10265364583333,184.7606184739333L239.17629166666666,186.84307250976562L239.6917578125,182.9095433161809L239.91267187500003,181.34769451434798L240.28086197916664,170.41476393479567L241.67998437500003,164.34092219426083L242.41636458333332,214.0307692307692L242.85819270833332,233.1199955866887L243.30002083333332,227.2196962796725L243.59457291666666,218.4270782470703L244.47822916666667,208.24615384615385L244.5518671875,204.3704610971304L246.39281770833333,199.22215693547173L247.05555989583334,203.50277099609374L249.632890625,83.81908663236176L249.70652864583334,84.57107074444112L249.8538046875,99.90031034029445L253.09387760416666,115.98153404822716L253.68298177083335,160.52307692307693L254.19844791666668,227.33538020207328L254.34572395833334,220.10461097130408L254.49299999999997,198.35446683443507L254.86119010416667,177.52984924316405L256.70214062499997,237.6898470365084L256.7757786458334,242.31753493088942L257.51215885416667,227.04615384615389L257.6594348958334,180.88492572490983L258.027625,96.19816002478967L259.05855729166666,179.09168701171876L259.5003854166667,203.61846595177283L260.1631276041667,138.36798940805286L261.2676979166667,98.74338285006012L261.56225,87.4633784367488L261.70952604166666,91.39691866361177L263.5504765625,138.42584791917068L264.4341328125,173.133540226863L265.1705130208333,165.4978496844952L265.61234114583334,129.5175349308894L266.8641875,192.51200397198014L267.306015625,161.9692307692308L267.37965364583334,166.24984482985278L268.4105859375,177.12492793156548L268.85241406250003,158.38277540940504L269.22060416666665,178.45538682204028L270.9142786458333,107.59383732722357L271.4297447916666,83.87692307692308L271.7979348958333,54.780314753605765L272.75522916666665,55.70585233248196L273.27069531250004,111.35384615384613L274.375265625,183.54584350585938L275.258921875,182.5624584491436L275.4798359375,181.81046330378604L276.5107682291667,157.6307692307692L276.73168229166663,149.4744624211238L279.0880989583334,125.988916015625L279.1617369791667,127.6086233285757L279.235375,135.01292395958532L280.560859375,114.8824650691106L281.66542968749997,124.65845712515025L285.20005468749997,140.27692307692308L285.862796875,170.41476393479567L286.5255390625,149.53229886568508L286.9673671875,144.788916015625L288.513765625,34.591997352013216L288.6610416666667,44.367989408052864L288.7346796875,44.54154287484974L292.1956666666667,281.13230989896334L292.7847708333333,252.09353802020732L294.4784453125,258.4566171499399L295.1411875,225.88922635591945L295.4357395833333,200.78399470402647L295.7302916666667,175.62092660757213L296.6139479166667,98.74338285006012L296.83486197916665,94.34708486703724L297.42396614583333,97.06583909254809L297.64488020833335,101.28860567533052L299.4121927083333,136.40124136117788L299.70674479166667,132.6412325345553L299.8540208333333,139.35138549804688L301.9158854166667,189.9667701134315L303.60955989583334,117.02276658278245L304.7141302083333,73.75384615384614L305.303234375,102.4455331655649L305.67142447916666,84.28184438852162L306.03961458333333,91.68614501953124L306.4814427083333,88.79383732722356L307.6596510416667,134.08738638070912L308.9851354166667,139.98769672100363L309.0587734375,142.41722459059497L309.57423958333334,131.13722017728367L309.79515364583335,83.35630680964543L311.56246614583335,102.90831298828124L311.7833802083333,100.07384174053486L312.29884635416664,187.13230989896334L312.51976041666666,198.8172356238732L312.5933984375,187.71077364408055L312.74067447916667,164.63014855018028L312.81431249999997,150.45783644456128L314.65526302083333,88.44677452674279L315.3180052083333,27.997539344200707L317.0853177083333,65.8867657001202L317.674421875,55.647993821364174L318.70535416666667,110.31261361929089L318.7789921875,117.427687894381L320.0308385416667,132.75692749023438L322.1663411458333,167.63815119816704L322.31361718750003,173.48061406062197L323.0499973958333,141.838771878756L324.30184375,115.63447124774639L324.67003385416666,106.2055419921875L326.2900703125,146.98707604041468L326.510984375,134.2030813363882L326.8791744791667,106.78399470402643L327.68919270833334,46.39261803260217L327.83646875,57.26770113431489L328.3519348958333,126.22030592698317L328.7937630208333,140.85537578876205L329.3092291666666,222.53414987417364L329.75105729166665,276.9673852773813L329.97197135416667,272.10830747164215L331.22381770833334,172.95999779334434L332.10747395833334,96.48738638070913L332.3283880208333,117.02276658278245L332.84385416666663,148.54892484224763L334.0220625,130.50093102088343L334.16933854166666,130.50093102088343L334.61116666666663,181.8683107816256L334.90571875,188.63631122295675L336.0839270833334,88.79383732722356L337.3357734375,160.23385056715745L338.8085338541667,140.97107074444108L340.13401822916666,117.3119929387019L340.2812942708333,121.70831298828125L340.42857031249997,138.0787630521334L340.649484375,139.81414325420675L340.8703984375,147.73908221905046L342.1222447916667,136.3433828500601L342.9322630208333,168.2744624211238L343.9631953125,175.38953669621395L346.1723359375,66.06029710036056L346.31961197916667,52.69784968449518L348.08692447916667,133.74030151367188L348.3814765625,128.18707604041467L348.5287526041667,107.70953228290266L348.97058072916667,57.49906897911657L349.1914947916667,56.747084867037245L349.33877083333334,68.83693190354566L350.00151302083333,120.4935490534856L350.51697916666666,189.0412325345553L351.4742734375,116.5021503155048L352.06337760416665,86.42214590219352L353.020671875,127.26153846153846L353.16794791666666,135.82276658278246L353.3888619791666,152.82952786959135L354.5670703125,246.1353802020733L354.93526041666667,224.9636887770433L355.0825364583333,221.14584350585938L355.81891666666667,192.04923518254208L356.11346875000004,141.49168701171874L358.24897135416666,173.24923518254204L358.6171614583333,183.54584350585938L359.13262760416666,209.75015517014725L362.37270052083335,35.98031475360579L362.9618046875,83.47200176532452L363.4772708333333,114.41968524639422L363.7718229166667,129.17047213040865L364.5818411458334,126.45169583834137L365.02366927083335,102.27200176532453L365.4654973958334,144.03693190354568L367.08553385416667,183.19876967210035L367.8955520833333,162.9526158259465L368.2637421875,127.78215472881611L368.926484375,79.07568171574518L369.00012239583333,76.93538020207332L369.88377864583333,79.48062509390023L370.693796875,137.55814678485575L370.9147109375,128.07138108473558L371.65109114583333,90.00862332857571L375.112078125,200.95753713754507L375.48026822916665,204.2547661414513L375.55390625,202.69292837289663L376.29028645833336,137.96306809645432L381.66586197916666,132.06277982271638L382.47588020833336,137.211083984375L382.54951822916667,137.84739520733174L382.6967942708333,133.277543757512L382.84407031250004,124.2535358135517L383.064984375,103.31323429987982L383.1386223958333,97.18153404822718L384.97957291666665,86.07508310171275L385.3477630208333,101.28860567533052L385.56867708333334,116.96493013822113L386.15778125,125.41046330378607L386.9677994791667,111.0067612868089L387.63054166666666,94.05783644456132L387.8514557291667,95.67754375751203L387.92509375,97.81784527118388L389.0296640625,118.75814678485578L390.2078723958333,145.19383732722355L390.64970052083333,143.8055419921875L390.9442526041667,120.55138549804687L391.60699479166664,137.96306809645432L391.75427083333335,147.6812237079327L392.41701302083334,113.14708486703725L392.71156510416665,108.11445359450121L393.52158333333335,94.69414766751801L395.436171875,-6.478763052133415L396.0989140625,156.30031034029446L397.203484375,176.77784306452827L397.71895052083335,166.71261361929086L398.1607786458333,125.988916015625L398.4553307291667,109.09784968449519L398.52896875,103.42892925555888L399.9280911458333,91.39691866361177L400.14900520833334,103.60246065579929L402.79997395833334,123.44369319035455L403.2418020833333,106.55260479266828L404.3463723958333,74.67938373272234L404.4936484375,70.16739079402045L405.74549479166666,-18.395078688401465L405.8191328125,-7.635690542367756L407.21825520833335,127.08800706129806L407.29189322916665,129.6332298865685L407.51280729166666,147.62338726337137L408.17554947916665,150.3421635554387L408.9855677083333,109.44491248497596L410.82651822916665,114.82460655799278L411.04743229166667,109.73416090745192L411.85745052083337,118.58461538461538L412.0783645833333,176.2572267972506L412.22564062500004,172.38153404822717L412.3729166666667,163.29968965970554L413.2565729166667,131.25291513296276L414.5084192708334,145.07816443810097L416.0548177083333,154.44923518254208L416.57028385416663,178.5132342998798L417.1593880208334,149.59015737680286L417.45394010416663,109.90769230769229L417.96940624999996,5.611083984375L418.0430442708334,0.5784527118389571L418.1166822916667,16.312613619290886L418.85306249999996,51.71445359450121L420.7676510416667,101.80922194260816L421.13584114583335,90.00862332857571L422.31404947916667,161.9692307692308L423.1240677083333,44.772932786207924L423.4186197916667,88.09968965970555L423.4922578125,108.172312105619L424.0813619791667,77.16677011343151L424.52319010416664,50.26829974834736L424.74410416666666,-11.222145902193489L426.29050260416665,-26.66708045372596L426.7323307291667,32.22030592698318L427.17415885416665,123.84861450195314L427.3214348958333,162.83692087026745L427.5423489583333,197.19753934420072L430.1196796875,120.08860567533054L431.0033359375,123.9643094576322L432.40245833333336,52.92923959585337L432.549734375,57.61476393479566L434.0961328125,124.08000441331129L435.5688932291667,56.689226355919466L437.3362057291667,69.76246948242186L437.55711979166665,81.44739520733172L438.5144140625,93.13229886568512L439.1035182291667,62.06892042893628L439.7662604166666,84.80246065579927L439.9871744791667,102.21414325420672L440.1344505208333,103.89168701171874L440.20808854166665,107.18891601562501L443.44816145833335,119.39445800781249L443.8899895833333,98.16493013822117L444.1109036458334,94.9833740234375L444.62636979166666,90.18215472881612L445.58366406249996,52.582154728816086L445.7309401041666,30.48492572490984L445.804578125,23.601241361177873L446.3200442708333,19.78337402343748L447.6455286458334,17.58523606520432L449.339203125,99.55322547325721L449.70739322916666,155.4326092059796L451.1801536458333,-3.0080026479868174L451.32742968750006,1.1569274902343833L451.7692578125,30.54276216947115L453.68384635416663,12.610463303786059L454.05203645833336,-63.80430063100962L455.00933072916666,36.8479938213642L455.3038828125,18.163688777043276L456.62936718750007,84.91815561147835L457.21847135416664,116.3864553598257L458.91214583333334,109.9655287522536L459.2066979166667,84.91815561147835L459.50125,83.64553316556488L459.5748880208333,79.827687894381L461.4894765625,109.1556861290565L463.1831510416667,41.70707162710337L465.3186536458333,78.26583909254808L466.12867187499995,54.548924842247615L467.3068802083334,49.342762169471165L468.33781250000004,5.553225473257219L468.41145052083334,2.892307692307682L469.8842109375,32.336000882662276L471.6515234375,60.564930138221165L471.7987994791667,79.19137667142427L472.82973177083335,137.5003103402945L474.2288541666666,74.91077364408052L474.4497682291667,60.854156494140625L474.8179583333333,45.35138549804688L477.54256510416667,11.511394324669457L478.05803125000006,35.7489248422476L478.3525833333333,42.57477276141825L478.7944114583333,56.16861008864182L479.2362395833333,63.22584791917066L479.6044296875,52.00370201697717L479.82534375000006,22.907071627103353L479.97261979166666,-2.0246065579927564L481.73993229166666,71.3821547288161L482.3290364583333,26.66708045372596L483.5808828125,63.919995586688714L483.94907291666664,129.45969848632814L484.0963489583333,128.88122370793266L484.9800052083333,115.11385498046874L485.12728125000007,115.46091778094952L485.569109375,105.16430945763221L486.452765625,21.6923076923077L486.8209557291667,49.51631563626804L487.55733593749994,53.33416090745192L488.29371614583334,135.47568171574517L490.3555807291666,11.511394324669457L490.5028567708334,3.3550875150240564L490.7974088541667,4.338461538461523L491.90197916666665,105.45353581355168L494.9211380208334,28.633850567157445L495.14205208333334,23.022766582782445L496.4675364583333,7.751385498046892L497.79302083333334,41.417845271183914L499.04486718749996,105.56923076923077L499.26578125,113.95692749023436L499.6339713541667,92.14892484224761L500.0021614583333,76.70399029071514L501.32764583333335,59.98645535982574L501.4012838541667,73.1175349308894L502.6531302083333,76.58831740159255L502.8740442708334,75.77845271183894L503.38951041666667,76.70399029071514L505.3777369791666,117.48554640549878L505.5250130208334,103.6602971003606L506.04047916666667,97.70215031550482L507.3659635416667,96.19816002478967L507.51323958333336,95.67754375751203L508.02870572916663,51.8301485501803L508.6914479166667,-40.31877629206727L510.60603645833334,-12.610463303786018L512.0051588541667,49.979073392427864L512.3733489583333,24.41108398437502L512.520625,23.54338285006009L512.8151770833333,31.641853215144224L513.4779192708332,54.896009709284854L514.8034036458333,-60.16000882662257L516.2761640625,32.683085749699515L516.6443541666666,61.548304161658635L517.3070963541667,7.751385498046892L517.7489244791666,7.809221942608162L517.8225625,5.900310340294458L518.1171145833333,6.65231651893029L518.3380286458333,19.78337402343748L519.9580651041667,112.39507868840143L521.2835494791666,48.41722459059497L521.5781015625,22.328618915264435L521.9462916666666,10.875083101712761L523.1245,8.38769672100359L523.2717760416666,15.50277099609374L524.00815625,43.211083984374994L524.449984375,67.68000441331128L524.5972604166667,88.44677452674279L525.0390885416666,79.65415649414064L525.1863645833333,86.01722459059496L525.333640625,75.60492131159857L526.217296875,48.9956993689904L526.3645729166667,39.451075157752385L526.5118489583333,29.617224590594954L528.2055234375,81.9679894080529L528.868265625,70.51445359450122L529.0891796875,78.15014413686897L530.2673880208333,76.1833740234375L531.0037682291667,32.04677452674277L531.07740625,42.516914250300474L531.2246822916667,35.5753934420072L531.6665104166667,57.38337402343752L532.6238046875,143.97907339242786L532.9919947916667,153.75508751502403L533.5074609375,121.70831298828125L533.9492890624999,91.57047213040865L534.9065833333333,42.74830416165866L536.821171875,49.632010591947136L538.5148463541667,87.34768348106971L538.8093984375,105.74276216947113L538.8830364583333,102.61908663236177L539.3985026041668,79.42276658278246L540.6503489583333,57.55692749023439L541.4603671875,83.29847036508411L542.2703854166667,98.45415649414062L542.7858515624999,75.54708486703727L543.2276796875,65.65537578876202L544.9949921875,91.80183997521033L549.0450833333333,-30.832010591947117L549.3396354166667,-27.76617149939907L550.2969296875,112.33722017728364L551.1069479166667,93.88430504432091L551.4015,74.85291513296275L551.9906041666667,70.91937490609978L552.0642421875,69.18399470402643L552.3587942708333,66.98585674579327L553.0951744791666,67.33291954627404L553.8315546875,108.57723341721754L553.9051927083334,111.75876746544472L553.9788307291667,109.09784968449519L554.5679348958333,98.97477276141827L556.0406953125,72.24985586313099L557.8080078125,108.57723341721754L558.2498359375,118.98953669621393L558.3234739583334,118.29538902869592L558.5443880208334,118.93170025165266L559.2807682291667,109.03999117337742L559.9435104166668,84.68676570012018L560.1644244791667,83.35630680964543L560.9008046875,77.8030813363882L561.2689947916666,74.85291513296275L563.9199635416667,94.52061626727765L564.5827057291667,47.66524047851561L564.7299817708333,38.467701134314915L565.0245338541666,44.1944580078125L565.4663619791667,60.044313870943526L565.6872760416667,79.0178452711839L566.2027421875,90.70277099609376L566.7918463541666,102.85045447716345L567.0127604166668,104.93291954627404L567.6018645833333,82.60430063100964L567.8964166666667,68.48984703650842L568.19096875,69.99383732722357L569.8846432291667,113.37845271183893L570.1791953125,119.10523165189302L570.6946614583334,93.36368877704327L570.9892135416667,59.58153404822715L571.7992317708333,41.07076040414663L572.6828880208334,35.05477717472955L573.8610963541666,70.34092219426081L575.702046875,122.86524047851563L576.8066171875,23.13846153846154L577.8375494791667,-8.503391676682682L578.4266536458333,57.903990290715164L579.0157578125,35.34400353064905L579.4575859375001,8.156306809645443L579.5312239583334,3.817845271183878L581.4458125,45.524916898287245L582.4767447916666,99.90031034029445L582.6976588541667,105.45353581355168L584.3176953125,114.82460655799278L585.5695416666666,95.61968524639424L586.4531979166667,109.84985586313103L586.6741119791667,98.10707162710338L587.1159401041666,88.44677452674279L588.4414244791667,85.61230327899641L588.5887005208334,81.27384174053485L589.9141848958333,76.58831740159255L590.2087369791667,83.41414325420673L591.7551354166667,73.52245624248799L592.0496875,76.35692749023437L592.5651536458333,83.35630680964543L593.5224479166667,48.822145902193526L593.9642760416667,60.044313870943526L594.9952083333334,76.58831740159255L595.8788645833333,74.96861008864184L596.9834348958333,81.91015296349158L597.5725390625,70.74584350585937L597.6461770833333,68.77907339242788L599.2662135416667,52.75568612905649L599.560765625,6.99937931941106L600.5916979166666,101.51999558668871L601.4753541666666,123.79077805739183L601.5489921875,110.94892484224758L602.0644583333334,117.60124136117787L603.095390625,67.5064509465144L603.5372187500001,80.0590778057392L604.0526848958333,90.70277099609376L604.1999609375,94.9255375788762L604.862703125,115.11385498046874L605.0099791666667,108.92431828425482L605.0836171875,104.58585674579327L606.4827395833333,59.75508751502402L606.7036536458334,57.4412325345553L607.3663958333334,33.088007061298065L608.3236901041666,33.78215472881611L609.3546223958333,46.16122812124399L610.0910026041666,60.39137667142429L611.2692109375,77.05107515775242L612.0792291666667,94.28922635591945L613.4047135416668,69.24185321514422L614.14109375,81.73662156325122L614.2147317708334,78.32369760366585L614.6565598958333,51.8301485501803L615.1720260416668,41.59137667142428L615.466578125,14.345843505859358L615.5402161458334,14.692928372896638L615.6138541666667,17.296009709284863L617.233890625,114.41968524639422L617.3075286458334,109.56060744065505L617.6020807291667,117.02276658278245L617.7493567708333,114.7667701134315L618.4120989583333,100.5366215632512L618.7066510416668,103.3710707444411L620.8421536458334,72.4233872633714L620.9157916666667,74.91077364408052L621.5785338541667,81.10031034029448L621.7994479166666,106.66829974834737L622.3149140625001,163.76245844914365L623.0512942708333,116.27076040414661L623.1249322916667,98.04923518254206L623.2722083333333,71.6135446401743L623.6403984375,51.59875863882211L624.0822265625001,12.379073392427873L624.3767786458334,11.742762169471135L624.5240546875,22.5021503155048L625.7022630208332,58.59816002478968L626.1440911458334,39.161848801832924L626.2177291666667,34.18707604041467L626.8068333333333,23.774772761418276L628.2059557291666,16.42830857496994L629.4578020833334,10.12307692307693L631.372390625,22.386455359825707L633.0660651041667,-11.453535813551676L634.023359375,59.58153404822715L634.2442734375,64.32491689828727L636.5270520833334,32.451695838341365L636.6006901041667,32.91445359450119L637.7788984375,64.72983820988581L637.8525364583334,64.72983820988581L638.5889166666667,77.8030813363882L638.8098307291666,81.56306809645434L638.9571067708333,83.35630680964543L639.767125,91.45477717472956L640.208953125,104.52799823467548L640.4298671875,105.22214590219349L640.7244192708333,90.06645977313703L642.0499036458334,60.507071627103386L642.1235416666667,59.92861891526443L642.41809375,74.39015737680288L642.6390078124999,70.16739079402045L642.7862838541668,63.39937931941107L643.8172161458334,75.14216355543871L644.1117682291666,78.90215031550481L644.9217864583334,89.66153846153847L645.1427005208333,84.68676570012018L646.6154609375,95.27262244591347L647.2045651041667,80.34830416165865L647.9409453124999,82.60430063100964L648.0145833333332,81.7944580078125L648.8246015625,83.64553316556488L650.5182760416667,100.94154287484974L650.8864661458333,89.48800706129808L652.1383125,42.57477276141825L655.3783854166667,25.39445800781248L655.4520234375,27.476923076923065L655.7465755208333,35.05477717472955L656.0411276041666,37.947084867037276L657.3666119791667,25.85723783052886L657.8084401041666,4.454156494140617L657.882078125,14.0566171499399L660.974875,53.85477717472956L661.5639791666667,60.507071627103386L662.1530833333333,83.93475952148438L662.2267213541667,78.8443138709435L663.4785677083333,69.70461097130408L664.4358619791667,59.003081336388234L664.7304140625,80.40616267277643L665.5404322916667,153.17661273662858L666.4240885416666,74.85291513296275L666.6450026041666,66.75446683443508L666.7922786458333,70.6880070612981L667.0868307291666,48.30152963491588L667.6759348958334,30.311394324669475L672.0942161458332,175.56307912973256L672.5360442708334,48.9956993689904L672.6096822916667,30.658457125150242L673.8615286458332,69.47322105994593L674.3769947916667,67.73784085787258L676.0706692708334,92.09106633112982L676.3652213541667,101.28860567533052L677.1752395833333,134.02952786959133L677.3961536458332,145.07816443810097L678.648,23.716914250300498L679.0898281249999,-3.933540226862972L680.0471223958333,-13.536000882662256L681.5198828125,107.76739079402044L682.182625,138.1944580078125L683.3608333333333,167.92738858736482L683.508109375,153.69722900390624L684.1708515625,21.46091778094951L684.83359375,-14.288007061298046L685.4226979166666,-6.710152963491602L686.8954583333333,148.78031475360575L687.042734375,196.67692307692306L687.2636484375,162.6055419921875L687.4109244791667,130.5587674654447L687.8527526041667,116.56000882662258L688.7364088541666,128.18707604041467L688.810046875,135.07076040414663L689.3255130208333,165.09292837289664L689.5464270833334,161.5064509465144L689.9146171875001,127.03014855018029L690.4300833333333,64.84553316556492L690.577359375,77.39816002478966L694.3328984374999,135.47568171574517L695.1429166666667,197.89168701171874L695.3638307291667,187.76861008864182L695.7320208333333,160.40738196739784L696.9102291666667,102.79261803260218L697.20478125,126.68308574969952L697.2784192708334,130.6744624211238L697.4256953125,142.41722459059497L698.1620755208334,133.10399029071513L698.4566276041667,105.97415208082933L698.7511796875,105.33784085787258L699.413921875,84.28184438852162L699.4875598958333,69.6467745267428L699.8557500000001,54.548924842247615L700.1503020833334,30.600620680588932L700.2239401041667,18.80000000000002L701.3285104166666,-0.057836444561312206L703.6112890625,68.66337843674879L704.4949453125,67.56430945763222L705.0104114583332,111.41168259840745L705.3786015625,141.838771878756L706.4095338541666,119.97293278620795L707.0722760416667,91.10769230769232L708.1768463541666,110.54400353064904L708.9868645833334,132.35200617863583L709.5023307291666,89.25661714993988L709.57596875,90.93416090745191L710.2387109375,72.88614501953126L713.0369557291666,145.25169583834133L713.2578697916667,124.60062068058893L713.4051458333333,130.4430725097656L713.6260598958334,129.34400353064905L713.6996979166667,128.5341609074519L713.9942500000001,113.72553757887621L716.3506666666666,183.372312105619L717.3815989583333,124.31139432466948L719.3698255208334,103.77599205603966L719.8116536458333,138.48368436373195L720.1062057291666,164.45661714993992L721.4316901041667,82.02584791917067L721.7998802083333,94.63631122295673L722.9044505208334,100.36306809645433L723.1253645833334,127.14584350585938L723.3462786458333,137.0953890286959L724.8926770833334,153.52369760366588L725.7026953125,118.41108398437501L726.6599895833334,70.22522723858172L726.7336276041667,64.7876967210036L727.4700078125001,30.832010591947117L727.690921875,61.08554640549881L727.9854739583333,125.23693190354567L729.2373203125001,129.11261361929087L729.3845963541667,120.20430063100963L729.6055104166667,101.17293278620794L731.1519088541667,137.1532254732572L731.2991848958334,128.7076923076923L731.667375,118.58461538461538L732.4773932291666,135.93846153846155L733.0664973958334,106.78399470402643L733.3610494791667,70.63014855018028L734.6128958333334,66.23385056715743L735.0547239583333,42.40124136117789L735.7911041666666,52.52431828425482L735.9383802083333,54.37539344200721L736.3802083333334,63.97785409780649L736.7483984375,73.98523606520433L737.1165885416666,80.46399911733775L737.3375026041667,101.69354905348558L738.4420729166667,144.788916015625L738.5157109375,155.37477276141826L740.5039375,55.47446242112381L741.0930416666666,88.90953228290265L741.829421875,108.11445359450121L742.6394401041667,102.38769672100359L744.1858385416666,92.66954110952526L744.6276666666666,75.19999999999999L745.4376848958334,96.89230769230768L745.5113229166667,97.93354022686297L747.8677395833333,31.815384615384627L747.9413776041667,27.881844388521614L748.3832057291667,42.863999117337755L752.2123828125,96.48738638070913L752.3596588541667,99.09046771709735L752.875125,107.42030592698316L753.0960390624999,119.5679894080529L753.6115052083334,128.24491248497597L755.5997317708333,98.45415649414062L757.1461302083334,106.9575481708233L757.8825104166667,62.1267789400541L759.06071875,11.91631563626801L759.2079947916667,1.272622445913477L759.3552708333333,38.17845271183895L759.7234609375,35.7489248422476L762.0798776041668,146.8713810847356L762.4480677083334,151.3255375788762L763.2580859375,44.25231651893028L763.3317239583333,34.12923959585335L763.4053619791666,33.66645977313702L763.6262760416666,51.77231210561899L764.804484375,78.26583909254808L766.7927109375,44.25231651893028L767.013625,26.840611853966365L768.4863854166667,111.8166259765625L768.9282135416667,139.46708045372597L769.0018515625,151.3833740234375L770.9164401041667,42.28554640549879L771.43190625,51.136000882662245L771.9473723958333,118.87384174053484L774.3774270833333,19.089226355919475L774.5983411458334,28.05537578876202L775.9974635416667,87.4633784367488L776.0711015625,81.7944580078125L776.73384375,81.10031034029448L777.2493098958333,117.65907780573919L777.4702239583333,97.58645535982573L777.9856901041667,42.74830416165866L778.2066041666667,64.72983820988581L779.6057265625,66.29168701171875L779.826640625,90.06645977313703L780.6366588541666,92.38031475360576L781.4466770833333,53.5655287522536L782.1830572916666,86.88492572490985L782.3303333333333,83.06708045372596L782.4039713541666,86.94276216947117L782.6248854166668,84.10831298828126L784.3921979166668,106.2055419921875L784.7603880208334,75.19999999999999L784.8340260416667,81.85231651893028L785.128578125,120.43569054236778L786.5277005208334,95.44615384615383L786.6013385416667,104.00738196739783L787.2640807291667,34.07138108473557L787.8531848958332,55.01168259840744L788.7368411458333,156.64739520733175L791.4614479166668,8.04061185396635L791.6823619791667,5.379694073016813L792.3451041666666,47.433850567157464L792.4187421875,44.078763052133404L792.8605703125,49.227067213792076L793.0078463541666,70.74584350585937L793.6705885416667,144.55754817082334L796.2479192708333,50.49968965970551L796.5424713541667,121.47692307692306" style="fill: none;" fill="none"></path></g></g></g></g></g></g><g transform="translate(31, 376)" clip-path="url(#clip_1)"><clipPath id="clip_1"><rect width="883" height="24"></rect></clipPath><g><g><line x1="0" y1="0" x2="0" y2="5" style="visibility: inherit;" fill="rgb(0, 0, 0)" stroke="rgb(204, 204, 204)" stroke-width="1px"></line><line x1="73.63802083333333" y1="0" x2="73.63802083333333" y2="5" style="visibility: inherit;" fill="rgb(0, 0, 0)" stroke="rgb(204, 204, 204)" stroke-width="1px"></line><line x1="147.27604166666666" y1="0" x2="147.27604166666666" y2="5" style="visibility: inherit;" fill="rgb(0, 0, 0)" stroke="rgb(204, 204, 204)" stroke-width="1px"></line><line x1="220.9140625" y1="0" x2="220.9140625" y2="5" style="visibility: inherit;" fill="rgb(0, 0, 0)" stroke="rgb(204, 204, 204)" stroke-width="1px"></line><line x1="294.5520833333333" y1="0" x2="294.5520833333333" y2="5" style="visibility: inherit;" fill="rgb(0, 0, 0)" stroke="rgb(204, 204, 204)" stroke-width="1px"></line><line x1="368.1901041666667" y1="0" x2="368.1901041666667" y2="5" style="visibility: inherit;" fill="rgb(0, 0, 0)" stroke="rgb(204, 204, 204)" stroke-width="1px"></line><line x1="441.828125" y1="0" x2="441.828125" y2="5" style="visibility: inherit;" fill="rgb(0, 0, 0)" stroke="rgb(204, 204, 204)" stroke-width="1px"></line><line x1="515.4661458333334" y1="0" x2="515.4661458333334" y2="5" style="visibility: inherit;" fill="rgb(0, 0, 0)" stroke="rgb(204, 204, 204)" stroke-width="1px"></line><line x1="589.1041666666666" y1="0" x2="589.1041666666666" y2="5" style="visibility: inherit;" fill="rgb(0, 0, 0)" stroke="rgb(204, 204, 204)" stroke-width="1px"></line><line x1="662.7421875" y1="0" x2="662.7421875" y2="5" style="visibility: inherit;" fill="rgb(0, 0, 0)" stroke="rgb(204, 204, 204)" stroke-width="1px"></line><line x1="736.3802083333334" y1="0" x2="736.3802083333334" y2="5" style="visibility: inherit;" fill="rgb(0, 0, 0)" stroke="rgb(204, 204, 204)" stroke-width="1px"></line><line x1="810.0182291666666" y1="0" x2="810.0182291666666" y2="5" style="visibility: inherit;" fill="rgb(0, 0, 0)" stroke="rgb(204, 204, 204)" stroke-width="1px"></line><line x1="883.65625" y1="0" x2="883.65625" y2="5" style="visibility: inherit;" fill="rgb(0, 0, 0)" stroke="rgb(204, 204, 204)" stroke-width="1px"></line></g><g transform="translate(0, 8)"><text x="0" y="0" dx="0em" dy="0.95em" style="text-anchor: middle; visibility: hidden; font-family: Roboto, sans-serif; font-size: 12px; font-weight: 200;" fill="rgb(33, 33, 33)" stroke="none" stroke-width="1px">-50k</text><text x="73.63802083333333" y="0" dx="0em" dy="0.95em" style="text-anchor: middle; visibility: inherit; font-family: Roboto, sans-serif; font-size: 12px; font-weight: 200;" fill="rgb(33, 33, 33)" stroke="none" stroke-width="1px">0</text><text x="147.27604166666666" y="0" dx="0em" dy="0.95em" style="text-anchor: middle; visibility: inherit; font-family: Roboto, sans-serif; font-size: 12px; font-weight: 200;" fill="rgb(33, 33, 33)" stroke="none" stroke-width="1px">50k</text><text x="220.9140625" y="0" dx="0em" dy="0.95em" style="text-anchor: middle; visibility: inherit; font-family: Roboto, sans-serif; font-size: 12px; font-weight: 200;" fill="rgb(33, 33, 33)" stroke="none" stroke-width="1px">100k</text><text x="294.5520833333333" y="0" dx="0em" dy="0.95em" style="text-anchor: middle; visibility: inherit; font-family: Roboto, sans-serif; font-size: 12px; font-weight: 200;" fill="rgb(33, 33, 33)" stroke="none" stroke-width="1px">150k</text><text x="368.1901041666667" y="0" dx="0em" dy="0.95em" style="text-anchor: middle; visibility: inherit; font-family: Roboto, sans-serif; font-size: 12px; font-weight: 200;" fill="rgb(33, 33, 33)" stroke="none" stroke-width="1px">200k</text><text x="441.828125" y="0" dx="0em" dy="0.95em" style="text-anchor: middle; visibility: inherit; font-family: Roboto, sans-serif; font-size: 12px; font-weight: 200;" fill="rgb(33, 33, 33)" stroke="none" stroke-width="1px">250k</text><text x="515.4661458333334" y="0" dx="0em" dy="0.95em" style="text-anchor: middle; visibility: inherit; font-family: Roboto, sans-serif; font-size: 12px; font-weight: 200;" fill="rgb(33, 33, 33)" stroke="none" stroke-width="1px">300k</text><text x="589.1041666666666" y="0" dx="0em" dy="0.95em" style="text-anchor: middle; visibility: inherit; font-family: Roboto, sans-serif; font-size: 12px; font-weight: 200;" fill="rgb(33, 33, 33)" stroke="none" stroke-width="1px">350k</text><text x="662.7421875" y="0" dx="0em" dy="0.95em" style="text-anchor: middle; visibility: inherit; font-family: Roboto, sans-serif; font-size: 12px; font-weight: 200;" fill="rgb(33, 33, 33)" stroke="none" stroke-width="1px">400k</text><text x="736.3802083333334" y="0" dx="0em" dy="0.95em" style="text-anchor: middle; visibility: inherit; font-family: Roboto, sans-serif; font-size: 12px; font-weight: 200;" fill="rgb(33, 33, 33)" stroke="none" stroke-width="1px">450k</text><text x="810.0182291666666" y="0" dx="0em" dy="0.95em" style="text-anchor: middle; visibility: inherit; font-family: Roboto, sans-serif; font-size: 12px; font-weight: 200;" fill="rgb(33, 33, 33)" stroke="none" stroke-width="1px">500k</text><text x="883.65625" y="0" dx="0em" dy="0.95em" style="text-anchor: middle; visibility: hidden; font-family: Roboto, sans-serif; font-size: 12px; font-weight: 200;" fill="rgb(33, 33, 33)" stroke="none" stroke-width="1px">550k</text></g><line x1="0" y1="0" x2="883.65625" y2="0" fill="rgb(0, 0, 0)" stroke="rgb(204, 204, 204)" stroke-width="1px"></line></g></g></g></g></svg>