<svg viewBox="0 0 915.25 400" xmlns="http://www.w3.org/2000/svg"><g><g><g><g><g><line x1="30.78125" y1="377" x2="25.78125" y2="377" style="visibility: inherit;" fill="rgb(0, 0, 0)" stroke="rgb(204, 204, 204)" stroke-width="1px"></line><line x1="30.78125" y1="350.07142857142856" x2="25.78125" y2="350.07142857142856" style="visibility: inherit;" fill="rgb(0, 0, 0)" stroke="rgb(204, 204, 204)" stroke-width="1px"></line><line x1="30.78125" y1="323.14285714285717" x2="25.78125" y2="323.14285714285717" style="visibility: inherit;" fill="rgb(0, 0, 0)" stroke="rgb(204, 204, 204)" stroke-width="1px"></line><line x1="30.78125" y1="296.2142857142857" x2="25.78125" y2="296.2142857142857" style="visibility: inherit;" fill="rgb(0, 0, 0)" stroke="rgb(204, 204, 204)" stroke-width="1px"></line><line x1="30.78125" y1="269.2857142857143" x2="25.78125" y2="269.2857142857143" style="visibility: inherit;" fill="rgb(0, 0, 0)" stroke="rgb(204, 204, 204)" stroke-width="1px"></line><line x1="30.78125" y1="242.35714285714283" x2="25.78125" y2="242.35714285714283" style="visibility: inherit;" fill="rgb(0, 0, 0)" stroke="rgb(204, 204, 204)" stroke-width="1px"></line><line x1="30.78125" y1="215.42857142857142" x2="25.78125" y2="215.42857142857142" style="visibility: inherit;" fill="rgb(0, 0, 0)" stroke="rgb(204, 204, 204)" stroke-width="1px"></line><line x1="30.78125" y1="188.5" x2="25.78125" y2="188.5" style="visibility: inherit;" fill="rgb(0, 0, 0)" stroke="rgb(204, 204, 204)" stroke-width="1px"></line><line x1="30.78125" y1="161.57142857142858" x2="25.78125" y2="161.57142857142858" style="visibility: inherit;" fill="rgb(0, 0, 0)" stroke="rgb(204, 204, 204)" stroke-width="1px"></line><line x1="30.78125" y1="134.64285714285714" x2="25.78125" y2="134.64285714285714" style="visibility: inherit;" fill="rgb(0, 0, 0)" stroke="rgb(204, 204, 204)" stroke-width="1px"></line><line x1="30.78125" y1="107.71428571428571" x2="25.78125" y2="107.71428571428571" style="visibility: inherit;" fill="rgb(0, 0, 0)" stroke="rgb(204, 204, 204)" stroke-width="1px"></line><line x1="30.78125" y1="80.78571428571429" x2="25.78125" y2="80.78571428571429" style="visibility: inherit;" fill="rgb(0, 0, 0)" stroke="rgb(204, 204, 204)" stroke-width="1px"></line><line x1="30.78125" y1="53.857142857142875" x2="25.78125" y2="53.857142857142875" style="visibility: inherit;" fill="rgb(0, 0, 0)" stroke="rgb(204, 204, 204)" stroke-width="1px"></line><line x1="30.78125" y1="26.928571428571416" x2="25.78125" y2="26.928571428571416" style="visibility: inherit;" fill="rgb(0, 0, 0)" stroke="rgb(204, 204, 204)" stroke-width="1px"></line><line x1="30.78125" y1="0" x2="25.78125" y2="0" style="visibility: inherit;" fill="rgb(0, 0, 0)" stroke="rgb(204, 204, 204)" stroke-width="1px"></line></g><g transform="translate(20.78125, 0)"><text x="0" y="377" dx="0em" dy="0.3em" style="text-anchor: end; visibility: hidden; font-family: Roboto, sans-serif; font-size: 12px; font-weight: 200;" fill="rgb(33, 33, 33)" stroke="none" stroke-width="1px">48</text><text x="0" y="350.07142857142856" dx="0em" dy="0.3em" style="text-anchor: end; visibility: inherit; font-family: Roboto, sans-serif; font-size: 12px; font-weight: 200;" fill="rgb(33, 33, 33)" stroke="none" stroke-width="1px">50</text><text x="0" y="323.14285714285717" dx="0em" dy="0.3em" style="text-anchor: end; visibility: inherit; font-family: Roboto, sans-serif; font-size: 12px; font-weight: 200;" fill="rgb(33, 33, 33)" stroke="none" stroke-width="1px">52</text><text x="0" y="296.2142857142857" dx="0em" dy="0.3em" style="text-anchor: end; visibility: inherit; font-family: Roboto, sans-serif; font-size: 12px; font-weight: 200;" fill="rgb(33, 33, 33)" stroke="none" stroke-width="1px">54</text><text x="0" y="269.2857142857143" dx="0em" dy="0.3em" style="text-anchor: end; visibility: inherit; font-family: Roboto, sans-serif; font-size: 12px; font-weight: 200;" fill="rgb(33, 33, 33)" stroke="none" stroke-width="1px">56</text><text x="0" y="242.35714285714283" dx="0em" dy="0.3em" style="text-anchor: end; visibility: inherit; font-family: Roboto, sans-serif; font-size: 12px; font-weight: 200;" fill="rgb(33, 33, 33)" stroke="none" stroke-width="1px">58</text><text x="0" y="215.42857142857142" dx="0em" dy="0.3em" style="text-anchor: end; visibility: inherit; font-family: Roboto, sans-serif; font-size: 12px; font-weight: 200;" fill="rgb(33, 33, 33)" stroke="none" stroke-width="1px">60</text><text x="0" y="188.5" dx="0em" dy="0.3em" style="text-anchor: end; visibility: inherit; font-family: Roboto, sans-serif; font-size: 12px; font-weight: 200;" fill="rgb(33, 33, 33)" stroke="none" stroke-width="1px">62</text><text x="0" y="161.57142857142858" dx="0em" dy="0.3em" style="text-anchor: end; visibility: inherit; font-family: Roboto, sans-serif; font-size: 12px; font-weight: 200;" fill="rgb(33, 33, 33)" stroke="none" stroke-width="1px">64</text><text x="0" y="134.64285714285714" dx="0em" dy="0.3em" style="text-anchor: end; visibility: inherit; font-family: Roboto, sans-serif; font-size: 12px; font-weight: 200;" fill="rgb(33, 33, 33)" stroke="none" stroke-width="1px">66</text><text x="0" y="107.71428571428571" dx="0em" dy="0.3em" style="text-anchor: end; visibility: inherit; font-family: Roboto, sans-serif; font-size: 12px; font-weight: 200;" fill="rgb(33, 33, 33)" stroke="none" stroke-width="1px">68</text><text x="0" y="80.78571428571429" dx="0em" dy="0.3em" style="text-anchor: end; visibility: inherit; font-family: Roboto, sans-serif; font-size: 12px; font-weight: 200;" fill="rgb(33, 33, 33)" stroke="none" stroke-width="1px">70</text><text x="0" y="53.857142857142875" dx="0em" dy="0.3em" style="text-anchor: end; visibility: inherit; font-family: Roboto, sans-serif; font-size: 12px; font-weight: 200;" fill="rgb(33, 33, 33)" stroke="none" stroke-width="1px">72</text><text x="0" y="26.928571428571416" dx="0em" dy="0.3em" style="text-anchor: end; visibility: inherit; font-family: Roboto, sans-serif; font-size: 12px; font-weight: 200;" fill="rgb(33, 33, 33)" stroke="none" stroke-width="1px">74</text><text x="0" y="0" dx="0em" dy="0.3em" style="text-anchor: end; visibility: hidden; font-family: Roboto, sans-serif; font-size: 12px; font-weight: 200;" fill="rgb(33, 33, 33)" stroke="none" stroke-width="1px">76</text></g><line x1="30.78125" y1="0" x2="30.78125" y2="377" fill="rgb(0, 0, 0)" stroke="rgb(204, 204, 204)" stroke-width="1px"></line></g></g><g transform="translate(30, 0)" clip-path="url(#clip_0)"><clipPath id="clip_0"><rect width="884" height="377"></rect></clipPath><g><g><g><line x1="0" y1="0" x2="0" y2="377" fill="rgb(0, 0, 0)" stroke="rgb(66, 66, 66)" stroke-width="1px" opacity="0.25"></line><line x1="73.70572916666666" y1="0" x2="73.70572916666666" y2="377" fill="rgb(0, 0, 0)" stroke="rgb(66, 66, 66)" stroke-width="1px" opacity="0.25"></line><line x1="147.41145833333331" y1="0" x2="147.41145833333331" y2="377" fill="rgb(0, 0, 0)" stroke="rgb(66, 66, 66)" stroke-width="1px" opacity="0.25"></line><line x1="221.1171875" y1="0" x2="221.1171875" y2="377" fill="rgb(0, 0, 0)" stroke="rgb(66, 66, 66)" stroke-width="1px" opacity="0.25"></line><line x1="294.82291666666663" y1="0" x2="294.82291666666663" y2="377" fill="rgb(0, 0, 0)" stroke="rgb(66, 66, 66)" stroke-width="1px" opacity="0.25"></line><line x1="368.52864583333337" y1="0" x2="368.52864583333337" y2="377" fill="rgb(0, 0, 0)" stroke="rgb(66, 66, 66)" stroke-width="1px" opacity="0.25"></line><line x1="442.234375" y1="0" x2="442.234375" y2="377" fill="rgb(0, 0, 0)" stroke="rgb(66, 66, 66)" stroke-width="1px" opacity="0.25"></line><line x1="515.9401041666667" y1="0" x2="515.9401041666667" y2="377" fill="rgb(0, 0, 0)" stroke="rgb(66, 66, 66)" stroke-width="1px" opacity="0.25"></line><line x1="589.6458333333333" y1="0" x2="589.6458333333333" y2="377" fill="rgb(0, 0, 0)" stroke="rgb(66, 66, 66)" stroke-width="1px" opacity="0.25"></line><line x1="663.3515625" y1="0" x2="663.3515625" y2="377" fill="rgb(0, 0, 0)" stroke="rgb(66, 66, 66)" stroke-width="1px" opacity="0.25"></line><line x1="737.0572916666667" y1="0" x2="737.0572916666667" y2="377" fill="rgb(0, 0, 0)" stroke="rgb(66, 66, 66)" stroke-width="1px" opacity="0.25"></line><line x1="810.7630208333333" y1="0" x2="810.7630208333333" y2="377" fill="rgb(0, 0, 0)" stroke="rgb(66, 66, 66)" stroke-width="1px" opacity="0.25"></line><line x1="884.46875" y1="0" x2="884.46875" y2="377" fill="rgb(0, 0, 0)" stroke="rgb(66, 66, 66)" stroke-width="1px" opacity="0.25"></line></g><g><line x1="0" y1="377" x2="884.46875" y2="377" fill="rgb(0, 0, 0)" stroke="rgb(66, 66, 66)" stroke-width="1px" opacity="0.25"></line><line x1="0" y1="350.07142857142856" x2="884.46875" y2="350.07142857142856" fill="rgb(0, 0, 0)" stroke="rgb(66, 66, 66)" stroke-width="1px" opacity="0.25"></line><line x1="0" y1="323.14285714285717" x2="884.46875" y2="323.14285714285717" fill="rgb(0, 0, 0)" stroke="rgb(66, 66, 66)" stroke-width="1px" opacity="0.25"></line><line x1="0" y1="296.2142857142857" x2="884.46875" y2="296.2142857142857" fill="rgb(0, 0, 0)" stroke="rgb(66, 66, 66)" stroke-width="1px" opacity="0.25"></line><line x1="0" y1="269.2857142857143" x2="884.46875" y2="269.2857142857143" fill="rgb(0, 0, 0)" stroke="rgb(66, 66, 66)" stroke-width="1px" opacity="0.25"></line><line x1="0" y1="242.35714285714283" x2="884.46875" y2="242.35714285714283" fill="rgb(0, 0, 0)" stroke="rgb(66, 66, 66)" stroke-width="1px" opacity="0.25"></line><line x1="0" y1="215.42857142857142" x2="884.46875" y2="215.42857142857142" fill="rgb(0, 0, 0)" stroke="rgb(66, 66, 66)" stroke-width="1px" opacity="0.25"></line><line x1="0" y1="188.5" x2="884.46875" y2="188.5" fill="rgb(0, 0, 0)" stroke="rgb(66, 66, 66)" stroke-width="1px" opacity="0.25"></line><line x1="0" y1="161.57142857142858" x2="884.46875" y2="161.57142857142858" fill="rgb(0, 0, 0)" stroke="rgb(66, 66, 66)" stroke-width="1px" opacity="0.25"></line><line x1="0" y1="134.64285714285714" x2="884.46875" y2="134.64285714285714" fill="rgb(0, 0, 0)" stroke="rgb(66, 66, 66)" stroke-width="1px" opacity="0.25"></line><line x1="0" y1="107.71428571428571" x2="884.46875" y2="107.71428571428571" fill="rgb(0, 0, 0)" stroke="rgb(66, 66, 66)" stroke-width="1px" opacity="0.25"></line><line x1="0" y1="80.78571428571429" x2="884.46875" y2="80.78571428571429" fill="rgb(0, 0, 0)" stroke="rgb(66, 66, 66)" stroke-width="1px" opacity="0.25"></line><line x1="0" y1="53.857142857142875" x2="884.46875" y2="53.857142857142875" fill="rgb(0, 0, 0)" stroke="rgb(66, 66, 66)" stroke-width="1px" opacity="0.25"></line><line x1="0" y1="26.928571428571416" x2="884.46875" y2="26.928571428571416" fill="rgb(0, 0, 0)" stroke="rgb(66, 66, 66)" stroke-width="1px" opacity="0.25"></line><line x1="0" y1="0" x2="884.46875" y2="0" fill="rgb(0, 0, 0)" stroke="rgb(66, 66, 66)" stroke-width="1px" opacity="0.25"></line></g></g></g><g><g><line x1="0" y1="1023.2857142857143" x2="884.46875" y2="1023.2857142857143" fill="rgb(0, 0, 0)" stroke="rgb(153, 153, 153)" stroke-width="1.5px"></line></g></g><g><g><line x1="73.70572916666666" y1="0" x2="73.70572916666666" y2="377" fill="rgb(0, 0, 0)" stroke="rgb(153, 153, 153)" stroke-width="1.5px"></line></g></g><g><g><g><g><g><path stroke="rgb(255, 112, 67)" stroke-width="2px" d="M83.06635677083332,486.8415392104626L85.20382291666667,361.36135107600506L85.42494010416667,349.8288954242677L86.08829166666666,251.1284101542113L87.26758333333333,151.6535733809352L87.41499479166666,184.3896657761003L90.658046875,232.57452369385612L91.02657552083333,238.64248155294158L92.13216145833334,274.92226617358L92.57439583333334,250.6930354121166L92.94292447916666,180.08956964193902L93.45886458333334,212.7524500176928L93.90109895833334,164.9202252606859L96.48079947916668,383.80359759354775L96.6282109375,466.5536737787009L97.21785677083334,334.4892499114236L98.76567708333333,239.73988154321663L99.35532291666667,117.50771429389845L100.8294375,167.55522091062556L104.809546875,256.01871777935526L104.88325260416667,326.977375540868L106.13624999999999,305.5702881598135L106.3573671875,287.0171720099402L106.578484375,266.62186747582786L107.6840703125,120.01112782669162L107.9051875,44.97040828721255L107.97889322916667,14.64895413962411L108.71595052083333,90.11365026032733L110.116359375,68.60960224382018L111.6641796875,222.66433708977004L112.91717708333334,190.14860222778285L113.28570572916666,208.98544130745677L115.27576041666666,156.5745554143954L116.01281770833332,178.8774500035996L116.45505208333333,296.9036169805448L116.9709921875,145.2893212539617L117.04469791666666,48.01946797107967L119.47698697916667,99.4183983566952L119.6243984375,143.39889204849283L120.50886718750002,373.2056193016492L121.02480729166666,443.33738062107227L121.24592447916667,401.38771137226763L121.46704166666667,237.17033946531333L121.61445312500001,110.36491632123291L122.49892187500001,79.25236850261919L123.23597916666667,173.68483981148412L126.40532552083333,282.316473671887L126.70014843749999,259.70831523994326L126.99497135416668,215.60640949744462L127.58461718749999,165.77128577502077L128.24796874999998,147.66489788625952L129.20614322916668,117.78950029878943L129.50096614583333,280.44727571682006L130.16431770833333,239.1982127114117L130.459140625,176.37177655175608L130.60655208333333,117.83322686768162L130.75396354166668,72.96192625907145L131.26990364583332,98.44216397339076L131.63843229166667,135.5962934532656L131.78584375,193.91921286133572L132.15437239583335,266.774529360391L132.30178385416667,316.30428000506333L132.59660677083335,357.92457457739636L132.8914296875,355.9681798922246L133.3336640625,294.63590382636073L133.40736979166667,231.50041916174837L135.10260156249998,197.33524327910118L135.39742447916666,185.29170753449478L137.82971354166665,259.12060252362664L138.34565364583335,281.444215369854L138.78788802083335,203.11967536623436L139.81976822916667,177.2908101505093L140.11459114583334,180.48190562199153L140.63053125,265.1211376206315L140.77794270833334,338.36311607457617L141.36758854166666,311.8093023251482L142.39946875,217.8380050357488L142.47317447916666,161.5090953100933L143.21023177083333,177.9066049739675L143.43134895833333,157.10038333786122L144.09470052083333,176.23080800564637L144.68434635416668,258.5850619845227L145.34769791666668,267.71247398008995L145.42140364583332,266.34906156918885L145.86363802083332,177.15144351587156L145.93734375,115.17730289889937L146.30587239583332,79.44694330637356L147.6325755208333,191.57445827246812L147.8536927083333,208.8715247101849L148.51704427083334,270.09092057867434L150.72821614583333,203.6861418552613L151.686390625,220.23168922213068L152.128625,299.20387314152L152.3497421875,309.64118020597436L152.49715364583332,249.38998068915373L152.7919765625,168.69942191568947L153.2342109375,112.04495036882642L153.60273958333332,114.35197022129593L154.339796875,138.78703270127644L154.78203125,185.1160759418282L155.15055989583334,187.60064063432827L155.88761718749998,159.0390838740052L158.9832578125,30.256315685208172L159.27808072916667,-44.374356733197054L160.7521953125,-33.1204423444793L161.71036979166666,185.05415905576703L162.66854427083334,99.56093879719502L164.58489322916665,276.6192800294156L165.46936197916665,216.38185701911428L166.280125,171.46070371952524L166.5012421875,142.24598051157002L166.722359375,98.27331081060412L168.19647395833334,108.88953983544869L168.63870833333334,153.71329450804592L169.15464843750001,75.10140363266648L169.5968828125,4.883418538939942L170.77617447916666,131.48704537080042L170.99729166666665,168.29507614738955L171.8080546875,118.85761547341568L172.029171875,122.9635495609746L172.2502890625,188.11684155691475L172.32399479166668,253.43723957334385L175.86186979166666,172.90507282202668L176.08298697916666,171.44147062105492L176.30410416666666,203.95474198087447L176.37780989583334,219.3695504344964L177.9993359375,195.65786983066153L178.8838046875,210.62144358026418L179.62086197916668,233.60243675493518L179.91568489583332,187.6095917613874L181.758328125,138.47102762240155L181.83203385416667,130.80004843204858L182.642796875,157.75774991930166L183.23244270833334,79.30537245524309L183.52726562499998,44.94423497827288L183.67467708333334,24.65068220051694L186.03326041666668,129.77540110236242L186.32808333333332,231.2503810531759L188.1707265625,212.74995195736238L189.35001822916666,117.09397610518617L189.42372395833334,47.36709994882596L190.52930989583334,29.712819892740022L190.8241328125,37.16238649828361L192.00342447916665,88.32628000208479L192.07713020833333,106.09891414557278L193.69865625,204.44191662873598L194.06718489583335,390.4967189404287L195.025359375,414.25890800125046L195.2464765625,302.03548930148264L196.1309453125,172.6041589416945L196.72059114583334,67.58592229285567L197.23653125,40.766986877910675L197.75247135416666,43.040889976564976L198.41582291666666,40.68911691963749L198.71064583333333,58.61274764812037L198.85805729166665,98.55748765224416L199.00546875,150.47620194629195L199.2265859375,217.6578722428659L199.74252604166665,270.5694466711764L200.40587760416668,213.9368207213861L201.14293489583332,114.30537485993828L201.4377578125,71.81464526944366L201.58516927083332,50.682664027598L201.80628645833332,62.6161879246154L202.17481510416667,91.26529075769898L202.39593229166667,136.08345195095742L202.46963802083332,174.66135935024448L203.94375260416666,180.19681561014679L204.60710416666666,127.07578557231705L205.04933854166666,95.04160269540603L205.56527864583333,61.7105478381212L205.638984375,28.247629209464467L206.3023359375,-3.2478510457499365L206.81827604166668,-61.94556448312805L208.36609635416667,47.603813207008564L208.66091927083332,149.14842749416894L209.3979765625,159.23406060547526L209.69279947916667,137.6567204339813L210.35615104166666,103.7060223988515L211.31432552083334,116.99631786348785L211.53544270833333,78.70722915105878L211.97767708333333,10.655332559866437L212.12508854166668,-19.404376823420094L214.63108333333332,122.4077991901974L215.07331770833335,183.58254076594952L216.32631510416667,96.46980524308675L217.06337239583334,82.17146607955034L217.28448958333334,85.81801593051473L217.43190104166666,119.94323319896873L218.75860416666666,136.64835945106725L219.790484375,109.13302060140911L219.93789583333333,72.85825572458022L221.26459895833332,22.387529794088188L221.559421875,-25.829344197172937L222.14906770833332,-23.091483384235573L223.40206510416667,97.1446846852092L223.84429947916666,138.21081163292016L225.61323697916666,69.51606991345054L226.57141145833333,91.63519529715663L226.79252864583336,90.36525839184718L226.866234375,92.51158689371604L227.01364583333333,113.51107691388721L227.16105729166668,114.4776494355115L227.45588020833333,121.19730394702108L227.750703125,128.08351865099718L228.26664322916668,96.88497490781373L229.3722291666667,224.172566234797L231.87822395833334,137.35796173794853L232.173046875,78.53705618269657L232.68898697916666,106.25739464624588L233.35233854166665,128.27531201008992L234.23680729166665,251.6777512384724L234.97386458333332,268.95380181817416L235.12127604166665,261.8697088405383L235.2686875,240.92354698619025L235.63721614583335,196.4724106188207L235.85833333333332,112.44386343759406L236.44797916666664,53.6789026398443L236.74280208333334,24.613464717974644L238.21691666666666,109.71822744049112L238.58544531249998,194.87264581924023L238.65915104166666,227.43844709978572L238.8065625,226.35063229228987L239.02767968749998,149.54396723984098L239.3225026041667,39.26222269445569L239.39620833333333,-36.00865323461021L240.133265625,-67.63886424021308L240.5017942708333,34.493531202576186L241.90220312500003,12.402113790777005L242.63926041666664,-14.909454229195916L243.08149479166664,-16.754941815907596L243.52372916666664,19.730028336097238L243.81855208333334,59.01688564964231L244.70302083333334,0.8338555370370099L244.7767265625,-38.007552038582695L246.61936979166666,109.03775202575176L247.28272135416668,118.47192871178893L249.86242187499997,99.62745937725481L249.93612760416667,84.8739239208563L250.0835390625,75.69863184885173L253.32659114583333,169.07517417854243L253.91623697916668,196.44910121994639L254.43217708333336,293.82073658471614L254.57958854166665,340.2874460598036L254.72699999999998,354.7570341336849L255.09552864583333,310.551074335889L256.93817187499997,223.38434409494158L257.01187760416667,186.70288559689234L257.7489348958333,130.71016650392224L257.89634635416667,74.6022476902649L258.26487499999996,-7.049237606718528L259.29675520833337,2.6641651473249794L259.73898958333336,29.76580288216598L260.4023411458333,75.80977894871228L261.50792708333336,35.199133360438374L261.80275,27.42075586901135L261.95016145833335,37.349010157672055L263.7928046875,173.58640445101366L264.6772734375,168.13411359258774L265.41433072916664,98.88773907753223L265.85656510416663,120.29892751721555L267.1095625,178.60106175630096L267.551796875,175.6669293424245L267.6255026041666,159.25730046259753L268.65738281250003,104.6562505691322L269.09961718750003,99.09345312206673L269.4681458333333,140.08022130474123L271.16337760416667,172.75085364291724L271.6793177083333,149.91377817696133L272.04784635416667,109.6061322669818L273.0060208333333,134.43153650304615L273.5219609375,159.2903422553085L274.627546875,141.0834746315751L275.512015625,198.55795013975003L275.7331328125,239.0746296920915L276.76501302083335,170.3194805958423L276.9861302083333,119.26439278168225L279.3447135416667,185.95121613732337L279.41841927083334,243.25144807708222L279.492125,283.23273502884905L280.818828125,205.8623454414864L281.9244140625,131.86528084364474L285.46228906249996,110.08702564904388L286.125640625,153.51622442916894L286.78899218749996,40.19145223039462L287.2312265625,0.5792851173592485L288.779046875,75.85528782151425L288.9264583333333,126.08345347642567L289.0001640625,172.86221083402432L292.46433333333334,127.25291272129209L293.05397916666664,77.85974105841707L294.7492109375,42.73042756874867L295.41256250000004,151.12539528941818L295.7073854166666,254.7779580337235L296.00220833333333,261.44277399843935L296.8866770833333,249.4999542223232L297.1077942708333,218.4755464273497L297.6974401041667,196.62946085201526L297.9185572916667,179.26709029033162L299.68749479166667,171.97339210057316L299.9823177083333,150.25516661235974L300.12972916666666,130.76139061247022L302.19348958333336,65.58498051180418L303.8887213541667,78.28972067228185L304.99430729166664,91.56754011472498L305.583953125,64.68865377726127L305.95248177083334,31.165487842179843L306.32101041666664,6.258305854024414L306.76324479166664,-16.17214290883261L307.94253645833334,21.91087190414933L309.26923958333333,27.09550341941481L309.3429453125,36.23829712088023L309.8588854166667,56.15768927106327L310.0800026041667,104.08589763333408L311.8489401041667,112.86182758146526L312.07005729166667,118.71981740895176L312.5859973958333,94.76747666624854L312.8071145833334,73.07149750487604L312.8808203125,63.608460069959605L313.0282317708333,94.76894468995985L313.10193749999996,131.66893495536817L314.94458072916666,88.15705882303942L315.60793229166666,133.94923118484965L317.37686979166665,218.40540160633037L317.966515625,236.6032327458504L318.99839583333335,99.63022207461667L319.0721015625,27.409978882500198L320.32509895833334,88.29141672272345L322.46256510416663,155.57270306751732L322.60997656250004,166.10461280076785L323.3470338541666,175.9783292474948L324.60003125,178.29414040563975L324.9685598958333,220.72276420510616L326.5900859375,100.01167660254889L326.811203125,41.21087460951338L327.1797317708333,25.588258774497103L327.99049479166666,62.154825556271895L328.13790625,110.91559975794L328.65384635416666,126.97708071483653L329.09608072916666,186.00095942743707L329.6120208333333,113.10856908210403L330.0542552083333,40.451875458051525L330.27537239583336,1.058709852118959L331.5283697916667,39.089222624092265L332.4128385416667,135.8533849647491L332.63395572916664,195.04289798324402L333.14989583333335,138.03003272218L334.3291875,184.87730945656767L334.47659895833334,208.24624117320812L334.91883333333334,128.93316177022655L335.21365625,108.0046244965668L336.3929479166667,124.36876154922362L337.6459453125,114.04468385737334L339.1200598958333,126.9156707444602L340.4467630208334,207.88396894447885L340.59417447916667,234.97595936961704L340.74158593749996,219.50929976902182L340.962703125,161.65013814126806L341.18382031249996,73.50836531186732L342.4368177083333,231.52787222100352L343.24758072916666,283.41544747985387L344.2794609375,212.86568062344526L346.4906328125,209.9592679823086L346.63804427083335,203.1528563652083L348.40698177083334,242.69328689128588L348.7018046875,222.14696720400272L348.84921614583334,220.37517046086427L349.29145052083334,141.00380176992675L349.51256770833334,109.05342884986759L349.65997916666663,81.21220181065304L350.3233307291667,108.34717658565957L350.83927083333333,66.57016802502153L351.7974453125,33.263826605854156L352.3870911458333,81.4093156865874L353.345265625,34.788871839059L353.4926770833333,42.847047250687126L353.7137942708333,91.46779484821496L354.8930859375,127.42625491185869L355.2616145833333,135.64474144198815L355.40902604166666,148.11584157801377L356.14608333333337,89.1926346552346L356.44090625,52.707715432335704L358.5783723958333,78.10332875280972L358.94690104166665,70.88227803520284L359.4628411458333,45.168355315994766L362.7058932291667,149.1951461852024L363.2955390625,183.98252121331868L363.8114791666667,130.6936375056489L364.10630208333333,67.05232207335311L364.9170651041667,48.956265179174956L365.3592994791667,60.50318110457531L365.8015338541667,97.80675594406499L367.4230598958333,148.194619242447L368.23382291666667,207.8872009386916L368.6023515625,208.74945520241008L369.26570312499996,233.610238797454L369.33940885416666,265.16856691913233L370.22387760416666,264.49956707931835L371.034640625,159.29217210619873L371.2557578125,78.93346584393684L371.99281510416665,103.74851465214898L375.456984375,64.40340272352289L375.82551302083334,-11.06811930251434L375.89921875,-64.80660230311844L376.6362760416667,8.025605115931722L382.0167942708333,106.3899377853096L382.82755729166666,170.14797171092835L382.9012630208333,225.74477809578823L383.04867447916666,296.6951451756056L383.1960859375,352.40652142935545L383.417203125,393.9657667132912L385.70208072916665,390.58077098482676L385.9231979166667,360.9127483051818L386.51284375,268.4120627622315L387.32360677083335,242.7485135100873L387.9869583333333,244.85395538737217L388.20807552083335,222.52780673462055L388.28178125,195.18309617630527L389.3873671875,247.22871402684552L390.5666588541667,191.79994105823198L391.0088932291667,252.79267727706394L391.30371614583333,298.65175415414984L391.96706770833333,289.59819534963276L392.1144791666667,284.38149356911975L392.7778307291667,371.40831813854214L393.0726536458333,398.4192683794632L393.8834166666667,390.55170963738425L395.799765625,226.52175650404044L396.46311718749996,440.4751926505932L397.568703125,230.8398348068389L398.08464322916666,121.86206346432094L398.52687760416666,103.11566500643157L398.82170052083336,181.10911000239412L398.89540625,220.04203907359746L400.29581510416665,123.7312185133898L400.51693229166665,96.37402010949863L403.17033854166664,61.59439562980352L403.61257291666664,84.40476708630854L404.7181588541667,185.66271575105262L404.8655703125,229.77562698524724L406.11856770833333,269.7076594400498L406.1922734375,290.81245691586093L407.5926822916667,243.64004639988275L407.6663880208333,215.01344983699988L407.8875052083333,172.74008469450607L408.5508567708333,137.89719696102566L409.36161979166667,113.59847911324353L411.2042630208333,20.872522613732944L411.42538020833337,-35.894046355204765L412.23614322916666,3.237849683214982L412.45726041666666,11.529274664142093L412.604671875,15.588568085664324L412.75208333333336,33.373421634915495L413.63655208333336,76.84335513113061L414.8895494791667,203.96130618911707L416.43736979166664,197.34591670907568L416.95330989583334,216.48140223753387L417.5429557291667,216.38342016724482L417.83777864583334,232.1047754258038L418.35371875,231.52015672233148L418.4274244791667,233.8083739951211L418.50113020833334,236.95859993461792L419.2381875,195.92460661168454L421.1545364583333,276.1640537902703L421.5230651041667,378.3802984567619L422.7023567708333,330.8647439282703L423.51311979166667,202.93513042765838L423.80794270833337,137.37965790311426L423.8816484375,112.1569195195261L424.4712942708333,151.41900310200924L424.9135286458333,208.42155457988585L425.13464583333337,288.2400714961004L425.7979973958333,289.2216151480265L426.0928203125,260.6738278752626L426.60876041666666,246.99200936728226L426.6824661458333,226.01878115791476L427.1247005208333,185.2136923354088L427.56693489583336,175.37978847340622L427.71434635416665,173.73416537268767L427.93546354166665,164.82978493789827L430.5151640625,242.58872974918563L431.3996328125,267.32424113669043L432.8000416666667,248.88183203988962L432.947453125,236.20067640506866L434.49527343750003,179.3665371950572L435.9693880208333,188.99806846135633L437.7383255208333,225.58327950977974L437.9594427083333,263.7992452022058L438.9176171875,357.65869244385067L439.50726302083336,350.47678442949746L440.1706145833333,225.20448114964182L440.39173177083336,184.88667718465817L440.53914322916665,223.6550079543845L440.6128489583333,274.4370097033994L443.8559010416667,185.98962946269947L444.29813541666664,189.95591642578864L444.5192526041667,199.92954492470446L445.03519270833334,226.91801595628746L445.9933671875,267.1852480067385L446.1407786458333,282.29758559341946L446.2144843749999,291.09568599524675L446.7304244791667,228.67611930850407L448.05712760416674,212.44410673088925L449.75235937499997,207.1211832550166L450.1208880208334,195.90270584403603L451.5950026041666,209.6373295741881L451.7424140625,232.79653484909227L452.18464843749996,239.58291680048146L454.1009973958333,330.20317289915397L454.4695260416667,329.8026221341805L455.42770052083335,310.92772517739377L455.7225234375,335.7947730328103L457.04922656250005,293.19557153104216L457.6388723958333,259.9883462058044L459.33410416666663,165.741137431909L459.6289270833334,159.60310116903662L459.92375000000004,194.69742637742985L459.9974557291667,220.54730392957242L461.9138046875,217.63809746525257L463.6090364583333,176.68455961614936L465.7465026041666,230.15144594643004L466.55726562499996,270.2563010700553L467.7365572916667,267.2829259645603L468.7684375,169.74088693075208L468.8421432291667,105.3991233100974L470.31625781249994,144.56375148239638L472.08519531249993,142.91125253302735L472.23260677083334,138.09590095131745L473.2644869791667,104.23883285943428L474.6648958333333,114.7308842929485L474.8860130208334,96.19796900873501L475.2545416666667,73.01419025359485L477.9816536458333,174.35823747761373L478.49759375,235.54166416843557L478.79241666666667,241.1222776409888L479.2346510416666,132.8786391501624L479.67688541666666,70.35605213808162L480.04541406249996,55.624048349150634L480.26653125,53.78629108311621L480.41394270833337,54.24549879712134L482.18288020833336,25.438158064719595L482.7725260416666,61.74159433223979L484.0255234375,82.06953131509445L484.3940520833333,88.01884521030397L484.54146354166664,66.92189334705981L485.42593229166664,55.394717298344695L485.57334375000005,71.04452658523587L486.015578125,92.28300823978546L486.900046875,84.56036651090527L487.2685755208334,75.29506390068377L488.0056328125,83.63103505323116L488.7426901041666,48.40132545611549L490.80645052083327,114.56594388337547L490.9538619791667,146.34770836537342L491.2486848958333,219.1661931606164L492.3542708333333,139.416722470728L495.3762057291667,125.22775434250941L495.59732291666666,121.77695804286614L496.92402604166665,112.97433740593735L498.2507291666667,105.2691689413652L499.5037265625,88.47434207178055L499.72484374999993,72.09617009728154L500.09337239583334,58.44541470049372L500.46190104166664,70.39752138586537L501.7886041666667,130.8335169404933L501.86230989583333,171.45752969598192L503.1153072916666,102.01278380880015L503.33642447916674,62.607967504692716L503.8523645833333,35.24892171636898L505.8424192708333,96.98022003421595L505.9898307291667,149.9068397318854L506.5057708333333,150.74882305561425L507.83247395833337,123.62531355644326L507.9798854166667,109.39776449320622L508.4958255208333,122.35022355013692L509.1591770833333,206.22184759400167L509.896234375,373.8456828612542L510.70699739583335,337.51512646785113L511.0018203125,288.46507094994195L511.07552604166665,274.1689021782066L512.4759348958333,172.2029143790849L512.8444635416666,98.6900310545576L512.9918749999999,48.98115327192955L513.2866979166668,10.269389812976367L513.9500494791666,87.91677838851834L515.2767526041666,250.7827837842097L516.7508671875,198.7256653397572L517.1193958333333,181.6558080522081L517.7827473958333,165.38191997711166L518.2249817708333,115.65559699359125L518.2986874999999,85.49663240531353L518.5935104166667,107.63254594099094L518.8146276041667,125.65350784151971L520.4361536458333,111.47637398330195L521.7628567708333,91.55240568008993L522.0576796875,97.85559283955514L522.4262083333333,136.4830625932944L523.6055,108.710712778319L523.7529114583333,105.18841780545402L524.48996875,78.73163032979174L524.932203125,33.936257337802495L525.0796145833333,6.089603327590737L525.5218489583333,8.71634657384245L525.6692604166667,11.746517299250996L525.816671875,28.052204311784124L526.701140625,68.21104180355348L526.8485520833333,103.56246743268319L526.9959635416667,132.58263317829008L528.6911953125,180.58557086723138L529.354546875,172.27978588407348L529.5756640625,165.14202096194518L530.7549557291667,205.45306972002427L531.4920130208333,257.64541736955994L531.56571875,277.21996717283463L531.7131302083333,275.28497783831637L532.1553645833334,217.1431377780805L533.1135390625,148.32801730604342L533.4820677083333,184.70095570615328L533.9980078125,285.0484223486013L534.4402421875,257.68519708809845L535.3984166666667,195.16554024992936L537.3147656250001,169.6100384356719L539.0099973958334,137.2578604811856L539.3048203125,163.032713823327L539.3785260416666,172.14248132787944L539.8944661458333,185.47147975698508L541.1474635416666,176.7193246435674L541.9582265625,65.42330414108596L542.7689895833333,122.94798741542031L543.2849296874999,222.62993201921583L543.7271640625,283.03153064010087L545.4961015625,253.83605302325554L549.5499166666666,306.8716359229272L549.8447395833333,296.36126808983687L550.8029140625,245.35362292752794L551.6136770833334,221.2657451850883L551.9085,198.03429850134668L552.4981458333334,195.8362892775484L552.5718515625,198.82605106286695L552.8666744791667,229.4873399926658L553.6037317708333,165.32110348900764L554.3407890625,94.13007751611659L554.4144947916667,48.668777231279954L554.4882005208333,27.531708058913022L555.0778463541667,39.408310549633555L556.5519609375,121.82655529296717L558.3208984375,230.95122628621905L558.7631328125,167.27660277612594L558.8368385416667,102.73568910010643L559.0579557291667,58.248428252369855L559.7950130208334,57.40747566131305L560.4583645833334,46.29304038946359L560.6794817708334,27.506522083496804L561.4165390625001,25.982781898082337L561.7850677083334,66.91551970734822L564.4384739583334,173.39189229272296L565.1018255208334,211.4801394846077L565.2492369791667,214.35209273050728L565.5440598958334,222.53810538500846L565.9862942708334,306.3504354813713L566.2074114583334,324.37739592801785L566.7233515625,275.5198685936236L567.3129973958333,203.0657898041582L567.5341145833333,179.03577438908673L568.1237604166666,238.77903277484427L568.4185833333333,303.5462677680212L568.71340625,366.9116251998228L570.4086380208333,365.2381105808835L570.7034609375,335.3127218477976L571.2194010416667,242.3883556123406L571.5142239583333,177.15486722308233L572.3249869791666,122.34236698476326L573.2094557291666,123.43871083591237L574.3887473958333,217.48480368268233L576.231390625,198.99717449825337L577.3369765625,98.44787941470264L578.3688567708334,174.80773668856426L578.9585026041666,239.20434890269976L579.5481484375,255.22233266707678L579.9903828125,225.9482592084875L580.0640885416667,200.41296045586128L581.9804375,233.7786432779113L583.0123177083334,245.88104639678303L583.2334348958333,244.74076658623883L584.8549609375,198.06261431401316L586.1079583333333,295.1119946944521L586.9924270833333,274.27933556484027L587.2135442708334,255.85546259073527L587.6557786458334,218.08798033502848L588.9824817708334,199.84379559717007L589.1298932291667,192.290269962149L590.4565963541667,221.20345590952286L590.7514192708334,269.4115078697058L592.2992395833332,240.6553234317147L592.5940625000001,204.76704627111732L593.1100026041667,193.73622694087558L594.0681770833334,174.94603009675882L594.5104114583334,207.94246944834893L595.5422916666666,178.94575423457852L596.4267604166666,96.32672181913709L597.5323463541666,94.79590502664554L598.1219921875,108.95739029730716L598.1956979166666,120.4164407527425L599.8172239583333,165.5304342366274L600.112046875,165.02397893666458L601.1439270833333,186.90924286126628L602.0283958333333,204.4566852867235L602.1021015625,222.52515895994563L602.6180416666667,253.5088030873234L603.649921875,329.9954181351787L604.09215625,327.68526074264463L604.6080963541666,332.4388773056593L604.7555078125,316.92576235097715L605.418859375,297.00802966095245L605.5662708333333,287.58868233558155L605.6399765625,281.99092204347363L607.0403854166667,281.27127490795147L607.2615026041667,295.75791766345117L607.9248541666667,271.4354689927589L608.8830286458333,230.12886186396938L609.9149088541667,167.10631383120256L610.6519661458334,219.55736794524083L611.8312578125,255.71356608967176L612.6420208333333,217.62584407797988L613.9687239583334,175.16921415814394L614.70578125,121.36636755825819L614.7794869791667,101.25638538916817L615.2217213541667,188.6645455192152L615.7376614583334,234.43114684321506L616.032484375,277.99440239164323L616.1061901041667,304.7786356824225L616.1798958333334,318.69490226952604L617.801421875,214.16009572398542L617.8751276041667,148.42318385563837L618.1699505208333,116.4133487463489L618.3173619791667,86.65145261154403L618.9807135416667,98.90043806472904L619.2755364583334,132.10125379909485L621.4130026041666,206.84831631187535L621.4867083333334,246.09542657650158L622.1500598958334,221.01067876476603L622.3711770833334,195.24224960941064L622.8871171875,158.93850412791625L623.6241744791666,122.77636846796065L623.6978802083333,93.86224965220491L623.8452916666668,95.36377836275156L624.2138203124999,99.81928674072574L624.6560546875,94.68328139938112L624.9508776041666,66.7196634022682L625.0982890625,62.220955690810015L626.2775807291666,97.11399376796683L626.7198151041666,125.48210808110997L626.7935208333333,153.16668848932585L627.3831666666667,176.1325812349878L628.7835755208333,103.52525480875914L630.0365729166667,132.29100345375443L631.952921875,105.22604707957684L633.6481536458334,155.8776348221044L634.606328125,173.61214656927052L634.8274453125,171.65028136720403L637.1123229166667,206.1804537128134L637.1860286458334,233.46913512310863L638.3653203125,237.77833492954318L638.4390260416667,226.19942048941184L639.1760833333334,214.24337644089888L639.3972005208333,219.99545197058356L639.5446119791667,228.99397642832176L640.355375,210.5343957185305L640.797609375,207.80650032653898L641.0187265625,217.58747162449487L641.3135494791667,269.77318904246334L642.6402526041667,274.85619667437936L642.7139583333334,269.9351465760562L643.00878125,238.33051816065185L643.2298984375,201.91803833082193L643.3773098958334,170.10694613256123L644.4091901041667,187.10460118173407L644.7040130208334,224.33948239090782L645.5147760416667,244.25683557886666L645.7358932291667,217.69938213083697L647.2100078125001,183.99207757300553L647.7996536458334,201.79082454673306L648.5367109375,201.80636091063963L648.6104166666667,194.27567451103573L649.4211796875,160.5666805593698L651.1164114583333,182.1882866537545L651.4849401041668,219.72011484939554L652.7379375,213.96421176678024L655.9809895833333,267.65310177581875L656.0546953125,300.8897140993745L656.3495182291666,286.7939688513833L656.6443411458333,220.87093959068486L657.9710442708333,195.10457854671708L658.4132786458333,369.22188834158345L658.486984375,479.7242787383746L662.1722708333334,413.980736236841L662.7619166666666,316.78701727965006L662.8356223958333,258.0937875489249L664.0886197916667,163.6349720227632L665.0467942708333,326.31984364369424L665.3416171875,395.817331470466L666.1523802083333,193.97381759217078L667.0368489583333,81.86184226079904L667.2579661458333,24.88139107076516L667.4053776041667,16.005961063706362L667.7002005208334,40.57143378108084L668.2898463541667,139.65100230399648L672.7121901041667,144.2721908904546L673.1544244791667,129.70289746797116L673.2281302083334,126.07773355001396L674.4811276041667,249.49749069850725L674.9970677083334,229.3532136355874L676.6922994791666,179.67434360406446L676.9871223958334,188.69803719925156L677.7978854166666,217.0015390706495L678.0190026041666,243.516356944587L679.272,208.96109001950055L679.7142343749999,215.74893315162782L680.6724088541666,187.29191981442122L682.1465234375,131.87145239524455L682.809875,134.64957257414449L683.9891666666666,203.26089544137216L684.1365781249999,246.74352740328592L684.7999296875,179.76797029764955L685.46328125,190.8546384996521L686.0529270833333,202.2999218479602L687.5270416666666,217.99965999833734L687.674453125,181.80251685907496L687.8955703125,148.23563489310263L688.0429817708333,141.72139737175735L688.4852161458333,275.4716988530907L689.3696848958333,269.44273441936343L689.443390625,222.52422851608517L689.9593307291667,81.21925632613404L690.1804479166667,-18.374441273550918L690.5489765625,-54.48737740625533L691.0649166666667,86.70884940899504L691.212328125,251.242890113711L694.9713203125,211.60432193269372L695.7820833333333,219.86616458818767L696.0032005208334,253.20598693258268L696.3717291666667,236.80244026266413L697.5510208333333,110.79047730631504L697.8458437500001,72.66786603030829L697.9195494791667,69.99072783613288L698.0669609375,80.39456476651648L698.8040182291667,141.67887349910484L699.0988411458334,216.79575924524974L699.3936640625,287.66344650740723L700.057015625,328.6222173359455L700.1307213541667,351.0970545488191L700.4992500000001,266.18493386628916L700.7940729166667,178.5609603197735L700.8677786458334,127.81769932593215L701.9733645833333,98.77203994904006L704.2582421875001,158.89893825513826L705.1427109375,198.04493273806483L705.6586510416666,224.22538657067787L706.0271796875,164.69522372445897L707.0590598958333,130.64672538632158L707.7224114583333,190.4647569136602L708.8279973958333,284.79056761211564L709.6387604166666,227.53203677349848L710.1547005208333,169.4798082849765L710.22840625,121.83044489443041L710.8917578124999,169.44869222090773L713.6925755208333,114.37950433400957L713.9136927083333,110.74398667110194L714.0611041666667,127.4126760733572L714.2822213541666,180.44575589731014L714.3559270833333,222.01373350010843L714.65075,272.32124996160246L717.0093333333333,214.07234112860772L718.0412135416666,222.74725278027907L720.0312682291667,107.95851260479553L720.4735026041667,61.97455421379106L720.7683255208333,68.52958802754223L722.0950286458334,22.48318631872268L722.4635572916667,6.865465140319927L723.5691432291667,97.02285051276336L723.7902604166667,194.47227762725558L724.0113776041667,268.8836432508965L725.5591979166667,324.086478239182L726.3699609375001,256.11829907904206L727.3281354166667,169.9896871587812L727.4018411458334,113.03454301687863L728.1388984375001,107.62115109437661L728.360015625,91.28582858300003L728.6548385416667,108.89794215712423L729.9078359375001,65.50033014848763L730.0552473958334,50.71792716711289L730.2763645833334,96.13647469495578L731.8241848958334,179.1297378508567L731.9715963541666,220.63169081362858L732.340125,170.1867106944062L733.1508880208333,64.3043302104146L733.7405338541666,86.0307278346751L734.0353567708333,138.11301552552962L735.2883541666667,141.9491016039617L735.7305885416666,89.8550471832546L736.4676458333333,103.892450307023L736.6150572916666,119.96259660546093L737.0572916666667,170.21299557444777L737.4258203125,172.3036479131675L737.7943489583333,211.79662307189253L738.0154661458333,247.12555020247564L739.1210520833333,173.15734491379138L739.1947578125,120.4824168098122L741.1848125,177.63402891061176L741.7744583333333,187.85084673959045L742.511515625,170.98393497159327L743.3222786458333,183.9685071272779L744.8700989583333,155.62111249431462L745.3123333333333,189.2922463213132L746.1230963541667,292.0579159341802L746.1968020833333,361.957453984685L748.5553854166667,311.5860372450241L748.6290911458334,280.7707553426199L749.0713255208333,249.03273398908897L752.9040234375,186.09634153045104L753.0514348958334,164.6532137666244L753.567375,216.79292743817987L753.7884921875,248.7769042508195L754.3044322916667,310.191291160198L756.2944869791667,203.61834612469025L757.8423072916667,305.0698598869026L758.5793645833334,352.4764824299442L759.75865625,294.53359388214346L759.9060677083334,240.4331661908235L760.0534791666666,199.1403414346392L760.4220078125,171.67178943807147L762.7805911458333,180.98821405460131L763.1491197916666,175.16036029136856L763.9598828125,243.67064228086534L764.0335885416666,260.5410971888491L764.1072942708333,266.5702363162392L764.3284114583333,248.42942914761883L765.507703125,186.70378884058715L767.4977578125,131.6801386651573L767.718875,104.21322769982687L769.1929895833333,162.21749900872487L769.6352239583333,200.84393455102176L769.7089296875,218.3647794405042L771.6252786458333,235.39401627400886L772.14121875,234.0322644418781L772.6571588541667,163.9549448860044L775.0894479166666,214.5966910788543L775.3105651041667,240.5654341789986L776.7109739583333,246.07540007736287L776.7846796875,248.1426677960515L777.44803125,266.4557533963112L777.9639713541667,256.00844381983893L778.1850885416667,203.96148664538407L778.7010286458333,165.89347327733927L778.9221458333334,130.23463895907935L780.3225546875,119.01833508094423L780.543671875,111.37299118702926L781.3544348958333,58.26052872100656L782.1651979166667,58.11490509707102L782.9022552083334,167.41137491685035L783.0496666666667,245.107113951575L783.1233723958333,284.56154751087246L783.3444895833334,289.4919243975495L785.1134270833334,262.99030735720993L785.4819557291667,239.22617866176248L785.5556614583334,201.16283361830463L785.850484375,143.64085453325245L787.2508932291666,116.1290709998064L787.3245989583334,86.48088596361843L787.9879505208334,163.15738789923347L788.5775963541666,356.30100170272715L789.4620651041666,379.82218231174505L792.1891770833333,218.89917639144156L792.4102942708333,132.41663225611225L793.0736458333333,115.37268377784424L793.1473515625,116.67173997513288L793.5895859375,131.99262691877814L793.7369973958333,145.1167280481523L794.4003489583333,75.00604833401826L796.9800494791667,18.23662242605272L797.2748723958333,-20.402882043635906" style="fill: none;" fill="none"></path></g></g></g></g><g opacity="0.2"><g><g><g><path stroke="rgb(255, 112, 67)" stroke-width="2px" d="M81.5922421875,604.6810693740845L83.06635677083332,116.33142035348077L85.20382291666667,173.8239265169416L85.42494010416667,332.5678674152919L86.08829166666666,103.27104677472796L87.26758333333333,2.5582471575055625L87.41499479166666,233.47071634020125L90.658046875,304.8314203534807L91.02657552083333,247.7428776877267L92.13216145833334,329.33641624450684L92.57439583333334,214.3514039175851L92.94292447916666,74.18824304853167L93.45886458333334,261.7456957953317L93.90109895833334,93.17283248901367L96.48079947916668,712.1260632106236L96.6282109375,590.6781999043056L97.21785677083334,136.3931773049491L98.76567708333333,97.61607142857142L99.35532291666667,-65.8403489249093L100.8294375,242.62643473488941L104.809546875,388.71391419001986L104.88325260416667,433.41533865247453L106.13624999999999,273.45966134752547L106.3573671875,259.1875L106.578484375,236.02891213553295L107.6840703125,-99.9049753461565L107.97889322916667,-30.833226612635997L108.71595052083333,203.31069374084473L110.116359375,36.35353033883233L111.6641796875,453.74643884386336L112.91717708333334,141.375L113.28570572916666,237.2406999043056L115.27576041666666,77.95822661263604L116.01281770833332,212.33179187774658L116.45505208333333,473.94286741529197L117.04469791666666,-97.88531194414415L119.47698697916667,176.51679393223353L119.6243984375,209.36963258470809L120.50886718750002,717.9157101767404L121.09851302083332,482.560002054487L121.24592447916667,314.92963463919506L121.46704166666667,-9.155718394688222L121.61445312500001,-79.84321839468822L122.49892187500001,32.583546774727964L123.23597916666667,315.33354677472795L126.40532552083333,445.26392446245467L126.70014843749999,225.7960775920323L126.99497135416668,149.45355088370187L127.58461718749999,91.0186001913888L128.24796874999998,120.50531605311804L129.20614322916668,72.97640391758509L129.50096614583333,524.4339388438633L130.16431770833333,177.3246182032994L130.459140625,82.13212231227331L130.60655208333333,30.025402341570185L130.75396354166668,5.654975346156547L131.26990364583332,136.66252054486955L131.63843229166667,191.32748767307825L131.78584375,281.403591973441L132.15437239583335,376.05750410897394L132.30178385416667,390.59890597207203L132.59660677083335,420.35501643589566L132.8914296875,353.0335878644671L133.3336640625,202.6374897275652L133.40736979166667,136.7971921648298L135.10260156249998,146.08747945513045L135.39742447916666,167.2264039175851L137.82971354166665,369.8639450073242L138.34565364583335,314.92963463919506L138.78788802083335,85.63286536080498L139.81976822916667,138.54751232692175L140.11459114583334,185.26854882921492L140.63053125,392.0799856185913L140.77794270833334,448.22608375549316L141.36758854166666,271.9785817010062L142.39946875,76.88105910164971L142.47317447916666,77.01573072160993L143.21023177083333,202.5028694697789L143.43134895833333,125.89105088370185L144.09470052083333,204.92644500732422L144.68434635416668,382.11644295283725L145.34769791666668,281.403591973441L145.42140364583332,264.30394295283725L145.86363802083332,43.355016435895635L145.93734375,22.21609197344098L146.30587239583332,25.85140391758509L147.6325755208333,359.76573072160994L147.8536927083333,234.81712436676025L148.51704427083334,361.9200143814087L150.72821614583333,104.0789737701416L151.686390625,245.0500102724348L152.128625,417.66214902060375L152.3497421875,325.2971408026559L152.49715364583332,159.01318141392298L152.7919765625,47.663583755493164L153.2342109375,27.063243048531675L153.60273958333332,117.8125L154.339796875,175.4396264212472L154.78203125,254.6096408026559L155.15055989583334,191.32748767307825L155.88761718749998,116.19674873352051L158.9832578125,-162.91783659798756L159.4254921875,-101.11681447710313L160.7521953125,43.758928571428584L161.71036979166666,512.3160611561367L164.58489322916665,542.2067918777466L165.46936197916665,126.02572250366211L166.280125,104.0789737701416L166.5012421875,98.42389569963727L166.722359375,32.31430625915527L168.19647395833334,124.81388337271552L168.63870833333334,220.94892651694164L169.15464843750001,-42.81643268040247L169.5968828125,-100.44355910164967L170.77617447916666,321.3924856185913L170.99729166666665,223.5071223122733L171.8080546875,44.70142446245465L172.029171875,129.12245069231307L172.2502890625,285.84677955082486L172.32399479166668,351.4178365979876L175.86186979166666,52.10682269505091L176.08298697916666,169.24606731959753L176.30410416666666,252.72464902060375L176.37780989583334,242.4917631149292L177.9993359375,160.0903489249093L178.8838046875,233.06680420466833L179.62086197916668,268.07392651694164L179.91568489583332,118.62032427106585L181.758328125,64.76318141392298L181.83203385416667,119.29357964651923L182.642796875,198.1943021501814L183.23244270833334,-38.37319374084473L183.67467708333334,-5.789646966116805L186.03326041666668,287.46247945513045L186.32808333333332,383.46285097939625L188.1707265625,184.99930831364222L189.35001822916666,-26.389987673078252L189.42372395833334,-57.22321428571425L190.52930989583334,3.231399808611201L190.8241328125,48.33673640659876L192.00342447916665,165.07212025778634L192.07713020833333,132.75786536080497L193.69865625,351.9564203534808L194.06718489583335,669.5789224079678L194.65683072916667,513.7971408026559L195.025359375,311.5635632106236L195.2464765625,133.70036125183105L196.1309453125,-21.54283659798756L196.72059114583334,-89.94143268040247L197.23653125,0.5385837554931641L197.75247135416666,46.45174462454658L198.41582291666666,37.161457334245966L198.71064583333333,85.49819374084473L198.85805729166665,158.47459765842981L199.00546875,228.354273387364L199.2265859375,318.4303776877267L199.74252604166665,349.93680831364225L200.40587760416668,128.9878817967006L201.14293489583332,-35.141793932233526L201.4377578125,8.078550883701851L201.58516927083332,18.98469216482978L201.80628645833332,80.5164737701416L202.17481510416667,134.23894500732422L202.39593229166667,203.31069374084473L202.46963802083332,232.52822044917517L203.94375260416666,188.5L204.60710416666666,47.39424051557269L205.04933854166666,46.99032838003974L205.56527864583333,11.713965552193784L205.638984375,-21.946748733520508L206.81827604166668,-149.99213463919506L208.36609635416667,211.92787974221363L208.66091927083332,301.46534892490934L209.3979765625,174.36251027243478L209.69279947916667,105.29071017674036L210.35615104166666,52.77997534615655L211.31432552083334,136.93176106044226L211.53544270833333,21.27359608241491L211.97767708333333,-91.42251232692175L212.12508854166668,-64.49394089835033L214.63108333333332,335.1260632106236L215.07331770833335,275.34465312957764L216.32631510416667,-34.19929804120741L217.06337239583334,60.723957334245966L217.28448958333334,91.28784070696149L217.43190104166666,171.1310591016497L218.75860416666666,161.70604882921492L219.790484375,67.86001232692175L219.93789583333333,18.446108409336617L221.26459895833332,-53.31855910164967L222.14906770833332,-18.984692164829823L223.40206510416667,277.4989367893764L223.84429947916666,199.81000205448694L225.61323697916666,-33.526042665754034L226.57141145833333,124.81388337271552L226.79252864583336,88.46035303388324L226.866234375,95.73107964651923L227.01364583333333,145.01031194414412L227.16105729166668,115.92750821794782L227.45588020833333,131.27678571428572L227.750703125,138.4128407069615L228.26664322916668,50.08715929303851L229.3722291666667,415.10395322527205L231.87822395833334,7.136054992675781L232.173046875,-9.694302150181386L232.68898697916666,147.83790234157019L233.35233854166665,161.30218805585588L234.23680729166665,436.781410081046L234.97386458333332,294.8678776877267L235.12127604166665,251.24356937408447L235.2686875,209.50430420466833L235.63721614583335,129.79570606776647L235.85833333333332,-13.598957334245966L236.74280208333334,-18.984692164829823L238.21691666666666,237.37537152426586L238.58544531249998,322.604273387364L238.65915104166666,276.28714902060375L238.8065625,224.71891008104598L239.02767968749998,34.33396966116767L239.3225026041667,-126.16039412362232L240.133265625,-56.54995891026087L240.5017942708333,187.69212436676025L241.90220312500003,-20.735012326921748L243.08149479166664,-19.523173195975204L243.52372916666664,74.45748356410436L243.81855208333334,117.94717161996026L244.70302083333334,-86.44068963187084L244.7767265625,-96.26966340201244L246.61936979166666,329.6057081222534L247.28272135416668,132.62319374084473L249.86242187499997,71.36075537545342L249.93612760416667,62.743620736258364L250.0835390625,61.93569374084473L253.32659114583333,309.1399876730783L253.91623697916668,237.50999178205217L254.43217708333336,439.87818963187084L254.57958854166665,409.9875102724348L254.72699999999998,376.46141624450684L255.09552864583333,244.24213463919506L256.93817187499997,92.63424873352051L257.01187760416667,131.68069784981864L257.7489348958333,46.721087864467094L257.89634635416667,-9.559630530221085L258.26487499999996,-129.52646555219374L259.29675520833337,17.234269278390073L259.73898958333336,70.41825948442731L260.4023411458333,144.87574304853166L261.50792708333336,-25.716835021972656L261.80275,15.753189631870796L261.95016145833335,52.24139159066338L263.7928046875,377.9424958910261L264.6772734375,159.9556773049491L265.41433072916664,-4.981822695050909L265.85656510416663,152.41571017674036L267.1095625,266.0542631149292L267.551796875,171.26573072160994L267.6255026041666,134.64285714285714L268.65738281250003,22.754675728934146L269.09961718750003,90.74925695146833L269.4681458333333,201.5603735787528L271.16337760416667,221.7568021501814L271.6793177083333,115.65816497802734L272.04784635416667,49.1446634020124L273.0060208333333,171.66964285714286L273.5219609375,196.5785508837019L274.627546875,113.77317319597516L275.512015625,284.76966340201244L275.7331328125,299.84964902060375L276.76501302083335,67.18675695146833L276.9861302083333,42.681761060442255L279.3447135416667,285.9814511707851L279.41841927083334,329.20179598672047L279.492125,343.20466545649936L280.818828125,89.80676106044226L281.9244140625,20.869683946881963L285.46228906249996,77.41964285714288L286.125640625,218.66002259935652L286.78899218749996,-129.79570606776647L287.2312265625,-58.83896555219374L288.779046875,188.76929187774658L288.9264583333333,201.42570195879256L289.0001640625,243.03034687042236L292.46433333333334,58.838965552193784L293.05397916666664,3.769983564104365L294.7492109375,-9.963542665754034L295.41256250000004,313.71784687042236L295.7073854166666,410.2568021501814L296.00220833333333,271.439997945513L296.8866770833333,231.58572455814905L297.1077942708333,171.93893473488944L297.6974401041667,163.86033248901367L297.9185572916667,153.22353444780623L299.68749479166667,161.03284481593542L299.9823177083333,117.67782838003974L300.12972916666666,101.52072661263604L302.19348958333336,-32.17963463919506L303.8887213541667,97.34683091299873L304.99430729166664,111.48426927839007L305.583953125,24.370324271065854L305.95248177083334,-19.119261060442255L306.76324479166664,-49.81781605311804L307.94253645833334,79.03539412362237L309.26923958333333,34.87245069231305L309.3429453125,49.95248767307825L309.8588854166667,86.03677749633789L310.0800026041667,175.97821017674036L311.8489401041667,126.02572250366211L312.07005729166667,127.50680215018134L312.5859973958333,58.838965552193784L312.8071145833334,40.52752876281738L312.8808203125,49.41390391758509L313.0282317708333,141.50967161996024L313.10193749999996,187.01892035348075L314.94458072916666,22.889244624546578L315.60793229166666,202.6374897275652L317.37686979166665,345.0896572385516L317.966515625,263.89997945513045L318.99839583333335,-105.82929393223353L319.0721015625,-80.92038590567455L320.32509895833334,179.6135734830584L322.46256510416663,256.4946325847081L322.60997656250004,181.90247740064348L323.3470338541666,190.7889039175851L324.60003125,181.76785714285714L324.9685598958333,284.3656999043056L326.5900859375,-81.05495480128698L326.811203125,-46.990328380039784L327.1797317708333,2.1543350219726562L327.99049479166666,117.00467572893415L328.13790625,184.05676106044226L328.65384635416666,151.06930215018136L329.09608072916666,274.5367774963379L329.6120208333333,3.769983564104365L330.0542552083333,-68.53316497802734L330.27537239583336,-58.031038556780146L331.5283697916667,96.13499178205218L332.4128385416667,280.99962847573414L332.63395572916664,283.8271675109863L333.14989583333335,52.51073483058386L334.3291875,255.14822455814905L334.47659895833334,243.29963874816895L334.91883333333334,9.963542665754034L335.21365625,76.61181858607702L336.3929479166667,148.9149671282087L337.6459453125,98.55856731959753L339.1200598958333,146.2221510750907L340.4467630208334,329.33641624450684L340.59417447916667,275.6139450073242L340.74158593749996,196.30931036812916L340.962703125,74.86139569963727L341.18382031249996,-58.704293932233526L342.4368177083333,468.5571325847081L343.24758072916666,361.2468103681292L344.2794609375,107.04103033883233L346.4906328125,205.59964902060375L346.63804427083335,192.94323893955774L348.40698177083334,302.0039326804025L348.7018046875,191.32748767307825L348.84921614583334,217.7174753461565L349.29145052083334,21.946748733520508L349.51256770833334,61.12786946977887L349.65997916666663,39.450361251831055L350.3233307291667,149.04963874816895L350.83927083333333,3.9046551840645805L351.7974453125,-16.695685522896866L352.3870911458333,153.62754930768693L353.345265625,-35.141793932233526L353.4926770833333,54.9343103681292L353.7137942708333,164.39891624450684L354.8930859375,181.36394500732422L355.2616145833333,147.97247123718262L355.40902604166666,166.82249178205217L356.14608333333337,0.8078242710658542L356.44090625,-2.01966340201244L358.5783723958333,116.19674873352051L358.94690104166665,60.050701958792544L359.4628411458333,6.597471237182617L362.7058932291667,305.2353324890137L363.2955390625,236.16358375549316L363.8114791666667,50.76031194414411L364.10630208333333,-28.409651075090693L364.9170651041667,21.812179837908076L365.3592994791667,77.82355499267578L365.8015338541667,153.7621182032994L367.4230598958333,223.7764141900199L368.23382291666667,297.42607348305836L368.6023515625,210.04283659798756L369.26570312499996,270.90141419001986L369.33940885416666,312.50605910164967L370.22387760416666,263.4960673195975L371.034640625,1.4810796465192344L371.2557578125,-41.60459354945593L371.99281510416665,140.97108786446708L375.456984375,5.385734830583857L375.82551302083334,-124.27540234157019L375.89921875,-145.4143268040248L376.6362760416667,117.27391624450684L382.0167942708333,253.9364367893764L382.82755729166666,265.7850225993565L382.9012630208333,309.1399876730783L383.04867447916666,403.1206957953317L385.3335520833333,407.29464285714283L385.70208072916665,368.2481937408447L385.9231979166667,316.4107142857143L386.51284375,129.66103444780623L387.32360677083335,204.25318963187084L387.9869583333333,248.0121182032994L388.20807552083335,189.03858375549316L388.28178125,154.16603033883231L389.3873671875,325.2971408026559L390.5666588541667,108.65678160531182L391.0088932291667,344.28178160531183L391.30371614583333,367.4403694697789L391.96706770833333,276.01785714285717L392.1144791666667,276.55644089835033L392.7778307291667,501.9485549926758L398.08464322916666,-41.60459354945593L398.52687760416666,74.99606731959753L398.82170052083336,298.0992774963379L398.89540625,278.4414326804025L400.29581510416665,-20.735012326921748L400.51693229166665,55.33822250366211L403.17033854166664,9.42495891026087L403.61257291666664,118.62032427106585L404.7181588541667,337.54963874816895L404.8655703125,295.94499383653914L406.11856770833333,329.6057081222534L406.1922734375,322.46965312957764L407.5926822916667,172.88143062591553L407.6663880208333,172.07355499267578L407.8875052083333,109.3300369807652L408.5508567708333,85.63286536080498L409.36161979166667,77.15040234157019L411.2042630208333,-118.21641213553295L411.42538020833337,-121.0438998086112L412.23614322916666,61.93569374084473L412.45726041666666,23.966412135532906L412.604671875,21.677508217947818L412.75208333333336,60.050701958792544L413.63655208333336,142.0482553754534L414.8895494791667,394.6382327760969L416.43736979166664,187.42283248901367L416.95330989583334,245.1846305302211L417.5429557291667,216.23644706181116L417.83777864583334,255.68680831364222L418.35371875,230.64322866712297L418.4274244791667,237.2406999043056L418.50113020833334,241.68393884386336L419.2381875,134.37361662728446L421.1545364583333,396.5232245581491L421.5230651041667,531.7046654564994L422.7023567708333,259.59141213553295L423.51311979166667,11.040710176740362L423.80794270833337,39.04644911629815L423.8816484375,74.3228119441441L424.4712942708333,210.31212847573414L424.9135286458333,293.9253817967006L425.13464583333337,407.96784687042236L425.7979973958333,290.6939306259155L426.0928203125,217.85214696611678L426.60876041666666,226.46928160531178L426.6824661458333,194.55893884386336L427.1247005208333,124.00605910164971L427.56693489583336,160.62893268040247L427.71434635416665,171.26573072160994L427.93546354166665,151.47321428571428L430.5151640625,359.2271469661168L431.3996328125,304.42750821794783L432.8000416666667,221.21821839468822L432.947453125,217.17894295283728L434.49527343750003,94.11532838003974L435.9693880208333,203.44536536080494L437.7383255208333,280.4610960824149L437.9594427083333,321.1231937408447L438.9176171875,498.447863306318L439.50726302083336,339.7039224079677L440.1706145833333,37.2960262298584L440.39173177083336,124.40997123718262L440.53914322916665,281.8075041089739L440.6128489583333,350.6100123269217L443.8559010416667,53.31855910164971L444.29813541666664,195.90534687042236L444.5192526041667,214.88998767307825L445.03519270833334,267.4007225036621L445.9933671875,327.5860960824149L446.1407786458333,304.966091973441L446.2144843749999,304.29283659798756L446.7304244791667,135.04676927839006L448.05712760416674,188.09608786446708L449.75235937499997,199.13679804120744L450.1208880208334,179.07498972756522L451.5950026041666,230.23926516941614L451.7424140625,267.5353427614485L452.18464843749996,249.7624897275652L454.1009973958333,466.13355704716275L454.4695260416667,329.20179598672047L455.42770052083335,282.61537974221363L455.7225234375,373.0953448159354L457.04922656250005,229.29676927839006L457.6388723958333,210.17750821794783L459.33410416666663,24.370324271065854L459.6289270833334,150.39604677472795L459.92375000000004,247.3389141900199L459.9974557291667,259.32212025778637L461.9138046875,213.2742877687727L463.6090364583333,115.25425284249444L465.7465026041666,310.3517754418509L466.55726562499996,330.41358375549316L467.7365572916667,262.822863306318L468.7684375,23.42782838003974L468.8421432291667,8.886477879115532L470.31625781249994,203.31069374084473L472.08519531249993,140.43250410897392L472.23260677083334,130.8728735787528L473.2644869791667,53.45323072160993L474.6648958333333,130.46896144321985L474.8860130208334,68.39859608241491L475.2545416666667,38.23852212088447L477.9816536458333,326.37430831364225L478.49759375,327.3168042046683L478.79241666666667,249.4931978498186L479.2346510416666,-29.48681858607702L479.67688541666666,-23.427828380039784L480.04541406249996,33.526042665754034L480.26653125,51.02965518406458L480.41394270833337,54.9343103681292L482.18288020833336,-17.772853033883194L482.7725260416666,116.19674873352051L484.0255234375,112.5614367893764L484.3940520833333,96.94281605311804L484.54146354166664,35.276465552193784L485.42593229166664,38.103953225272036L485.57334375000005,94.51924051557269L486.015578125,124.14073072160993L486.900046875,72.97640391758509L487.2685755208334,61.39710998535156L488.0056328125,96.13499178205218L488.7426901041666,-4.4432389395577445L490.80645052083327,213.81287152426586L490.9538619791667,194.0203550883702L491.2486848958333,328.3939203534807L492.3542708333333,19.792516435895635L495.3762057291667,103.94430215018134L495.59732291666666,116.60076359340124L496.92402604166665,99.77040645054407L498.2507291666667,93.71141624450684L499.5037265625,63.282101767403745L499.72484374999993,47.528912135532906L500.09337239583334,37.96928160531182L500.46190104166664,88.32568141392298L501.7886041666667,221.4875102724348L501.86230989583333,232.39354882921492L503.1153072916666,-2.1543350219726562L503.33642447916674,3.5007430485316746L503.8523645833333,-5.789646966116805L505.8424192708333,189.57716751098633L505.9898307291667,229.29676927839006L506.5057708333333,152.01179804120744L507.83247395833337,82.94004930768695L507.9798854166667,88.05644089835029L508.4958255208333,141.77891213553292L509.1591770833333,332.02928365979875L509.896234375,625.2814357621329L510.70699739583335,283.0192918777466L511.0018203125,214.88998767307825L511.07552604166665,252.72464902060375L512.4759348958333,19.25393268040247L512.8444635416666,-11.579293932233526L513.2866979166668,-47.79825537545338L513.9500494791666,204.38786125183105L515.2767526041666,495.0817918777466L516.7508671875,120.63998767307825L517.1193958333333,156.05102212088448L517.7827473958333,140.97108786446708L518.2249817708333,41.06611251831055L518.2986874999999,40.25818552289691L518.5935104166667,140.83641624450684L518.8146276041667,152.68495069231307L520.4361536458333,90.21067319597516L521.7628567708333,61.666453225272036L522.0576796875,107.3103735787528L522.4262083333333,194.4242672239031L523.6055,67.0521880558559L523.7529114583333,99.90497534615655L524.48996875,39.04644911629815L524.932203125,-33.256802150181386L525.0796145833333,-35.68037768772669L525.5218489583333,12.656461443219854L525.6692604166667,16.29177338736396L525.816671875,52.51073483058386L526.701140625,128.44929804120744L526.8485520833333,156.58960587637765L526.9959635416667,176.1128817967006L528.6911953125,252.58997740064348L529.354546875,159.82110840933663L529.5756640625,154.4353735787528L530.7549557291667,265.91964285714283L531.4920130208333,335.93393884386336L531.56571875,306.5817918777466L531.7131302083333,272.38249383653914L532.1553645833334,129.9303776877267L533.1135390625,45.1053365979876L533.4820677083333,239.260363306318L533.9980078125,435.5696223122733L534.4402421875,216.6403591973441L535.3984166666667,101.38605499267578L537.3147656250001,131.27678571428572L539.0099973958334,88.72959354945593L539.3048203125,201.69499383653914L539.3785260416666,185.80713258470809L539.8944661458333,205.46497740064348L541.1474635416666,163.591091973441L541.9582265625,-101.520726612636L542.7689895833333,209.23501232692175L543.2849296874999,372.15284892490934L543.7271640625,373.63392857142856L545.4961015625,210.04283659798756L549.5499166666666,386.4250102724348L549.8447395833333,280.59571634020125L550.8029140625,168.84215518406458L551.6136770833334,185.13392857142858L551.9085,163.18712847573417L552.4981458333334,192.53927544185095L552.5718515625,203.31069374084473L552.8666744791667,275.479273387364L553.6037317708333,69.07174873352051L554.3407890625,-12.656461443219854L554.4882005208333,-4.173895699637312L555.0778463541667,57.22321428571429L556.5519609375,245.4539224079677L558.3208984375,394.6382327760969L558.7631328125,71.76466751098633L558.8368385416667,5.924318586077021L559.0579557291667,-8.482463019234757L559.7950130208334,56.146046774727964L560.4583645833334,29.621387481689453L560.6794817708334,-0.6732553754533801L561.4165390625001,23.69717161996026L561.7850677083334,128.3146264212472L564.4384739583334,333.1064511707851L565.1018255208334,268.6125102724348L565.2492369791667,218.66002259935652L565.5440598958334,234.81712436676025L565.9862942708334,432.0689306259155L566.2074114583334,351.4178365979876L566.7233515625,202.2335775920323L567.3129973958333,94.38467161996026L567.5341145833333,142.9907512664795L568.1237604166666,328.3939203534807L568.4185833333333,400.69712025778637L568.71340625,461.95966134752547L570.4086380208333,362.72783865247453L570.7034609375,290.42463874816895L571.2194010416667,103.00180625915527L571.5142239583333,79.30463463919502L572.3249869791666,40.12361662728448L573.2094557291666,125.08322661263604L574.3887473958333,358.55394295283725L576.231390625,171.26573072160994L577.3369765625,-52.37606321062364L578.3688567708334,289.3475225993565L578.9585026041666,335.79926722390314L579.5481484375,279.24930831364225L579.9903828125,182.03714902060372L580.0640885416667,162.11001232692175L581.9804375,283.8271675109863L583.0123177083334,264.03465107509066L583.2334348958333,243.03034687042236L584.8549609375,128.04538590567452L586.1079583333333,440.6860652651106L586.9924270833333,243.03034687042236L587.2135442708334,228.21965312957764L587.6557786458334,161.43675695146834L588.9824817708334,172.4775184903826L589.1298932291667,180.9599815096174L590.4565963541667,264.57323483058383L590.7514192708334,341.72358580998014L592.2992395833332,197.52104677472795L592.5940625000001,150.9346305302211L593.1100026041667,177.18999794551306L594.0681770833334,146.76073483058386L594.5104114583334,257.43712847573414L595.5422916666666,135.45068141392298L596.4267604166666,-27.601826804024796L597.5323463541666,92.49967983790808L598.1219921875,130.1996182032994L598.1956979166666,137.60501643589564L599.8172239583333,233.20142446245467L600.112046875,164.2642959867205L601.1439270833333,219.73713874816895L602.0283958333333,230.7778489249093L602.1021015625,249.6278694697789L602.6180416666667,299.98426927839006L603.649921875,444.7253407069615L604.09215625,324.2200246538435L604.6080963541666,339.56930215018133L604.7555078125,293.656089918954L605.418859375,267.1314306259155L605.5662708333333,273.45966134752547L605.6399765625,273.5942816053118L607.0403854166667,280.1918042046683L607.2615026041667,317.4878817967006L607.9248541666667,234.95179598672047L608.8830286458333,168.16895117078508L609.9149088541667,72.57249178205218L610.6519661458334,298.2339491162981L611.8312578125,309.947863306318L612.6420208333333,160.49426106044226L613.9687239583334,111.48426927839007L614.70578125,40.662097658429815L614.7794869791667,71.0914121355329L615.2217213541667,319.7767857142857L615.7376614583334,303.0810488292149L616.032484375,343.3392857142857L616.1061901041667,344.9549856185913L616.1798958333334,339.56930215018133L617.801421875,57.35788590567451L617.8751276041667,49.81781605311804L618.1699505208333,68.39859608241491L618.3173619791667,42.00860840933662L618.9807135416667,117.27391624450684L619.2755364583334,181.90247740064348L621.4130026041666,318.968910081046L621.4867083333334,304.966091973441L622.1500598958334,183.38355704716272L622.3711770833334,156.58960587637765L622.8871171875,104.48288590567451L623.6241744791666,68.53316497802734L623.6978802083333,50.491071428571416L623.8452916666668,97.61607142857142L624.2138203124999,106.50254930768695L624.6560546875,86.97927338736396L624.9508776041666,24.77423640659876L625.0982890625,55.47289412362237L626.2775807291666,149.45355088370187L626.7198151041666,168.03427955082483L626.7935208333333,194.69355910164967L627.3831666666667,210.58142035348072L628.7835755208333,-5.385734830583857L630.0365729166667,175.4396264212472L631.952921875,64.62861251831055L633.6481536458334,231.85501643589564L634.606328125,200.2139141900199L634.8274453125,168.70748356410436L637.1123229166667,257.9757122312273L637.1860286458334,274.4021572385515L638.3653203125,244.24213463919506L638.4390260416667,208.83104882921492L639.1760833333334,196.30931036812916L639.3972005208333,228.62356526511059L639.5446119791667,242.4917631149292L640.355375,182.84502465384347L640.797609375,203.71465723855152L641.0187265625,232.25892857142858L641.3135494791667,348.05176516941617L642.6402526041667,282.4807081222534L642.7139583333334,262.55357142857144L643.00878125,190.92357553754533L643.2298984375,147.29931858607702L643.3773098958334,122.39030783517022L644.4091901041667,212.60108375549316L644.7040130208334,280.1918042046683L645.5147760416667,274.13286536080494L645.7358932291667,177.86320195879256L647.2100078125001,133.43112073625838L647.7996536458334,228.48894500732422L648.5367109375,201.82966545649938L648.6104166666667,182.9796449116298L649.4211796875,110.0031896318708L651.1164114583333,214.62069579533167L651.4849401041668,276.01785714285717L652.7379375,205.33035714285717L655.9809895833333,348.1864367893764L656.0546953125,350.7446325847081L656.3495182291666,265.65035097939625L656.6443411458333,121.98639569963727L657.9710442708333,156.45503698076521L658.4132786458333,630.3978530338833L661.582625,460.4785817010062L662.1722708333334,326.9128407069615L662.7619166666666,170.99643884386336L662.8356223958333,170.05394295283728L664.0886197916667,21.946748733520508L665.0467942708333,570.3471510750907L667.2579661458333,-60.58928571428575L667.4053776041667,2.6928160531180367L667.7002005208334,77.41964285714288L668.2898463541667,288.2703550883702L672.7121901041667,151.2039737701416L673.1544244791667,107.84895733424597L673.2281302083334,120.63998767307825L674.4811276041667,434.6271264212472L674.9970677083334,199.13679804120744L676.6922994791666,105.15603855678015L676.9871223958334,202.2335775920323L677.7978854166666,259.4567918777466L678.0190026041666,283.28858375549316L679.272,157.1281896318708L679.7142343749999,225.9306978498186L680.6724088541666,144.6063998086112L682.1465234375,48.74075126647949L682.809875,138.81675284249442L683.9891666666666,306.17787974221363L684.1365781249999,311.9674753461565L684.7999296875,79.30463463919502L685.46328125,207.4846408026559L686.0529270833333,219.46784687042236L687.5270416666666,241.5492672239031L687.674453125,127.50680215018134L687.8955703125,97.8853119441441L688.0429817708333,131.95004108973913L688.4852161458333,476.09715107509066L689.3696848958333,260.3992877687727L689.443390625,152.14646966116769L689.9593307291667,-130.7382019587926L690.5489765625,-108.65678160531178L691.0649166666667,298.50318963187084L691.212328125,498.04395117078514L694.9713203125,152.14646966116769L695.7820833333333,232.25892857142858L696.0032005208334,303.21572044917514L696.3717291666667,212.19712025778637L697.5510208333333,-78.22746712820873L697.8458437500001,15.483949116298149L697.9195494791667,65.97502054486957L698.0669609375,96.00032016209192L698.8040182291667,233.60533659798756L699.0988411458334,329.47108786446705L699.3936640625,393.9649774006435L700.1307213541667,384.80931036812916L700.4992500000001,138.81675284249442L700.7940729166667,47.125L700.8677786458334,51.70280783517022L701.9733645833333,55.20355088370185L704.2582421875001,249.08928571428572L705.1427109375,256.76392446245467L705.6586510416666,263.4960673195975L706.0271796875,75.39997945513043L707.0590598958333,79.57397787911553L707.7224114583333,280.1918042046683L708.8279973958333,426.27928365979875L709.6387604166666,141.64424051557268L710.1547005208333,82.40146555219378L710.22840625,50.3563998086112L710.8917578124999,240.8760632106236L713.6925755208333,31.77572250366211L713.9136927083333,105.29071017674036L714.0611041666667,152.41571017674036L714.2822213541666,259.99537563323975L714.3559270833333,284.3656999043056L714.65075,347.78252465384344L717.0093333333333,126.69897787911553L718.0412135416666,235.75962025778637L720.0312682291667,-64.22459765842981L720.4735026041667,-7.001383372715566L720.7683255208333,78.36213874816895L722.0950286458334,-46.586416244506836L722.4635572916667,-16.561116627284434L723.5691432291667,232.25892857142858L723.7902604166667,340.6464182989938L724.0113776041667,380.50069168635775L725.5591979166667,406.89073072160994L726.3699609375001,154.16603033883231L727.3281354166667,40.79676927839007L727.4018411458334,27.60182680402484L728.1388984375001,99.5010632106236L728.360015625,66.78284481593542L728.6548385416667,135.31611251831055L729.9078359375001,0.40391213553290617L730.0552473958334,28.54432269505091L730.2763645833334,164.2642959867205L731.8241848958334,303.6196325847081L731.9715963541666,282.88462025778637L732.340125,94.51924051557269L733.1508880208333,-94.51924051557265L733.7405338541666,118.62032427106585L734.0353567708333,216.23644706181116L735.2883541666667,147.70323072160994L735.7305885416666,11.713965552193784L736.4676458333333,124.94855499267578L736.6150572916666,144.06781605311804L737.0572916666667,245.58859402792797L737.4258203125,175.4396264212472L737.7943489583333,271.03608580998014L738.0154661458333,300.11894089835033L739.1210520833333,62.2050369807652L739.1947578125,41.47002465384345L741.1848125,263.3614470618112L741.7744583333333,203.17607348305836L742.511515625,145.68356731959753L743.3222786458333,203.44536536080494L744.8700989583333,113.10002054486957L745.3123333333333,239.79894706181116L746.1230963541667,446.2064203534807L746.1968020833333,466.8067610604422L748.5553854166667,236.02891213553295L748.6290911458334,234.54783248901367L749.0713255208333,201.42570195879256L752.9040234375,91.69175284249444L753.0514348958334,132.48852212088448L753.567375,295.002497945513L753.7884921875,296.7528694697789L754.3044322916667,402.31287152426586L756.2944869791667,43.758928571428584L757.8423072916667,457.2471305302211L758.5793645833334,423.58641624450684L759.75865625,207.61926106044226L759.9060677083334,159.28252465384347L760.0534791666666,137.20110430036272L760.4220078125,130.46896144321985L762.7805911458333,194.96285097939625L763.1491197916666,166.41857964651925L763.9598828125,346.4360652651105L764.0335885416666,285.84677955082486L764.1072942708333,275.6139450073242L764.3284114583333,221.21821839468822L765.507703125,94.11532838003974L767.4977578125,49.1446634020124L767.718875,63.012861251831055L769.1929895833333,249.22390597207203L769.6352239583333,258.78358786446705L769.7089296875,244.64604677472795L771.6252786458333,260.93787152426586L772.14121875,231.989636693682L772.6571588541667,58.838965552193784L775.0894479166666,290.55931036812916L775.3105651041667,279.5185488292149L776.7109739583333,254.3403489249093L776.7846796875,251.24356937408447L777.44803125,293.9253817967006L777.9639713541667,240.33747945513045L778.1850885416667,125.89105088370185L778.7010286458333,108.79145322527204L778.9221458333334,76.74638748168945L780.3225546875,102.19387926374164L780.543671875,99.90497534615655L781.3544348958333,-21.408164978027344L782.1651979166667,57.89646966116767L782.9022552083334,331.3560796465192L783.0496666666667,361.6507225036621L783.1233723958333,343.74319784981867L783.3444895833334,296.8874897275652L785.1134270833334,223.2378817967006L785.4819557291667,203.5799856185913L785.5556614583334,144.06781605311804L785.850484375,57.35788590567451L787.2508932291666,74.86139569963727L787.3245989583334,42.00860840933662L787.9879505208334,278.1721408026559L788.5775963541666,646.0164224079678L792.1891770833333,-22.485332489013672L792.4102942708333,2.6928160531180367L793.0736458333333,89.80676106044226L793.1473515625,118.62032427106585L793.5895859375,154.97395733424597L793.7369973958333,164.80287974221366L794.4003489583333,-30.159971237182617" style="fill: none;" fill="none"></path></g></g></g></g></g></g><g transform="translate(30, 377)" clip-path="url(#clip_1)"><clipPath id="clip_1"><rect width="884" height="23"></rect></clipPath><g><g><line x1="0" y1="0" x2="0" y2="5" style="visibility: inherit;" fill="rgb(0, 0, 0)" stroke="rgb(204, 204, 204)" stroke-width="1px"></line><line x1="73.70572916666666" y1="0" x2="73.70572916666666" y2="5" style="visibility: inherit;" fill="rgb(0, 0, 0)" stroke="rgb(204, 204, 204)" stroke-width="1px"></line><line x1="147.41145833333331" y1="0" x2="147.41145833333331" y2="5" style="visibility: inherit;" fill="rgb(0, 0, 0)" stroke="rgb(204, 204, 204)" stroke-width="1px"></line><line x1="221.1171875" y1="0" x2="221.1171875" y2="5" style="visibility: inherit;" fill="rgb(0, 0, 0)" stroke="rgb(204, 204, 204)" stroke-width="1px"></line><line x1="294.82291666666663" y1="0" x2="294.82291666666663" y2="5" style="visibility: inherit;" fill="rgb(0, 0, 0)" stroke="rgb(204, 204, 204)" stroke-width="1px"></line><line x1="368.52864583333337" y1="0" x2="368.52864583333337" y2="5" style="visibility: inherit;" fill="rgb(0, 0, 0)" stroke="rgb(204, 204, 204)" stroke-width="1px"></line><line x1="442.234375" y1="0" x2="442.234375" y2="5" style="visibility: inherit;" fill="rgb(0, 0, 0)" stroke="rgb(204, 204, 204)" stroke-width="1px"></line><line x1="515.9401041666667" y1="0" x2="515.9401041666667" y2="5" style="visibility: inherit;" fill="rgb(0, 0, 0)" stroke="rgb(204, 204, 204)" stroke-width="1px"></line><line x1="589.6458333333333" y1="0" x2="589.6458333333333" y2="5" style="visibility: inherit;" fill="rgb(0, 0, 0)" stroke="rgb(204, 204, 204)" stroke-width="1px"></line><line x1="663.3515625" y1="0" x2="663.3515625" y2="5" style="visibility: inherit;" fill="rgb(0, 0, 0)" stroke="rgb(204, 204, 204)" stroke-width="1px"></line><line x1="737.0572916666667" y1="0" x2="737.0572916666667" y2="5" style="visibility: inherit;" fill="rgb(0, 0, 0)" stroke="rgb(204, 204, 204)" stroke-width="1px"></line><line x1="810.7630208333333" y1="0" x2="810.7630208333333" y2="5" style="visibility: inherit;" fill="rgb(0, 0, 0)" stroke="rgb(204, 204, 204)" stroke-width="1px"></line><line x1="884.46875" y1="0" x2="884.46875" y2="5" style="visibility: inherit;" fill="rgb(0, 0, 0)" stroke="rgb(204, 204, 204)" stroke-width="1px"></line></g><g transform="translate(0, 8)"><text x="0" y="0" dx="0em" dy="0.95em" style="text-anchor: middle; visibility: hidden; font-family: Roboto, sans-serif; font-size: 12px; font-weight: 200;" fill="rgb(33, 33, 33)" stroke="none" stroke-width="1px">-50k</text><text x="73.70572916666666" y="0" dx="0em" dy="0.95em" style="text-anchor: middle; visibility: inherit; font-family: Roboto, sans-serif; font-size: 12px; font-weight: 200;" fill="rgb(33, 33, 33)" stroke="none" stroke-width="1px">0</text><text x="147.41145833333331" y="0" dx="0em" dy="0.95em" style="text-anchor: middle; visibility: inherit; font-family: Roboto, sans-serif; font-size: 12px; font-weight: 200;" fill="rgb(33, 33, 33)" stroke="none" stroke-width="1px">50k</text><text x="221.1171875" y="0" dx="0em" dy="0.95em" style="text-anchor: middle; visibility: inherit; font-family: Roboto, sans-serif; font-size: 12px; font-weight: 200;" fill="rgb(33, 33, 33)" stroke="none" stroke-width="1px">100k</text><text x="294.82291666666663" y="0" dx="0em" dy="0.95em" style="text-anchor: middle; visibility: inherit; font-family: Roboto, sans-serif; font-size: 12px; font-weight: 200;" fill="rgb(33, 33, 33)" stroke="none" stroke-width="1px">150k</text><text x="368.52864583333337" y="0" dx="0em" dy="0.95em" style="text-anchor: middle; visibility: inherit; font-family: Roboto, sans-serif; font-size: 12px; font-weight: 200;" fill="rgb(33, 33, 33)" stroke="none" stroke-width="1px">200k</text><text x="442.234375" y="0" dx="0em" dy="0.95em" style="text-anchor: middle; visibility: inherit; font-family: Roboto, sans-serif; font-size: 12px; font-weight: 200;" fill="rgb(33, 33, 33)" stroke="none" stroke-width="1px">250k</text><text x="515.9401041666667" y="0" dx="0em" dy="0.95em" style="text-anchor: middle; visibility: inherit; font-family: Roboto, sans-serif; font-size: 12px; font-weight: 200;" fill="rgb(33, 33, 33)" stroke="none" stroke-width="1px">300k</text><text x="589.6458333333333" y="0" dx="0em" dy="0.95em" style="text-anchor: middle; visibility: inherit; font-family: Roboto, sans-serif; font-size: 12px; font-weight: 200;" fill="rgb(33, 33, 33)" stroke="none" stroke-width="1px">350k</text><text x="663.3515625" y="0" dx="0em" dy="0.95em" style="text-anchor: middle; visibility: inherit; font-family: Roboto, sans-serif; font-size: 12px; font-weight: 200;" fill="rgb(33, 33, 33)" stroke="none" stroke-width="1px">400k</text><text x="737.0572916666667" y="0" dx="0em" dy="0.95em" style="text-anchor: middle; visibility: inherit; font-family: Roboto, sans-serif; font-size: 12px; font-weight: 200;" fill="rgb(33, 33, 33)" stroke="none" stroke-width="1px">450k</text><text x="810.7630208333333" y="0" dx="0em" dy="0.95em" style="text-anchor: middle; visibility: inherit; font-family: Roboto, sans-serif; font-size: 12px; font-weight: 200;" fill="rgb(33, 33, 33)" stroke="none" stroke-width="1px">500k</text><text x="884.46875" y="0" dx="0em" dy="0.95em" style="text-anchor: middle; visibility: hidden; font-family: Roboto, sans-serif; font-size: 12px; font-weight: 200;" fill="rgb(33, 33, 33)" stroke="none" stroke-width="1px">550k</text></g><line x1="0" y1="0" x2="884.46875" y2="0" fill="rgb(0, 0, 0)" stroke="rgb(204, 204, 204)" stroke-width="1px"></line></g></g></g></g></svg>