<svg viewBox="0 0 915.25 400" xmlns="http://www.w3.org/2000/svg"><g><g><g><g><g><line x1="31.59375" y1="376" x2="26.59375" y2="376" style="visibility: inherit;" fill="rgb(0, 0, 0)" stroke="rgb(204, 204, 204)" stroke-width="1px"></line><line x1="31.59375" y1="329" x2="26.59375" y2="329" style="visibility: inherit;" fill="rgb(0, 0, 0)" stroke="rgb(204, 204, 204)" stroke-width="1px"></line><line x1="31.59375" y1="282" x2="26.59375" y2="282" style="visibility: inherit;" fill="rgb(0, 0, 0)" stroke="rgb(204, 204, 204)" stroke-width="1px"></line><line x1="31.59375" y1="235" x2="26.59375" y2="235" style="visibility: inherit;" fill="rgb(0, 0, 0)" stroke="rgb(204, 204, 204)" stroke-width="1px"></line><line x1="31.59375" y1="188" x2="26.59375" y2="188" style="visibility: inherit;" fill="rgb(0, 0, 0)" stroke="rgb(204, 204, 204)" stroke-width="1px"></line><line x1="31.59375" y1="141" x2="26.59375" y2="141" style="visibility: inherit;" fill="rgb(0, 0, 0)" stroke="rgb(204, 204, 204)" stroke-width="1px"></line><line x1="31.59375" y1="94" x2="26.59375" y2="94" style="visibility: inherit;" fill="rgb(0, 0, 0)" stroke="rgb(204, 204, 204)" stroke-width="1px"></line><line x1="31.59375" y1="47" x2="26.59375" y2="47" style="visibility: inherit;" fill="rgb(0, 0, 0)" stroke="rgb(204, 204, 204)" stroke-width="1px"></line><line x1="31.59375" y1="0" x2="26.59375" y2="0" style="visibility: inherit;" fill="rgb(0, 0, 0)" stroke="rgb(204, 204, 204)" stroke-width="1px"></line></g><g transform="translate(21.59375, 0)"><text x="0" y="376" dx="0em" dy="0.3em" style="text-anchor: end; visibility: hidden; font-family: Roboto, sans-serif; font-size: 12px; font-weight: 200;" fill="rgb(33, 33, 33)" stroke="none" stroke-width="1px">45</text><text x="0" y="329" dx="0em" dy="0.3em" style="text-anchor: end; visibility: inherit; font-family: Roboto, sans-serif; font-size: 12px; font-weight: 200;" fill="rgb(33, 33, 33)" stroke="none" stroke-width="1px">50</text><text x="0" y="282" dx="0em" dy="0.3em" style="text-anchor: end; visibility: inherit; font-family: Roboto, sans-serif; font-size: 12px; font-weight: 200;" fill="rgb(33, 33, 33)" stroke="none" stroke-width="1px">55</text><text x="0" y="235" dx="0em" dy="0.3em" style="text-anchor: end; visibility: inherit; font-family: Roboto, sans-serif; font-size: 12px; font-weight: 200;" fill="rgb(33, 33, 33)" stroke="none" stroke-width="1px">60</text><text x="0" y="188" dx="0em" dy="0.3em" style="text-anchor: end; visibility: inherit; font-family: Roboto, sans-serif; font-size: 12px; font-weight: 200;" fill="rgb(33, 33, 33)" stroke="none" stroke-width="1px">65</text><text x="0" y="141" dx="0em" dy="0.3em" style="text-anchor: end; visibility: inherit; font-family: Roboto, sans-serif; font-size: 12px; font-weight: 200;" fill="rgb(33, 33, 33)" stroke="none" stroke-width="1px">70</text><text x="0" y="94" dx="0em" dy="0.3em" style="text-anchor: end; visibility: inherit; font-family: Roboto, sans-serif; font-size: 12px; font-weight: 200;" fill="rgb(33, 33, 33)" stroke="none" stroke-width="1px">75</text><text x="0" y="47" dx="0em" dy="0.3em" style="text-anchor: end; visibility: inherit; font-family: Roboto, sans-serif; font-size: 12px; font-weight: 200;" fill="rgb(33, 33, 33)" stroke="none" stroke-width="1px">80</text><text x="0" y="0" dx="0em" dy="0.3em" style="text-anchor: end; visibility: hidden; font-family: Roboto, sans-serif; font-size: 12px; font-weight: 200;" fill="rgb(33, 33, 33)" stroke="none" stroke-width="1px">85</text></g><line x1="31.59375" y1="0" x2="31.59375" y2="376" fill="rgb(0, 0, 0)" stroke="rgb(204, 204, 204)" stroke-width="1px"></line></g></g><g transform="translate(31, 0)" clip-path="url(#clip_0)"><clipPath id="clip_0"><rect width="883" height="376"></rect></clipPath><g><g><g><line x1="0" y1="0" x2="0" y2="376" fill="rgb(0, 0, 0)" stroke="rgb(66, 66, 66)" stroke-width="1px" opacity="0.25"></line><line x1="73.63802083333333" y1="0" x2="73.63802083333333" y2="376" fill="rgb(0, 0, 0)" stroke="rgb(66, 66, 66)" stroke-width="1px" opacity="0.25"></line><line x1="147.27604166666666" y1="0" x2="147.27604166666666" y2="376" fill="rgb(0, 0, 0)" stroke="rgb(66, 66, 66)" stroke-width="1px" opacity="0.25"></line><line x1="220.9140625" y1="0" x2="220.9140625" y2="376" fill="rgb(0, 0, 0)" stroke="rgb(66, 66, 66)" stroke-width="1px" opacity="0.25"></line><line x1="294.5520833333333" y1="0" x2="294.5520833333333" y2="376" fill="rgb(0, 0, 0)" stroke="rgb(66, 66, 66)" stroke-width="1px" opacity="0.25"></line><line x1="368.1901041666667" y1="0" x2="368.1901041666667" y2="376" fill="rgb(0, 0, 0)" stroke="rgb(66, 66, 66)" stroke-width="1px" opacity="0.25"></line><line x1="441.828125" y1="0" x2="441.828125" y2="376" fill="rgb(0, 0, 0)" stroke="rgb(66, 66, 66)" stroke-width="1px" opacity="0.25"></line><line x1="515.4661458333334" y1="0" x2="515.4661458333334" y2="376" fill="rgb(0, 0, 0)" stroke="rgb(66, 66, 66)" stroke-width="1px" opacity="0.25"></line><line x1="589.1041666666666" y1="0" x2="589.1041666666666" y2="376" fill="rgb(0, 0, 0)" stroke="rgb(66, 66, 66)" stroke-width="1px" opacity="0.25"></line><line x1="662.7421875" y1="0" x2="662.7421875" y2="376" fill="rgb(0, 0, 0)" stroke="rgb(66, 66, 66)" stroke-width="1px" opacity="0.25"></line><line x1="736.3802083333334" y1="0" x2="736.3802083333334" y2="376" fill="rgb(0, 0, 0)" stroke="rgb(66, 66, 66)" stroke-width="1px" opacity="0.25"></line><line x1="810.0182291666666" y1="0" x2="810.0182291666666" y2="376" fill="rgb(0, 0, 0)" stroke="rgb(66, 66, 66)" stroke-width="1px" opacity="0.25"></line><line x1="883.65625" y1="0" x2="883.65625" y2="376" fill="rgb(0, 0, 0)" stroke="rgb(66, 66, 66)" stroke-width="1px" opacity="0.25"></line></g><g><line x1="0" y1="376" x2="883.65625" y2="376" fill="rgb(0, 0, 0)" stroke="rgb(66, 66, 66)" stroke-width="1px" opacity="0.25"></line><line x1="0" y1="329" x2="883.65625" y2="329" fill="rgb(0, 0, 0)" stroke="rgb(66, 66, 66)" stroke-width="1px" opacity="0.25"></line><line x1="0" y1="282" x2="883.65625" y2="282" fill="rgb(0, 0, 0)" stroke="rgb(66, 66, 66)" stroke-width="1px" opacity="0.25"></line><line x1="0" y1="235" x2="883.65625" y2="235" fill="rgb(0, 0, 0)" stroke="rgb(66, 66, 66)" stroke-width="1px" opacity="0.25"></line><line x1="0" y1="188" x2="883.65625" y2="188" fill="rgb(0, 0, 0)" stroke="rgb(66, 66, 66)" stroke-width="1px" opacity="0.25"></line><line x1="0" y1="141" x2="883.65625" y2="141" fill="rgb(0, 0, 0)" stroke="rgb(66, 66, 66)" stroke-width="1px" opacity="0.25"></line><line x1="0" y1="94" x2="883.65625" y2="94" fill="rgb(0, 0, 0)" stroke="rgb(66, 66, 66)" stroke-width="1px" opacity="0.25"></line><line x1="0" y1="47" x2="883.65625" y2="47" fill="rgb(0, 0, 0)" stroke="rgb(66, 66, 66)" stroke-width="1px" opacity="0.25"></line><line x1="0" y1="0" x2="883.65625" y2="0" fill="rgb(0, 0, 0)" stroke="rgb(66, 66, 66)" stroke-width="1px" opacity="0.25"></line></g></g></g><g><g><line x1="0" y1="799" x2="883.65625" y2="799" fill="rgb(0, 0, 0)" stroke="rgb(153, 153, 153)" stroke-width="1.5px"></line></g></g><g><g><line x1="73.63802083333333" y1="0" x2="73.63802083333333" y2="376" fill="rgb(0, 0, 0)" stroke="rgb(153, 153, 153)" stroke-width="1.5px"></line></g></g><g><g><g><g><g><path stroke="rgb(255, 112, 67)" stroke-width="2px" d="M100.7368125,430.40165685661833L104.71326562499999,321.25857801750925L104.78690364583333,251.18554095809571L106.03875,216.28573097698734L106.2596640625,211.70184180968545L106.480578125,221.32191224620323L107.5851484375,227.28195146629255L107.8060625,234.5051652169741L107.87970052083334,252.14949694445718L108.61608072916665,357.8641005672697L110.015203125,292.4376533098316L111.5616015625,222.65060336722047L112.81344791666668,211.87356086422767L113.18163802083333,194.014539952325L115.16986458333334,191.23272970789648L115.90624479166665,188.28522864453973L116.34807291666665,161.0615406262769L116.86353906250001,116.60251519330573L116.93717708333332,90.52871370485157L119.36723177083333,95.75241560095787L119.51450781250001,110.42983559124133L120.39816406250002,124.57550938708562L120.91363020833333,105.99089645247379L120.98726822916666,90.21534475620406L121.13454427083333,79.92280914862638L121.35545833333333,80.28967975187152L121.502734375,82.76579637651507L122.386390625,58.382676678438955L123.12277083333333,148.69440428589246L126.28920572916667,100.19583568676319L126.5837578125,62.26070026459388L126.87830989583334,39.72520983160678L127.46741406249998,40.90552934134697L128.13015625,110.27131473615702L129.08745052083333,171.6307859730424L129.38200260416667,186.3752727312866L130.04474479166666,122.24035101670141L130.339296875,72.66740946255968L130.48657291666666,42.810849119918636L130.63384895833335,27.2281232414826L131.14931510416667,47.3192659126631L131.51750520833335,209.47315897386733L131.66478125,324.02389538432044L132.03297135416668,393.58154182043603L132.47479947916668,389.9170294327984L132.7693515625,314.2262119223743L133.2111796875,229.78293174326834L133.28481770833335,170.76975904596094L134.9784921875,140.28744624788897L135.2730442708333,137.2636780758818L137.70309895833333,136.08861028791185L138.2185651041667,125.72037076259096L138.6603932291667,117.01781327786703L139.69132552083332,90.4770856717984L139.9858776041667,74.026251403079L140.50134375,60.207739367238105L140.64861979166668,48.41983099827249L141.23772395833333,43.903887124354014L142.26865625,182.72073284834292L142.34229427083332,282.1036356928925L143.07867447916666,182.0837951852667L143.29958854166665,131.54707825862099L143.96233072916667,117.16744007040701L144.55143489583332,91.61965715747854L145.21417708333334,97.34698167241677L145.28781510416667,105.14499015091103L145.72964322916667,111.7414032702341L145.80328125,112.01443851975766L146.17147135416667,92.2126688491592L147.49695572916667,87.88921507902676L147.71786979166666,92.28871642534583L148.38061197916667,88.91242297044181L150.58975260416665,106.70186296195263L151.547046875,80.33950400764037L151.98887499999998,52.565316174115466L152.2097890625,46.804780524781705L152.35706510416665,46.31886257756437L152.6516171875,67.72252787368717L153.0934453125,112.63752246151688L153.46163541666667,129.81052495151945L154.19801562499998,117.51671841329457L154.63984374999998,115.29164481750806L155.00803385416665,112.60299836511422L155.7444140625,87.82819672414662L158.8372109375,117.03052032940977L159.13176302083335,118.83511334510682L159.20540104166668,118.67706226975938L159.2790390625,115.53664080423835L160.6045234375,91.99477989269926L161.5618177083333,77.26807826276801L162.51911197916667,84.86323892543416L164.43370052083333,52.27154565018234L165.31735677083333,350.06052741027963L166.127375,283.0179302156989L166.3482890625,205.2675592768803L166.569203125,145.8333309762845L168.0419635416667,91.97440776545817L168.4837916666667,51.650235479587415L168.9992578125,51.030948172518045L169.4410859375,82.01776201874529L170.61929427083334,52.14345262140339L170.84020833333332,40.53566813045916L171.6502265625,13.342207763041136L171.871140625,4.395728100207554L172.0920546875,13.46622653297604L172.16569270833332,25.60134968931685L175.70031770833333,29.573605223746355L175.92123177083334,31.61857231393535L176.14214583333333,41.75673420867368L176.21578385416666,50.02043823028226L177.8358203125,51.97064916863809L178.7194765625,53.06558835372187L179.45585677083335,71.05615415969406L179.75040885416666,73.31530626534776L181.591359375,243.08118662786103L181.66499739583335,312.1535102555252L182.475015625,187.93129926854957L183.06411979166666,117.04517726620786L183.358671875,85.75589603257627L183.50594791666666,76.38232729239724L185.86236458333335,66.6597998178211L186.15691666666666,42.891067268622464L187.9978671875,60.552248393400056L189.1760755208333,74.87134903604L189.24971354166667,82.71082089623329L190.35428385416668,49.96487876820868L190.6488359375,28.81333644061273L191.8270442708333,68.687194979602L191.90068229166667,84.1891181352221L193.52071875,72.58468120828165L193.8889088541667,66.37400757750804L194.25709895833333,57.72201257873145L194.47801302083332,52.34280410485599L194.846203125,77.69127328322614L195.0671171875,111.02355364278719L195.9507734375,71.53972300598478L196.5398776041667,37.02063495105179L197.05534375,26.837193592701418L197.57080989583332,45.65591845054274L198.23355208333334,61.195943038099074L198.52810416666665,59.16477041270327L198.67538020833334,57.98367486969232L198.82265625,64.41899459466694L199.0435703125,131.7865984779916L199.55903645833334,136.07357285632614L200.22177864583333,114.39374027141285L200.95815885416667,75.47944301538675L201.2527109375,55.32685892446642L201.39998697916667,40.377729124211044L201.62090104166666,22.68502370499545L201.98909114583333,8.12141766538009L202.21000520833334,-0.8047574329985565L202.28364322916667,-6.762047575033526L203.75640364583333,69.63876571767521L204.41914583333335,88.82086746283167L204.86097395833335,98.8261227726208L205.37644010416665,77.98287825341629L205.450078125,66.22892006728414L206.11282031250002,67.97496007259709L206.62828645833335,76.50497604355829L208.17468489583334,41.616587921056876L208.46923697916665,91.86035619501692L209.2056171875,141.0322079797055L209.50016927083334,126.543330525128L210.16291145833333,110.74360634730333L211.12020572916666,78.6661638083821L211.34111979166667,65.05969828502919L211.78294791666667,63.58861438117387L211.93022395833333,67.70677092362615L214.43391666666668,301.0792642753671L214.87574479166668,488.3659582424969L216.12759114583335,404.50358068280286L216.86397135416667,277.55733578761135L217.08488541666668,185.48480491494954L217.2321614583333,123.88687721166504L218.5576458333333,97.34333665414748L219.588578125,96.7955985501057L219.73585416666668,106.39335339275874L221.06133854166666,115.34800056104592L221.355890625,107.89920377901034L221.94499479166666,97.75231767756236L223.19684114583333,62.63698142684993L223.63866927083333,61.87178541372708L225.40598177083334,83.74707698554093L226.36327604166667,174.70424045401992L226.58419010416668,175.3977316503416L226.657828125,168.5194458749706L226.80510416666667,144.5020709673651L226.95238020833335,124.18844717026282L227.24693229166667,110.08266485977488L227.541484375,90.15121268539616L228.05695052083334,75.7483356434642L229.16152083333336,179.68100425473082L231.66521354166667,177.14301173252593L231.95976562500002,174.75540359713278L232.47523177083335,104.17644101081872L233.1379739583333,61.03946690141302L234.0216302083333,83.21007784592591L234.75801041666665,155.09325129739932L234.9052864583333,194.98955307336146L235.05256250000002,197.156930696556L235.4207526041667,161.72216989254298L235.64166666666665,117.75090996775242L236.2307708333333,59.48334139080767L236.52532291666665,20.988391064953344L237.9980833333333,36.39384152373758L238.36627343749998,33.304316388851845L238.4399114583333,29.42019786553758L238.58718750000003,27.014510687095957L238.80810156249998,45.010320181788856L239.10265364583333,97.95740243622177L239.17629166666666,141.1936345769675L239.6917578125,209.58577730379773L239.91267187500003,257.7274606449739L240.28086197916664,316.9180758132539L241.67998437500003,212.63565811002263L242.41636458333332,134.49978109648228L242.85819270833332,94.61185718328005L243.30002083333332,83.83910283535862L243.59457291666666,72.6002628486761L244.47822916666667,58.41214623459626L244.5518671875,46.176884298375L246.39281770833333,59.85414205363432L247.05555989583334,69.00049670678987L249.632890625,116.18669572915198L249.70652864583334,162.0952162900302L249.8538046875,205.28192805282671L253.09387760416666,127.00434420962569L253.68298177083335,99.62741914784573L254.19844791666668,111.62685493109022L254.34572395833334,131.27210722134942L254.49299999999997,143.36006548027063L254.86119010416667,138.6560392881624L256.70214062499997,123.95200980336614L256.7757786458334,113.88881391424619L257.51215885416667,83.93729408585237L257.6594348958334,78.14877415658947L258.027625,57.15407711602404L259.05855729166666,80.16443479500506L259.5003854166667,68.10185972954206L260.1631276041667,50.148320427569026L261.2676979166667,36.55619684638526L261.56225,38.47772384513584L261.70952604166666,42.03703774946428L263.5504765625,24.432626092061398L264.4341328125,54.064388277307145L265.1705130208333,81.5442237866967L265.61234114583334,79.90892623979147L266.8641875,55.277344269265456L267.306015625,64.48721344632483L267.37965364583334,67.6819246254122L268.4105859375,34.48036510239575L268.85241406250003,31.62983283096875L269.22060416666665,46.53870658334688L270.9142786458333,39.57921821270338L271.4297447916666,75.07153666492673L271.7979348958333,95.23891626165131L272.75522916666665,64.92654860952987L273.27069531250004,42.64074178778819L274.375265625,66.90683704044638L275.258921875,69.35928960219749L275.4798359375,66.76998294100599L276.5107682291667,47.05559205952544L276.73168229166663,32.48214490856678L279.0880989583334,156.0524857976792L279.1617369791667,273.20908516757237L279.235375,368.92065282173485L280.560859375,241.31798251335337L281.66542968749997,142.12119295039489L285.20005468749997,95.23672150754166L285.862796875,79.70203290452498L286.5255390625,69.81721400541035L286.9673671875,49.48551578117589L288.513765625,66.20090602632274L288.6610416666667,86.04374246833275L288.7346796875,92.87345007084343L292.1956666666667,54.14487692727171L292.7847708333333,48.54211353429271L294.4784453125,235.7748646781928L295.1411875,291.7897170857243L295.4357395833333,256.44022795651273L295.7302916666667,179.88332988914206L296.6139479166667,101.04919104871968L296.83486197916665,46.07830430208334L297.42396614583333,12.945368811718817L297.64488020833335,0.3976247294140425L299.4121927083333,69.12177369018744L299.70674479166667,55.798655034424854L299.8540208333333,39.79599416811582L301.9158854166667,39.368806828017846L303.60955989583334,37.45808524427176L304.7141302083333,44.88444770418013L305.303234375,72.0882766547347L305.67142447916666,82.16896025553612L306.03961458333333,69.86858074316538L306.4814427083333,57.449938118750794L307.6596510416667,62.70757090347703L308.9851354166667,62.51575286923472L309.0587734375,60.18224713169698L309.57423958333334,61.45174024679155L309.79515364583335,119.40304701672733L311.56246614583335,103.0754305049583L311.7833802083333,105.72445141820937L312.29884635416664,83.8890800306132L312.51976041666666,63.418260640438184L312.5933984375,50.534155236802064L312.74067447916667,47.052481667471845L312.81431249999997,47.0690970327097L314.65526302083333,36.73906625185248L315.3180052083333,37.797848930799034L317.0853177083333,7.67631739070597L317.674421875,28.51939272934553L318.70535416666667,38.656448259677646L318.7789921875,43.23467584057224L320.0308385416667,32.59599288227299L322.1663411458333,53.134396876824795L322.31361718750003,62.449427798946445L323.0499973958333,44.9144693014382L324.30184375,113.50388330205433L324.67003385416666,156.16152309646696L326.2900703125,122.68651041549742L326.510984375,127.79352001882975L326.8791744791667,186.05451258502833L327.68919270833334,158.4446960764076L327.83646875,135.7500164983836L328.3519348958333,108.55960645664743L328.7937630208333,72.88135469430097L329.3092291666666,67.79281855388523L329.75105729166665,100.04609457471398L329.97197135416667,137.74684986006275L331.22381770833334,119.08251909572522L332.10747395833334,86.1135171947398L332.3283880208333,83.51531490668765L332.84385416666663,126.43720041862201L334.0220625,95.71511566132952L334.16933854166666,74.08587054425871L334.61116666666663,66.03391429432862L334.90571875,60.751558903745554L336.0839270833334,84.31574796431758L337.3357734375,101.04864189382495L338.8085338541667,81.1587816939121L340.13401822916666,59.71207016380822L340.2812942708333,48.19764554066772L340.42857031249997,47.8689907667834L340.649484375,57.410184132921536L340.8703984375,79.1149001526045L342.1222447916667,49.34894009156267L342.9322630208333,57.80936405493764L343.9631953125,66.57043105503291L346.1723359375,71.86465060079315L346.31961197916667,67.67158577063215L348.08692447916667,59.81655375730119L348.3814765625,59.35232422215421L348.5287526041667,63.43540027059724L348.97058072916667,70.58524589966305L349.1914947916667,60.62474983471974L349.33877083333334,47.95565678559749L350.00151302083333,67.57659292389762L350.51697916666666,73.67154657465105L351.4742734375,70.97413827193901L352.06337760416665,50.518085258085335L353.020671875,30.198055744694898L353.16794791666666,30.263646068887198L353.3888619791666,44.139801410863534L354.5670703125,81.45509117366653L354.93526041666667,90.60904896689523L355.0825364583333,89.63421905298878L355.81891666666667,111.72214520132445L356.11346875000004,122.38049171063852L358.24897135416666,138.17549961622697L358.6171614583333,192.73489632735337L359.13262760416666,201.48174468117762L362.37270052083335,131.41705828331595L362.9618046875,226.12942808522396L363.4772708333333,318.4136511138297L363.7718229166667,287.64258550472357L364.5818411458334,190.8967616299825L365.02366927083335,135.59405124068476L365.4654973958334,105.87161812234058L367.08553385416667,91.04616972594339L367.8955520833333,110.68931560509725L368.2637421875,150.59998706813647L368.926484375,107.16719683072562L369.00012239583333,77.04671580351354L369.88377864583333,81.23362030242065L370.693796875,126.19616644414774L370.9147109375,166.8976998664887L371.65109114583333,140.33302909958067L375.112078125,128.79341975467028L375.48026822916665,117.4704610324897L375.55390625,108.04466858726718L376.29028645833336,65.09000000489938L381.66586197916666,98.9508011504006L382.47588020833336,156.7168783953184L382.54951822916667,210.96612129988634L382.6967942708333,292.2076699112794L382.84407031250004,384.11740452855474L383.1386223958333,527.8558664908754L384.97957291666665,329.57271300975964L385.3477630208333,198.15723010077764L385.56867708333334,115.66073576554477L386.15778125,107.74842998471752L386.9677994791667,116.34905799083052L387.63054166666666,67.4782244673498L387.8514557291667,32.929326648183434L387.92509375,10.244800578753773L389.0296640625,18.630079199791307L390.2078723958333,58.51643375034348L390.64970052083333,66.99467287227634L390.9442526041667,63.92239454367825L391.60699479166664,59.0334367262069L391.75427083333335,60.08565285603669L392.41701302083334,62.22098827123915L392.71156510416665,107.68218952036074L393.52158333333335,190.34370854864216L395.436171875,136.84141250711505L396.0989140625,187.46004922546044L397.203484375,173.27522265051067L397.71895052083335,121.18594047507207L398.1607786458333,87.67637690711358L398.4553307291667,67.11942843919009L398.52896875,59.109265095740604L399.9280911458333,134.91756192609665L400.14900520833334,184.38813084462282L402.79997395833334,171.88328194915653L403.2418020833333,183.6691622847283L404.3463723958333,121.4063099929073L404.4936484375,76.7541894381272L405.74549479166666,49.62450218826702L405.8191328125,37.29470131296022L407.21825520833335,133.25922709881135L407.29189322916665,196.21472937452114L407.51280729166666,231.6568347560603L408.17554947916665,197.7253111807846L408.9855677083333,163.86798211862694L410.82651822916665,152.31439156609807L411.04743229166667,157.63984526680724L411.85745052083337,97.21589568547499L412.0783645833333,62.54074773843345L412.22564062500004,53.0908463481382L412.3729166666667,76.14730321903912L413.2565729166667,273.76998135769304L414.5084192708334,220.47397734000648L416.0548177083333,135.70600017353513L416.57028385416663,91.50040125158202L417.1593880208334,76.40744534079299L417.45394010416663,85.24927982654603L417.96940624999996,90.06556215862292L418.0430442708334,92.76734876978311L418.1166822916667,95.17801729409642L418.85306249999996,85.57000922899684L420.7676510416667,132.85880668485905L421.13584114583335,195.26008228972395L422.31404947916667,219.46564593145155L423.1240677083333,194.17059788601927L423.4186197916667,147.22155184684598L423.4922578125,116.57053914033415L424.0813619791667,92.65272692658343L424.52319010416664,65.81884074579386L424.74410416666666,57.95291821700754L425.40684635416665,76.84616010989203L425.7013984375,96.83008803370865L426.21686458333335,125.8908482303815L426.29050260416665,144.34252041283827L426.7323307291667,138.56871110024207L427.17415885416665,130.7428404296765L427.3214348958333,129.69449393065744L427.5423489583333,117.33430439062103L430.1196796875,131.83896886484143L431.0033359375,107.37856869683452L432.40245833333336,116.76633433333504L432.549734375,122.73740863222758L434.0961328125,131.50884288441472L435.5688932291667,119.21251032049257L437.3362057291667,233.62110848721738L437.55711979166665,294.2198696821742L438.5144140625,216.80151836692167L439.1035182291667,147.97851905237957L439.7662604166666,107.43670798904496L439.9871744791667,94.27882594088794L440.1344505208333,84.84248294246247L440.20808854166665,80.27108058579L443.44816145833335,173.48345523623973L443.8899895833333,156.50448232143123L444.1109036458334,136.01467791824936L444.62636979166666,90.78321593063706L445.58366406249996,62.967537590608856L445.7309401041666,48.60931222721691L445.804578125,44.543973566798854L446.3200442708333,104.70877610785269L447.6455286458334,101.59085648502413L449.339203125,55.577712743553576L449.70739322916666,45.002621908827386L451.1801536458333,51.4415731452965L451.32742968750006,54.59053470749047L451.7692578125,41.92873000418183L453.68384635416663,80.69242538043882L454.05203645833336,63.568250638419556L455.00933072916666,121.57534521947758L455.3038828125,156.98120139438186L456.62936718750007,164.98952772139478L457.21847135416664,160.69533040236803L458.91214583333334,130.29480627364734L459.2066979166667,133.937690648954L459.50125,131.34820520968486L459.5748880208333,131.8625254207328L461.4894765625,88.10391295751785L463.1831510416667,79.44554662704982L465.3186536458333,104.0297199440033L466.12867187499995,90.88103081894106L467.3068802083334,115.74141390152096L468.33781250000004,77.8672403086859L468.41145052083334,53.78913385806323L469.8842109375,43.59108834706444L471.6515234375,65.40906218792617L471.7987994791667,86.80944305006035L472.82973177083335,93.48327386226278L474.2288541666666,78.5371689072014L474.4497682291667,60.169505934164555L474.8179583333333,50.50251044526436L477.54256510416667,54.703898234932026L478.05803125000006,53.80314582572481L478.3525833333333,69.99468290559112L478.7944114583333,78.76960515351084L479.2362395833333,87.38095620734083L479.6044296875,92.62298290409194L479.82534375000006,86.29298285768948L479.97261979166666,75.08777824000427L481.73993229166666,59.528661206697876L482.3290364583333,68.42918524940931L483.5808828125,81.4023237717159L483.94907291666664,96.17978049349823L484.0963489583333,112.45345911641151L484.9800052083333,176.70007260119453L485.12728125000007,227.46804069206436L485.569109375,250.89762556269955L486.452765625,232.61938222238538L486.8209557291667,220.44922302239607L487.55733593749994,158.66472119136745L488.29371614583334,99.78603730466425L490.3555807291666,66.33882697264221L490.5028567708334,59.91929044628068L490.7974088541667,119.83717943134258L491.90197916666665,92.01830192150092L494.9211380208334,103.56458344782239L495.14205208333334,105.79235236361531L496.4675364583333,61.78342289277858L497.79302083333334,111.59325258820627L499.04486718749996,121.06234925800189L499.26578125,104.10861988194958L499.6339713541667,88.52197307663073L500.0021614583333,108.7235872883613L501.32764583333335,150.8869477831731L501.4012838541667,165.35617440720853L502.6531302083333,106.43289775955955L502.8740442708334,67.80775013034511L503.38951041666667,90.8054569629727L505.3777369791666,121.07287073540076L505.5250130208334,134.15732473616237L506.04047916666667,130.8407925467755L507.3659635416667,206.98366864329967L507.51323958333336,241.72779487494458L508.02870572916663,210.49829069449802L508.6914479166667,128.70537212177697L509.427828125,105.16002442052718L510.23784635416666,97.50002038962096L510.5323984375,107.56802370838193L510.60603645833334,124.43761537249014L512.0051588541667,145.68896692857226L512.3733489583333,142.61018130460434L512.520625,128.35489845561412L512.8151770833333,90.0225356309856L513.4779192708332,78.03991908366959L514.8034036458333,70.0607525976628L516.2761640625,120.54524123144924L516.6443541666666,177.45674129648674L517.3070963541667,230.6668401880483L517.7489244791666,237.58890812894225L517.8225625,243.58454086125207L518.1171145833333,221.8395141896028L518.3380286458333,218.11731080868356L519.9580651041667,221.1103864852102L521.2835494791666,190.75822041651674L521.5781015625,124.90772766006634L521.9462916666666,87.91662512143043L523.1245,117.04596933555351L523.2717760416666,120.6115873386369L524.00815625,82.85735584556497L524.449984375,49.300811212417045L524.5972604166667,34.5060775477627L525.0390885416666,31.682839643891995L525.1863645833333,29.72569804903049L525.333640625,28.438617681957403L526.217296875,85.49515913456506L526.3645729166667,124.6170954807391L526.5118489583333,147.93985384606069L528.2055234375,177.048710586445L528.868265625,129.6164309417108L529.0891796875,99.99147233455767L530.2673880208333,58.45326963120345L531.0037682291667,65.2271491566518L531.07740625,73.61548260922547L531.2246822916667,97.67410218760571L531.6665104166667,114.10206934479002L532.6238046875,108.09164504925683L532.9919947916667,108.35818588209318L533.5074609375,84.67972415132627L533.9492890624999,83.1814367857177L534.9065833333333,106.5344528917431L536.821171875,108.73986485028021L538.5148463541667,79.68230514063691L538.8093984375,68.63978652676491L538.8830364583333,60.623065031293315L539.3985026041668,56.30185049338545L540.6503489583333,178.8795108697618L541.4603671875,152.59810996423988L542.2703854166667,102.50047974807518L542.7858515624999,67.55389014376686L543.2276796875,69.93553293879924L544.9949921875,202.6637260743147L549.0450833333333,174.46382646490127L549.3396354166667,142.57910276370637L550.2969296875,166.34986796925898L551.1069479166667,212.38431561798123L551.4015,215.03858650213638L551.9906041666667,222.23355534366468L552.0642421875,225.49772689516362L552.3587942708333,233.50983212098492L553.0951744791666,178.83391074720024L553.8315546875,103.0891361211716L553.9051927083334,58.920686262546745L553.9788307291667,34.826014052450034L554.5679348958333,37.026011873852724L556.0406953125,67.67399335478044L557.8080078125,135.3939925704855L558.2498359375,128.04838406768192L558.3234739583334,118.71542814568726L558.5443880208334,111.98764311788109L559.2807682291667,171.23177898596308L559.9435104166668,204.2966610805427L560.1644244791667,201.57559033729052L560.9008046875,171.81814961253048L561.2689947916666,142.9468840302136L563.9199635416667,192.66493156558914L564.5827057291667,185.83576008681436L564.7299817708333,180.3470468724011L565.0245338541666,190.25142697597974L565.4663619791667,201.30765733304875L565.6872760416667,186.0958047269777L566.2027421875,123.68947136157718L566.7918463541666,82.33529658647753L567.0127604166668,66.50918942649596L567.6018645833333,95.47830906605373L567.8964166666667,117.18378658709324L568.19096875,132.7262662149513L569.8846432291667,106.74535628658788L570.1791953125,93.41280459226522L570.6946614583334,81.72848964012472L570.9892135416667,64.0394857518483L571.7992317708333,153.3668903036481L572.6828880208334,217.15292959234506L573.8610963541666,154.7693657876335L575.702046875,132.90562520988473L576.8066171875,142.57297168354808L577.8375494791667,133.7469818626679L578.4266536458333,113.74980288713203L579.0157578125,71.48348402720109L579.4575859375001,59.50928353155505L579.5312239583334,50.858365529089276L581.4458125,54.80461587507074L582.4767447916666,192.1563718199643L582.6976588541667,318.37142395257433L584.3176953125,208.50686010884928L585.5695416666666,140.97132065515336L586.4531979166667,124.40117862356075L586.6741119791667,109.68390602667552L587.1159401041666,108.63674132108349L588.4414244791667,143.54043102311886L588.5887005208334,174.48425861387125L589.9141848958333,119.24176549547107L590.2087369791667,102.64024667521244L591.7551354166667,103.69613653051803L592.0496875,92.63606814877956L592.5651536458333,104.87524318418961L593.5224479166667,104.58595279527935L593.9642760416667,85.46197511955049L594.9952083333334,122.00277589204285L595.8788645833333,131.2184666826866L596.9834348958333,130.95747771469001L597.5725390625,124.40889580850146L597.6461770833333,120.44213863256186L599.2662135416667,126.7476751473105L599.560765625,153.65500279346443L600.5916979166666,171.37860683965292L601.4753541666666,145.84157328347925L601.5489921875,133.2265577396188L602.0644583333334,124.2663380861542L603.095390625,91.55499022962222L603.5372187500001,80.87699987507804L604.0526848958333,97.18060910473436L604.1999609375,112.15156431537972L604.862703125,116.69733629430601L605.0099791666667,115.62719144943513L605.0836171875,114.34591142727821L606.4827395833333,132.60273423429655L606.7036536458334,146.9408336558123L607.3663958333334,285.71490363587026L608.3236901041666,255.84094505017453L609.3546223958333,150.60937965217505L610.0910026041666,105.10482090653935L611.2692109375,184.7364948388455L612.0792291666667,196.83309288719406L613.4047135416668,134.90706032216013L614.14109375,126.17703160345233L614.2147317708334,127.1806281417589L614.6565598958333,120.52598491728187L615.1720260416668,128.22680127751752L615.466578125,174.6208790453191L615.5402161458334,213.2861297221133L615.6138541666667,251.7132772595375L617.233890625,171.63277897779284L617.3075286458334,122.6068719765195L617.6020807291667,90.40893580798195L617.7493567708333,73.38374771525793L618.4120989583333,111.6726405969282L618.7066510416668,136.37557288354753L620.8421536458334,112.73254831997225L620.9157916666667,101.51713702420994L621.5785338541667,164.91188164079546L621.7994479166666,194.97753242686008L622.3149140625001,165.1521102764285L623.0512942708333,142.33126616585704L623.1249322916667,125.6307482249048L623.2722083333333,124.63444319763816L623.6403984375,132.45905214905162L624.0822265625001,144.29782325720436L624.3767786458334,173.32189280686168L624.5240546875,213.40912994681233L625.7022630208332,208.69748083673974L626.1440911458334,224.33209079696573L626.2177291666667,238.9016607892146L626.8068333333333,233.58099647352878L628.2059557291666,205.98620591634378L629.4578020833334,208.41732871338044L631.372390625,208.0335960805673L633.0660651041667,222.05375994326224L634.023359375,152.18265940834016L634.2442734375,115.67440826707445L636.5270520833334,196.1166478288969L636.6006901041667,240.92278410749444L637.7788984375,201.32966472719198L637.8525364583334,191.86180457361982L638.5889166666667,209.8314775805977L638.8098307291666,240.24048597462817L638.9571067708333,248.4842915847769L639.767125,198.04576232879583L640.208953125,153.49466198712125L640.4298671875,121.87599030750707L640.7244192708333,132.87199188958232L642.0499036458334,227.52880029732364L642.1235416666667,267.44047903093326L642.41809375,236.82987823887245L642.6390078124999,186.69152923824532L642.7862838541668,153.1869060683379L643.8172161458334,151.95934823084653L644.1117682291666,158.89321697073456L644.9217864583334,168.46791870783136L645.1427005208333,167.06876269930822L646.6154609375,192.51166106196774L647.2045651041667,243.046189752415L647.9409453124999,223.69731040906612L648.0145833333332,209.71919313020527L648.8246015625,162.52912391034968L650.5182760416667,170.5366674614442L650.8864661458333,220.31080449297983L652.1383125,183.43527236863952L655.3783854166667,275.83956399491416L655.4520234375,303.9093435605227L655.7465755208333,245.92721990584485L656.0411276041666,171.20673538588966L657.3666119791667,177.92404123153386L657.8084401041666,218.61442473892032L657.882078125,240.5470554170827L660.974875,214.3018355451715L661.5639791666667,153.96110132710297L662.1530833333333,150.35585391149615L662.2267213541667,157.6679215265852L663.4785677083333,218.19194889983783L664.4358619791667,306.9583681924418L664.7304140625,209.89340714593382L665.5404322916667,181.80964658248217L666.4240885416666,120.21538450710659L666.6450026041666,124.43084447379525L666.7922786458333,146.43689291474584L667.0868307291666,152.79732312677726L667.6759348958334,148.49199617098827L672.0942161458332,241.11199885005385L672.5360442708334,338.79600332614564L672.6096822916667,395.3760025694179L673.8615286458332,275.1264084264164L674.3769947916667,214.8582370236233L676.0706692708334,164.44693073956455L676.3652213541667,200.11295672254732L677.1752395833333,185.64218321321587L677.3961536458332,192.22530992792954L678.648,193.50558939914055L679.0898281249999,206.68175421321482L680.0471223958333,119.7602628550773L681.5198828125,235.82976000796825L682.182625,227.11305772597234L683.3608333333333,180.93662430843497L683.508109375,192.8611677002953L684.1708515625,158.76868914556786L684.83359375,144.3668043076532L685.4226979166666,222.88248889562712L686.8954583333333,230.36149620602862L687.042734375,208.5288862490078L687.2636484375,161.66453633924843L687.4109244791667,114.48272754085376L687.8527526041667,113.50882963974662L688.7364088541666,214.14369835757853L688.810046875,279.82621901454706L689.3255130208333,298.9317256714235L689.5464270833334,305.1310382715065L689.9146171875001,322.3490264052867L690.4300833333333,292.4478164169024L690.577359375,267.2878829653759L694.3328984374999,262.75752805803404L695.1429166666667,247.74411339243767L695.3638307291667,231.25367262530634L695.7320208333333,230.6090047226447L696.9102291666667,184.46301086581335L697.20478125,178.58339733980048L697.2784192708334,190.20843897761083L697.4256953125,230.08346396029697L698.1620755208334,224.567672065143L698.4566276041667,187.26780782892953L698.7511796875,157.5182927295843L699.413921875,119.5149813750553L699.4875598958333,100.51060259456447L699.8557500000001,113.05915696689496L700.1503020833334,135.59068155806665L700.2239401041667,152.49360205007437L701.3285104166666,162.5977749995759L703.6112890625,181.0306678683979L704.4949453125,246.4224064583434L705.0104114583332,317.6174496123107L705.3786015625,235.46487894707394L706.4095338541666,147.33252966316616L707.0722760416667,171.42032468266535L708.1768463541666,206.06419767825153L708.9868645833334,245.5001180332205L709.5023307291666,275.1024771309675L709.57596875,298.8422931633461L710.2387109375,286.2021770454686L713.0369557291666,236.24291999681236L713.2578697916667,215.25376347269685L713.4051458333333,215.18106209973138L713.6260598958334,226.3422395547607L713.6996979166667,231.08374430658685L713.9942500000001,228.51425232125683L716.3506666666666,250.24695196648454L717.3815989583333,202.26177347481251L719.3698255208334,160.1602629374266L719.8116536458333,225.81615776245593L720.1062057291666,286.6416975261259L721.4316901041667,243.23700704106614L721.7998802083333,223.6990053721006L722.9044505208334,162.11859633849477L723.1253645833334,115.5823681302453L723.3462786458333,76.11743235275662L724.8926770833334,122.14884564212272L725.7026953125,161.79971082765638L726.6599895833334,135.9958207592892L726.7336276041667,119.9494809809641L727.4700078125001,136.4913023581097L727.690921875,151.8307756775611L727.9854739583333,115.2376585217711L729.2373203125001,151.29858937575796L729.3845963541667,213.80635821529847L729.6055104166667,256.2742183715619L731.1519088541667,167.71412758055428L731.2991848958334,127.17406736864501L731.667375,124.13164501103078L732.4773932291666,137.83498126931374L733.0664973958334,132.10738646666638L733.3610494791667,99.15483532238258L734.6128958333334,176.39130176716003L735.0547239583333,307.7091830683526L735.7911041666666,298.0271092672811L735.9383802083333,237.1338735925952L736.3802083333334,160.70432989286186L736.7483984375,130.30020596794367L737.1165885416666,153.68093046553184L737.3375026041667,172.25896172170187L738.4420729166667,107.64177473809929L738.5157109375,64.13385451571114L740.5039375,144.21150869331336L741.0930416666666,185.67810119987476L741.829421875,172.73245154023732L742.6394401041667,178.46347666144703L744.1858385416666,260.185290586712L744.6276666666666,268.3471686147225L745.4376848958334,176.57469887391156L745.5113229166667,123.01522276672974L747.8677395833333,153.5211365286902L747.9413776041667,159.37907962229215L748.3832057291667,159.62263515130496L752.2123828125,270.6511747797478L752.3596588541667,329.1091054415791L752.875125,320.7182586751037L753.0960390624999,285.56615692625365L753.6115052083334,252.7812935820217L755.5997317708333,298.12077901786535L757.1461302083334,276.6324674107192L757.8825104166667,290.2474775777792L759.06071875,336.3548842517457L759.2079947916667,389.85052424001225L759.7234609375,456.6674682674201L762.0798776041668,324.6852935825224L762.4480677083334,292.6463778707049L763.2580859375,318.1670198376573L763.3317239583333,326.0722147712467L763.4053619791666,340.14013001020896L763.6262760416666,315.4928820222387L764.804484375,267.3533372455698L766.7927109375,252.68240578972467L767.013625,269.67344921113954L768.4863854166667,194.77925690461345L768.9282135416667,149.16594037323688L769.0018515625,129.69397340362963L770.9164401041667,162.60438117352544L771.43190625,160.69303214649813L771.9473723958333,160.63662617266453L774.3774270833333,148.64598144090343L774.5983411458334,164.04920263407325L775.9974635416667,157.7999250228268L776.0711015625,151.04234698146956L776.73384375,139.9566185160303L777.2493098958333,144.99878373168843L777.4702239583333,138.24805991186466L777.9856901041667,211.014441110693L778.2066041666667,262.30706524014636L779.6057265625,250.18104029154875L779.826640625,271.8574281910425L780.6366588541666,233.3512580620865L781.4466770833333,223.633161148287L782.1830572916666,278.33829726270267L782.3303333333333,335.63897262031696L782.4039713541666,366.8985852933816L782.6248854166668,368.7719465861852L784.3921979166668,281.0471736890158L784.7603880208334,228.29951454055788L784.8340260416667,200.11011216671753L785.128578125,185.11407877463995L786.5277005208334,223.04124267494018L786.6013385416667,242.6767484736165L787.2640807291667,301.98444965790037L787.8531848958332,338.77226922100976L788.7368411458333,257.48255464784023L791.4614479166668,179.11754426331345L791.6823619791667,151.08652082068338L792.3451041666666,201.7975176559842L792.4187421875,228.68970657747718L792.8605703125,190.38022165156437L793.0078463541666,163.484127253634L793.6705885416667,152.8360671724929L796.2479192708333,149.49285063064417L796.5424713541667,161.54931267330832" style="fill: none;" fill="none"></path></g></g></g></g><g opacity="0.2"><g><g><g><path stroke="rgb(255, 112, 67)" stroke-width="2px" d="M99.26405208333333,465.95799713134767L100.7368125,271.47201004028324L104.71326562499999,157.5440200805664L104.78690364583333,146.07600860595704L106.03875,163.93602294921874L106.2596640625,204.82600860595704L106.480578125,235.75201721191405L107.5851484375,236.2220100402832L107.8060625,245.3399856567383L107.87970052083334,278.6159942626953L108.61608072916665,516.4360050201416L110.015203125,194.29798278808593L111.5616015625,117.97002868652345L112.81344791666668,195.70799713134767L113.18163802083333,167.22600860595702L115.16986458333334,187.0600143432617L115.90624479166665,183.86397705078124L116.34807291666665,120.22600860595702L116.86353906250001,49.913977050781256L116.93717708333332,51.41801147460939L119.36723177083333,103.58796844482421L119.51450781250001,132.4459655761719L120.39816406250002,145.7940200805664L120.91363020833333,78.11397705078124L120.98726822916666,66.55201721191406L121.13454427083333,64.4840057373047L121.35545833333333,80.83998565673829L121.502734375,86.47997131347657L122.386390625,21.807997131347665L123.12277083333333,284.1619956970215L126.28920572916667,27.447982788085938L126.5837578125,5.3579971313476396L126.87830989583334,5.921974182128906L127.46741406249998,42.67600860595704L128.13015625,214.31999282836915L129.08745052083333,263.6699928283692L129.38200260416667,208.49200286865235L130.04474479166666,26.037968444824237L130.339296875,-1.6920028686523771L130.48657291666666,-1.9739913940429688L130.63384895833335,3.854034423828125L131.14931510416667,77.45597991943359L131.51750520833335,452.7039985656738L132.18024739583333,450.54200286865233L132.47479947916668,350.2439842224121L132.7693515625,200.6899856567383L133.2111796875,103.11801147460938L133.28481770833335,82.25L134.9784921875,94.56397705078126L135.2730442708333,132.7280258178711L137.70309895833333,134.32600860595704L138.2185651041667,110.16801147460939L138.6603932291667,103.96397705078124L139.69132552083332,50.66599426269531L139.9858776041667,49.349999999999994L140.50134375,39.47997131347657L140.64861979166668,30.73796844482422L141.23772395833333,37.12997131347658L142.26865625,390.94600143432615L142.34229427083332,431.1779899597168L143.07867447916666,32.05403442382811L143.29958854166665,55.74200286865235L143.96233072916667,95.59798278808594L144.55143489583332,53.29798278808593L145.21417708333334,105.93796844482421L145.28781510416667,116.84200286865234L145.72964322916667,121.63602294921876L145.80328125,112.42399139404296L146.17147135416667,62.51001434326174L147.49695572916667,81.40403442382814L147.71786979166666,98.88796844482422L148.38061197916667,83.84798278808594L150.58975260416665,133.38602294921876L151.547046875,40.79596557617188L151.98887499999998,10.904034423828142L152.2097890625,38.163977050781256L152.35706510416665,45.5899856567383L152.6516171875,99.8280258178711L153.0934453125,180.01001434326173L153.46163541666667,155.57002868652344L154.19801562499998,99.07600860595704L154.63984374999998,111.95403442382812L155.00803385416665,108.57002868652344L155.7444140625,50.66599426269531L158.8372109375,160.8340057373047L159.13176302083335,121.54200286865233L159.20540104166668,118.43998565673829L159.2790390625,110.82600860595704L160.6045234375,56.68198852539064L161.5618177083333,55.17802581787109L162.51911197916667,96.2559799194336L164.43370052083333,3.384005737304671L165.31735677083333,796.7440000504255L166.127375,182.45403442382812L166.3482890625,88.64200286865236L166.569203125,56.68198852539064L168.0419635416667,11.186022949218733L168.4837916666667,-8.836022949218783L168.9992578125,50.10201721191408L169.4410859375,128.49798278808595L170.61929427083334,7.331988525390608L170.84020833333332,23.123991394042978L171.6502265625,-27.447982788085938L171.871140625,-9.023991394042985L172.0920546875,27.071974182128915L172.16569270833332,43.80403442382811L175.70031770833333,35.53198852539063L175.92123177083334,34.68602294921873L176.14214583333333,56.96397705078123L176.21578385416666,62.41599426269531L177.8358203125,54.895965576171875L178.7194765625,54.707997131347675L179.45585677083335,98.04200286865233L179.75040885416666,76.70403442382812L181.591359375,497.73000717163086L181.66499739583335,415.76199569702146L182.475015625,1.5979827880859458L183.06411979166666,10.715994262695322L183.358671875,38.82197418212891L183.50594791666666,62.32197418212891L185.86236458333335,52.07600860595705L186.15691666666666,7.237968444824219L187.9978671875,87.04402008056641L189.1760755208333,96.35L189.24971354166667,94.47002868652345L190.35428385416668,0.8459655761718583L190.6488359375,-2.9139770507812166L191.8270442708333,128.49798278808595L191.90068229166667,107.44200286865234L193.52071875,55.17802581787109L193.8889088541667,57.05799713134766L194.25709895833333,44.7440200805664L194.47801302083332,44.27399139404299L194.846203125,115.71397705078124L195.0671171875,161.0219741821289L195.9507734375,12.313977050781267L196.5398776041667,-14.75799713134769L197.05534375,11.562031555175798L197.57080989583332,73.88400573730468L198.23355208333334,84.5059799194336L198.52810416666665,56.118011474609375L198.67538020833334,56.21203155517576L198.82265625,74.07197418212891L199.0435703125,232.8380043029785L199.55903645833334,142.50403442382813L200.22177864583333,81.87399139404297L200.95815885416667,17.107997131347638L201.2527109375,25.097982788085947L201.39998697916667,17.954034423828116L201.62090104166666,-3.854034423828125L202.28364322916667,-15.697982788085938L203.75640364583333,184.23998565673827L204.41914583333335,117.5940200805664L204.86097395833335,113.8340057373047L205.37644010416665,46.71801147460937L205.450078125,48.59798278808594L206.11282031250002,70.5940200805664L206.62828645833335,89.30000000000001L208.17468489583334,-10.715994262695279L208.46923697916665,167.22600860595702L209.2056171875,214.78998565673828L209.50016927083334,104.81001434326171L210.16291145833333,87.04402008056641L211.12020572916666,30.55000000000002L211.34111979166667,44.650000000000006L211.78294791666667,61.381988525390625L211.93022395833333,73.88400573730468L214.43391666666668,651.1380043029785L214.87574479166668,769.2959991931915L216.12759114583335,278.7100143432617L216.86397135416667,87.13796844482422L217.08488541666668,47.376008605957026L217.2321614583333,31.489985656738263L218.5576458333333,57.528025817871075L219.588578125,95.97399139404297L219.73585416666668,120.78998565673828L221.06133854166666,128.77997131347655L221.355890625,96.72600860595702L221.94499479166666,82.53198852539063L223.19684114583333,9.963977050781233L223.63866927083333,60.72399139404297L225.40598177083334,116.56001434326171L226.36327604166667,311.13998565673825L226.58419010416668,176.4379684448242L226.657828125,158.20201721191407L226.80510416666667,108.47600860595702L226.95238020833335,93.71801147460937L227.24693229166667,88.92399139404296L227.541484375,60.25403442382813L228.05695052083334,54.144020080566406L229.16152083333336,335.5800071716308L231.66521354166667,173.33602294921874L231.95976562500002,171.17399139404296L232.47523177083335,-1.6920028686523771L233.1379739583333,-3.665994262695346L234.0216302083333,116.46599426269532L234.75801041666665,262.9180114746094L234.9052864583333,254.8340057373047L235.05256250000002,200.40799713134766L235.4207526041667,108.57002868652344L235.64166666666665,51.79402008056641L236.2307708333333,-27.918011474609393L236.52532291666665,-36.75403442382809L237.9980833333333,59.502017211914044L238.36627343749998,28.670028686523438L238.4399114583333,23.594020080566388L238.58718750000003,23.405979919433612L238.80810156249998,72.00403442382813L239.10265364583333,177.3780258178711L239.17629166666666,206.04798278808593L239.6917578125,312.17399139404296L239.91267187500003,329.9399856567383L240.28086197916664,405.7039985656738L241.67998437500003,56.21203155517576L242.41636458333332,17.295965576171884L242.85819270833332,34.779971313476544L243.30002083333332,67.67997131347656L243.59457291666666,55.74200286865235L244.47822916666667,37.12997131347658L244.5518671875,27.82399139404296L246.39281770833333,80.37002868652343L247.05555989583334,82.72002868652345L249.632890625,186.96599426269532L249.70652864583334,230.95799713134767L249.8538046875,270.0619956970215L253.09387760416666,9.58796844482421L253.68298177083335,58.5620315551758L254.19844791666668,129.62600860595703L254.34572395833334,160.73998565673827L254.49299999999997,161.49200286865235L254.86119010416667,131.6L256.70214062499997,101.89596557617188L256.7757786458334,98.79402008056641L257.51215885416667,39.01001434326174L257.6594348958334,69.46599426269532L258.027625,25.66203155517579L259.05855729166666,114.67997131347656L259.5003854166667,50.00799713134765L260.1631276041667,23.218011474609366L261.2676979166667,16.168011474609393L261.56225,41.360014343261724L261.70952604166666,47.376008605957026L263.5504765625,-1.9739913940429688L264.4341328125,98.51203155517578L265.1705130208333,122.76397705078125L265.61234114583334,77.45597991943359L266.8641875,18.329971313476562L267.306015625,78.30201721191406L267.37965364583334,72.47399139404297L268.4105859375,-15.321974182128873L268.85241406250003,27.354034423828125L269.22060416666665,68.90201721191406L270.9142786458333,29.139985656738272L271.4297447916666,128.3100143432617L271.7979348958333,125.48998565673827L272.75522916666665,19.457997131347675L273.27069531250004,9.212031555175765L274.375265625,103.30597991943358L275.258921875,73.03796844482423L275.4798359375,62.886022949218756L276.5107682291667,17.484005737304706L276.73168229166663,10.62197418212889L279.0880989583334,341.40799713134766L279.1617369791667,448.9439842224121L279.235375,512.4880043029785L280.560859375,49.913977050781256L281.66542968749997,-6.673991394042952L285.20005468749997,24.9100143432617L285.862796875,56.400000000000006L286.5255390625,54.98998565673826L286.9673671875,18.98796844482422L288.513765625,91.27399139404298L288.6610416666667,115.80799713134766L288.7346796875,103.11801147460938L292.1956666666667,-3.9479827880859375L292.7847708333333,40.137968444824224L294.4784453125,516.623991394043L295.1411875,375.8119956970215L295.4357395833333,203.4159942626953L295.7302916666667,65.04798278808593L296.6139479166667,-17.20201721191403L297.64488020833335,-18.42399139404295L299.4121927083333,172.20799713134767L299.70674479166667,35.81397705078127L299.8540208333333,15.792002868652327L301.9158854166667,38.7280258178711L303.60955989583334,34.592002868652344L304.7141302083333,56.02399139404299L305.303234375,112.8940200805664L305.67142447916666,97.28998565673828L306.03961458333333,51.41801147460939L306.4814427083333,38.82197418212891L307.6596510416667,70.5940200805664L308.9851354166667,62.2280258178711L309.0587734375,56.68198852539064L309.57423958333334,63.355979919433594L309.79515364583335,206.33000717163085L311.56246614583335,78.5840057373047L311.7833802083333,109.69798278808594L312.29884635416664,51.136022949218756L312.51976041666666,32.71203155517576L312.5933984375,31.207997131347675L312.74067447916667,41.82997131347656L312.81431249999997,47.09402008056639L314.65526302083333,21.244020080566397L315.3180052083333,39.386022949218756L317.0853177083333,-37.50597991943356L317.674421875,59.78400573730468L318.70535416666667,53.862031555175776L318.7789921875,50.10201721191408L320.0308385416667,16.637968444824228L322.1663411458333,83.94200286865234L322.31361718750003,76.4219741821289L323.0499973958333,18.612031555175772L324.30184375,216.38800430297852L324.67003385416666,220.14798278808593L326.2900703125,72.47399139404297L326.510984375,135.45403442382812L326.8791744791667,273.4460014343262L327.68919270833334,117.02997131347655L327.83646875,101.70799713134767L328.3519348958333,67.77399139404298L328.7937630208333,19.36397705078124L329.3092291666666,60.1600143432617L329.75105729166665,148.42600860595704L329.97197135416667,194.29798278808593L331.22381770833334,91.08602294921874L332.10747395833334,36.6600143432617L332.3283880208333,79.61801147460938L332.84385416666663,190.82002868652344L334.0220625,49.631988525390625L334.16933854166666,41.64200286865236L334.61116666666663,53.95597991943359L334.90571875,52.828025817871094L336.0839270833334,119.66203155517579L337.3357734375,126.14798278808593L338.8085338541667,51.32399139404296L340.13401822916666,27.542002868652325L340.2812942708333,30.92600860595704L340.42857031249997,47.376008605957026L340.649484375,71.72197418212892L340.8703984375,111.6719741821289L342.1222447916667,4.699999999999983L342.9322630208333,70.5L343.9631953125,79.71203155517577L346.1723359375,79.80597991943358L346.31961197916667,61.381988525390625L348.08692447916667,48.03400573730468L348.3814765625,58.65597991943361L348.5287526041667,69.56001434326171L348.97058072916667,81.31001434326171L349.1914947916667,45.68400573730469L349.33877083333334,28.95201721191407L350.00151302083333,97.00799713134765L350.51697916666666,82.81397705078126L351.4742734375,66.92802581787109L352.06337760416665,19.834005737304697L353.020671875,-0.2819885253905916L353.16794791666666,30.362031555175772L353.3888619791666,64.95403442382812L354.5670703125,137.4280258178711L354.93526041666667,104.33998565673829L355.0825364583333,88.1719741821289L355.81891666666667,144.85403442382812L356.11346875000004,138.36801147460938L358.24897135416666,161.86801147460938L358.6171614583333,274.57399139404293L359.13262760416666,214.60201721191407L362.37270052083335,26.320028686523447L362.9618046875,368.19798278808594L363.4772708333333,456.8399856567383L363.7718229166667,241.48598709106446L364.5818411458334,45.778025817871075L365.02366927083335,52.639985656738276L365.4654973958334,61.28796844482424L367.08553385416667,68.80799713134766L367.8955520833333,140.15403442382814L368.2637421875,210.46599426269532L368.926484375,42.01801147460938L369.00012239583333,31.86599426269533L369.88377864583333,87.51397705078125L370.693796875,193.63998565673828L370.9147109375,227.95L371.65109114583333,100.48602294921875L375.112078125,111.4840057373047L375.48026822916665,100.48602294921875L375.55390625,93.9059799194336L376.29028645833336,0.6579971313476562L381.66586197916666,149.74200286865235L382.47588020833336,243.36599426269532L382.54951822916667,292.3399856567383L382.6967942708333,414.06999282836915L383.1386223958333,611.2820064544677L384.97957291666665,32.14798278808592L385.3477630208333,1.0340057373046792L385.56867708333334,-8.084005737304654L386.15778125,95.87997131347657L386.9677994791667,129.25L387.63054166666666,-5.828025817871094L387.92509375,-23.78198852539059L389.0296640625,31.207997131347675L390.2078723958333,118.34596557617186L390.64970052083333,79.71203155517577L390.9442526041667,59.31397705078127L391.60699479166664,51.69999999999998L391.75427083333335,61.663977050781256L392.41701302083334,65.42399139404296L392.71156510416665,175.87399139404297L393.52158333333335,314.33598709106445L395.436171875,56.58796844482421L396.0989140625,263.3880043029785L397.203484375,151.99798278808595L397.71895052083335,43.05201721191406L398.1607786458333,37.41203155517579L398.4553307291667,36.28400573730468L398.52896875,47.09402008056639L399.9280911458333,248.63000717163087L400.14900520833334,258.5939842224121L402.79997395833334,153.12600860595703L403.2418020833333,201.34798278808594L404.3463723958333,28.01203155517578L404.4936484375,9.776008605957031L405.74549479166666,8.929971313476553L405.8191328125,18.80000000000002L407.21825520833335,277.2060157775879L407.29189322916665,290.6479827880859L407.51280729166666,284.81999282836915L408.17554947916665,146.8280258178711L408.9855677083333,113.08198852539061L410.82651822916665,134.9840057373047L411.04743229166667,165.6280258178711L411.85745052083337,6.5799713134765625L412.0783645833333,10.528025817871077L412.22564062500004,38.91599426269531L412.3729166666667,110.73198852539062L413.2565729166667,570.2039985656738L414.5084192708334,140.52997131347655L416.0548177083333,8.554034423828108L416.57028385416663,25.192002868652335L417.1593880208334,53.76801147460938L417.45394010416663,98.51203155517578L417.96940624999996,97.28998565673828L418.0430442708334,96.82002868652344L418.1166822916667,98.79402008056641L418.85306249999996,71.15799713134766L420.7676510416667,203.79200286865233L421.13584114583335,288.8619956970215L422.31404947916667,255.77399139404298L423.1240677083333,156.2280258178711L423.4186197916667,76.79798278808593L423.4922578125,70.5940200805664L424.0813619791667,56.77600860595703L424.52319010416664,25.568011474609357L424.74410416666666,46.15403442382814L425.40684635416665,105.18602294921874L425.7013984375,126.80597991943358L426.21686458333335,169.48198852539062L426.29050260416665,172.02002868652343L426.7323307291667,129.90799713134766L427.17415885416665,119.00403442382813L427.3214348958333,128.1219741821289L427.5423489583333,98.79402008056641L430.1196796875,153.59596557617186L431.0033359375,70.68796844482421L432.40245833333336,130.84798278808594L432.549734375,131.69402008056642L434.0961328125,144.6659942626953L435.5688932291667,100.76801147460938L437.3362057291667,405.2340057373047L437.55711979166665,385.1180114746094L438.5144140625,100.67399139404296L439.1035182291667,44.7440200805664L439.7662604166666,46.623991394042974L439.9871744791667,74.54200286865233L440.1344505208333,70.68796844482421L440.20808854166665,73.41397705078126L443.44816145833335,313.30201721191406L443.8899895833333,131.03602294921876L444.1109036458334,105.27997131347655L444.62636979166666,22.93602294921873L445.58366406249996,21.244020080566397L445.7309401041666,27.071974182128915L445.804578125,38.44596557617189L446.3200442708333,194.9559799194336L447.6455286458334,96.91397705078126L449.339203125,-13.442002868652377L449.70739322916666,29.139985656738272L451.1801536458333,61.099999999999994L451.32742968750006,59.31397705078127L451.7692578125,22.93602294921873L453.68384635416663,138.8379684448242L454.05203645833336,37.881988525390625L455.00933072916666,208.58598709106445L455.3038828125,210.0899856567383L456.62936718750007,177.00201721191405L457.21847135416664,154.25403442382813L458.91214583333334,84.69402008056642L459.2066979166667,139.40201721191406L459.50125,127.46397705078124L459.5748880208333,132.63400573730468L461.4894765625,22.46599426269532L463.1831510416667,66.45799713134767L465.3186536458333,140.9059799194336L466.12867187499995,71.15799713134766L467.3068802083334,153.03198852539063L468.33781250000004,21.055979919433575L468.41145052083334,17.671974182128906L469.8842109375,28.294020080566415L471.6515234375,98.13602294921876L471.7987994791667,118.91001434326171L472.82973177083335,103.4940200805664L474.2288541666666,56.118011474609375L474.4497682291667,32.618011474609375L474.8179583333333,36.002017211914044L477.54256510416667,61.0059799194336L478.05803125000006,52.45201721191407L478.3525833333333,94.28198852539063L478.7944114583333,91.93198852539064L479.2362395833333,100.29798278808593L479.6044296875,100.48602294921875L479.82534375000006,76.79798278808593L479.97261979166666,58.279971313476544L481.73993229166666,36.18998565673829L482.3290364583333,81.77997131347655L483.5808828125,100.86203155517578L483.94907291666664,118.34596557617186L484.0963489583333,136.86397705078124L484.9800052083333,273.06999282836915L485.12728125000007,303.6199928283691L485.569109375,286.04200286865233L486.452765625,205.20201721191407L486.8209557291667,202.1939842224121L487.55733593749994,65.98796844482422L488.29371614583334,11.468011474609366L490.3555807291666,16.168011474609393L490.5028567708334,50.28998565673828L490.7974088541667,209.71401290893556L491.90197916666665,50.28998565673828L494.9211380208334,120.88400573730468L495.14205208333334,109.13400573730468L496.4675364583333,-4.229971313476529L497.79302083333334,186.30799713134766L499.04486718749996,135.2659942626953L499.26578125,78.67802581787109L499.6339713541667,65.14200286865236L500.0021614583333,139.02600860595703L501.32764583333335,214.13198852539062L501.4012838541667,187.0600143432617L502.6531302083333,18.04798278808593L502.8740442708334,9.87002868652342L503.38951041666667,125.30201721191406L505.3777369791666,166.47399139404297L505.5250130208334,153.78400573730468L506.04047916666667,125.86599426269532L507.3659635416667,321.19798278808594L507.51323958333336,293.8439842224121L508.02870572916663,163.65403442382814L508.6914479166667,6.015994262695296L509.427828125,69.84200286865234L510.23784635416666,86.01001434326173L510.5323984375,122.67002868652344L510.60603645833334,149.74200286865235L512.0051588541667,177.5659942626953L512.3733489583333,137.99200286865235L512.520625,106.97197418212892L512.8151770833333,32.52399139404299L513.4779192708332,60.06599426269531L514.8034036458333,58.092002868652344L516.2761640625,196.2719741821289L516.6443541666666,262.82399139404293L517.3070963541667,310.4819885253906L517.7489244791666,247.9720100402832L517.8225625,252.5779899597168L518.1171145833333,189.22197418212892L518.3380286458333,212.53400573730468L519.9580651041667,225.6L521.2835494791666,145.22997131347657L521.5781015625,26.131988525390625L521.9462916666666,32.42997131347656L523.1245,160.73998565673827L523.2717760416666,125.96001434326172L524.00815625,26.226008605957013L524.449984375,-1.034005737304721L524.5972604166667,12.313977050781267L525.0390885416666,27.447982788085938L525.1863645833333,26.78998565673828L525.333640625,26.507997131347647L526.217296875,171.07997131347656L526.3645729166667,183.3L526.5118489583333,182.92399139404296L528.2055234375,220.71199569702148L528.868265625,58.46801147460937L529.0891796875,55.55403442382811L530.2673880208333,-3.854034423828125L531.0037682291667,75.38796844482422L531.07740625,86.19798278808594L531.2246822916667,133.76203155517578L531.6665104166667,138.7440200805664L532.6238046875,99.07600860595704L532.9919947916667,108.75799713134765L533.5074609375,49.16203155517579L533.9492890624999,80.93400573730469L534.9065833333333,141.56397705078126L536.821171875,112.04798278808593L538.5148463541667,36.09596557617186L538.8093984375,52.07600860595705L538.8830364583333,48.59798278808594L539.3985026041668,49.82002868652344L540.6503489583333,362.74600143432616L541.4603671875,113.17600860595704L542.2703854166667,27.354034423828125L542.7858515624999,15.13400573730467L543.2276796875,73.50799713134765L544.9949921875,401.7560157775879L549.0450833333333,132.16397705078126L549.3396354166667,94.75201721191405L550.2969296875,202.0060157775879L551.1069479166667,281.4359870910644L551.4015,219.01999282836914L551.9906041666667,233.02600860595703L552.0642421875,230.39398422241212L552.3587942708333,245.5279899597168L553.0951744791666,96.82002868652344L553.8315546875,-10.528025817871077L553.9788307291667,-1.3159942626953125L554.5679348958333,40.32600860595705L556.0406953125,113.64596557617188L557.8080078125,236.97399139404297L558.2498359375,117.02997131347655L558.3234739583334,104.71599426269532L558.5443880208334,101.89596557617188L559.2807682291667,260.097982788086L559.9435104166668,253.89398422241212L560.1644244791667,197.4939842224121L560.9008046875,127.18198852539064L561.2689947916666,99.63998565673828L563.9199635416667,267.2420028686524L564.5827057291667,175.59200286865234L564.7299817708333,172.11397705078124L565.0245338541666,205.10799713134764L565.4663619791667,217.89200286865236L565.6872760416667,163.27802581787108L566.2027421875,30.079971313476562L566.7918463541666,20.304034423828107L567.0127604166668,42.77002868652343L567.6018645833333,138.93198852539064L567.8964166666667,149.74200286865235L568.19096875,156.03998565673828L569.8846432291667,67.77399139404298L570.1791953125,73.41397705078126L570.6946614583334,64.20201721191407L570.9892135416667,37.5059799194336L571.7992317708333,287.35799713134764L572.6828880208334,312.8319885253906L573.8610963541666,61.194020080566425L575.702046875,100.11001434326172L576.8066171875,157.07399139404296L577.8375494791667,120.50799713134765L578.4266536458333,83.75403442382813L579.0157578125,8.084005737304697L579.4575859375001,41.54798278808593L579.5312239583334,37.881988525390625L581.4458125,60.72399139404297L582.4767447916666,398.1840057373047L582.6976588541667,507.69400215148926L584.3176953125,43.71001434326172L585.5695416666666,39.66801147460939L586.4531979166667,99.54596557617188L586.6741119791667,87.60799713134764L587.1159401041666,107.06599426269531L588.4414244791667,195.89596557617188L588.5887005208334,220.9L589.9141848958333,36.37802581787111L590.2087369791667,77.73796844482422L591.7551354166667,105.27997131347655L592.0496875,76.04596557617188L592.5651536458333,123.2340057373047L593.5224479166667,104.15201721191406L593.9642760416667,56.77600860595703L594.9952083333334,176.81397705078126L595.8788645833333,145.04200286865233L596.9834348958333,130.5659942626953L597.5725390625,114.58602294921874L597.6461770833333,114.49200286865235L599.2662135416667,136.2059799194336L599.560765625,194.0159942626953L600.5916979166666,197.96401290893556L601.4753541666666,107.53602294921876L601.5489921875,114.30403442382811L602.0644583333334,110.82600860595704L603.095390625,42.48796844482422L603.5372187500001,64.86001434326172L604.0526848958333,121.63602294921876L604.1999609375,134.60799713134764L604.862703125,123.5159942626953L605.0099791666667,114.0219741821289L605.0836171875,112.42399139404296L606.4827395833333,159.98796844482422L606.7036536458334,168.44798278808594L607.3663958333334,493.87600860595705L608.3236901041666,211.03000717163087L609.3546223958333,-7.237968444824219L610.0910026041666,36.84798278808594L611.2692109375,304.1840057373047L612.0792291666667,214.9779899597168L613.4047135416668,42.01801147460938L614.14109375,113.08198852539061L614.2147317708334,128.68602294921874L614.6565598958333,110.54402008056641L615.1720260416668,139.77802581787108L615.466578125,244.21199569702148L615.5402161458334,271.28400573730465L615.6138541666667,309.35399856567386L617.233890625,51.51203155517578L617.3075286458334,49.06801147460936L617.6020807291667,42.112031555175776L617.7493567708333,47.84596557617186L618.4120989583333,169.1059799194336L618.7066510416668,173.42997131347656L620.8421536458334,77.26801147460938L620.9157916666667,84.69402008056642L621.5785338541667,260.00399856567384L621.7994479166666,240.07600860595704L622.3149140625001,120.41397705078126L623.0512942708333,108.1L623.1249322916667,100.57997131347656L623.2722083333333,123.13998565673828L623.6403984375,144.1959655761719L624.0822265625001,162.05597991943358L624.3767786458334,216.85799713134764L624.5240546875,273.5399856567383L625.7022630208332,201.63000717163087L626.1440911458334,247.78400573730468L626.2177291666667,260.7560157775879L626.8068333333333,225.6L628.2059557291666,164.5940200805664L629.4578020833334,212.06401290893555L631.372390625,207.45799713134767L633.0660651041667,243.0840057373047L634.023359375,47.376008605957026L634.2442734375,60.91203155517579L636.5270520833334,316.78000717163087L636.6006901041667,308.1319885253906L637.7788984375,141.9399856567383L637.8525364583334,177.6600143432617L638.5889166666667,236.78598709106444L638.8098307291666,285.85399856567386L638.9571067708333,260.84999999999997L639.767125,122.38796844482422L640.208953125,86.66801147460939L640.4298671875,74.44798278808594L640.7244192708333,149.36599426269532L642.0499036458334,369.5140129089355L642.1235416666667,327.3079971313477L642.41809375,190.91397705078126L642.6390078124999,111.4840057373047L642.7862838541668,102.92997131347656L643.8172161458334,150.11801147460938L644.1117682291666,169.2940200805664L644.9217864583334,182.82997131347656L645.1427005208333,164.97002868652345L646.6154609375,230.67600860595704L647.2045651041667,318.847982788086L647.9409453124999,194.67399139404296L648.0145833333332,188.75201721191405L648.8246015625,91.7440200805664L650.5182760416667,182.54798278808593L650.8864661458333,294.97201004028324L652.1383125,128.1219741821289L655.3783854166667,414.44600143432615L655.4520234375,346.0140129089355L655.7465755208333,158.95403442382812L656.0411276041666,59.126008605957026L657.3666119791667,188L657.8084401041666,279.65000000000003L657.882078125,273.4460014343262L660.974875,174.9340057373047L661.5639791666667,63.44999999999998L662.1530833333333,144.94798278808594L662.2267213541667,168.63602294921876L663.4785677083333,308.9779899597168L664.4358619791667,440.10799713134764L664.7304140625,64.29596557617188L665.5404322916667,139.6840057373047L666.4240885416666,27.82399139404296L666.6450026041666,130.75403442382813L666.7922786458333,179.4459655761719L667.0868307291666,162.3379684448242L667.6759348958334,142.03400573730468L672.0942161458332,380.04200286865233L672.6096822916667,480.24600143432616L673.8615286458332,94.75201721191405L674.3769947916667,124.45597991943359L676.0706692708334,88.82997131347656L676.3652213541667,253.61199569702148L677.1752395833333,163.93602294921874L677.3961536458332,202.1L678.648,195.42600860595704L679.0898281249999,226.44600143432618L680.0471223958333,-10.62197418212889L681.5198828125,409.9340057373047L682.182625,214.03800430297852L683.3608333333333,111.6719741821289L683.508109375,210.74798278808595L684.1708515625,107.62997131347657L684.83359375,122.76397705078125L685.4226979166666,340.6560157775879L686.8954583333333,241.58000717163085L687.042734375,175.77997131347655L687.2636484375,91.36801147460938L687.4109244791667,43.71001434326172L687.8527526041667,112.04798278808593L688.7364088541666,365.0960014343262L688.810046875,378.35L689.3255130208333,327.5899856567383L689.5464270833334,314.43000717163085L689.9146171875001,348.17600860595707L690.4300833333333,247.59600143432618L690.577359375,229.54798278808593L694.3328984374999,255.96199569702148L695.1429166666667,225.22399139404297L695.3638307291667,206.51801147460938L695.7320208333333,229.64200286865236L696.9102291666667,115.2440200805664L697.20478125,169.76397705078125L697.2784192708334,207.64600143432617L697.4256953125,289.89600143432614L698.1620755208334,216.29398422241212L698.4566276041667,131.31801147460936L698.7511796875,112.8940200805664L699.413921875,62.51001434326174L699.4875598958333,72.00403442382813L699.8557500000001,131.88198852539062L700.1503020833334,169.38796844482422L700.2239401041667,177.84798278808594L701.3285104166666,177.75403442382813L703.6112890625,208.68000717163085L704.4949453125,344.51001434326173L705.0104114583332,424.4100143432617L705.3786015625,112.23602294921875L706.4095338541666,15.13400573730467L707.0722760416667,207.55201721191406L708.1768463541666,258.03000717163087L708.9868645833334,304.6539985656738L709.5023307291666,319.5060157775879L709.57596875,334.4520172119141L710.2387109375,267.2420028686524L713.0369557291666,161.3040344238281L713.2578697916667,183.77002868652343L713.4051458333333,215.0720100402832L713.6260598958334,243.0840057373047L713.6996979166667,238.19600143432618L713.9942500000001,224.6600143432617L716.3506666666666,282.8460014343262L717.3815989583333,130.28400573730468L719.3698255208334,97.00799713134765L719.8116536458333,324.3L720.1062057291666,377.88000717163084L721.4316901041667,178.12997131347657L721.7998802083333,194.39200286865236L722.9044505208334,69.74798278808595L723.1253645833334,45.778025817871075L723.3462786458333,16.920028686523438L724.8926770833334,191.1959655761719L725.7026953125,221.27600860595703L726.6599895833334,97.28998565673828L726.7336276041667,95.87997131347657L727.4700078125001,161.3040344238281L727.690921875,174.8399856567383L727.9854739583333,60.34798278808594L729.2373203125001,205.38998565673828L729.3845963541667,307.56801147460936L729.6055104166667,319.976008605957L731.1519088541667,34.873991394042974L731.2991848958334,66.36397705078124L731.667375,119.56801147460936L732.4773932291666,158.38998565673828L733.0664973958334,123.5159942626953L733.3610494791667,49.72600860595701L734.6128958333334,292.24600143432616L735.0547239583333,504.6860050201416L735.7911041666666,283.50399856567384L735.9383802083333,145.7940200805664L736.3802083333334,46.06001434326171L736.7483984375,84.69402008056642L737.1165885416666,188.75201721191405L737.3375026041667,200.12600860595703L738.4420729166667,10.715994262695322L738.5157109375,-1.1280258178711104L740.5039375,264.32798995971683L741.0930416666666,247.87798995971679L741.829421875,153.31397705078126L742.6394401041667,187.0600143432617L744.1858385416666,382.76801147460935L744.6276666666666,280.5899856567383L745.4376848958334,38.91599426269531L745.5113229166667,42.67600860595704L747.8677395833333,199.28000717163087L747.9413776041667,168.1659942626953L748.3832057291667,159.98796844482422L752.2123828125,437.1939842224121L752.3596588541667,416.7960014343262L752.875125,308.1319885253906L753.0960390624999,232.8380043029785L753.6115052083334,203.60399856567383L755.5997317708333,366.1300071716309L757.1461302083334,244.4L757.8825104166667,310.6699928283692L759.06071875,405.5159942626953L759.7234609375,503.55799713134763L762.0798776041668,126.71203155517577L762.4480677083334,244.5880043029785L763.2580859375,356.44798278808594L763.3317239583333,337.93000717163085L763.4053619791666,361.2420028686524L763.6262760416666,278.5220100402832L764.804484375,195.1440200805664L766.7927109375,230.67600860595704L767.013625,295.1600143432617L768.4863854166667,82.43796844482421L768.9282135416667,80.74596557617187L769.0018515625,100.48602294921875L770.9164401041667,211.96999282836913L771.43190625,157.82600860595704L771.9473723958333,160.55201721191406L774.3774270833333,130.6600143432617L774.5983411458334,187.15403442382814L775.9974635416667,148.42600860595704L776.0711015625,140.9059799194336L776.73384375,123.3280258178711L777.2493098958333,152.5620315551758L777.4702239583333,128.1219741821289L777.9856901041667,320.16401290893555L778.2066041666667,339.24600143432616L779.6057265625,231.99200286865235L779.826640625,304.3720100402832L780.6366588541666,175.59200286865234L781.4466770833333,209.0560157775879L782.1830572916666,360.39600143432614L782.3303333333333,421.5899856567383L782.4039713541666,413.7880043029785L782.6248854166668,371.5819885253906L784.3921979166668,149.46001434326172L784.7603880208334,149.1780258178711L784.8340260416667,157.82600860595704L785.128578125,162.62002868652343L786.5277005208334,279.93198852539064L786.6013385416667,272.1300071716309L787.2640807291667,390.94600143432615L787.8531848958332,393.9539985656738L788.7368411458333,135.54798278808593L791.4614479166668,61.57002868652344L791.6823619791667,109.03998565673828L792.3451041666666,277.86401290893554L792.4187421875,269.02798995971676L792.8605703125,132.9159942626953L793.0078463541666,123.13998565673828L793.6705885416667,136.86397705078124L796.2479192708333,144.4780258178711L796.5424713541667,179.63400573730468" style="fill: none;" fill="none"></path></g></g></g></g></g></g><g transform="translate(31, 376)" clip-path="url(#clip_1)"><clipPath id="clip_1"><rect width="883" height="24"></rect></clipPath><g><g><line x1="0" y1="0" x2="0" y2="5" style="visibility: inherit;" fill="rgb(0, 0, 0)" stroke="rgb(204, 204, 204)" stroke-width="1px"></line><line x1="73.63802083333333" y1="0" x2="73.63802083333333" y2="5" style="visibility: inherit;" fill="rgb(0, 0, 0)" stroke="rgb(204, 204, 204)" stroke-width="1px"></line><line x1="147.27604166666666" y1="0" x2="147.27604166666666" y2="5" style="visibility: inherit;" fill="rgb(0, 0, 0)" stroke="rgb(204, 204, 204)" stroke-width="1px"></line><line x1="220.9140625" y1="0" x2="220.9140625" y2="5" style="visibility: inherit;" fill="rgb(0, 0, 0)" stroke="rgb(204, 204, 204)" stroke-width="1px"></line><line x1="294.5520833333333" y1="0" x2="294.5520833333333" y2="5" style="visibility: inherit;" fill="rgb(0, 0, 0)" stroke="rgb(204, 204, 204)" stroke-width="1px"></line><line x1="368.1901041666667" y1="0" x2="368.1901041666667" y2="5" style="visibility: inherit;" fill="rgb(0, 0, 0)" stroke="rgb(204, 204, 204)" stroke-width="1px"></line><line x1="441.828125" y1="0" x2="441.828125" y2="5" style="visibility: inherit;" fill="rgb(0, 0, 0)" stroke="rgb(204, 204, 204)" stroke-width="1px"></line><line x1="515.4661458333334" y1="0" x2="515.4661458333334" y2="5" style="visibility: inherit;" fill="rgb(0, 0, 0)" stroke="rgb(204, 204, 204)" stroke-width="1px"></line><line x1="589.1041666666666" y1="0" x2="589.1041666666666" y2="5" style="visibility: inherit;" fill="rgb(0, 0, 0)" stroke="rgb(204, 204, 204)" stroke-width="1px"></line><line x1="662.7421875" y1="0" x2="662.7421875" y2="5" style="visibility: inherit;" fill="rgb(0, 0, 0)" stroke="rgb(204, 204, 204)" stroke-width="1px"></line><line x1="736.3802083333334" y1="0" x2="736.3802083333334" y2="5" style="visibility: inherit;" fill="rgb(0, 0, 0)" stroke="rgb(204, 204, 204)" stroke-width="1px"></line><line x1="810.0182291666666" y1="0" x2="810.0182291666666" y2="5" style="visibility: inherit;" fill="rgb(0, 0, 0)" stroke="rgb(204, 204, 204)" stroke-width="1px"></line><line x1="883.65625" y1="0" x2="883.65625" y2="5" style="visibility: inherit;" fill="rgb(0, 0, 0)" stroke="rgb(204, 204, 204)" stroke-width="1px"></line></g><g transform="translate(0, 8)"><text x="0" y="0" dx="0em" dy="0.95em" style="text-anchor: middle; visibility: hidden; font-family: Roboto, sans-serif; font-size: 12px; font-weight: 200;" fill="rgb(33, 33, 33)" stroke="none" stroke-width="1px">-50k</text><text x="73.63802083333333" y="0" dx="0em" dy="0.95em" style="text-anchor: middle; visibility: inherit; font-family: Roboto, sans-serif; font-size: 12px; font-weight: 200;" fill="rgb(33, 33, 33)" stroke="none" stroke-width="1px">0</text><text x="147.27604166666666" y="0" dx="0em" dy="0.95em" style="text-anchor: middle; visibility: inherit; font-family: Roboto, sans-serif; font-size: 12px; font-weight: 200;" fill="rgb(33, 33, 33)" stroke="none" stroke-width="1px">50k</text><text x="220.9140625" y="0" dx="0em" dy="0.95em" style="text-anchor: middle; visibility: inherit; font-family: Roboto, sans-serif; font-size: 12px; font-weight: 200;" fill="rgb(33, 33, 33)" stroke="none" stroke-width="1px">100k</text><text x="294.5520833333333" y="0" dx="0em" dy="0.95em" style="text-anchor: middle; visibility: inherit; font-family: Roboto, sans-serif; font-size: 12px; font-weight: 200;" fill="rgb(33, 33, 33)" stroke="none" stroke-width="1px">150k</text><text x="368.1901041666667" y="0" dx="0em" dy="0.95em" style="text-anchor: middle; visibility: inherit; font-family: Roboto, sans-serif; font-size: 12px; font-weight: 200;" fill="rgb(33, 33, 33)" stroke="none" stroke-width="1px">200k</text><text x="441.828125" y="0" dx="0em" dy="0.95em" style="text-anchor: middle; visibility: inherit; font-family: Roboto, sans-serif; font-size: 12px; font-weight: 200;" fill="rgb(33, 33, 33)" stroke="none" stroke-width="1px">250k</text><text x="515.4661458333334" y="0" dx="0em" dy="0.95em" style="text-anchor: middle; visibility: inherit; font-family: Roboto, sans-serif; font-size: 12px; font-weight: 200;" fill="rgb(33, 33, 33)" stroke="none" stroke-width="1px">300k</text><text x="589.1041666666666" y="0" dx="0em" dy="0.95em" style="text-anchor: middle; visibility: inherit; font-family: Roboto, sans-serif; font-size: 12px; font-weight: 200;" fill="rgb(33, 33, 33)" stroke="none" stroke-width="1px">350k</text><text x="662.7421875" y="0" dx="0em" dy="0.95em" style="text-anchor: middle; visibility: inherit; font-family: Roboto, sans-serif; font-size: 12px; font-weight: 200;" fill="rgb(33, 33, 33)" stroke="none" stroke-width="1px">400k</text><text x="736.3802083333334" y="0" dx="0em" dy="0.95em" style="text-anchor: middle; visibility: inherit; font-family: Roboto, sans-serif; font-size: 12px; font-weight: 200;" fill="rgb(33, 33, 33)" stroke="none" stroke-width="1px">450k</text><text x="810.0182291666666" y="0" dx="0em" dy="0.95em" style="text-anchor: middle; visibility: inherit; font-family: Roboto, sans-serif; font-size: 12px; font-weight: 200;" fill="rgb(33, 33, 33)" stroke="none" stroke-width="1px">500k</text><text x="883.65625" y="0" dx="0em" dy="0.95em" style="text-anchor: middle; visibility: hidden; font-family: Roboto, sans-serif; font-size: 12px; font-weight: 200;" fill="rgb(33, 33, 33)" stroke="none" stroke-width="1px">550k</text></g><line x1="0" y1="0" x2="883.65625" y2="0" fill="rgb(0, 0, 0)" stroke="rgb(204, 204, 204)" stroke-width="1px"></line></g></g></g></g></svg>