<svg viewBox="0 0 915.25 400" xmlns="http://www.w3.org/2000/svg"><g><g><g><g><g><line x1="30.78125" y1="377" x2="25.78125" y2="377" style="visibility: inherit;" fill="rgb(0, 0, 0)" stroke="rgb(204, 204, 204)" stroke-width="1px"></line><line x1="30.78125" y1="351.8666666666667" x2="25.78125" y2="351.8666666666667" style="visibility: inherit;" fill="rgb(0, 0, 0)" stroke="rgb(204, 204, 204)" stroke-width="1px"></line><line x1="30.78125" y1="326.73333333333335" x2="25.78125" y2="326.73333333333335" style="visibility: inherit;" fill="rgb(0, 0, 0)" stroke="rgb(204, 204, 204)" stroke-width="1px"></line><line x1="30.78125" y1="301.6" x2="25.78125" y2="301.6" style="visibility: inherit;" fill="rgb(0, 0, 0)" stroke="rgb(204, 204, 204)" stroke-width="1px"></line><line x1="30.78125" y1="276.4666666666667" x2="25.78125" y2="276.4666666666667" style="visibility: inherit;" fill="rgb(0, 0, 0)" stroke="rgb(204, 204, 204)" stroke-width="1px"></line><line x1="30.78125" y1="251.33333333333337" x2="25.78125" y2="251.33333333333337" style="visibility: inherit;" fill="rgb(0, 0, 0)" stroke="rgb(204, 204, 204)" stroke-width="1px"></line><line x1="30.78125" y1="226.2" x2="25.78125" y2="226.2" style="visibility: inherit;" fill="rgb(0, 0, 0)" stroke="rgb(204, 204, 204)" stroke-width="1px"></line><line x1="30.78125" y1="201.06666666666666" x2="25.78125" y2="201.06666666666666" style="visibility: inherit;" fill="rgb(0, 0, 0)" stroke="rgb(204, 204, 204)" stroke-width="1px"></line><line x1="30.78125" y1="175.93333333333334" x2="25.78125" y2="175.93333333333334" style="visibility: inherit;" fill="rgb(0, 0, 0)" stroke="rgb(204, 204, 204)" stroke-width="1px"></line><line x1="30.78125" y1="150.8" x2="25.78125" y2="150.8" style="visibility: inherit;" fill="rgb(0, 0, 0)" stroke="rgb(204, 204, 204)" stroke-width="1px"></line><line x1="30.78125" y1="125.66666666666669" x2="25.78125" y2="125.66666666666669" style="visibility: inherit;" fill="rgb(0, 0, 0)" stroke="rgb(204, 204, 204)" stroke-width="1px"></line><line x1="30.78125" y1="100.53333333333336" x2="25.78125" y2="100.53333333333336" style="visibility: inherit;" fill="rgb(0, 0, 0)" stroke="rgb(204, 204, 204)" stroke-width="1px"></line><line x1="30.78125" y1="75.39999999999998" x2="25.78125" y2="75.39999999999998" style="visibility: inherit;" fill="rgb(0, 0, 0)" stroke="rgb(204, 204, 204)" stroke-width="1px"></line><line x1="30.78125" y1="50.26666666666666" x2="25.78125" y2="50.26666666666666" style="visibility: inherit;" fill="rgb(0, 0, 0)" stroke="rgb(204, 204, 204)" stroke-width="1px"></line><line x1="30.78125" y1="25.13333333333333" x2="25.78125" y2="25.13333333333333" style="visibility: inherit;" fill="rgb(0, 0, 0)" stroke="rgb(204, 204, 204)" stroke-width="1px"></line><line x1="30.78125" y1="0" x2="25.78125" y2="0" style="visibility: inherit;" fill="rgb(0, 0, 0)" stroke="rgb(204, 204, 204)" stroke-width="1px"></line></g><g transform="translate(20.78125, 0)"><text x="0" y="377" dx="0em" dy="0.3em" style="text-anchor: end; visibility: hidden; font-family: Roboto, sans-serif; font-size: 12px; font-weight: 200;" fill="rgb(33, 33, 33)" stroke="none" stroke-width="1px">48</text><text x="0" y="351.8666666666667" dx="0em" dy="0.3em" style="text-anchor: end; visibility: inherit; font-family: Roboto, sans-serif; font-size: 12px; font-weight: 200;" fill="rgb(33, 33, 33)" stroke="none" stroke-width="1px">50</text><text x="0" y="326.73333333333335" dx="0em" dy="0.3em" style="text-anchor: end; visibility: inherit; font-family: Roboto, sans-serif; font-size: 12px; font-weight: 200;" fill="rgb(33, 33, 33)" stroke="none" stroke-width="1px">52</text><text x="0" y="301.6" dx="0em" dy="0.3em" style="text-anchor: end; visibility: inherit; font-family: Roboto, sans-serif; font-size: 12px; font-weight: 200;" fill="rgb(33, 33, 33)" stroke="none" stroke-width="1px">54</text><text x="0" y="276.4666666666667" dx="0em" dy="0.3em" style="text-anchor: end; visibility: inherit; font-family: Roboto, sans-serif; font-size: 12px; font-weight: 200;" fill="rgb(33, 33, 33)" stroke="none" stroke-width="1px">56</text><text x="0" y="251.33333333333337" dx="0em" dy="0.3em" style="text-anchor: end; visibility: inherit; font-family: Roboto, sans-serif; font-size: 12px; font-weight: 200;" fill="rgb(33, 33, 33)" stroke="none" stroke-width="1px">58</text><text x="0" y="226.2" dx="0em" dy="0.3em" style="text-anchor: end; visibility: inherit; font-family: Roboto, sans-serif; font-size: 12px; font-weight: 200;" fill="rgb(33, 33, 33)" stroke="none" stroke-width="1px">60</text><text x="0" y="201.06666666666666" dx="0em" dy="0.3em" style="text-anchor: end; visibility: inherit; font-family: Roboto, sans-serif; font-size: 12px; font-weight: 200;" fill="rgb(33, 33, 33)" stroke="none" stroke-width="1px">62</text><text x="0" y="175.93333333333334" dx="0em" dy="0.3em" style="text-anchor: end; visibility: inherit; font-family: Roboto, sans-serif; font-size: 12px; font-weight: 200;" fill="rgb(33, 33, 33)" stroke="none" stroke-width="1px">64</text><text x="0" y="150.8" dx="0em" dy="0.3em" style="text-anchor: end; visibility: inherit; font-family: Roboto, sans-serif; font-size: 12px; font-weight: 200;" fill="rgb(33, 33, 33)" stroke="none" stroke-width="1px">66</text><text x="0" y="125.66666666666669" dx="0em" dy="0.3em" style="text-anchor: end; visibility: inherit; font-family: Roboto, sans-serif; font-size: 12px; font-weight: 200;" fill="rgb(33, 33, 33)" stroke="none" stroke-width="1px">68</text><text x="0" y="100.53333333333336" dx="0em" dy="0.3em" style="text-anchor: end; visibility: inherit; font-family: Roboto, sans-serif; font-size: 12px; font-weight: 200;" fill="rgb(33, 33, 33)" stroke="none" stroke-width="1px">70</text><text x="0" y="75.39999999999998" dx="0em" dy="0.3em" style="text-anchor: end; visibility: inherit; font-family: Roboto, sans-serif; font-size: 12px; font-weight: 200;" fill="rgb(33, 33, 33)" stroke="none" stroke-width="1px">72</text><text x="0" y="50.26666666666666" dx="0em" dy="0.3em" style="text-anchor: end; visibility: inherit; font-family: Roboto, sans-serif; font-size: 12px; font-weight: 200;" fill="rgb(33, 33, 33)" stroke="none" stroke-width="1px">74</text><text x="0" y="25.13333333333333" dx="0em" dy="0.3em" style="text-anchor: end; visibility: inherit; font-family: Roboto, sans-serif; font-size: 12px; font-weight: 200;" fill="rgb(33, 33, 33)" stroke="none" stroke-width="1px">76</text><text x="0" y="0" dx="0em" dy="0.3em" style="text-anchor: end; visibility: hidden; font-family: Roboto, sans-serif; font-size: 12px; font-weight: 200;" fill="rgb(33, 33, 33)" stroke="none" stroke-width="1px">78</text></g><line x1="30.78125" y1="0" x2="30.78125" y2="377" fill="rgb(0, 0, 0)" stroke="rgb(204, 204, 204)" stroke-width="1px"></line></g></g><g transform="translate(30, 0)" clip-path="url(#clip_0)"><clipPath id="clip_0"><rect width="884" height="377"></rect></clipPath><g><g><g><line x1="0" y1="0" x2="0" y2="377" fill="rgb(0, 0, 0)" stroke="rgb(66, 66, 66)" stroke-width="1px" opacity="0.25"></line><line x1="73.70572916666666" y1="0" x2="73.70572916666666" y2="377" fill="rgb(0, 0, 0)" stroke="rgb(66, 66, 66)" stroke-width="1px" opacity="0.25"></line><line x1="147.41145833333331" y1="0" x2="147.41145833333331" y2="377" fill="rgb(0, 0, 0)" stroke="rgb(66, 66, 66)" stroke-width="1px" opacity="0.25"></line><line x1="221.1171875" y1="0" x2="221.1171875" y2="377" fill="rgb(0, 0, 0)" stroke="rgb(66, 66, 66)" stroke-width="1px" opacity="0.25"></line><line x1="294.82291666666663" y1="0" x2="294.82291666666663" y2="377" fill="rgb(0, 0, 0)" stroke="rgb(66, 66, 66)" stroke-width="1px" opacity="0.25"></line><line x1="368.52864583333337" y1="0" x2="368.52864583333337" y2="377" fill="rgb(0, 0, 0)" stroke="rgb(66, 66, 66)" stroke-width="1px" opacity="0.25"></line><line x1="442.234375" y1="0" x2="442.234375" y2="377" fill="rgb(0, 0, 0)" stroke="rgb(66, 66, 66)" stroke-width="1px" opacity="0.25"></line><line x1="515.9401041666667" y1="0" x2="515.9401041666667" y2="377" fill="rgb(0, 0, 0)" stroke="rgb(66, 66, 66)" stroke-width="1px" opacity="0.25"></line><line x1="589.6458333333333" y1="0" x2="589.6458333333333" y2="377" fill="rgb(0, 0, 0)" stroke="rgb(66, 66, 66)" stroke-width="1px" opacity="0.25"></line><line x1="663.3515625" y1="0" x2="663.3515625" y2="377" fill="rgb(0, 0, 0)" stroke="rgb(66, 66, 66)" stroke-width="1px" opacity="0.25"></line><line x1="737.0572916666667" y1="0" x2="737.0572916666667" y2="377" fill="rgb(0, 0, 0)" stroke="rgb(66, 66, 66)" stroke-width="1px" opacity="0.25"></line><line x1="810.7630208333333" y1="0" x2="810.7630208333333" y2="377" fill="rgb(0, 0, 0)" stroke="rgb(66, 66, 66)" stroke-width="1px" opacity="0.25"></line><line x1="884.46875" y1="0" x2="884.46875" y2="377" fill="rgb(0, 0, 0)" stroke="rgb(66, 66, 66)" stroke-width="1px" opacity="0.25"></line></g><g><line x1="0" y1="377" x2="884.46875" y2="377" fill="rgb(0, 0, 0)" stroke="rgb(66, 66, 66)" stroke-width="1px" opacity="0.25"></line><line x1="0" y1="351.8666666666667" x2="884.46875" y2="351.8666666666667" fill="rgb(0, 0, 0)" stroke="rgb(66, 66, 66)" stroke-width="1px" opacity="0.25"></line><line x1="0" y1="326.73333333333335" x2="884.46875" y2="326.73333333333335" fill="rgb(0, 0, 0)" stroke="rgb(66, 66, 66)" stroke-width="1px" opacity="0.25"></line><line x1="0" y1="301.6" x2="884.46875" y2="301.6" fill="rgb(0, 0, 0)" stroke="rgb(66, 66, 66)" stroke-width="1px" opacity="0.25"></line><line x1="0" y1="276.4666666666667" x2="884.46875" y2="276.4666666666667" fill="rgb(0, 0, 0)" stroke="rgb(66, 66, 66)" stroke-width="1px" opacity="0.25"></line><line x1="0" y1="251.33333333333337" x2="884.46875" y2="251.33333333333337" fill="rgb(0, 0, 0)" stroke="rgb(66, 66, 66)" stroke-width="1px" opacity="0.25"></line><line x1="0" y1="226.2" x2="884.46875" y2="226.2" fill="rgb(0, 0, 0)" stroke="rgb(66, 66, 66)" stroke-width="1px" opacity="0.25"></line><line x1="0" y1="201.06666666666666" x2="884.46875" y2="201.06666666666666" fill="rgb(0, 0, 0)" stroke="rgb(66, 66, 66)" stroke-width="1px" opacity="0.25"></line><line x1="0" y1="175.93333333333334" x2="884.46875" y2="175.93333333333334" fill="rgb(0, 0, 0)" stroke="rgb(66, 66, 66)" stroke-width="1px" opacity="0.25"></line><line x1="0" y1="150.8" x2="884.46875" y2="150.8" fill="rgb(0, 0, 0)" stroke="rgb(66, 66, 66)" stroke-width="1px" opacity="0.25"></line><line x1="0" y1="125.66666666666669" x2="884.46875" y2="125.66666666666669" fill="rgb(0, 0, 0)" stroke="rgb(66, 66, 66)" stroke-width="1px" opacity="0.25"></line><line x1="0" y1="100.53333333333336" x2="884.46875" y2="100.53333333333336" fill="rgb(0, 0, 0)" stroke="rgb(66, 66, 66)" stroke-width="1px" opacity="0.25"></line><line x1="0" y1="75.39999999999998" x2="884.46875" y2="75.39999999999998" fill="rgb(0, 0, 0)" stroke="rgb(66, 66, 66)" stroke-width="1px" opacity="0.25"></line><line x1="0" y1="50.26666666666666" x2="884.46875" y2="50.26666666666666" fill="rgb(0, 0, 0)" stroke="rgb(66, 66, 66)" stroke-width="1px" opacity="0.25"></line><line x1="0" y1="25.13333333333333" x2="884.46875" y2="25.13333333333333" fill="rgb(0, 0, 0)" stroke="rgb(66, 66, 66)" stroke-width="1px" opacity="0.25"></line><line x1="0" y1="0" x2="884.46875" y2="0" fill="rgb(0, 0, 0)" stroke="rgb(66, 66, 66)" stroke-width="1px" opacity="0.25"></line></g></g></g><g><g><line x1="0" y1="980.2" x2="884.46875" y2="980.2" fill="rgb(0, 0, 0)" stroke="rgb(153, 153, 153)" stroke-width="1.5px"></line></g></g><g><g><line x1="73.70572916666666" y1="0" x2="73.70572916666666" y2="377" fill="rgb(0, 0, 0)" stroke="rgb(153, 153, 153)" stroke-width="1.5px"></line></g></g><g><g><g><g><g><path stroke="rgb(255, 112, 67)" stroke-width="2px" d="M85.42494010416667,433.66571633544675L86.08829166666666,336.7801729217086L87.26758333333333,405.227886072969L91.02657552083333,465.3637221685399L92.13216145833334,223.05561055776943L92.57439583333334,114.87889476338975L92.94292447916666,104.61643739426194L93.45886458333334,125.90506370228168L93.90109895833334,318.28229541789426L96.48079947916668,394.24813030275476L96.6282109375,348.492617065103L97.21785677083334,221.6620205559051L98.76567708333333,422.9858210710435L99.35532291666667,393.2814744013585L100.8294375,278.44416032142055L104.809546875,256.9432968086313L104.88325260416667,246.45557976207635L106.13624999999999,275.14854860680515L106.3573671875,292.0124633027014L106.578484375,342.2436104531104L107.6840703125,310.7050944609793L107.9051875,244.8831755248534L107.97889322916667,185.1325639417181L108.71595052083333,113.9950139716515L110.116359375,254.4339335921173L111.6641796875,189.85770107236604L112.91717708333334,366.45435296787963L113.28570572916666,357.6032861132196L115.27576041666666,196.66705056026552L116.01281770833332,223.4094364768599L116.45505208333333,379.49779485216965L117.04469791666666,501.0525356496207L119.47698697916667,322.3969972565295L119.6243984375,209.17165121290682L120.50886718750002,144.00112559456755L121.02480729166666,70.06400868971534L121.09851302083332,33.74439754363895L121.24592447916667,22.759971859497394L121.46704166666667,57.036102642915374L121.61445312500001,118.31779261809578L122.49892187500001,196.35573533447732L123.23597916666667,120.87971093536981L126.40532552083333,123.85008862583814L126.70014843749999,155.74205701054774L126.99497135416668,158.84217827778053L127.58461718749999,117.8750295618819L128.24796874999998,115.41208133576197L129.20614322916668,143.8932411313729L129.50096614583333,147.05808721625854L130.16431770833333,87.53112206445543L130.459140625,88.15772149713672L130.60655208333333,88.58395856153075L130.75396354166668,92.60970080016726L131.26990364583332,80.34728868078386L131.63843229166667,162.8163693734278L131.78584375,230.09222239106526L132.15437239583335,203.50251656045293L132.30178385416667,169.0003191403731L132.59660677083335,150.96312788559115L132.8914296875,176.28253956297905L133.3336640625,197.2548609061631L133.40736979166667,179.37664680899732L135.10260156249998,71.03186088813278L135.39742447916666,21.657925736981124L137.82971354166665,3.745707183725084L138.34565364583335,80.56290018100334L138.78788802083335,269.5110734419353L139.81976822916667,317.83491763490395L140.11459114583334,315.46281571359214L140.63053125,218.18102276148863L140.77794270833334,154.0312726534753L141.36758854166666,215.62235515499202L142.39946875,176.42301616102907L142.47317447916666,142.04579435644817L143.21023177083333,94.82842835540536L143.43134895833333,92.43558881255966L144.09470052083333,139.50722609027017L144.68434635416668,86.82088279364775L145.34769791666668,-7.4734626537268065L145.86363802083332,-21.761613445803828L145.93734375,33.892080190981304L146.30587239583332,98.90205348364803L147.6325755208333,228.28750182488932L147.8536927083333,266.71077466467636L148.51704427083334,183.75233760154018L150.72821614583333,111.55834663237593L151.686390625,161.637408746434L152.128625,169.06484601486898L152.3497421875,98.32236046943567L152.49715364583332,49.84488448234502L152.7919765625,44.78585942068952L153.2342109375,89.3529838530974L153.60273958333332,150.0735167421157L154.339796875,129.80506178680585L154.78203125,59.48541866388045L155.15055989583334,13.573910194910184L155.88761718749998,16.136727708742946L158.9832578125,191.94896152148604L159.27808072916667,229.42550794519963L159.35178645833332,224.76744730455468L159.4254921875,197.74407912085127L160.7521953125,198.77150723610123L161.71036979166666,144.84861926679102L162.66854427083334,181.51103669272428L164.58489322916665,85.08023275375314L165.46936197916665,108.65373505020105L166.280125,144.1611697614033L166.5012421875,191.1519003228251L166.722359375,209.59461222942087L168.19647395833334,135.30744167440383L168.63870833333334,134.5676788107947L169.15464843750001,183.334873186135L169.5968828125,226.31798751031386L170.77617447916666,190.98360938037456L170.99729166666665,213.31389589352426L171.8080546875,261.34579806671354L172.029171875,279.3073401376356L172.2502890625,216.84575275608398L172.32399479166668,141.46772905843548L175.86186979166666,121.07262209489201L176.08298697916666,71.78904912770346L176.30410416666666,17.186088473204226L176.37780989583334,-31.30914078000963L177.9993359375,29.671579130626995L178.8838046875,-0.9967751168387256L179.62086197916668,-4.066477342238607L179.91568489583332,8.71931973072448L181.758328125,98.72758416835015L181.83203385416667,151.37535970511172L182.642796875,164.817755292468L183.23244270833334,157.14970143394436L183.52726562499998,151.74462239438347L183.67467708333334,149.3560990998787L186.03326041666668,112.08286559599495L186.32808333333332,61.469045020845606L188.1707265625,94.03464081865967L189.35001822916666,196.31292702863078L189.42372395833334,276.2785500811108L190.52930989583334,140.53328025618598L190.8241328125,21.5369122251634L192.00342447916665,64.4957580732166L192.07713020833333,99.01745484392997L193.69865625,149.33753650499077L194.06718489583335,166.81212497102828L194.43571354166667,107.82834625133452L194.65683072916667,70.27661081883464L195.025359375,64.08223622600131L195.2464765625,38.34882527645367L196.1309453125,15.971954162454235L196.72059114583334,175.66424376618994L197.23653125,207.8922765250134L197.75247135416666,159.92203258167476L198.41582291666666,81.77802108302171L198.71064583333333,69.07296285733258L198.85805729166665,60.04242904089703L199.00546875,58.29359229188849L199.2265859375,68.95643277991827L199.74252604166665,144.6718558329086L200.40587760416668,242.83085143512935L201.14293489583332,180.13116985765964L201.4377578125,148.8449716492963L201.58516927083332,123.73964198615973L201.80628645833332,60.72203958622702L202.17481510416667,-9.460229108778051L202.46963802083332,-51.67174563020165L203.94375260416666,35.44949209128011L204.60710416666666,100.94235425135025L205.04933854166666,106.05676122431277L205.56527864583333,78.46270806108514L205.638984375,61.453894571351526L206.3023359375,57.63245626999195L206.81827604166668,148.93614042866193L208.36609635416667,145.76089039326493L208.66091927083332,178.59000627168484L209.3979765625,123.03828883788076L209.69279947916667,69.90217943879622L210.35615104166666,88.58876819387676L211.31432552083334,119.45500652179476L211.53544270833333,122.74395565461325L211.97767708333333,82.34252360028736L212.12508854166668,45.48472029624007L214.63108333333332,53.731109582529115L215.07331770833335,101.95854622233648L216.32631510416667,124.51112006331724L217.06337239583334,89.93746590192255L217.28448958333334,109.10501901055451L217.43190104166666,146.69394397265762L218.75860416666666,148.08501771009196L219.790484375,76.9880742246879L219.93789583333333,62.98189279327635L221.26459895833332,50.75794488006752L221.559421875,52.3207592579559L222.14906770833332,39.736740629643236L223.40206510416667,237.12351257846947L223.84429947916666,310.8685121491325L225.61323697916666,223.26602835067743L226.57141145833333,215.84402161245723L226.79252864583336,181.48212789260447L226.866234375,156.84368133761345L227.01364583333333,126.4779544080368L227.16105729166668,79.15411364824011L227.45588020833333,44.37592104945837L227.750703125,39.09170283719449L228.26664322916668,66.88541863428287L229.3722291666667,110.85644964655289L231.87822395833334,126.78359238314664L232.173046875,163.73521519347855L232.68898697916666,184.95112911608706L233.35233854166665,155.20535947648824L234.23680729166665,143.138533679057L234.97386458333332,148.06300068025308L235.12127604166665,147.80061728233792L235.2686875,138.79624317213717L235.63721614583335,110.87413516516366L235.85833333333332,87.48567189499667L236.44797916666664,122.66366520161394L236.74280208333334,139.1459370563525L238.21691666666666,107.16315763176064L238.58544531249998,81.08694283752L238.65915104166666,75.29351437601458L238.8065625,79.45797375825848L239.02767968749998,110.10597505085359L239.3225026041667,130.7567988366645L239.39620833333333,141.58900036319662L239.91214843749998,138.8392730206523L240.133265625,187.55663891615117L240.5017942708333,311.0370584534505L241.90220312500003,352.9546358390788L242.63926041666664,306.123317137806L243.08149479166664,242.28494202422002L243.52372916666664,201.3680288131648L243.81855208333334,180.68843569610198L244.70302083333334,200.9037357544125L244.7767265625,213.78690428427186L246.61936979166666,183.46495944474935L247.28272135416668,161.04937259881564L249.86242187499997,186.8080166562132L249.93612760416667,196.3820122947533L250.0835390625,186.94587404351861L253.32659114583333,192.59419109277778L253.91623697916668,179.39516598216403L254.43217708333336,209.7287064923746L254.57958854166665,220.53962466243328L254.72699999999998,211.29270352874252L255.09552864583333,189.81002671929625L256.93817187499997,184.66149190234592L257.01187760416667,188.55943461080864L257.7489348958333,152.24312129708412L257.89634635416667,129.90039690748233L258.26487499999996,140.67305501867563L259.29675520833337,126.3764920077874L259.73898958333336,132.1748239359551L260.4023411458333,177.52596563029047L261.50792708333336,220.92250427441454L261.80275,223.98856232823917L261.95016145833335,234.1222048306186L263.7928046875,249.501715995295L264.6772734375,163.9265054679453L265.41433072916664,216.08042740999895L265.85656510416663,221.28438747830734L267.1095625,264.7206324869844L267.551796875,323.204383327233L267.6255026041666,350.00062616129753L268.65738281250003,235.48557416276157L269.09961718750003,193.4178916371427L269.4681458333333,246.14087368467824L271.16337760416667,226.60319471251597L271.6793177083333,169.8919168275096L272.04784635416667,125.10808649787293L273.0060208333333,135.83723349052067L273.5219609375,192.08900676097906L274.627546875,139.68300712462127L275.512015625,213.34700657579816L275.7331328125,292.8326085475297L276.76501302083335,268.8436923257835L276.9861302083333,220.21875486487107L279.3447135416667,172.24406979310893L279.41841927083334,132.40056907313098L279.492125,102.56300044046067L280.818828125,97.3276807370954L281.9244140625,159.08073563952286L285.46228906249996,145.86590191431267L286.125640625,85.81049289012414L286.78899218749996,137.59310110313373L287.2312265625,203.74879706324748L288.779046875,160.0497946970956L288.9264583333333,123.47547221620665L289.0001640625,90.72353772425528L292.46433333333334,127.97426133694582L293.05397916666664,162.69029090250936L294.7492109375,204.83298374560718L295.41256250000004,189.50312358069758L295.7073854166666,166.3813576892713L296.00220833333333,113.25000540946117L296.8866770833333,45.681868378326364L297.1077942708333,-4.208616908388439L297.6974401041667,47.59070265770133L297.9185572916667,110.48908442624518L299.68749479166667,173.0095816880552L299.9823177083333,218.86614594479923L300.12972916666666,240.04649293593877L302.19348958333336,335.09148732447017L303.8887213541667,197.13409853074987L304.99430729166664,152.10994265930282L305.583953125,205.11997326566635L305.95248177083334,202.84517859034057L306.32101041666664,162.72472556240743L306.76324479166664,144.7347158102635L307.94253645833334,164.25150382290934L309.26923958333333,205.8702279569944L309.3429453125,234.61146243744534L309.8588854166667,258.1898138638344L310.0800026041667,258.7145626550519L311.8489401041667,330.5588762954238L312.07005729166667,370.6494529745199L312.5859973958333,345.4424694836866L312.8071145833334,286.73708859328815L312.8808203125,255.68598342127234L313.0282317708333,187.34159005276342L313.10193749999996,136.33189810310998L314.94458072916666,90.4952890693855L315.60793229166666,114.96903857428113L317.37686979166665,118.54435954593588L317.966515625,151.95542493166306L318.99839583333335,198.14071548959683L319.0721015625,224.29363542982577L320.32509895833334,193.3881659177261L322.46256510416663,113.31849494858488L322.60997656250004,84.72990617325245L323.3470338541666,101.00409391147103L324.60003125,116.19737740808056L324.9685598958333,138.88537051630033L326.5900859375,149.2811027825992L326.811203125,195.17891989913304L327.1797317708333,295.3529473374291L327.99049479166666,293.2775025027993L328.13790625,297.4107674013378L328.65384635416666,301.5495355445625L329.09608072916666,279.0502569610962L329.6120208333333,193.8201541766577L330.0542552083333,118.80542583932808L330.27537239583336,66.96031910222975L331.5283697916667,89.38726273005526L332.4128385416667,73.99037297820234L332.63395572916664,91.39354945017011L333.14989583333335,145.11505840138466L334.3291875,166.79197144219805L334.47659895833334,200.70905183301096L334.91883333333334,179.43848702835479L335.21365625,169.54134661154413L336.3929479166667,194.36627616761012L337.6459453125,161.70897183663382L339.1200598958333,163.77951029924594L340.4467630208334,224.03490848057297L340.59417447916667,264.71213588424223L340.74158593749996,287.3088884336216L340.962703125,311.5737261570968L341.18382031249996,307.3831644255406L342.4368177083333,231.83136685600792L343.24758072916666,171.97322471565556L344.2794609375,281.4798076321278L346.4906328125,308.98107921021744L346.63804427083335,344.43237779143L348.40698177083334,249.58716461024204L348.7018046875,210.77602903144464L348.84921614583334,199.05067718245735L349.29145052083334,204.33080324144055L349.51256770833334,220.36715244657339L349.65997916666663,227.82749376896936L350.3233307291667,217.07290469847467L350.83927083333333,195.89199721361607L351.7974453125,163.42865118868403L352.3870911458333,132.43957230500732L353.345265625,203.27054875206363L353.4926770833333,269.2436587495292L353.7137942708333,341.14899294869224L354.8930859375,290.6956655039159L355.2616145833333,206.2864475608131L355.40902604166666,140.41012293101917L356.14608333333337,127.72674809536278L356.44090625,150.22644578918383L358.5783723958333,190.4681295381261L358.94690104166665,174.75167158680796L359.4628411458333,143.75739221396628L362.7058932291667,238.31110199504647L363.2955390625,244.82691942660145L363.8114791666667,216.86734245185926L364.10630208333333,177.06945372957907L364.9170651041667,180.686612474157L365.3592994791667,192.8599636494519L365.8015338541667,198.90730768796212L367.4230598958333,160.3117256161952L368.23382291666667,239.34649973535838L368.6023515625,291.6432370095906L369.26570312499996,185.74300580438725L369.33940885416666,116.02008855750208L370.22387760416666,76.29752900526957L371.034640625,46.381731209314005L371.2557578125,27.52745099772395L371.99281510416665,72.71460546598462L375.456984375,90.77888280677169L375.82551302083334,111.51998868064507L375.89921875,147.79106064206223L376.6362760416667,245.60717585463837L382.0167942708333,190.1914886385968L382.82755729166666,159.45540964230523L382.9012630208333,147.49816684658109L383.04867447916666,157.36421810111264L383.1960859375,193.795733161693L383.417203125,244.75904680009197L383.49090885416666,285.89302731304673L385.3335520833333,294.6891497211613L385.70208072916665,272.370414728937L385.9231979166667,227.61276529650928L386.51284375,215.88845304183792L387.32360677083335,213.88053235570172L387.9869583333333,226.95151404436177L388.20807552083335,227.45517432627526L388.28178125,227.65683486106465L389.3873671875,127.69691779082511L390.5666588541667,218.26961887517876L391.0088932291667,233.20417209211564L391.30371614583333,197.3773047892863L391.96706770833333,173.11650240075272L392.1144791666667,170.42295736899987L392.7778307291667,251.89764338909202L393.0726536458333,311.036859603198L393.8834166666667,313.7967785935432L395.799765625,250.40767022415974L396.46311718749996,299.6371416038969L397.568703125,259.4549439589202L398.08464322916666,174.7240376440696L398.52687760416666,91.81537432797818L398.82170052083336,49.25827285525047L398.89540625,29.45444725400324L400.29581510416665,58.338383277532124L400.51693229166665,41.035014626349934L403.17033854166664,120.47954057512634L403.61257291666664,125.46986688251076L404.7181588541667,86.34057145600377L404.8655703125,68.14100954026885L406.11856770833333,34.902860118692544L406.1922734375,14.256240200447246L407.5926822916667,130.7017402852261L407.6663880208333,186.7457070027601L407.8875052083333,207.80542036661376L408.5508567708333,202.44579168936926L409.36161979166667,203.3518796156723L411.2042630208333,147.04394464358967L411.42538020833337,144.02235911606923L412.23614322916666,181.26661010058234L412.45726041666666,211.40449018958117L412.604671875,221.29376538246618L412.75208333333336,214.208263064522L413.63655208333336,246.4505532366624L414.8895494791667,336.16926067328006L416.43736979166664,268.45568360123366L416.95330989583334,183.9949978886048L417.5429557291667,135.88219719914585L417.83777864583334,121.34050911538601L418.35371875,131.9179162073501L418.4274244791667,135.9520983979127L418.50113020833334,130.07860004216562L419.2381875,144.24835082119776L421.1545364583333,170.44407025630926L421.5230651041667,199.28110498540994L422.7023567708333,136.91064765107672L423.51311979166667,53.59492038996247L423.80794270833337,0.7402855673106673L423.8816484375,-25.242098394314297L424.4712942708333,31.15033636136068L424.9135286458333,123.4459359171582L425.13464583333337,166.96035924926946L425.7979973958333,167.13141401554478L426.0928203125,185.53111047394273L426.60876041666666,225.97693985410845L426.6824661458333,251.14923901622484L427.1247005208333,250.66994034170102L427.56693489583336,224.14315500091908L427.71434635416665,208.98109146653448L427.93546354166665,177.41464720983603L430.5151640625,178.53118909291007L431.3996328125,126.97403144891008L432.8000416666667,180.2364227043884L432.947453125,204.45278618895787L434.49527343750003,210.78913224397374L435.9693880208333,134.66693220689857L437.7383255208333,161.93055625610526L437.9594427083333,179.5956747570811L438.9176171875,120.42458798006248L439.50726302083336,120.76209379145547L440.1706145833333,210.18793061162452L440.39173177083336,284.90515913398326L440.53914322916665,335.3653575450059L440.6128489583333,373.2820122259781L443.8559010416667,345.26267937131274L444.29813541666664,310.6566750564628L444.5192526041667,250.9866640304597L445.03519270833334,175.12211794545686L445.9933671875,122.61632669582238L446.1407786458333,92.77166115014302L446.2144843749999,81.14819515606888L446.7304244791667,126.6525086565483L448.05712760416674,181.09910442692052L449.75235937499997,174.05640672760413L450.1208880208334,158.4202332984441L451.5950026041666,106.7140051117162L451.7424140625,74.03145899557789L452.18464843749996,61.50954973409804L454.1009973958333,113.16025396969053L454.4695260416667,155.8628190484811L455.42770052083335,151.97781095626965L455.7225234375,123.35736091051314L457.04922656250005,148.15774987964124L457.6388723958333,204.05558249410961L459.33410416666663,158.77616637065194L459.6289270833334,112.30609675435733L459.92375000000004,92.11484884851286L459.9974557291667,79.74878978192685L461.9138046875,112.94459186232021L463.6090364583333,113.71048538269166L465.7465026041666,167.1008153588467L466.55726562499996,119.00997275616082L467.7365572916667,186.11451545301293L468.7684375,217.37950313574007L468.8421432291667,232.31823751580276L470.31625781249994,162.71467277478118L472.08519531249993,264.16227570059453L472.23260677083334,320.60736542035676L473.2644869791667,234.43763305836637L474.6648958333333,143.62829476015003L474.8860130208334,97.43669945130496L475.2545416666667,81.6349560721502L477.9816536458333,113.77470390858961L478.49759375,99.68148901182043L478.79241666666667,83.08234626760664L479.2346510416666,74.07793955988032L479.67688541666666,37.359145327725024L480.04541406249996,5.274535455098581L480.26653125,-3.520754597709091L480.41394270833337,5.879928833171348L482.18288020833336,32.63236190195362L482.7725260416666,29.88409914800816L484.0255234375,23.308991288121323L484.3940520833333,3.0272599055224836L484.54146354166664,1.7660785385284123L485.42593229166664,126.22365479320173L485.57334375000005,209.8959193061782L486.015578125,252.9111431466138L486.900046875,201.05827361583292L487.2685755208334,183.97095649941502L488.0056328125,184.0735064659739L488.7426901041666,171.51811154966896L490.80645052083327,184.44340639920242L490.9538619791667,201.64870283610355L491.2486848958333,237.7084278377298L492.3542708333333,185.4522398284517L495.3762057291667,183.0018795314297L495.59732291666666,212.2445997545837L496.92402604166665,207.22049011804972L498.2507291666667,131.87229407082992L499.5037265625,138.03591591189908L499.72484374999993,132.7363510811563L500.09337239583334,137.69982598886307L500.46190104166664,148.92164119878652L501.7886041666667,229.3959211206391L501.86230989583333,270.09021166896554L503.1153072916666,165.37174540958242L503.33642447916674,99.2230472457493L503.8523645833333,78.78597088488442L505.8424192708333,74.56638406494756L505.9898307291667,76.25701356478238L506.5057708333333,74.90889014570527L507.83247395833337,120.04372718434695L507.9798854166667,127.67143477659125L508.4958255208333,81.27766239997167L509.1591770833333,111.59993077331633L509.896234375,224.1940856612555L510.70699739583335,216.9035149953861L511.0018203125,203.93357719791516L511.07552604166665,194.89494785276605L512.4759348958333,127.29188977285756L512.8444635416666,139.66084878884473L512.9918749999999,168.09371157433222L513.2866979166668,199.02702080853172L513.9500494791666,113.283673015718L515.2767526041666,101.59861608156613L516.7508671875,98.80996351287199L517.1193958333333,89.79784324037293L517.7827473958333,153.30616647482267L518.2249817708333,187.28929528284286L518.2986874999999,217.73250590098823L518.5935104166667,250.67630890965216L518.8146276041667,296.38018994784215L520.4361536458333,201.8052970945191L521.7628567708333,214.4786541274797L522.0576796875,204.94171660571968L522.4262083333333,216.61183533249113L523.6055,188.52777553624603L523.7529114583333,146.04134732858356L524.48996875,94.81294326450036L524.932203125,50.35308395186436L525.0796145833333,26.291056507186408L525.5218489583333,23.968086764826076L525.6692604166667,31.72283671872642L525.816671875,55.275964095851705L526.701140625,98.51224512417764L526.8485520833333,116.21028347587378L526.9959635416667,120.04311415697602L528.6911953125,177.68640412854432L529.354546875,157.02930300772553L529.5756640625,125.03103466514969L530.7549557291667,52.147272125587165L531.4920130208333,33.650902744753324L531.56571875,33.913358521038205L531.7131302083333,45.179760718091664L532.1553645833334,88.68452309752165L533.1135390625,127.1027176935554L533.4820677083333,128.58924902433623L533.9980078125,67.35156475477096L534.4402421875,25.63252658072706L535.3984166666667,33.7268569518542L537.3147656250001,56.98103523231049L539.0099973958334,29.966239547589318L539.3048203125,16.471728388384307L539.3785260416666,13.35144930516594L539.8944661458333,2.5820603789979444L541.1474635416666,22.560704428082357L541.9582265625,52.49308932351606L542.7689895833333,34.159980791375126L543.2849296874999,41.95983826730554L543.7271640625,28.594037827733537L545.4961015625,77.1245575639904L549.5499166666666,135.54832610130111L549.8447395833333,155.1204638614642L550.8029140625,165.6070798508955L551.6136770833334,162.2980977030178L551.9085,146.38885862181058L552.4981458333334,134.732124377188L552.5718515625,126.38086235417744L552.8666744791667,152.98784307575514L553.6037317708333,238.5210989423769L554.3407890625,233.24079423277644L554.4144947916667,233.9431470413749L554.4882005208333,233.20842769422592L555.0778463541667,195.721048946451L556.5519609375,185.44342323180294L558.3208984375,169.42458573839818L558.7631328125,136.03713303483573L558.8368385416667,101.87974035150037L559.0579557291667,64.89784421090022L559.7950130208334,33.710968591155996L560.4583645833334,47.068962746490485L560.6794817708334,51.36403664447635L561.4165390625001,60.57627944925082L561.7850677083334,79.12271174100236L564.4384739583334,128.60402397656765L565.1018255208334,142.15721591995757L565.2492369791667,148.78111574582215L565.5440598958334,168.74027635056945L565.9862942708334,182.1734914735904L566.2074114583334,165.80381747936903L566.7233515625,166.0856238209547L567.3129973958333,121.2660562994087L567.5341145833333,72.80991118443046L568.1237604166666,69.12086777185628L568.4185833333333,94.65466320054868L568.71340625,133.2483933182784L570.4086380208333,175.15409575455755L570.7034609375,229.25112795444352L571.2194010416667,230.89587523864924L571.5142239583333,166.8879220751557L572.3249869791666,124.41156244919502L573.2094557291666,163.31733440148318L574.3887473958333,132.6241309061895L576.231390625,144.92114521038033L577.3369765625,128.87506871802515L578.3688567708334,121.00678683628387L578.9585026041666,135.0352628976688L579.5481484375,190.3511577386013L579.9903828125,196.99990077922854L580.0640885416667,199.12926613078582L581.9804375,188.34287767163556L583.0123177083334,134.46957639546181L583.2334348958333,100.73813509915855L584.8549609375,59.43756306633118L586.1079583333333,129.46013707279033L586.9924270833333,137.74473357017166L587.2135442708334,155.38271294483732L587.6557786458334,155.00736570228642L588.9824817708334,214.14707841795388L589.1298932291667,244.85558805419038L590.4565963541667,214.1701390263619L590.7514192708334,172.284345480433L592.2992395833332,122.87406014877409L592.5940625000001,95.640705823965L593.1100026041667,77.54136756583088L594.0681770833334,87.99482053949853L594.5104114583334,84.7664953917329L595.5422916666666,121.63537310580794L596.4267604166666,159.54042999955257L597.5323463541666,89.18957599289564L598.1219921875,50.19612718753424L598.1956979166666,35.19462038397227L599.8172239583333,75.30423276098246L600.112046875,78.71039711915466L601.1439270833333,51.29782599935737L602.0283958333333,83.96083813704924L602.1021015625,101.14582854547821L602.6180416666667,105.27404426677265L603.649921875,77.84228402262866L604.09215625,84.30485395443014L604.6080963541666,99.03997597129093L604.7555078125,121.15144611337355L605.418859375,85.9109871952052L605.5662708333333,56.47274252464253L605.6399765625,39.86539112025427L607.0403854166667,97.15776647146895L607.2615026041667,129.9749181124549L607.9248541666667,135.1381646736253L608.8830286458333,110.68996240280806L609.9149088541667,159.00516823758326L610.6519661458334,130.64004501400174L611.8312578125,169.6682929080593L612.6420208333333,170.0128408774853L613.9687239583334,116.83635585298852L614.70578125,136.35328171247664L614.7794869791667,149.0687552213337L615.2217213541667,133.32407000698635L615.7376614583334,131.46749793273992L616.032484375,144.62930796374553L616.1061901041667,154.58730737346224L616.1798958333334,161.26583728459158L617.801421875,133.60497824152327L617.8751276041667,120.57739154696469L618.1699505208333,114.21857746561366L618.3173619791667,134.1291618195375L618.9807135416667,163.06563195907276L619.2755364583334,157.25457764142664L621.4130026041666,122.85393738075449L621.4867083333334,111.36208502366746L622.1500598958334,119.79832228291798L622.3711770833334,103.54700870992001L622.8871171875,84.8487216850991L623.6241744791666,95.79736787840967L623.6978802083333,110.20814332226071L623.8452916666668,128.00314038788767L624.2138203124999,148.78374936538225L624.6560546875,130.1873132178621L624.9508776041666,115.41024539328228L625.0982890625,106.19213956588469L626.2775807291666,100.61099866466091L626.7198151041666,124.50687660358173L626.7935208333333,133.01345162539758L627.3831666666667,158.52567020822997L628.7835755208333,175.9944695586131L630.0365729166667,121.73227713311702L631.952921875,150.45004061662144L633.6481536458334,142.8992305060406L634.606328125,77.24445936482228L634.8274453125,26.642151489661646L637.1123229166667,82.58862422713034L637.1860286458334,115.55329406345912L638.3653203125,140.40904003670835L638.4390260416667,156.8304837856155L639.1760833333334,82.78829027136935L639.3972005208333,48.516823955302065L639.5446119791667,36.54957791403413L640.355375,52.74319960893496L640.797609375,80.60564236057586L641.0187265625,99.68564748096126L641.3135494791667,103.19150801575785L642.6402526041667,149.42917070911284L642.7139583333334,176.11617292717668L643.00878125,192.5304976202383L643.2298984375,191.11936984086043L643.3773098958334,193.89188013408986L644.4091901041667,111.25818400900202L644.7040130208334,40.5659816741186L645.5147760416667,59.27490699763507L645.7358932291667,100.30839705909534L647.2100078125001,118.7457125722085L647.7996536458334,105.5292926759749L648.5367109375,128.61396486746642L648.6104166666667,159.2538547912482L649.4211796875,238.0080469750907L651.1164114583333,183.16895538232004L651.4849401041668,136.34165063417714L652.7379375,177.51272831589043L655.9809895833333,185.37603008645806L656.0546953125,199.99655061819962L656.3495182291666,224.703406241688L656.6443411458333,243.69964297800433L657.9710442708333,222.72565858953698L658.4132786458333,163.44353002107255L658.486984375,124.40584060785832L661.582625,120.63751203479954L662.1722708333334,61.07250722087978L662.7619166666666,74.39378173731318L662.8356223958333,92.69119010358585L664.0886197916667,137.49911866420223L665.0467942708333,224.90494706928956L665.3416171875,192.8501513673874L666.1523802083333,174.823701558551L667.0368489583333,232.37049066983118L667.2579661458333,255.18642159916433L667.4053776041667,274.80744835744787L667.7002005208334,274.2144690144687L668.2898463541667,213.0862998168844L672.7121901041667,178.42003428466182L673.1544244791667,196.57696080720655L673.2281302083334,216.77044238398213L674.4811276041667,107.09040029773946L674.9970677083334,175.19277197796006L676.6922994791666,231.6368539826745L676.9871223958334,259.6221123896047L677.7978854166666,192.66898235889298L678.0190026041666,119.67297714320033L679.272,96.78632575532124L679.7142343749999,87.27671651439076L680.6724088541666,120.17575250384928L682.1465234375,109.60438023359218L682.809875,182.8336994088728L683.9891666666666,251.45222348036597L684.1365781249999,348.57014329232106L684.7999296875,322.84528060633346L685.46328125,273.22903349644974L686.0529270833333,310.8668844635111L687.5270416666666,382.6103889076802L688.0429817708333,437.4722187436422L688.4852161458333,374.1758707155863L689.3696848958333,255.06766496678674L689.443390625,201.84952771135454L689.9593307291667,305.83971662681273L690.1804479166667,351.39450431283893L690.5489765625,372.79590872377105L691.0649166666667,234.1832601593928L691.212328125,137.8458288983701L694.9713203125,228.6316245362877L695.7820833333333,247.86617702279804L696.0032005208334,224.06944798410527L696.3717291666667,194.8119461952483L697.5510208333333,211.5895684841574L697.8458437500001,192.9036215633134L697.9195494791667,184.0545545297849L698.0669609375,171.40618557838528L698.8040182291667,163.36478261574868L699.0988411458334,178.59633010004816L699.3936640625,200.95539729302047L700.057015625,210.04790120743667L700.1307213541667,212.38687559181233L700.4992500000001,207.95932765611278L700.7940729166667,234.96012072289943L700.8677786458334,261.46527856980737L701.9733645833333,303.5573020092347L704.2582421875001,295.6365237429757L705.1427109375,281.0317755433929L705.6586510416666,275.0335894552674L706.0271796875,161.14963721401344L707.0590598958333,255.5827187297753L707.7224114583333,230.9110994385488L708.8279973958333,121.25491405766044L709.6387604166666,82.80628176792955L710.1547005208333,45.36083265939061L710.22840625,23.798364728284113L710.8917578124999,35.441280901586246L713.6925755208333,208.45784364471146L713.9136927083333,291.20603568511785L714.0611041666667,316.5258834756867L714.2822213541666,274.1624549816523L714.3559270833333,245.47707605702516L714.65075,192.7273169029326L717.0093333333333,215.71732270808442L718.0412135416666,151.69852849220086L720.0312682291667,237.1443155613036L720.4735026041667,196.2729785986637L720.7683255208333,120.7797794891137L722.0950286458334,195.4201297580841L722.4635572916667,227.6376732527997L723.5691432291667,192.42887368638034L723.7902604166667,177.08426828328L724.0113776041667,148.37401383048228L725.5591979166667,213.93706729487147L726.3699609375001,289.3161093446149L727.3281354166667,236.27220507617005L727.4018411458334,211.43292611373587L728.1388984375001,298.52043000499276L728.360015625,359.9214641390633L728.6548385416667,360.11768001745486L729.9078359375001,339.3747352077385L730.0552473958334,307.1239085583182L730.2763645833334,237.7077979955053L731.8241848958334,200.1297577361053L731.9715963541666,170.24400484918266L732.340125,168.800013647628L733.1508880208333,169.79346104909118L733.7405338541666,137.51512488791823L734.0353567708333,203.29986879668323L735.2883541666667,176.82087301954638L735.7305885416666,150.4277222777109L736.4676458333333,177.31849849927636L736.6150572916666,165.60522629683146L737.0572916666667,154.65646911143216L737.4258203125,173.3713419974582L737.7943489583333,184.19814236685053L738.0154661458333,168.2250356276298L739.1210520833333,109.8824819071769L739.1947578125,74.12294200482049L741.1848125,61.46388473007334L741.7744583333333,93.42833083804402L742.511515625,144.7273954347926L743.3222786458333,140.16937366224275L744.8700989583333,169.3538862619617L745.3123333333333,173.3428673915358L746.1230963541667,79.37504609817024L746.1968020833333,21.033956390184688L748.5553854166667,140.04636616402618L748.6290911458334,174.55807792798927L749.0713255208333,90.91151342346019L752.9040234375,167.09397165270892L753.0514348958334,184.25197838957456L753.567375,201.13172266810344L753.7884921875,184.11558074034764L754.3044322916667,216.98440820779908L756.2944869791667,201.2174502937387L757.8423072916667,170.44420044154273L758.5793645833334,162.08386126834358L759.75865625,195.06924549228867L759.9060677083334,242.55742009810757L760.0534791666666,290.9056428547631L760.4220078125,334.8940600496091L762.7805911458333,358.42191190053364L763.1491197916666,386.41221457399536L763.9598828125,295.58546361174734L764.0335885416666,234.90659616021242L764.1072942708333,203.92808489339302L764.3284114583333,174.282326806804L765.507703125,204.19792788339885L767.4977578125,203.3475659341409L767.718875,215.90667442783482L769.1929895833333,185.33999698661617L769.6352239583333,220.23239128889352L769.7089296875,250.61796657265256L771.6252786458333,158.21236767145606L772.14121875,182.6930160008229L772.6571588541667,252.6244801022027L775.0894479166666,232.70508499328778L775.3105651041667,198.7366617340911L776.7109739583333,134.82465603703673L776.7846796875,105.17360282632362L777.44803125,145.8430904270767L777.9639713541667,174.46718375453716L778.1850885416667,205.9173738513551L778.7010286458333,198.79963044688077L778.9221458333334,213.63031390248722L780.3225546875,225.69552934491037L780.543671875,277.873051707288L781.3544348958333,301.1369061281326L782.1651979166667,303.73494137585413L782.9022552083334,353.7508261231198L783.0496666666667,385.46942440515454L783.3444895833334,414.95416734640247L785.1134270833334,293.15690500989234L785.4819557291667,227.0153338018338L785.5556614583334,188.48654128451832L785.850484375,199.55059527242L787.2508932291666,220.61555562943508L787.3245989583334,241.24693261065255L787.9879505208334,291.3760170289566L788.5775963541666,230.92322862557714L789.4620651041666,173.18766744064575L792.1891770833333,130.40311692353464L792.4102942708333,73.66758507925098L793.0736458333333,71.34455871763524L793.1473515625,80.65752909451352L793.5895859375,169.88904158593985L793.7369973958333,230.7166195825046L794.4003489583333,295.71437635155354L796.9800494791667,278.06249477862417L797.2748723958333,284.9641635338411" style="fill: none;" fill="none"></path></g></g></g></g><g opacity="0.2"><g><g><g><path stroke="rgb(255, 112, 67)" stroke-width="2px" d="M77.90695572916667,961.7269996404648L79.01254166666666,175.053670501709L79.23365885416666,219.91666666666663L80.7077734375,936.7193328539529L83.06635677083332,592.6439980824789L85.20382291666667,356.6420134226481L85.42494010416667,286.6456839243571L86.08829166666666,191.64166666666665L87.26758333333333,507.81899808247886L92.57439583333334,-47.376291147867846L92.94292447916666,89.22331415812175L93.45886458333334,157.83730265299477L93.90109895833334,606.8443448384603L96.48079947916668,508.1959827423095L96.6282109375,279.85967241923015L97.21785677083334,31.416666666666682L98.76567708333333,724.971006711324L99.35532291666667,348.725L100.8294375,106.18829498291018L104.809546875,224.69201342264807L104.88325260416667,230.72400767008463L106.13624999999999,318.18799616495767L106.3573671875,317.30833333333334L106.578484375,417.5903275807699L107.6840703125,263.3973218282064L107.9051875,146.1502988179525L107.97889322916667,95.50664749145506L108.71595052083333,7.28868967692057L110.116359375,465.09231224060056L111.6641796875,92.99335250854494L112.91717708333334,631.3493304570516L113.28570572916666,344.32668584187826L115.27576041666666,-44.7373026529948L116.01281770833332,263.5230153401693L116.45505208333333,613.6303323745727L117.04469791666666,562.735317993164L119.47698697916667,54.41368967692057L119.6243984375,39.33363215128582L120.50886718750002,46.24533716837566L121.02480729166666,-40.84166666666669L121.09851302083332,-20.73501917521161L121.24592447916667,6.283333333333353L121.46704166666667,108.4502988179525L121.61445312500001,210.24032758076987L122.49892187500001,313.4126494089762L123.23597916666667,7.665674336751296L126.40532552083333,128.30565516153973L126.70014843749999,203.5800095876058L126.99497135416668,163.49236017862955L127.58461718749999,56.424306488037125L128.24796874999998,111.71765899658203L129.20614322916668,186.6149808247884L129.50096614583333,151.80535634358722L130.16431770833333,-1.75932566324867L130.459140625,89.09762064615887L130.60655208333333,89.22331415812175L130.75396354166668,98.64831415812176L131.26990364583332,61.953670501708984L131.63843229166667,286.51999041239424L131.78584375,331.0060019175212L132.15437239583335,163.61795781453452L132.30178385416667,117.24702301025388L132.59660677083335,123.90734100341797L132.8914296875,214.2616570790609L133.3336640625,228.7133429209391L133.40736979166667,152.55932566324867L135.10260156249998,-91.48531799316403L137.82971354166665,-23.122620646158893L138.34565364583335,195.78868967692057L138.78788802083335,552.9333333333334L139.81976822916667,390.3206839243571L140.11459114583334,311.90466283162436L140.63053125,72.25833333333333L140.77794270833334,57.80664749145507L141.36758854166666,308.00897890726725L142.39946875,117.62400767008461L142.47317447916666,90.47996164957681L143.21023177083333,24.00237935384115L143.43134895833333,88.84632949829103L144.09470052083333,210.11468200683595L144.68434635416668,7.791367848714179L145.34769791666668,-148.91498082478836L145.42140364583332,-163.24097315470374L145.86363802083332,50.26666666666666L145.93734375,117.37262064615885L146.30587239583332,196.4170134226481L147.6325755208333,422.36567433675134L147.8536927083333,324.3456839243571L148.51704427083334,59.31468200683594L150.72821614583333,3.267360178629538L151.686390625,236.7560019175212L152.128625,180.20600191752118L152.3497421875,-7.791367848714221L152.49715364583332,-22.87132949829105L152.7919765625,37.197321828206384L153.2342109375,156.20367050170898L153.60273958333332,241.1543160756429L154.339796875,99.40237935384113L154.78203125,-45.99404602050778L155.15055989583334,-55.293352508544906L155.88761718749998,19.980953979492195L158.9832578125,455.6673122406006L159.27808072916667,285.64032758076985L159.35178645833332,217.78035634358724L159.4254921875,157.20902684529625L160.7521953125,200.3126494089762L161.71036979166666,63.96428731282554L162.66854427083334,236.5046628316244L164.58489322916665,-59.565973154703784L165.46936197916665,144.01398849487305L166.280125,197.42232182820635L166.5012421875,261.6379961649577L166.722359375,237.2586800893148L168.19647395833334,23.876685841878267L168.63870833333334,133.45803451538086L169.15464843750001,256.4856647491455L169.5968828125,290.792658996582L170.77617447916666,137.9820421854655L170.99729166666665,246.80932566324873L171.8080546875,333.3936513264974L172.029171875,306.24965324401853L172.2502890625,123.15337168375652L172.32399479166668,28.400693511962906L175.86186979166666,90.47996164957681L176.08298697916666,-2.1363103230794382L176.37780989583334,-104.05198465983074L177.9993359375,121.14265899658204L178.8838046875,-46.99930648803708L179.62086197916668,-8.671030680338514L179.91568489583332,27.898015340169255L181.758328125,233.7399808247884L181.83203385416667,230.3470230102539L182.642796875,184.98134867350262L183.23244270833334,145.64762064615883L183.52726562499998,143.63700383504232L183.67467708333334,145.77331415812176L186.03326041666668,56.17301534016928L186.32808333333332,-14.451685841878216L188.1707265625,142.88303451538087L189.35001822916666,349.73035634358723L189.42372395833334,396.2269846598307L190.8241328125,-156.95763982137044L192.00342447916665,128.93402684529622L192.07713020833333,150.8L193.69865625,224.81765899658205L194.06718489583335,193.02400767008464L194.43571354166667,19.352678171793624L194.65683072916667,13.949007670084649L195.025359375,54.790674336751295L195.2464765625,-0.2512911478678441L196.72059114583334,415.20267817179365L197.23653125,256.2343256632487L197.75247135416666,87.96666666666664L198.41582291666666,-35.437996164957674L198.71064583333333,50.01537551879881L198.85805729166665,46.49662831624351L199.00546875,55.67033716837563L199.2265859375,84.95069351196287L199.74252604166665,258.2449904123942L200.40587760416668,390.0693448384603L201.14293489583332,86.0816474914551L201.4377578125,101.9156743367513L201.58516927083332,86.0816474914551L201.80628645833332,-33.804364013671844L202.46963802083332,-66.60337168375655L203.94375260416666,166.1313486735026L204.60710416666666,199.18164749145507L205.04933854166666,113.7283716837565L205.56527864583333,37.0716283162435L205.638984375,35.94067433675132L206.3023359375,51.90029881795248L206.81827604166668,285.89166666666665L208.36609635416667,140.99801534016927L208.66091927083332,227.83368008931478L209.3979765625,39.71071268717447L209.69279947916667,-9.801984659830735L210.35615104166666,116.6186513264974L211.31432552083334,165.75436401367188L211.53544270833333,127.67737935384116L211.97767708333333,21.740375518798828L212.12508854166668,-9.801984659830735L214.63108333333332,66.1006935119629L215.07331770833335,174.2997011820475L216.32631510416667,158.33998082478843L217.06337239583334,38.07698465983072L217.28448958333334,137.85634867350262L217.43190104166666,203.07733141581218L218.75860416666666,150.17162831624347L219.790484375,-29.65734100341797L219.93789583333333,41.972620646158866L221.26459895833332,32.422023010253895L221.559421875,54.664980824788415L222.14906770833332,20.860712687174495L223.40206510416667,533.203670501709L223.84429947916666,421.48601150512695L225.61323697916666,91.8623026529948L226.57141145833333,204.71101150512698L226.79252864583336,129.9392873128255L226.866234375,119.88601150512693L227.01364583333333,80.92936401367189L227.16105729166668,8.168352508544904L227.45588020833333,-7.791367848714221L227.750703125,31.165375518798836L228.26664322916668,108.57599232991538L229.3722291666667,176.81299616495767L231.87822395833334,150.67430648803713L232.173046875,219.16264940897622L232.68898697916666,216.77499999999998L233.35233854166665,110.58670501708986L234.23680729166665,125.03829498291014L234.97386458333332,155.44970118204753L235.12127604166665,147.4070421854655L235.2686875,125.28968200683596L235.63721614583335,68.9909731547038L235.85833333333332,52.402976989746094L236.44797916666664,175.43065516153973L236.74280208333334,163.86934483846028L238.21691666666666,59.18898849487306L238.58544531249998,41.972620646158866L238.65915104166666,66.6033716837565L238.8065625,85.70466283162438L239.02767968749998,156.0779769897461L239.3225026041667,161.73303451538084L239.39620833333333,157.83730265299477L239.91214843749998,134.71468200683591L240.133265625,260.6326877593994L240.5017942708333,496.25768775939946L241.90220312500003,415.8310019175211L242.63926041666664,235.8763390858968L243.08149479166664,146.52737935384113L243.52372916666664,139.992658996582L243.81855208333334,149.66904602050784L244.70302083333334,231.2266858418783L244.7767265625,233.11165707906088L246.61936979166666,137.9820421854655L247.28272135416668,127.42599232991535L249.86242187499997,225.44598274230958L249.93612760416667,210.74300575256348L250.0835390625,172.79166666666669L253.32659114583333,201.06666666666666L253.91623697916668,159.59662831624348L254.43217708333336,255.22901725769043L254.57958854166665,236.7560019175212L254.72699999999998,197.42232182820635L255.09552864583333,157.58601150512698L256.93817187499997,176.93868967692055L257.01187760416667,194.40634867350263L257.7489348958333,97.76865132649738L257.89634635416667,96.38631032307944L258.26487499999996,156.83204218546547L259.29675520833337,104.93164749145507L259.73898958333336,140.8723218282064L260.4023411458333,245.55267817179362L261.50792708333336,286.0173122406006L261.80275,228.58764940897623L261.95016145833335,249.3226685841878L263.7928046875,272.5709827423096L264.6772734375,35.56368967692055L265.41433072916664,294.3113103230794L265.85656510416663,229.0903275807699L267.1095625,329.875L267.551796875,410.9300095876058L267.6255026041666,390.1949904123942L268.65738281250003,63.712996164957694L269.09961718750003,130.3163678487142L269.4681458333333,325.22534675598143L271.16337760416667,197.29667625427248L271.6793177083333,84.82499999999999L272.04784635416667,57.93234100341795L273.0060208333333,151.9309539794922L273.5219609375,276.4666666666667L274.627546875,61.07400767008465L275.512015625,323.8430057525635L275.7331328125,412.061011505127L276.76501302083335,232.86031799316407L276.9861302083333,147.28134867350258L279.3447135416667,100.28204218546551L279.41841927083334,72.63531799316405L279.492125,57.80664749145507L280.818828125,89.47470118204751L281.9244140625,251.71031799316404L285.46228906249996,126.04365132649741L286.125640625,-4.2726206461588765L286.78899218749996,215.26701342264812L287.2312265625,302.98234100341796L288.779046875,94.50129114786785L288.9264583333333,68.61398849487307L289.0001640625,41.59563598632814L292.46433333333334,183.85034675598143L293.05397916666664,214.76433525085451L294.7492109375,268.0470230102539L295.41256250000004,166.50833333333333L295.7073854166666,131.69870885213214L296.00220833333333,33.55297698974608L296.8866770833333,-55.670337168375674L297.1077942708333,-79.04434483846025L297.6974401041667,125.28968200683596L297.9185572916667,204.83665707906084L299.68749479166667,266.7903275807698L299.9823177083333,287.65099232991537L300.12972916666666,271.8170134226481L302.19348958333336,477.6589789072673L303.8887213541667,-9.801984659830735L304.99430729166664,84.57370885213214L305.583953125,284.6350191752116L305.95248177083334,199.43298657735193L306.32101041666664,102.54404602050784L306.76324479166664,117.74970118204754L307.94253645833334,193.52668584187825L309.26923958333333,268.29831415812174L309.3429453125,277.72331415812175L309.8588854166667,293.55734100341795L310.0800026041667,259.50168584187827L311.8489401041667,438.3253467559814L312.07005729166667,430.7853179931641L312.5859973958333,307.6319942474365L312.8071145833334,198.67901725769042L312.8808203125,209.10932566324868L313.0282317708333,84.82499999999999L313.10193749999996,59.81736017862955L314.94458072916666,21.740375518798828L315.60793229166666,151.67966283162434L317.37686979166665,123.90734100341797L317.966515625,202.07202301025393L318.99839583333335,267.4186513264974L319.0721015625,263.5230153401693L320.32509895833334,147.02996164957682L322.46256510416663,-6.78601150512692L322.60997656250004,41.847023010253906L323.3470338541666,125.41537551879884L324.60003125,138.9873026529948L324.9685598958333,172.91736017862956L326.5900859375,164.87470118204754L326.811203125,264.02564557393396L327.1797317708333,445.61398849487307L327.99049479166666,290.1643352508545L328.13790625,303.6106647491455L328.65384635416666,307.7576877593994L329.09608072916666,245.3013390858968L329.6120208333333,65.97500000000002L330.0542552083333,6.283333333333353L330.27537239583336,-10.807341003417951L331.5283697916667,123.02767817179364L332.4128385416667,50.895038350423185L332.63395572916664,117.49831415812173L333.14989583333335,225.69732182820638L334.3291875,199.30734100341795L334.47659895833334,251.58467241923017L334.91883333333334,147.53263982137042L335.21365625,154.6956359863281L336.3929479166667,231.60367050170896L337.6459453125,112.7230153401693L339.1200598958333,166.88531799316405L340.4467630208334,314.4180057525635L340.59417447916667,325.7279769897461L340.74158593749996,321.20401725769045L340.962703125,347.97098274230956L341.18382031249996,301.09732182820636L342.4368177083333,118.503670501709L343.24758072916666,82.18601150512694L344.2794609375,445.7396820068359L346.4906328125,350.2329865773519L346.63804427083335,397.6093256632487L348.40698177083334,107.31934483846027L348.7018046875,152.55932566324867L348.84921614583334,181.46264940897623L349.29145052083334,212.25099232991533L349.51256770833334,244.42167625427248L349.65997916666663,239.01800575256345L350.3233307291667,200.94102109273274L350.83927083333333,164.12063598632812L351.7974453125,114.7336321512858L352.3870911458333,85.95595397949216L353.345265625,309.5170134226481L353.4926770833333,368.2033237457275L353.7137942708333,449.0069942474365L354.8930859375,215.01567433675132L355.2616145833333,79.67262064615886L355.40902604166666,41.59563598632814L356.14608333333337,108.70168584187826L356.44090625,183.97599232991536L358.5783723958333,250.8306551615397L358.94690104166665,151.17698465983074L359.4628411458333,97.26597315470377L362.7058932291667,380.14166666666665L363.2955390625,254.6006455739339L363.8114791666667,174.92797698974607L364.10630208333333,117.37262064615885L364.9170651041667,186.11235059102376L365.3592994791667,211.1199904123942L365.8015338541667,207.97832374572755L367.4230598958333,102.4183525085449L368.23382291666667,357.8986609141032L368.6023515625,370.0883429209391L369.26570312499996,26.89265899658204L369.33940885416666,11.435712687174485L370.22387760416666,16.713689676920577L371.034640625,1.5080345153808676L371.2557578125,-0.7539693196614528L371.99281510416665,140.49533716837567L375.456984375,117.87529881795246L375.82551302083334,142.63164749145506L375.89921875,202.1976685841878L376.6362760416667,392.3313486735026L382.0167942708333,107.06795781453451L382.82755729166666,113.35129114786781L382.9012630208333,129.5623026529948L383.04867447916666,172.16329498291014L383.1960859375,248.44300575256347L383.417203125,321.20401725769045L383.49090885416666,347.59399808247883L385.3335520833333,307.8833333333333L385.70208072916665,238.89231224060057L385.9231979166667,160.4762911478678L386.51284375,198.30198465983074L387.32360677083335,210.8686513264974L387.9869583333333,246.55798657735193L388.20807552083335,228.2106647491455L388.28178125,227.9593256632487L389.3873671875,-22.242957814534517L390.5666588541667,354.128670501709L391.0088932291667,255.60600191752116L391.30371614583333,143.63700383504232L391.96706770833333,136.72529881795248L392.1144791666667,166.38263982137045L392.7778307291667,374.10967241923015L393.0726536458333,399.7456839243571L393.8834166666667,317.93665707906086L395.799765625,155.32400767008465L396.46311718749996,373.4813486735026L397.568703125,199.18164749145507L398.08464322916666,47.62767817179361L398.52687760416666,-32.54762064615886L398.89540625,-0.2512911478678441L400.29581510416665,101.66428731282554L400.51693229166665,15.079961649576829L403.17033854166664,239.64632949829104L403.61257291666664,132.95535634358725L404.7181588541667,27.646628316243493L404.8655703125,40.84166666666665L406.11856770833333,-14.954364013671908L406.1922734375,-16.713689676920577L407.5926822916667,305.3699904123942L407.6663880208333,270.81165707906086L407.8875052083333,239.39499041239424L408.5508567708333,194.40634867350263L409.36161979166667,204.71101150512698L411.2042630208333,62.582042185465475L411.42538020833337,139.4899808247884L412.23614322916666,237.13298657735186L412.45726041666666,256.61131032307946L412.604671875,236.1276781717936L412.75208333333336,203.5800095876058L413.63655208333336,294.81398849487306L414.8895494791667,470.7473218282064L416.43736979166664,166.88531799316405L416.95330989583334,57.30396931966146L417.5429557291667,63.712996164957694L417.83777864583334,99.5279769897461L418.35371875,147.78402684529624L418.4274244791667,142.00337168375648L418.50113020833334,121.26835250854492L419.2381875,165.50297698974612L421.1545364583333,209.73764940897627L421.5230651041667,242.5366570790609L422.7023567708333,43.354961649576815L423.51311979166667,-71.37867050170895L423.8816484375,-64.21567433675126L424.4712942708333,115.73898849487307L424.9135286458333,261.8893352508545L425.13464583333337,232.23199424743655L425.7979973958333,167.38799616495766L426.0928203125,213.13065516153972L426.60876041666666,286.6456839243571L426.6824661458333,288.90768775939944L427.1247005208333,249.95099232991538L427.56693489583336,184.35297698974608L427.71434635416665,186.23799616495768L427.93546354166665,130.0649808247884L430.5151640625,180.20600191752118L431.3996328125,49.63829498291017L432.8000416666667,260.1300095876058L432.947453125,240.77733141581217L434.49527343750003,220.2936513264974L435.9693880208333,20.483632151285804L437.7383255208333,202.82599232991538L437.9594427083333,206.0933525085449L438.9176171875,31.667957814534525L439.50726302083336,121.26835250854492L440.1706145833333,344.32668584187826L440.39173177083336,396.9810019175212L440.6128489583333,430.1569942474365L443.8559010416667,303.23368008931476L444.29813541666664,258.74766858418786L444.5192526041667,161.48164749145508L445.03519270833334,61.32529881795249L445.9933671875,43.85763982137046L446.1407786458333,48.00466283162434L446.2144843749999,63.712996164957694L446.7304244791667,194.90897890726728L448.05712760416674,262.76899808247884L449.75235937499997,163.49236017862955L450.1208880208334,134.96597315470376L451.5950026041666,29.15466283162436L451.7424140625,25.007639821370446L452.18464843749996,42.72668584187824L454.1009973958333,190.63631032307944L454.4695260416667,219.91666666666663L455.42770052083335,146.1502988179525L455.7225234375,80.42668584187828L457.04922656250005,185.35833333333335L457.6388723958333,287.90233141581217L459.33410416666663,90.8570421854655L459.6289270833334,42.60099232991536L459.92375000000004,61.827976989746105L459.9974557291667,61.199701182047534L461.9138046875,162.73829498291013L463.6090364583333,114.85932566324868L465.7465026041666,247.1863103230794L466.55726562499996,46.873708852132154L467.7365572916667,286.77132949829104L468.7684375,264.27698465983076L468.8421432291667,254.72633908589683L470.31625781249994,58.30932566324868L472.08519531249993,416.3336800893147L472.23260677083334,405.275L473.2644869791667,105.18303451538088L474.6648958333333,7.414287312825532L474.8860130208334,28.1493064880371L475.2545416666667,57.93234100341795L477.9816536458333,161.98432566324868L478.49759375,78.54166666666669L478.79241666666667,58.1836321512858L479.2346510416666,60.571329498291L479.67688541666666,-17.719046020507797L480.26653125,-16.713689676920577L480.41394270833337,19.980953979492195L482.18288020833336,72.76101150512693L482.7725260416666,25.76170501708986L484.0255234375,13.446329498290998L484.3940520833333,-27.39533716837569L484.54146354166664,-0.1256935119629241L485.42593229166664,312.9100191752116L485.57334375000005,335.4043160756429L486.015578125,317.43397890726726L486.900046875,123.27896931966148L487.2685755208334,158.33998082478843L488.0056328125,184.22733141581216L488.7426901041666,152.6850191752116L490.80645052083327,203.8313486735026L490.9538619791667,227.4566474914551L491.2486848958333,291.7980153401693L492.3542708333333,107.06795781453451L495.3762057291667,179.3263390858968L495.59732291666666,256.1086800893148L496.92402604166665,199.68432566324873L498.2507291666667,18.850000000000016L499.5037265625,147.28134867350258L499.72484374999993,124.7870038350423L500.09337239583334,145.1450383504232L500.46190104166664,165.75436401367188L501.7886041666667,350.10734100341796L501.86230989583333,331.13164749145506L503.1153072916666,8.29404602050783L503.33642447916674,0L503.8523645833333,48.13035634358726L505.8424192708333,68.23700383504234L505.9898307291667,78.79295781453453L506.5057708333333,72.88670501708987L507.83247395833337,187.7459827423096L507.9798854166667,139.11299616495768L508.4958255208333,11.68700383504233L509.1591770833333,157.08333333333331L509.896234375,393.08531799316404L510.70699739583335,205.96765899658203L511.0018203125,184.47867050170896L511.07552604166665,181.3370038350423L512.4759348958333,25.88730265299478L512.8444635416666,158.21428731282555L512.9918749999999,210.74300575256348L513.2866979166668,245.42698465983074L513.9500494791666,-15.331348673502593L515.2767526041666,84.07103068033854L516.7508671875,94.62698465983073L517.1193958333333,76.27966283162436L517.7827473958333,248.5686513264974L518.2249817708333,238.26398849487305L518.2986874999999,263.3973218282064L518.5935104166667,300.0920134226481L518.8146276041667,364.93601150512694L520.4361536458333,59.94295781453451L521.7628567708333,233.48868967692056L522.0576796875,190.63631032307944L522.4262083333333,234.11701342264814L523.6055,146.40168584187825L523.7529114583333,82.31170501708982L524.48996875,17.97033716837564L524.932203125,-16.33670501708981L525.0796145833333,-9.801984659830735L525.5218489583333,20.483632151285804L525.6692604166667,43.354961649576815L525.816671875,90.60565516153969L526.701140625,163.36666666666667L526.8485520833333,142.757341003418L526.9959635416667,125.79236017862956L528.6911953125,264.1513390858968L529.354546875,126.04365132649741L529.5756640625,77.03363215128581L530.7549557291667,-57.1783716837565L531.4920130208333,5.906348673502585L531.56571875,34.30704218546549L531.7131302083333,62.079364013671864L532.1553645833334,153.94166666666666L533.1135390625,184.73000958760582L533.4820677083333,130.8190460205078L533.9980078125,-24.504961649576796L534.4402421875,-36.94603068033858L535.3984166666667,45.86835250854494L537.3147656250001,91.8623026529948L539.0099973958334,-10.555953979492188L539.3048203125,-3.7700383504231882L539.3785260416666,8.671030680338555L539.8944661458333,-13.572023010253924L541.1474635416666,52.52867050170897L541.9582265625,97.39166666666665L542.7689895833333,6.660317993164079L543.2849296874999,53.659624481201156L543.7271640625,8.545337168375632L545.4961015625,149.92033716837562L549.5499166666666,223.18397890726726L549.8447395833333,184.47867050170896L550.8029140625,181.3370038350423L551.6136770833334,157.33462448120116L551.9085,122.52499999999998L552.4981458333334,117.24702301025388L552.5718515625,113.85396931966147L552.8666744791667,192.8983141581217L553.6037317708333,366.8209827423096L554.3407890625,225.32033716837566L554.4144947916667,234.99667625427247L554.4882005208333,232.10634867350257L555.0778463541667,139.4899808247884L556.5519609375,170.0269846598307L558.3208984375,145.39632949829104L558.7631328125,85.95595397949216L558.8368385416667,50.643651326497384L559.0579557291667,9.425000000000008L559.7950130208334,-13.069344838460314L560.4583645833334,67.1059539794922L560.6794817708334,57.80664749145507L561.4165390625001,74.39464365641277L561.7850677083334,106.94236017862954L564.4384739583334,202.82599232991538L565.1018255208334,162.48700383504234L565.2492369791667,158.71696548461915L565.5440598958334,198.67901725769042L565.9862942708334,202.32331415812178L566.2074114583334,141.24930648803712L566.7233515625,166.50833333333333L567.3129973958333,54.036705017089844L567.5341145833333,0.12569351196288225L568.1237604166666,63.58730265299477L568.4185833333333,132.95535634358725L568.71340625,191.13898849487305L570.4086380208333,238.01264940897624L570.7034609375,310.39667625427245L571.2194010416667,233.36299616495768L571.5142239583333,70.87599232991539L572.3249869791666,60.69702301025392L573.2094557291666,221.6759923299154L574.3887473958333,86.5843256632487L576.231390625,163.36666666666667L577.3369765625,104.80595397949219L578.3688567708334,109.20436401367186L578.9585026041666,156.0779769897461L579.5481484375,273.325L579.9903828125,206.97301534016924L580.0640885416667,202.32331415812178L581.9804375,172.16329498291014L583.0123177083334,53.659624481201156L583.2334348958333,50.14097315470377L584.8549609375,-2.5132949829101228L586.1079583333333,234.4939980824788L586.9924270833333,150.17162831624347L587.2135442708334,181.83968200683591L587.6557786458334,154.44434483846027L588.9824817708334,302.8566474914551L589.1298932291667,290.9183525085449L590.4565963541667,168.14196548461916L590.7514192708334,109.45565516153971L592.2992395833332,48.75863215128579L592.5940625000001,54.790674336751295L593.1100026041667,50.39236017862954L594.0681770833334,103.67500000000001L594.5104114583334,79.92400767008462L595.5422916666666,176.93868967692055L596.4267604166666,216.3980153401693L597.5323463541666,-16.33670501708981L598.1219921875,-8.29404602050783L598.1956979166666,12.692360178629546L599.8172239583333,135.46865132649742L600.112046875,83.81964365641278L601.1439270833333,10.17896931966146L602.0283958333333,132.95535634358725L602.1021015625,126.92331415812174L602.6180416666667,111.46636784871419L603.649921875,36.69464365641277L604.09215625,93.99870885213215L604.6080963541666,121.14265899658204L604.7555078125,154.3186513264974L605.418859375,33.050298817952466L605.5662708333333,12.31537551879882L605.6399765625,14.954364013671867L607.0403854166667,183.09632949829103L607.2615026041667,179.2006455739339L607.9248541666667,142.88303451538087L608.8830286458333,74.01765899658204L609.9149088541667,231.47797698974608L610.6519661458334,88.09236017862958L611.8312578125,228.2106647491455L612.6420208333333,170.52966283162436L613.9687239583334,37.0716283162435L614.70578125,165.628670501709L614.7794869791667,168.14196548461916L615.2217213541667,109.70704218546547L615.7376614583334,128.68263982137046L616.032484375,164.37202301025388L616.1061901041667,169.5243064880371L616.1798958333334,171.28363215128581L617.801421875,92.11368967692056L617.8751276041667,101.03601150512696L618.1699505208333,104.68035634358722L618.3173619791667,163.99503835042316L618.9807135416667,206.47033716837564L619.2755364583334,148.5379961649577L621.4130026041666,71.25297698974612L621.4867083333334,94.12430648803712L622.1500598958334,132.4526781717936L622.3711770833334,79.17003835042317L622.8871171875,56.80129114786785L623.6241744791666,112.22033716837564L623.6978802083333,131.8243064880371L623.8452916666668,154.6956359863281L624.2138203124999,179.95466283162438L624.6560546875,102.29265899658202L624.9508776041666,93.24464365641273L625.0982890625,92.3649808247884L626.2775807291666,92.23928731282552L626.7198151041666,160.3506935119629L626.7935208333333,145.77331415812176L627.3831666666667,196.79399808247888L628.7835755208333,202.1976685841878L630.0365729166667,40.338988494873036L631.952921875,193.52668584187825L633.6481536458334,131.57301534016926L634.606328125,-21.23769734700522L634.8274453125,-49.261310323079435L637.1123229166667,166.50833333333333L637.1860286458334,165.00029881795246L638.3653203125,177.69265899658205L638.4390260416667,181.46264940897623L639.1760833333334,-28.274999999999984L639.3972005208333,-2.8903755187988116L639.5446119791667,18.598708852132173L640.355375,77.03363215128581L640.797609375,122.3993064880371L641.0187265625,128.30565516153973L641.3135494791667,108.4502988179525L642.6402526041667,218.7856647491455L642.7139583333334,216.14667625427245L643.00878125,217.15198465983076L643.2298984375,189.0026781717936L643.3773098958334,198.05064557393393L644.4091901041667,-12.692360178629546L644.7040130208334,-65.4723218282064L645.5147760416667,87.33829498291016L645.7358932291667,161.8586321512858L647.2100078125001,146.40168584187825L647.7996536458334,85.70466283162438L648.5367109375,163.2409731547038L648.6104166666667,205.21368967692058L649.4211796875,356.1393352508545L651.1164114583333,100.91031799316409L651.4849401041668,66.1006935119629L652.7379375,239.26934483846026L655.9809895833333,197.17098274230955L656.0546953125,221.9273314158122L656.3495182291666,261.76368967692054L656.6443411458333,272.19399808247886L657.9710442708333,191.26468200683593L658.4132786458333,74.52033716837565L658.486984375,65.84930648803709L661.582625,114.98501917521156L662.1722708333334,-28.274999999999984L662.7619166666666,94.37569351196288L662.8356223958333,120.13730265299478L664.0886197916667,204.71101150512698L665.0467942708333,356.0136896769206L665.3416171875,144.7679578145345L666.1523802083333,147.78402684529624L667.0368489583333,318.6906743367513L667.2579661458333,289.4103179931641L667.4053776041667,304.23898849487307L667.7002005208334,273.325L668.2898463541667,121.3940460205078L672.7121901041667,126.42063598632814L673.1544244791667,223.8123505910238L673.2281302083334,247.06066474914553L674.4811276041667,-57.42966283162434L674.9970677083334,277.346329498291L676.6922994791666,316.30297698974607L676.9871223958334,301.6L677.7978854166666,92.23928731282552L678.0190026041666,10.17896931966146L679.272,62.456348673502596L679.7142343749999,73.01230265299478L680.6724088541666,169.5243064880371L682.1465234375,93.7473218282064L682.809875,292.6776781717936L683.9891666666666,354.3800095876058L684.1365781249999,494.2470230102539L684.7999296875,284.25798657735186L685.46328125,198.80466283162434L686.0529270833333,367.3236609141032L687.5270416666666,490.2256455739339L688.0429817708333,441.21567433675136L688.4852161458333,279.23134867350257L689.3696848958333,76.40535634358724L689.443390625,122.02232182820637L689.9593307291667,461.82500000000005L690.5489765625,404.8980153401693L691.0649166666667,26.264287312825505L691.212328125,-6.660317993164079L694.9713203125,364.81031799316406L695.7820833333333,276.7180057525635L696.0032005208334,188.37435442606608L696.3717291666667,150.9256935119629L697.5510208333333,236.7560019175212L697.8458437500001,164.87470118204754L697.9195494791667,170.7809539794922L698.0669609375,152.4336321512858L698.8040182291667,151.30267817179362L699.0988411458334,201.4436513264974L699.3936640625,234.4939980824788L700.057015625,223.68665707906086L700.1307213541667,215.89533716837565L700.4992500000001,201.31800575256347L700.7940729166667,275.46131032307943L700.8677786458334,301.22301534016924L701.9733645833333,366.69533716837566L704.2582421875001,283.7553563435872L705.1427109375,259.12465324401853L705.6586510416666,266.0363103230794L706.0271796875,-9.676291147867811L707.0590598958333,397.232341003418L707.7224114583333,193.90367050170897L708.8279973958333,-43.22936401367189L709.6387604166666,25.13333333333333L710.1547005208333,-10.807341003417951L710.22840625,-8.545337168375674L710.8917578124999,52.905655161539705L713.6925755208333,467.98268775939937L713.9136927083333,415.3283237457275L714.0611041666667,354.5056551615397L714.2822213541666,210.6173122406006L714.3559270833333,202.4490076700846L714.65075,113.60267817179363L717.0093333333333,250.20233141581218L718.0412135416666,55.67033716837563L720.0312682291667,365.31299616495767L720.4735026041667,134.96597315470376L720.7683255208333,7.539980824788414L722.0950286458334,307.3806551615397L722.4635572916667,275.96398849487304L723.5691432291667,139.61567433675128L723.7902604166667,154.06736017862954L724.0113776041667,105.30863215128579L725.5591979166667,312.2816474914551L726.3699609375001,402.3846724192301L727.3281354166667,156.7063486735026L727.4018411458334,174.17400767008462L728.1388984375001,429.15168584187825L728.360015625,452.0230153401693L728.6548385416667,360.4120038350423L729.9078359375001,308.26031799316405L730.0552473958334,258.74766858418786L730.2763645833334,133.58363215128583L731.8241848958334,143.7626973470052L731.9715963541666,125.41537551879884L732.340125,166.6340268452962L733.1508880208333,171.28363215128581L733.7405338541666,89.09762064615887L734.0353567708333,301.97698465983075L735.2883541666667,137.10237935384117L735.7305885416666,110.8379961649577L736.4676458333333,217.65466283162436L736.6150572916666,148.03531799316409L737.0572916666667,138.23333333333335L737.4258203125,201.4436513264974L737.7943489583333,200.43834292093914L738.0154661458333,144.2653755187988L739.1210520833333,22.3686513264974L739.1947578125,20.483632151285804L741.1848125,42.47529881795248L741.7744583333333,141.375L742.511515625,221.6759923299154L743.3222786458333,133.33234100341798L744.8700989583333,213.13065516153972L745.3123333333333,179.3263390858968L746.1230963541667,-61.576685841878216L746.1968020833333,-66.47767817179363L748.5553854166667,318.5649808247884L748.6290911458334,226.3256455739339L749.0713255208333,-34.558333333333294L752.9040234375,281.367658996582L753.0514348958334,209.98898849487307L753.567375,226.45133908589685L753.7884921875,158.59136784871419L754.3044322916667,266.2876494089762L756.2944869791667,177.56701342264813L757.8423072916667,124.2843256632487L758.5793645833334,149.5433525085449L759.75865625,244.54732182820635L759.9060677083334,313.78968200683596L760.0534791666666,363.42797698974607L760.4220078125,400.87668584187827L763.1491197916666,428.39766858418784L763.9598828125,159.34533716837564L764.0335885416666,143.88829498291017L764.1072942708333,157.46031799316404L764.3284114583333,129.81368967692055L765.507703125,249.071329498291L767.4977578125,202.07202301025393L767.718875,234.7453371683756L769.1929895833333,139.4899808247884L769.6352239583333,272.5709827423096L769.7089296875,296.196329498291L771.6252786458333,19.60396931966147L772.14121875,219.41398849487302L772.6571588541667,357.52167625427245L775.0894479166666,202.82599232991538L775.3105651041667,147.78402684529624L776.7109739583333,38.956647491455094L776.7846796875,60.69702301025392L777.44803125,206.84732182820642L777.9639713541667,217.40332374572756L778.1850885416667,253.09265899658203L778.7010286458333,188.12301534016927L778.9221458333334,235.8763390858968L780.3225546875,243.7933525085449L780.543671875,356.1393352508545L781.3544348958333,336.03268775939944L782.1651979166667,307.6319942474365L782.9022552083334,428.7746532440185L783.3444895833334,434.93234100341795L785.1134270833334,110.46101150512698L785.4819557291667,127.80297698974607L785.5556614583334,130.69335250854493L785.850484375,216.14667625427245L787.2508932291666,252.21299616495764L787.3245989583334,272.19399808247886L787.9879505208334,366.5696436564128L788.5775963541666,140.24404602050782L789.4620651041666,86.5843256632487L792.1891770833333,66.22629114786781L792.4102942708333,-11.435712687174485L793.0736458333333,67.86001917521156L793.1473515625,94.62698465983073L793.5895859375,303.7363103230794L793.7369973958333,321.9579865773519L794.4003489583333,393.211011505127L796.9800494791667,251.58467241923017L797.2748723958333,295.31666666666666" style="fill: none;" fill="none"></path></g></g></g></g></g><g><g opacity="0.104357"><span fill="rgb(0, 0, 0)" stroke="none" stroke-width="1px">Alt + Scroll to Zoom</span></g></g></g><g transform="translate(30, 377)" clip-path="url(#clip_1)"><clipPath id="clip_1"><rect width="884" height="23"></rect></clipPath><g><g><line x1="0" y1="0" x2="0" y2="5" style="visibility: inherit;" fill="rgb(0, 0, 0)" stroke="rgb(204, 204, 204)" stroke-width="1px"></line><line x1="73.70572916666666" y1="0" x2="73.70572916666666" y2="5" style="visibility: inherit;" fill="rgb(0, 0, 0)" stroke="rgb(204, 204, 204)" stroke-width="1px"></line><line x1="147.41145833333331" y1="0" x2="147.41145833333331" y2="5" style="visibility: inherit;" fill="rgb(0, 0, 0)" stroke="rgb(204, 204, 204)" stroke-width="1px"></line><line x1="221.1171875" y1="0" x2="221.1171875" y2="5" style="visibility: inherit;" fill="rgb(0, 0, 0)" stroke="rgb(204, 204, 204)" stroke-width="1px"></line><line x1="294.82291666666663" y1="0" x2="294.82291666666663" y2="5" style="visibility: inherit;" fill="rgb(0, 0, 0)" stroke="rgb(204, 204, 204)" stroke-width="1px"></line><line x1="368.52864583333337" y1="0" x2="368.52864583333337" y2="5" style="visibility: inherit;" fill="rgb(0, 0, 0)" stroke="rgb(204, 204, 204)" stroke-width="1px"></line><line x1="442.234375" y1="0" x2="442.234375" y2="5" style="visibility: inherit;" fill="rgb(0, 0, 0)" stroke="rgb(204, 204, 204)" stroke-width="1px"></line><line x1="515.9401041666667" y1="0" x2="515.9401041666667" y2="5" style="visibility: inherit;" fill="rgb(0, 0, 0)" stroke="rgb(204, 204, 204)" stroke-width="1px"></line><line x1="589.6458333333333" y1="0" x2="589.6458333333333" y2="5" style="visibility: inherit;" fill="rgb(0, 0, 0)" stroke="rgb(204, 204, 204)" stroke-width="1px"></line><line x1="663.3515625" y1="0" x2="663.3515625" y2="5" style="visibility: inherit;" fill="rgb(0, 0, 0)" stroke="rgb(204, 204, 204)" stroke-width="1px"></line><line x1="737.0572916666667" y1="0" x2="737.0572916666667" y2="5" style="visibility: inherit;" fill="rgb(0, 0, 0)" stroke="rgb(204, 204, 204)" stroke-width="1px"></line><line x1="810.7630208333333" y1="0" x2="810.7630208333333" y2="5" style="visibility: inherit;" fill="rgb(0, 0, 0)" stroke="rgb(204, 204, 204)" stroke-width="1px"></line><line x1="884.46875" y1="0" x2="884.46875" y2="5" style="visibility: inherit;" fill="rgb(0, 0, 0)" stroke="rgb(204, 204, 204)" stroke-width="1px"></line></g><g transform="translate(0, 8)"><text x="0" y="0" dx="0em" dy="0.95em" style="text-anchor: middle; visibility: hidden; font-family: Roboto, sans-serif; font-size: 12px; font-weight: 200;" fill="rgb(33, 33, 33)" stroke="none" stroke-width="1px">-50k</text><text x="73.70572916666666" y="0" dx="0em" dy="0.95em" style="text-anchor: middle; visibility: inherit; font-family: Roboto, sans-serif; font-size: 12px; font-weight: 200;" fill="rgb(33, 33, 33)" stroke="none" stroke-width="1px">0</text><text x="147.41145833333331" y="0" dx="0em" dy="0.95em" style="text-anchor: middle; visibility: inherit; font-family: Roboto, sans-serif; font-size: 12px; font-weight: 200;" fill="rgb(33, 33, 33)" stroke="none" stroke-width="1px">50k</text><text x="221.1171875" y="0" dx="0em" dy="0.95em" style="text-anchor: middle; visibility: inherit; font-family: Roboto, sans-serif; font-size: 12px; font-weight: 200;" fill="rgb(33, 33, 33)" stroke="none" stroke-width="1px">100k</text><text x="294.82291666666663" y="0" dx="0em" dy="0.95em" style="text-anchor: middle; visibility: inherit; font-family: Roboto, sans-serif; font-size: 12px; font-weight: 200;" fill="rgb(33, 33, 33)" stroke="none" stroke-width="1px">150k</text><text x="368.52864583333337" y="0" dx="0em" dy="0.95em" style="text-anchor: middle; visibility: inherit; font-family: Roboto, sans-serif; font-size: 12px; font-weight: 200;" fill="rgb(33, 33, 33)" stroke="none" stroke-width="1px">200k</text><text x="442.234375" y="0" dx="0em" dy="0.95em" style="text-anchor: middle; visibility: inherit; font-family: Roboto, sans-serif; font-size: 12px; font-weight: 200;" fill="rgb(33, 33, 33)" stroke="none" stroke-width="1px">250k</text><text x="515.9401041666667" y="0" dx="0em" dy="0.95em" style="text-anchor: middle; visibility: inherit; font-family: Roboto, sans-serif; font-size: 12px; font-weight: 200;" fill="rgb(33, 33, 33)" stroke="none" stroke-width="1px">300k</text><text x="589.6458333333333" y="0" dx="0em" dy="0.95em" style="text-anchor: middle; visibility: inherit; font-family: Roboto, sans-serif; font-size: 12px; font-weight: 200;" fill="rgb(33, 33, 33)" stroke="none" stroke-width="1px">350k</text><text x="663.3515625" y="0" dx="0em" dy="0.95em" style="text-anchor: middle; visibility: inherit; font-family: Roboto, sans-serif; font-size: 12px; font-weight: 200;" fill="rgb(33, 33, 33)" stroke="none" stroke-width="1px">400k</text><text x="737.0572916666667" y="0" dx="0em" dy="0.95em" style="text-anchor: middle; visibility: inherit; font-family: Roboto, sans-serif; font-size: 12px; font-weight: 200;" fill="rgb(33, 33, 33)" stroke="none" stroke-width="1px">450k</text><text x="810.7630208333333" y="0" dx="0em" dy="0.95em" style="text-anchor: middle; visibility: inherit; font-family: Roboto, sans-serif; font-size: 12px; font-weight: 200;" fill="rgb(33, 33, 33)" stroke="none" stroke-width="1px">500k</text><text x="884.46875" y="0" dx="0em" dy="0.95em" style="text-anchor: middle; visibility: hidden; font-family: Roboto, sans-serif; font-size: 12px; font-weight: 200;" fill="rgb(33, 33, 33)" stroke="none" stroke-width="1px">550k</text></g><line x1="0" y1="0" x2="884.46875" y2="0" fill="rgb(0, 0, 0)" stroke="rgb(204, 204, 204)" stroke-width="1px"></line></g></g></g></g></svg>