<svg viewBox="0 0 915.25 400" xmlns="http://www.w3.org/2000/svg"><g><g><g><g><g><line x1="41.171875" y1="377" x2="36.171875" y2="377" style="visibility: inherit;" fill="rgb(0, 0, 0)" stroke="rgb(204, 204, 204)" stroke-width="1px"></line><line x1="41.171875" y1="342.7272727272727" x2="36.171875" y2="342.7272727272727" style="visibility: inherit;" fill="rgb(0, 0, 0)" stroke="rgb(204, 204, 204)" stroke-width="1px"></line><line x1="41.171875" y1="308.45454545454544" x2="36.171875" y2="308.45454545454544" style="visibility: inherit;" fill="rgb(0, 0, 0)" stroke="rgb(204, 204, 204)" stroke-width="1px"></line><line x1="41.171875" y1="274.1818181818182" x2="36.171875" y2="274.1818181818182" style="visibility: inherit;" fill="rgb(0, 0, 0)" stroke="rgb(204, 204, 204)" stroke-width="1px"></line><line x1="41.171875" y1="239.9090909090909" x2="36.171875" y2="239.9090909090909" style="visibility: inherit;" fill="rgb(0, 0, 0)" stroke="rgb(204, 204, 204)" stroke-width="1px"></line><line x1="41.171875" y1="205.63636363636363" x2="36.171875" y2="205.63636363636363" style="visibility: inherit;" fill="rgb(0, 0, 0)" stroke="rgb(204, 204, 204)" stroke-width="1px"></line><line x1="41.171875" y1="171.36363636363637" x2="36.171875" y2="171.36363636363637" style="visibility: inherit;" fill="rgb(0, 0, 0)" stroke="rgb(204, 204, 204)" stroke-width="1px"></line><line x1="41.171875" y1="137.0909090909091" x2="36.171875" y2="137.0909090909091" style="visibility: inherit;" fill="rgb(0, 0, 0)" stroke="rgb(204, 204, 204)" stroke-width="1px"></line><line x1="41.171875" y1="102.81818181818181" x2="36.171875" y2="102.81818181818181" style="visibility: inherit;" fill="rgb(0, 0, 0)" stroke="rgb(204, 204, 204)" stroke-width="1px"></line><line x1="41.171875" y1="68.54545454545453" x2="36.171875" y2="68.54545454545453" style="visibility: inherit;" fill="rgb(0, 0, 0)" stroke="rgb(204, 204, 204)" stroke-width="1px"></line><line x1="41.171875" y1="34.27272727272729" x2="36.171875" y2="34.27272727272729" style="visibility: inherit;" fill="rgb(0, 0, 0)" stroke="rgb(204, 204, 204)" stroke-width="1px"></line><line x1="41.171875" y1="0" x2="36.171875" y2="0" style="visibility: inherit;" fill="rgb(0, 0, 0)" stroke="rgb(204, 204, 204)" stroke-width="1px"></line></g><g transform="translate(31.171875, 0)"><text x="0" y="377" dx="0em" dy="0.3em" style="text-anchor: end; visibility: hidden; font-family: Roboto, sans-serif; font-size: 12px; font-weight: 200;" fill="rgb(33, 33, 33)" stroke="none" stroke-width="1px">-10</text><text x="0" y="342.7272727272727" dx="0em" dy="0.3em" style="text-anchor: end; visibility: inherit; font-family: Roboto, sans-serif; font-size: 12px; font-weight: 200;" fill="rgb(33, 33, 33)" stroke="none" stroke-width="1px">0</text><text x="0" y="308.45454545454544" dx="0em" dy="0.3em" style="text-anchor: end; visibility: inherit; font-family: Roboto, sans-serif; font-size: 12px; font-weight: 200;" fill="rgb(33, 33, 33)" stroke="none" stroke-width="1px">10</text><text x="0" y="274.1818181818182" dx="0em" dy="0.3em" style="text-anchor: end; visibility: inherit; font-family: Roboto, sans-serif; font-size: 12px; font-weight: 200;" fill="rgb(33, 33, 33)" stroke="none" stroke-width="1px">20</text><text x="0" y="239.9090909090909" dx="0em" dy="0.3em" style="text-anchor: end; visibility: inherit; font-family: Roboto, sans-serif; font-size: 12px; font-weight: 200;" fill="rgb(33, 33, 33)" stroke="none" stroke-width="1px">30</text><text x="0" y="205.63636363636363" dx="0em" dy="0.3em" style="text-anchor: end; visibility: inherit; font-family: Roboto, sans-serif; font-size: 12px; font-weight: 200;" fill="rgb(33, 33, 33)" stroke="none" stroke-width="1px">40</text><text x="0" y="171.36363636363637" dx="0em" dy="0.3em" style="text-anchor: end; visibility: inherit; font-family: Roboto, sans-serif; font-size: 12px; font-weight: 200;" fill="rgb(33, 33, 33)" stroke="none" stroke-width="1px">50</text><text x="0" y="137.0909090909091" dx="0em" dy="0.3em" style="text-anchor: end; visibility: inherit; font-family: Roboto, sans-serif; font-size: 12px; font-weight: 200;" fill="rgb(33, 33, 33)" stroke="none" stroke-width="1px">60</text><text x="0" y="102.81818181818181" dx="0em" dy="0.3em" style="text-anchor: end; visibility: inherit; font-family: Roboto, sans-serif; font-size: 12px; font-weight: 200;" fill="rgb(33, 33, 33)" stroke="none" stroke-width="1px">70</text><text x="0" y="68.54545454545453" dx="0em" dy="0.3em" style="text-anchor: end; visibility: inherit; font-family: Roboto, sans-serif; font-size: 12px; font-weight: 200;" fill="rgb(33, 33, 33)" stroke="none" stroke-width="1px">80</text><text x="0" y="34.27272727272729" dx="0em" dy="0.3em" style="text-anchor: end; visibility: inherit; font-family: Roboto, sans-serif; font-size: 12px; font-weight: 200;" fill="rgb(33, 33, 33)" stroke="none" stroke-width="1px">90</text><text x="0" y="0" dx="0em" dy="0.3em" style="text-anchor: end; visibility: hidden; font-family: Roboto, sans-serif; font-size: 12px; font-weight: 200;" fill="rgb(33, 33, 33)" stroke="none" stroke-width="1px">100</text></g><line x1="41.171875" y1="0" x2="41.171875" y2="377" fill="rgb(0, 0, 0)" stroke="rgb(204, 204, 204)" stroke-width="1px"></line></g></g><g transform="translate(41, 0)" clip-path="url(#clip_0)"><clipPath id="clip_0"><rect width="874" height="377"></rect></clipPath><g><g><g><line x1="0" y1="0" x2="0" y2="377" fill="rgb(0, 0, 0)" stroke="rgb(66, 66, 66)" stroke-width="1px" opacity="0.25"></line><line x1="72.83984375" y1="0" x2="72.83984375" y2="377" fill="rgb(0, 0, 0)" stroke="rgb(66, 66, 66)" stroke-width="1px" opacity="0.25"></line><line x1="145.6796875" y1="0" x2="145.6796875" y2="377" fill="rgb(0, 0, 0)" stroke="rgb(66, 66, 66)" stroke-width="1px" opacity="0.25"></line><line x1="218.51953125" y1="0" x2="218.51953125" y2="377" fill="rgb(0, 0, 0)" stroke="rgb(66, 66, 66)" stroke-width="1px" opacity="0.25"></line><line x1="291.359375" y1="0" x2="291.359375" y2="377" fill="rgb(0, 0, 0)" stroke="rgb(66, 66, 66)" stroke-width="1px" opacity="0.25"></line><line x1="364.19921875" y1="0" x2="364.19921875" y2="377" fill="rgb(0, 0, 0)" stroke="rgb(66, 66, 66)" stroke-width="1px" opacity="0.25"></line><line x1="437.0390625" y1="0" x2="437.0390625" y2="377" fill="rgb(0, 0, 0)" stroke="rgb(66, 66, 66)" stroke-width="1px" opacity="0.25"></line><line x1="509.87890625000006" y1="0" x2="509.87890625000006" y2="377" fill="rgb(0, 0, 0)" stroke="rgb(66, 66, 66)" stroke-width="1px" opacity="0.25"></line><line x1="582.71875" y1="0" x2="582.71875" y2="377" fill="rgb(0, 0, 0)" stroke="rgb(66, 66, 66)" stroke-width="1px" opacity="0.25"></line><line x1="655.55859375" y1="0" x2="655.55859375" y2="377" fill="rgb(0, 0, 0)" stroke="rgb(66, 66, 66)" stroke-width="1px" opacity="0.25"></line><line x1="728.3984375" y1="0" x2="728.3984375" y2="377" fill="rgb(0, 0, 0)" stroke="rgb(66, 66, 66)" stroke-width="1px" opacity="0.25"></line><line x1="801.23828125" y1="0" x2="801.23828125" y2="377" fill="rgb(0, 0, 0)" stroke="rgb(66, 66, 66)" stroke-width="1px" opacity="0.25"></line><line x1="874.078125" y1="0" x2="874.078125" y2="377" fill="rgb(0, 0, 0)" stroke="rgb(66, 66, 66)" stroke-width="1px" opacity="0.25"></line></g><g><line x1="0" y1="377" x2="874.078125" y2="377" fill="rgb(0, 0, 0)" stroke="rgb(66, 66, 66)" stroke-width="1px" opacity="0.25"></line><line x1="0" y1="342.7272727272727" x2="874.078125" y2="342.7272727272727" fill="rgb(0, 0, 0)" stroke="rgb(66, 66, 66)" stroke-width="1px" opacity="0.25"></line><line x1="0" y1="308.45454545454544" x2="874.078125" y2="308.45454545454544" fill="rgb(0, 0, 0)" stroke="rgb(66, 66, 66)" stroke-width="1px" opacity="0.25"></line><line x1="0" y1="274.1818181818182" x2="874.078125" y2="274.1818181818182" fill="rgb(0, 0, 0)" stroke="rgb(66, 66, 66)" stroke-width="1px" opacity="0.25"></line><line x1="0" y1="239.9090909090909" x2="874.078125" y2="239.9090909090909" fill="rgb(0, 0, 0)" stroke="rgb(66, 66, 66)" stroke-width="1px" opacity="0.25"></line><line x1="0" y1="205.63636363636363" x2="874.078125" y2="205.63636363636363" fill="rgb(0, 0, 0)" stroke="rgb(66, 66, 66)" stroke-width="1px" opacity="0.25"></line><line x1="0" y1="171.36363636363637" x2="874.078125" y2="171.36363636363637" fill="rgb(0, 0, 0)" stroke="rgb(66, 66, 66)" stroke-width="1px" opacity="0.25"></line><line x1="0" y1="137.0909090909091" x2="874.078125" y2="137.0909090909091" fill="rgb(0, 0, 0)" stroke="rgb(66, 66, 66)" stroke-width="1px" opacity="0.25"></line><line x1="0" y1="102.81818181818181" x2="874.078125" y2="102.81818181818181" fill="rgb(0, 0, 0)" stroke="rgb(66, 66, 66)" stroke-width="1px" opacity="0.25"></line><line x1="0" y1="68.54545454545453" x2="874.078125" y2="68.54545454545453" fill="rgb(0, 0, 0)" stroke="rgb(66, 66, 66)" stroke-width="1px" opacity="0.25"></line><line x1="0" y1="34.27272727272729" x2="874.078125" y2="34.27272727272729" fill="rgb(0, 0, 0)" stroke="rgb(66, 66, 66)" stroke-width="1px" opacity="0.25"></line><line x1="0" y1="0" x2="874.078125" y2="0" fill="rgb(0, 0, 0)" stroke="rgb(66, 66, 66)" stroke-width="1px" opacity="0.25"></line></g></g></g><g><g><line x1="0" y1="342.7272727272727" x2="874.078125" y2="342.7272727272727" fill="rgb(0, 0, 0)" stroke="rgb(153, 153, 153)" stroke-width="1.5px"></line></g></g><g><g><line x1="72.83984375" y1="0" x2="72.83984375" y2="377" fill="rgb(0, 0, 0)" stroke="rgb(153, 153, 153)" stroke-width="1.5px"></line></g></g><g><g><g><g><g><path stroke="rgb(255, 112, 67)" stroke-width="2px" d="M74.22380078125,342.7272727272727L74.66083984375,342.7272727272727L75.82627734375,342.7272727272727L75.97195703125,342.7272727272727L76.19047656250001,342.7272727272727L76.99171484375,342.7272727272727L78.0843125,342.7272727272727L78.30283203125,342.7272727272727L79.75962890625,342.7272727272727L80.63370703125,342.7272727272727L82.09050390624999,342.7272727272727L84.202859375,342.7272727272727L84.42137890625,342.7272727272727L85.0769375,342.7272727272727L86.242375,342.7272727272727L86.3880546875,342.7272727272727L89.59300781249999,342.7272727272727L89.95720703125001,342.7272727272727L91.0498046875,342.7272727272727L91.48684375,342.7272727272727L91.85104296875,342.7272727272727L92.360921875,342.7272727272727L92.79796093750001,342.7272727272727L95.34735546875001,342.7272727272727L95.49303515625,342.7272727272727L96.07575390625,342.7272727272727L97.605390625,342.7272727272727L98.188109375,342.7272727272727L99.64490625,342.7272727272727L103.5782578125,342.7272727272727L103.65109765625,342.7272727272727L104.889375,342.7272727272727L105.10789453125,342.7272727272727L105.32641406249999,342.7272727272727L106.41901171875,342.7272727272727L106.63753125,342.7272727272727L106.71037109375,342.7272727272727L107.43876953124999,342.7272727272727L108.8227265625,342.7272727272727L110.35236328125,342.7272727272727L111.590640625,342.7272727272727L111.95483984375,342.7272727272727L113.921515625,342.7272727272727L114.64991406249999,342.7272727272727L115.086953125,342.7272727272727L115.59683203125,342.7272727272727L115.66967187499999,342.7272727272727L118.07338671875,342.7272727272727L118.21906640625001,342.7272727272727L119.09314453125,342.7272727272727L119.6030234375,342.7272727272727L119.67586328124999,342.7272727272727L119.82154296875,342.7272727272727L120.0400625,342.7272727272727L120.18574218750001,342.7272727272727L121.05982031250001,342.7272727272727L121.78821875,342.7272727272727L124.92033203125,342.7272727272727L125.21169140624998,342.7272727272727L125.50305078125001,342.7272727272727L126.08576953125,342.7272727272727L126.741328125,342.7272727272727L127.68824609375001,342.7272727272727L127.97960546875,342.7272727272727L128.6351640625,342.7272727272727L128.92652343749998,342.7272727272727L129.072203125,342.7272727272727L129.21788281250002,342.7272727272727L129.72776171875,342.7272727272727L130.0919609375,342.7272727272727L130.23764062499998,342.7272727272727L130.60183984375,342.7272727272727L130.74751953125002,342.7272727272727L131.03887890625,342.7272727272727L131.33023828125,342.7272727272727L131.76727734375,342.7272727272727L131.8401171875,342.7272727272727L133.51543359375,342.7272727272727L133.80679296875,342.7272727272727L136.2105078125,342.7272727272727L136.72038671875,342.7272727272727L137.15742578125,342.7272727272727L138.17718359375,342.7272727272727L138.46854296875,342.7272727272727L138.978421875,342.7272727272727L139.12410156250002,342.7272727272727L139.70682031249999,342.7272727272727L140.726578125,342.7272727272727L140.79941796875,342.7272727272727L141.52781640625,342.7272727272727L141.7463359375,342.7272727272727L142.40189453124998,342.7272727272727L142.98461328125,342.7272727272727L143.640171875,342.7272727272727L143.71301171874998,342.7272727272727L144.15005078125,342.7272727272727L144.22289062500002,342.7272727272727L144.58708984375,342.7272727272727L145.89820703125,342.7272727272727L146.1167265625,342.7272727272727L146.77228515625,342.7272727272727L148.95748046875,342.7272727272727L149.90439843750002,342.7272727272727L150.34143749999998,342.7272727272727L150.55995703124998,342.7272727272727L150.70563671875,342.7272727272727L150.99699609375,342.7272727272727L151.43403515625,342.7272727272727L151.798234375,342.7272727272727L152.5266328125,342.7272727272727L152.963671875,342.7272727272727L153.32787109375,342.7272727272727L154.05626953125,342.7272727272727L157.11554296875,342.7272727272727L157.40690234375,342.7272727272727L157.4797421875,342.7272727272727L157.55258203124998,342.7272727272727L158.86369921874999,342.7272727272727L159.8106171875,342.7272727272727L160.75753515625001,342.7272727272727L162.65137109375,342.7272727272727L163.52544921875,342.7272727272727L164.3266875,342.7272727272727L164.54520703125,342.7272727272727L164.7637265625,342.7272727272727L166.22052343750002,342.7272727272727L166.6575625,342.7272727272727L167.16744140625,342.7272727272727L167.60448046875,342.7272727272727L168.76991796875,342.7272727272727L168.9884375,342.7272727272727L169.78967578125,342.7272727272727L170.0081953125,342.7272727272727L170.22671484375002,342.7272727272727L170.2995546875,342.7272727272727L173.7958671875,342.7272727272727L174.01438671875,342.48050908110355L174.23290625,342.57921453957124L174.30574609375,342.6384378146518L175.90822265625002,341.9473900007404L176.78230078125,340.5319976498819L177.51069921875,341.0673804081109L177.80205859375,340.55235549798283L179.6230546875,337.2958860391364L179.69589453125002,336.12342245412873L180.49713281249998,336.3110353429551L181.0798515625,336.6018212515321L181.3712109375,338.5996018238516L181.516890625,340.04503381341243L183.84776562500002,340.29538389172603L184.139125,337.90941208784744L185.96012109375,332.77637439469567L187.12555859375,329.573170405139L187.1983984375,328.19961112480837L188.29099609375,327.53998514433135L188.58235546875,319.96064557975734L189.74779296875,298.633113574661L189.8206328125,285.3019406628852L191.423109375,281.49821800185714L191.78730859375,279.8740227561258L192.1515078125,284.4653957856335L192.37002734375,287.3984379420444L192.7342265625,277.23135440646195L192.95274609375,266.045030198143L193.82682421875,256.90672595469016L194.40954296875,263.40549116418924L194.919421875,267.4418391071384L195.42930078125,264.72273878199877L196.084859375,270.2337163102482L196.37621875,271.9363390862421L196.5218984375,270.24351337939083L196.667578125,267.4867627822732L196.88609765625,265.21580228717283L197.3959765625,258.3010452178515L198.05153515625,261.7470259801982L198.77993359375,277.40032462673196L199.07129296875002,283.88597669881307L199.21697265625,286.50242206914805L199.4354921875,285.00145324148883L199.79969140625,286.04756295857624L200.0182109375,292.7894833865793L200.09105078125,297.1088172000828L201.54784765625,301.5100170698166L202.20340625,310.48433748846924L202.6404453125,320.1735844289294L203.15032421875,326.3298598659328L203.22316406250002,329.46155228319606L203.87872265625,329.94224048697475L204.3886015625,332.0950896290642L205.91823828125,332.2900719069607L206.20959765625,334.05215224815953L206.93799609375,336.4666004659528L207.22935546875001,338.80636028324875L207.8849140625,340.3198888984477L208.83183203125,340.81673333416586L209.0503515625,340.6761490554551L209.487390625,338.82332573153934L209.6330703125,336.3133044906107L212.109625,292.1034750677462L212.5466640625,250.05888692330484L213.78494140625,218.07355180009L214.51333984375,182.81529450723352L214.731859375,161.39986928690402L214.87753906249998,145.31526786342437L216.18865624999998,142.72468568975646L217.2084140625,158.49863168751332L217.35409375,178.29964985712357L218.66521093749998,190.05687873152377L218.9565703125,195.23307206590732L219.5392890625,198.32508127665375L220.77756640625,208.5428301658058L221.21460546875,225.9697700946118L222.96276171875,216.3009907937832L223.9096796875,207.88128705883386L224.12819921875,209.2041889528296L224.2010390625,214.6453110706724L224.34671874999998,222.77671318298627L224.49239843750001,225.36613616396434L224.7837578125,219.69509841590792L225.0751171875,208.4782929029716L225.58499609375,194.11224637721443L226.67759375000003,158.04702306381088L229.1541484375,137.87476138467323L229.4455078125,128.4720969597546L229.95538671875,133.8526034212141L230.61094531249998,124.40000343678388L231.4850234375,109.70785911773434L232.213421875,101.1941741997777L232.35910156249997,96.19562802727961L232.50478125,94.1013053441998L232.86898046875,94.39383524176495L233.0875,98.27081400128229L233.67021874999998,119.80343531960372L233.961578125,136.31478846448948L235.41837499999997,138.47596189594336L235.78257421875,139.59445153831174L235.8554140625,140.51230937846466L236.00109375000002,140.59691478246322L236.21961328125,143.5677106231844L236.51097265625,140.25040986556547L236.5838125,134.14730213826684L237.09369140625,122.36965819391538L237.31221093750003,119.92302876977605L237.67641015624997,122.82825446223849L239.06036718750002,122.80291589533847L239.788765625,127.02382205529172L240.2258046875,146.63789176888613L240.66284374999998,172.93797309844106L240.954203125,171.37601980433277L241.82828125,133.43801439280915L241.90112109375,110.51069828967167L243.7221171875,130.36900016443246L244.37767578125002,160.58562079068716L246.92707031249998,147.25322848415576L246.99991015625002,136.75873374354742L247.14558984375,128.4742229010468L250.35054296874998,136.6642415764324L250.93326171875003,132.81814452749123L251.443140625,124.50590824525891L251.5888203125,117.91459489055909L251.73449999999997,113.52111638701659L252.09869921875,105.22317850475082L253.91969531249998,95.93976206667331L253.99253515625003,85.81829444037685L254.72093359375,83.10413695364373L254.86661328125,82.32560986328174L255.23081249999998,78.36267124356384L256.25057031250003,84.60792750865605L256.687609375,96.73133664990242L257.34316796875,93.92920240830973L258.43576562500004,98.60893920843579L258.727125,107.311694563103L258.87280468750004,112.53334777590337L260.69380078125,89.56422935756974L261.56787890625003,85.50249874069596L262.29627734375,89.44018973514022L262.73331640624997,85.16760935222581L263.97159375,86.62082517720904L264.4086328125,85.06623972413435L264.48147265625,83.54399712483043L265.50123046875,82.17824905503849L265.93826953125,82.16764201558702L266.30246875,86.61673233737068L267.97778515625,80.15592696456726L268.48766406249996,76.78668386983591L268.85186328124996,74.28532192302013L269.79878125,65.1485415369353L270.30866015625,65.90410339339698L271.4012578125,62.09391239781021L272.2753359375,96.56187241038802L272.49385546875004,128.84054330152398L273.51361328125,133.56643632692825L273.73213281249997,128.69745928594742L276.0630078125,119.40134369679039L276.13584765625,112.28826285537005L276.2086875,107.43092302305864L277.5198046875,107.64219017747152L278.61240234375,99.32414544970025L282.10871484374996,97.41786406758295L282.7642734375,87.59624864185484L283.41983203125,71.57226204133627L283.85687109375,69.79946129529179L285.3865078125,69.88734992281604L285.5321875,70.92713931825814L285.60502734375,71.35908651953267L289.0285,66.75152338388757L289.61121875,67.89407431975017L291.28653515625,75.02288388406426L291.94209375,85.85311340372509L292.233453125,88.48528789752622L292.5248125,86.14379175707042L293.398890625,80.22860190860126L293.61741015625,75.13036449210678L294.20012890625003,72.44156289470473L294.4186484375,72.06210220992298L296.16680468749996,60.48330019979968L296.45816406250003,54.44081355493838L296.60384375,51.52820015244991L298.643359375,71.42728791151612L300.31867578125,63.37888351129177L301.4112734375,65.3221351271941L301.9939921875,78.00371409300678L302.35819140625,83.73452271184098L302.722390625,80.77085447959931L303.1594296875,75.37345437699076L304.3248671875,80.0588776466135L305.635984375,100.1847096612547L305.70882421875,113.58998713209103L306.218703125,117.34220669575856L306.43722265625,109.86008598034576L308.18537890625004,82.28470948060804L308.4038984375,63.50489506869153L308.91377734375,53.40228751617936L309.132296875,48.09471670914835L309.20513671875,46.04803128059378L309.35081640625,44.957108840710646L309.42365624999996,44.49448181277155L311.24465234375,48.39818250696335L311.9002109375,54.44185328525047L313.6483671875,61.07035000825967L314.2310859375,58.11065138901118L315.25084375,61.31122845214782L315.32368359375,62.76546016033341L316.56196093750003,69.67000127708602L318.67431640625,70.30320202135637L318.81999609375004,68.55820919332695L319.54839453125,63.50816146126425L320.78667187499997,69.55355476915913L321.15087109375,72.27598573347703L322.75334765625,76.58272331486427L322.9718671875,79.18046742397719L323.33606640625,71.9927176547592L324.13730468750003,60.044104575233035L324.282984375,51.58627883511671L324.79286328125,49.11631275561545L325.22990234375,50.5955017646974L325.73978124999996,55.45864316641786L326.17682031249996,67.20518589985073L326.39533984375,70.8121267931509L327.6336171875,56.977784748431354L328.5076953125,51.70688735740401L328.72621484375,49.44915394320663L329.23609375,50.46618076480536L330.40153125,52.76261964163355L330.5472109375,54.99043991020206L330.98425,51.707175128871555L331.275609375,49.312227329631206L332.44104687500004,42.364208706683186L333.67932421874997,38.579250404895895L335.13612109375003,38.78962799062931L336.44723828125,33.96687188715099L336.59291796875,31.306270260309073L336.73859765624996,29.422019630217772L336.9571171875,30.251869670531214L337.17563671874996,31.791663073181592L338.4139140625,29.713255317941286L339.21515234375,30.577411919901845L340.23491015625,34.27641455361902L342.42010546874997,29.819485095807764L342.56578515625,29.133141419256678L344.31394140625,38.61930052316265L344.60530078125,37.99110423967888L344.75098046875,36.695679888889L345.18801953125,34.06770009752909L345.4065390625,31.887708875767082L345.55221875,30.42891330597344L346.20777734375,39.28708841771042L346.71765625,43.381885230580075L347.66457421875,40.314001355411285L348.24729296875,36.41690739394635L349.19421093750003,44.3878932378593L349.339890625,48.361642941783394L349.55841015625,50.183825475652434L350.72384765625,45.31367208315427L351.08804687500003,42.96736981483399L351.2337265625,41.134599523399665L351.962125,37.800359295671555L352.253484375,35.07323501432589L354.36583984375,34.56110548169568L354.7300390625,32.84179307195419L355.23991796875,30.686060589932108L358.44487109375,45.3911276814184L359.02758984375,48.99100764689259L359.53746875,52.04201816790293L359.82882812500003,53.872624480509174L360.63006640625,54.943574688305475L361.06710546875,52.92657782967363L361.50414453125,43.861076480740984L363.10662109375,35.41948141534443L363.907859375,27.544156556060386L364.27205859375,23.94311713587345L364.9276171875,21.659106226792172L365.00045703125,20.192736463348037L365.87453515625,23.658693913253853L366.67577343749997,27.575292003802815L366.89429296875,31.063097454589975L367.62269140625,34.51298825569081L371.0461640625,35.14346400721417L371.41036328125,32.012225532346925L371.483203125,29.448027901972086L372.2116015625,27.690158848782648L377.52891015625,44.79998287141445L378.3301484375,49.26693768760362L378.40298828125003,51.604383304589895L378.54866796875,54.84386383618077L378.69434765625005,55.0876278109858L378.9128671875,53.986353902722534L378.98570703125,53.65461527021129L380.80670312499996,46.95745546916686L381.17090234375,45.02294726387762L381.38942187500004,44.52027284718489L381.972140625,45.47991250980239L382.77337890625,42.2171466691449L383.42893749999996,37.68218183915563L383.64745703125,36.29098643281689L383.720296875,36.73121506192734L384.81289453125,34.43174847407933L385.97833203125,35.80759872267558L386.41537109374997,34.57674523546972L386.70673046875004,34.22208601512773L387.3622890625,40.68561106175776L387.50796875000003,48.169223692718745L388.16352734375,55.031058141412494L388.45488671875,55.32332119188761L389.256125,51.78351664091378L391.1499609375,53.27883307359301L391.80551953124996,57.93232137291997L392.8981171875,74.611719678111L393.40799609375,76.64066817050299L393.84503515625,74.78720383087958L394.13639453125,70.42606691633672L394.209234375,66.64411413217951L395.59319140625,49.99410902662655L395.8117109375,40.497634072758615L398.4339453125,42.86069078966902L398.870984375,45.47121949422044L399.96358203125,48.9842251158327L400.10926171875,51.174279687308555L401.3475390625,55.54544430497212L401.42037890625,59.00439845776135L402.8043359375,49.002054746265465L402.87717578125,43.30225019284098L403.0956953125,39.51222660829158L403.75125390625,33.948028547538826L404.5524921875,32.419109292718986L406.37348828125,32.85895481124928L406.5920078125,34.24700715854469L407.39324609375,39.34336667638569L407.611765625,42.51085762457257L407.7574453125,44.603278629475405L407.903125,45.54341753945723L408.777203125,48.451764635002505L410.01548046875,45.94694634314636L411.5451171875,52.16228024374291L412.05499609375,57.72849374550002L412.63771484375,61.794801991263064L412.92907421875,61.3831039786268L413.43895312499995,57.58542518680323L413.51179296875,54.484274549004844L413.5846328125,52.801798582829754L414.31303125,54.6300944029383L416.2068671875,57.33104348036381L416.57106640625,58.992738526073445L417.73650390625,64.02022116851161L418.5377421875,67.20122361019787L418.8291015625,69.52110198616487L418.90194140625,71.42025868148937L419.48466015625,71.64124611798452L419.92169921875,60.079985707900136L420.14021875000003,50.25061044329477L420.79577734375,42.241784029426796L421.08713671875,40.06863112544195L421.597015625,39.532455586220436L421.66985546875,39.951031967676855L422.10689453125,43.49236170657383L422.54393359375,48.22188891448049L422.68961328125,52.49906396836163L422.9081328125,54.558128871739584L425.45752734375003,48.815645561458155L426.33160546875,49.2361187932847L427.71556250000003,45.40308903942077L427.8612421875,44.25484026225333L429.39087890625,40.892611993156386L430.84767578125,36.791497815567084L432.59583203125,45.98355658174083L432.8143515625,51.101226949976635L433.76126953125004,49.49702415049909L434.34398828125,44.997564965263926L434.99954687499996,42.91479436134941L435.21806640625,40.883714235550805L435.36374609374997,38.10223063317176L435.43658593749996,36.39221487249003L438.64153906250004,37.05241774074362L439.078578125,34.172067571159566L439.29709765625006,31.977753398919138L439.8069765625,28.687052457719716L440.75389453124995,28.85124672787225L440.89957421875,29.936819508891304L440.9724140625,31.122816886220754L441.48229296875,35.64554091187272L442.79341015625005,37.440668746564334L444.46872656249997,37.70891410416193L444.83292578125,37.10214511555114L446.28972265625,33.653538267839224L446.43540234375,32.57143037813963L446.87244140625,33.23823711648782L448.76627734374995,48.0465786335291L449.1304765625,61.40075010869523L450.07739453125004,66.43837231752536L450.36875390625,62.112882538020536L451.67987109375,49.18093286975833L452.26258984375,41.38063746954679L453.93790624999997,39.57936722848764L454.22926562500004,40.84285837420198L454.520625,43.34200300503433L454.59346484375,44.96487704050283L456.48730078125,41.387183698334L458.1626171875,38.692201964827795L460.27497265625,39.488015853301874L461.0762109375,36.59306907785469L462.24164843750003,34.814964954125834L463.26140625000005,37.17537520716119L463.33424609375004,37.892465253247344L464.79104296874993,45.28692951372046L466.53919921874996,43.5819411998871L466.68487890625005,43.18956513830056L467.70463671875,46.42253782787557L469.08859375,50.69287317168983L469.30711328125005,51.70594041135907L469.6713125,50.092914721779934L472.36638671875,66.75498059465352L472.87626562500003,66.5663651545549L473.167625,64.34200509459727L473.6046640625,60.64942374878607L474.041703125,59.90074725020378L474.40590234375,59.492666950308724L474.62442187500005,60.23487498929922L474.77010156250003,59.70685561325281L476.5182578125,55.48294471116901L477.10097656249997,62.38045940926533L478.33925390625,68.46565662700453L478.70345312499995,75.14648279345235L478.84913281249993,78.35984871038428L479.72321093749997,65.68769480972664L479.86889062500006,58.1666536678406L480.3059296875,53.119375273990954L481.1800078125,56.31493676551313L481.54420703125004,55.95655954909836L482.27260546875,49.31197669514616L483.00100390625,42.88500001522339L485.04051953124997,45.00597848036983L485.18619921875006,48.965546122534754L485.47755859375,45.52863509095688L486.57015624999997,42.94554678277902L489.55658984375003,37.09104008915431L489.775109375,33.05738392454193L491.0862265625,32.54275302540166L492.39734375,39.23932077719944L493.63562109375,46.13617888655226L493.85414062499996,49.6162527864768L494.21833984375,51.66317152717726L494.58253906249996,57.30565171779786L495.89365625,71.58986292121494L495.96649609375004,82.6417317508646L497.20477343749997,75.28958450506424L497.42329296875005,68.47920524849307L497.93317187499997,67.10738229660116L499.89984765624996,67.57293595866028L500.04552734375005,66.48135906498663L500.55540625,54.03659683880556L501.86652343750006,50.600215577315595L502.01220312500004,48.894815653429525L502.52208203124997,51.860926174062314L503.177640625,51.584228850078325L503.9060390625,51.71981212916095L504.70727734375004,43.72650838789251L504.99863671875,39.095028540148476L505.0714765625,37.029019215930376L506.45543359375,31.224283838462696L506.8196328125,28.276096320700102L506.9653125,27.110387156988637L507.25667187500005,28.426199695871098L507.91223046874995,28.324594218268366L509.22334765625,26.125016096834603L510.68014453125005,26.422931910408998L511.04434375,30.75554472974148L511.69990234375,42.97888963747205L512.13694140625,51.8208944902691L512.20978125,57.37286145667925L512.5011406250001,62.36284038142054L512.71966015625,67.42690339211585L514.32213671875,65.5437825825884L515.6332539062499,62.42608563952999L515.92461328125,58.074125366095465L516.2888125,50.07527605639378L517.45425,48.99112885183167L517.5999296875,47.05198263669381L518.328328125,43.54424161726132L518.7653671875,44.400765662384494L518.911046875,42.529290740648044L519.3480859375,37.75979304457525L519.493765625,34.06183904474054L519.6394453125,30.513283153184815L520.5135234375,35.2112814930295L520.659203125,37.07043785777618L520.8048828125,36.97953544193839L522.48019921875,32.55179064548972L523.1357578125001,31.375728096011848L523.35427734375,32.05471167672111L524.51971484375,31.941149676709184L525.24811328125,30.99563149525669L525.320953125,30.784759878599342L525.4666328124999,30.3566352351319L525.903671875,29.907834013060704L526.85058984375,28.829721936600603L527.2147890625,27.552237764011142L527.72466796875,29.239665329083202L528.16170703125,34.200346743836676L529.108625,30.28108453888899L531.0024609375,42.543412686224045L532.67777734375,43.60834186777133L532.9691367187501,43.31508077651328L533.0419765625,42.85123446777231L533.5518554687501,37.24009115562788L534.7901328125,32.95488812843529L535.59137109375,33.13929651342481L536.392609375,34.71681385332304L536.9024882812499,37.19874620439437L537.33952734375,37.12507008813731L539.0876835937501,39.87750975973609L543.0938749999999,35.05829143933779L543.385234375,31.28937946565345L544.3321523437501,32.16740489552309L545.1333906250001,33.62643875363134L545.42475,31.8148785054192L546.00746875,30.38521508376466L546.08030859375,29.56854263002617L546.37166796875,28.077781378575022L547.10006640625,31.78958000989536L547.82846484375,37.718109550459616L547.9013046875,40.836536784075506L547.97414453125,42.22777703426807L548.55686328125,41.33517280126043L550.01366015625,31.806449972038223L551.76181640625,29.612452219772997L552.19885546875,32.87488491163122L552.2716953125,34.969443803202076L552.49021484375,38.88573566224797L553.21861328125,36.889731469703165L553.874171875,36.02114420741675L554.09269140625,33.80006750589533L554.8210898437501,32.49484552395625L555.1852890625,33.31567346094686L557.8075234375,32.642899587709834L558.46308203125,32.36261206153034L558.60876171875,32.331528363072344L558.9001210937499,31.065356310057567L559.33716015625,31.237871678435113L559.5556796875,33.19210608034769L560.06555859375,35.72184379291746L560.64827734375,43.73779258279059L560.8667968750001,48.053844206456986L561.449515625,47.53150568713765L561.7408750000001,46.68344886682804L562.032234375,45.10530735720621L563.70755078125,42.52703728630527L563.99891015625,39.52691495434708L564.5087890625,37.1647638074804L564.8001484375,35.93939955535114L565.6013867187501,34.957416949341734L566.47546484375,27.733032406155075L567.64090234375,22.53473271828471L569.4618984374999,18.414984667148023L570.55449609375,16.61487836243369L571.5742539062501,16.919435690001094L572.15697265625,16.882830070783292L572.73969140625,17.587446843961438L573.1767304687501,17.694903214908486L573.2495703125,18.431119563444394L575.14340625,18.39303328258903L576.1631640625,18.740332825776804L576.38168359375,20.484124039615573L577.98416015625,20.282876933978912L579.2224375,16.954195959082302L580.0965156249999,17.506879119971792L580.31503515625,18.003001872728788L580.75207421875,20.754604052215036L582.06319140625,22.85795741090999L582.2088710937501,25.408627318527536L583.51998828125,23.196453302071788L583.8113476562501,21.307071144506555L585.340984375,20.653257939944357L585.63234375,18.890060926297938L586.1422226562499,19.011125373028417L587.089140625,18.192671040134524L587.5261796875001,17.139531151912717L588.5459375,17.700341893384852L589.420015625,19.99721829743006L590.51261328125,26.379164413516595L591.09533203125,24.42309404605915L591.168171875,22.7422221558404L592.7706484375,20.499878748049696L593.0620078125,20.470544175543203L594.081765625,22.87945838010396L594.95584375,25.38040230078963L595.02868359375,26.89468067268791L595.5385625,26.624265040908558L596.5583203125,21.29368253195813L596.995359375,18.16388266481583L597.50523828125,15.545710580334854L597.6509179687499,14.41349782036886L598.3064765625,17.956572674598824L598.45215625,20.9872121483495L598.52499609375,23.65556323427781L599.908953125,28.066941705880915L600.12747265625,30.384743076396134L600.78303125,27.511895789241414L601.72994921875,22.964118036621954L602.74970703125,20.15320018654171L603.47810546875,20.289961077612134L604.64354296875,20.276054394259077L605.44478125,22.817591670868236L606.7558984375,25.809386345738265L607.4842968749999,28.11170327961092L607.55713671875,29.438255821193405L607.99417578125,27.231903549312293L608.5040546875,25.743579329960244L608.7954140625,25.08363683359409L608.86825390625,24.989273009247356L608.9410937499999,24.9463667341262L610.5435703125,28.772874167561973L610.61641015625,31.109904226877745L610.90776953125,30.976710774541047L611.05344921875,29.841188845983474L611.7090078125,31.27107694395375L612.0003671875,30.71697511257252L614.11272265625,29.561970651039637L614.1855625,28.224639027919554L614.8411210937501,25.434415596705584L615.059640625,23.19821424949175L615.5695195312501,21.47264056918189L616.29791796875,23.110564904586155L616.3707578125001,24.244120342565314L616.5164375,24.334762277893596L616.88063671875,24.841549949300052L617.31767578125,24.487581586456837L617.60903515625,23.891347696769365L617.75471484375,23.286843308224917L618.9201523437499,21.155666692720835L619.35719140625,21.439796250318185L619.43003125,21.28125873163621L620.01275,20.898246566440896L621.39670703125,29.08582024876897L622.634984375,34.54673018637076L624.5288203125,32.81945587527239L626.2041367187501,30.151706123485546L627.1510546875,29.880839764068266L627.36957421875,29.814283166413286L629.627609375,22.494825282039017L629.70044921875,18.322490567172608L630.86588671875,20.672109175175716L630.9387265625,22.438319632191728L631.667125,22.04488561698369L631.88564453125,21.64431235163556L632.03132421875,22.43215021060844L632.8325625,21.424268597600893L633.2696015625,19.2841281418702L633.48812109375,17.479091719994287L633.77948046875,16.54687070360523L635.09059765625,19.305135583562276L635.1634375,20.713340916010957L635.4547968749999,24.36862147631997L635.6733164062499,29.413283231805888L635.81899609375,36.71732041404801L636.8387539062501,39.86592244973384L637.13011328125,41.59057081492201L637.9313515625,35.935327235712826L638.14987109375,31.55512486925971L639.60666796875,28.7899146321382L640.18938671875,30.70886205387458L640.9177851562499,35.3012047944696L640.9906249999999,37.28890469486358L641.79186328125,35.13650310633579L643.4671796875,53.95630646585225L643.83137890625,55.56956318748364L645.06965625,38.01654293290918L648.2746093750001,28.828215832099893L648.3474492187501,22.986204318373915L648.63880859375,20.522891247806978L648.93016796875,19.04490340546684L650.24128515625,29.851963572044305L650.6783242187499,36.21281241502168L650.7511640625,39.15194073936282L653.8104375,34.23908669592591L654.3931562500001,32.264728928510785L654.975875,47.339096922980076L655.04871484375,57.57640193486048L656.2869921875,49.80405557742021L657.23391015625,45.96320158486656L657.5252695312499,43.49417633311096L658.3265078125,50.745455856462854L659.2005859375,61.3338536585865L659.41910546875,67.89253079533835L659.5647851562501,65.09656842060677L659.85614453125,59.19659894476467L660.4388632812501,51.036649857581494L664.80925390625,39.669987822707675L665.24629296875,31.520207110128528L665.3191328125,26.506961884818246L666.55741015625,24.78767264203263L667.0672890625,30.18565562046462L668.74260546875,22.388633501229393L669.03396484375,17.49106975472383L669.835203125,18.445918763789525L670.05372265625,20.51311405790083L671.292,26.49677543380833L671.7290390625,29.75795700611242L672.6759570312499,27.985791548749116L674.13275390625,37.88976500160389L674.7883125,37.512257327489316L675.95375,42.97502754213459L676.0994296875,47.335709107844686L676.75498828125,45.64746433855267L677.410546875,44.81273189348139L677.9932656249999,48.136730045179746L679.4500625,41.80971117274886L679.5957421874999,36.299863485653916L679.81426171875,33.47377096337387L679.95994140625,31.65473865224307L680.39698046875,33.6341527006232L681.27105859375,34.191184202937805L681.3438984375,34.47056548558549L681.85377734375,31.348010345151046L682.072296875,28.58338425995816L682.4364960937501,25.2658098639472L682.946375,26.387234719859762L683.0920546875,29.30837970576174L686.80688671875,29.772408804902348L687.608125,34.98609689981819L687.82664453125,36.16762135788631L688.19084375,34.833884415850434L689.3562812499999,30.88054715785539L689.647640625,29.53672662124024L689.72048046875,29.114287171252705L689.86616015625,28.943085158975038L690.59455859375,29.40243124009386L690.8859179687499,30.363493434219677L691.17727734375,30.597403477967895L691.8328359375,30.271645433726754L691.90567578125,29.760876914222195L692.2698750000001,29.52296544074744L692.561234375,27.96818386649923L692.63407421875,26.171635500785555L693.726671875,20.66567597487652L695.98470703125,30.289773404972074L696.8587851562501,26.179968113473333L697.3686640625,27.017980868083995L697.73286328125,31.564966155349648L698.75262109375,38.32363340192783L699.4081796875,44.709375020737674L700.50077734375,41.562897739715346L701.302015625,33.45108284326994L701.81189453125,30.1194158525351L701.884734375,28.21637887608965L702.54029296875,27.101970269989714L705.3082070312499,28.256636707448386L705.5267265625,26.86565935379258L705.67240625,23.960997285748547L705.89092578125,19.462669843617093L705.963765625,16.283857288361286L706.255125,14.623333809939734L708.586,16.190623488201034L709.6057578125,18.351105549330423L711.57243359375,26.940630731276187L712.00947265625,35.740958583474544L712.3008320312499,41.04857933376727L713.61194921875,34.51340089061018L713.9761484375,30.880183478702037L715.0687460937501,35.746724922093314L715.287265625,36.66512377050563L715.50578515625,37.36696391628955L717.035421875,42.270946588188195L717.83666015625,50.011518009509146L718.7835781250001,57.452506203654686L718.8564179687501,58.928516883591996L719.5848164062501,51.52012956707813L719.8033359375,46.23884179497875L720.0946953125,43.59101082095036L721.33297265625,36.05257180240689L721.47865234375,31.88594768349491L721.697171875,28.261828175970543L723.22680859375,36.67076586754081L723.37248828125,44.773260357260945L723.7366875,56.6812289416293L724.53792578125,68.54194071192363L725.12064453125,66.91196108020813L725.41200390625,70.58135428262418L726.65028125,71.72739480612458L727.0873203125,70.45461870185655L727.81571875,65.46855052908626L727.9613984375,59.2689873731158L728.3984375,48.44793997025621L728.76263671875,40.131999927421774L729.1268359375,36.499632973143434L729.34535546875,34.93712816700925L730.437953125,33.56093479260613L730.51079296875,33.29728605644968L732.47746875,40.73393443349695L733.0601875,38.87603171389786L733.7885859375,35.540424048757764L734.58982421875,33.67614826692337L736.1194609375,34.038156667007705L736.5565,35.18758030724474L737.35773828125,45.734074201969385L737.430578125,52.77484912323239L739.761453125,45.63447645724909L739.83429296875,40.363196638731566L740.27133203125,34.11588329307562L744.0590039062499,42.2532745936543L744.20468359375,53.40076350108782L744.7145624999999,62.0359452444293L744.9330820312499,68.31378574684402L745.4429609375,68.9548189944931L747.40963671875,80.07365963511026L748.9392734375,65.44103549164852L749.667671875,60.70563864007078L750.8331093749999,45.402841913179515L750.9787890625,34.356726676671904L751.12446875,26.57748845961642L751.4886679687501,21.306752641643428L753.81954296875,36.67899745789979L754.1837421875,53.92216043763046L754.98498046875,59.71664046201899L755.0578203125,60.61602315105726L755.13066015625,58.56463541939858L755.3491796874999,52.98801301322473L756.5146171875,42.65040529772531L758.48129296875,38.29856584931167L758.6998125,34.38510272758239L760.156609375,30.940293398135015L760.5936484375,25.953375202144507L760.6664882812499,22.577371412568677L762.56032421875,16.713219500595187L763.070203125,13.81164371984401L763.5800820312501,15.525384558433352L765.9837968749999,28.274905972542285L766.20231640625,30.728872111357397L767.5862734375,25.70314563231515L767.65911328125,22.673997725402955L768.314671875,19.115448578645545L768.8245507812501,17.00774312956478L769.0430703125,16.716464059557037L769.55294921875,17.56987843573421L769.77146875,18.589167190391183L771.15542578125,30.113175551716928L771.3739453124999,40.2355028208206L772.1751835937499,39.33097692997458L772.976421875,31.64582628693539L773.7048203125,27.103275080133496L773.8505,23.911640285562363L773.92333984375,21.900696190824277L774.1418593750001,20.70783129426198L775.890015625,22.624265759866823L776.25421484375,23.0612478548015L776.3270546875,23.282311512508006L776.6184140624999,23.16818565240005L778.00237109375,50.35337909829369L778.0752109375,69.1047221333814L778.7307695312501,52.142216353315426L779.31348828125,38.89387945021719L780.18756640625,29.053016069011736L782.882640625,24.43715593268899L783.10116015625,22.32567035737619L783.75671875,20.236235649484325L783.82955859375,18.81807242773212L784.26659765625,16.36320290932035L784.41227734375,15.041082035009833L785.0678359375,17.620244618955084L787.61723046875,19.688694317759786L787.90858984375,21.4644178457606" style="fill: none;" fill="none"></path></g></g></g></g><g opacity="0.2"><g><g><g><path stroke="rgb(255, 112, 67)" stroke-width="2px" d="M74.22380078125,342.7272727272727L74.66083984375,342.7272727272727L75.82627734375,342.7272727272727L75.97195703125,342.7272727272727L76.19047656250001,342.7272727272727L76.99171484375,342.7272727272727L78.0843125,342.7272727272727L78.30283203125,342.7272727272727L79.75962890625,342.7272727272727L80.63370703125,342.7272727272727L82.09050390624999,342.7272727272727L84.202859375,342.7272727272727L84.42137890625,342.7272727272727L85.0769375,342.7272727272727L86.242375,342.7272727272727L86.3880546875,342.7272727272727L89.59300781249999,342.7272727272727L89.95720703125001,342.7272727272727L91.0498046875,342.7272727272727L91.48684375,342.7272727272727L91.85104296875,342.7272727272727L92.360921875,342.7272727272727L92.79796093750001,342.7272727272727L95.34735546875001,342.7272727272727L95.49303515625,342.7272727272727L96.07575390625,342.7272727272727L97.605390625,342.7272727272727L98.188109375,342.7272727272727L99.64490625,342.7272727272727L103.5782578125,342.7272727272727L103.65109765625,342.7272727272727L104.889375,342.7272727272727L105.10789453125,342.7272727272727L105.32641406249999,342.7272727272727L106.41901171875,342.7272727272727L106.63753125,342.7272727272727L106.71037109375,342.7272727272727L107.43876953124999,342.7272727272727L108.8227265625,342.7272727272727L110.35236328125,342.7272727272727L111.590640625,342.7272727272727L111.95483984375,342.7272727272727L113.921515625,342.7272727272727L114.64991406249999,342.7272727272727L115.086953125,342.7272727272727L115.59683203125,342.7272727272727L115.66967187499999,342.7272727272727L118.07338671875,342.7272727272727L118.21906640625001,342.7272727272727L119.09314453125,342.7272727272727L119.6030234375,342.7272727272727L119.67586328124999,342.7272727272727L119.82154296875,342.7272727272727L120.0400625,342.7272727272727L120.18574218750001,342.7272727272727L121.05982031250001,342.7272727272727L121.78821875,342.7272727272727L124.92033203125,342.7272727272727L125.21169140624998,342.7272727272727L125.50305078125001,342.7272727272727L126.08576953125,342.7272727272727L126.741328125,342.7272727272727L127.68824609375001,342.7272727272727L127.97960546875,342.7272727272727L128.6351640625,342.7272727272727L128.92652343749998,342.7272727272727L129.072203125,342.7272727272727L129.21788281250002,342.7272727272727L129.72776171875,342.7272727272727L130.0919609375,342.7272727272727L130.23764062499998,342.7272727272727L130.60183984375,342.7272727272727L130.74751953125002,342.7272727272727L131.03887890625,342.7272727272727L131.33023828125,342.7272727272727L131.76727734375,342.7272727272727L131.8401171875,342.7272727272727L133.51543359375,342.7272727272727L133.80679296875,342.7272727272727L136.2105078125,342.7272727272727L136.72038671875,342.7272727272727L137.15742578125,342.7272727272727L138.17718359375,342.7272727272727L138.46854296875,342.7272727272727L138.978421875,342.7272727272727L139.12410156250002,342.7272727272727L139.70682031249999,342.7272727272727L140.726578125,342.7272727272727L140.79941796875,342.7272727272727L141.52781640625,342.7272727272727L141.7463359375,342.7272727272727L142.40189453124998,342.7272727272727L142.98461328125,342.7272727272727L143.640171875,342.7272727272727L143.71301171874998,342.7272727272727L144.15005078125,342.7272727272727L144.22289062500002,342.7272727272727L144.58708984375,342.7272727272727L145.89820703125,342.7272727272727L146.1167265625,342.7272727272727L146.77228515625,342.7272727272727L148.95748046875,342.7272727272727L149.90439843750002,342.7272727272727L150.34143749999998,342.7272727272727L150.55995703124998,342.7272727272727L150.70563671875,342.7272727272727L150.99699609375,342.7272727272727L151.43403515625,342.7272727272727L151.798234375,342.7272727272727L152.5266328125,342.7272727272727L152.963671875,342.7272727272727L153.32787109375,342.7272727272727L154.05626953125,342.7272727272727L157.11554296875,342.7272727272727L157.40690234375,342.7272727272727L157.4797421875,342.7272727272727L157.55258203124998,342.7272727272727L158.86369921874999,342.7272727272727L159.8106171875,342.7272727272727L160.75753515625001,342.7272727272727L162.65137109375,342.7272727272727L163.52544921875,342.7272727272727L164.3266875,342.7272727272727L164.54520703125,342.7272727272727L164.7637265625,342.7272727272727L166.22052343750002,342.7272727272727L166.6575625,342.7272727272727L167.16744140625,342.7272727272727L167.60448046875,342.7272727272727L168.76991796875,342.7272727272727L168.9884375,342.7272727272727L169.78967578125,342.7272727272727L170.0081953125,342.7272727272727L170.22671484375002,342.7272727272727L170.2995546875,342.7272727272727L173.7958671875,342.7272727272727L174.01438671875,342.1103636118499L174.23290625,342.7272727272727L174.30574609375,342.7272727272727L175.90822265625002,340.91081827987324L176.78230078125,338.4089091235941L177.51069921875,341.87045454545455L177.80205859375,339.77981813279064L179.6230546875,332.41118185086685L179.69589453125002,334.36472707661716L180.49713281249998,336.5924546761946L181.0798515625,337.03800011439756L181.3712109375,341.5962726823308L181.516890625,342.2131817977537L183.84776562500002,340.6709090091966L184.139125,334.3304543820294L185.96012109375,325.076817854968L187.12555859375,324.7683644208041L187.1983984375,326.1392722043124L188.29099609375,326.5505461736159L188.58235546875,308.5916362328963L189.74779296875,266.6418155670166L189.8206328125,265.30518129522153L191.423109375,275.79263401031494L191.78730859375,277.43772988752886L192.1515078125,291.352455329895L192.37002734375,291.7980011766607L192.7342265625,261.9807291030884L192.95274609375,249.2655438856645L193.82682421875,243.19926958951086L194.40954296875,273.1536389784379L194.919421875,273.4963610215621L195.42930078125,260.6440882942893L196.084859375,278.5001826026223L196.37621875,274.49027325023303L196.5218984375,267.704274819114L196.667578125,263.3516368865967L196.88609765625,261.8093615445224L197.3959765625,247.92890961386942L198.05153515625,266.9159971237183L198.77993359375,300.8802725965326L199.07129296875002,293.6144548069347L199.21697265625,290.4270901246504L199.4354921875,282.75L199.79969140625,287.6167275342074L200.0182109375,302.90236402858386L200.09105078125,303.587817920338L201.54784765625,308.1118168744174L202.20340625,323.9458181164481L202.6404453125,334.70745483961974L203.15032421875,335.56427302143794L203.22316406250002,334.1590909090909L203.87872265625,330.6632727926428L204.3886015625,335.32436334219847L205.91823828125,332.5825453238054L206.20959765625,336.69527275995773L206.93799609375,340.0882727926428L207.22935546875001,342.3160000091927L207.8849140625,342.59018182124606L208.83183203125,341.5619999877431L209.0503515625,340.4652726373889L209.487390625,336.0440907456658L209.6330703125,332.54827262921765L212.109625,225.7887309334495L212.5466640625,186.99200470664286L213.78494140625,170.0955491152677L214.51333984375,129.92790856794878L214.731859375,129.27673145640978L214.87753906249998,121.18836572820489L216.18865624999998,138.8388124292547L217.2084140625,182.1595506841486L217.35409375,208.00117711153896L218.66521093749998,207.69272204312412L218.9565703125,202.99736206748267L219.5392890625,202.96309509277341L220.77756640625,223.86945349953393L221.21460546875,252.11017998782071L222.96276171875,201.7978218425404L223.9096796875,195.2517314564098L224.12819921875,211.18854179382322L224.2010390625,222.80699424743653L224.34671874999998,234.97381635145706L224.49239843750001,229.2502706354315L224.7837578125,211.18854179382322L225.0751171875,191.6530846335671L225.58499609375,172.56317658857867L226.67759375000003,103.94918809370562L229.1541484375,107.61636886596682L229.4455078125,114.36810032237658L229.95538671875,141.9233631134033L230.61094531249998,110.22110346013848L231.4850234375,87.66964263916014L232.213421875,88.4236468228427L232.35910156249997,88.6978087685325L232.50478125,90.9598213195801L232.86898046875,94.83263008811255L233.0875,104.08628214055841L233.67021874999998,152.10236729708586L233.961578125,161.08181818181816L235.41837499999997,141.7177220431241L235.78257421875,141.27218600186436L235.8554140625,141.88909613869404L236.00109375000002,140.723822888461L236.21961328125,148.02390438426625L236.51097265625,135.27445872913708L236.5838125,124.99264054731889L237.09369140625,104.70319227738813L237.31221093750003,116.25308463356711L237.67641015624997,127.18609300093219L239.06036718750002,122.76490804498847L239.788765625,133.35518129522148L240.2258046875,176.0589963392778L240.66284374999998,212.38809509277343L240.954203125,169.0330898631703L241.82828125,76.53100627552378L241.90112109375,76.11972413496538L243.7221171875,160.1564529765736L244.37767578125002,205.91055173006922L246.92707031249998,127.25464002435858L246.99991015625002,121.01699163263493L247.14558984375,116.04745663729582L250.35054296874998,148.9492695895108L250.93326171875003,127.04899895407938L251.443140625,112.03755382191052L251.5888203125,108.02762485850941L251.73449999999997,106.93089863170276L252.09869921875,92.7762716813521L253.91969531249998,82.01463740955698L253.99253515625003,70.63609300093218L254.72093359375,79.03290072354403L254.86661328125,81.15781922773883L255.23081249999998,72.41826331398703L256.25057031250003,93.9758119062944L256.687609375,114.91645036177202L257.34316796875,89.72600104592064L258.43576562500004,105.62854440862482L258.727125,120.36582759510388L258.87280468750004,120.36582759510388L260.69380078125,55.11055173006926L261.56787890625003,79.40990281538528L262.29627734375,95.34672622680665L262.73331640624997,78.75873877785423L263.97159375,88.80064891468395L264.4086328125,82.73436154452239L264.48147265625,81.26063322587449L265.50123046875,80.12962695035068L265.93826953125,82.15173145640979L266.30246875,93.29036782004616L267.97778515625,70.46471890536222L268.48766406249996,71.73281922773883L268.85186328124996,70.53327900279653L269.79878125,51.44337095780806L270.30866015625,67.03744617808947L271.4012578125,56.37862590443005L272.2753359375,148.2638124292547L272.49385546875004,177.25854963822798L273.51361328125,140.6552758650346L273.73213281249997,121.39399372447622L276.0630078125,105.45717031305486L276.13584765625,101.61864159323952L276.2086875,100.14491327459162L277.5198046875,107.95909090909092L278.61240234375,86.84707835804333L282.10871484374996,94.55844199440695L282.7642734375,72.86382550326263L283.41983203125,47.536282140558406L283.85687109375,67.14026017622515L285.3865078125,70.01918286410248L285.5321875,72.48682341142133L285.60502734375,72.00700732144443L289.0285,59.84017868041991L289.61121875,69.60790072354402L291.28653515625,85.71609823053534L291.94209375,102.09845768321645L292.233453125,92.433549638228L292.5248125,82.63154754638674L293.398890625,71.35581713589752L293.61741015625,67.48300836736507L294.20012890625003,68.40836049860172L294.4186484375,71.49291118275038L296.16680468749996,43.1150971846147L296.45816406250003,45.377083587646496L296.60384375,47.15928004871715L298.643359375,101.27591955011542L300.31867578125,51.306276910955255L301.4112734375,68.23701255104758L301.9939921875,97.02608254172586L302.35819140625,92.33073564009234L302.722390625,76.32535213123667L303.1594296875,67.27735422307796L304.3248671875,87.0870125510476L305.635984375,130.37345768321643L305.70882421875,133.69790333834564L306.218703125,122.97053604125978L306.43722265625,98.63690490722655L308.18537890625004,40.9216447310014L308.4038984375,35.33517345081678L308.91377734375,38.2483761874112L309.132296875,40.13336049860174L309.20513671875,42.978003137761895L309.35081640625,43.320725180885994L309.42365624999996,43.800541270862944L311.24465234375,54.25373354825106L311.9002109375,63.507359452681115L313.6483671875,71.01309509277343L314.2310859375,53.67110346013851L315.25084375,66.11209404685282L315.32368359375,64.94680772261187L316.56196093750003,80.02681295221502L318.67431640625,71.25300313776188L318.81999609375004,65.94071995128286L319.54839453125,55.93308986317026L320.78667187499997,78.62164473100144L321.15087109375,76.35963217995383L322.75334765625,83.04282968694514L322.9718671875,83.07708358764648L323.33606640625,61.211093000932166L324.13730468750003,42.1211849559437L324.282984375,38.89954022494229L324.79286328125,45.411363636363646L325.22990234375,52.81428527832031L325.73978124999996,62.75335526899857L326.17682031249996,84.82499999999999L326.39533984375,76.22253813310103L327.6336171875,36.22627168135209L328.5076953125,43.800541270862944L328.72621484375,46.062553821910505L329.23609375,51.9917209972035L330.40153125,56.207277956875906L330.5472109375,58.33217031305486L330.98425,46.7822779568759L331.275609375,45.719805630770594L332.44104687500004,31.942180772261185L333.67932421874997,32.90181295221503L335.13612109375003,39.1051943692294L336.44723828125,26.732737731933586L336.59291796875,27.315367820046177L336.73859765624996,26.595643685080784L336.9571171875,31.496644731001435L337.17563671874996,34.10135317715733L338.4139140625,26.595643685080784L339.21515234375,31.873646822842687L340.23491015625,39.82491850419479L342.42010546874997,23.134090909090922L342.56578515625,28.10362590443003L344.31394140625,52.84853917902166L344.60530078125,37.048809814453136L344.75098046875,34.75254336270419L345.18801953125,30.125730410489183L345.4065390625,28.617722043124125L345.55221875,28.24071995128283L346.20777734375,52.57435108531605L346.71765625,49.52408044988459L347.66457421875,35.71217554265803L348.24729296875,30.57126645174893L349.19421093750003,56.34437200372871L349.339890625,54.32226749766956L349.55841015625,52.917099276455964L350.72384765625,38.00844199440698L351.08804687500003,39.4479164123535L351.2337265625,38.385444086248235L351.962125,32.79899895407938L352.253484375,30.98254859230734L354.36583984375,33.79291118275034L354.7300390625,30.262824457341985L355.23991796875,27.452461866898982L358.44487109375,67.44872831864792L359.02758984375,54.390827595103865L359.53746875,56.618533949418506L359.82882812500003,56.618533949418506L360.63006640625,56.55000000000001L361.06710546875,49.90108254172585L361.50414453125,30.262824457341985L363.10662109375,22.757088817249628L363.907859375,15.731169267134215L364.27205859375,18.54155800559303L364.9276171875,18.23308986317027L365.00045703125,17.993181818181817L365.87453515625,28.857630088112575L366.67577343749997,33.45018913962624L366.89429296875,36.29480563077058L367.62269140625,39.68782445734199L371.0461640625,36.089177634499286L371.41036328125,27.315367820046177L371.483203125,25.601731456409784L372.2116015625,25.053355268998573L377.52891015625,70.46471890536222L378.3301484375,55.96736991188742L378.40298828125003,55.11055173006926L378.54866796875,59.70308463356711L378.69434765625005,55.45327377319336L378.9128671875,52.3344430403276L378.98570703125,53.15700732144441L380.80670312499996,36.911715767600334L381.17090234375,42.1211849559437L381.38942187500004,43.766261222145786L381.972140625,46.919372003728704L382.77337890625,37.32299790815874L383.42893749999996,30.879734594171687L383.64745703125,34.204193323308786L383.720296875,37.39155800559305L384.81289453125,30.98254859230734L385.97833203125,37.87137409556995L386.41537109374997,32.730465004660886L386.70673046875004,33.69009718461469L387.3622890625,50.38089863170275L387.50796875000003,59.39464263916017L388.16352734375,65.32380981445311L388.45488671875,55.76171576760031L389.256125,46.47380981445314L391.1499609375,55.521807722611854L391.80551953124996,64.91255382191052L392.8981171875,99.63081713589756L393.40799609375,79.68409090909088L393.84503515625,72.00700732144443L394.13639453125,63.88436154452237L394.209234375,60.97118495594371L395.59319140625,25.019101368297232L395.8117109375,26.252921641956682L398.4339453125,46.405275865034604L398.870984375,49.387012551047604L399.96358203125,54.25373354825106L400.10926171875,54.45936154452236L401.3475390625,62.10219123146752L401.42037890625,64.19282968694513L402.8043359375,33.99853917902168L402.87717578125,34.75254336270419L403.0956953125,33.827191231467495L403.75125390625,25.601731456409784L404.5524921875,30.125730410489183L406.37348828125,33.518723089044734L406.5920078125,36.32908567948774L407.39324609375,46.9879059531472L407.611765625,47.2620940468528L407.7574453125,47.7419101368297L407.903125,46.95362590443004L408.777203125,52.81428527832031L410.01548046875,42.189718905362234L411.5451171875,61.48528109463777L412.05499609375,66.07781399813567L412.63771484375,67.89426435990767L412.92907421875,60.765556959672416L413.43895312499995,51.88890699906781L413.51179296875,49.832548592307354L413.5846328125,50.278084633567104L414.31303125,57.37253813310101L416.2068671875,61.382467096502126L416.57106640625,61.48528109463777L417.73650390625,71.56144513216887L418.5377421875,71.97272727272727L418.8291015625,73.00091955011543L418.90194140625,74.26899372447622L419.48466015625,71.97272727272727L419.92169921875,42.73809509277345L420.14021875000003,35.506547546386734L420.79577734375,30.22854440862483L421.08713671875,36.80890176946468L421.597015625,38.728192277388146L421.66985546875,40.57889653986149L422.10689453125,48.8043563149192L422.54393359375,55.31617972634056L422.68961328125,58.91482654918322L422.9081328125,57.646726226806656L425.45752734375003,40.20192059603605L426.33160546875,49.866828641024505L427.71556250000003,39.65354440862484L427.8612421875,42.532467096502145L429.39087890625,35.84926958951083L430.84767578125,30.639826549183237L432.59583203125,59.771644731001416L432.8143515625,58.777732502330416L433.76126953125004,47.09071995128285L434.34398828125,38.2483761874112L434.99954687499996,39.79063845547764L435.21806640625,37.83709404685279L435.36374609374997,33.93000522960314L435.43658593749996,33.827191231467495L438.64153906250004,38.042722043124094L439.078578125,29.851542316783576L439.29709765625006,28.686282140558433L439.8069765625,23.751001045920628L440.75389453124995,29.09753813310103L440.89957421875,31.56517868041993L440.9724140625,32.90181295221503L441.48229296875,42.42962695035069L442.79341015625005,40.13336049860174L444.46872656249997,38.1112821405584L444.83292578125,36.19199163263494L446.28972265625,28.480627996271323L446.43540234375,30.948268543590185L446.87244140625,34.23844722401013L448.76627734374995,70.25909090909092L449.1304765625,81.43200732144443L450.07739453125004,73.99480563077057L450.36875390625,55.62464786876332L451.67987109375,29.78300836736504L452.26258984375,29.68019436922939L453.93790624999997,36.87746186689899L454.22926562500004,42.73809509277345L454.520625,47.09071995128285L454.59346484375,47.399188093705604L456.48730078125,36.02064368508079L458.1626171875,34.649729364568536L460.27497265625,40.68173668601295L461.0762109375,32.25064891468394L462.24164843750003,32.14780876853248L463.26140625000005,40.71599058671429L463.33424609375004,38.9681003223766L464.79104296874993,56.37862590443005L466.53919921874996,41.024458729137095L466.68487890625005,42.60100104592065L467.70463671875,51.271996862238105L469.08859375,57.09837618741122L469.30711328125005,53.225541270862905L469.6713125,47.67337618741121L472.36638671875,91.74807940396394L472.87626562500003,66.28344199440696L473.167625,61.00546500466087L473.6046640625,55.11055173006926L474.041703125,58.777732502330416L474.40590234375,58.88054650046607L474.62442187500005,61.34818704778497L474.77010156250003,58.91482654918322L476.5182578125,49.147078358043345L477.10097656249997,72.72673145640978L478.33925390625,77.59345245361328L478.70345312499995,85.16772204312409L478.84913281249993,83.17989758578213L479.72321093749997,46.67946395874025L479.86889062500006,46.885091955011546L480.3059296875,45.54845768321645L481.1800078125,61.10827900279652L481.54420703125004,55.41899372447621L482.27260546875,39.34510241421785L483.00100390625,33.24453499533913L485.04051953124997,48.187446178089495L485.18619921875006,54.90489758578215L485.47755859375,40.37326854359019L486.57015624999997,39.070914320512244L489.55658984375003,28.309280048717138L489.775109375,27.00689967762342L491.0862265625,31.77080667669123L492.39734375,49.28417240489615L493.63562109375,56.48146605058151L493.85414062499996,54.83636363636366L494.21833984375,54.73354963822796L494.58253906249996,65.76937200372868L495.89365625,93.01617972634055L495.96649609375004,99.21953499533915L497.20477343749997,64.26136363636363L497.42329296875005,58.263636363636365L497.93317187499997,65.04964786876333L499.89984765624996,68.27126645174893L500.04552734375005,64.84399372447622L500.55540625,35.36945349953393L501.86652343750006,45.4456436850808L502.01220312500004,46.33671576760034L502.52208203124997,56.31009195501156L503.177640625,51.16918286410245L503.9060390625,51.923187047784964L504.70727734375004,31.736552775989885L504.99863671875,32.14780876853248L505.0714765625,33.93000522960314L506.45543359375,22.517180772261174L506.8196328125,23.853815044056276L506.9653125,25.36182341142133L507.25667187500005,30.399918504194787L507.91223046874995,28.172186001864333L509.22334765625,22.825648914683935L510.68014453125005,26.869805630770575L511.04434375,37.254463958740246L511.69990234375,61.31390699906782L512.13694140625,65.08390176946466L512.20978125,65.70081190629438L512.5011406250001,69.84780876853247L512.71966015625,75.02299790815873L514.32213671875,62.719101368297224L515.6332539062499,57.74954022494231L515.92461328125,51.54618495594371L516.2888125,38.077002091841244L517.45425,47.364908044988454L517.5999296875,44.14326331398704L518.328328125,38.28263008811258L518.7653671875,45.68555173006925L518.911046875,39.72207835804333L519.3480859375,30.605546500466083L519.493765625,28.514908044988477L519.6394453125,25.190449315851374L520.5135234375,42.2582790027965L520.659203125,39.859172404896135L520.8048828125,36.84318181818183L522.48019921875,25.91017345081677L523.1357578125001,29.611634271795083L523.35427734375,33.073187047784984L524.51971484375,31.77080667669123L525.24811328125,29.57735422307793L525.320953125,30.46845245361328L525.4666328124999,29.71444826993073L525.903671875,29.23463217995383L526.85058984375,27.21255382191053L527.2147890625,25.636011505126937L527.72466796875,31.77080667669123L528.16170703125,41.6413688659668L529.108625,24.402191231467526L531.0024609375,60.93690490722656L532.67777734375,45.20573564009235L532.9691367187501,42.87518913962625L533.0419765625,42.155465004660854L533.5518554687501,28.823376187411235L534.7901328125,26.527083587646477L535.59137109375,33.41590909090909L536.392609375,37.08308986317029L536.9024882812499,40.9216447310014L537.33952734375,37.01455591375179L539.0876835937501,44.00616926713424L543.0938749999999,27.829463958740234L543.385234375,25.636011505126937L544.3321523437501,33.484443040327584L545.1333906250001,35.81498954079368L545.42475,29.09753813310103L546.00746875,28.24071995128283L546.08030859375,28.34353394941852L546.37166796875,25.841639501398276L547.10006640625,37.35727795687589L547.82846484375,46.61090386130594L547.9013046875,45.5141776344993L547.97414453125,44.314637409556994L548.55686328125,39.99626645174894L550.01366015625,17.513365728204917L551.76181640625,26.321455591375177L552.19885546875,37.76853394941849L552.2716953125,38.1112821405584L552.49021484375,44.760173450816744L553.21861328125,33.89572518088599L553.874171875,34.71826331398703L554.09269140625,30.46845245361328L554.8210898437501,30.53701255104759L555.1852890625,34.54691536643289L557.8075234375,31.633738777854237L558.46308203125,31.942180772261185L558.60876171875,32.28490281538529L558.9001210937499,29.166098230535333L559.33716015625,31.496644731001435L559.5556796875,36.123457683216444L560.06555859375,39.51645036177204L560.64827734375,55.76171576760031L560.8667968750001,54.52792164195667L561.449515625,46.747997908158744L561.7408750000001,45.411363636363646L562.032234375,42.73809509277345L563.70755078125,38.65963217995384L563.99891015625,35.02673145640979L564.5087890625,33.621537087180386L564.8001484375,34.10135317715733L565.6013867187501,33.484443040327584L566.47546484375,16.89645559137517L567.64090234375,14.737283186479067L569.4618984374999,12.23536259044301L570.55449609375,13.91471890536221L571.5742539062501,17.376271681352115L572.15697265625,16.827921641956674L572.73969140625,18.644372003728677L573.1767304687501,17.856087771329015L573.2495703125,19.535444086248216L575.14340625,18.33590386130592L576.1631640625,19.261282140558425L576.38168359375,23.09981086037377L577.98416015625,19.98100627552378L579.2224375,11.961174496737407L580.0965156249999,18.33590386130592L580.31503515625,18.747186001864325L580.75207421875,24.88200732144443L582.06319140625,26.01298744895242L582.2088710937501,29.23463217995383L583.51998828125,19.878192277388127L583.8113476562501,18.47299790815872L585.340984375,19.672538133101018L585.63234375,16.245265405828313L586.1422226562499,19.192722043124117L587.089140625,16.964989540793667L587.5261796875001,15.55982131958007L588.5459375,18.54155800559303L589.420015625,23.44253290349787L590.51261328125,35.952083587646484L591.09533203125,21.488988494873063L591.168171875,20.22091432051227L592.7706484375,17.136363636363622L593.0620078125,20.426542316783568L594.081765625,26.492829686945136L594.95584375,29.131818181818183L595.02868359375,29.166098230535333L595.5385625,26.21864159323953L596.5583203125,13.297808768532507L596.995359375,13.469182864102462L597.50523828125,11.618452453613264L597.6509179687499,12.715178680419914L598.3064765625,23.271184955943724L598.45215625,25.53317135897552L598.52499609375,27.65808986317028L599.908953125,34.68400941328569L600.12747265625,33.861445132168875L600.78303125,23.202624858509417L601.72994921875,16.14245140769266L602.74970703125,15.936823411421324L603.47810546875,20.495102414217875L604.64354296875,20.255194369229425L605.44478125,26.629897585782125L606.7558984375,30.297078358043326L607.4842968749999,31.56517868041993L607.55713671875,31.428084633567128L607.99417578125,23.922375141490583L608.5040546875,23.511093000932174L608.7954140625,24.093723089044726L608.86825390625,24.847727272727276L608.9410937499999,24.88200732144443L610.5435703125,34.512635317715734L610.61641015625,34.615449315851386L610.90776953125,30.77692059603604L611.05344921875,28.137905953147182L611.7090078125,33.41590909090909L612.0003671875,29.88582236550073L614.11272265625,27.829463958740234L614.1855625,26.21864159323953L614.8411210937501,21.24908044988457L615.059640625,19.843912228670973L615.5695195312501,18.88428004871717L616.29791796875,25.56745140769263L616.3707578125001,25.944453499533925L616.5164375,24.47072518088602L616.88063671875,25.601731456409784L617.31767578125,23.956629042191924L617.60903515625,22.99699686223812L617.75471484375,22.380086725408372L618.9201523437499,17.958901769464667L619.35719140625,21.865990586714318L619.43003125,21.043452453613273L620.01275,20.32372831864792L621.39670703125,41.36718077226119L622.634984375,42.73809509277345L624.5288203125,30.22854440862483L626.2041367187501,26.15008149580522L627.1510546875,29.47454022494228L627.36957421875,29.71444826993073L629.627609375,11.515638455477616L629.70044921875,12.063988494873055L630.86588671875,24.196537087180417L630.9387265625,25.087635317715726L631.667125,21.45473459417168L631.88564453125,21.043452453613273L632.03132421875,23.613906999067826L632.8325625,19.91244617808947L633.2696015625,16.073917458274167L633.48812109375,14.771537087180409L633.77948046875,15.148539179021663L635.09059765625,23.44253290349787L635.1634375,22.825648914683935L635.4547968749999,29.851542316783576L635.6733164062499,36.980275865034635L635.81899609375,47.67337618741121L636.8387539062501,44.588825503262605L637.13011328125,44.17754336270419L637.9313515625,27.452461866898982L638.14987109375,24.984821319580078L639.60666796875,24.64209927645598L640.18938671875,33.58728318647904L640.9177851562499,42.189718905362234L640.9906249999999,40.27045454545454L641.79186328125,31.90790072354403L643.4671796875,82.18601150512694L643.83137890625,57.989448269930755L645.06965625,11.687012551047571L648.2746093750001,15.045725180886015L648.3474492187501,14.22318704778497L648.63880859375,16.827921641956674L648.93016796875,16.827921641956674L650.24128515625,46.062553821910505L650.6783242187499,45.754085679487744L650.7511640625,43.56063322587445L653.8104375,26.869805630770575L654.3931562500001,29.30319227738814L654.975875,69.95064891468394L655.04871484375,72.93235945268113L656.2869921875,38.14553604125978L657.23391015625,40.20192059603605L657.5252695312499,39.79063845547764L658.3265078125,61.62237514149057L659.2005859375,77.21645036177203L659.41910546875,77.73054650046609L659.5647851562501,60.90262485850941L659.85614453125,50.34664473100141L660.4388632812501,38.79672622680664L664.80925390625,22.619994770396826L665.24629296875,19.295536041259766L665.3191328125,18.987094046852818L666.55741015625,22.20873877785423L667.0672890625,38.28263008811258L668.74260546875,10.693100322376614L669.03396484375,10.144724134965362L669.835203125,19.878192277388127L670.05372265625,23.613906999067826L671.292,35.472267497669584L671.7290390625,34.649729364568536L672.6759570312499,25.327543362704176L674.13275390625,52.745725180886005L674.7883125,36.945995816317485L675.95375,51.16918286410245L676.0994296875,53.87673145640981L676.75498828125,43.1150971846147L677.410546875,43.56063322587445L677.9932656249999,53.12272727272726L679.4500625,32.31918286410244L679.5957421874999,28.03509195501153L679.81426171875,29.23463217995383L679.95994140625,28.926190185546883L680.39698046875,36.603273773193344L681.27105859375,35.02673145640979L681.3438984375,34.88963740955699L681.85377734375,26.66417763449928L682.072296875,24.43644513216887L682.4364960937501,20.289448269930766L682.946375,28.069372003728684L683.0920546875,33.69009718461469L686.80688671875,30.46845245361328L687.608125,42.80662904219194L687.82664453125,37.93990804498844L688.19084375,32.83327900279654L689.3562812499999,24.950541270862924L689.647640625,27.520995816317477L689.72048046875,28.480627996271323L689.86616015625,28.686282140558433L690.59455859375,30.09145036177203L690.8859179687499,31.80508672540838L691.17727734375,30.948268543590185L691.8328359375,29.78300836736504L691.90567578125,28.994724134965377L692.2698750000001,29.166098230535333L692.561234375,25.636011505126937L692.63407421875,23.47681295221502L693.726671875,12.406736686012968L695.98470703125,44.72591955011541L696.8587851562501,20.015260176225162L697.3686640625,28.274999999999984L697.73286328125,38.385444086248235L698.75262109375,48.4616342717951L699.4081796875,54.2879874489524L700.50077734375,36.84318181818183L701.302015625,21.283360498601724L701.81189453125,25.12191536643288L701.884734375,25.36182341142133L702.54029296875,25.430357360839828L705.3082070312499,29.988636363636378L705.5267265625,24.77919332330878L705.67240625,19.604004183682523L705.89092578125,12.715178680419914L705.963765625,11.515638455477616L706.255125,12.132548592307362L708.586,18.54155800559303L709.6057578125,21.59182864102448L711.57243359375,39.82491850419479L712.00947265625,48.941450361772006L712.3008320312499,49.010010459206306L713.61194921875,24.710633225874474L713.9761484375,25.430357360839828L715.0687460937501,43.04653708718039L715.287265625,38.042722043124094L715.50578515625,38.419724134965385L717.035421875,49.62692059603606L717.83666015625,61.62237514149057L718.7835781250001,68.61398849487307L718.8564179687501,61.14253290349786L719.5848164062501,40.40754859230734L719.8033359375,38.31691013682974L720.0946953125,39.61926435990768L721.33297265625,24.744913274591628L721.47865234375,25.636011505126937L721.697171875,22.825648914683935L723.22680859375,49.28417240489615L723.37248828125,56.92700209184126L723.7366875,74.54318181818182L724.53792578125,86.33300836736505L725.12064453125,64.46699163263496L725.41200390625,76.08544408624823L726.65028125,73.44645559137518L727.0873203125,68.54545454545453L727.81571875,57.989448269930755L727.9613984375,49.969642639160156L728.3984375,32.216368865966786L728.76263671875,27.65808986317028L729.1268359375,31.051082541725833L729.34535546875,32.59337095780804L730.437953125,31.496644731001435L730.51079296875,32.90181295221503L732.47746875,51.88890699906781L733.0601875,36.089177634499286L733.7885859375,30.53701255104759L734.58982421875,30.879734594171687L736.1194609375,34.58116926713423L736.5565,36.911715767600334L737.35773828125,61.553815044056265L737.430578125,63.33601150512697L739.761453125,34.92391745827414L739.83429296875,32.45627691095524L740.27133203125,24.744913274591628L744.0590039062499,54.45936154452236L744.20468359375,70.12199686223812L744.7145624999999,74.98871785944158L744.9330820312499,77.73054650046609L745.4429609375,69.91636886596677L747.40963671875,96.75192059603606L748.9392734375,43.49209927645595L749.667671875,53.6025433627042L750.8331093749999,22.44864682284268L750.9787890625,17.78755382191052L751.12446875,14.908631134033211L751.4886679687501,13.400648914683966L753.81954296875,59.737364682284266L754.1837421875,79.78690490722659L754.98498046875,68.40836049860172L755.0578203125,61.96509718461471L755.13066015625,55.48755382191051L755.3491796874999,44.62307940396394L756.5146171875,27.14399372447622L758.48129296875,31.77080667669123L758.6998125,28.514908044988477L760.156609375,25.77307940396397L760.5936484375,18.47299790815872L760.6664882812499,17.513365728204917L762.56032421875,7.916991632634952L763.070203125,9.459280048717162L763.5800820312501,18.09599581631747L765.9837968749999,47.399188093705604L766.20231640625,34.40982131958009L767.5862734375,18.164555913751776L767.65911328125,18.130275865034623L768.314671875,13.777624858509409L768.8245507812501,13.846184955943716L769.0430703125,16.279545454545467L769.55294921875,18.850000000000016L769.77146875,20.11810032237658L771.15542578125,47.399188093705604L771.3739453124999,55.41899372447621L772.1751835937499,37.9741880937056L772.976421875,20.11810032237658L773.7048203125,20.289448269930766L773.8505,19.124188093705623L773.92333984375,18.88428004871717L774.1418593750001,18.918533949418514L775.890015625,25.498917458274136L776.25421484375,23.716720997203474L776.3270546875,23.613906999067826L776.6184140624999,22.99699686223812L778.00237109375,91.13116926713424L778.0752109375,97.23173668601297L778.7307695312501,26.698457683216432L779.31348828125,19.02137409556997L780.18756640625,14.291720997203464L782.882640625,17.513365728204917L783.10116015625,19.158441994406964L783.75671875,17.10208358764647L783.82955859375,16.690827595103872L784.26659765625,12.68089863170276L784.41227734375,13.057900723544014L785.0678359375,21.488988494873063L787.61723046875,22.79136886596678L787.90858984375,24.12800313776188" style="fill: none;" fill="none"></path></g></g></g></g></g><g><g opacity="0.779386"><span fill="rgb(0, 0, 0)" stroke="none" stroke-width="1px">Alt + Scroll to Zoom</span></g></g></g><g transform="translate(41, 377)" clip-path="url(#clip_1)"><clipPath id="clip_1"><rect width="874" height="23"></rect></clipPath><g><g><line x1="0" y1="0" x2="0" y2="5" style="visibility: inherit;" fill="rgb(0, 0, 0)" stroke="rgb(204, 204, 204)" stroke-width="1px"></line><line x1="72.83984375" y1="0" x2="72.83984375" y2="5" style="visibility: inherit;" fill="rgb(0, 0, 0)" stroke="rgb(204, 204, 204)" stroke-width="1px"></line><line x1="145.6796875" y1="0" x2="145.6796875" y2="5" style="visibility: inherit;" fill="rgb(0, 0, 0)" stroke="rgb(204, 204, 204)" stroke-width="1px"></line><line x1="218.51953125" y1="0" x2="218.51953125" y2="5" style="visibility: inherit;" fill="rgb(0, 0, 0)" stroke="rgb(204, 204, 204)" stroke-width="1px"></line><line x1="291.359375" y1="0" x2="291.359375" y2="5" style="visibility: inherit;" fill="rgb(0, 0, 0)" stroke="rgb(204, 204, 204)" stroke-width="1px"></line><line x1="364.19921875" y1="0" x2="364.19921875" y2="5" style="visibility: inherit;" fill="rgb(0, 0, 0)" stroke="rgb(204, 204, 204)" stroke-width="1px"></line><line x1="437.0390625" y1="0" x2="437.0390625" y2="5" style="visibility: inherit;" fill="rgb(0, 0, 0)" stroke="rgb(204, 204, 204)" stroke-width="1px"></line><line x1="509.87890625000006" y1="0" x2="509.87890625000006" y2="5" style="visibility: inherit;" fill="rgb(0, 0, 0)" stroke="rgb(204, 204, 204)" stroke-width="1px"></line><line x1="582.71875" y1="0" x2="582.71875" y2="5" style="visibility: inherit;" fill="rgb(0, 0, 0)" stroke="rgb(204, 204, 204)" stroke-width="1px"></line><line x1="655.55859375" y1="0" x2="655.55859375" y2="5" style="visibility: inherit;" fill="rgb(0, 0, 0)" stroke="rgb(204, 204, 204)" stroke-width="1px"></line><line x1="728.3984375" y1="0" x2="728.3984375" y2="5" style="visibility: inherit;" fill="rgb(0, 0, 0)" stroke="rgb(204, 204, 204)" stroke-width="1px"></line><line x1="801.23828125" y1="0" x2="801.23828125" y2="5" style="visibility: inherit;" fill="rgb(0, 0, 0)" stroke="rgb(204, 204, 204)" stroke-width="1px"></line><line x1="874.078125" y1="0" x2="874.078125" y2="5" style="visibility: inherit;" fill="rgb(0, 0, 0)" stroke="rgb(204, 204, 204)" stroke-width="1px"></line></g><g transform="translate(0, 8)"><text x="0" y="0" dx="0em" dy="0.95em" style="text-anchor: middle; visibility: hidden; font-family: Roboto, sans-serif; font-size: 12px; font-weight: 200;" fill="rgb(33, 33, 33)" stroke="none" stroke-width="1px">-50k</text><text x="72.83984375" y="0" dx="0em" dy="0.95em" style="text-anchor: middle; visibility: inherit; font-family: Roboto, sans-serif; font-size: 12px; font-weight: 200;" fill="rgb(33, 33, 33)" stroke="none" stroke-width="1px">0</text><text x="145.6796875" y="0" dx="0em" dy="0.95em" style="text-anchor: middle; visibility: inherit; font-family: Roboto, sans-serif; font-size: 12px; font-weight: 200;" fill="rgb(33, 33, 33)" stroke="none" stroke-width="1px">50k</text><text x="218.51953125" y="0" dx="0em" dy="0.95em" style="text-anchor: middle; visibility: inherit; font-family: Roboto, sans-serif; font-size: 12px; font-weight: 200;" fill="rgb(33, 33, 33)" stroke="none" stroke-width="1px">100k</text><text x="291.359375" y="0" dx="0em" dy="0.95em" style="text-anchor: middle; visibility: inherit; font-family: Roboto, sans-serif; font-size: 12px; font-weight: 200;" fill="rgb(33, 33, 33)" stroke="none" stroke-width="1px">150k</text><text x="364.19921875" y="0" dx="0em" dy="0.95em" style="text-anchor: middle; visibility: inherit; font-family: Roboto, sans-serif; font-size: 12px; font-weight: 200;" fill="rgb(33, 33, 33)" stroke="none" stroke-width="1px">200k</text><text x="437.0390625" y="0" dx="0em" dy="0.95em" style="text-anchor: middle; visibility: inherit; font-family: Roboto, sans-serif; font-size: 12px; font-weight: 200;" fill="rgb(33, 33, 33)" stroke="none" stroke-width="1px">250k</text><text x="509.87890625000006" y="0" dx="0em" dy="0.95em" style="text-anchor: middle; visibility: inherit; font-family: Roboto, sans-serif; font-size: 12px; font-weight: 200;" fill="rgb(33, 33, 33)" stroke="none" stroke-width="1px">300k</text><text x="582.71875" y="0" dx="0em" dy="0.95em" style="text-anchor: middle; visibility: inherit; font-family: Roboto, sans-serif; font-size: 12px; font-weight: 200;" fill="rgb(33, 33, 33)" stroke="none" stroke-width="1px">350k</text><text x="655.55859375" y="0" dx="0em" dy="0.95em" style="text-anchor: middle; visibility: inherit; font-family: Roboto, sans-serif; font-size: 12px; font-weight: 200;" fill="rgb(33, 33, 33)" stroke="none" stroke-width="1px">400k</text><text x="728.3984375" y="0" dx="0em" dy="0.95em" style="text-anchor: middle; visibility: inherit; font-family: Roboto, sans-serif; font-size: 12px; font-weight: 200;" fill="rgb(33, 33, 33)" stroke="none" stroke-width="1px">450k</text><text x="801.23828125" y="0" dx="0em" dy="0.95em" style="text-anchor: middle; visibility: inherit; font-family: Roboto, sans-serif; font-size: 12px; font-weight: 200;" fill="rgb(33, 33, 33)" stroke="none" stroke-width="1px">500k</text><text x="874.078125" y="0" dx="0em" dy="0.95em" style="text-anchor: middle; visibility: hidden; font-family: Roboto, sans-serif; font-size: 12px; font-weight: 200;" fill="rgb(33, 33, 33)" stroke="none" stroke-width="1px">550k</text></g><line x1="0" y1="0" x2="874.078125" y2="0" fill="rgb(0, 0, 0)" stroke="rgb(204, 204, 204)" stroke-width="1px"></line></g></g></g></g></svg>