<svg viewBox="0 0 915.25 400" xmlns="http://www.w3.org/2000/svg"><g><g><g><g><g><line x1="30.78125" y1="377" x2="25.78125" y2="377" style="visibility: inherit;" fill="rgb(0, 0, 0)" stroke="rgb(204, 204, 204)" stroke-width="1px"></line><line x1="30.78125" y1="339.3" x2="25.78125" y2="339.3" style="visibility: inherit;" fill="rgb(0, 0, 0)" stroke="rgb(204, 204, 204)" stroke-width="1px"></line><line x1="30.78125" y1="301.6" x2="25.78125" y2="301.6" style="visibility: inherit;" fill="rgb(0, 0, 0)" stroke="rgb(204, 204, 204)" stroke-width="1px"></line><line x1="30.78125" y1="263.9" x2="25.78125" y2="263.9" style="visibility: inherit;" fill="rgb(0, 0, 0)" stroke="rgb(204, 204, 204)" stroke-width="1px"></line><line x1="30.78125" y1="226.2" x2="25.78125" y2="226.2" style="visibility: inherit;" fill="rgb(0, 0, 0)" stroke="rgb(204, 204, 204)" stroke-width="1px"></line><line x1="30.78125" y1="188.5" x2="25.78125" y2="188.5" style="visibility: inherit;" fill="rgb(0, 0, 0)" stroke="rgb(204, 204, 204)" stroke-width="1px"></line><line x1="30.78125" y1="150.8" x2="25.78125" y2="150.8" style="visibility: inherit;" fill="rgb(0, 0, 0)" stroke="rgb(204, 204, 204)" stroke-width="1px"></line><line x1="30.78125" y1="113.10000000000002" x2="25.78125" y2="113.10000000000002" style="visibility: inherit;" fill="rgb(0, 0, 0)" stroke="rgb(204, 204, 204)" stroke-width="1px"></line><line x1="30.78125" y1="75.39999999999998" x2="25.78125" y2="75.39999999999998" style="visibility: inherit;" fill="rgb(0, 0, 0)" stroke="rgb(204, 204, 204)" stroke-width="1px"></line><line x1="30.78125" y1="37.69999999999999" x2="25.78125" y2="37.69999999999999" style="visibility: inherit;" fill="rgb(0, 0, 0)" stroke="rgb(204, 204, 204)" stroke-width="1px"></line><line x1="30.78125" y1="0" x2="25.78125" y2="0" style="visibility: inherit;" fill="rgb(0, 0, 0)" stroke="rgb(204, 204, 204)" stroke-width="1px"></line></g><g transform="translate(20.78125, 0)"><text x="0" y="377" dx="0em" dy="0.3em" style="text-anchor: end; visibility: hidden; font-family: Roboto, sans-serif; font-size: 12px; font-weight: 200;" fill="rgb(33, 33, 33)" stroke="none" stroke-width="1px">68</text><text x="0" y="339.3" dx="0em" dy="0.3em" style="text-anchor: end; visibility: inherit; font-family: Roboto, sans-serif; font-size: 12px; font-weight: 200;" fill="rgb(33, 33, 33)" stroke="none" stroke-width="1px">70</text><text x="0" y="301.6" dx="0em" dy="0.3em" style="text-anchor: end; visibility: inherit; font-family: Roboto, sans-serif; font-size: 12px; font-weight: 200;" fill="rgb(33, 33, 33)" stroke="none" stroke-width="1px">72</text><text x="0" y="263.9" dx="0em" dy="0.3em" style="text-anchor: end; visibility: inherit; font-family: Roboto, sans-serif; font-size: 12px; font-weight: 200;" fill="rgb(33, 33, 33)" stroke="none" stroke-width="1px">74</text><text x="0" y="226.2" dx="0em" dy="0.3em" style="text-anchor: end; visibility: inherit; font-family: Roboto, sans-serif; font-size: 12px; font-weight: 200;" fill="rgb(33, 33, 33)" stroke="none" stroke-width="1px">76</text><text x="0" y="188.5" dx="0em" dy="0.3em" style="text-anchor: end; visibility: inherit; font-family: Roboto, sans-serif; font-size: 12px; font-weight: 200;" fill="rgb(33, 33, 33)" stroke="none" stroke-width="1px">78</text><text x="0" y="150.8" dx="0em" dy="0.3em" style="text-anchor: end; visibility: inherit; font-family: Roboto, sans-serif; font-size: 12px; font-weight: 200;" fill="rgb(33, 33, 33)" stroke="none" stroke-width="1px">80</text><text x="0" y="113.10000000000002" dx="0em" dy="0.3em" style="text-anchor: end; visibility: inherit; font-family: Roboto, sans-serif; font-size: 12px; font-weight: 200;" fill="rgb(33, 33, 33)" stroke="none" stroke-width="1px">82</text><text x="0" y="75.39999999999998" dx="0em" dy="0.3em" style="text-anchor: end; visibility: inherit; font-family: Roboto, sans-serif; font-size: 12px; font-weight: 200;" fill="rgb(33, 33, 33)" stroke="none" stroke-width="1px">84</text><text x="0" y="37.69999999999999" dx="0em" dy="0.3em" style="text-anchor: end; visibility: inherit; font-family: Roboto, sans-serif; font-size: 12px; font-weight: 200;" fill="rgb(33, 33, 33)" stroke="none" stroke-width="1px">86</text><text x="0" y="0" dx="0em" dy="0.3em" style="text-anchor: end; visibility: hidden; font-family: Roboto, sans-serif; font-size: 12px; font-weight: 200;" fill="rgb(33, 33, 33)" stroke="none" stroke-width="1px">88</text></g><line x1="30.78125" y1="0" x2="30.78125" y2="377" fill="rgb(0, 0, 0)" stroke="rgb(204, 204, 204)" stroke-width="1px"></line></g></g><g transform="translate(30, 0)" clip-path="url(#clip_0)"><clipPath id="clip_0"><rect width="884" height="377"></rect></clipPath><g><g><g><line x1="0" y1="0" x2="0" y2="377" fill="rgb(0, 0, 0)" stroke="rgb(66, 66, 66)" stroke-width="1px" opacity="0.25"></line><line x1="73.70572916666666" y1="0" x2="73.70572916666666" y2="377" fill="rgb(0, 0, 0)" stroke="rgb(66, 66, 66)" stroke-width="1px" opacity="0.25"></line><line x1="147.41145833333331" y1="0" x2="147.41145833333331" y2="377" fill="rgb(0, 0, 0)" stroke="rgb(66, 66, 66)" stroke-width="1px" opacity="0.25"></line><line x1="221.1171875" y1="0" x2="221.1171875" y2="377" fill="rgb(0, 0, 0)" stroke="rgb(66, 66, 66)" stroke-width="1px" opacity="0.25"></line><line x1="294.82291666666663" y1="0" x2="294.82291666666663" y2="377" fill="rgb(0, 0, 0)" stroke="rgb(66, 66, 66)" stroke-width="1px" opacity="0.25"></line><line x1="368.52864583333337" y1="0" x2="368.52864583333337" y2="377" fill="rgb(0, 0, 0)" stroke="rgb(66, 66, 66)" stroke-width="1px" opacity="0.25"></line><line x1="442.234375" y1="0" x2="442.234375" y2="377" fill="rgb(0, 0, 0)" stroke="rgb(66, 66, 66)" stroke-width="1px" opacity="0.25"></line><line x1="515.9401041666667" y1="0" x2="515.9401041666667" y2="377" fill="rgb(0, 0, 0)" stroke="rgb(66, 66, 66)" stroke-width="1px" opacity="0.25"></line><line x1="589.6458333333333" y1="0" x2="589.6458333333333" y2="377" fill="rgb(0, 0, 0)" stroke="rgb(66, 66, 66)" stroke-width="1px" opacity="0.25"></line><line x1="663.3515625" y1="0" x2="663.3515625" y2="377" fill="rgb(0, 0, 0)" stroke="rgb(66, 66, 66)" stroke-width="1px" opacity="0.25"></line><line x1="737.0572916666667" y1="0" x2="737.0572916666667" y2="377" fill="rgb(0, 0, 0)" stroke="rgb(66, 66, 66)" stroke-width="1px" opacity="0.25"></line><line x1="810.7630208333333" y1="0" x2="810.7630208333333" y2="377" fill="rgb(0, 0, 0)" stroke="rgb(66, 66, 66)" stroke-width="1px" opacity="0.25"></line><line x1="884.46875" y1="0" x2="884.46875" y2="377" fill="rgb(0, 0, 0)" stroke="rgb(66, 66, 66)" stroke-width="1px" opacity="0.25"></line></g><g><line x1="0" y1="377" x2="884.46875" y2="377" fill="rgb(0, 0, 0)" stroke="rgb(66, 66, 66)" stroke-width="1px" opacity="0.25"></line><line x1="0" y1="339.3" x2="884.46875" y2="339.3" fill="rgb(0, 0, 0)" stroke="rgb(66, 66, 66)" stroke-width="1px" opacity="0.25"></line><line x1="0" y1="301.6" x2="884.46875" y2="301.6" fill="rgb(0, 0, 0)" stroke="rgb(66, 66, 66)" stroke-width="1px" opacity="0.25"></line><line x1="0" y1="263.9" x2="884.46875" y2="263.9" fill="rgb(0, 0, 0)" stroke="rgb(66, 66, 66)" stroke-width="1px" opacity="0.25"></line><line x1="0" y1="226.2" x2="884.46875" y2="226.2" fill="rgb(0, 0, 0)" stroke="rgb(66, 66, 66)" stroke-width="1px" opacity="0.25"></line><line x1="0" y1="188.5" x2="884.46875" y2="188.5" fill="rgb(0, 0, 0)" stroke="rgb(66, 66, 66)" stroke-width="1px" opacity="0.25"></line><line x1="0" y1="150.8" x2="884.46875" y2="150.8" fill="rgb(0, 0, 0)" stroke="rgb(66, 66, 66)" stroke-width="1px" opacity="0.25"></line><line x1="0" y1="113.10000000000002" x2="884.46875" y2="113.10000000000002" fill="rgb(0, 0, 0)" stroke="rgb(66, 66, 66)" stroke-width="1px" opacity="0.25"></line><line x1="0" y1="75.39999999999998" x2="884.46875" y2="75.39999999999998" fill="rgb(0, 0, 0)" stroke="rgb(66, 66, 66)" stroke-width="1px" opacity="0.25"></line><line x1="0" y1="37.69999999999999" x2="884.46875" y2="37.69999999999999" fill="rgb(0, 0, 0)" stroke="rgb(66, 66, 66)" stroke-width="1px" opacity="0.25"></line><line x1="0" y1="0" x2="884.46875" y2="0" fill="rgb(0, 0, 0)" stroke="rgb(66, 66, 66)" stroke-width="1px" opacity="0.25"></line></g></g></g><g><g><line x1="0" y1="1658.8000000000002" x2="884.46875" y2="1658.8000000000002" fill="rgb(0, 0, 0)" stroke="rgb(153, 153, 153)" stroke-width="1.5px"></line></g></g><g><g><line x1="73.70572916666666" y1="0" x2="73.70572916666666" y2="377" fill="rgb(0, 0, 0)" stroke="rgb(153, 153, 153)" stroke-width="1.5px"></line></g></g><g><g><g><g><g><path stroke="rgb(255, 112, 67)" stroke-width="2px" d="M110.116359375,432.5215703147927L111.6641796875,368.16436971515094L112.91717708333334,342.21719419597514L113.28570572916666,352.96353032890863L115.27576041666666,358.8835343062321L116.01281770833332,490.7663114024854L117.04469791666666,471.9639585832781L119.47698697916667,351.3399820503347L119.6243984375,287.6366076375459L120.50886718750002,319.68738068996424L121.02480729166666,279.65343991891143L121.09851302083332,248.62087315535805L121.24592447916667,225.92972619420055L121.46704166666667,212.31503801753158L121.61445312500001,203.3922366166656L122.49892187500001,260.0927235618175L123.23597916666667,235.4518249329833L126.40532552083333,268.16930876594654L126.70014843749999,319.0153944636736L126.99497135416668,341.00280906590075L127.58461718749999,286.1090670313357L128.24796874999998,238.39442871367365L129.20614322916668,280.41546643230635L129.50096614583333,287.0796959665618L130.16431770833333,256.0926382891654L130.459140625,244.58796456529598L130.60655208333333,252.91599254532997L130.75396354166668,286.6401909251472L131.26990364583332,326.9311375653423L131.63843229166667,320.79487333510355L131.78584375,284.84192400106207L132.15437239583335,229.18937971191644L132.30178385416667,185.69422322509905L132.59660677083335,157.18433163403432L132.8914296875,174.83780128144608L133.3336640625,245.90065775861387L133.40736979166667,288.83997854799065L135.10260156249998,263.18077332264204L135.39742447916666,335.0230478864075L137.82971354166665,318.1100195277431L138.34565364583335,314.06958410434123L138.78788802083335,329.89216656978243L139.81976822916667,312.2417275541741L140.11459114583334,305.5722388335299L140.63053125,306.7731640093465L140.77794270833334,318.95449380355694L141.36758854166666,316.6121008841848L142.39946875,245.08464212230777L142.47317447916666,202.69596456415618L143.21023177083333,196.1881741364429L143.43134895833333,201.4823090839164L144.09470052083333,230.29480155752768L144.68434635416668,228.5814648273389L145.34769791666668,192.71869960563188L145.42140364583332,173.38764737568374L145.86363802083332,180.86520683361346L145.93734375,188.44311259504096L146.30587239583332,191.55729516932925L147.6325755208333,215.2917586933943L147.8536927083333,205.932257517062L148.51704427083334,158.54494990818662L150.72821614583333,191.638992955166L151.686390625,266.16041878335363L152.128625,303.3332742802662L152.3497421875,329.63317837431197L152.49715364583332,338.62710932561265L152.7919765625,344.777456391266L153.2342109375,349.1462945439882L153.60273958333332,357.7242043386976L154.339796875,324.1907133991168L154.78203125,319.52764184562244L155.15055989583334,256.0327759032719L155.88761718749998,249.00067704709016L158.9832578125,235.8087993251779L159.27808072916667,251.19230260536065L159.35178645833332,262.2319884662924L159.4254921875,269.53437237054703L160.7521953125,197.08324183053145L161.71036979166666,243.18774279729348L162.66854427083334,202.23645488247774L164.58489322916665,167.26044531718196L165.46936197916665,134.58787409338544L166.280125,127.274510649879L166.5012421875,145.7326833796735L166.722359375,175.88383533908336L168.19647395833334,189.52589660139918L168.63870833333334,207.0607172516109L169.15464843750001,246.91220503968728L169.5968828125,248.4293460340662L170.77617447916666,220.98921452351584L170.99729166666665,206.1085287141094L171.8080546875,165.36130802436412L172.029171875,129.6783917176947L172.2502890625,106.383641933693L172.32399479166668,89.91857825713957L175.86186979166666,166.6741239440299L176.08298697916666,181.13489047359565L176.30410416666666,183.10075499338575L176.37780989583334,181.94283458782823L177.9993359375,152.3699260639763L178.8838046875,196.90653953120815L179.62086197916668,282.2143398259027L179.91568489583332,318.16818778836375L181.758328125,216.00912647917056L181.83203385416667,148.75708279057855L182.642796875,91.4408565774233L183.23244270833334,89.39772775260626L183.52726562499998,125.34405275874131L183.67467708333334,170.7382178490924L186.03326041666668,160.72715602073458L186.32808333333332,159.3952821073138L188.1707265625,200.89556236131187L189.35001822916666,199.7827535239648L189.42372395833334,198.88887742565825L190.52930989583334,164.72410114411574L190.8241328125,160.28547219159628L192.00342447916665,224.95449712111014L192.07713020833333,264.50990057369154L193.69865625,258.98796335446883L194.06718489583335,253.03575500242744L194.43571354166667,238.00365530248195L194.65683072916667,213.2257655691846L195.025359375,169.63165013740928L195.2464765625,137.44321539372498L196.1309453125,108.10194074136194L196.72059114583334,110.17658055199479L197.23653125,121.67576904042552L197.75247135416666,141.84564071502678L198.41582291666666,201.29881204132087L198.71064583333333,247.30047802069086L198.85805729166665,244.6660615011351L199.00546875,230.79523229863022L199.2265859375,216.591543981229L199.74252604166665,208.29552178668666L200.40587760416668,175.9477291791898L201.14293489583332,212.1088167982854L201.4377578125,261.3264808748697L201.58516927083332,289.6507092341503L201.80628645833332,265.1752462497187L202.17481510416667,208.41675465290737L202.39593229166667,174.8894573937954L202.46963802083332,149.9474836403787L203.94375260416666,135.359264872948L204.60710416666666,169.88597503094655L205.04933854166666,196.25700112574572L205.56527864583333,203.86098686929503L205.638984375,208.12177141234847L206.3023359375,229.00044443920586L206.81827604166668,240.69824365326951L208.36609635416667,148.41513698786014L208.66091927083332,102.77187989169077L209.3979765625,101.02193713911598L209.69279947916667,102.08316228346978L210.35615104166666,135.89590887520885L211.31432552083334,192.450938422049L211.53544270833333,226.98716995630537L211.97767708333333,208.42551577993552L212.12508854166668,189.74852327411372L214.63108333333332,202.89649555626505L215.07331770833335,228.7305157419622L216.32631510416667,164.6084887359489L217.06337239583334,143.62807023131538L217.28448958333334,124.63083063366224L217.43190104166666,116.47468917609581L218.75860416666666,131.78820660258148L219.790484375,175.2833400687265L219.93789583333333,211.5594086432866L221.26459895833332,212.81624058392094L221.559421875,222.618316738048L222.14906770833332,223.0708107520572L223.40206510416667,187.9796887522597L223.84429947916666,171.5244201544319L225.61323697916666,176.80667510291326L226.57141145833333,135.6407912555954L226.79252864583336,115.46524944207795L226.866234375,101.02254276217047L227.01364583333333,96.35310955012466L227.16105729166668,101.9208542249479L227.45588020833333,119.6629286421464L227.750703125,142.59835258323696L228.26664322916668,200.46859544276433L229.3722291666667,172.00556186770936L231.87822395833334,196.09613481960017L232.173046875,205.19708549381104L232.68898697916666,186.60503749013415L233.35233854166665,170.32260638690272L234.23680729166665,110.48755232701468L234.97386458333332,96.5279475033865L235.12127604166665,90.4141500938287L235.2686875,88.40468085219584L235.63721614583335,84.56001081234291L235.85833333333332,84.66600648740582L236.44797916666664,98.22621079551969L236.74280208333334,126.72031037013409L238.21691666666666,211.37516321182653L238.58544531249998,216.32491863632424L238.65915104166666,210.7745350746169L238.8065625,196.8129348509226L239.02767968749998,166.41918852285835L239.3225026041667,142.6032993075628L239.39620833333333,129.2185864876136L239.91214843749998,158.8877587956443L240.133265625,208.73426218046288L240.5017942708333,237.81275960930324L241.90220312500003,254.50586957173417L242.63926041666664,255.850724044066L243.08149479166664,252.88763672746504L243.52372916666664,257.06639124058074L243.81855208333334,260.02602554024685L244.70302083333334,276.95722222722435L244.7767265625,278.4449287342838L246.61936979166666,196.9253503374942L247.28272135416668,177.94741250352183L249.86242187499997,164.90184059903692L249.93612760416667,150.06229515532073L250.0835390625,134.67416328704027L253.32659114583333,144.21592558452878L253.91623697916668,134.9363415445649L254.43217708333336,146.4844233349422L254.57958854166665,153.94107010814324L254.72699999999998,151.70446277411435L255.09552864583333,130.2306546542149L256.93817187499997,151.05017898637652L257.01187760416667,163.315702789775L257.7489348958333,129.35584928616947L257.89634635416667,99.10249806657484L258.26487499999996,73.78751034507175L259.29675520833337,185.11970850806844L259.73898958333336,248.45063430894274L260.4023411458333,240.60597598331475L261.50792708333336,244.57019249306506L261.80275,198.9943177968645L261.95016145833335,147.44539988222022L263.7928046875,115.83741922010354L264.6772734375,202.58346303718918L265.41433072916664,242.6424594141103L265.85656510416663,182.4560710464154L267.1095625,213.14864262784926L267.551796875,248.00138787773494L267.6255026041666,272.4568442317679L268.65738281250003,251.6920835288068L269.09961718750003,189.24304781625867L269.4681458333333,125.68523329180583L271.16337760416667,152.92233077098194L271.6793177083333,172.58220766669072L272.04784635416667,199.08111079386217L273.0060208333333,219.50444116503792L273.5219609375,231.15528310722564L274.627546875,211.52959747664L275.512015625,163.18514007778106L275.7331328125,152.048286347694L276.76501302083335,143.10415109938785L276.9861302083333,126.57850216475975L279.3447135416667,141.99751740603378L279.41841927083334,147.17731964772176L279.492125,145.45960559478524L280.818828125,133.94838176507434L281.9244140625,132.62123136007014L285.46228906249996,118.78071580578823L286.125640625,115.75444098859991L286.78899218749996,150.05528300136302L287.2312265625,175.3859674997924L288.779046875,136.97497359679917L288.9264583333333,114.53159106115557L289.0001640625,98.12496614182037L292.46433333333334,119.49658658816848L293.05397916666664,172.58313124367277L294.7492109375,208.43130635850832L295.41256250000004,186.13277230997795L295.7073854166666,155.93948409521516L296.00220833333333,124.47767895200217L296.8866770833333,128.97458436094743L297.1077942708333,131.82355982066986L297.6974401041667,138.58473129035104L297.9185572916667,153.4990525803631L299.68749479166667,118.48943154821784L299.9823177083333,115.50425432687993L300.12972916666666,114.61796870330559L302.19348958333336,80.15619732916096L303.8887213541667,67.54693220364882L304.99430729166664,54.17554091398617L305.583953125,81.3645498596711L305.95248177083334,110.42051610965025L306.32101041666664,109.75808435451093L306.76324479166664,103.93187362296035L307.94253645833334,114.68674258197929L309.26923958333333,93.39246165636524L309.3429453125,80.38970230509834L309.8588854166667,64.36941678100843L310.0800026041667,43.82426847680797L311.8489401041667,64.22075188198333L312.07005729166667,73.36727183841863L312.5859973958333,96.4233400927972L312.8071145833334,115.83662246388144L312.8808203125,127.03215276910042L313.0282317708333,141.5910778553078L313.10193749999996,159.44982600395622L314.94458072916666,180.41947949519593L315.60793229166666,214.8672830950667L317.37686979166665,153.34995374986232L317.966515625,149.61556764786675L318.99839583333335,144.2835658999994L319.0721015625,128.94496024922802L320.32509895833334,90.18495313928268L322.46256510416663,157.25817418459496L322.60997656250004,190.26371371485848L323.3470338541666,163.92221672378813L324.60003125,91.86892543222201L324.9685598958333,71.25695065728252L326.5900859375,79.32315888924256L326.811203125,85.52008612944375L327.1797317708333,80.49187238689476L327.99049479166666,63.67673033521297L328.13790625,54.71865660933087L328.65384635416666,45.800003169699956L329.09608072916666,40.147204202845266L329.6120208333333,61.185108715555046L330.0542552083333,117.31368363753606L330.27537239583336,146.39142398867418L331.5283697916667,129.75723598500133L332.4128385416667,127.46755539715329L332.63395572916664,123.98255624854588L333.14989583333335,112.76810613682294L334.3291875,148.48967288619528L334.47659895833334,167.7360060327424L334.91883333333334,181.5458289309248L335.21365625,196.61767664932634L336.3929479166667,169.7704266988245L337.6459453125,142.05046982544712L339.1200598958333,174.0514726911666L340.4467630208334,123.50707441059832L340.59417447916667,98.53382853918129L340.74158593749996,96.97107181222964L340.962703125,109.68085689349004L341.18382031249996,120.69970493199254L342.4368177083333,116.9058344643226L343.24758072916666,136.64629837756814L344.2794609375,109.88575601628689L346.4906328125,75.95966741592447L346.63804427083335,57.94139584750387L348.40698177083334,17.724421401324584L348.7018046875,8.523462044896272L348.84921614583334,13.031100237191856L349.29145052083334,27.271873948467345L349.51256770833334,51.80110135882652L349.65997916666663,85.74566081529571L350.3233307291667,205.6403734789235L350.83927083333333,246.28624709760805L351.7974453125,147.99793905446313L352.3870911458333,89.47733582037341L353.345265625,61.980389987097176L353.4926770833333,51.96662708918205L353.7137942708333,56.13735784530622L354.8930859375,87.216403202057L355.2616145833333,103.2248419212342L355.40902604166666,109.36151205581679L356.14608333333337,106.55910953451558L356.44090625,94.6986795268616L358.5783723958333,58.32718470586316L358.94690104166665,51.50892923172113L359.4628411458333,95.22154833493101L362.7058932291667,37.60435661326317L363.2955390625,15.550411666932465L363.8114791666667,11.743044699134241L364.10630208333333,19.788445227683567L364.9170651041667,75.05824642738153L365.3592994791667,128.12572254514967L365.8015338541667,146.69584963426763L367.4230598958333,107.62149827543347L368.23382291666667,51.377898965260094L368.6023515625,-4.083439911615649L369.33940885416666,-33.18329953761538L370.22387760416666,3.991806471278454L371.034640625,51.4050838827671L371.2557578125,76.76162271735559L371.99281510416665,60.307569028362465L375.456984375,87.38114832009373L375.82551302083334,98.79970049718303L375.89921875,100.1466064921574L376.6362760416667,95.60135699221834L382.0167942708333,87.59623030250863L382.82755729166666,79.47553588047955L382.9012630208333,70.90853533444002L383.04867447916666,60.03791889963854L383.1960859375,60.82935824285929L383.417203125,78.87243565494406L383.49090885416666,92.56346139296643L385.3335520833333,81.24950444808455L385.70208072916665,95.57309576577433L385.9231979166667,105.07207126561707L386.51284375,139.42342205014182L387.32360677083335,176.92387393931364L387.9869583333333,127.94491976153742L388.20807552083335,103.76016566307494L388.28178125,89.02312240809897L389.3873671875,98.35226654178327L390.5666588541667,103.12034841994284L391.0088932291667,110.05280444991494L391.30371614583333,116.77590798122816L391.96706770833333,106.78536549796542L392.1144791666667,97.7750285028806L392.7778307291667,123.05662400480448L393.0726536458333,133.173795112111L393.8834166666667,169.32868166931746L395.799765625,147.81738829236198L396.46311718749996,148.55805138362027L397.568703125,154.95905614145153L398.08464322916666,132.63584979204876L398.52687760416666,107.78109376805175L398.82170052083336,84.27264475570408L398.89540625,69.03656384316858L400.29581510416665,78.82033140282493L400.51693229166665,73.98380574477113L403.17033854166664,96.94409265096436L403.61257291666664,112.37907399878179L404.7181588541667,124.20363519516737L404.8655703125,136.57640642837976L406.11856770833333,119.34423695395161L406.1922734375,110.06053066724395L407.5926822916667,85.86649769111793L407.6663880208333,73.08430321672158L407.8875052083333,67.29998653208372L408.5508567708333,78.07999191925009L409.36161979166667,84.84960205462633L411.2042630208333,74.05755893175042L411.42538020833337,80.77733305802484L412.23614322916666,100.41699523276402L412.45726041666666,126.752994838633L412.604671875,137.12578539805287L412.75208333333336,130.00368504498425L413.63655208333336,89.23679491981278L414.8895494791667,76.16207695188771L416.43736979166664,159.47581855882802L416.95330989583334,236.231086533246L417.5429557291667,249.56067493020154L417.83777864583334,239.91479805504468L418.35371875,190.0182834350776L418.4274244791667,156.00876776002121L418.50113020833334,136.130856053962L419.2381875,158.13410903032621L421.1545364583333,138.08469072947508L421.5230651041667,111.12581443768504L422.7023567708333,112.0662633513317L423.51311979166667,124.16678102105303L423.80794270833337,130.9746525054543L423.8816484375,132.57121911557738L424.4712942708333,125.83832686729566L424.9135286458333,127.8306145285804L425.13464583333337,125.02979632945282L425.7979973958333,134.35769850690033L426.0928203125,145.0816421143941L426.60876041666666,135.53118756966197L426.6824661458333,127.61430793974615L427.1247005208333,118.64179856999998L427.56693489583336,150.43049524917768L427.71434635416665,191.59591555770967L427.93546354166665,224.28754933462588L430.5151640625,166.84372039667406L431.3996328125,132.82980462569952L432.8000416666667,98.24627587234345L432.947453125,82.84955171725382L434.49527343750003,112.29175404060616L435.9693880208333,120.07963631718579L437.7383255208333,130.3320071015909L437.9594427083333,133.39200195992916L438.9176171875,135.15258276775458L439.50726302083336,153.17393125244968L440.1706145833333,182.83674034326674L440.39173177083336,174.62144880801068L440.53914322916665,162.52929689711107L440.6128489583333,158.36537583724117L443.8559010416667,148.4777978900398L444.29813541666664,152.79965572376992L444.5192526041667,167.15520954143986L445.03519270833334,185.87211421973706L445.9933671875,184.81207773594392L446.1407786458333,184.8546282333633L446.2144843749999,175.8321815420689L446.7304244791667,149.23133193549518L448.05712760416674,140.4337991612973L449.75235937499997,185.82408870087983L450.1208880208334,217.7330256082231L451.5950026041666,134.63600616083224L451.7424140625,80.10303130880409L452.18464843749996,57.185211882206055L454.1009973958333,92.97231792522186L454.4695260416667,89.56261606641235L455.42770052083335,48.987390349076L455.7225234375,36.178445714572426L457.04922656250005,40.78325822464178L457.6388723958333,45.12953882760729L459.33410416666663,116.3512956842598L459.6289270833334,176.04934979825114L459.92375000000004,198.3716328892048L459.9974557291667,213.04678893762437L461.9138046875,143.66206185744784L463.6090364583333,116.5080118031893L465.7465026041666,56.03123469421839L466.55726562499996,46.135168428835605L467.7365572916667,65.30568495012385L468.7684375,75.1491856587951L468.8421432291667,77.13451139527717L470.31625781249994,67.92052754639474L472.08519531249993,102.05249581860822L472.23260677083334,123.58727217988553L473.2644869791667,127.38474489972829L474.6648958333333,117.75007225111605L474.8860130208334,102.24266175887286L475.2545416666667,79.59238324917138L477.9816536458333,87.86822764847734L478.49759375,113.49331818088316L478.79241666666667,116.95521621980929L479.2346510416666,78.69330902265695L479.67688541666666,43.74759231667023L480.04541406249996,25.796173798205384L480.26653125,39.5303226871263L480.41394270833337,74.31158670919974L482.18288020833336,124.66177273474847L482.7725260416666,117.32265903879818L484.0255234375,120.30841613250738L484.3940520833333,147.28344277642813L484.54146354166664,156.38084035457763L485.42593229166664,180.46308810556874L485.57334375000005,199.36106666949354L486.015578125,203.91384230272146L486.900046875,160.19908007035372L487.2685755208334,121.15224574118692L488.0056328125,88.22372903650897L488.7426901041666,76.45905813113397L490.80645052083327,103.63186249098506L490.9538619791667,122.4237013874131L491.2486848958333,118.16642313347326L492.3542708333333,112.52062856880465L495.3762057291667,96.91838864640974L495.59732291666666,88.16025849912504L496.92402604166665,86.22294129332258L498.2507291666667,145.75757398009497L499.5037265625,113.69376969933617L499.72484374999993,94.22923880934779L500.09337239583334,68.52611567330406L500.46190104166664,52.27489471526172L501.7886041666667,59.86612762505531L501.86230989583333,61.78187887605867L503.1153072916666,70.84835263691451L503.33642447916674,84.88383229137717L503.8523645833333,86.36827636457221L505.8424192708333,87.48519113002251L505.9898307291667,79.63510317288663L506.5057708333333,69.49624119450344L507.83247395833337,73.21494701772733L507.9798854166667,78.4621820167886L508.4958255208333,78.29290460802238L509.1591770833333,60.47234966788981L509.896234375,55.2841844894547L510.70699739583335,86.02592680085056L511.0018203125,119.55097218768802L511.07552604166665,138.3087971187652L512.4759348958333,92.41027827125913L512.8444635416666,80.93134625352684L512.9918749999999,84.75083076237013L513.2866979166668,85.23288004921903L513.9500494791666,45.78633493260765L515.2767526041666,37.72620556161532L516.7508671875,36.509295724664625L517.1193958333333,53.724386638900235L517.7827473958333,34.496654993593815L518.2249817708333,20.622576888978553L518.2986874999999,11.7703323272348L518.5935104166667,15.129997095315279L518.8146276041667,17.89978445103672L520.4361536458333,66.38504996139353L521.7628567708333,105.0520414819631L522.0576796875,121.61699957789862L522.4262083333333,107.12639054263765L523.6055,66.16083432558254L523.7529114583333,40.22429829432392L524.48996875,49.99678127761987L524.932203125,78.78187797067368L525.0796145833333,117.0141267824043L525.5218489583333,154.053296778671L525.6692604166667,174.16555045489784L525.816671875,177.184925670888L526.701140625,137.8281577035582L526.8485520833333,115.57129922418592L526.9959635416667,100.63379103963858L528.6911953125,94.23485851660543L529.354546875,97.70930820688697L529.5756640625,102.13135961285269L530.7549557291667,90.76024338001628L531.4920130208333,83.9375736403144L531.56571875,83.46313958213804L531.7131302083333,86.26990675953695L532.1553645833334,99.94253945367127L533.1135390625,106.93974898348227L533.4820677083333,94.39926549726734L533.9980078125,89.13694089015715L534.4402421875,61.47454612589123L535.3984166666667,66.66770466528097L537.3147656250001,75.66484811044778L539.0099973958334,67.26492037139562L539.3048203125,67.42752461053263L539.3785260416666,63.37812166939568L539.8944661458333,91.48544538933284L541.1474635416666,90.48007643770124L541.9582265625,67.93542745441775L542.7689895833333,65.11548178392982L543.2849296874999,75.78910977958654L543.7271640625,106.77364515852328L545.4961015625,89.32317558998714L549.5499166666666,59.173489246814604L549.8447395833333,41.83766593578402L550.8029140625,59.48498115326718L551.6136770833334,50.77098869196053L551.9085,44.93937940902409L552.4981458333334,72.65600923721153L552.5718515625,91.92503315463172L552.8666744791667,113.212996882525L553.6037317708333,135.78779812951498L554.3407890625,134.10190418898833L554.4144947916667,126.30435631954543L554.4882005208333,116.80023219993029L555.0778463541667,83.350555427136L556.5519609375,75.11854706243375L558.3208984375,97.3987466456633L558.7631328125,97.87347329867725L558.8368385416667,100.26950008638408L559.0579557291667,109.02092536310953L559.7950130208334,161.6229713250434L560.4583645833334,194.84300810630552L560.6794817708334,217.4893772514785L561.4165390625001,211.02082865191252L561.7850677083334,187.8373179003761L564.4384739583334,105.38858153612387L565.1018255208334,75.59874431962356L565.2492369791667,57.72484198972341L565.5440598958334,40.36532130101173L565.9862942708334,55.208597382657814L566.2074114583334,67.73373081729002L566.7233515625,62.43083388832329L567.3129973958333,61.284927945298705L567.5341145833333,68.96673145590002L568.1237604166666,85.86605037866707L568.4185833333333,97.58903482925079L568.71340625,100.02342089755037L570.4086380208333,109.62726634468264L570.7034609375,125.1161805160381L571.2194010416667,142.1757198147498L571.5142239583333,146.4548364909006L572.3249869791666,130.0968903894134L573.2094557291666,144.25932502954637L574.3887473958333,202.89779731875333L576.231390625,243.9620714881758L577.3369765625,227.88462448470224L578.3688567708334,194.26095398159285L578.9585026041666,160.28859539920953L579.5481484375,114.34458485183049L579.9903828125,92.81014400802219L580.0640885416667,80.19108640481342L581.9804375,116.65322423058332L583.0123177083334,105.8069345383498L583.2334348958333,83.7667791312131L584.8549609375,102.96465137155022L586.1079583333333,99.25260002703166L586.9924270833333,117.68495311314274L587.2135442708334,116.90656726583484L587.6557786458334,113.19733345642473L588.9824817708334,126.57959086975323L589.1298932291667,127.14436142492822L590.4565963541667,118.5860214570076L590.7514192708334,115.03441057317907L592.2992395833332,133.41225324698357L592.5940625000001,147.75657725946945L593.1100026041667,148.2953739679863L594.0681770833334,148.69401057463932L594.5104114583334,144.10759714068192L595.5422916666666,127.78378359568845L596.4267604166666,139.02604484613354L597.5323463541666,149.99384071383238L598.1219921875,155.29273204060402L598.1956979166666,154.55123462231163L599.8172239583333,171.5991338703109L600.112046875,179.71668262321182L601.1439270833333,178.32899806880008L602.0283958333333,161.8131735300007L602.1021015625,145.87171332210204L602.6180416666667,138.94582569223584L603.649921875,109.1542816091892L604.09215625,92.93816436346263L604.6080963541666,107.63807790884886L604.7555078125,116.91046515351239L605.418859375,141.92705378082806L605.5662708333333,167.41765988080166L605.6399765625,176.3783936274555L607.0403854166667,185.14781086519412L607.2615026041667,178.87327041193882L607.9248541666667,163.57235534408707L608.8830286458333,137.7284132064524L609.9149088541667,140.8458571279731L610.6519661458334,159.30430047063157L611.8312578125,132.9055572721251L612.6420208333333,106.43494126635122L613.9687239583334,114.15275095365816L614.70578125,129.3394482711694L614.7794869791667,135.36009657500645L615.2217213541667,114.54284413885162L615.7376614583334,96.62368347305713L616.032484375,76.97498477255505L616.1061901041667,68.72957475635518L616.1798958333334,64.23476786406702L617.801421875,126.38187222356706L617.8751276041667,158.69370722696252L618.1699505208333,171.3702128310506L618.3173619791667,174.75373460170647L618.9807135416667,175.20045456717617L619.2755364583334,175.61926123517893L621.4130026041666,137.1903659452088L621.4867083333334,104.4818379753285L622.1500598958334,53.03791198929862L622.3711770833334,25.187567902807533L622.8871171875,7.27093383860829L623.6241744791666,30.903334991885846L623.6978802083333,54.206226306410784L623.8452916666668,78.29153348282102L624.2138203124999,103.8265269927688L624.6560546875,127.44151159361051L624.9508776041666,121.25252536436948L625.0982890625,121.00752672374871L626.2775807291666,91.07749302399526L626.7198151041666,79.60387740619416L626.7935208333333,74.07691033653897L627.3831666666667,84.33275310499953L628.7835755208333,125.84887717427907L630.0365729166667,155.50873090661827L631.952921875,129.0448224367933L633.6481536458334,89.3401072682285L634.606328125,58.80668276914009L634.8274453125,41.08978435020487L637.1123229166667,63.1832752121736L637.1860286458334,74.78056052525349L638.3653203125,77.1395271110504L638.4390260416667,76.29294157790949L639.1760833333334,80.23356264572033L639.3972005208333,90.74114909255914L639.5446119791667,96.81951016476398L640.355375,130.47569459373128L640.797609375,139.283989143934L641.0187265625,135.06860729251267L641.3135494791667,120.1737827837108L642.6402526041667,115.00688807842945L642.7139583333334,113.64091904090542L643.00878125,111.99193301634013L643.2298984375,105.57373219749951L643.3773098958334,114.08846462977898L644.4091901041667,146.26587647684204L644.7040130208334,159.3895258861053L645.5147760416667,187.4709178326885L645.7358932291667,201.8315391944863L647.2100078125001,156.15993502181854L647.7996536458334,135.91994950796422L648.5367109375,148.35637430682925L648.6104166666667,153.33001537999593L649.4211796875,135.27759312081983L651.1164114583333,123.76756737761889L651.4849401041668,136.08851741631753L652.7379375,111.73769434261288L655.9809895833333,137.46618899326302L656.0546953125,144.08149958980553L656.3495182291666,127.91889975388351L656.6443411458333,112.6417559595078L657.9710442708333,138.68725587673018L658.4132786458333,159.44175812808905L658.486984375,167.89826868300557L661.582625,101.11598422005713L662.1722708333334,139.61339973613585L662.7619166666666,179.22446745398625L662.8356223958333,201.86009657956953L664.0886197916667,242.0576648508179L665.0467942708333,253.43358740536365L665.3416171875,239.37336624937058L666.1523802083333,209.37282895372394L667.0368489583333,196.0472697599297L667.2579661458333,184.28193424365304L667.4053776041667,177.37356514824256L667.7002005208334,166.51794829304723L668.2898463541667,158.873566674803L672.7121901041667,146.36991469360228L673.1544244791667,132.53415111718652L673.2281302083334,118.35150217543901L674.4811276041667,91.5951266165427L674.9970677083334,42.51606446479866L676.6922994791666,51.2964248727269L676.9871223958334,87.1770802349154L677.7978854166666,121.14642743172082L678.0190026041666,139.7938679641595L679.272,163.4987023702924L679.7142343749999,175.5349961108962L680.6724088541666,106.90439076346156L682.1465234375,147.08263445807694L682.809875,151.96255766459208L683.9891666666666,187.23711849157746L684.1365781249999,213.52905728879432L684.7999296875,158.12665968455588L685.46328125,115.0831981117588L686.0529270833333,94.38432346910594L687.5270416666666,166.7145825763365L687.674453125,216.22017715810637L687.8955703125,245.0941293051177L688.0429817708333,258.19606147589286L688.4852161458333,225.71823228348495L689.3696848958333,179.31373706906575L689.443390625,166.3248491445158L689.9593307291667,200.83092099183625L690.1804479166667,234.42795719715258L690.5489765625,291.00439272649476L691.0649166666667,258.6736471410239L691.212328125,208.4365698764113L694.9713203125,177.841941925847L695.7820833333333,213.09456975755901L696.0032005208334,216.82876486478918L696.3717291666667,205.72344971477187L697.5510208333333,190.3892491196347L697.8458437500001,185.78813336460297L697.9195494791667,177.9756777177364L698.0669609375,176.83201353371794L698.8040182291667,171.2448035181799L699.0988411458334,173.01967980988252L699.3936640625,166.1675825746503L700.057015625,121.86816795299329L700.1307213541667,96.04250767487216L700.4992500000001,89.89669540082164L700.7940729166667,117.50021954151836L700.8677786458334,135.41953632696178L701.9733645833333,196.31213790335485L704.2582421875001,292.9415080532922L705.1427109375,253.2760956278737L705.6586510416666,197.35643206544498L706.0271796875,173.3050500351653L707.0590598958333,158.1202323221245L707.7224114583333,160.69636470455401L708.8279973958333,241.8644257258085L709.6387604166666,227.9832393283073L710.1547005208333,202.68952748980652L710.22840625,186.53312109593472L710.8917578124999,181.4386818616625L713.6925755208333,222.4155907087945L713.9136927083333,217.67114061912443L714.0611041666667,197.03006596327154L714.2822213541666,167.90661196565824L714.3559270833333,145.83319249067424L714.65075,126.93414080568371L717.0093333333333,166.41429368751173L718.0412135416666,105.27738541660858L720.0312682291667,144.52303815304128L720.4735026041667,152.91501368772316L720.7683255208333,183.96323352391303L722.0950286458334,246.47496312460154L722.4635572916667,263.1715847778373L723.5691432291667,165.21676007080384L723.7902604166667,98.60225834350763L724.0113776041667,65.11796190918065L725.5591979166667,42.38839555371134L726.3699609375001,44.28303733222661L727.3281354166667,129.7924408075393L727.4018411458334,181.8520713875997L728.1388984375001,193.9362428325598L728.360015625,199.4525203882566L728.6548385416667,207.21091683500475L729.9078359375001,228.60476390715516L730.0552473958334,246.26666754839465L730.2763645833334,269.8326189372401L731.8241848958334,192.13498746952192L731.9715963541666,135.71438557863684L732.340125,116.64041754102969L733.1508880208333,88.00484592256704L733.7405338541666,46.39391905866727L734.0353567708333,40.72974453212407L735.2883541666667,51.657251321325006L735.7305885416666,36.5739346856172L736.4676458333333,65.60096771444644L736.6150572916666,87.46575991943938L737.0572916666667,95.90987205884124L737.4258203125,100.29770942915252L737.7943489583333,118.53820955031357L738.0154661458333,144.48715104146743L739.1210520833333,156.43729062488046L739.1947578125,158.93255366569988L741.1848125,108.55453219941992L741.7744583333333,107.3567078145251L742.511515625,131.143013183588L743.3222786458333,154.68902171630518L744.8700989583333,147.70460382568155L745.3123333333333,131.90234618823118L746.1230963541667,115.0318238201164L746.1968020833333,96.46468969001917L748.5553854166667,77.18119540580827L748.6290911458334,65.3094919322057L749.0713255208333,66.40509976137429L752.9040234375,102.27425065272321L753.0514348958334,128.39514578958315L753.567375,131.32506446349603L753.7884921875,116.57045478527522L754.3044322916667,112.241677473216L756.2944869791667,121.78381568803096L757.8423072916667,139.57308711179311L758.5793645833334,113.37605456810128L759.75865625,70.36301433265768L759.9060677083334,37.09060629856934L760.0534791666666,23.008352274014438L760.4220078125,16.971797558256245L762.7805911458333,150.05010154520784L763.1491197916666,226.80565632507395L763.9598828125,174.91440530017152L764.0335885416666,139.4818569862551L764.1072942708333,116.03572109482931L764.3284114583333,92.01524186099931L765.507703125,65.08652670839636L767.4977578125,183.29209531580935L767.718875,268.84305488846013L769.1929895833333,187.09261912692367L769.6352239583333,155.0827737771796L769.7089296875,139.79764125605388L771.6252786458333,172.85060776388613L772.14121875,198.41274625012866L772.6571588541667,181.7050293418741L775.0894479166666,184.6492084010228L775.3105651041667,171.6373227395883L776.7109739583333,150.3335844396514L776.7846796875,137.70217367404473L777.44803125,171.7441019034015L777.9639713541667,258.21967494819336L778.1850885416667,317.56960266789054L778.7010286458333,339.6829523966328L778.9221458333334,343.4505461267004L780.3225546875,234.42074378319802L780.543671875,184.686018657614L781.3544348958333,153.1864319037967L782.1651979166667,167.5380499381764L782.9022552083334,172.07741385572794L783.0496666666667,171.40805521651285L783.1233723958333,168.36745153811106L783.3444895833334,161.49124561158735L785.1134270833334,92.29534276490162L785.4819557291667,44.82119415381392L785.5556614583334,16.48753720151687L785.850484375,2.277106213732168L787.2508932291666,15.466084437467824L787.3245989583334,24.585841458379143L787.9879505208334,73.71430257400215L788.5775963541666,113.89816543722351L789.4620651041666,137.7068762520802L792.1891770833333,174.91370964407056L792.4102942708333,195.05120277618855L793.0736458333333,177.87851936468783L793.1473515625,162.44770701676183L793.5895859375,151.07802881210776L793.7369973958333,149.3834241903409L794.4003489583333,197.37666141728067L796.9800494791667,172.0354014524192L797.2748723958333,150.0446339683753" style="fill: none;" fill="none"></path></g></g></g></g><g opacity="0.2"><g><g><g><path stroke="rgb(255, 112, 67)" stroke-width="2px" d="M108.71595052083333,534.2090028762817L110.116359375,300.2805057525635L111.6641796875,271.6285690307617L112.91717708333334,303.29643096923826L113.28570572916666,369.08303451538086L115.27576041666666,367.76354026794434L116.01281770833332,688.5904769897461L117.04469791666666,439.01651725769045L119.47698697916667,170.40401725769044L119.6243984375,192.0815460205078L120.50886718750002,367.76354026794434L121.02480729166666,219.60252876281737L121.09851302083332,202.07202301025393L121.24592447916667,191.89300575256345L121.46704166666667,191.89300575256345L121.61445312500001,190.00803451538087L122.49892187500001,345.14345397949216L123.23597916666667,198.49047698974607L126.40532552083333,317.2455345153809L126.70014843749999,395.2845230102539L126.99497135416668,373.98393096923826L127.58461718749999,203.76845397949216L128.24796874999998,166.82247123718264L129.20614322916668,343.44702301025393L129.50096614583333,297.07604026794434L130.16431770833333,209.6120517730713L130.459140625,227.33095397949216L130.60655208333333,265.40803451538085L130.75396354166668,337.226488494873L131.26990364583332,387.36755752563477L131.63843229166667,311.5904769897461L131.78584375,230.91250000000002L132.15437239583335,145.71056327819826L132.30178385416667,120.45148849487305L132.59660677083335,114.41949424743655L132.8914296875,201.31800575256347L133.3336640625,352.49494247436525L133.40736979166667,353.24895973205565L135.10260156249998,224.69196548461912L135.39742447916666,442.7864597320556L137.82971354166665,292.74047698974607L138.34565364583335,308.0089309692383L138.78788802083335,353.62604026794435L139.81976822916667,285.76606903076174L140.11459114583334,295.56800575256347L140.63053125,308.5745517730713L140.77794270833334,337.226488494873L141.36758854166666,313.09851150512696L142.39946875,137.7934539794922L142.47317447916666,139.11294822692872L143.21023177083333,186.42648849487307L143.43134895833333,209.42351150512695L144.09470052083333,273.51354026794434L144.68434635416668,226.01145973205564L145.34769791666668,138.9245517730713L145.42140364583332,144.39106903076174L145.86363802083332,192.0815460205078L145.93734375,199.8099712371826L146.30587239583332,196.22856903076172L147.6325755208333,250.89345397949216L147.8536927083333,191.89300575256345L148.51704427083334,87.46398849487304L150.72821614583333,241.2800575256348L151.686390625,377.9425575256348L152.128625,359.0925575256348L152.3497421875,369.08303451538086L152.49715364583332,352.1180057525635L152.7919765625,354.0029769897461L153.2342109375,355.6995517730713L153.60273958333332,370.59106903076173L154.339796875,273.8904769897461L154.78203125,312.53303451538085L155.15055989583334,160.79047698974608L155.88761718749998,238.4525287628174L158.9832578125,216.02098274230957L159.27808072916667,274.26755752563474L159.35178645833332,278.79151725769043L159.4254921875,280.4879482269287L160.7521953125,88.40654602050779L161.71036979166666,312.3444942474365L162.66854427083334,140.80952301025388L164.58489322916665,114.79643096923826L165.46936197916665,85.57901725769045L166.280125,116.30446548461913L166.5012421875,173.41994247436526L166.722359375,221.11056327819824L168.19647395833334,209.98898849487307L168.63870833333334,233.36294822692872L169.15464843750001,306.68943672180177L169.5968828125,250.70505752563474L170.77617447916666,179.82901725769045L170.99729166666665,183.78750000000002L171.8080546875,104.24047698974607L172.029171875,76.15401725769044L172.2502890625,71.4415172576904L172.32399479166668,65.22098274230956L175.86186979166666,281.80744247436525L176.08298697916666,202.82604026794434L176.30410416666666,186.0495517730713L176.37780989583334,180.20595397949216L177.9993359375,108.01056327819822L178.8838046875,263.7114597320557L179.62086197916668,410.17604026794436L179.91568489583332,372.0989597320557L181.758328125,62.77053451538086L181.83203385416667,47.879017257690414L182.642796875,5.466517257690438L183.23244270833334,86.33303451538086L183.52726562499998,179.26354026794434L183.67467708333334,238.82946548461916L186.03326041666668,145.71056327819826L186.32808333333332,157.39747123718263L188.1707265625,263.14598274230957L189.35001822916666,198.11354026794436L189.42372395833334,197.54806327819824L190.52930989583334,113.47693672180174L190.8241328125,153.6275287628174L192.00342447916665,321.95803451538086L192.07713020833333,323.8430057525635L193.69865625,250.70505752563474L194.06718489583335,244.10744247436526L194.43571354166667,215.45550575256345L194.65683072916667,176.0589309692383L195.025359375,104.24047698974607L195.2464765625,89.16056327819825L196.1309453125,64.09002876281738L196.72059114583334,113.28854026794431L197.23653125,138.9245517730713L197.75247135416666,172.10044822692873L198.41582291666666,290.4785690307617L198.71064583333333,316.30297698974607L198.85805729166665,240.71443672180175L199.00546875,209.98898849487307L199.2265859375,195.28601150512696L199.74252604166665,195.85148849487302L200.40587760416668,127.42604026794436L201.14293489583332,266.35044822692873L201.4377578125,335.1529769897461L201.58516927083332,332.1370517730713L201.80628645833332,228.46205177307127L202.17481510416667,123.27901725769044L202.39593229166667,124.59851150512696L202.46963802083332,112.5345230102539L203.94375260416666,113.47693672180174L204.60710416666666,221.67604026794436L205.04933854166666,235.81354026794435L205.56527864583333,215.26696548461916L205.638984375,214.5129482269287L206.3023359375,260.3184539794922L206.81827604166668,258.24494247436525L208.36609635416667,9.990476989746076L208.66091927083332,34.306994247436535L209.3979765625,98.39702301025392L209.69279947916667,103.67500000000001L210.35615104166666,186.61502876281736L211.31432552083334,277.28348274230956L211.53544270833333,278.79151725769043L211.97767708333333,180.58303451538086L212.12508854166668,161.73303451538084L214.63108333333332,222.6184539794922L215.07331770833335,267.48154602050784L216.32631510416667,68.42544822692872L217.06337239583334,112.15744247436521L217.28448958333334,96.13497123718264L217.43190104166666,104.24047698974607L218.75860416666666,154.75848274230958L219.790484375,240.52604026794432L219.93789583333333,265.97351150512696L221.26459895833332,214.70148849487305L221.559421875,237.3214309692383L222.14906770833332,223.7495517730713L223.40206510416667,135.3430057525635L223.84429947916666,146.84151725769044L225.61323697916666,184.73005752563478L226.57141145833333,73.89196548461916L226.79252864583336,85.20193672180176L226.866234375,79.35848274230955L227.01364583333333,89.34895973205568L227.16105729166668,110.27247123718263L227.45588020833333,146.27604026794432L227.750703125,177.00148849487306L228.26664322916668,287.2739597320557L229.3722291666667,129.31101150512694L231.87822395833334,232.23199424743655L232.173046875,218.84851150512696L232.68898697916666,158.71696548461915L233.35233854166665,145.8989597320557L234.23680729166665,20.73497123718261L234.97386458333332,75.58854026794432L235.12127604166665,81.24345397949219L235.2686875,85.3904769897461L235.63721614583335,78.79300575256349L235.85833333333332,84.82499999999999L236.44797916666664,118.5665172576904L236.74280208333334,169.4614597320557L238.21691666666666,338.35744247436526L238.58544531249998,223.7495517730713L238.65915104166666,202.44895973205564L238.8065625,175.87053451538088L239.02767968749998,120.82856903076174L239.3225026041667,106.87946548461912L239.39620833333333,109.14151725769045L239.91214843749998,203.39151725769045L240.133265625,283.5040172576904L240.5017942708333,281.4305057525635L241.90220312500003,279.54553451538084L242.63926041666664,257.8680057525635L243.08149479166664,248.44300575256347L243.52372916666664,263.3345230102539L243.81855208333334,264.4654769897461L244.70302083333334,302.35401725769043L244.7767265625,280.67648849487307L246.61936979166666,74.64598274230957L247.28272135416668,149.4805057525635L249.86242187499997,145.33348274230957L249.93612760416667,127.80297698974607L250.0835390625,111.59196548461915L253.32659114583333,158.52856903076173L253.91623697916668,121.01696548461916L254.43217708333336,163.80654602050782L254.57958854166665,165.12604026794435L254.72699999999998,148.3495517730713L255.09552864583333,98.01994247436522L256.93817187499997,182.27946548461915L257.01187760416667,181.71398849487304L257.7489348958333,78.41606903076172L257.89634635416667,53.72247123718262L258.26487499999996,35.8150287628174L259.29675520833337,352.1180057525635L259.73898958333336,343.44702301025393L260.4023411458333,228.83898849487304L261.50792708333336,250.51651725769045L261.80275,130.63050575256347L261.95016145833335,70.12202301025388L263.7928046875,68.42544822692872L264.6772734375,332.7025287628174L265.41433072916664,302.7309539794922L265.85656510416663,92.17648849487307L267.1095625,259.1875L267.551796875,300.2805057525635L267.6255026041666,309.1400287628174L268.65738281250003,220.54494247436526L269.09961718750003,95.56949424743652L269.4681458333333,30.34851150512696L271.16337760416667,193.7779769897461L271.6793177083333,202.07202301025393L272.04784635416667,238.82946548461916L273.0060208333333,250.13943672180176L273.5219609375,248.6315460205078L274.627546875,182.09106903076173L275.512015625,90.6684539794922L275.7331328125,135.3430057525635L276.76501302083335,129.6879482269287L276.9861302083333,101.79002876281737L279.3447135416667,165.12604026794435L279.41841927083334,154.94702301025393L279.492125,142.88303451538087L280.818828125,116.68154602050782L281.9244140625,130.63050575256347L285.46228906249996,98.01994247436522L286.125640625,111.21502876281738L286.78899218749996,201.5065460205078L287.2312265625,213.38199424743652L288.779046875,79.35848274230955L288.9264583333333,80.86651725769042L289.0001640625,73.5150287628174L292.46433333333334,151.55401725769042L293.05397916666664,252.2129482269287L294.7492109375,262.20356903076174L295.41256250000004,152.6849712371826L295.7073854166666,110.64955177307127L296.00220833333333,77.28497123718262L296.8866770833333,135.7199424743652L297.1077942708333,136.0970230102539L297.6974401041667,148.72648849487302L297.9185572916667,175.87053451538088L299.68749479166667,65.97500000000002L299.9823177083333,111.02648849487304L300.12972916666666,113.28854026794431L302.19348958333336,28.463540267944328L303.8887213541667,48.63303451538087L304.99430729166664,34.11845397949219L305.583953125,122.14806327819826L305.95248177083334,154.00446548461912L306.32101041666664,108.76443672180176L306.76324479166664,95.19255752563475L307.94253645833334,130.8190460205078L309.26923958333333,61.451040267944336L309.3429453125,60.88556327819823L309.8588854166667,40.338988494873036L310.0800026041667,13.006546020507812L311.8489401041667,94.81547698974612L312.07005729166667,87.08705177307127L312.5859973958333,131.00744247436523L312.8071145833334,144.9565460205078L312.8808203125,143.8254482269287L313.0282317708333,163.42946548461913L313.10193749999996,186.23794822692872L314.94458072916666,211.87395973205565L315.60793229166666,266.538988494873L317.37686979166665,61.07395973205565L317.966515625,144.01398849487305L318.99839583333335,136.28556327819825L319.0721015625,105.93705177307129L320.32509895833334,32.04494247436525L322.46256510416663,257.8680057525635L322.60997656250004,239.77202301025392L323.3470338541666,124.40997123718262L324.60003125,-16.21101150512697L324.9685598958333,40.338988494873036L326.5900859375,91.4224712371826L326.811203125,94.81547698974612L327.1797317708333,72.94955177307128L327.99049479166666,38.454017257690445L328.13790625,41.2815460205078L328.65384635416666,32.422023010253895L329.09608072916666,31.668005752563484L329.6120208333333,92.74196548461913L330.0542552083333,201.5065460205078L330.27537239583336,190.00803451538087L331.5283697916667,104.80595397949219L332.4128385416667,124.03303451538085L332.63395572916664,118.75505752563475L333.14989583333335,95.94643096923829L334.3291875,202.07202301025393L334.47659895833334,196.6055057525635L334.91883333333334,202.26056327819822L335.21365625,219.22544822692873L336.3929479166667,129.4995517730713L337.6459453125,100.47053451538085L339.1200598958333,222.05297698974607L340.4467630208334,47.69047698974611L340.59417447916667,61.07395973205565L340.74158593749996,94.62693672180177L340.962703125,128.74553451538088L341.18382031249996,137.22797698974608L342.4368177083333,111.21502876281738L343.24758072916666,166.25699424743652L344.2794609375,69.74494247436525L346.4906328125,25.070534515380867L346.63804427083335,30.91398849487303L348.40698177083334,-42.60104026794432L348.7018046875,-5.277976989746094L348.84921614583334,19.792557525634773L349.29145052083334,48.63303451538087L349.51256770833334,88.59494247436521L349.65997916666663,136.66250000000002L350.3233307291667,385.48244247436526L350.83927083333333,307.25505752563475L351.7974453125,0.5654769897461105L352.3870911458333,1.6964309692382895L353.345265625,20.73497123718261L353.4926770833333,36.94598274230958L353.7137942708333,62.39345397949217L354.8930859375,133.83497123718263L355.2616145833333,127.23750000000001L355.40902604166666,118.5665172576904L356.14608333333337,102.35550575256349L356.44090625,76.90803451538085L358.5783723958333,3.769942474365226L358.94690104166665,41.2815460205078L359.4628411458333,160.79047698974608L362.7058932291667,-48.82143096923825L363.2955390625,-17.530505752563492L363.8114791666667,6.031994247436507L364.10630208333333,31.856546020507828L364.9170651041667,157.9629482269287L365.3592994791667,207.72693672180174L365.8015338541667,174.55104026794436L367.4230598958333,49.00997123718263L368.23382291666667,-32.98749999999997L369.33940885416666,-41.2815460205078L370.22387760416666,59.754465484619125L371.034640625,122.52499999999998L371.2557578125,114.79643096923826L371.99281510416665,35.62648849487306L375.456984375,127.99151725769042L375.82551302083334,115.92752876281736L375.89921875,102.16696548461914L376.6362760416667,88.78348274230956L382.0167942708333,75.58854026794432L382.82755729166666,67.29449424743655L382.9012630208333,58.058034515380875L383.04867447916666,43.73199424743654L383.1960859375,62.016517257690445L383.417203125,105.93705177307129L383.49090885416666,113.10000000000002L385.3335520833333,64.27856903076173L385.70208072916665,117.0584827423096L385.9231979166667,119.32053451538087L386.51284375,190.9504482269287L387.32360677083335,233.1745517730713L387.9869583333333,54.47648849487303L388.20807552083335,67.48303451538084L388.28178125,66.91755752563478L389.3873671875,112.34598274230956L390.5666588541667,110.27247123718263L391.0088932291667,120.45148849487305L391.30371614583333,126.86056327819824L391.96706770833333,91.7995517730713L392.1144791666667,84.25952301025393L392.7778307291667,160.97901725769043L393.0726536458333,148.3495517730713L393.8834166666667,223.56101150512694L395.799765625,115.55044822692872L396.46311718749996,149.66904602050784L397.568703125,164.56056327819823L398.08464322916666,99.15104026794432L398.52687760416666,70.49895973205565L398.82170052083336,49.00997123718263L398.89540625,46.182442474365246L400.29581510416665,93.4959827423096L400.51693229166665,66.72901725769043L403.17033854166664,131.38452301025393L403.61257291666664,135.5315460205078L404.7181588541667,141.94047698974612L404.8655703125,155.13556327819822L406.11856770833333,93.4959827423096L406.1922734375,96.13497123718264L407.5926822916667,49.5754482269287L407.6663880208333,53.911011505126964L407.8875052083333,58.62351150512694L408.5508567708333,94.25L409.36161979166667,95.0040172576904L411.2042630208333,57.869494247436535L411.42538020833337,90.85699424743655L412.23614322916666,129.87648849487306L412.45726041666666,166.25699424743652L412.604671875,152.6849712371826L412.75208333333336,119.32053451538087L413.63655208333336,28.08645973205568L414.8895494791667,56.55000000000001L416.43736979166664,284.4464309692383L416.95330989583334,351.36398849487307L417.5429557291667,269.55505752563477L417.83777864583334,225.44598274230958L418.35371875,115.17351150512695L418.4274244791667,104.99449424743653L418.50113020833334,106.31398849487306L419.2381875,191.13898849487305L421.1545364583333,108.01056327819822L421.5230651041667,70.6875L422.7023567708333,113.47693672180174L423.51311979166667,142.31755752563475L423.80794270833337,141.18645973205565L423.8816484375,134.96606903076173L424.4712942708333,115.73898849487307L424.9135286458333,130.8190460205078L425.13464583333337,120.82856903076174L425.7979973958333,148.3495517730713L426.0928203125,161.16755752563478L426.60876041666666,121.20550575256345L426.6824661458333,115.73898849487307L427.1247005208333,105.18303451538088L427.56693489583336,198.11354026794436L427.71434635416665,253.3440460205078L427.93546354166665,273.325L430.5151640625,80.67797698974607L431.3996328125,81.8089309692383L432.8000416666667,46.370982742309586L432.947453125,59.754465484619125L434.49527343750003,156.45505752563474L435.9693880208333,131.76145973205564L437.7383255208333,145.71056327819826L437.9594427083333,137.98199424743655L438.9176171875,137.7934539794922L439.50726302083336,180.20595397949216L440.1706145833333,227.33095397949216L440.39173177083336,162.29851150512695L440.53914322916665,144.39106903076174L440.6128489583333,152.11949424743653L443.8559010416667,133.64643096923828L444.29813541666664,159.2824424743652L444.5192526041667,188.68854026794435L445.03519270833334,213.94747123718264L445.9933671875,183.2220230102539L446.1407786458333,184.9184539794922L446.2144843749999,162.29851150512695L446.7304244791667,109.33005752563474L448.05712760416674,127.23750000000001L449.75235937499997,253.9095230102539L450.1208880208334,265.59643096923827L451.5950026041666,9.990476989746076L451.7424140625,-1.6964309692382478L452.18464843749996,22.808482742309586L454.1009973958333,146.6529769897461L454.4695260416667,84.44806327819822L455.42770052083335,-11.875448226928711L455.7225234375,16.965028762817383L457.04922656250005,47.69047698974611L457.6388723958333,51.64895973205568L459.33410416666663,223.1839309692383L459.6289270833334,265.59643096923827L459.92375000000004,231.85505752563478L459.9974557291667,235.05952301025388L461.9138046875,39.58497123718263L463.6090364583333,75.77693672180175L465.7465026041666,-34.6839309692383L466.55726562499996,31.29106903076172L467.7365572916667,94.06145973205565L468.7684375,89.91443672180174L468.8421432291667,80.11250000000001L470.31625781249994,54.099551773071305L472.08519531249993,153.2504482269287L472.23260677083334,155.88943672180176L473.2644869791667,133.08095397949216L474.6648958333333,103.29806327819824L474.8860130208334,78.98154602050784L475.2545416666667,45.61696548461913L477.9816536458333,100.2819942474365L478.49759375,151.9309539794922L478.79241666666667,122.14806327819826L479.2346510416666,21.30044822692872L479.67688541666666,-8.670982742309553L480.04541406249996,-1.130953979492221L480.26653125,60.13154602050781L480.41394270833337,126.48348274230955L482.18288020833336,200.1870517730713L482.7725260416666,106.31398849487306L484.0255234375,124.78705177307131L484.3940520833333,187.7459827423096L484.54146354166664,170.02693672180175L485.42593229166664,216.5864597320557L485.57334375000005,227.70803451538086L486.015578125,210.74300575256348L486.900046875,94.62693672180177L487.2685755208334,62.58199424743651L488.0056328125,38.83095397949217L488.7426901041666,58.81205177307129L490.80645052083327,144.39106903076174L490.9538619791667,150.61145973205566L491.2486848958333,111.7805057525635L492.3542708333333,104.05193672180178L495.3762057291667,73.5150287628174L495.59732291666666,75.02306327819826L496.92402604166665,83.31696548461912L498.2507291666667,235.05952301025388L499.5037265625,65.59806327819825L499.72484374999993,65.03244247436521L500.09337239583334,29.971430969238273L500.46190104166664,27.898063278198258L501.7886041666667,71.25297698974612L501.86230989583333,64.6555057525635L503.1153072916666,84.44806327819822L503.33642447916674,105.93705177307129L503.8523645833333,88.59494247436521L505.8424192708333,89.16056327819825L505.9898307291667,67.8599712371826L506.5057708333333,54.28794822692873L507.83247395833337,78.79300575256349L507.9798854166667,86.33303451538086L508.4958255208333,78.03898849487302L509.1591770833333,33.74151725769042L509.896234375,47.50193672180177L510.70699739583335,132.13854026794434L511.0018203125,169.83854026794432L511.07552604166665,166.44553451538087L512.4759348958333,23.5625L512.8444635416666,63.712948226928695L512.9918749999999,90.48005752563478L513.2866979166668,85.95595397949216L513.9500494791666,-13.383482742309537L515.2767526041666,25.636011505126937L516.7508671875,34.6839309692383L517.1193958333333,79.5470230102539L517.7827473958333,5.655057525634782L518.2249817708333,-0.18854026794430245L518.2986874999999,-1.508034515380826L518.5935104166667,20.16949424743654L518.8146276041667,22.054465484619133L520.4361536458333,139.11294822692872L521.7628567708333,163.05252876281736L522.0576796875,146.46443672180175L522.4262083333333,85.3904769897461L523.6055,4.7124999999999835L523.7529114583333,1.3194942474365234L524.48996875,64.6555057525635L524.932203125,121.95952301025392L525.0796145833333,174.3625L525.5218489583333,209.6120517730713L525.6692604166667,204.33393096923828L525.816671875,181.71398849487304L526.701140625,78.79300575256349L526.8485520833333,82.18601150512694L526.9959635416667,78.22752876281737L528.6911953125,84.63645973205564L529.354546875,102.92098274230955L529.5756640625,108.76443672180176L530.7549557291667,73.70356903076174L531.4920130208333,73.70356903076174L531.56571875,82.75148849487306L531.7131302083333,90.48005752563478L532.1553645833334,120.45148849487305L533.1135390625,117.43556327819823L533.4820677083333,75.58854026794432L533.9980078125,81.24345397949219L534.4402421875,19.980953979492195L535.3984166666667,74.45744247436522L537.3147656250001,89.16056327819825L539.0099973958334,54.66502876281737L539.3048203125,67.67143096923826L539.3785260416666,57.30401725769042L539.8944661458333,133.64643096923828L541.1474635416666,88.9720230102539L541.9582265625,34.11845397949219L542.7689895833333,60.88556327819823L543.2849296874999,91.7995517730713L543.7271640625,153.2504482269287L545.4961015625,63.14747123718263L549.5499166666666,13.948959732055647L549.8447395833333,15.833930969238281L550.8029140625,85.95595397949216L551.6136770833334,37.69999999999999L551.9085,36.191965484619125L552.4981458333334,114.2309539794922L552.5718515625,120.82856903076174L552.8666744791667,145.14494247436522L553.6037317708333,169.64999999999998L554.3407890625,131.57306327819822L554.4144947916667,114.60803451538084L554.4882005208333,102.54404602050784L555.0778463541667,33.17604026794435L556.5519609375,62.77053451538086L558.3208984375,130.8190460205078L558.7631328125,98.58556327819826L558.8368385416667,103.86354026794436L559.0579557291667,122.14806327819826L559.7950130208334,240.52604026794432L560.4583645833334,244.67306327819824L560.6794817708334,251.45893096923828L561.4165390625001,201.31800575256347L561.7850677083334,153.0620517730713L564.4384739583334,-18.284523010253906L565.1018255208334,30.91398849487303L565.2492369791667,30.91398849487303L565.5440598958334,14.326040267944336L565.9862942708334,77.47351150512696L566.2074114583334,86.52143096923828L566.7233515625,54.47648849487303L567.3129973958333,59.5660690307617L567.5341145833333,80.48943672180178L568.1237604166666,111.21502876281738L568.4185833333333,115.17351150512695L568.71340625,103.67500000000001L570.4086380208333,124.03303451538085L570.7034609375,148.3495517730713L571.2194010416667,167.7650287628174L571.5142239583333,152.87351150512694L572.3249869791666,105.5599712371826L573.2094557291666,165.50297698974612L574.3887473958333,290.8555057525635L576.231390625,305.5584827423096L577.3369765625,203.76845397949216L578.3688567708334,143.8254482269287L578.9585026041666,109.33005752563474L579.5481484375,45.42856903076171L579.9903828125,60.50848274230958L580.0640885416667,61.26249999999999L581.9804375,171.34643096923827L583.0123177083334,89.53750000000002L583.2334348958333,50.7065460205078L584.8549609375,131.76145973205564L586.1079583333333,93.68452301025388L586.9924270833333,145.33348274230957L587.2135442708334,115.73898849487307L587.6557786458334,107.63348274230958L588.9824817708334,146.6529769897461L589.1298932291667,127.99151725769042L590.4565963541667,105.74851150512694L590.7514192708334,109.70699424743651L592.2992395833332,160.97901725769043L592.5940625000001,169.27306327819826L593.1100026041667,149.10356903076172L594.0681770833334,149.29196548461914L594.5104114583334,137.22797698974608L595.5422916666666,103.29806327819824L596.4267604166666,155.88943672180176L597.5323463541666,166.44553451538087L598.1219921875,163.2410690307617L598.1956979166666,153.43898849487306L599.8172239583333,197.17098274230955L600.112046875,191.89300575256345L601.1439270833333,176.2474712371826L602.0283958333333,137.03943672180174L602.1021015625,121.95952301025392L602.6180416666667,128.55699424743653L603.649921875,64.46696548461915L604.09215625,68.61398849487307L604.6080963541666,129.6879482269287L604.7555078125,130.8190460205078L605.418859375,179.45193672180176L605.5662708333333,205.65356903076173L605.6399765625,189.81949424743652L607.0403854166667,198.30193672180178L607.2615026041667,169.4614597320557L607.9248541666667,140.6209827423096L608.8830286458333,98.96249999999998L609.9149088541667,145.52202301025392L610.6519661458334,186.99196548461913L611.8312578125,93.30744247436525L612.6420208333333,66.72901725769043L613.9687239583334,125.72946548461914L614.70578125,152.11949424743653L614.7794869791667,144.39106903076174L615.2217213541667,83.31696548461912L615.7376614583334,69.74494247436525L616.032484375,47.50193672180177L616.1061901041667,56.361459732055664L616.1798958333334,57.492557525634766L617.801421875,219.60252876281737L617.8751276041667,207.16145973205568L618.1699505208333,190.38497123718264L618.3173619791667,179.82901725769045L618.9807135416667,175.87053451538088L619.2755364583334,176.2474712371826L621.4130026041666,79.5470230102539L621.4867083333334,55.41904602050783L622.1500598958334,-24.12797698974611L622.8871171875,-19.60401725769043L623.6241744791666,66.35193672180174L623.6978802083333,89.16056327819825L623.8452916666668,114.41949424743655L624.2138203124999,142.1290172576904L624.6560546875,162.86398849487307L624.9508776041666,111.96904602050779L625.0982890625,120.6400287628174L626.2775807291666,46.182442474365246L626.7198151041666,62.39345397949217L626.7935208333333,65.78645973205568L627.3831666666667,99.71651725769044L628.7835755208333,188.12306327819823L630.0365729166667,199.99851150512694L631.952921875,89.34895973205568L633.6481536458334,29.78303451538085L634.606328125,13.006546020507812L634.8274453125,14.514436721801758L637.1123229166667,96.32351150512693L637.1860286458334,92.17648849487307L638.3653203125,80.67797698974607L638.4390260416667,75.02306327819826L639.1760833333334,86.14449424743651L639.3972005208333,106.5025287628174L639.5446119791667,105.93705177307129L640.355375,180.95997123718263L640.797609375,152.4964309692383L641.0187265625,128.74553451538088L641.3135494791667,97.8315460205078L642.6402526041667,107.25654602050781L642.7139583333334,111.59196548461915L643.00878125,109.51845397949216L643.2298984375,95.94643096923829L643.3773098958334,126.86056327819824L644.4091901041667,194.5319942474365L644.7040130208334,179.075L645.5147760416667,229.5930057525635L645.7358932291667,223.3724712371826L647.2100078125001,87.65252876281738L647.7996536458334,105.5599712371826L648.5367109375,167.01101150512693L648.6104166666667,160.79047698974608L649.4211796875,108.19895973205564L651.1164114583333,106.5025287628174L651.4849401041668,154.56994247436523L652.7379375,75.21145973205569L655.9809895833333,176.0589309692383L656.0546953125,154.00446548461912L656.3495182291666,103.67500000000001L656.6443411458333,89.72604026794431L657.9710442708333,177.75550575256347L658.4132786458333,190.57351150512693L658.486984375,180.58303451538086L661.582625,0.9425575256347573L662.1722708333334,197.3595230102539L662.7619166666666,238.64106903076174L662.8356223958333,235.81354026794435L664.0886197916667,302.35401725769043L665.0467942708333,270.4974712371826L665.3416171875,218.28303451538085L666.1523802083333,164.37202301025388L667.0368489583333,176.0589309692383L667.2579661458333,166.6339309692383L667.4053776041667,167.01101150512693L667.7002005208334,150.2345230102539L668.2898463541667,147.4069942474365L672.7121901041667,127.61443672180178L673.1544244791667,111.7805057525635L673.2281302083334,97.0775287628174L674.4811276041667,51.46056327819826L674.9970677083334,-31.102528762817418L676.6922994791666,64.46696548461915L676.9871223958334,140.99806327819823L677.7978854166666,172.10044822692873L678.0190026041666,167.7650287628174L679.272,199.0559539794922L679.7142343749999,193.58943672180175L680.6724088541666,3.9584827423095703L682.1465234375,207.35000000000002L682.809875,159.2824424743652L683.9891666666666,240.1489597320557L684.1365781249999,252.96696548461915L684.7999296875,75.02306327819826L685.46328125,50.51800575256346L686.0529270833333,63.33601150512697L687.5270416666666,275.20997123718263L687.674453125,290.4785690307617L687.8955703125,288.4050575256348L688.0429817708333,277.8489597320557L688.4852161458333,177.00148849487306L689.3696848958333,109.70699424743651L689.443390625,146.84151725769044L689.9593307291667,252.59002876281738L690.1804479166667,284.82351150512693L690.5489765625,375.8690460205078L691.0649166666667,210.17752876281736L691.212328125,133.08095397949216L694.9713203125,131.95L695.7820833333333,265.97351150512696L696.0032005208334,222.43005752563477L696.3717291666667,189.06547698974612L697.5510208333333,167.3879482269287L697.8458437500001,178.88645973205564L697.9195494791667,166.25699424743652L698.0669609375,175.11651725769042L698.8040182291667,162.86398849487307L699.0988411458334,175.68199424743653L699.3936640625,155.88943672180176L700.057015625,55.41904602050783L700.1307213541667,57.30401725769042L700.4992500000001,80.67797698974607L700.7940729166667,158.9055057525635L700.8677786458334,162.29851150512695L701.9733645833333,287.6510402679443L704.2582421875001,437.8855632781982L705.1427109375,193.7779769897461L705.6586510416666,113.47693672180174L706.0271796875,137.22797698974608L707.0590598958333,135.3430057525635L707.7224114583333,164.56056327819823L708.8279973958333,363.6165172576904L709.6387604166666,207.16145973205568L710.1547005208333,164.74895973205565L710.22840625,162.29851150512695L710.8917578124999,173.7970230102539L713.6925755208333,283.8809539794922L713.9136927083333,210.55446548461913L714.0611041666667,166.06845397949218L714.2822213541666,124.22143096923827L714.3559270833333,112.72306327819825L714.65075,98.58556327819826L717.0093333333333,225.63452301025393L718.0412135416666,13.572023010253924L720.0312682291667,203.39151725769045L720.4735026041667,165.50297698974612L720.7683255208333,230.53556327819825L722.0950286458334,340.24255752563477L722.4635572916667,288.21651725769044L723.5691432291667,18.284523010253906L723.7902604166667,-1.3194942474365234L724.0113776041667,14.891517257690447L725.5591979166667,8.29404602050783L726.3699609375001,47.125L727.3281354166667,258.0565460205078L727.4018411458334,259.9415172576904L728.1388984375001,212.0625L728.360015625,207.72693672180174L728.6548385416667,218.84851150512696L729.9078359375001,260.69553451538087L730.0552473958334,272.75952301025393L730.2763645833334,305.1815460205078L731.8241848958334,75.58854026794432L731.9715963541666,51.08348274230957L732.340125,88.02946548461915L733.1508880208333,45.05148849487306L733.7405338541666,-16.022471237182582L734.0353567708333,32.233482742309555L735.2883541666667,68.04851150512695L735.7305885416666,13.948959732055647L736.4676458333333,109.14151725769045L736.6150572916666,120.2629482269287L737.0572916666667,108.57604026794434L737.4258203125,106.87946548461912L737.7943489583333,145.8989597320557L738.0154661458333,183.41056327819825L739.1210520833333,174.3625L739.1947578125,162.67544822692872L741.1848125,32.98750000000001L741.7744583333333,105.5599712371826L742.511515625,166.82247123718264L743.3222786458333,190.00803451538087L744.8700989583333,137.22797698974608L745.3123333333333,108.19895973205564L746.1230963541667,89.72604026794431L746.1968020833333,68.61398849487307L748.5553854166667,48.255953979492176L748.6290911458334,47.50193672180177L749.0713255208333,68.04851150512695L752.9040234375,156.0779769897461L753.0514348958334,167.57648849487305L753.567375,135.7199424743652L753.7884921875,94.43854026794435L754.3044322916667,105.74851150512694L756.2944869791667,136.0970230102539L757.8423072916667,166.25699424743652L758.5793645833334,74.08050575256345L759.75865625,5.843453979492204L759.9060677083334,-12.81800575256351L760.0534791666666,1.884971237182634L760.4220078125,7.916965484619141L762.7805911458333,349.6675575256348L763.1491197916666,341.93898849487306L763.9598828125,97.0775287628174L764.0335885416666,86.33303451538086L764.1072942708333,80.86651725769042L764.3284114583333,55.984523010253895L765.507703125,24.69345397949218L767.4977578125,360.60044822692873L767.718875,397.16949424743655L769.1929895833333,64.46696548461915L769.6352239583333,107.06800575256347L769.7089296875,116.86994247436525L771.6252786458333,222.43005752563477L772.14121875,236.75595397949218L772.6571588541667,156.64345397949216L775.0894479166666,189.06547698974612L775.3105651041667,152.11949424743653L776.7109739583333,118.37797698974612L776.7846796875,118.75505752563475L777.44803125,222.80699424743653L777.9639713541667,387.9330345153809L778.1850885416667,406.5944942474365L778.7010286458333,372.8529769897461L778.9221458333334,349.10193672180174L780.3225546875,70.87604026794435L780.543671875,110.08393096923828L781.3544348958333,105.93705177307129L782.1651979166667,189.06547698974612L782.9022552083334,178.88645973205564L783.0496666666667,170.40401725769044L783.1233723958333,163.80654602050782L783.3444895833334,151.17693672180178L785.1134270833334,-11.498511505126986L785.850484375,-19.03854026794432L787.2508932291666,35.24955177307129L787.3245989583334,38.265476989746105L787.9879505208334,147.4069942474365L788.5775963541666,174.17395973205566L789.4620651041666,173.41994247436526L792.1891770833333,230.72395973205568L792.4102942708333,225.25744247436523L793.0736458333333,152.11949424743653L793.1473515625,139.30148849487307L793.5895859375,134.02351150512698L793.7369973958333,146.84151725769044L794.4003489583333,269.3665172576904L796.9800494791667,134.02351150512698L797.2748723958333,117.0584827423096" style="fill: none;" fill="none"></path></g></g></g></g></g></g><g transform="translate(30, 377)" clip-path="url(#clip_1)"><clipPath id="clip_1"><rect width="884" height="23"></rect></clipPath><g><g><line x1="0" y1="0" x2="0" y2="5" style="visibility: inherit;" fill="rgb(0, 0, 0)" stroke="rgb(204, 204, 204)" stroke-width="1px"></line><line x1="73.70572916666666" y1="0" x2="73.70572916666666" y2="5" style="visibility: inherit;" fill="rgb(0, 0, 0)" stroke="rgb(204, 204, 204)" stroke-width="1px"></line><line x1="147.41145833333331" y1="0" x2="147.41145833333331" y2="5" style="visibility: inherit;" fill="rgb(0, 0, 0)" stroke="rgb(204, 204, 204)" stroke-width="1px"></line><line x1="221.1171875" y1="0" x2="221.1171875" y2="5" style="visibility: inherit;" fill="rgb(0, 0, 0)" stroke="rgb(204, 204, 204)" stroke-width="1px"></line><line x1="294.82291666666663" y1="0" x2="294.82291666666663" y2="5" style="visibility: inherit;" fill="rgb(0, 0, 0)" stroke="rgb(204, 204, 204)" stroke-width="1px"></line><line x1="368.52864583333337" y1="0" x2="368.52864583333337" y2="5" style="visibility: inherit;" fill="rgb(0, 0, 0)" stroke="rgb(204, 204, 204)" stroke-width="1px"></line><line x1="442.234375" y1="0" x2="442.234375" y2="5" style="visibility: inherit;" fill="rgb(0, 0, 0)" stroke="rgb(204, 204, 204)" stroke-width="1px"></line><line x1="515.9401041666667" y1="0" x2="515.9401041666667" y2="5" style="visibility: inherit;" fill="rgb(0, 0, 0)" stroke="rgb(204, 204, 204)" stroke-width="1px"></line><line x1="589.6458333333333" y1="0" x2="589.6458333333333" y2="5" style="visibility: inherit;" fill="rgb(0, 0, 0)" stroke="rgb(204, 204, 204)" stroke-width="1px"></line><line x1="663.3515625" y1="0" x2="663.3515625" y2="5" style="visibility: inherit;" fill="rgb(0, 0, 0)" stroke="rgb(204, 204, 204)" stroke-width="1px"></line><line x1="737.0572916666667" y1="0" x2="737.0572916666667" y2="5" style="visibility: inherit;" fill="rgb(0, 0, 0)" stroke="rgb(204, 204, 204)" stroke-width="1px"></line><line x1="810.7630208333333" y1="0" x2="810.7630208333333" y2="5" style="visibility: inherit;" fill="rgb(0, 0, 0)" stroke="rgb(204, 204, 204)" stroke-width="1px"></line><line x1="884.46875" y1="0" x2="884.46875" y2="5" style="visibility: inherit;" fill="rgb(0, 0, 0)" stroke="rgb(204, 204, 204)" stroke-width="1px"></line></g><g transform="translate(0, 8)"><text x="0" y="0" dx="0em" dy="0.95em" style="text-anchor: middle; visibility: hidden; font-family: Roboto, sans-serif; font-size: 12px; font-weight: 200;" fill="rgb(33, 33, 33)" stroke="none" stroke-width="1px">-50k</text><text x="73.70572916666666" y="0" dx="0em" dy="0.95em" style="text-anchor: middle; visibility: inherit; font-family: Roboto, sans-serif; font-size: 12px; font-weight: 200;" fill="rgb(33, 33, 33)" stroke="none" stroke-width="1px">0</text><text x="147.41145833333331" y="0" dx="0em" dy="0.95em" style="text-anchor: middle; visibility: inherit; font-family: Roboto, sans-serif; font-size: 12px; font-weight: 200;" fill="rgb(33, 33, 33)" stroke="none" stroke-width="1px">50k</text><text x="221.1171875" y="0" dx="0em" dy="0.95em" style="text-anchor: middle; visibility: inherit; font-family: Roboto, sans-serif; font-size: 12px; font-weight: 200;" fill="rgb(33, 33, 33)" stroke="none" stroke-width="1px">100k</text><text x="294.82291666666663" y="0" dx="0em" dy="0.95em" style="text-anchor: middle; visibility: inherit; font-family: Roboto, sans-serif; font-size: 12px; font-weight: 200;" fill="rgb(33, 33, 33)" stroke="none" stroke-width="1px">150k</text><text x="368.52864583333337" y="0" dx="0em" dy="0.95em" style="text-anchor: middle; visibility: inherit; font-family: Roboto, sans-serif; font-size: 12px; font-weight: 200;" fill="rgb(33, 33, 33)" stroke="none" stroke-width="1px">200k</text><text x="442.234375" y="0" dx="0em" dy="0.95em" style="text-anchor: middle; visibility: inherit; font-family: Roboto, sans-serif; font-size: 12px; font-weight: 200;" fill="rgb(33, 33, 33)" stroke="none" stroke-width="1px">250k</text><text x="515.9401041666667" y="0" dx="0em" dy="0.95em" style="text-anchor: middle; visibility: inherit; font-family: Roboto, sans-serif; font-size: 12px; font-weight: 200;" fill="rgb(33, 33, 33)" stroke="none" stroke-width="1px">300k</text><text x="589.6458333333333" y="0" dx="0em" dy="0.95em" style="text-anchor: middle; visibility: inherit; font-family: Roboto, sans-serif; font-size: 12px; font-weight: 200;" fill="rgb(33, 33, 33)" stroke="none" stroke-width="1px">350k</text><text x="663.3515625" y="0" dx="0em" dy="0.95em" style="text-anchor: middle; visibility: inherit; font-family: Roboto, sans-serif; font-size: 12px; font-weight: 200;" fill="rgb(33, 33, 33)" stroke="none" stroke-width="1px">400k</text><text x="737.0572916666667" y="0" dx="0em" dy="0.95em" style="text-anchor: middle; visibility: inherit; font-family: Roboto, sans-serif; font-size: 12px; font-weight: 200;" fill="rgb(33, 33, 33)" stroke="none" stroke-width="1px">450k</text><text x="810.7630208333333" y="0" dx="0em" dy="0.95em" style="text-anchor: middle; visibility: inherit; font-family: Roboto, sans-serif; font-size: 12px; font-weight: 200;" fill="rgb(33, 33, 33)" stroke="none" stroke-width="1px">500k</text><text x="884.46875" y="0" dx="0em" dy="0.95em" style="text-anchor: middle; visibility: hidden; font-family: Roboto, sans-serif; font-size: 12px; font-weight: 200;" fill="rgb(33, 33, 33)" stroke="none" stroke-width="1px">550k</text></g><line x1="0" y1="0" x2="884.46875" y2="0" fill="rgb(0, 0, 0)" stroke="rgb(204, 204, 204)" stroke-width="1px"></line></g></g></g></g></svg>