<svg viewBox="0 0 330 200" xmlns="http://www.w3.org/2000/svg"><g><g><g><g><g><line x1="53.1875" y1="176" x2="48.1875" y2="176" style="visibility: inherit;" fill="rgb(0, 0, 0)" stroke="rgb(204, 204, 204)" stroke-width="1px"></line><line x1="53.1875" y1="158.39999999999975" x2="48.1875" y2="158.39999999999975" style="visibility: inherit;" fill="rgb(0, 0, 0)" stroke="rgb(204, 204, 204)" stroke-width="1px"></line><line x1="53.1875" y1="140.7999999999995" x2="48.1875" y2="140.7999999999995" style="visibility: inherit;" fill="rgb(0, 0, 0)" stroke="rgb(204, 204, 204)" stroke-width="1px"></line><line x1="53.1875" y1="123.19999999999925" x2="48.1875" y2="123.19999999999925" style="visibility: inherit;" fill="rgb(0, 0, 0)" stroke="rgb(204, 204, 204)" stroke-width="1px"></line><line x1="53.1875" y1="105.599999999999" x2="48.1875" y2="105.599999999999" style="visibility: inherit;" fill="rgb(0, 0, 0)" stroke="rgb(204, 204, 204)" stroke-width="1px"></line><line x1="53.1875" y1="88" x2="48.1875" y2="88" style="visibility: inherit;" fill="rgb(0, 0, 0)" stroke="rgb(204, 204, 204)" stroke-width="1px"></line><line x1="53.1875" y1="70.39999999999975" x2="48.1875" y2="70.39999999999975" style="visibility: inherit;" fill="rgb(0, 0, 0)" stroke="rgb(204, 204, 204)" stroke-width="1px"></line><line x1="53.1875" y1="52.7999999999995" x2="48.1875" y2="52.7999999999995" style="visibility: inherit;" fill="rgb(0, 0, 0)" stroke="rgb(204, 204, 204)" stroke-width="1px"></line><line x1="53.1875" y1="35.19999999999925" x2="48.1875" y2="35.19999999999925" style="visibility: inherit;" fill="rgb(0, 0, 0)" stroke="rgb(204, 204, 204)" stroke-width="1px"></line><line x1="53.1875" y1="17.599999999999" x2="48.1875" y2="17.599999999999" style="visibility: inherit;" fill="rgb(0, 0, 0)" stroke="rgb(204, 204, 204)" stroke-width="1px"></line><line x1="53.1875" y1="0" x2="48.1875" y2="0" style="visibility: inherit;" fill="rgb(0, 0, 0)" stroke="rgb(204, 204, 204)" stroke-width="1px"></line></g><g transform="translate(43.1875, 0)"><text x="0" y="176" dx="0em" dy="0.3em" style="text-anchor: end; visibility: hidden; font-family: Roboto, sans-serif; font-size: 12px; font-weight: 200;" fill="rgb(33, 33, 33)" stroke="none" stroke-width="1px">94.6</text><text x="0" y="158.39999999999975" dx="0em" dy="0.3em" style="text-anchor: end; visibility: inherit; font-family: Roboto, sans-serif; font-size: 12px; font-weight: 200;" fill="rgb(33, 33, 33)" stroke="none" stroke-width="1px">94.8</text><text x="0" y="140.7999999999995" dx="0em" dy="0.3em" style="text-anchor: end; visibility: hidden; font-family: Roboto, sans-serif; font-size: 12px; font-weight: 200;" fill="rgb(33, 33, 33)" stroke="none" stroke-width="1px">95</text><text x="0" y="123.19999999999925" dx="0em" dy="0.3em" style="text-anchor: end; visibility: inherit; font-family: Roboto, sans-serif; font-size: 12px; font-weight: 200;" fill="rgb(33, 33, 33)" stroke="none" stroke-width="1px">95.2</text><text x="0" y="105.599999999999" dx="0em" dy="0.3em" style="text-anchor: end; visibility: hidden; font-family: Roboto, sans-serif; font-size: 12px; font-weight: 200;" fill="rgb(33, 33, 33)" stroke="none" stroke-width="1px">95.4</text><text x="0" y="88" dx="0em" dy="0.3em" style="text-anchor: end; visibility: inherit; font-family: Roboto, sans-serif; font-size: 12px; font-weight: 200;" fill="rgb(33, 33, 33)" stroke="none" stroke-width="1px">95.6</text><text x="0" y="70.39999999999975" dx="0em" dy="0.3em" style="text-anchor: end; visibility: hidden; font-family: Roboto, sans-serif; font-size: 12px; font-weight: 200;" fill="rgb(33, 33, 33)" stroke="none" stroke-width="1px">95.8</text><text x="0" y="52.7999999999995" dx="0em" dy="0.3em" style="text-anchor: end; visibility: inherit; font-family: Roboto, sans-serif; font-size: 12px; font-weight: 200;" fill="rgb(33, 33, 33)" stroke="none" stroke-width="1px">96</text><text x="0" y="35.19999999999925" dx="0em" dy="0.3em" style="text-anchor: end; visibility: hidden; font-family: Roboto, sans-serif; font-size: 12px; font-weight: 200;" fill="rgb(33, 33, 33)" stroke="none" stroke-width="1px">96.2</text><text x="0" y="17.599999999999" dx="0em" dy="0.3em" style="text-anchor: end; visibility: inherit; font-family: Roboto, sans-serif; font-size: 12px; font-weight: 200;" fill="rgb(33, 33, 33)" stroke="none" stroke-width="1px">96.4</text><text x="0" y="0" dx="0em" dy="0.3em" style="text-anchor: end; visibility: hidden; font-family: Roboto, sans-serif; font-size: 12px; font-weight: 200;" fill="rgb(33, 33, 33)" stroke="none" stroke-width="1px">96.6</text></g><line x1="53.1875" y1="0" x2="53.1875" y2="176" fill="rgb(0, 0, 0)" stroke="rgb(204, 204, 204)" stroke-width="1px"></line></g></g><g transform="translate(53, 0)" clip-path="url(#clip_0)"><clipPath id="clip_0"><rect width="276" height="176"></rect></clipPath><g><g><g><line x1="0" y1="0" x2="0" y2="176" fill="rgb(0, 0, 0)" stroke="rgb(66, 66, 66)" stroke-width="1px" opacity="0.25"></line><line x1="23.067708333333332" y1="0" x2="23.067708333333332" y2="176" fill="rgb(0, 0, 0)" stroke="rgb(66, 66, 66)" stroke-width="1px" opacity="0.25"></line><line x1="46.135416666666664" y1="0" x2="46.135416666666664" y2="176" fill="rgb(0, 0, 0)" stroke="rgb(66, 66, 66)" stroke-width="1px" opacity="0.25"></line><line x1="69.203125" y1="0" x2="69.203125" y2="176" fill="rgb(0, 0, 0)" stroke="rgb(66, 66, 66)" stroke-width="1px" opacity="0.25"></line><line x1="92.27083333333333" y1="0" x2="92.27083333333333" y2="176" fill="rgb(0, 0, 0)" stroke="rgb(66, 66, 66)" stroke-width="1px" opacity="0.25"></line><line x1="115.33854166666667" y1="0" x2="115.33854166666667" y2="176" fill="rgb(0, 0, 0)" stroke="rgb(66, 66, 66)" stroke-width="1px" opacity="0.25"></line><line x1="138.40625" y1="0" x2="138.40625" y2="176" fill="rgb(0, 0, 0)" stroke="rgb(66, 66, 66)" stroke-width="1px" opacity="0.25"></line><line x1="161.47395833333334" y1="0" x2="161.47395833333334" y2="176" fill="rgb(0, 0, 0)" stroke="rgb(66, 66, 66)" stroke-width="1px" opacity="0.25"></line><line x1="184.54166666666666" y1="0" x2="184.54166666666666" y2="176" fill="rgb(0, 0, 0)" stroke="rgb(66, 66, 66)" stroke-width="1px" opacity="0.25"></line><line x1="207.609375" y1="0" x2="207.609375" y2="176" fill="rgb(0, 0, 0)" stroke="rgb(66, 66, 66)" stroke-width="1px" opacity="0.25"></line><line x1="230.67708333333334" y1="0" x2="230.67708333333334" y2="176" fill="rgb(0, 0, 0)" stroke="rgb(66, 66, 66)" stroke-width="1px" opacity="0.25"></line><line x1="253.74479166666666" y1="0" x2="253.74479166666666" y2="176" fill="rgb(0, 0, 0)" stroke="rgb(66, 66, 66)" stroke-width="1px" opacity="0.25"></line><line x1="276.8125" y1="0" x2="276.8125" y2="176" fill="rgb(0, 0, 0)" stroke="rgb(66, 66, 66)" stroke-width="1px" opacity="0.25"></line></g><g><line x1="0" y1="176" x2="276.8125" y2="176" fill="rgb(0, 0, 0)" stroke="rgb(66, 66, 66)" stroke-width="1px" opacity="0.25"></line><line x1="0" y1="158.39999999999975" x2="276.8125" y2="158.39999999999975" fill="rgb(0, 0, 0)" stroke="rgb(66, 66, 66)" stroke-width="1px" opacity="0.25"></line><line x1="0" y1="140.7999999999995" x2="276.8125" y2="140.7999999999995" fill="rgb(0, 0, 0)" stroke="rgb(66, 66, 66)" stroke-width="1px" opacity="0.25"></line><line x1="0" y1="123.19999999999925" x2="276.8125" y2="123.19999999999925" fill="rgb(0, 0, 0)" stroke="rgb(66, 66, 66)" stroke-width="1px" opacity="0.25"></line><line x1="0" y1="105.599999999999" x2="276.8125" y2="105.599999999999" fill="rgb(0, 0, 0)" stroke="rgb(66, 66, 66)" stroke-width="1px" opacity="0.25"></line><line x1="0" y1="88" x2="276.8125" y2="88" fill="rgb(0, 0, 0)" stroke="rgb(66, 66, 66)" stroke-width="1px" opacity="0.25"></line><line x1="0" y1="70.39999999999975" x2="276.8125" y2="70.39999999999975" fill="rgb(0, 0, 0)" stroke="rgb(66, 66, 66)" stroke-width="1px" opacity="0.25"></line><line x1="0" y1="52.7999999999995" x2="276.8125" y2="52.7999999999995" fill="rgb(0, 0, 0)" stroke="rgb(66, 66, 66)" stroke-width="1px" opacity="0.25"></line><line x1="0" y1="35.19999999999925" x2="276.8125" y2="35.19999999999925" fill="rgb(0, 0, 0)" stroke="rgb(66, 66, 66)" stroke-width="1px" opacity="0.25"></line><line x1="0" y1="17.599999999999" x2="276.8125" y2="17.599999999999" fill="rgb(0, 0, 0)" stroke="rgb(66, 66, 66)" stroke-width="1px" opacity="0.25"></line><line x1="0" y1="0" x2="276.8125" y2="0" fill="rgb(0, 0, 0)" stroke="rgb(66, 66, 66)" stroke-width="1px" opacity="0.25"></line></g></g></g><g><g><line x1="0" y1="8500.8" x2="276.8125" y2="8500.8" fill="rgb(0, 0, 0)" stroke="rgb(153, 153, 153)" stroke-width="1.5px"></line></g></g><g><g><line x1="23.067708333333332" y1="0" x2="23.067708333333332" y2="176" fill="rgb(0, 0, 0)" stroke="rgb(153, 153, 153)" stroke-width="1.5px"></line></g></g><g><g><g><g><g><path stroke="rgb(255, 112, 67)" stroke-width="2px" d="M32.756145833333335,182.55046968474846L32.98682291666667,169.5673472367872L33.2175,174.17154115537073L33.448177083333334,183.1325682488424L33.67885416666667,176.1153856754313L33.90953125,165.70629683455616L34.140208333333334,165.65962282729424L34.37088541666667,165.6316184229396L34.6015625,159.41603648340003L34.83223958333333,161.88546661661508L35.062916666666666,181.95970282158987L35.29359375,150.62380020852345L35.52427083333333,156.61012485168362L35.75494791666667,141.60934151256322L35.985625,151.20144963410348L36.21630208333333,144.5629156788989L36.446979166666665,140.57979530577563L36.67765625,144.38494261315293L36.90833333333333,146.6680309975793L37.139010416666665,148.03788402823488L37.369687500000005,148.85979584662948L37.60036458333333,136.959144109538L37.831041666666664,142.21255189541034L38.061718750000004,132.97079773880876L38.29239583333334,127.4257452448453L38.52307291666666,130.29749304534573L38.753750000000004,107.22918430377024L38.98442708333334,118.17955648069994L39.21510416666666,106.15693310717052L39.445781249999996,105.14213837992736L39.676458333333336,116.92732892639322L39.90713541666667,117.79966395739723L40.137812499999995,112.12777689006339L40.368489583333336,108.72464464966333L40.59916666666667,100.4839860085483L40.829843749999995,120.32745703481578L41.060520833333335,113.64445273651427L41.29119791666667,91.04207203253361L41.521875,108.46728911795822L41.752552083333335,106.52835198639923L41.98322916666667,99.16621041059034L42.21390625,88.550414722916L42.44458333333333,75.9856492243739L42.67526041666667,80.84058875337439L42.9059375,83.75355247077368L43.13661458333333,85.50133070121501L43.36729166666667,74.1561988113533L43.59796875,85.94169780243703L43.82864583333333,86.81421790021227L44.05932291666667,93.53650925575266L44.29,103.7651721550144L44.52067708333333,103.70708180863369L44.751354166666665,103.67222760080426L44.98203125,97.45253577923336L45.21270833333333,68.93285447535231L45.443385416666665,51.82104569302419L45.674062500000005,60.14331589237656L45.90473958333333,52.74261062917549L46.135416666666664,73.09354489313034L46.366093750000005,91.49939353744026L46.59677083333333,90.14883534121395L46.827447916666664,89.33850042347842L47.058125000000004,76.4585006447121L47.28880208333334,87.32307890245181L47.51947916666666,81.44453581803339L47.750156249999996,65.52334258456858L47.98083333333334,62.16940594136645L48.21151041666666,78.74962208044417L48.442187499999996,88.6977517638918L48.672864583333336,76.07405144895938L48.90354166666667,93.28769747093793L49.134218749999995,91.22181770131306L49.364895833333335,108.57513651922613L49.59557291666667,94.19577038809848L49.82625,85.56815070942139L50.056927083333335,74.19629081627863L50.28760416666667,67.37317488039298L50.51828125,69.47459340479759L50.74895833333333,83.1327345585031L50.97963541666667,72.73504112572641L51.2103125,78.89022389418665L51.440989583333334,63.99075543026129L51.67166666666667,67.44514173471907L51.90234375,81.91506355645674L52.13302083333333,78.19972661043585L52.363697916666666,69.77523635688681L52.594375,70.91583029069488L52.82505208333333,65.40489856504223L53.05572916666667,68.29362761558764L53.28640625,51.43750957716463L53.51708333333333,66.11170496504883L53.747760416666665,62.52242336965435L53.9784375,60.36885441241816L54.20911458333333,59.076713038075695L54.439791666666665,70.69522704159522L54.670468750000005,96.25918212339468L54.90114583333333,111.59755517247436L55.131822916666664,89.81393349411042L55.362500000000004,70.54498119021605L55.59317708333334,71.37767719069143L55.82385416666666,71.87729479097766L56.054531250000004,78.3755760933359L56.28520833333334,69.88074604662734L56.51588541666666,64.7838480186017L56.746562499999996,61.72570920178532L56.977239583333336,66.08611399763299L57.20791666666667,74.9008676173296L57.438593749999995,61.59714166414756L57.669270833333336,41.221107264112334L57.89994791666667,53.7833528350302L58.130624999999995,42.73134470883042L58.361302083333335,42.29542791904805L58.59197916666667,48.23265714205388L58.82265625,45.59621537898238L59.053333333333335,37.81906223520173L59.28401041666667,51.742125817683586L59.5146875,47.7018965843597L59.74536458333333,45.27775904436612L59.97604166666667,62.41585464537047L60.20671875,54.10613388097158L60.43739583333333,61.51436880514575L60.66807291666667,72.15782050183725L60.89875,66.15009269172765L61.12942708333333,62.54545600566189L61.36010416666667,60.382673994022184L61.59078125,71.47880361516286L61.82145833333333,78.13648138784777L62.052135416666665,57.34322184052121L62.2828125,51.062554198063026L62.51348958333333,59.688220995400115L62.744166666666665,52.46955369098987L62.974843750000005,48.13835330834422L63.20552083333333,64.13221120375658L63.436197916666664,73.728525941003L63.666875000000005,79.4863147833521L63.89755208333333,76.74247734657331L64.12822916666667,50.308308673568035L64.35890625,46.84160629789062L64.58958333333334,69.55294229435867L64.82026041666667,89.3750319781775L65.0509375,113.6620846165938L65.28161458333334,97.24793924651908L65.51229166666667,87.39945202447325L65.74296875,75.29507160530875L65.97364583333334,80.42624218193555L66.20432291666667,71.11114569978713L66.435,77.91588663862308L66.66567708333334,88.19751049879915L66.89635416666667,94.36648481490454L67.12703125,104.26315749050502L67.35770833333333,85.41329488492806L67.58838541666667,80.29866540751914L67.8190625,95.82246584607378L68.04973958333333,92.74267872639507L68.28041666666667,90.89480645458684L68.51109375,71.1935049665019L68.74177083333333,71.76679145646244L68.97244791666667,59.716695967626265L69.203125,58.68541797120156L69.43380208333333,58.066651173345235L69.66447916666667,51.49661179775694L69.89515625,84.74001297709196L70.12583333333333,86.09320700500598L70.35651041666667,93.10390271862889L70.5871875,91.11154084992813L70.81786458333335,89.91612372870668L71.04854166666667,89.19887345597431L71.27921875,82.57001255014688L71.50989583333335,72.39740792071393L71.74057291666666,60.09506584617816L71.97125,52.713660601456695L72.20192708333333,60.67888483743582L72.43260416666666,46.86866391027354L72.66328125,38.582531353977174L72.89395833333333,39.806139906135854L73.12463541666666,28.146506209305812L73.3553125,27.349236733396538L73.58598958333333,45.46023051659972L73.81666666666666,43.93275940370938L74.04734375000001,61.60885486097618L74.27802083333333,59.82071330721101L74.50869791666666,89.7344738827644L74.73937500000001,95.28866284528294L74.97005208333333,73.82981880092007L75.20072916666666,73.34857975711384L75.43140625000001,73.0598363308311L75.66208333333333,66.69130218912346L75.89276041666666,69.06546979003588L76.12343750000001,45.702104139645826L76.35411458333333,56.471950960349545L76.58479166666667,44.34450358402228L76.81546875000001,49.462102541037666L77.04614583333333,52.5326619152479L77.27682291666667,41.98093015696054L77.50750000000001,48.043958484801124L77.73817708333333,51.681775481505724L77.96885416666667,41.470398296715985L78.19953124999999,53.93292745459189L78.43020833333333,73.80773498837993L78.66088541666667,79.53384021177726L78.89156249999999,58.181637134878656L79.12223958333333,76.35696079655224L79.35291666666667,68.6695768685554L79.58359374999999,82.64972463675804L79.81427083333334,60.05116778986712L80.04494791666667,65.08138915048232L80.27562499999999,68.09952196685094L80.50630208333334,69.91040165667187L80.73697916666667,64.80164138462817L80.96765624999999,61.73638522140095L81.19833333333334,66.09251960940287L81.42901041666667,74.90471098439252L81.65968749999999,61.59944768438481L81.89036458333334,53.61628970438119L82.12104166666667,42.63110683044101L82.35171875,42.23528519201341L82.58239583333334,48.196571505833845L82.81307291666667,51.77334329412611L83.04375,53.919406367100464L83.27442708333334,36.61446608588483L83.50510416666667,51.01936812809345L83.73578125,34.87444314248137L83.96645833333334,43.78006627611387L84.19713541666665,49.12344015629287L84.4278125,39.93539710158802L84.65848958333333,59.210437479703614L84.88916666666665,45.98759549563397L85.11984375,44.24917839112993L85.35052083333333,49.40490742530301L85.58119791666667,46.299565548931355L85.811875,63.02893854810861L86.04255208333333,42.08018539448972L86.27322916666667,41.90473233044338L86.50390625,47.99823978889083L86.73458333333333,39.26027688114755L86.96526041666667,52.60685460525133L87.1959375,66.8133119819006L87.42661458333333,62.94338757976516L87.65729166666667,60.621432938483395L87.88796875,46.834192770901836L88.11864583333335,32.3633379281664L88.34932291666667,29.87933576471164L88.58,28.388934466639284L88.81067708333335,15.10089485967137L89.04135416666666,44.30973613455262L89.27203125,61.83504089948087L89.50270833333333,59.956424930313574L89.73338541666666,46.435187966001195L89.9640625,50.71651317022577L90.19473958333333,65.67910712088576L90.42541666666666,68.45815274909376L90.65609375,70.1255801260188L90.88677083333333,52.53668108342333L91.11744791666666,66.7712078688038L91.34812500000001,56.71934581503183L91.57880208333333,50.6882285827694L91.80947916666666,40.87427015747369L92.04015625000001,53.57525057104726L92.27083333333333,48.80177143637866L92.50151041666666,64.53026208057724L92.73218750000001,49.1794902561594L92.96286458333333,58.55838263025794L93.19354166666666,57.99042996878006L93.42421875000001,63.84494645782934L93.65489583333333,79.7549463903224L93.88557291666667,76.90365631075474L94.11625000000001,56.603526794264894L94.34692708333333,50.618737170308236L94.57760416666667,59.42193077874799L94.80828125000001,39.915980732873095L95.03895833333333,46.80498883034966L95.26963541666667,44.739614391959094L95.50031249999999,37.30510164298801L95.73098958333333,39.039682079542104L95.96166666666667,46.27920963834981L96.19234374999999,44.42414687675944L96.42302083333333,37.11582113386771L96.65369791666667,45.12489307094643L96.88437499999999,37.536268850379656L97.11505208333334,39.178382403977594L97.34572916666667,52.557717918948356L97.57640624999999,48.19125184511881L97.80708333333334,51.77015149769659L98.03776041666667,41.52342390643025L98.26843749999999,41.57067543760695L98.49911458333334,35.40373827037672L98.72979166666667,25.505065227850082L98.96046874999999,25.7643721445221L99.19114583333334,25.91995629452481L99.42182291666667,44.602662253277686L99.6525,43.41821844571541L99.88317708333334,48.9063314580543L100.11385416666667,52.19919926545788L100.34453125,41.78085256708778L100.57520833333334,35.529844548064716L100.80588541666667,37.97452782258813L101.0365625,58.03391591230343L101.26723958333334,45.281682555193356L101.49791666666665,25.236543712802813L101.72859375,13.209460407368738L101.95927083333333,12.188498510045292L102.18994791666665,23.969720199776475L102.420625,31.038453213615185L102.65130208333333,29.08440493598141L102.88197916666667,21.713465227213646L103.11265625,17.290901401952738L103.34333333333333,20.835873848984193L103.57401041666667,29.158145403139315L103.8046875,34.15150833563314L104.03536458333333,37.14752609512993L104.26604166666667,38.94513675082726L104.49671875,58.616281269246656L104.72739583333333,51.82638985529729L104.95807291666667,35.358656178802676L105.18875,31.676526715094155L105.41942708333335,29.467249036868793L105.65010416666667,28.141682429933326L105.88078125,45.935697934522295L106.11145833333335,44.21803985446218L106.34213541666666,36.992156920489606L106.5728125,32.65662716010581L106.80348958333333,23.856798561688038L107.03416666666666,37.16947952763712L107.26484375,38.95830881033157L107.49552083333333,58.624184504948744L107.72619791666666,64.22519917953105L107.956875,61.39051989834343L108.18755208333333,59.68971232963111L108.41822916666666,58.669227788404214L108.64890625000001,51.85815776679283L108.87958333333333,47.7715157538255L109.11026041666666,45.3195305460456L109.34093750000001,37.65305133543916L109.57161458333333,26.854653066887295L109.80229166666666,38.96819223075818L110.03296875000001,40.037536432204206L110.26364583333333,46.877922249947574L110.49432291666666,44.783374443718344L110.72500000000001,55.92071314279406L110.95567708333333,50.20904897942523L111.18635416666667,52.98082977827994L111.41703125000001,36.051320132592764L111.64770833333333,32.09212508736846L111.87838541666667,42.110675443046375L112.10906250000001,29.529227531451625L112.33973958333333,40.572936909496775L112.57041666666667,41.000383239447615L112.80109374999999,41.25685103741762L113.03177083333333,47.60951101307637L113.26244791666667,51.42110699847012L113.49312499999999,47.509285292832374L113.72380208333333,38.966904183511474L113.95447916666667,33.841475517919434L114.18515624999999,24.56770757637696L114.41583333333334,25.201957553638977L114.64651041666667,25.582507539996186L114.87718749999999,32.00612561774801L115.10786458333334,23.466497636272607L115.33854166666667,24.541231589576114L115.56921874999999,18.98756121937072L115.79989583333334,21.85386973943423L116.03057291666667,17.37514410928509L116.26124999999999,14.687908731196103L116.49192708333334,25.46936633246696L116.72260416666667,25.742952807292227L116.95328125,32.102392778125136L117.18395833333334,29.72276867468713L117.41463541666667,59.28163972043808L117.6453125,52.22560492601315L117.87598958333334,54.19076334623219L118.10666666666667,49.17107910148911L118.33734375,46.15926855464227L118.56802083333334,44.35218222653566L118.79869791666665,43.267930429671196L119.029375,48.81615864842752L119.26005208333333,64.53889440780631L119.49072916666665,61.57873703530959L119.72140625,72.19644143993605L119.95208333333333,72.36855334052393L120.18276041666667,72.47182048087666L120.4134375,66.33849267915105L120.64411458333333,56.45971670123993L120.87479166666667,69.12502923949376L121.10546875,58.1316386374458L121.33614583333333,70.12818240121828L121.56682291666667,58.73353053447977L121.7975,58.09551871131316L122.02817708333333,45.3186442346007L122.25885416666667,19.05994142357372L122.48953125,28.09258594789378L122.72020833333335,39.71095195936107L122.95088541666667,46.68197156624194L123.1815625,32.272005205369965L123.41223958333335,48.41389159978428L123.64291666666666,39.50966796768262L123.87359375,34.16713378842212L124.10427083333333,37.15690136680257L124.33494791666666,26.556963085706343L124.565625,32.590798945173105L124.79630208333333,17.622013546790413L125.02697916666666,14.836030393699048L125.25765625,13.164440501843728L125.48833333333333,12.161486566730787L125.71901041666666,23.95351303378777L125.94968750000001,37.22750821089721L126.18036458333333,32.79783793435013L126.41104166666666,23.941525026233876L126.64171875000001,18.627737281365626L126.87239583333333,46.425841587570176L127.10307291666666,25.923039132229405L127.33375000000001,44.60451195590019L127.56442708333333,37.224040181352166L127.79510416666666,26.5972463744356L128.02578125,32.61496891841091L128.25645833333334,30.030314358858845L128.48713541666666,28.479521623126857L128.7178125,21.350535239500914L128.94848958333333,17.073143409325098L129.17916666666667,14.506708311220109L129.40984375,25.360646080481615L129.64052083333334,38.07178803891452L129.87119791666666,27.10589508897351L130.101875,39.11893744400891L130.33255208333333,40.127983560155144L130.56322916666667,34.538123143905636L130.79390625,37.37949498009243L131.02458333333334,39.08431808180501L131.25526041666666,21.518125028770555L131.4859375,29.567496111012133L131.71661458333332,15.80803184629508L131.94729166666667,26.141440201526848L132.17796875,38.54026451154141L132.40864583333334,39.780779800674395L132.63932291666669,59.11766709915469L132.87,52.12722135324236L133.10067708333332,54.13173320257022L133.33135416666667,61.52972839810468L133.56203125,47.37917004667486L133.79270833333334,38.888835035817465L134.02338541666668,64.78127953711578L134.2540625,61.72416811289452L134.48473958333332,47.49583387554901L134.71541666666667,45.154121419078706L134.94609375,43.749093945197274L135.17677083333334,42.906077460867664L135.40744791666668,67.19162499214565L135.638125,56.97159608903644L135.86880208333335,50.83957874717066L136.09947916666667,53.3591476389272L136.33015625,54.87088897398212L136.56083333333333,61.97322186095107L136.79151041666665,47.64526612438294L137.0221875,57.637848151192316L137.25286458333335,57.43810928134019L137.48354166666667,44.92419857661616L137.71421875,43.61114023971925L137.94489583333333,49.0220845344561L138.17557291666665,46.06987181442321L138.40625,25.709457268341225L138.63692708333335,13.493208540691285L138.86760416666667,18.55725813222682L139.09828124999999,15.397177144960892L139.32895833333333,13.501128552601585L139.55963541666665,6.168211311248001L139.7903125,14.16225979456135L140.02098958333335,18.95868888454936L140.25166666666667,9.442747510416666L140.48234374999998,22.3222695999998L140.71302083333333,23.85469476781168L140.94369791666665,24.774149868499308L141.174375,12.932024100786634L141.40505208333335,12.02203672609653L141.6357291666667,5.280756215345718L141.86640624999998,7.431275994832731L142.09708333333333,14.920098604711939L142.32776041666668,25.608680256576463L142.5584375,7.233963036759178L142.78911458333334,14.801710829868057L143.0197916666667,19.342359505733384L143.25046874999998,15.86823796906458L143.48114583333333,19.982275789251048L143.71182291666668,22.45069848136268L143.9425,30.127040182567157L144.17317708333334,40.931624500164844L144.40385416666666,28.821796965723706L144.63453124999998,27.754411187246774L144.86520833333333,20.915468977972864L145.09588541666668,16.81210365240827L145.3265625,20.54859519925776L145.55723958333334,22.790490127367207L145.78791666666666,30.330915170169874L146.01859374999998,22.461371367727224L146.24927083333333,30.133443914386135L146.47994791666667,28.54139935644423L146.710625,33.78146070761659L146.94130208333334,30.730209432382253L147.17197916666666,28.899458667241902L147.40265625,40.19507559097019L147.63333333333333,28.379867620205914L147.86401041666667,33.6845416658731L148.09468750000002,36.86734609327391L148.32536458333334,51.171096132526145L148.55604166666666,34.96547994514049L148.78671875,43.83468835771009L149.01739583333332,42.957434108374855L149.24807291666667,30.037282730648712L149.47875000000002,16.089903818076777L149.70942708333334,13.916764556470866L149.94010416666666,6.41759291356982L150.17078125,14.311888755954442L150.40145833333332,31.442533644197965L150.63213541666667,29.32685319433108L150.86281250000002,28.057444924410447L151.0934895833333,21.097289220270568L151.32416666666666,35.51377392278664L151.55484375,37.964885447420784L151.78552083333332,58.02813048720327L152.01619791666667,51.47349938607226L152.24687500000002,47.54072072539316L152.4775520833333,45.181053528985444L152.70822916666665,43.765253211140816L152.93890625,49.11455231730929L153.16958333333335,39.93006439819737L153.40026041666667,40.614659732667974L153.63093750000002,41.025416933350584L153.86161458333333,41.2718712537594L154.09229166666665,29.02594501788019L154.32296875,34.07218810447716L154.55364583333335,30.904645870498598L154.78432291666667,29.00412053011121L155.01500000000001,46.453160794628275L155.24567708333333,32.134718742400764L155.47635416666665,35.93745233919026L155.70703125,38.219092497264455L155.93770833333335,33.39278850617097L156.16838541666667,30.497006111515134L156.39906249999999,22.56102593253388L156.62973958333333,23.997948567332628L156.86041666666665,18.661591406024627L157.09109375,27.853575937364326L157.32177083333335,27.173478570230145L157.55244791666667,26.765420149950387L157.78312499999998,32.71587318372053L158.01380208333333,30.09085691804512L158.24447916666665,22.31733641645087L158.47515625,30.047022943619822L158.70583333333335,40.883614156797194L158.9365104166667,41.186789587828116L159.16718749999998,41.36869484644717L159.39786458333333,53.8719053844311L159.62854166666668,48.97976432440896L159.85921875,46.044479688394176L160.08989583333334,38.088020820848556L160.3205729166667,20.920346672197184L160.55124999999998,47.80140722206761L160.78192708333333,51.536244723865366L161.01260416666668,53.77714722494352L161.24328125,48.92290942871591L161.47395833333334,58.4044341337916L161.70463541666666,57.89806087090051L161.93531249999998,39.001658788164605L162.16598958333333,52.45168374946081L162.39666666666668,48.12763134342629L162.62734375,51.73197919668132L162.85802083333334,47.69580861175859L163.08869791666666,32.880307432679956L163.31937499999998,42.583584850233024L163.55005208333333,42.206772003889114L163.78072916666667,48.17946359295877L164.01140625,39.36901116358831L164.24208333333334,46.47680708877829L164.47276041666666,38.34741726107927L164.7034375,33.46978336446011L164.93411458333333,49.13255849523762L165.16479166666667,46.13615619089137L165.39546875000002,56.73238219109737L165.62614583333334,50.69605040840747L165.85682291666666,47.074251338794284L166.0875,57.29523927983837L166.31817708333332,44.83847657571482L166.54885416666667,43.55970703917819L166.77953125000002,42.792445317256465L167.01020833333334,42.33208828410318L167.24088541666666,48.25465336108721L167.4715625,45.609413110401874L167.70223958333332,44.022268959990924L167.93291666666667,61.662560594744605L168.16359375000002,53.65415745059681L168.3942708333333,42.65382747816989L168.62494791666666,48.44769687752773L168.855625,45.72523922026619L169.08630208333332,44.09176462590926L169.31697916666667,61.70425799429586L169.54765625000002,53.679175890327315L169.7783333333333,48.86412662794669L170.00901041666665,45.97509707051756L170.2396875,56.63574671887284L170.47036458333335,56.8368484219485L170.70104166666667,56.95750944379415L170.93171875000002,57.02990605690229L171.16239583333333,57.073344024765674L171.39307291666665,57.099406805484705L171.62375,75.70762259891512L171.85442708333335,68.27997394997487L172.08510416666667,51.429317377796224L172.31578125000001,59.908278903239534L172.54645833333333,64.99565581850652L172.77713541666665,61.85279388172921L173.0078125,59.96707671966283L173.23848958333335,65.030934508359L173.46916666666667,74.2677599237652L173.69984374999999,61.21727704800867L173.93052083333333,53.38698732255375L174.16119791666665,54.88759278415705L174.391875,49.58917676424403L174.62255208333335,52.60890644917072L174.85322916666667,54.42074426012823L175.08390624999998,55.50784694670199L175.31458333333333,43.76604117583349L175.54526041666665,49.115025096124896L175.7759375,52.32441544829999L176.00661458333335,35.65747153460529L176.2372916666667,50.445171397325225L176.46796874999998,46.923723932144185L176.69864583333333,38.61556736709906L176.92932291666668,58.41853963900974L177.16,45.51245679121814L177.39067708333334,37.768807082542935L177.6213541666667,39.31790534327456L177.85203124999998,40.247364299714036L178.08270833333333,65.59639709545422L178.31338541666668,62.21323864789758L178.5440625,66.3786316653011L178.77473958333334,68.87786747574296L179.00541666666666,57.983341579195326L179.23609374999998,45.251337955329745L179.46677083333333,37.6121357810099L179.69744791666668,39.22390256235599L179.928125,46.38974192803789L180.15880208333334,44.490466250573036L180.38947916666666,43.35090084409262L180.62015624999998,42.66716160020587L180.85083333333333,48.45569735074832L181.08151041666667,51.928818801074044L181.3121875,60.207979757205976L181.54286458333334,65.17547633088589L181.77354166666666,61.96068618915683L182.00421875,53.8330328072434L182.23489583333333,55.15522007497134L182.46557291666667,55.9485324356076L182.69625000000002,44.03045246917736L182.92692708333334,43.07489257525572L183.15760416666666,48.70033593577773L183.38828125,45.87682265521619L183.61895833333332,31.788915858754763L183.84963541666667,29.534682523065158L184.08031250000002,40.576209904463894L184.31098958333334,53.39641441924039L184.54166666666666,42.49918165935628L184.77234375,54.55019747217557L185.00302083333332,67.97931770205514L185.23369791666667,63.642991011858385L185.46437500000002,61.04119499774083L185.6950520833333,71.8739162173938L185.92572916666666,72.17503820699858L186.15640625,66.16042331482345L186.38708333333332,74.94545320764337L186.61776041666667,67.82267231521132L186.84843750000002,69.74429186568909L187.0791145833333,77.09577433816276L187.30979166666665,81.50666382164695L187.54046875,84.15319751173797L187.77114583333335,79.54260698360508L188.00182291666667,76.7762526667251L188.23250000000002,81.31495081878461L188.46317708333333,71.64437088189607L188.69385416666665,72.03731100569894L188.92453125,72.27307507998216L189.15520833333335,60.0204661417381L189.38588541666667,65.06296816160466L189.61656250000001,43.300603162587095L189.84723958333333,55.03105037411456L190.07791666666665,55.874030615093034L190.30859375,56.37981875968012L190.53927083333335,62.87857973236987L190.76994791666667,60.58254823004722L191.00062499999999,59.204929328653634L191.23130208333333,52.17957869094198L191.46197916666665,60.35843569112774L191.69265625,40.47788368030069L191.92333333333335,40.943351301929965L192.15401041666667,41.22263187490728L192.38468749999998,41.39020021869442L192.61536458333333,41.4907412249662L192.84604166666665,35.35577774279227L193.07671875,31.674799653487412L193.30739583333335,41.86028018271725L193.5380729166667,29.3789903752554L193.76874999999998,46.67808270171554L193.99942708333333,57.05753809759187L194.23010416666668,57.089923249180174L194.46078125,57.109354340133905L194.69145833333334,63.31630108064314L194.9221354166667,67.04046912494869L195.15281249999998,56.88090256871851L195.38348958333333,50.78516263498091L195.61416666666668,40.932430588800344L195.84484375,47.414858743905256L196.07552083333334,45.105536340092954L196.30619791666666,43.71994289780582L196.53687499999998,55.28265421524554L196.76755208333333,62.220281005710376L196.99822916666668,53.988789697175775L197.22890625,36.656096083929015L197.45958333333334,26.25647991598271L197.69026041666666,32.410509043339175L197.92093749999998,36.102926519753055L198.15161458333333,32.12308891966438L198.38229166666667,42.12925374242343L198.61296875,48.13295263607961L198.84364583333334,39.341104589460315L199.07432291666666,34.06599576148824L199.305,18.507131636579743L199.53567708333333,15.367101247573146L199.76635416666667,7.287794928230937L199.99703125000002,8.635499222563112L200.22770833333334,3.2488337132251672L200.45838541666666,-12.3772329751896L200.6890625,27.82285943363604L200.91973958333332,20.956537925806174L201.15041666666667,29.230543849233754L201.38109375000002,15.605860489227553L201.61177083333334,13.626338559160331L201.84244791666666,12.438625401121499L202.073125,11.7259975062982L202.30380208333332,17.49693151159147L202.53447916666667,27.154780000704932L202.76515625000002,32.94948909417326L202.9958333333333,30.231026464316756L203.22651041666666,28.599948886402103L203.4571875,27.62130233965331L203.68786458333332,39.42818179441679L203.91854166666667,46.51230946727537L204.14921875000002,44.56400677411477L204.3798958333333,55.78909254103041L204.61057291666665,37.73627779024355L204.84125,51.69245515070793L205.07192708333335,47.67209418417406L205.30260416666667,32.866078776128234L205.53328125000002,36.37626835942649L205.76395833333333,38.482382109405194L205.99463541666665,39.746050359393166L206.2253125,34.3089632234487L206.45598958333335,24.84820019969402L206.68666666666667,12.976454299504212L206.91734375000001,36.83656105626483L207.14802083333333,26.364758899383446L207.37869791666665,26.280188347442618L207.609375,7.636867891278371L207.84005208333335,8.844943000391822L208.07072916666667,-2.8242793169523566L208.30140624999999,8.766765417641636L208.53208333333333,3.3275934302720316L208.76276041666665,18.65317715191327L208.9934375,9.259440470834761L209.22411458333335,16.016997290313157L209.45479166666667,32.465598764813194L209.68546874999998,29.940692266700466L209.91614583333333,28.42574836783183L210.14682291666665,27.516782028511898L210.3775,33.16669031085644L210.60817708333335,36.55663528026366L210.8388541666667,32.3953141759705L211.06953124999998,36.09380959933185L211.30020833333333,38.31290685334841L211.53088541666668,45.843144502634345L211.7615625,44.16250779533016L211.99223958333334,36.958837685010394L212.2229166666667,45.03070300163154L212.45359374999998,43.67504289472822L212.68427083333333,55.25571421339873L212.91494791666668,56.00882891866354L213.145625,50.26191844494792L213.37630208333334,34.419973332594054L213.60697916666666,37.30860509330523L213.83765624999998,32.84649606379594L214.06833333333333,36.36451873202736L214.29901041666668,32.28004424702897L214.5296875,29.82935955602943L214.76036458333334,28.358948741429458L214.99104166666666,27.476702252669725L215.22171874999998,33.142642445351385L215.45239583333333,30.34691847502313L215.68307291666667,22.470973350637678L215.91375,30.139205104131406L216.14442708333334,34.74014415622764L216.37510416666666,31.305419501548386L216.60578125,35.43987279467933L216.83645833333333,37.9205447705574L217.06713541666667,27.01514912795824L217.29781250000002,32.86571057052424L217.52848958333334,36.376047436063345L217.75916666666666,38.48224955538831L217.98984375,39.745970826982784L218.22052083333332,34.30891550400247L218.45119791666667,43.44074969302653L218.68187500000002,36.52578282362822L218.91255208333334,38.57209078792698L219.14322916666666,39.79987556650599L219.37390625,52.93061381646589L219.60458333333332,42.219701297691586L219.83526041666667,41.988441872365L220.06593750000002,48.0484655140433L220.2966145833333,51.68447969905128L220.52729166666666,53.86608821005507L220.75796875,55.17505331665734L220.98864583333332,62.155720466556204L221.21932291666667,66.34412075649652L221.45000000000002,62.661872844523714L221.6806770833333,60.45252409733928L221.91135416666665,65.32220293496562L222.14203125,49.65465476879217L222.37270833333335,65.04199208002535L222.60338541666667,49.48652825582826L222.83406250000002,46.34853804724651L223.06473958333333,50.664523218972704L223.29541666666665,59.44940240794517L223.52609375,58.5250418353919L223.75677083333335,51.77164619498444L223.98744791666667,66.31218693574147L224.21812500000001,56.44393325519468L224.44880208333333,62.91704842967886L224.67947916666665,54.406850151557364L224.91015625,67.89330930968447L225.14083333333335,51.19731859362298L225.37151041666667,59.76907963273584L225.60218749999999,58.7168481702663L225.83286458333333,76.67808741778458L226.06354166666665,81.2560516694208L226.29421875,65.41025209540203L226.52489583333335,49.70748426505327L226.75557291666667,40.28582356684501L226.98624999999998,59.42069335885731L227.21692708333333,46.113749023127184L227.44760416666665,50.52364980450136L227.67828125,65.56338910145087L227.90895833333335,68.38872193743282L228.1396354166667,63.88863355308399L228.37031249999998,54.989801225599194L228.60098958333333,49.65050182910932L228.83166666666668,46.44692219121589L229.06234375,56.918841791291584L229.29302083333334,57.0067054654005L229.5236979166667,57.0594236698646L229.75437499999998,63.28634267848156L229.98505208333333,60.827205997713236L230.21572916666668,53.15294469237824L230.44640625,48.548387909175744L230.67708333333334,58.179721222068L230.90776041666666,45.36916574105385L231.13843749999998,50.07689983525711L231.36911458333333,59.096828377716065L231.59979166666668,52.11471812037894L231.83046875,54.12423126285216L232.06114583333334,49.1311598514601L232.29182291666666,39.94002891868786L232.52249999999998,40.620638444961514L232.75317708333333,41.02900416072646L232.98385416666667,41.274023590184925L233.21453125,35.225747161922754L233.44520833333334,37.79206939090295L233.67588541666666,39.33186272829107L233.9065625,40.25573873072494L234.13723958333333,40.810064332184766L234.36791666666667,34.94737160712316L234.59859375000002,37.625044058022695L234.82927083333334,45.43042682543842L235.05994791666666,50.1136564858881L235.290625,46.72481498528191L235.52130208333332,44.691510084918946L235.75197916666667,31.077728316576668L235.98265625000002,22.9094592555698L236.21333333333334,30.40229664709068L236.44401041666666,47.29206646481646L236.6746875,45.031860972638924L236.90536458333332,43.675737677332904L237.13604166666667,36.66677561421204L237.36671875000002,44.855465759152025L237.5973958333333,49.768679846116015L237.82807291666666,46.51782900141916L238.05875,44.567318494601295L238.28942708333332,37.20172410457258L238.52010416666667,38.977655556493346L238.75078125000002,40.04321442764581L238.9814583333333,53.076617133149284L239.21213541666665,54.70137067051462L239.4428125,55.67622279293357L239.67348958333335,56.261134066385694L239.90416666666667,56.61208083045722L240.13484375000002,50.62386959202388L240.36552083333333,40.83565476302738L240.59619791666665,41.15801395156598L240.826875,35.156141378752636L241.05755208333335,37.75030592100188L241.28822916666667,39.30680464635043L241.51890625000001,40.24070388155906L241.74958333333333,34.605755336747734L241.98026041666665,25.02627546767394L242.2109375,19.278587546228664L242.44161458333335,40.61784100429975L242.67229166666667,34.83203761039215L242.90296874999999,31.36055557404734L243.13364583333333,29.277666352240203L243.36432291666665,28.02793281915592L243.595,33.47338078524285L243.82567708333335,36.74064956489451L244.05635416666667,38.70101083268651L244.28703124999998,33.681939507424204L244.51770833333333,24.47198597007832L244.74838541666665,31.339812675796793L244.9790625,29.265220613290126L245.20973958333335,28.020465375787126L245.4404166666667,39.667679616097075L245.67109374999998,52.851296246220045L245.90177083333333,54.56617813835783L246.13244791666668,37.002529148639496L246.363125,32.6628504969965L246.59380208333334,36.2543313919482L246.8244791666667,32.21393184298097L247.05515624999998,29.78969211360163L247.28583333333333,22.13663753378478L247.51651041666668,36.13738291089567L247.7471875,44.5378301371627L247.97786458333334,43.37931917604692L248.20854166666666,17.89634638843995L248.43921874999998,27.39442892681427L248.66989583333333,33.09327844983886L248.90057291666668,30.317300077715117L249.13125,47.24106852319187L249.36192708333334,45.00126220766492L249.59260416666666,43.65737841834925L249.82328124999998,24.261961230697352L250.05395833333333,37.41257712904371L250.28463541666667,45.30294666805128L250.5153125,43.838389094580066L250.74598958333334,24.37056763643534L250.97666666666666,18.885162847485503L251.20734375,15.593919974115352L251.43802083333333,26.01297307821801L251.66869791666667,13.675318026618356L251.89937500000002,18.666523823783564L252.13005208333334,27.856535388019438L252.36072916666666,20.976743498436463L252.59140625,16.848868364687178L252.82208333333332,26.765942112561106L253.05276041666667,32.71618636128596L253.28343750000002,30.091044824583378L253.51411458333334,28.515959902562827L253.74479166666666,27.570908949350496" style="fill: none;" fill="none"></path></g></g></g></g><g opacity="0.2"><g><g><g><path stroke="rgb(255, 112, 67)" stroke-width="2px" d="M29.526666666666667,243.056225585937L29.75734375,150.09266357421825L29.988020833333334,181.0778320312495L31.602760416666666,227.5592773437495L31.833437500000002,165.58961181640575L32.064114583333335,134.60511474609325L32.29479166666667,212.07105712890575L32.52546875,196.57410888671825L32.756145833333335,165.58961181640575L32.98682291666667,150.09266357421825L33.2175,181.0778320312495L33.448177083333334,196.57410888671825L33.67885416666667,165.58961181640575L33.90953125,150.09266357421825L34.140208333333334,165.58961181640575L34.37088541666667,165.58961181640575L34.6015625,150.09266357421825L34.83223958333333,165.58961181640575L35.062916666666666,212.07105712890575L35.29359375,103.619946289062L35.52427083333333,165.58961181640575L35.75494791666667,119.10816650390575L35.985625,165.58961181640575L36.21630208333333,134.60511474609325L36.446979166666665,134.60511474609325L36.67765625,150.09266357421825L36.90833333333333,150.09266357421825L37.139010416666665,150.09266357421825L37.369687500000005,150.09266357421825L37.60036458333333,119.10816650390575L37.831041666666664,150.09266357421825L38.061718750000004,119.10816650390575L38.29239583333334,119.10816650390575L38.52307291666666,134.60511474609325L38.753750000000004,72.62672119140575L38.98442708333334,134.60511474609325L39.21510416666666,88.1229980468745L39.445781249999996,103.619946289062L39.676458333333336,134.60511474609325L39.90713541666667,119.10816650390575L40.137812499999995,103.619946289062L40.368489583333336,103.619946289062L40.59916666666667,88.1229980468745L40.829843749999995,150.09266357421825L41.060520833333335,103.619946289062L41.29119791666667,57.138500976562L41.521875,134.60511474609325L41.752552083333335,103.619946289062L41.98322916666667,88.1229980468745L42.21390625,72.62672119140575L42.44458333333333,57.138500976562L42.67526041666667,88.1229980468745L42.9059375,88.1229980468745L43.13661458333333,88.1229980468745L43.36729166666667,57.138500976562L43.59796875,103.619946289062L43.82864583333333,88.1229980468745L44.05932291666667,103.619946289062L44.29,119.10816650390575L44.52067708333333,103.619946289062L44.751354166666665,103.619946289062L44.98203125,88.1229980468745L45.21270833333333,26.15333251953075L45.443385416666665,26.15333251953075L45.674062500000005,72.62672119140575L45.90473958333333,41.6415527343745L46.135416666666664,103.619946289062L46.366093750000005,119.10816650390575L46.59677083333333,88.1229980468745L46.827447916666664,88.1229980468745L47.058125000000004,57.138500976562L47.28880208333334,103.619946289062L47.51947916666666,72.62672119140575L47.750156249999996,41.6415527343745L47.98083333333334,57.138500976562L48.21151041666666,103.619946289062L48.442187499999996,103.619946289062L48.672864583333336,57.138500976562L48.90354166666667,119.10816650390575L49.134218749999995,88.1229980468745L49.364895833333335,134.60511474609325L49.59557291666667,72.62672119140575L49.82625,72.62672119140575L50.056927083333335,57.138500976562L50.28760416666667,57.138500976562L50.51828125,72.62672119140575L50.74895833333333,103.619946289062L50.97963541666667,57.138500976562L51.2103125,88.1229980468745L51.440989583333334,41.6415527343745L51.67166666666667,72.62672119140575L51.90234375,103.619946289062L52.13302083333333,72.62672119140575L52.363697916666666,57.138500976562L52.594375,72.62672119140575L52.82505208333333,57.138500976562L53.05572916666667,72.62672119140575L53.28640625,26.15333251953075L53.51708333333333,88.1229980468745L53.747760416666665,57.138500976562L53.9784375,57.138500976562L54.20911458333333,57.138500976562L54.439791666666665,88.1229980468745L54.670468750000005,134.60511474609325L54.90114583333333,134.60511474609325L55.131822916666664,57.138500976562L55.362500000000004,41.6415527343745L55.59317708333334,72.62672119140575L55.82385416666666,72.62672119140575L56.054531250000004,88.1229980468745L56.28520833333334,57.138500976562L56.51588541666666,57.138500976562L56.746562499999996,57.138500976562L56.977239583333336,72.62672119140575L57.20791666666667,88.1229980468745L57.438593749999995,41.6415527343745L57.669270833333336,10.657055664062L57.89994791666667,72.62672119140575L58.130624999999995,26.15333251953075L58.361302083333335,41.6415527343745L58.59197916666667,57.138500976562L58.82265625,41.6415527343745L59.053333333333335,26.15333251953075L59.28401041666667,72.62672119140575L59.5146875,41.6415527343745L59.74536458333333,41.6415527343745L59.97604166666667,88.1229980468745L60.20671875,41.6415527343745L60.43739583333333,72.62672119140575L60.66807291666667,88.1229980468745L60.89875,57.138500976562L61.12942708333333,57.138500976562L61.36010416666667,57.138500976562L61.59078125,88.1229980468745L61.82145833333333,88.1229980468745L62.052135416666665,26.15333251953075L62.2828125,41.6415527343745L62.51348958333333,72.62672119140575L62.744166666666665,41.6415527343745L62.974843750000005,41.6415527343745L63.20552083333333,88.1229980468745L63.436197916666664,88.1229980468745L63.666875000000005,88.1229980468745L63.89755208333333,72.62672119140575L64.12822916666667,10.657055664062L64.35890625,41.6415527343745L64.58958333333334,103.619946289062L64.82026041666667,119.10816650390575L65.0509375,150.09266357421825L65.28161458333334,72.62672119140575L65.51229166666667,72.62672119140575L65.74296875,57.138500976562L65.97364583333334,88.1229980468745L66.20432291666667,57.138500976562L66.435,88.1229980468745L66.66567708333334,103.619946289062L66.89635416666667,103.619946289062L67.12703125,119.10816650390575L67.35770833333333,57.138500976562L67.58838541666667,72.62672119140575L67.8190625,119.10816650390575L68.04973958333333,88.1229980468745L68.28041666666667,88.1229980468745L68.51109375,41.6415527343745L68.74177083333333,72.62672119140575L68.97244791666667,41.6415527343745L69.203125,57.138500976562L69.43380208333333,57.138500976562L69.66447916666667,41.6415527343745L69.89515625,134.60511474609325L70.12583333333333,88.1229980468745L70.35651041666667,103.619946289062L70.5871875,88.1229980468745L70.81786458333335,88.1229980468745L71.04854166666667,88.1229980468745L71.27921875,72.62672119140575L71.50989583333335,57.138500976562L71.74057291666666,41.6415527343745L71.97125,41.6415527343745L72.20192708333333,72.62672119140575L72.43260416666666,26.15333251953075L72.66328125,26.15333251953075L72.89395833333333,41.6415527343745L73.12463541666666,10.657055664062L73.3553125,26.15333251953075L73.58598958333333,72.62672119140575L73.81666666666666,41.6415527343745L74.04734375000001,88.1229980468745L74.27802083333333,57.138500976562L74.50869791666666,134.60511474609325L74.73937500000001,103.619946289062L74.97005208333333,41.6415527343745L75.20072916666666,72.62672119140575L75.43140625000001,72.62672119140575L75.66208333333333,57.138500976562L75.89276041666666,72.62672119140575L76.12343750000001,10.657055664062L76.35411458333333,72.62672119140575L76.58479166666667,26.15333251953075L76.81546875000001,57.138500976562L77.04614583333333,57.138500976562L77.27682291666667,26.15333251953075L77.50750000000001,57.138500976562L77.73817708333333,57.138500976562L77.96885416666667,26.15333251953075L78.19953124999999,72.62672119140575L78.43020833333333,103.619946289062L78.66088541666667,88.1229980468745L78.89156249999999,26.15333251953075L79.12223958333333,103.619946289062L79.35291666666667,57.138500976562L79.58359374999999,103.619946289062L79.81427083333334,26.15333251953075L80.04494791666667,72.62672119140575L80.27562499999999,72.62672119140575L80.50630208333334,72.62672119140575L80.73697916666667,57.138500976562L80.96765624999999,57.138500976562L81.19833333333334,72.62672119140575L81.42901041666667,88.1229980468745L81.65968749999999,41.6415527343745L81.89036458333334,41.6415527343745L82.12104166666667,26.15333251953075L82.35171875,41.6415527343745L82.58239583333334,57.138500976562L82.81307291666667,57.138500976562L83.04375,57.138500976562L83.27442708333334,10.657055664062L83.50510416666667,72.62672119140575L83.73578125,10.657055664062L83.96645833333334,57.138500976562L84.19713541666665,57.138500976562L84.4278125,26.15333251953075L84.65848958333333,88.1229980468745L84.88916666666665,26.15333251953075L85.11984375,41.6415527343745L85.35052083333333,57.138500976562L85.58119791666667,41.6415527343745L85.811875,88.1229980468745L86.04255208333333,10.657055664062L86.27322916666667,41.6415527343745L86.50390625,57.138500976562L86.73458333333333,26.15333251953075L86.96526041666667,72.62672119140575L87.1959375,88.1229980468745L87.42661458333333,57.138500976562L87.65729166666667,57.138500976562L87.88796875,26.15333251953075L88.11864583333335,10.657055664062L88.34932291666667,26.15333251953075L88.58,26.15333251953075L88.81067708333335,-4.83116455078175L89.04135416666666,88.1229980468745L89.27203125,88.1229980468745L89.50270833333333,57.138500976562L89.73338541666666,26.15333251953075L89.9640625,57.138500976562L90.19473958333333,88.1229980468745L90.42541666666666,72.62672119140575L90.65609375,72.62672119140575L90.88677083333333,26.15333251953075L91.11744791666666,88.1229980468745L91.34812500000001,41.6415527343745L91.57880208333333,41.6415527343745L91.80947916666666,26.15333251953075L92.04015625000001,72.62672119140575L92.27083333333333,41.6415527343745L92.50151041666666,88.1229980468745L92.73218750000001,26.15333251953075L92.96286458333333,72.62672119140575L93.19354166666666,57.138500976562L93.42421875000001,72.62672119140575L93.65489583333333,103.619946289062L93.88557291666667,72.62672119140575L94.11625000000001,26.15333251953075L94.34692708333333,41.6415527343745L94.57760416666667,72.62672119140575L94.80828125000001,10.657055664062L95.03895833333333,57.138500976562L95.26963541666667,41.6415527343745L95.50031249999999,26.15333251953075L95.73098958333333,41.6415527343745L95.96166666666667,57.138500976562L96.19234374999999,41.6415527343745L96.42302083333333,26.15333251953075L96.65369791666667,57.138500976562L96.88437499999999,26.15333251953075L97.11505208333334,41.6415527343745L97.34572916666667,72.62672119140575L97.57640624999999,41.6415527343745L97.80708333333334,57.138500976562L98.03776041666667,26.15333251953075L98.26843749999999,41.6415527343745L98.49911458333334,26.15333251953075L98.72979166666667,10.657055664062L98.96046874999999,26.15333251953075L99.19114583333334,26.15333251953075L99.42182291666667,72.62672119140575L99.6525,41.6415527343745L99.88317708333334,57.138500976562L100.11385416666667,57.138500976562L100.34453125,26.15333251953075L100.57520833333334,26.15333251953075L100.80588541666667,41.6415527343745L101.0365625,88.1229980468745L101.26723958333334,26.15333251953075L101.49791666666665,-4.83116455078175L101.72859375,-4.83116455078175L101.95927083333333,10.657055664062L102.18994791666665,41.6415527343745L102.420625,41.6415527343745L102.65130208333333,26.15333251953075L102.88197916666667,10.657055664062L103.11265625,10.657055664062L103.34333333333333,26.15333251953075L103.57401041666667,41.6415527343745L103.8046875,41.6415527343745L104.03536458333333,41.6415527343745L104.26604166666667,41.6415527343745L104.49671875,88.1229980468745L104.72739583333333,41.6415527343745L104.95807291666667,10.657055664062L105.18875,26.15333251953075L105.41942708333335,26.15333251953075L105.65010416666667,26.15333251953075L105.88078125,72.62672119140575L106.11145833333335,41.6415527343745L106.34213541666666,26.15333251953075L106.5728125,26.15333251953075L106.80348958333333,10.657055664062L107.03416666666666,57.138500976562L107.26484375,41.6415527343745L107.49552083333333,88.1229980468745L107.72619791666666,72.62672119140575L107.956875,57.138500976562L108.18755208333333,57.138500976562L108.41822916666666,57.138500976562L108.64890625000001,41.6415527343745L108.87958333333333,41.6415527343745L109.11026041666666,41.6415527343745L109.34093750000001,26.15333251953075L109.57161458333333,10.657055664062L109.80229166666666,57.138500976562L110.03296875000001,41.6415527343745L110.26364583333333,57.138500976562L110.49432291666666,41.6415527343745L110.72500000000001,72.62672119140575L110.95567708333333,41.6415527343745L111.18635416666667,57.138500976562L111.41703125000001,10.657055664062L111.64770833333333,26.15333251953075L111.87838541666667,57.138500976562L112.10906250000001,10.657055664062L112.33973958333333,57.138500976562L112.57041666666667,41.6415527343745L112.80109374999999,41.6415527343745L113.03177083333333,57.138500976562L113.26244791666667,57.138500976562L113.49312499999999,41.6415527343745L113.72380208333333,26.15333251953075L113.95447916666667,26.15333251953075L114.18515624999999,10.657055664062L114.41583333333334,26.15333251953075L114.64651041666667,26.15333251953075L114.87718749999999,41.6415527343745L115.10786458333334,10.657055664062L115.33854166666667,26.15333251953075L115.56921874999999,10.657055664062L115.79989583333334,26.15333251953075L116.03057291666667,10.657055664062L116.26124999999999,10.657055664062L116.49192708333334,41.6415527343745L116.72260416666667,26.15333251953075L116.95328125,41.6415527343745L117.18395833333334,26.15333251953075L117.41463541666667,103.619946289062L117.6453125,41.6415527343745L117.87598958333334,57.138500976562L118.10666666666667,41.6415527343745L118.33734375,41.6415527343745L118.56802083333334,41.6415527343745L118.79869791666665,41.6415527343745L119.029375,57.138500976562L119.26005208333333,88.1229980468745L119.49072916666665,57.138500976562L119.72140625,88.1229980468745L119.95208333333333,72.62672119140575L120.18276041666667,72.62672119140575L120.4134375,57.138500976562L120.64411458333333,41.6415527343745L120.87479166666667,88.1229980468745L121.10546875,41.6415527343745L121.33614583333333,88.1229980468745L121.56682291666667,41.6415527343745L121.7975,57.138500976562L122.02817708333333,26.15333251953075L122.25885416666667,-20.32811279296925L122.48953125,41.6415527343745L122.72020833333335,57.138500976562L122.95088541666667,57.138500976562L123.1815625,10.657055664062L123.41223958333335,72.62672119140575L123.64291666666666,26.15333251953075L123.87359375,26.15333251953075L124.10427083333333,41.6415527343745L124.33494791666666,10.657055664062L124.565625,41.6415527343745L124.79630208333333,-4.83116455078175L125.02697916666666,10.657055664062L125.25765625,10.657055664062L125.48833333333333,10.657055664062L125.71901041666666,41.6415527343745L125.94968750000001,57.138500976562L126.18036458333333,26.15333251953075L126.41104166666666,10.657055664062L126.64171875000001,10.657055664062L126.87239583333333,88.1229980468745L127.10307291666666,-4.83116455078175L127.33375000000001,72.62672119140575L127.56442708333333,26.15333251953075L127.79510416666666,10.657055664062L128.02578125,41.6415527343745L128.25645833333334,26.15333251953075L128.48713541666666,26.15333251953075L128.7178125,10.657055664062L128.94848958333333,10.657055664062L129.17916666666667,10.657055664062L129.40984375,41.6415527343745L129.64052083333334,57.138500976562L129.87119791666666,10.657055664062L130.101875,57.138500976562L130.33255208333333,41.6415527343745L130.56322916666667,26.15333251953075L130.79390625,41.6415527343745L131.02458333333334,41.6415527343745L131.25526041666666,-4.83116455078175L131.4859375,41.6415527343745L131.71661458333332,-4.83116455078175L131.94729166666667,41.6415527343745L132.17796875,57.138500976562L132.40864583333334,41.6415527343745L132.63932291666669,88.1229980468745L132.87,41.6415527343745L133.10067708333332,57.138500976562L133.33135416666667,72.62672119140575L133.56203125,26.15333251953075L133.79270833333334,26.15333251953075L134.02338541666668,103.619946289062L134.2540625,57.138500976562L134.48473958333332,26.15333251953075L134.71541666666667,41.6415527343745L134.94609375,41.6415527343745L135.17677083333334,41.6415527343745L135.40744791666668,103.619946289062L135.638125,41.6415527343745L135.86880208333335,41.6415527343745L136.09947916666667,57.138500976562L136.33015625,57.138500976562L136.56083333333333,72.62672119140575L136.79151041666665,26.15333251953075L137.0221875,72.62672119140575L137.25286458333335,57.138500976562L137.48354166666667,26.15333251953075L137.71421875,41.6415527343745L137.94489583333333,57.138500976562L138.17557291666665,41.6415527343745L138.40625,-4.83116455078175L138.63692708333335,-4.83116455078175L138.86760416666667,26.15333251953075L139.09828124999999,10.657055664062L139.32895833333333,10.657055664062L139.55963541666665,-4.83116455078175L139.7903125,26.15333251953075L140.02098958333335,26.15333251953075L140.25166666666667,-4.83116455078175L140.48234374999998,41.6415527343745L140.71302083333333,26.15333251953075L140.94369791666665,26.15333251953075L141.174375,-4.83116455078175L141.40505208333335,10.657055664062L141.6357291666667,-4.83116455078175L141.86640624999998,10.657055664062L142.09708333333333,26.15333251953075L142.32776041666668,41.6415527343745L142.5584375,-20.32811279296925L142.78911458333334,26.15333251953075L143.0197916666667,26.15333251953075L143.25046874999998,10.657055664062L143.48114583333333,26.15333251953075L143.71182291666668,26.15333251953075L143.9425,41.6415527343745L144.17317708333334,57.138500976562L144.40385416666666,10.657055664062L144.63453124999998,26.15333251953075L144.86520833333333,10.657055664062L145.09588541666668,10.657055664062L145.3265625,26.15333251953075L145.55723958333334,26.15333251953075L145.78791666666666,41.6415527343745L146.01859374999998,10.657055664062L146.24927083333333,41.6415527343745L146.47994791666667,26.15333251953075L146.710625,41.6415527343745L146.94130208333334,26.15333251953075L147.17197916666666,26.15333251953075L147.40265625,57.138500976562L147.63333333333333,10.657055664062L147.86401041666667,41.6415527343745L148.09468750000002,41.6415527343745L148.32536458333334,72.62672119140575L148.55604166666666,10.657055664062L148.78671875,57.138500976562L149.01739583333332,41.6415527343745L149.24807291666667,10.657055664062L149.47875000000002,-4.83116455078175L149.70942708333334,10.657055664062L149.94010416666666,-4.83116455078175L150.17078125,26.15333251953075L150.40145833333332,57.138500976562L150.63213541666667,26.15333251953075L150.86281250000002,26.15333251953075L151.0934895833333,10.657055664062L151.32416666666666,57.138500976562L151.55484375,41.6415527343745L151.78552083333332,88.1229980468745L152.01619791666667,41.6415527343745L152.24687500000002,41.6415527343745L152.4775520833333,41.6415527343745L152.70822916666665,41.6415527343745L152.93890625,57.138500976562L153.16958333333335,26.15333251953075L153.40026041666667,41.6415527343745L153.63093750000002,41.6415527343745L153.86161458333333,41.6415527343745L154.09229166666665,10.657055664062L154.32296875,41.6415527343745L154.55364583333335,26.15333251953075L154.78432291666667,26.15333251953075L155.01500000000001,72.62672119140575L155.24567708333333,10.657055664062L155.47635416666665,41.6415527343745L155.70703125,41.6415527343745L155.93770833333335,26.15333251953075L156.16838541666667,26.15333251953075L156.39906249999999,10.657055664062L156.62973958333333,26.15333251953075L156.86041666666665,10.657055664062L157.09109375,41.6415527343745L157.32177083333335,26.15333251953075L157.55244791666667,26.15333251953075L157.78312499999998,41.6415527343745L158.01380208333333,26.15333251953075L158.24447916666665,10.657055664062L158.47515625,41.6415527343745L158.70583333333335,57.138500976562L158.9365104166667,41.6415527343745L159.16718749999998,41.6415527343745L159.39786458333333,72.62672119140575L159.62854166666668,41.6415527343745L159.85921875,41.6415527343745L160.08989583333334,26.15333251953075L160.3205729166667,-4.83116455078175L160.55124999999998,88.1229980468745L160.78192708333333,57.138500976562L161.01260416666668,57.138500976562L161.24328125,41.6415527343745L161.47395833333334,72.62672119140575L161.70463541666666,57.138500976562L161.93531249999998,10.657055664062L162.16598958333333,72.62672119140575L162.39666666666668,41.6415527343745L162.62734375,57.138500976562L162.85802083333334,41.6415527343745L163.08869791666666,10.657055664062L163.31937499999998,57.138500976562L163.55005208333333,41.6415527343745L163.78072916666667,57.138500976562L164.01140625,26.15333251953075L164.24208333333334,57.138500976562L164.47276041666666,26.15333251953075L164.7034375,26.15333251953075L164.93411458333333,72.62672119140575L165.16479166666667,41.6415527343745L165.39546875000002,72.62672119140575L165.62614583333334,41.6415527343745L165.85682291666666,41.6415527343745L166.0875,72.62672119140575L166.31817708333332,26.15333251953075L166.54885416666667,41.6415527343745L166.77953125000002,41.6415527343745L167.01020833333334,41.6415527343745L167.24088541666666,57.138500976562L167.4715625,41.6415527343745L167.70223958333332,41.6415527343745L167.93291666666667,88.1229980468745L168.16359375000002,41.6415527343745L168.3942708333333,26.15333251953075L168.62494791666666,57.138500976562L168.855625,41.6415527343745L169.08630208333332,41.6415527343745L169.31697916666667,88.1229980468745L169.54765625000002,41.6415527343745L169.7783333333333,41.6415527343745L170.00901041666665,41.6415527343745L170.2396875,72.62672119140575L170.47036458333335,57.138500976562L170.70104166666667,57.138500976562L170.93171875000002,57.138500976562L171.16239583333333,57.138500976562L171.39307291666665,57.138500976562L171.62375,103.619946289062L171.85442708333335,57.138500976562L172.08510416666667,26.15333251953075L172.31578125000001,72.62672119140575L172.54645833333333,72.62672119140575L172.77713541666665,57.138500976562L173.0078125,57.138500976562L173.23848958333335,72.62672119140575L173.46916666666667,88.1229980468745L173.69984374999999,41.6415527343745L173.93052083333333,41.6415527343745L174.16119791666665,57.138500976562L174.391875,41.6415527343745L174.62255208333335,57.138500976562L174.85322916666667,57.138500976562L175.08390624999998,57.138500976562L175.31458333333333,26.15333251953075L175.54526041666665,57.138500976562L175.7759375,57.138500976562L176.00661458333335,10.657055664062L176.2372916666667,72.62672119140575L176.46796874999998,41.6415527343745L176.69864583333333,26.15333251953075L176.92932291666668,88.1229980468745L177.16,26.15333251953075L177.39067708333334,26.15333251953075L177.6213541666667,41.6415527343745L177.85203124999998,41.6415527343745L178.08270833333333,103.619946289062L178.31338541666668,57.138500976562L178.5440625,72.62672119140575L178.77473958333334,72.62672119140575L179.00541666666666,41.6415527343745L179.23609374999998,26.15333251953075L179.46677083333333,26.15333251953075L179.69744791666668,41.6415527343745L179.928125,57.138500976562L180.15880208333334,41.6415527343745L180.38947916666666,41.6415527343745L180.62015624999998,41.6415527343745L180.85083333333333,57.138500976562L181.08151041666667,57.138500976562L181.3121875,72.62672119140575L181.54286458333334,72.62672119140575L181.77354166666666,57.138500976562L182.00421875,41.6415527343745L182.23489583333333,57.138500976562L182.46557291666667,57.138500976562L182.69625000000002,26.15333251953075L182.92692708333334,41.6415527343745L183.15760416666666,57.138500976562L183.38828125,41.6415527343745L183.61895833333332,10.657055664062L183.84963541666667,26.15333251953075L184.08031250000002,57.138500976562L184.31098958333334,72.62672119140575L184.54166666666666,26.15333251953075L184.77234375,72.62672119140575L185.00302083333332,88.1229980468745L185.23369791666667,57.138500976562L185.46437500000002,57.138500976562L185.6950520833333,88.1229980468745L185.92572916666666,72.62672119140575L186.15640625,57.138500976562L186.38708333333332,88.1229980468745L186.61776041666667,57.138500976562L186.84843750000002,72.62672119140575L187.0791145833333,88.1229980468745L187.30979166666665,88.1229980468745L187.54046875,88.1229980468745L187.77114583333335,72.62672119140575L188.00182291666667,72.62672119140575L188.23250000000002,88.1229980468745L188.46317708333333,57.138500976562L188.69385416666665,72.62672119140575L188.92453125,72.62672119140575L189.15520833333335,41.6415527343745L189.38588541666667,72.62672119140575L189.61656250000001,10.657055664062L189.84723958333333,72.62672119140575L190.07791666666665,57.138500976562L190.30859375,57.138500976562L190.53927083333335,72.62672119140575L190.76994791666667,57.138500976562L191.00062499999999,57.138500976562L191.23130208333333,41.6415527343745L191.46197916666665,72.62672119140575L191.69265625,10.657055664062L191.92333333333335,41.6415527343745L192.15401041666667,41.6415527343745L192.38468749999998,41.6415527343745L192.61536458333333,41.6415527343745L192.84604166666665,26.15333251953075L193.07671875,26.15333251953075L193.30739583333335,57.138500976562L193.5380729166667,10.657055664062L193.76874999999998,72.62672119140575L193.99942708333333,72.62672119140575L194.23010416666668,57.138500976562L194.46078125,57.138500976562L194.69145833333334,72.62672119140575L194.9221354166667,72.62672119140575L195.15281249999998,41.6415527343745L195.38348958333333,41.6415527343745L195.61416666666668,26.15333251953075L195.84484375,57.138500976562L196.07552083333334,41.6415527343745L196.30619791666666,41.6415527343745L196.53687499999998,72.62672119140575L196.76755208333333,72.62672119140575L196.99822916666668,41.6415527343745L197.22890625,10.657055664062L197.45958333333334,10.657055664062L197.69026041666666,41.6415527343745L197.92093749999998,41.6415527343745L198.15161458333333,26.15333251953075L198.38229166666667,57.138500976562L198.61296875,57.138500976562L198.84364583333334,26.15333251953075L199.07432291666666,26.15333251953075L199.305,-4.83116455078175L199.53567708333333,10.657055664062L199.76635416666667,-4.83116455078175L199.99703125000002,10.657055664062L200.22770833333334,-4.83116455078175L200.45838541666666,-35.816333007813L200.6890625,88.1229980468745L200.91973958333332,10.657055664062L201.15041666666667,41.6415527343745L201.38109375000002,-4.83116455078175L201.61177083333334,10.657055664062L201.84244791666666,10.657055664062L202.073125,10.657055664062L202.30380208333332,26.15333251953075L202.53447916666667,41.6415527343745L202.76515625000002,41.6415527343745L202.9958333333333,26.15333251953075L203.22651041666666,26.15333251953075L203.4571875,26.15333251953075L203.68786458333332,57.138500976562L203.91854166666667,57.138500976562L204.14921875000002,41.6415527343745L204.3798958333333,72.62672119140575L204.61057291666665,10.657055664062L204.84125,72.62672119140575L205.07192708333335,41.6415527343745L205.30260416666667,10.657055664062L205.53328125000002,41.6415527343745L205.76395833333333,41.6415527343745L205.99463541666665,41.6415527343745L206.2253125,26.15333251953075L206.45598958333335,10.657055664062L206.68666666666667,-4.83116455078175L206.91734375000001,72.62672119140575L207.14802083333333,10.657055664062L207.37869791666665,26.15333251953075L207.609375,-20.32811279296925L207.84005208333335,10.657055664062L208.07072916666667,-20.32811279296925L208.30140624999999,26.15333251953075L208.53208333333333,-4.83116455078175L208.76276041666665,41.6415527343745L208.9934375,-4.83116455078175L209.22411458333335,26.15333251953075L209.45479166666667,57.138500976562L209.68546874999998,26.15333251953075L209.91614583333333,26.15333251953075L210.14682291666665,26.15333251953075L210.3775,41.6415527343745L210.60817708333335,41.6415527343745L210.8388541666667,26.15333251953075L211.06953124999998,41.6415527343745L211.30020833333333,41.6415527343745L211.53088541666668,57.138500976562L211.7615625,41.6415527343745L211.99223958333334,26.15333251953075L212.2229166666667,57.138500976562L212.45359374999998,41.6415527343745L212.68427083333333,72.62672119140575L212.91494791666668,57.138500976562L213.145625,41.6415527343745L213.37630208333334,10.657055664062L213.60697916666666,41.6415527343745L213.83765624999998,26.15333251953075L214.06833333333333,41.6415527343745L214.29901041666668,26.15333251953075L214.5296875,26.15333251953075L214.76036458333334,26.15333251953075L214.99104166666666,26.15333251953075L215.22171874999998,41.6415527343745L215.45239583333333,26.15333251953075L215.68307291666667,10.657055664062L215.91375,41.6415527343745L216.14442708333334,41.6415527343745L216.37510416666666,26.15333251953075L216.60578125,41.6415527343745L216.83645833333333,41.6415527343745L217.06713541666667,10.657055664062L217.29781250000002,41.6415527343745L217.52848958333334,41.6415527343745L217.75916666666666,41.6415527343745L217.98984375,41.6415527343745L218.22052083333332,26.15333251953075L218.45119791666667,57.138500976562L218.68187500000002,26.15333251953075L218.91255208333334,41.6415527343745L219.14322916666666,41.6415527343745L219.37390625,72.62672119140575L219.60458333333332,26.15333251953075L219.83526041666667,41.6415527343745L220.06593750000002,57.138500976562L220.2966145833333,57.138500976562L220.52729166666666,57.138500976562L220.75796875,57.138500976562L220.98864583333332,72.62672119140575L221.21932291666667,72.62672119140575L221.45000000000002,57.138500976562L221.6806770833333,57.138500976562L221.91135416666665,72.62672119140575L222.14203125,26.15333251953075L222.37270833333335,88.1229980468745L222.60338541666667,26.15333251953075L222.83406250000002,41.6415527343745L223.06473958333333,57.138500976562L223.29541666666665,72.62672119140575L223.52609375,57.138500976562L223.75677083333335,41.6415527343745L223.98744791666667,88.1229980468745L224.21812500000001,41.6415527343745L224.44880208333333,72.62672119140575L224.67947916666665,41.6415527343745L224.91015625,88.1229980468745L225.14083333333335,26.15333251953075L225.37151041666667,72.62672119140575L225.60218749999999,57.138500976562L225.83286458333333,103.619946289062L226.06354166666665,88.1229980468745L226.29421875,41.6415527343745L226.52489583333335,26.15333251953075L226.75557291666667,26.15333251953075L226.98624999999998,88.1229980468745L227.21692708333333,26.15333251953075L227.44760416666665,57.138500976562L227.67828125,88.1229980468745L227.90895833333335,72.62672119140575L228.1396354166667,57.138500976562L228.37031249999998,41.6415527343745L228.60098958333333,41.6415527343745L228.83166666666668,41.6415527343745L229.06234375,72.62672119140575L229.29302083333334,57.138500976562L229.5236979166667,57.138500976562L229.75437499999998,72.62672119140575L229.98505208333333,57.138500976562L230.21572916666668,41.6415527343745L230.44640625,41.6415527343745L230.67708333333334,72.62672119140575L230.90776041666666,26.15333251953075L231.13843749999998,57.138500976562L231.36911458333333,72.62672119140575L231.59979166666668,41.6415527343745L231.83046875,57.138500976562L232.06114583333334,41.6415527343745L232.29182291666666,26.15333251953075L232.52249999999998,41.6415527343745L232.75317708333333,41.6415527343745L232.98385416666667,41.6415527343745L233.21453125,26.15333251953075L233.44520833333334,41.6415527343745L233.67588541666666,41.6415527343745L233.9065625,41.6415527343745L234.13723958333333,41.6415527343745L234.36791666666667,26.15333251953075L234.59859375000002,41.6415527343745L234.82927083333334,57.138500976562L235.05994791666666,57.138500976562L235.290625,41.6415527343745L235.52130208333332,41.6415527343745L235.75197916666667,10.657055664062L235.98265625000002,10.657055664062L236.21333333333334,41.6415527343745L236.44401041666666,72.62672119140575L236.6746875,41.6415527343745L236.90536458333332,41.6415527343745L237.13604166666667,26.15333251953075L237.36671875000002,57.138500976562L237.5973958333333,57.138500976562L237.82807291666666,41.6415527343745L238.05875,41.6415527343745L238.28942708333332,26.15333251953075L238.52010416666667,41.6415527343745L238.75078125000002,41.6415527343745L238.9814583333333,72.62672119140575L239.21213541666665,57.138500976562L239.4428125,57.138500976562L239.67348958333335,57.138500976562L239.90416666666667,57.138500976562L240.13484375000002,41.6415527343745L240.36552083333333,26.15333251953075L240.59619791666665,41.6415527343745L240.826875,26.15333251953075L241.05755208333335,41.6415527343745L241.28822916666667,41.6415527343745L241.51890625000001,41.6415527343745L241.74958333333333,26.15333251953075L241.98026041666665,10.657055664062L242.2109375,10.657055664062L242.44161458333335,72.62672119140575L242.67229166666667,26.15333251953075L242.90296874999999,26.15333251953075L243.13364583333333,26.15333251953075L243.36432291666665,26.15333251953075L243.595,41.6415527343745L243.82567708333335,41.6415527343745L244.05635416666667,41.6415527343745L244.28703124999998,26.15333251953075L244.51770833333333,10.657055664062L244.74838541666665,41.6415527343745L244.9790625,26.15333251953075L245.20973958333335,26.15333251953075L245.4404166666667,57.138500976562L245.67109374999998,72.62672119140575L245.90177083333333,57.138500976562L246.13244791666668,10.657055664062L246.363125,26.15333251953075L246.59380208333334,41.6415527343745L246.8244791666667,26.15333251953075L247.05515624999998,26.15333251953075L247.28583333333333,10.657055664062L247.51651041666668,57.138500976562L247.7471875,57.138500976562L247.97786458333334,41.6415527343745L248.20854166666666,-20.32811279296925L248.43921874999998,41.6415527343745L248.66989583333333,41.6415527343745L248.90057291666668,26.15333251953075L249.13125,72.62672119140575L249.36192708333334,41.6415527343745L249.59260416666666,41.6415527343745L249.82328124999998,-4.83116455078175L250.05395833333333,57.138500976562L250.28463541666667,57.138500976562L250.5153125,41.6415527343745L250.74598958333334,-4.83116455078175L250.97666666666666,10.657055664062L251.20734375,10.657055664062L251.43802083333333,41.6415527343745L251.66869791666667,-4.83116455078175L251.89937500000002,26.15333251953075L252.13005208333334,41.6415527343745L252.36072916666666,10.657055664062L252.59140625,10.657055664062L252.82208333333332,41.6415527343745L253.05276041666667,41.6415527343745L253.28343750000002,26.15333251953075L253.51411458333334,26.15333251953075L253.74479166666666,26.15333251953075" style="fill: none;" fill="none"></path></g></g></g></g></g></g><g transform="translate(53, 176)" clip-path="url(#clip_1)"><clipPath id="clip_1"><rect width="276" height="24"></rect></clipPath><g><g><line x1="0" y1="0" x2="0" y2="5" style="visibility: inherit;" fill="rgb(0, 0, 0)" stroke="rgb(204, 204, 204)" stroke-width="1px"></line><line x1="23.067708333333332" y1="0" x2="23.067708333333332" y2="5" style="visibility: inherit;" fill="rgb(0, 0, 0)" stroke="rgb(204, 204, 204)" stroke-width="1px"></line><line x1="46.135416666666664" y1="0" x2="46.135416666666664" y2="5" style="visibility: inherit;" fill="rgb(0, 0, 0)" stroke="rgb(204, 204, 204)" stroke-width="1px"></line><line x1="69.203125" y1="0" x2="69.203125" y2="5" style="visibility: inherit;" fill="rgb(0, 0, 0)" stroke="rgb(204, 204, 204)" stroke-width="1px"></line><line x1="92.27083333333333" y1="0" x2="92.27083333333333" y2="5" style="visibility: inherit;" fill="rgb(0, 0, 0)" stroke="rgb(204, 204, 204)" stroke-width="1px"></line><line x1="115.33854166666667" y1="0" x2="115.33854166666667" y2="5" style="visibility: inherit;" fill="rgb(0, 0, 0)" stroke="rgb(204, 204, 204)" stroke-width="1px"></line><line x1="138.40625" y1="0" x2="138.40625" y2="5" style="visibility: inherit;" fill="rgb(0, 0, 0)" stroke="rgb(204, 204, 204)" stroke-width="1px"></line><line x1="161.47395833333334" y1="0" x2="161.47395833333334" y2="5" style="visibility: inherit;" fill="rgb(0, 0, 0)" stroke="rgb(204, 204, 204)" stroke-width="1px"></line><line x1="184.54166666666666" y1="0" x2="184.54166666666666" y2="5" style="visibility: inherit;" fill="rgb(0, 0, 0)" stroke="rgb(204, 204, 204)" stroke-width="1px"></line><line x1="207.609375" y1="0" x2="207.609375" y2="5" style="visibility: inherit;" fill="rgb(0, 0, 0)" stroke="rgb(204, 204, 204)" stroke-width="1px"></line><line x1="230.67708333333334" y1="0" x2="230.67708333333334" y2="5" style="visibility: inherit;" fill="rgb(0, 0, 0)" stroke="rgb(204, 204, 204)" stroke-width="1px"></line><line x1="253.74479166666666" y1="0" x2="253.74479166666666" y2="5" style="visibility: inherit;" fill="rgb(0, 0, 0)" stroke="rgb(204, 204, 204)" stroke-width="1px"></line><line x1="276.8125" y1="0" x2="276.8125" y2="5" style="visibility: inherit;" fill="rgb(0, 0, 0)" stroke="rgb(204, 204, 204)" stroke-width="1px"></line></g><g transform="translate(0, 8)"><text x="0" y="0" dx="0em" dy="0.95em" style="text-anchor: middle; visibility: hidden; font-family: Roboto, sans-serif; font-size: 12px; font-weight: 200;" fill="rgb(33, 33, 33)" stroke="none" stroke-width="1px">-100</text><text x="23.067708333333332" y="0" dx="0em" dy="0.95em" style="text-anchor: middle; visibility: inherit; font-family: Roboto, sans-serif; font-size: 12px; font-weight: 200;" fill="rgb(33, 33, 33)" stroke="none" stroke-width="1px">0</text><text x="46.135416666666664" y="0" dx="0em" dy="0.95em" style="text-anchor: middle; visibility: hidden; font-family: Roboto, sans-serif; font-size: 12px; font-weight: 200;" fill="rgb(33, 33, 33)" stroke="none" stroke-width="1px">100</text><text x="69.203125" y="0" dx="0em" dy="0.95em" style="text-anchor: middle; visibility: inherit; font-family: Roboto, sans-serif; font-size: 12px; font-weight: 200;" fill="rgb(33, 33, 33)" stroke="none" stroke-width="1px">200</text><text x="92.27083333333333" y="0" dx="0em" dy="0.95em" style="text-anchor: middle; visibility: hidden; font-family: Roboto, sans-serif; font-size: 12px; font-weight: 200;" fill="rgb(33, 33, 33)" stroke="none" stroke-width="1px">300</text><text x="115.33854166666667" y="0" dx="0em" dy="0.95em" style="text-anchor: middle; visibility: inherit; font-family: Roboto, sans-serif; font-size: 12px; font-weight: 200;" fill="rgb(33, 33, 33)" stroke="none" stroke-width="1px">400</text><text x="138.40625" y="0" dx="0em" dy="0.95em" style="text-anchor: middle; visibility: hidden; font-family: Roboto, sans-serif; font-size: 12px; font-weight: 200;" fill="rgb(33, 33, 33)" stroke="none" stroke-width="1px">500</text><text x="161.47395833333334" y="0" dx="0em" dy="0.95em" style="text-anchor: middle; visibility: inherit; font-family: Roboto, sans-serif; font-size: 12px; font-weight: 200;" fill="rgb(33, 33, 33)" stroke="none" stroke-width="1px">600</text><text x="184.54166666666666" y="0" dx="0em" dy="0.95em" style="text-anchor: middle; visibility: hidden; font-family: Roboto, sans-serif; font-size: 12px; font-weight: 200;" fill="rgb(33, 33, 33)" stroke="none" stroke-width="1px">700</text><text x="207.609375" y="0" dx="0em" dy="0.95em" style="text-anchor: middle; visibility: inherit; font-family: Roboto, sans-serif; font-size: 12px; font-weight: 200;" fill="rgb(33, 33, 33)" stroke="none" stroke-width="1px">800</text><text x="230.67708333333334" y="0" dx="0em" dy="0.95em" style="text-anchor: middle; visibility: hidden; font-family: Roboto, sans-serif; font-size: 12px; font-weight: 200;" fill="rgb(33, 33, 33)" stroke="none" stroke-width="1px">900</text><text x="253.74479166666666" y="0" dx="0em" dy="0.95em" style="text-anchor: middle; visibility: inherit; font-family: Roboto, sans-serif; font-size: 12px; font-weight: 200;" fill="rgb(33, 33, 33)" stroke="none" stroke-width="1px">1k</text><text x="276.8125" y="0" dx="0em" dy="0.95em" style="text-anchor: middle; visibility: hidden; font-family: Roboto, sans-serif; font-size: 12px; font-weight: 200;" fill="rgb(33, 33, 33)" stroke="none" stroke-width="1px">1.1k</text></g><line x1="0" y1="0" x2="276.8125" y2="0" fill="rgb(0, 0, 0)" stroke="rgb(204, 204, 204)" stroke-width="1px"></line></g></g></g></g></svg>