<svg viewBox="0 0 915.25 400" xmlns="http://www.w3.org/2000/svg"><g><g><g><g><g><line x1="53.1875" y1="376" x2="48.1875" y2="376" style="visibility: inherit;" fill="rgb(0, 0, 0)" stroke="rgb(204, 204, 204)" stroke-width="1px"></line><line x1="53.1875" y1="344.66666666666663" x2="48.1875" y2="344.66666666666663" style="visibility: inherit;" fill="rgb(0, 0, 0)" stroke="rgb(204, 204, 204)" stroke-width="1px"></line><line x1="53.1875" y1="313.33333333333326" x2="48.1875" y2="313.33333333333326" style="visibility: inherit;" fill="rgb(0, 0, 0)" stroke="rgb(204, 204, 204)" stroke-width="1px"></line><line x1="53.1875" y1="281.99999999999994" x2="48.1875" y2="281.99999999999994" style="visibility: inherit;" fill="rgb(0, 0, 0)" stroke="rgb(204, 204, 204)" stroke-width="1px"></line><line x1="53.1875" y1="250.66666666666652" x2="48.1875" y2="250.66666666666652" style="visibility: inherit;" fill="rgb(0, 0, 0)" stroke="rgb(204, 204, 204)" stroke-width="1px"></line><line x1="53.1875" y1="219.3333333333334" x2="48.1875" y2="219.3333333333334" style="visibility: inherit;" fill="rgb(0, 0, 0)" stroke="rgb(204, 204, 204)" stroke-width="1px"></line><line x1="53.1875" y1="188" x2="48.1875" y2="188" style="visibility: inherit;" fill="rgb(0, 0, 0)" stroke="rgb(204, 204, 204)" stroke-width="1px"></line><line x1="53.1875" y1="156.66666666666666" x2="48.1875" y2="156.66666666666666" style="visibility: inherit;" fill="rgb(0, 0, 0)" stroke="rgb(204, 204, 204)" stroke-width="1px"></line><line x1="53.1875" y1="125.33333333333326" x2="48.1875" y2="125.33333333333326" style="visibility: inherit;" fill="rgb(0, 0, 0)" stroke="rgb(204, 204, 204)" stroke-width="1px"></line><line x1="53.1875" y1="93.99999999999991" x2="48.1875" y2="93.99999999999991" style="visibility: inherit;" fill="rgb(0, 0, 0)" stroke="rgb(204, 204, 204)" stroke-width="1px"></line><line x1="53.1875" y1="62.66666666666657" x2="48.1875" y2="62.66666666666657" style="visibility: inherit;" fill="rgb(0, 0, 0)" stroke="rgb(204, 204, 204)" stroke-width="1px"></line><line x1="53.1875" y1="31.333333333333346" x2="48.1875" y2="31.333333333333346" style="visibility: inherit;" fill="rgb(0, 0, 0)" stroke="rgb(204, 204, 204)" stroke-width="1px"></line><line x1="53.1875" y1="0" x2="48.1875" y2="0" style="visibility: inherit;" fill="rgb(0, 0, 0)" stroke="rgb(204, 204, 204)" stroke-width="1px"></line></g><g transform="translate(43.1875, 0)"><text x="0" y="376" dx="0em" dy="0.3em" style="text-anchor: end; visibility: hidden; font-family: Roboto, sans-serif; font-size: 12px; font-weight: 200;" fill="rgb(33, 33, 33)" stroke="none" stroke-width="1px">0.48</text><text x="0" y="344.66666666666663" dx="0em" dy="0.3em" style="text-anchor: end; visibility: inherit; font-family: Roboto, sans-serif; font-size: 12px; font-weight: 200;" fill="rgb(33, 33, 33)" stroke="none" stroke-width="1px">0.5</text><text x="0" y="313.33333333333326" dx="0em" dy="0.3em" style="text-anchor: end; visibility: inherit; font-family: Roboto, sans-serif; font-size: 12px; font-weight: 200;" fill="rgb(33, 33, 33)" stroke="none" stroke-width="1px">0.52</text><text x="0" y="281.99999999999994" dx="0em" dy="0.3em" style="text-anchor: end; visibility: inherit; font-family: Roboto, sans-serif; font-size: 12px; font-weight: 200;" fill="rgb(33, 33, 33)" stroke="none" stroke-width="1px">0.54</text><text x="0" y="250.66666666666652" dx="0em" dy="0.3em" style="text-anchor: end; visibility: inherit; font-family: Roboto, sans-serif; font-size: 12px; font-weight: 200;" fill="rgb(33, 33, 33)" stroke="none" stroke-width="1px">0.56</text><text x="0" y="219.3333333333334" dx="0em" dy="0.3em" style="text-anchor: end; visibility: inherit; font-family: Roboto, sans-serif; font-size: 12px; font-weight: 200;" fill="rgb(33, 33, 33)" stroke="none" stroke-width="1px">0.58</text><text x="0" y="188" dx="0em" dy="0.3em" style="text-anchor: end; visibility: inherit; font-family: Roboto, sans-serif; font-size: 12px; font-weight: 200;" fill="rgb(33, 33, 33)" stroke="none" stroke-width="1px">0.6</text><text x="0" y="156.66666666666666" dx="0em" dy="0.3em" style="text-anchor: end; visibility: inherit; font-family: Roboto, sans-serif; font-size: 12px; font-weight: 200;" fill="rgb(33, 33, 33)" stroke="none" stroke-width="1px">0.62</text><text x="0" y="125.33333333333326" dx="0em" dy="0.3em" style="text-anchor: end; visibility: inherit; font-family: Roboto, sans-serif; font-size: 12px; font-weight: 200;" fill="rgb(33, 33, 33)" stroke="none" stroke-width="1px">0.64</text><text x="0" y="93.99999999999991" dx="0em" dy="0.3em" style="text-anchor: end; visibility: inherit; font-family: Roboto, sans-serif; font-size: 12px; font-weight: 200;" fill="rgb(33, 33, 33)" stroke="none" stroke-width="1px">0.66</text><text x="0" y="62.66666666666657" dx="0em" dy="0.3em" style="text-anchor: end; visibility: inherit; font-family: Roboto, sans-serif; font-size: 12px; font-weight: 200;" fill="rgb(33, 33, 33)" stroke="none" stroke-width="1px">0.68</text><text x="0" y="31.333333333333346" dx="0em" dy="0.3em" style="text-anchor: end; visibility: inherit; font-family: Roboto, sans-serif; font-size: 12px; font-weight: 200;" fill="rgb(33, 33, 33)" stroke="none" stroke-width="1px">0.7</text><text x="0" y="0" dx="0em" dy="0.3em" style="text-anchor: end; visibility: hidden; font-family: Roboto, sans-serif; font-size: 12px; font-weight: 200;" fill="rgb(33, 33, 33)" stroke="none" stroke-width="1px">0.72</text></g><line x1="53.1875" y1="0" x2="53.1875" y2="376" fill="rgb(0, 0, 0)" stroke="rgb(204, 204, 204)" stroke-width="1px"></line></g></g><g transform="translate(53, 0)" clip-path="url(#clip_0)"><clipPath id="clip_0"><rect width="862" height="376"></rect></clipPath><g><g><g><line x1="0" y1="0" x2="0" y2="376" fill="rgb(0, 0, 0)" stroke="rgb(66, 66, 66)" stroke-width="1px" opacity="0.25"></line><line x1="57.47083333333333" y1="0" x2="57.47083333333333" y2="376" fill="rgb(0, 0, 0)" stroke="rgb(66, 66, 66)" stroke-width="1px" opacity="0.25"></line><line x1="114.94166666666666" y1="0" x2="114.94166666666666" y2="376" fill="rgb(0, 0, 0)" stroke="rgb(66, 66, 66)" stroke-width="1px" opacity="0.25"></line><line x1="172.41250000000002" y1="0" x2="172.41250000000002" y2="376" fill="rgb(0, 0, 0)" stroke="rgb(66, 66, 66)" stroke-width="1px" opacity="0.25"></line><line x1="229.88333333333333" y1="0" x2="229.88333333333333" y2="376" fill="rgb(0, 0, 0)" stroke="rgb(66, 66, 66)" stroke-width="1px" opacity="0.25"></line><line x1="287.35416666666663" y1="0" x2="287.35416666666663" y2="376" fill="rgb(0, 0, 0)" stroke="rgb(66, 66, 66)" stroke-width="1px" opacity="0.25"></line><line x1="344.82500000000005" y1="0" x2="344.82500000000005" y2="376" fill="rgb(0, 0, 0)" stroke="rgb(66, 66, 66)" stroke-width="1px" opacity="0.25"></line><line x1="402.29583333333335" y1="0" x2="402.29583333333335" y2="376" fill="rgb(0, 0, 0)" stroke="rgb(66, 66, 66)" stroke-width="1px" opacity="0.25"></line><line x1="459.76666666666665" y1="0" x2="459.76666666666665" y2="376" fill="rgb(0, 0, 0)" stroke="rgb(66, 66, 66)" stroke-width="1px" opacity="0.25"></line><line x1="517.2375" y1="0" x2="517.2375" y2="376" fill="rgb(0, 0, 0)" stroke="rgb(66, 66, 66)" stroke-width="1px" opacity="0.25"></line><line x1="574.7083333333333" y1="0" x2="574.7083333333333" y2="376" fill="rgb(0, 0, 0)" stroke="rgb(66, 66, 66)" stroke-width="1px" opacity="0.25"></line><line x1="632.1791666666667" y1="0" x2="632.1791666666667" y2="376" fill="rgb(0, 0, 0)" stroke="rgb(66, 66, 66)" stroke-width="1px" opacity="0.25"></line><line x1="689.6500000000001" y1="0" x2="689.6500000000001" y2="376" fill="rgb(0, 0, 0)" stroke="rgb(66, 66, 66)" stroke-width="1px" opacity="0.25"></line><line x1="747.1208333333334" y1="0" x2="747.1208333333334" y2="376" fill="rgb(0, 0, 0)" stroke="rgb(66, 66, 66)" stroke-width="1px" opacity="0.25"></line><line x1="804.5916666666667" y1="0" x2="804.5916666666667" y2="376" fill="rgb(0, 0, 0)" stroke="rgb(66, 66, 66)" stroke-width="1px" opacity="0.25"></line><line x1="862.0625" y1="0" x2="862.0625" y2="376" fill="rgb(0, 0, 0)" stroke="rgb(66, 66, 66)" stroke-width="1px" opacity="0.25"></line></g><g><line x1="0" y1="376" x2="862.0625" y2="376" fill="rgb(0, 0, 0)" stroke="rgb(66, 66, 66)" stroke-width="1px" opacity="0.25"></line><line x1="0" y1="344.66666666666663" x2="862.0625" y2="344.66666666666663" fill="rgb(0, 0, 0)" stroke="rgb(66, 66, 66)" stroke-width="1px" opacity="0.25"></line><line x1="0" y1="313.33333333333326" x2="862.0625" y2="313.33333333333326" fill="rgb(0, 0, 0)" stroke="rgb(66, 66, 66)" stroke-width="1px" opacity="0.25"></line><line x1="0" y1="281.99999999999994" x2="862.0625" y2="281.99999999999994" fill="rgb(0, 0, 0)" stroke="rgb(66, 66, 66)" stroke-width="1px" opacity="0.25"></line><line x1="0" y1="250.66666666666652" x2="862.0625" y2="250.66666666666652" fill="rgb(0, 0, 0)" stroke="rgb(66, 66, 66)" stroke-width="1px" opacity="0.25"></line><line x1="0" y1="219.3333333333334" x2="862.0625" y2="219.3333333333334" fill="rgb(0, 0, 0)" stroke="rgb(66, 66, 66)" stroke-width="1px" opacity="0.25"></line><line x1="0" y1="188" x2="862.0625" y2="188" fill="rgb(0, 0, 0)" stroke="rgb(66, 66, 66)" stroke-width="1px" opacity="0.25"></line><line x1="0" y1="156.66666666666666" x2="862.0625" y2="156.66666666666666" fill="rgb(0, 0, 0)" stroke="rgb(66, 66, 66)" stroke-width="1px" opacity="0.25"></line><line x1="0" y1="125.33333333333326" x2="862.0625" y2="125.33333333333326" fill="rgb(0, 0, 0)" stroke="rgb(66, 66, 66)" stroke-width="1px" opacity="0.25"></line><line x1="0" y1="93.99999999999991" x2="862.0625" y2="93.99999999999991" fill="rgb(0, 0, 0)" stroke="rgb(66, 66, 66)" stroke-width="1px" opacity="0.25"></line><line x1="0" y1="62.66666666666657" x2="862.0625" y2="62.66666666666657" fill="rgb(0, 0, 0)" stroke="rgb(66, 66, 66)" stroke-width="1px" opacity="0.25"></line><line x1="0" y1="31.333333333333346" x2="862.0625" y2="31.333333333333346" fill="rgb(0, 0, 0)" stroke="rgb(66, 66, 66)" stroke-width="1px" opacity="0.25"></line><line x1="0" y1="0" x2="862.0625" y2="0" fill="rgb(0, 0, 0)" stroke="rgb(66, 66, 66)" stroke-width="1px" opacity="0.25"></line></g></g></g><g><g><line x1="0" y1="1128" x2="862.0625" y2="1128" fill="rgb(0, 0, 0)" stroke="rgb(153, 153, 153)" stroke-width="1.5px"></line></g></g><g><g><line x1="57.47083333333333" y1="0" x2="57.47083333333333" y2="376" fill="rgb(0, 0, 0)" stroke="rgb(153, 153, 153)" stroke-width="1.5px"></line></g></g><g><g><g><g><g><path stroke="rgb(255, 112, 67)" stroke-width="2px" d="M100.57395833333334,409.3823073976914L103.44749999999999,333.32696815206634L106.32104166666667,282.3258055128361L109.19458333333334,251.17020342986208L112.06812500000001,231.22677313165946L114.94166666666666,217.82057509316135L117.81520833333333,210.15338055371794L120.68875000000001,202.60787948098795L123.56229166666667,194.38328687869682L126.43583333333333,189.82459125811485L129.309375,187.0267569166692L132.18291666666664,185.66137631036023L135.05645833333335,184.77947325849465L137.93,184.12501548309058L140.80354166666666,180.91235714506374L143.67708333333331,178.9220863162628L146.550625,177.85324109483548L149.42416666666668,177.0239402439208L152.29770833333333,176.40104301498087L155.17125,175.9019505722957L158.04479166666667,175.60249512193758L160.91833333333335,175.36018214284962L163.791875,175.15211729188482L166.66541666666666,173.58592998000114L169.5389583333333,175.02757257566984L172.41250000000002,176.0178749087432L175.28604166666668,176.54937924155973L178.15958333333333,176.93095890637676L181.03312499999998,176.28257719618517L183.90666666666667,174.8908645304541L186.78020833333335,174.30650784119786L189.65375,172.45190572050686L192.52729166666666,171.21382766938916L195.4008333333333,170.5962976175913L198.27437500000002,168.59643734838247L201.14791666666667,167.33384412135374L204.02145833333333,166.45097140632748L206.89499999999998,166.29723546601872L209.76854166666666,165.95432299195153L212.64208333333335,166.1246005484568L215.515625,166.66543183659235L218.38916666666668,166.551265855241L221.26270833333334,166.608083045249L224.13625000000002,172.34485251651242L227.00979166666664,173.59359042811033L229.88333333333333,174.342833175069L232.756875,175.04304973312563L235.63041666666666,175.58849644677858L238.50395833333334,176.3544292292019L241.37750000000003,177.56600162830065L244.25104166666665,178.29294506776003L247.12458333333333,172.39977337559657L249.998125,168.42520560606658L252.87166666666667,165.6644399034045L255.74520833333335,163.8199866374569L258.61875,163.7159983174148L261.4922916666667,163.02694672680738L264.3658333333333,161.92418010832972L267.239375,161.1998430717117L270.1129166666667,160.7025637842094L272.9864583333333,156.14286544820922L275.86,153.34436938107768L278.73354166666667,151.53995496197993L281.6070833333333,150.6453001548715L284.48062500000003,151.42450153330174L287.35416666666663,151.51603467165947L290.22770833333334,150.38027707079752L293.10125,149.63618279699304L295.97479166666665,149.06437210164748L298.84833333333336,148.59596890562153L301.72187499999995,147.31224334847954L304.59541666666667,146.47933094866292L307.4689583333334,144.7889433771403L310.3425,143.5867169898766L313.2160416666667,141.36135569822895L316.08958333333334,140.15149305430316L318.963125,139.42557546794768L321.8366666666667,139.05266462942177L324.7102083333333,138.57824721642444L327.58375,136.6642918827618L330.45729166666666,133.51058875575575L333.3308333333333,131.6183668795521L336.204375,130.29500255723576L339.0779166666666,129.37566718502714L341.95145833333333,127.00672987924342L344.82500000000005,125.3973736514229L347.69854166666664,124.43175991473076L350.57208333333335,123.7270375416525L353.445625,123.24156440451833L356.31916666666666,122.69960961235618L359.19270833333337,122.43711380259042L362.06624999999997,121.59028065261745L364.9397916666667,121.58348523015275L367.81333333333333,121.4540911978552L370.686875,121.56444862282676L373.5604166666667,123.07201147156788L376.4339583333333,124.03918889409982L379.3075,124.36886178998161L382.1810416666667,123.93996957668475L385.0545833333333,126.69064781504154L387.928125,128.34105475805558L390.8016666666666,129.08062801398242L393.67520833333333,129.3363781231885L396.54875000000004,129.42715112318066L399.42229166666664,129.3562981443572L402.29583333333335,129.37646342259453L405.169375,129.63919614717437L408.04291666666666,129.79683578192243L410.91645833333337,130.26744460371577L413.78999999999996,130.61244961007898L416.6635416666667,130.75681290060962L419.5370833333333,130.84343087492806L422.410625,130.20606599540568L425.2841666666667,129.82364706769224L428.1577083333333,129.46884158000117L431.03125,129.2559582873866L433.90479166666665,128.87755740193634L436.77833333333336,127.52251645232097L439.651875,126.45885832491422L442.5254166666667,125.82066344847024L445.3989583333334,125.18707561272235L448.27250000000004,128.56691185500927L451.14604166666663,128.7148004523915L454.0195833333333,128.9915648074152L456.893125,128.84427544501628L459.76666666666665,128.69322476204545L462.6402083333333,128.53991728673174L465.51375,130.3279459495334L468.38729166666667,131.40076314721446L471.2608333333333,124.14845053740699L474.13437500000003,118.79441668424029L477.0079166666667,111.00731763342819L479.8814583333333,106.46037498175987L482.75500000000005,103.41889876758982L485.6285416666667,101.59401303908781L488.5020833333333,100.31108775763637L491.37562499999996,97.03466084219376L494.24916666666667,95.0061276273968L497.1227083333333,93.6636909196997L499.99625,92.04353909990519L502.8697916666667,90.82077709814698L505.74333333333334,89.27246745415991L508.616875,83.39281524015544L511.4904166666667,79.61435300187112L514.3639583333334,77.15928181455033L517.2375,75.2475743479261L520.1110416666667,74.03787280242011L522.9845833333334,71.93338054688985L525.858125,70.60804548028428L528.7316666666666,70.12615506349002L531.6052083333334,69.83702081341343L534.47875,69.60086319783612L537.3522916666666,68.4565223412074L540.2258333333334,67.7072407616987L543.099375,67.19499474846205L545.9729166666666,66.88764714052016L548.8464583333334,66.64059886246767L551.72,66.49236989563609L554.5935416666666,66.34075545000589L557.4670833333333,66.31246384815903L560.340625,66.35812860033828L563.2141666666666,66.19753360729567L566.0877083333332,65.09853032418776L568.9612500000001,63.93778653455988L571.8347916666667,63.241340260783254L574.7083333333333,65.26746717755758L577.5818750000001,66.85913101632248L580.4554166666667,67.8141293195815L583.3289583333333,68.26181152271802L586.2025,68.65573762341874L589.0760416666667,68.82945357055186L591.9495833333333,68.87100607330035L594.823125,67.39194946790393L597.6966666666667,66.50451550466616L600.5702083333333,64.96937148719721L603.4437499999999,64.29895598659726L606.3172916666667,65.46337185881417L609.1908333333333,66.16202138214439L612.0643749999999,66.26786312072956L614.9379166666668,63.57406285967111L617.8114583333333,61.45644088327287L620.685,60.12319063190266L623.5585416666667,58.13256299720393L626.4320833333334,57.06354054744752L629.305625,56.29677294653075L632.1791666666667,55.83671238598069L635.0527083333334,55.49803633636352L637.92625,55.29483070659313L640.7997916666666,55.172907328730915L643.6733333333334,54.78640532660046L646.546875,54.5545041253221L649.4204166666666,54.164692494673616L652.2939583333334,54.43214733604772L655.1675,56.66062723321227L658.0410416666666,57.93503810597961L660.9145833333333,58.38637400647093L663.788125,58.97048616993479L666.6616666666666,57.00227556579134L669.5352083333333,60.08271731904842L672.40875,63.12162250263522L675.2822916666667,65.00764267831858L678.1558333333332,66.01390065266584L681.0293750000001,66.4923386584554L683.9029166666667,67.46873712604244L686.7764583333333,67.86658236224449L689.6500000000001,63.53061076505369L692.5235416666667,60.74103396238904L695.3970833333333,59.38063585620321L698.270625,56.559029713439266L701.1441666666667,54.17676771591131L704.0177083333333,48.48604240165173L706.89125,45.00896749980843L709.7647916666667,42.92272255870253L712.6383333333333,41.670975594038985L715.5118749999999,41.04524419405965L718.3854166666667,40.66980535407203L721.2589583333333,40.31922527126062L724.1324999999999,40.17151693486141L727.0060416666668,39.95757515420295L729.8795833333334,39.51586211039473L732.753125,39.25083428410981L735.6266666666667,39.02917787505158L738.5002083333334,38.83350696408536L741.37375,38.65342735197423L744.2472916666666,38.482739871420065L747.1208333333334,38.317650317556165L749.994375,40.97593924169119L752.8679166666666,41.00424742359541L755.7414583333334,41.083872046025306L758.615,41.31964066383348L761.4885416666666,41.39846212123099L764.3620833333334,41.44575499566958L767.235625,41.348776589269875L770.1091666666666,41.35326661096146L772.9827083333333,41.481277402795214L775.85625,39.740747795436825L778.7297916666666,38.57111325220299L781.6033333333332,36.42798413250463L784.4768750000001,35.01678988186687L787.3504166666667,31.350090961743305L790.2239583333333,29.150071609669183L793.0975000000001,27.89269971171202L795.9710416666667,27.075636859650352L798.8445833333333,24.580031869360617L801.718125,22.957352096368066L804.5916666666667,21.921067167041187L807.4652083333333,20.923308520744765L810.33875,20.32465333296688L813.2122916666667,19.902783154768656L816.0858333333333,19.148319228086663L818.9593749999999,18.633001158790073L821.8329166666667,19.57712751437606" style="fill: none;" fill="none"></path></g></g></g></g><g opacity="0.2"><g><g><g><path stroke="rgb(255, 112, 67)" stroke-width="2px" d="M94.826875,463.889987150828L97.70041666666665,321.9499656359354L100.57395833333334,245.8100307782491L103.44749999999999,219.33335947990415L106.32104166666667,205.86003152529392L109.19458333333334,204.44998431205747L112.06812500000001,201.31669131914768L114.94166666666666,197.71332033475238L117.81520833333333,198.65328955650327L120.68875000000001,191.29004168510434L123.56229166666667,182.04666860898334L126.43583333333333,182.98663783073422L129.309375,182.83003854751584L132.18291666666664,183.6133151054382L135.05645833333335,183.45662244160968L137.93,183.14333049456272L140.80354166666666,176.09337457021076L143.67708333333331,175.93668190638218L146.550625,176.24997385342914L149.42416666666668,175.77998924255368L152.29770833333333,175.46669729550678L155.17125,175.1533119678497L158.04479166666667,175.1533119678497L160.91833333333335,174.99671268463132L163.791875,174.8400200208028L166.66541666666666,171.23664903640744L169.5389583333333,177.19003645579014L172.41250000000002,177.5033284028371L175.28604166666668,177.34663573900852L178.15958333333333,177.5033284028371L181.03312499999998,175.3100046316782L183.90666666666667,172.80329553286228L186.78020833333335,173.42997280756626L189.65375,169.67000253995258L192.52729166666666,169.3567105929056L195.4008333333333,169.67000253995258L198.27437500000002,165.59664694468174L201.14791666666667,165.43995428085324L204.02145833333333,165.12666233380634L206.89499999999998,166.06663155555722L209.76854166666666,165.43995428085324L212.64208333333335,166.3800168832143L215.515625,167.47667876879368L218.38916666666668,166.3800168832143L221.26270833333334,166.6933088302612L224.13625000000002,180.9500067234039L227.00979166666664,175.46669729550678L229.88333333333333,175.46669729550678L232.756875,176.09337457021076L235.63041666666666,176.40666651725766L238.50395833333334,177.5033284028371L241.37750000000003,179.38336022694904L244.25104166666665,179.38336022694904L247.12458333333333,163.56001583735141L249.998125,162.46335395177204L252.87166666666667,161.52329134941098L255.74520833333335,161.0533067385355L258.61875,163.56001583735141L261.4922916666667,161.99336934089658L264.3658333333333,160.27003018061313L267.239375,160.11333751678464L270.1129166666667,159.95664485295612L272.9864583333333,149.30331794420871L275.86,149.14662528038022L278.73354166666667,148.83333333333331L281.6070833333333,149.30331794420871L284.48062500000003,152.593303600947L287.35416666666663,151.65333437919614L290.22770833333334,148.67664066950474L293.10125,148.52004138628635L295.97479166666665,148.20665605862933L298.84833333333336,147.89336411158237L301.72187499999995,145.38665501276645L304.59541666666667,145.22996234893796L307.4689583333334,142.25336201985675L310.3425,141.7833774089813L313.2160416666667,138.02331376075742L316.08958333333334,138.3366990884145L318.963125,138.3366990884145L321.8366666666667,138.49329837163287L324.7102083333333,137.8666210969289L327.58375,133.79335888226825L330.45729166666666,128.78003406524655L333.3308333333333,128.78003406524655L336.204375,128.30995607376096L339.0779166666666,127.99666412671404L341.95145833333333,123.4533239205678L344.82500000000005,122.98333930969234L347.69854166666664,122.98333930969234L350.57208333333335,122.66995398203527L353.445625,122.51335469881688L356.31916666666666,121.8866774241129L359.19270833333337,122.04337008794145L362.06624999999997,120.32003092765804L364.9397916666667,121.57329209645586L367.81333333333333,121.26000014940892L370.686875,121.72998476028438L373.5604166666667,125.33335574467974L376.4339583333333,125.48995502789812L379.3075,124.86337113380428L382.1810416666667,123.29663125673925L385.0545833333333,130.81666517257688L387.928125,130.81666517257688L390.8016666666666,130.1899878978729L393.67520833333333,129.7200032869974L396.54875000000004,129.56331062316892L399.42229166666664,129.250018676122L402.29583333333335,129.40671133995053L405.169375,130.03329523404437L408.04291666666666,130.03329523404437L410.91645833333337,130.97335783640537L413.78999999999996,131.12995711962375L416.6635416666667,130.97335783640537L419.5370833333333,130.97335783640537L422.410625,129.250018676122L425.2841666666667,129.250018676122L428.1577083333333,128.93663334846494L431.03125,128.93663334846494L433.90479166666665,128.30995607376096L436.77833333333336,125.48995502789812L439.651875,124.86337113380428L442.5254166666667,124.86337113380428L445.3989583333334,124.2366938591003L448.27250000000004,133.63666621843967L451.14604166666663,128.93663334846494L454.0195833333333,129.40671133995053L456.893125,128.62334140141803L459.76666666666665,128.46664873758945L462.6402083333333,128.30995607376096L465.51375,133.0099889437357L468.38729166666667,133.0099889437357L471.2608333333333,113.26998162269588L474.13437500000003,110.7633659044901L477.0079166666667,99.32666905721025L479.8814583333333,99.63996100425716L482.75500000000005,98.8566844463348L485.6285416666667,98.8566844463348L488.5020833333333,98.38669983545934L491.37562499999996,92.12002046902971L494.24916666666667,91.96332780520116L497.1227083333333,91.65003585815425L499.99625,89.6133113702138L502.8697916666667,88.98663409550981L505.74333333333334,86.95000298817949L508.616875,74.57333691914873L511.4904166666667,73.94665964444475L514.3639583333334,73.4766750335693L517.2375,72.38001314798986L520.1110416666667,72.22332048416133L522.9845833333334,68.77664216359453L525.858125,68.62004288037615L528.7316666666666,69.40331943829851L531.6052083333334,69.40331943829851L534.47875,69.24662677446996L537.3522916666666,66.74001105626421L540.2258333333334,66.58331839243566L543.099375,66.42662572860714L545.9729166666666,66.42662572860714L548.8464583333334,66.27002644538875L551.72,66.27002644538875L554.5935416666666,66.11333378156023L557.4670833333333,66.27002644538875L560.340625,66.42662572860714L563.2141666666666,65.95664111773168L566.0877083333332,63.450025399525934L568.9612500000001,62.196670850117975L571.8347916666667,62.196670850117975L574.7083333333333,68.30665755271907L577.5818750000001,69.24662677446996L580.4554166666667,69.24662677446996L583.3289583333333,68.93333482742305L586.2025,69.24662677446996L589.0760416666667,69.09002749125158L591.9495833333333,68.93333482742305L594.823125,65.17336455980931L597.6966666666667,65.17336455980931L600.5702083333333,62.6666554609934L603.4437499999999,63.293332735697376L606.3172916666667,67.20999566713964L609.1908333333333,67.20999566713964L612.0643749999999,66.42662572860714L614.9379166666668,59.53336246808367L617.8114583333333,58.280007918675715L620.685,58.12331525484716L623.5585416666667,55.14662154515582L626.4320833333334,55.460006872812855L629.305625,55.14662154515582L632.1791666666667,55.14662154515582L635.0527083333334,54.99002226193743L637.92625,54.99002226193743L640.7997916666666,54.99002226193743L643.6733333333334,54.206652323404896L646.546875,54.206652323404896L649.4204166666666,53.579975048700916L652.2939583333334,54.833329598108875L655.1675,60.003347078959095L658.0410416666666,59.84665441513057L660.9145833333333,59.06337785720821L663.788125,59.84665441513057L666.6616666666666,54.04995965957637L669.5352083333333,64.70337994893389L672.40875,67.6799802780151L675.2822916666667,67.83667294184362L678.1558333333332,67.52328761418657L681.0293750000001,67.20999566713964L683.9029166666667,68.93333482742305L686.7764583333333,68.4633502165476L689.6500000000001,57.026653369267756L692.5235416666667,56.55666875839229L695.3970833333333,57.34003869692479L698.270625,52.32662049929296L701.1441666666667,50.60337471961971L704.0177083333333,39.949954430262196L706.89125,39.79335514704381L709.7647916666667,39.79335514704381L712.6383333333333,39.79335514704381L715.5118749999999,40.106647094090754L718.3854166666667,40.106647094090754L721.2589583333333,39.79335514704381L724.1324999999999,39.949954430262196L727.0060416666668,39.63666248321529L729.8795833333334,38.853292544682795L732.753125,38.853292544682795L735.6266666666667,38.69669326146441L738.5002083333334,38.54000059763585L741.37375,38.38330793380733L744.2472916666666,38.22670865058895L747.1208333333334,38.07001598676043L749.994375,44.96337262789403L752.8679166666666,41.04670969645177L755.7414583333334,41.203308979670155L758.615,41.67329359054561L761.4885416666666,41.51669430732723L764.3620833333334,41.51669430732723L767.235625,41.203308979670155L770.1091666666666,41.36000164349871L772.9827083333333,41.67329359054561L775.85625,37.12995338439937L778.7297916666666,36.81666143735247L781.6033333333332,33.21329045295711L784.4768750000001,32.89999850591021L787.3504166666667,25.850042581558185L790.2239583333333,25.850042581558185L793.0975000000001,26.00664186477657L795.9710416666667,25.850042581558185L798.8445833333333,20.83662438392635L801.718125,20.52333243687945L804.5916666666667,20.36663977305089L807.4652083333333,19.426670551300006L810.33875,19.426670551300006L813.2122916666667,19.26997788747149L816.0858333333333,18.016623338063532L818.9593749999999,17.860024054845148L821.8329166666667,20.993317047754868" style="fill: none;" fill="none"></path></g></g></g></g></g></g><g transform="translate(53, 376)" clip-path="url(#clip_1)"><clipPath id="clip_1"><rect width="862" height="24"></rect></clipPath><g><g><line x1="0" y1="0" x2="0" y2="5" style="visibility: inherit;" fill="rgb(0, 0, 0)" stroke="rgb(204, 204, 204)" stroke-width="1px"></line><line x1="57.47083333333333" y1="0" x2="57.47083333333333" y2="5" style="visibility: inherit;" fill="rgb(0, 0, 0)" stroke="rgb(204, 204, 204)" stroke-width="1px"></line><line x1="114.94166666666666" y1="0" x2="114.94166666666666" y2="5" style="visibility: inherit;" fill="rgb(0, 0, 0)" stroke="rgb(204, 204, 204)" stroke-width="1px"></line><line x1="172.41250000000002" y1="0" x2="172.41250000000002" y2="5" style="visibility: inherit;" fill="rgb(0, 0, 0)" stroke="rgb(204, 204, 204)" stroke-width="1px"></line><line x1="229.88333333333333" y1="0" x2="229.88333333333333" y2="5" style="visibility: inherit;" fill="rgb(0, 0, 0)" stroke="rgb(204, 204, 204)" stroke-width="1px"></line><line x1="287.35416666666663" y1="0" x2="287.35416666666663" y2="5" style="visibility: inherit;" fill="rgb(0, 0, 0)" stroke="rgb(204, 204, 204)" stroke-width="1px"></line><line x1="344.82500000000005" y1="0" x2="344.82500000000005" y2="5" style="visibility: inherit;" fill="rgb(0, 0, 0)" stroke="rgb(204, 204, 204)" stroke-width="1px"></line><line x1="402.29583333333335" y1="0" x2="402.29583333333335" y2="5" style="visibility: inherit;" fill="rgb(0, 0, 0)" stroke="rgb(204, 204, 204)" stroke-width="1px"></line><line x1="459.76666666666665" y1="0" x2="459.76666666666665" y2="5" style="visibility: inherit;" fill="rgb(0, 0, 0)" stroke="rgb(204, 204, 204)" stroke-width="1px"></line><line x1="517.2375" y1="0" x2="517.2375" y2="5" style="visibility: inherit;" fill="rgb(0, 0, 0)" stroke="rgb(204, 204, 204)" stroke-width="1px"></line><line x1="574.7083333333333" y1="0" x2="574.7083333333333" y2="5" style="visibility: inherit;" fill="rgb(0, 0, 0)" stroke="rgb(204, 204, 204)" stroke-width="1px"></line><line x1="632.1791666666667" y1="0" x2="632.1791666666667" y2="5" style="visibility: inherit;" fill="rgb(0, 0, 0)" stroke="rgb(204, 204, 204)" stroke-width="1px"></line><line x1="689.6500000000001" y1="0" x2="689.6500000000001" y2="5" style="visibility: inherit;" fill="rgb(0, 0, 0)" stroke="rgb(204, 204, 204)" stroke-width="1px"></line><line x1="747.1208333333334" y1="0" x2="747.1208333333334" y2="5" style="visibility: inherit;" fill="rgb(0, 0, 0)" stroke="rgb(204, 204, 204)" stroke-width="1px"></line><line x1="804.5916666666667" y1="0" x2="804.5916666666667" y2="5" style="visibility: inherit;" fill="rgb(0, 0, 0)" stroke="rgb(204, 204, 204)" stroke-width="1px"></line><line x1="862.0625" y1="0" x2="862.0625" y2="5" style="visibility: inherit;" fill="rgb(0, 0, 0)" stroke="rgb(204, 204, 204)" stroke-width="1px"></line></g><g transform="translate(0, 8)"><text x="0" y="0" dx="0em" dy="0.95em" style="text-anchor: middle; visibility: hidden; font-family: Roboto, sans-serif; font-size: 12px; font-weight: 200;" fill="rgb(33, 33, 33)" stroke="none" stroke-width="1px">-20</text><text x="57.47083333333333" y="0" dx="0em" dy="0.95em" style="text-anchor: middle; visibility: inherit; font-family: Roboto, sans-serif; font-size: 12px; font-weight: 200;" fill="rgb(33, 33, 33)" stroke="none" stroke-width="1px">0</text><text x="114.94166666666666" y="0" dx="0em" dy="0.95em" style="text-anchor: middle; visibility: inherit; font-family: Roboto, sans-serif; font-size: 12px; font-weight: 200;" fill="rgb(33, 33, 33)" stroke="none" stroke-width="1px">20</text><text x="172.41250000000002" y="0" dx="0em" dy="0.95em" style="text-anchor: middle; visibility: inherit; font-family: Roboto, sans-serif; font-size: 12px; font-weight: 200;" fill="rgb(33, 33, 33)" stroke="none" stroke-width="1px">40</text><text x="229.88333333333333" y="0" dx="0em" dy="0.95em" style="text-anchor: middle; visibility: inherit; font-family: Roboto, sans-serif; font-size: 12px; font-weight: 200;" fill="rgb(33, 33, 33)" stroke="none" stroke-width="1px">60</text><text x="287.35416666666663" y="0" dx="0em" dy="0.95em" style="text-anchor: middle; visibility: inherit; font-family: Roboto, sans-serif; font-size: 12px; font-weight: 200;" fill="rgb(33, 33, 33)" stroke="none" stroke-width="1px">80</text><text x="344.82500000000005" y="0" dx="0em" dy="0.95em" style="text-anchor: middle; visibility: inherit; font-family: Roboto, sans-serif; font-size: 12px; font-weight: 200;" fill="rgb(33, 33, 33)" stroke="none" stroke-width="1px">100</text><text x="402.29583333333335" y="0" dx="0em" dy="0.95em" style="text-anchor: middle; visibility: inherit; font-family: Roboto, sans-serif; font-size: 12px; font-weight: 200;" fill="rgb(33, 33, 33)" stroke="none" stroke-width="1px">120</text><text x="459.76666666666665" y="0" dx="0em" dy="0.95em" style="text-anchor: middle; visibility: inherit; font-family: Roboto, sans-serif; font-size: 12px; font-weight: 200;" fill="rgb(33, 33, 33)" stroke="none" stroke-width="1px">140</text><text x="517.2375" y="0" dx="0em" dy="0.95em" style="text-anchor: middle; visibility: inherit; font-family: Roboto, sans-serif; font-size: 12px; font-weight: 200;" fill="rgb(33, 33, 33)" stroke="none" stroke-width="1px">160</text><text x="574.7083333333333" y="0" dx="0em" dy="0.95em" style="text-anchor: middle; visibility: inherit; font-family: Roboto, sans-serif; font-size: 12px; font-weight: 200;" fill="rgb(33, 33, 33)" stroke="none" stroke-width="1px">180</text><text x="632.1791666666667" y="0" dx="0em" dy="0.95em" style="text-anchor: middle; visibility: inherit; font-family: Roboto, sans-serif; font-size: 12px; font-weight: 200;" fill="rgb(33, 33, 33)" stroke="none" stroke-width="1px">200</text><text x="689.6500000000001" y="0" dx="0em" dy="0.95em" style="text-anchor: middle; visibility: inherit; font-family: Roboto, sans-serif; font-size: 12px; font-weight: 200;" fill="rgb(33, 33, 33)" stroke="none" stroke-width="1px">220</text><text x="747.1208333333334" y="0" dx="0em" dy="0.95em" style="text-anchor: middle; visibility: inherit; font-family: Roboto, sans-serif; font-size: 12px; font-weight: 200;" fill="rgb(33, 33, 33)" stroke="none" stroke-width="1px">240</text><text x="804.5916666666667" y="0" dx="0em" dy="0.95em" style="text-anchor: middle; visibility: inherit; font-family: Roboto, sans-serif; font-size: 12px; font-weight: 200;" fill="rgb(33, 33, 33)" stroke="none" stroke-width="1px">260</text><text x="862.0625" y="0" dx="0em" dy="0.95em" style="text-anchor: middle; visibility: hidden; font-family: Roboto, sans-serif; font-size: 12px; font-weight: 200;" fill="rgb(33, 33, 33)" stroke="none" stroke-width="1px">280</text></g><line x1="0" y1="0" x2="862.0625" y2="0" fill="rgb(0, 0, 0)" stroke="rgb(204, 204, 204)" stroke-width="1px"></line></g></g></g></g></svg>