<svg viewBox="0 0 330 200" xmlns="http://www.w3.org/2000/svg"><g><g><g><g><g><line x1="51.5625" y1="177" x2="46.5625" y2="177" style="visibility: inherit;" fill="rgb(0, 0, 0)" stroke="rgb(204, 204, 204)" stroke-width="1px"></line><line x1="51.5625" y1="157.33333333333331" x2="46.5625" y2="157.33333333333331" style="visibility: inherit;" fill="rgb(0, 0, 0)" stroke="rgb(204, 204, 204)" stroke-width="1px"></line><line x1="51.5625" y1="137.66666666666666" x2="46.5625" y2="137.66666666666666" style="visibility: inherit;" fill="rgb(0, 0, 0)" stroke="rgb(204, 204, 204)" stroke-width="1px"></line><line x1="51.5625" y1="117.99999999999997" x2="46.5625" y2="117.99999999999997" style="visibility: inherit;" fill="rgb(0, 0, 0)" stroke="rgb(204, 204, 204)" stroke-width="1px"></line><line x1="51.5625" y1="98.3333333333333" x2="46.5625" y2="98.3333333333333" style="visibility: inherit;" fill="rgb(0, 0, 0)" stroke="rgb(204, 204, 204)" stroke-width="1px"></line><line x1="51.5625" y1="78.66666666666673" x2="46.5625" y2="78.66666666666673" style="visibility: inherit;" fill="rgb(0, 0, 0)" stroke="rgb(204, 204, 204)" stroke-width="1px"></line><line x1="51.5625" y1="59.00000000000004" x2="46.5625" y2="59.00000000000004" style="visibility: inherit;" fill="rgb(0, 0, 0)" stroke="rgb(204, 204, 204)" stroke-width="1px"></line><line x1="51.5625" y1="39.33333333333335" x2="46.5625" y2="39.33333333333335" style="visibility: inherit;" fill="rgb(0, 0, 0)" stroke="rgb(204, 204, 204)" stroke-width="1px"></line><line x1="51.5625" y1="19.666666666666675" x2="46.5625" y2="19.666666666666675" style="visibility: inherit;" fill="rgb(0, 0, 0)" stroke="rgb(204, 204, 204)" stroke-width="1px"></line><line x1="51.5625" y1="0" x2="46.5625" y2="0" style="visibility: inherit;" fill="rgb(0, 0, 0)" stroke="rgb(204, 204, 204)" stroke-width="1px"></line></g><g transform="translate(41.5625, 0)"><text x="0" y="177" dx="0em" dy="0.3em" style="text-anchor: end; visibility: hidden; font-family: Roboto, sans-serif; font-size: 12px; font-weight: 200;" fill="rgb(33, 33, 33)" stroke="none" stroke-width="1px">0.6</text><text x="0" y="157.33333333333331" dx="0em" dy="0.3em" style="text-anchor: end; visibility: inherit; font-family: Roboto, sans-serif; font-size: 12px; font-weight: 200;" fill="rgb(33, 33, 33)" stroke="none" stroke-width="1px">0.62</text><text x="0" y="137.66666666666666" dx="0em" dy="0.3em" style="text-anchor: end; visibility: hidden; font-family: Roboto, sans-serif; font-size: 12px; font-weight: 200;" fill="rgb(33, 33, 33)" stroke="none" stroke-width="1px">0.64</text><text x="0" y="117.99999999999997" dx="0em" dy="0.3em" style="text-anchor: end; visibility: inherit; font-family: Roboto, sans-serif; font-size: 12px; font-weight: 200;" fill="rgb(33, 33, 33)" stroke="none" stroke-width="1px">0.66</text><text x="0" y="98.3333333333333" dx="0em" dy="0.3em" style="text-anchor: end; visibility: hidden; font-family: Roboto, sans-serif; font-size: 12px; font-weight: 200;" fill="rgb(33, 33, 33)" stroke="none" stroke-width="1px">0.68</text><text x="0" y="78.66666666666673" dx="0em" dy="0.3em" style="text-anchor: end; visibility: inherit; font-family: Roboto, sans-serif; font-size: 12px; font-weight: 200;" fill="rgb(33, 33, 33)" stroke="none" stroke-width="1px">0.7</text><text x="0" y="59.00000000000004" dx="0em" dy="0.3em" style="text-anchor: end; visibility: hidden; font-family: Roboto, sans-serif; font-size: 12px; font-weight: 200;" fill="rgb(33, 33, 33)" stroke="none" stroke-width="1px">0.72</text><text x="0" y="39.33333333333335" dx="0em" dy="0.3em" style="text-anchor: end; visibility: inherit; font-family: Roboto, sans-serif; font-size: 12px; font-weight: 200;" fill="rgb(33, 33, 33)" stroke="none" stroke-width="1px">0.74</text><text x="0" y="19.666666666666675" dx="0em" dy="0.3em" style="text-anchor: end; visibility: hidden; font-family: Roboto, sans-serif; font-size: 12px; font-weight: 200;" fill="rgb(33, 33, 33)" stroke="none" stroke-width="1px">0.76</text><text x="0" y="0" dx="0em" dy="0.3em" style="text-anchor: end; visibility: hidden; font-family: Roboto, sans-serif; font-size: 12px; font-weight: 200;" fill="rgb(33, 33, 33)" stroke="none" stroke-width="1px">0.78</text></g><line x1="51.5625" y1="0" x2="51.5625" y2="177" fill="rgb(0, 0, 0)" stroke="rgb(204, 204, 204)" stroke-width="1px"></line></g></g><g transform="translate(51, 0)" clip-path="url(#clip_0)"><clipPath id="clip_0"><rect width="278" height="177"></rect></clipPath><g><g><g><line x1="0" y1="0" x2="0" y2="177" fill="rgb(0, 0, 0)" stroke="rgb(66, 66, 66)" stroke-width="1px" opacity="0.25"></line><line x1="18.5625" y1="0" x2="18.5625" y2="177" fill="rgb(0, 0, 0)" stroke="rgb(66, 66, 66)" stroke-width="1px" opacity="0.25"></line><line x1="37.125" y1="0" x2="37.125" y2="177" fill="rgb(0, 0, 0)" stroke="rgb(66, 66, 66)" stroke-width="1px" opacity="0.25"></line><line x1="55.6875" y1="0" x2="55.6875" y2="177" fill="rgb(0, 0, 0)" stroke="rgb(66, 66, 66)" stroke-width="1px" opacity="0.25"></line><line x1="74.25" y1="0" x2="74.25" y2="177" fill="rgb(0, 0, 0)" stroke="rgb(66, 66, 66)" stroke-width="1px" opacity="0.25"></line><line x1="92.8125" y1="0" x2="92.8125" y2="177" fill="rgb(0, 0, 0)" stroke="rgb(66, 66, 66)" stroke-width="1px" opacity="0.25"></line><line x1="111.375" y1="0" x2="111.375" y2="177" fill="rgb(0, 0, 0)" stroke="rgb(66, 66, 66)" stroke-width="1px" opacity="0.25"></line><line x1="129.9375" y1="0" x2="129.9375" y2="177" fill="rgb(0, 0, 0)" stroke="rgb(66, 66, 66)" stroke-width="1px" opacity="0.25"></line><line x1="148.5" y1="0" x2="148.5" y2="177" fill="rgb(0, 0, 0)" stroke="rgb(66, 66, 66)" stroke-width="1px" opacity="0.25"></line><line x1="167.0625" y1="0" x2="167.0625" y2="177" fill="rgb(0, 0, 0)" stroke="rgb(66, 66, 66)" stroke-width="1px" opacity="0.25"></line><line x1="185.625" y1="0" x2="185.625" y2="177" fill="rgb(0, 0, 0)" stroke="rgb(66, 66, 66)" stroke-width="1px" opacity="0.25"></line><line x1="204.18749999999997" y1="0" x2="204.18749999999997" y2="177" fill="rgb(0, 0, 0)" stroke="rgb(66, 66, 66)" stroke-width="1px" opacity="0.25"></line><line x1="222.75" y1="0" x2="222.75" y2="177" fill="rgb(0, 0, 0)" stroke="rgb(66, 66, 66)" stroke-width="1px" opacity="0.25"></line><line x1="241.3125" y1="0" x2="241.3125" y2="177" fill="rgb(0, 0, 0)" stroke="rgb(66, 66, 66)" stroke-width="1px" opacity="0.25"></line><line x1="259.875" y1="0" x2="259.875" y2="177" fill="rgb(0, 0, 0)" stroke="rgb(66, 66, 66)" stroke-width="1px" opacity="0.25"></line><line x1="278.4375" y1="0" x2="278.4375" y2="177" fill="rgb(0, 0, 0)" stroke="rgb(66, 66, 66)" stroke-width="1px" opacity="0.25"></line></g><g><line x1="0" y1="177" x2="278.4375" y2="177" fill="rgb(0, 0, 0)" stroke="rgb(66, 66, 66)" stroke-width="1px" opacity="0.25"></line><line x1="0" y1="157.33333333333331" x2="278.4375" y2="157.33333333333331" fill="rgb(0, 0, 0)" stroke="rgb(66, 66, 66)" stroke-width="1px" opacity="0.25"></line><line x1="0" y1="137.66666666666666" x2="278.4375" y2="137.66666666666666" fill="rgb(0, 0, 0)" stroke="rgb(66, 66, 66)" stroke-width="1px" opacity="0.25"></line><line x1="0" y1="117.99999999999997" x2="278.4375" y2="117.99999999999997" fill="rgb(0, 0, 0)" stroke="rgb(66, 66, 66)" stroke-width="1px" opacity="0.25"></line><line x1="0" y1="98.3333333333333" x2="278.4375" y2="98.3333333333333" fill="rgb(0, 0, 0)" stroke="rgb(66, 66, 66)" stroke-width="1px" opacity="0.25"></line><line x1="0" y1="78.66666666666673" x2="278.4375" y2="78.66666666666673" fill="rgb(0, 0, 0)" stroke="rgb(66, 66, 66)" stroke-width="1px" opacity="0.25"></line><line x1="0" y1="59.00000000000004" x2="278.4375" y2="59.00000000000004" fill="rgb(0, 0, 0)" stroke="rgb(66, 66, 66)" stroke-width="1px" opacity="0.25"></line><line x1="0" y1="39.33333333333335" x2="278.4375" y2="39.33333333333335" fill="rgb(0, 0, 0)" stroke="rgb(66, 66, 66)" stroke-width="1px" opacity="0.25"></line><line x1="0" y1="19.666666666666675" x2="278.4375" y2="19.666666666666675" fill="rgb(0, 0, 0)" stroke="rgb(66, 66, 66)" stroke-width="1px" opacity="0.25"></line><line x1="0" y1="0" x2="278.4375" y2="0" fill="rgb(0, 0, 0)" stroke="rgb(66, 66, 66)" stroke-width="1px" opacity="0.25"></line></g></g></g><g><g><line x1="0" y1="766.9999999999998" x2="278.4375" y2="766.9999999999998" fill="rgb(0, 0, 0)" stroke="rgb(153, 153, 153)" stroke-width="1.5px"></line></g></g><g><g><line x1="18.5625" y1="0" x2="18.5625" y2="177" fill="rgb(0, 0, 0)" stroke="rgb(153, 153, 153)" stroke-width="1.5px"></line></g></g><g><g><g><g><g><path stroke="rgb(255, 112, 67)" stroke-width="2px" d="M32.484375,216.12730644597988L33.4125,162.29773017263165L34.340625,124.58666917889542L35.268750000000004,101.88814946574121L36.196875,88.97956900668574L37.125,81.66795431536484L38.053124999999994,77.39929455281185L38.98125,74.8381985816085L39.909375000000004,71.92487472648732L40.8375,68.99691082809574L41.765625,67.24014728786109L42.693749999999994,66.26475099092303L43.621875,65.67951498753436L44.550000000000004,65.21037776730194L45.478125,64.88955585802468L46.40625,64.69706283854781L47.334375,64.6602468102088L48.2625,64.44148131541816L49.190625,64.23156575478826L50.11875,63.9875968426257L51.04687499999999,63.80189908587106L51.975,63.690480435223265L52.903125,63.5842893853744L53.83125,62.57658221505069L54.759375,62.01127433278052L55.6875,61.67208960476182L56.615625,61.389922492262L57.54375,61.299278501133735L58.471875,60.49757542777855L59.400000000000006,60.409881853448596L60.328125,60.435921984947704L61.25625,60.45154606384417L62.184374999999996,60.342924374826275L63.1125,60.31709122170159L64.040625,60.26225146954622L64.96875,60.19000775797283L65.896875,60.18600139131011L66.825,60.49826956456973L67.753125,60.64629060824394L68.68125,61.16777136405207L69.609375,60.615323558329365L70.53750000000001,59.969182881640265L71.465625,59.62083833590732L72.39375,60.749175857557596L73.32187499999999,59.931498124830064L74.25,59.4015750694069L75.17812500000001,59.16227751222013L76.10624999999999,59.05803883818847L77.034375,59.19214804618405L77.9625,59.2726135709814L78.890625,59.32089288585969L79.81875000000001,58.83853606911659L80.74687499999999,57.05446517784684L81.675,55.748006925896625L82.603125,54.846135838378984L83.53125,52.8496728004314L84.45937500000001,52.51713123686888L85.38749999999999,51.80628189306127L86.315625,52.795772811933325L87.24375,53.389467363256536L88.171875,52.05435143591867L89.10000000000001,52.747938680739665L90.02812499999999,53.08543475156511L90.95625,53.40592853040789L91.884375,53.59822479771352L92.8125,53.47761028540198L93.740625,52.815237451784114L94.66875,52.378473891333165L95.596875,50.42508309693069L96.525,49.174392344222014L97.453125,48.38463803231659L98.38125,47.87144558489298L99.309375,47.170201847116054L100.2375,46.63145946810241L101.165625,46.30821404069422L102.09374999999999,46.11426678424937L103.021875,45.95855857010199L103.95,46.96646217351466L104.878125,46.587871940008654L105.80625,45.29872912828437L106.73437500000001,44.5252434412498L107.6625,44.06115202902912L108.590625,43.38936891237396L109.51875,42.98629904238077L110.446875,42.23310927022115L111.375,41.663199270577984L112.303125,41.32125327079208L113.23125,41.116085670920434L114.159375,40.9143288349304L115.0875,41.61927113226219L116.015625,42.042236510661255L116.94375,42.21733601713997L117.871875,42.519071577935385L118.80000000000001,42.660773054132285L119.72812499999999,42.863790076197844L120.65625,43.81159668836296L121.584375,43.39694826010839L122.5125,42.95150679074113L123.44062500000001,42.487566052212635L124.36874999999999,42.327197745443L125.296875,42.23097676138121L126.225,42.015908174316266L127.153125,41.69021460966286L128.08125,41.37680233452335L129.009375,41.11007524887898L129.9375,40.98937885777254L130.865625,41.428285428778935L131.79375,41.61297309531567L132.721875,41.920461552145866L133.65,42.14427104203075L134.578125,42.239240320174915L135.50625,42.296221887061485L136.434375,41.85840283730998L137.3625,41.55637154717865L138.290625,41.3358129128195L139.21875,41.12482145613692L140.146875,40.84089058549951L141.07500000000002,40.11986779716665L142.003125,39.49057826725872L142.93125,39.03434827324688L143.85937500000003,38.406598423303834L144.7875,38.06928837361825L145.715625,37.827562483526584L146.64374999999998,37.40719481649641L147.571875,36.17164182072464L148.5,35.39099360747485L149.428125,34.96192109531167L150.35625000000002,34.822497168854994L151.284375,35.17148749809026L152.21249999999998,32.39156809318403L153.140625,30.01561618766192L154.06875,27.882044781770396L154.996875,26.641218354022165L155.925,25.700070084958636L156.853125,25.1746975393073L157.78125,24.702161459782268L158.709375,24.418639812067237L159.63750000000002,24.2485268234383L160.565625,24.06777930970028L161.49374999999998,23.369326675226535L162.421875,22.792919097914478L163.35,22.447074551527123L164.278125,21.64958714195746L165.20625,21.05307511537465L166.134375,20.537855347290726L167.0625,19.87471163290447L167.99062500000002,19.47682540427269L168.91875000000002,19.238093667093697L169.84687499999998,19.055514764505904L170.77499999999998,19.024647143513942L171.703125,18.96678671063835L172.63125,19.64007071349138L173.559375,20.00470125492287L174.4875,20.18416316399498L175.415625,20.252500449157942L176.34375,20.29350282025575L177.27187500000002,20.278764382634087L178.20000000000002,20.26992132006102L179.12812499999998,20.18595920645016L180.05624999999998,20.135581938283508L180.984375,20.026675856822905L181.9125,19.843336071598948L182.840625,19.693992340184355L183.76875,19.25039769229321L184.696875,18.9842409035585L185.625,20.515879488449606L186.55312500000002,21.395522779103946L187.48125,21.923308753496524L188.40937499999998,22.043327925717538L189.3375,22.193995705117214L190.265625,22.245056512476697L191.19375,22.236376581105706L192.121875,22.191828762002686L193.05,22.16510007054091L193.978125,22.149062855663843L194.90625,22.33609293915212L195.83437500000002,22.76298298250065L196.7625,22.97980059272314L197.69062499999998,22.99187157801553L198.61875,21.97646535785057L199.546875,21.013209772215617L200.475,20.395916560554355L201.40312500000002,19.98622421777072L202.33125,19.81906508816778L203.259375,19.718769610406017L204.18749999999997,19.619252463468513L205.115625,19.480885899238952L206.04375,19.397865960701303L206.97187499999998,19.348053997578646L207.9,19.278826959424666L208.828125,19.23729073653229L209.75625,18.032384194828644L210.68437500000002,17.584772402781788L211.6125,17.86686959350421L212.540625,18.036127907937644L213.46875000000003,18.019686760250323L214.396875,18.167134623772156L215.325,18.21628692609848L216.25312499999998,18.285094723280952L217.18125,18.287062985803754L218.109375,17.61956009652576L219.0375,17.140402086891807L219.96562500000002,16.734911144764034L220.89375,17.04228084543786L221.82187499999998,17.0693666692145L222.75,15.86629349523189L223.678125,14.987113594214529L224.60625,14.6169416502319L225.534375,14.198162626934188L226.4625,13.47488722307222L227.390625,13.473590110358046L228.31875,12.882831160992325L229.24687500000002,12.52837579137286L230.175,12.315702569601122L231.10312499999998,12.070079055697091L232.03125,11.883388531567796L232.959375,11.732034356809951L233.8875,11.68056171223557L234.815625,11.610338265210679L235.74375,11.450208060648315L236.671875,11.354129937910887L237.60000000000002,11.257143203987972L238.52812500000002,11.198951163634222L239.45624999999998,11.0066999427941L240.38437499999998,10.655356937595306L241.3125,10.444551134475931L242.240625,10.278727792323977L243.16875,10.179233787032803L244.096875,10.080197523577734L245.025,10.020775765504712L245.953125,9.945806294874087L246.88125000000002,9.900824612495779L247.80937500000002,9.834495742788347L248.73749999999998,9.794698420963993L249.66562499999998,9.8494763039364L250.59375,9.68569062130531L251.521875,9.548079351446297L252.45,8.875508463300035L253.378125,8.39330965434521L254.30625,8.103990368972292L255.234375,7.930398797748532L256.1625,7.82624385501434L257.090625,7.645754753026302L258.01875,7.340785434925389L258.94687500000003,7.11846398378448L259.875,6.945754697313178L260.803125,6.8027892651500155L261.73125,6.717010005852169L262.659375,6.626202589993008L263.5875,6.257046147221915L264.515625,6.035552281559303L265.44375,6.453320228112202" style="fill: none;" fill="none"></path></g></g></g></g><g opacity="0.2"><g><g><g><path stroke="rgb(255, 112, 67)" stroke-width="2px" d="M30.628125,248.58668279647821L31.55625,144.84497439861298L32.484375,101.87332761287688L33.4125,81.61664040883382L34.340625,68.04667445023857L35.268750000000004,67.84997514883678L36.196875,69.61997580528259L37.125,70.70164612929027L38.053124999999994,70.99669508139294L38.98125,70.99669508139294L39.909375000000004,67.55498480796815L40.8375,64.60502278804779L41.765625,64.60502278804779L42.693749999999994,64.80166347821554L43.621875,64.80166347821554L44.550000000000004,64.50667313734691L45.478125,64.40832348664603L46.40625,64.40832348664603L47.334375,64.60502278804779L48.2625,64.1133331457774L49.190625,63.91669245560964L50.11875,63.62164350350699L51.04687499999999,63.52335246404014L51.975,63.52335246404014L52.903125,63.42500281333923L53.83125,61.06502147515615L54.759375,61.16331251462302L55.6875,61.16331251462302L56.615625,60.96667182445527L57.54375,61.16331251462302L58.471875,59.295020818710334L59.400000000000006,60.27834149201712L60.328125,60.47498218218486L61.25625,60.47498218218486L62.184374999999996,60.17999184131624L63.1125,60.27834149201712L64.040625,60.17999184131624L64.96875,60.08164219061535L65.896875,60.17999184131624L66.825,60.96667182445527L67.753125,60.868322173754386L68.68125,61.949992497762054L69.609375,59.78665184974671L70.53750000000001,58.99997186660768L71.465625,59.09832151730856L72.39375,62.44168214003246L73.32187499999999,58.704981525739036L74.25,58.606690486272186L75.17812500000001,58.803331176439926L76.10624999999999,58.90168082714083L77.034375,59.393311858177206L77.9625,59.393311858177206L78.890625,59.393311858177206L79.81875000000001,58.11500084400178L80.74687499999999,54.378358840942404L81.675,53.788319547971106L82.603125,53.49332920710247L83.53125,49.85497824350994L84.45937500000001,52.01831889152529L85.38749999999999,50.74000787734986L86.315625,54.2800091902415L87.24375,54.2800091902415L88.171875,50.05167754491171L89.10000000000001,53.788319547971106L90.02812499999999,53.59167885780335L90.95625,53.88666919867199L91.884375,53.88666919867199L92.8125,53.29668851693473L93.740625,51.821678201357535L94.66875,51.723328550656646L95.596875,47.494996905326865L96.525,47.29835621515911L97.453125,47.20000656445822L98.38125,47.10165691375734L99.309375,46.11833624045055L100.2375,45.82334589958193L101.165625,45.82334589958193L102.09374999999999,45.82334589958193L103.021875,45.72499624888104L103.95,48.47831757863363L104.878125,46.019986589749664L105.80625,43.365014910697944L106.73437500000001,43.365014910697944L107.6625,43.365014910697944L108.590625,42.38169423739117L109.51875,42.38169423739117L110.446875,41.10332461198173L111.375,40.80833427111309L112.303125,40.80833427111309L113.23125,40.80833427111309L114.159375,40.61169358094536L115.0875,42.676684578259795L116.015625,42.676684578259795L116.94375,42.479985276858024L117.871875,42.97167491912844L118.80000000000001,42.87332526842755L119.72812499999999,43.16831560929617L120.65625,45.23330660661063L121.584375,42.77497561772667L122.5125,42.28334458669029L123.44062500000001,41.79165494441988L124.36874999999999,42.086645285288505L125.296875,42.086645285288505L126.225,41.69330529371899L127.153125,41.201674262682616L128.08125,40.90668392181398L129.009375,40.70998462041221L129.9375,40.80833427111309L130.865625,42.086645285288505L131.79375,41.890004595120764L132.721875,42.38169423739117L133.65,42.479985276858024L134.578125,42.38169423739117L135.50625,42.38169423739117L136.434375,41.201674262682616L137.3625,41.10332461198173L138.290625,41.00497496128083L139.21875,40.80833427111309L140.146875,40.41499427954357L141.07500000000002,39.03833361466727L142.003125,38.546643972396865L142.93125,38.350003282229125L143.85937500000003,37.46497364838919L144.7875,37.56332329909008L145.715625,37.46497364838919L146.64374999999998,36.77664331595104L147.571875,34.318312327067076L148.5,34.22002128760021L149.428125,34.318312327067076L150.35625000000002,34.61336127916973L151.284375,35.694972991943374L152.21249999999998,28.221688985824606L153.140625,26.451688329378786L154.06875,24.681687672932966L154.996875,24.779978712399817L155.925,24.28834768136344L156.853125,24.38663872083029L157.78125,23.99335734049482L158.709375,23.99335734049482L159.63750000000002,23.99335734049482L160.565625,23.796658039093032L161.49374999999998,22.321647723515852L162.421875,21.928307731946326L163.35,21.928307731946326L164.278125,20.453356027603164L165.20625,20.15830707550051L166.134375,19.765025695165015L167.0625,18.879996061325098L167.99062500000002,18.879996061325098L168.91875000000002,18.879996061325098L169.84687499999998,18.781646410624216L170.77499999999998,18.978345712025984L171.703125,18.879996061325098L172.63125,20.649996717770918L173.559375,20.551647067070032L174.4875,20.453356027603164L175.415625,20.355006376902278L176.34375,20.355006376902278L177.27187500000002,20.256656726201392L178.20000000000002,20.256656726201392L179.12812499999998,20.060016036033655L180.05624999999998,20.060016036033655L180.984375,19.863316734631887L181.9125,19.568326393763247L182.840625,19.46997674306236L183.76875,18.585005720456458L184.696875,18.585005720456458L185.625,22.813337365786264L186.55312500000002,22.714987715085357L187.48125,22.714987715085357L188.40937499999998,22.22335668404898L189.3375,22.419997374216738L190.265625,22.321647723515852L191.19375,22.22335668404898L192.121875,22.125007033348098L193.05,22.125007033348098L193.978125,22.125007033348098L194.90625,22.616638064384475L195.83437500000002,23.403318047523523L196.7625,23.305027008056655L197.69062499999998,23.009978055954L198.61875,20.453356027603164L199.546875,19.568326393763247L200.475,19.46997674306236L201.40312500000002,19.37168570359551L202.33125,19.568326393763247L203.259375,19.568326393763247L204.18749999999997,19.46997674306236L205.115625,19.273336052894606L206.04375,19.273336052894606L206.97187499999998,19.273336052894606L207.9,19.17498640219372L208.828125,19.17498640219372L209.75625,16.22502438227338L210.68437500000002,16.913354714711524L211.6125,18.29001537958784L212.540625,18.29001537958784L213.46875000000003,17.9950250387192L214.396875,18.38830641905469L215.325,18.29001537958784L216.25312499999998,18.38830641905469L217.18125,18.29001537958784L218.109375,16.61830576260887L219.0375,16.421665072441115L219.96562500000002,16.126674731572493L220.89375,17.503335396448787L221.82187499999998,17.10999540487928L222.75,14.061683734258033L223.678125,13.668343742688528L224.60625,14.061683734258033L225.534375,13.569994091987622L226.4625,12.389974117279065L227.390625,13.471644441286738L228.31875,11.996692736943594L229.24687500000002,11.996692736943594L230.175,11.996692736943594L231.10312499999998,11.701643784840918L232.03125,11.603352745374067L232.959375,11.505003094673183L233.8875,11.603352745374067L234.815625,11.505003094673183L235.74375,11.210012753804541L236.671875,11.210012753804541L237.60000000000002,11.111663103103657L238.52812500000002,11.111663103103657L239.45624999999998,10.71832311153415L240.38437499999998,10.12834242979687L241.3125,10.12834242979687L242.240625,10.029992779095984L243.16875,10.029992779095984L244.096875,9.9316431283951L245.025,9.9316431283951L245.953125,9.83335208892825L246.88125000000002,9.83335208892825L247.80937500000002,9.735002438227363L248.73749999999998,9.735002438227363L249.66562499999998,9.9316431283951L250.59375,9.440012097358723L251.521875,9.341662446657839L252.45,7.86665213108066L253.378125,7.670011440912904L254.30625,7.670011440912904L255.234375,7.670011440912904L256.1625,7.670011440912904L257.090625,7.375021100044283L258.01875,6.883331457773873L258.94687500000003,6.784981807072988L259.875,6.686690767606117L260.803125,6.588341116905232L261.73125,6.588341116905232L262.659375,6.489991466204347L263.5875,5.703311483065316L264.515625,5.703311483065316L265.44375,7.079972147941609" style="fill: none;" fill="none"></path></g></g></g></g></g></g><g transform="translate(51, 177)" clip-path="url(#clip_1)"><clipPath id="clip_1"><rect width="278" height="23"></rect></clipPath><g><g><line x1="0" y1="0" x2="0" y2="5" style="visibility: inherit;" fill="rgb(0, 0, 0)" stroke="rgb(204, 204, 204)" stroke-width="1px"></line><line x1="18.5625" y1="0" x2="18.5625" y2="5" style="visibility: inherit;" fill="rgb(0, 0, 0)" stroke="rgb(204, 204, 204)" stroke-width="1px"></line><line x1="37.125" y1="0" x2="37.125" y2="5" style="visibility: inherit;" fill="rgb(0, 0, 0)" stroke="rgb(204, 204, 204)" stroke-width="1px"></line><line x1="55.6875" y1="0" x2="55.6875" y2="5" style="visibility: inherit;" fill="rgb(0, 0, 0)" stroke="rgb(204, 204, 204)" stroke-width="1px"></line><line x1="74.25" y1="0" x2="74.25" y2="5" style="visibility: inherit;" fill="rgb(0, 0, 0)" stroke="rgb(204, 204, 204)" stroke-width="1px"></line><line x1="92.8125" y1="0" x2="92.8125" y2="5" style="visibility: inherit;" fill="rgb(0, 0, 0)" stroke="rgb(204, 204, 204)" stroke-width="1px"></line><line x1="111.375" y1="0" x2="111.375" y2="5" style="visibility: inherit;" fill="rgb(0, 0, 0)" stroke="rgb(204, 204, 204)" stroke-width="1px"></line><line x1="129.9375" y1="0" x2="129.9375" y2="5" style="visibility: inherit;" fill="rgb(0, 0, 0)" stroke="rgb(204, 204, 204)" stroke-width="1px"></line><line x1="148.5" y1="0" x2="148.5" y2="5" style="visibility: inherit;" fill="rgb(0, 0, 0)" stroke="rgb(204, 204, 204)" stroke-width="1px"></line><line x1="167.0625" y1="0" x2="167.0625" y2="5" style="visibility: inherit;" fill="rgb(0, 0, 0)" stroke="rgb(204, 204, 204)" stroke-width="1px"></line><line x1="185.625" y1="0" x2="185.625" y2="5" style="visibility: inherit;" fill="rgb(0, 0, 0)" stroke="rgb(204, 204, 204)" stroke-width="1px"></line><line x1="204.18749999999997" y1="0" x2="204.18749999999997" y2="5" style="visibility: inherit;" fill="rgb(0, 0, 0)" stroke="rgb(204, 204, 204)" stroke-width="1px"></line><line x1="222.75" y1="0" x2="222.75" y2="5" style="visibility: inherit;" fill="rgb(0, 0, 0)" stroke="rgb(204, 204, 204)" stroke-width="1px"></line><line x1="241.3125" y1="0" x2="241.3125" y2="5" style="visibility: inherit;" fill="rgb(0, 0, 0)" stroke="rgb(204, 204, 204)" stroke-width="1px"></line><line x1="259.875" y1="0" x2="259.875" y2="5" style="visibility: inherit;" fill="rgb(0, 0, 0)" stroke="rgb(204, 204, 204)" stroke-width="1px"></line><line x1="278.4375" y1="0" x2="278.4375" y2="5" style="visibility: inherit;" fill="rgb(0, 0, 0)" stroke="rgb(204, 204, 204)" stroke-width="1px"></line></g><g transform="translate(0, 8)"><text x="0" y="0" dx="0em" dy="0.95em" style="text-anchor: middle; visibility: hidden; font-family: Roboto, sans-serif; font-size: 12px; font-weight: 200;" fill="rgb(33, 33, 33)" stroke="none" stroke-width="1px">-20</text><text x="18.5625" y="0" dx="0em" dy="0.95em" style="text-anchor: middle; visibility: inherit; font-family: Roboto, sans-serif; font-size: 12px; font-weight: 200;" fill="rgb(33, 33, 33)" stroke="none" stroke-width="1px">0</text><text x="37.125" y="0" dx="0em" dy="0.95em" style="text-anchor: middle; visibility: hidden; font-family: Roboto, sans-serif; font-size: 12px; font-weight: 200;" fill="rgb(33, 33, 33)" stroke="none" stroke-width="1px">20</text><text x="55.6875" y="0" dx="0em" dy="0.95em" style="text-anchor: middle; visibility: inherit; font-family: Roboto, sans-serif; font-size: 12px; font-weight: 200;" fill="rgb(33, 33, 33)" stroke="none" stroke-width="1px">40</text><text x="74.25" y="0" dx="0em" dy="0.95em" style="text-anchor: middle; visibility: hidden; font-family: Roboto, sans-serif; font-size: 12px; font-weight: 200;" fill="rgb(33, 33, 33)" stroke="none" stroke-width="1px">60</text><text x="92.8125" y="0" dx="0em" dy="0.95em" style="text-anchor: middle; visibility: inherit; font-family: Roboto, sans-serif; font-size: 12px; font-weight: 200;" fill="rgb(33, 33, 33)" stroke="none" stroke-width="1px">80</text><text x="111.375" y="0" dx="0em" dy="0.95em" style="text-anchor: middle; visibility: hidden; font-family: Roboto, sans-serif; font-size: 12px; font-weight: 200;" fill="rgb(33, 33, 33)" stroke="none" stroke-width="1px">100</text><text x="129.9375" y="0" dx="0em" dy="0.95em" style="text-anchor: middle; visibility: inherit; font-family: Roboto, sans-serif; font-size: 12px; font-weight: 200;" fill="rgb(33, 33, 33)" stroke="none" stroke-width="1px">120</text><text x="148.5" y="0" dx="0em" dy="0.95em" style="text-anchor: middle; visibility: hidden; font-family: Roboto, sans-serif; font-size: 12px; font-weight: 200;" fill="rgb(33, 33, 33)" stroke="none" stroke-width="1px">140</text><text x="167.0625" y="0" dx="0em" dy="0.95em" style="text-anchor: middle; visibility: inherit; font-family: Roboto, sans-serif; font-size: 12px; font-weight: 200;" fill="rgb(33, 33, 33)" stroke="none" stroke-width="1px">160</text><text x="185.625" y="0" dx="0em" dy="0.95em" style="text-anchor: middle; visibility: hidden; font-family: Roboto, sans-serif; font-size: 12px; font-weight: 200;" fill="rgb(33, 33, 33)" stroke="none" stroke-width="1px">180</text><text x="204.18749999999997" y="0" dx="0em" dy="0.95em" style="text-anchor: middle; visibility: inherit; font-family: Roboto, sans-serif; font-size: 12px; font-weight: 200;" fill="rgb(33, 33, 33)" stroke="none" stroke-width="1px">200</text><text x="222.75" y="0" dx="0em" dy="0.95em" style="text-anchor: middle; visibility: hidden; font-family: Roboto, sans-serif; font-size: 12px; font-weight: 200;" fill="rgb(33, 33, 33)" stroke="none" stroke-width="1px">220</text><text x="241.3125" y="0" dx="0em" dy="0.95em" style="text-anchor: middle; visibility: inherit; font-family: Roboto, sans-serif; font-size: 12px; font-weight: 200;" fill="rgb(33, 33, 33)" stroke="none" stroke-width="1px">240</text><text x="259.875" y="0" dx="0em" dy="0.95em" style="text-anchor: middle; visibility: hidden; font-family: Roboto, sans-serif; font-size: 12px; font-weight: 200;" fill="rgb(33, 33, 33)" stroke="none" stroke-width="1px">260</text><text x="278.4375" y="0" dx="0em" dy="0.95em" style="text-anchor: middle; visibility: hidden; font-family: Roboto, sans-serif; font-size: 12px; font-weight: 200;" fill="rgb(33, 33, 33)" stroke="none" stroke-width="1px">280</text></g><line x1="0" y1="0" x2="278.4375" y2="0" fill="rgb(0, 0, 0)" stroke="rgb(204, 204, 204)" stroke-width="1px"></line></g></g></g></g></svg>