<svg viewBox="0 0 915.25 400" xmlns="http://www.w3.org/2000/svg"><g><g><g><g><line x1="10" y1="0" x2="10" y2="377" fill="rgb(0, 0, 0)" stroke="rgb(204, 204, 204)" stroke-width="1px"></line></g></g><g transform="translate(10, 0)" clip-path="url(#clip_0)"><clipPath id="clip_0"><rect width="905" height="377"></rect></clipPath><g><g><g><line x1="0" y1="0" x2="0" y2="377" fill="rgb(0, 0, 0)" stroke="rgb(66, 66, 66)" stroke-width="1px" opacity="0.25"></line><line x1="113.15625" y1="0" x2="113.15625" y2="377" fill="rgb(0, 0, 0)" stroke="rgb(66, 66, 66)" stroke-width="1px" opacity="0.25"></line><line x1="226.3125" y1="0" x2="226.3125" y2="377" fill="rgb(0, 0, 0)" stroke="rgb(66, 66, 66)" stroke-width="1px" opacity="0.25"></line><line x1="339.46875" y1="0" x2="339.46875" y2="377" fill="rgb(0, 0, 0)" stroke="rgb(66, 66, 66)" stroke-width="1px" opacity="0.25"></line><line x1="452.625" y1="0" x2="452.625" y2="377" fill="rgb(0, 0, 0)" stroke="rgb(66, 66, 66)" stroke-width="1px" opacity="0.25"></line><line x1="565.78125" y1="0" x2="565.78125" y2="377" fill="rgb(0, 0, 0)" stroke="rgb(66, 66, 66)" stroke-width="1px" opacity="0.25"></line><line x1="678.9375" y1="0" x2="678.9375" y2="377" fill="rgb(0, 0, 0)" stroke="rgb(66, 66, 66)" stroke-width="1px" opacity="0.25"></line><line x1="792.09375" y1="0" x2="792.09375" y2="377" fill="rgb(0, 0, 0)" stroke="rgb(66, 66, 66)" stroke-width="1px" opacity="0.25"></line><line x1="905.25" y1="0" x2="905.25" y2="377" fill="rgb(0, 0, 0)" stroke="rgb(66, 66, 66)" stroke-width="1px" opacity="0.25"></line></g></g></g><g><g><line x1="113.15625" y1="0" x2="113.15625" y2="377" fill="rgb(0, 0, 0)" stroke="rgb(153, 153, 153)" stroke-width="1.5px"></line></g></g><g><g><g><g><g><path stroke="rgb(255, 112, 67)" stroke-width="2px" d="M114.2878125,273.3316660506729L115.419375,149.87612548828238L116.5509375,212.82501913195176L117.11671874999999,172.53560430721276L118.24828124999999,205.52456892847488L119.37984374999999,151.11713777052614L119.945625,140.44897458047927L120.51140625,124.2201675765081L121.07718750000001,124.6150134677938L121.64296875,124.84936035802332L122.20875000000001,174.5038508241491L122.77453125,174.51935014441423L123.34031250000001,204.18828936879822L123.90609375,241.7399746677198L124.47187500000001,195.06792293706735L125.03765625,78.33215165602584L125.60343750000001,106.94707327190433L126.16921875,114.24711083496621L126.73500000000001,118.62717766280876L127.30078125,140.9865208983156L127.86656249999999,144.54719657281368L128.998125,87.52780792591264L130.69546875,73.03207569353617L131.26125,44.65649300134382L131.82703125,47.31249663372059L132.3928125,19.378296460408613L132.95859375,41.99957835539115L134.09015625,104.82319032654532L135.7875,53.857142857142875L136.35328125,13.469914499796346L137.48484375,-0.9184937491660286L138.050625,19.960970429363073L138.61640625,52.18796261129362L139.1821875,91.24494735225058L139.74796875,55.57725462864036L140.31375,93.28010551214072L141.4453125,56.797456744306125L142.01109375,44.75797835581105L143.7084375,47.37338355623206L144.27421875,58.8024090146542L144.84,55.800008889316686L145.40578125,53.9986565748743L145.9715625,72.62110751292882L147.66890625,24.718226037493913L148.2346875,15.679314098140413L148.80046875,39.77911393294198L149.36625,5.02954009876558L149.93203125,33.38584930267054L150.4978125,60.24771679133414L151.06359375,56.667135665031935L151.629375,54.51891180208632L152.19515625,33.55428586955987L152.7609375,89.901204992881L153.8925,44.912678760020725L154.45828125,-1.7224054368451134L155.0240625,39.16828463433894L155.58984375,44.019313351957564L156.72140625,115.90766940050756L157.2871875,99.92108204684833L157.85296875,50.91887709532945L158.41875,100.33114051012531L159.5503125,130.00228689493375L160.11609375,167.55474893221344L161.24765625,111.16626163724747L161.8134375,106.92667537182602L162.37921875,84.66717287923574L162.945,110.74534976627243L163.51078125,67.2681092881469L164.0765625,90.43163439956889L165.208125,124.05876905165921L165.77390625,114.66111006739922L166.3396875,99.17338514845186L166.90546875,129.30721223277516L168.03703125,127.66322232050376L168.6028125,126.67685468565483L169.734375,86.66349181576521L170.30015625,52.83031876867495L170.8659375,32.541553837954666L171.43171875,40.04277675916429L171.9975,54.40289441248774L172.56328125,82.70847520740567L173.1290625,80.00534052945262L173.69484375,127.65217133643144L175.3921875,97.09581152815726L175.95796875,88.63676519396549L177.6553125,113.12832696431525L178.786875,98.25399842595128L179.35265625,99.17957780857368L179.9184375,198.3840601213223L180.48421875,248.122911489733L181.05,248.32503053782713L181.61578125,258.32616275544257L182.1815625,214.92247186866126L183.313125,198.76652013151332L183.87890625,149.60355933333432L184.4446875,120.12929725159246L185.01046875,102.45319416862209L185.57625,81.98424700733321L186.7078125,138.71636244408134L187.27359375,84.03401844076055L188.9709375,80.8006185878241L189.53671875,88.70661189344966L190.66828125,113.17025579571298L191.2340625,127.85427088934695L192.365625,87.36936504430415L193.4971875,63.09436931131001L194.06296875,68.23658583320395L194.62875,51.619461474931896L195.19453125,71.19303736793417L195.7603125,92.78766044461226L196.32609375,76.18710656478441L197.45765625,145.0911887355616L198.0234375,127.2770798381948L198.58921875,146.17781662421112L199.155,157.52173769903797L200.2865625,134.73233865391813L200.85234375,140.79424289731745L201.418125,104.97574836644766L202.5496875,113.06338985892141L203.11546875,117.9166116544713L203.68125,130.70287789111583L204.8128125,79.23110114982005L205.37859375,87.76474441247325L206.51015625,53.49061409450566L207.0759375,82.16079064383868L208.2075,69.81285631833474L208.77328125,121.53051506069748L209.3390625,142.72847532339193L210.470625,116.00659710403224L211.03640625,90.11246605363618L211.6021875,84.44735804366748L212.73375,120.46566628034589L213.29953125,151.94785645378988L213.8653125,170.84682458554778L214.43109375,182.18968381666664L215.56265625,149.52478492846618L216.1284375,129.9362286929794L216.69421875,128.04061864895596L217.26,136.7786082159178L217.82578125,171.62352801394687L218.3915625,143.18901856411935L218.95734375,86.71458859966626L219.523125,52.86095580106751L220.08890625,62.09564241131251L221.22046875,107.04362020008011L221.78625,143.88904639242477L223.48359375,156.1481468013485L225.74671875,193.11935827072398L226.3125,146.21856160477412L227.44406249999997,137.80899747429882L228.00984375000002,103.18588022712035L228.575625,141.57263572963885L229.70718749999997,95.59316949594691L230.27296875000002,38.48679258953982L230.83875,83.01727251142599L231.40453125,99.88496942949178L231.97031249999998,119.88029508403278L233.66765625,102.3038462717809L234.23343749999998,62.20749820300823L234.79921875000002,77.5481092416245L235.365,67.04588875614142L237.06234375000003,90.29823930223506L237.628125,84.5588091016867L238.19390625,61.408846613337154L238.75968749999998,57.363759682036985L239.32546875000003,54.93686681927079L239.89125,14.11722448926944L241.0228125,28.985670945648884L241.58859374999997,28.073098545527976L242.15437500000002,47.21864668663343L243.2859375,29.175859225618805L243.85171874999997,28.1872093133081L244.41750000000002,47.28713970837994L244.98328125,68.59256643771386L245.5490625,91.22667786837523L246.11484374999998,75.25082639368811L246.68062500000002,65.66779978627112L247.8121875,30.384467490671767L248.37796874999998,-0.6034910895511465L249.50953125,10.31779901439308L250.0753125,75.94205634237107L250.64109374999998,144.94395282493932L251.77265625,156.78124535514266L252.3384375,154.02403037284404L252.90421874999998,152.3697753948532L253.47000000000003,151.37724905024334L254.03578125,160.64204924567628L254.6015625,176.06515633953495L255.16734375,145.85241097331044L255.73312499999997,137.5893442388841L256.29890625,103.05418068857603L256.8646875,141.49355441550475L257.43046875,164.5715724773334L257.99625,188.30921702867303L259.69359375,222.3006039375637L260.259375,203.19181643458265L260.82515625,191.730097938172L261.3909375,155.24502047095038L262.5225,153.10234124446868L263.6540625,82.78904598228594L264.785625,80.05368032812265L265.9171875,88.2583757075347L267.04875,63.62751121549816L267.61453125,48.85489691623253L268.1803125,39.99345253248962L268.74609375,74.05733975123894L269.311875,94.50697482316852L270.4434375,116.65211899039721L271.00921875,100.3676056392182L271.575,120.16999371157817L272.14078125,151.77033938153093L272.7065625,151.01759380810194L273.27234375,190.03865315427072L273.838125,164.09189371517797L274.40390625,138.67250540177847L277.2328125,133.2819973658959L278.364375,159.6421673608504L278.93015625,116.27542512073279L280.06171875,129.7179040027126L280.6275,108.20407210512616L281.19328125,134.7287387504319L281.7590625,130.91595822048347L282.32484375,118.77452493988935L282.890625,111.49109992146411L283.45640625,77.55886925510099L284.0221875,96.60873429230605L284.58796875,98.1923942072345L285.15375,108.99259766811377L285.71953125,105.62257763551126L287.416875,143.03577850207395L287.98265625,185.24561705852383L289.11421875,210.58887722138311L290.8115625,196.1671695382436L291.37734375,167.76697742256272L292.50890625,239.6079496500436L293.0746875,302.5581542719362L293.64046875,251.31200367021967L294.20625,260.1186885093091L294.77203125,295.0790313501562L295.3378125,296.26639960758746L295.90359375,277.2056000296351L296.469375,255.89130387573888L297.03515625,262.8667084316253L297.6009375,257.1708158644222L298.16671875,224.10287580257722L298.7325,224.0365762337282L299.29828125,214.10399224293312L300.42984375,178.52209007215362L300.995625,137.46800962333586L302.1271875,152.29446631860458L303.25875,161.19248098632468L304.3903125,156.67057637289355L305.521875,173.68148868223676L306.08765625,144.42307271464838L306.6534375,215.706556103204L307.21921875,228.8725800219492L307.785,217.00495307877443L308.35078125,229.6518221726121L308.9165625,207.600706613478L309.48234375,243.7595172573926L310.048125,206.18965885190718L310.61390625,252.81084973167387L311.1796875,270.90053162187644L311.74546875,271.8729710076447L312.31125,282.34111738056407L312.87703125,278.7371392803255L313.4428125,286.46037823331835L314.00859375,271.324027351757L315.14015625,252.36380135543652L315.7059375,221.22054468342023L316.27171875,222.30715966689087L316.8375,222.95914015262423L317.40328125,282.64886243682395L317.9690625,269.0377845093915L318.53484375,280.6396246896803L319.100625,267.83256480756694L319.66640625,260.14992546091025L320.2321875,245.6616141117492L320.79796875,207.3300388105105L321.36375,243.59699724700448L321.92953125,245.60942100274858L323.06109375,266.57796250550075L323.626875,289.06923822680614L324.7584375,243.22661905891977L325.32421875,245.38718468489702L325.89,236.806041715723L326.45578125,231.65807275417347L327.0215625,218.67582757801577L327.58734375,201.01776141525914L328.153125,200.29419577407353L329.2846875,180.1257317699331L329.85046875,227.2606010297564L330.98203125,206.16660156917268L331.5478125,163.9000074867587L332.11359375,158.29492543874687L332.679375,164.79331866269843L333.24515625,119.36333387798345L334.37671875,101.99377945726397L334.9425,101.42345451197124L335.50828125,110.93163317054562L336.0740625,136.36613798370368L337.77140625,171.37587048775845L338.90296875,212.13289112330256L339.46875,266.261527345369L340.6003125,269.0894611621204L341.16609375,270.786299315338L341.731875,252.0412878828484L342.8634375,240.79770101932354L343.42921875,234.05277948836297L344.56078125,259.6407029024898L345.69234375,255.23541082283762L346.258125,262.47311587045016L347.95546875,286.605165427146L348.52125,241.74953465606217L349.08703125,234.62379933947722L350.784375,230.34885244724254L351.35015625,198.14895135060172L351.9159375,188.70502031838518L352.48171875,202.79484186361486L353.0475,161.8786575967842L353.61328125,176.8073497726104L354.74484375,156.15686239858866L355.87640625,173.37315328787128L357.00796875,154.09717867505142L358.13953125,172.1369011102772L359.836875,232.35704439680677L360.40265625,248.74280684456625L361.53421875,248.69696834024245L362.1,189.39195545600887L362.66578125,134.10744871530625L363.2315625,120.6889229273683L363.79734375,92.92033302730391L364.92890625,86.1318654638947L365.4946875,91.90580383113304L366.06046875,124.94386891373703L366.62625,144.77734003580318L367.19203125,146.82173923578347L367.7578125,118.46118388550646L368.32359375,131.02970525823665L368.889375,138.57235632443525L369.45515625,103.64357258381315L370.0209375,122.13633740295003L370.58671875,133.2353267099228L371.1525,120.16579027207723L372.2840625,82.75991926104756L372.84984375,80.03620526290021L373.415625,48.856567712932055L373.98140625,79.37869321884887L374.5471875,97.70104258996237L375.11296875,98.84779733411486L375.67875,89.68776886264496L376.24453125,94.03956497655369L376.8103125,86.80330912563606L377.37609375,121.88025650358081L377.941875,103.50338566522609L378.50765625,102.32920221212912L379.0734375,111.47518461109158L379.63921875,126.83691822800496L380.205,106.47621456934839L380.77078125,94.26382724192374L381.3365625,67.22889462309658L381.90234375,60.85541953991042L383.5996875,86.58211234343229L384.16546875,62.62224869728985L386.42859375,87.64275556265629L387.56015625,82.96568716308292L388.1259375,90.00584995846653L388.69171875,44.97540844540826L389.2575,37.66614115057732L389.82328125,121.9426760991235L390.3890625,162.71513970398513L391.520625,98.41592039691002L392.08640625,118.99850286170886L392.6521875,160.94715318464117L394.34953125,107.20612966219487L394.9153125,94.70166653204218L396.046875,106.89767254747761L398.31,94.51663896585754L398.87578125,96.93708603700354L399.4415625,157.55754126084867L400.00734375,164.35082851315613L400.573125,188.1767067468922L401.13890625,192.5892747066896L401.7046875,195.23700505992255L402.27046875,167.20919802562275L402.83625,189.89253757858484L403.40203125,183.75195495030962L404.53359375,140.60325008126244L405.099375,124.58524040019596L405.66515625,164.30197306389042L406.2309375,138.79848793223886L406.79671875,143.23419221268574L407.3625,175.49951551868347L407.92828125,155.37248628964267L409.625625,172.902361754321L410.19140625,173.55841641989946L410.7571875,114.76425675057023L414.151875,118.93722521164585L415.2834375,121.44117583620493L415.84921875,132.8181346856482L416.415,169.24552566979446L416.98078125,171.36425302469516L417.5465625,113.44931601216582L418.11234375,78.73298120551456L418.678125,38.217552621314695L419.24390625,72.99105567290268L419.8096875,84.01997425643995L420.37546875,100.48679389697908L420.94125,159.6899557054082L421.50703125,96.60315340782235L422.0728125,78.47559620285764L422.63859375,107.0283449530291L423.204375,163.61949822372011L423.77015625,138.38921366158556L424.3359375,123.25723814230669L425.4675,153.6238504957174L426.03328125,132.39465014721554L426.5990625,80.24509835390894L427.730625,147.5293489738204L428.8621875,128.73943302388736L429.99375,107.61724331454742L430.55953125,85.08132545485839L431.1253125,81.42895891630998L432.256875,69.37386593851761L432.82265625,91.6956713447624L433.3884375,85.39716597166972L433.95421875,101.31338034403903L434.52,91.16682904260108L435.08578125,114.64710399169807L435.6515625,109.01497170567508L436.21734375,125.36031574664862L436.783125,125.29512547669559L437.34890625,144.98817847336275L437.9146875,137.07088982102513L438.48046875,92.89459043928017L439.61203125,56.56631866533548L440.1778125,54.458424213177125L440.74359375,161.6299824371707L441.309375,147.053694696859L441.87515625,148.1875960572529L442.4409375,148.86794939144977L443.00671875,129.54228287223734L443.5725,127.80425986663943L444.13828125,107.05637762957384L444.7040625,124.18476029672354L445.26984375,104.88555972057782L445.835625,132.7365330147134L446.40140625,149.45467201701683L446.9671875,129.89417764501155L448.09875,137.89093237692734L448.66453125,113.1055871106571L449.2303125,167.26994151140076L450.361875,180.04302902247278L450.92765625,167.97900292310783L451.4934375,180.46857488136192L452.05921875,227.46650336789074L453.19078125,206.29009002274083L453.7565625,144.23427127461673L454.32234374999996,136.61861675308512L454.88812499999995,191.25835287767887L455.45390625000005,184.5713375280368L456.01968750000003,150.95281688659017L456.58546875,101.2158175703041L457.71703125,140.3896679976885L458.84859374999996,94.88404708573405L459.41437499999995,57.75910378214302L459.98015625000005,74.87819381988388L461.6775,65.44426335764861L463.94062499999995,109.05459805250902L464.50640625000005,145.09652533070854L465.07218750000004,97.70550209789796L465.63796875,148.15937479638575L466.20375,148.85101639930895L466.76953125,139.38818409183534L467.3353125,104.13272095597742L467.90109375,92.85806595880926L469.59843750000005,76.22933563986837L470.16421875000003,46.57385472030752L470.73,78.00820456875056L471.29578125,57.480224506359164L472.42734375,74.71080795429845L472.99312499999996,75.2068475817269L473.55890624999995,65.64141762286799L474.69046875000004,109.1729951992719L475.25625,95.88147716247248L475.82203125,68.1989461255785L476.3878125,61.43737291446314L476.95359375,47.541195944083874L477.51937499999997,108.1522871405803L478.08515624999995,144.55474088192327L478.65093750000005,166.40912150801861L479.21671875000004,179.52640138822724L479.7825,167.66910153350514L480.34828125,190.16860615547733L480.9140625,193.7845116654336L481.47984375,205.84334499102857L482.045625,183.45378459028146L482.61140624999996,160.14294575681163L483.17718749999995,156.04091030824418L484.87453125,183.18817768489686L485.4403125,140.26527886547723L486.571875,153.97331362489945L487.13765624999996,142.460908724696L487.70343749999995,214.5275449182861L488.26921875000005,238.04077755537887L488.83500000000004,212.6316577668203L489.40078125,276.4446069856247L489.9665625,314.7720595913892L490.53234375,298.1917220688703L491.098125,248.6948196648721L491.66390624999997,169.6407250653845L492.22968749999995,201.22053533238906L493.36125000000004,190.54759475443365L493.92703125,164.39709737935146L494.4928125,148.71345423319104L495.05859375,168.90541374817101L495.624375,200.77906453994294L496.75593749999996,170.53246910660647L497.32171874999995,152.39341477536925L497.88750000000005,141.51318466364228L498.45328125000003,85.71023253663029L499.0190625,71.94195746878279L499.58484375,122.80930547462827L500.150625,113.91157100616896L500.71640625,79.01013845106672L501.28218749999996,107.34925540466544L501.84796874999995,114.48771400359495L502.41375000000005,89.2016090932218L502.97953125000004,83.9009046420133L503.5453125,80.72075550330518L505.24265625,88.65868634256184L506.37421874999995,132.84901676361554L507.50578125000004,208.75174885892832L509.203125,244.45064607992165L509.76890625,196.71470382280833L510.3346875,168.09530807574927L510.90046874999996,220.03509047321594L511.46624999999995,182.07809596100128L512.03203125,169.19973425799716L512.5978125,220.69844169025012L513.16359375,172.61112567972322L513.729375,173.38367224342906L514.29515625,213.3385586639805L514.8609375,227.45138844055566L515.42671875,196.41158755883976L515.9925,177.79708292267904L517.68984375,127.1579944989203L518.255625,67.24298331629808L518.82140625,41.18508893979981L519.95296875,64.92966286273001L520.51875,79.18189829208947L521.6503125,146.8905550029557L522.21609375,98.78087786906693L522.781875,69.93758957097344L523.34765625,52.63971274142783L523.9134375,101.36467001953545L524.47921875,110.8963556638881L526.1765625,136.34496055428016L526.74234375,151.62043113910934L527.308125,150.92765018122694L527.87390625,140.63391473889664L529.00546875,183.8032504297035L529.57125,150.49227733334448L530.13703125,199.59131149858862L531.26859375,238.9501983016089L531.834375,252.69990837462282L532.40015625,221.42208127260392L532.9659375,212.53559463029146L533.53171875,187.46720226562363L534.0975,152.68913092258666L534.66328125,131.83405771492818L535.2290625,168.6546407129881L535.79484375,200.62850326009686L536.360625,140.84151414886597L537.4921875,154.31915013051855L538.05796875,221.65255550738954L538.62375,222.5663714199691L539.18953125,232.98945397579664L539.7553125,288.6740965844226L540.32109375,332.0295993660562L540.886875,467.150897225594L541.45265625,389.53174657727703L543.15,303.4235222333336L543.71578125,251.83068321012968L544.84734375,270.31221354899225L545.413125,281.4044581219398L545.97890625,297.96865982775864L546.5446875,228.78746121233513L547.11046875,197.21272233334133L547.67625,198.0111705907773L548.8078125,267.6604332115043L549.37359375,240.268401109438L549.939375,213.96753115815758L550.50515625,158.71451291757785L551.0709375,135.44766958926965L551.63671875,180.6887120406229L552.2025,168.3663169332052L552.76828125,180.70102180011406L553.89984375,178.23752668052649L554.465625,157.01460421654448L555.03140625,252.92224108095212L556.16296875,261.0849972396038L556.72875,226.44977266131798L557.29453125,245.19718070426532L557.8603125,216.92316259922927L558.42609375,199.96653152318848L558.991875,209.55337124471416L560.1234375,225.1795909182105L560.68921875,214.78965972190204L561.255,208.55675183655183L561.82078125,214.70832616285466L562.3865625,178.8844279367125L562.95234375,206.77010283873065L563.518125,203.74546943529856L564.08390625,192.06221177380894L564.6496875,155.44414109379093L565.21546875,143.34319389479654L565.78125,195.29746319530682L566.34703125,256.1484849036867L567.47859375,193.85735539198478L568.61015625,186.13051110202045L569.1759375,191.36143724315315L569.74171875,204.38913040907335L570.3075,241.83113267564133L570.87328125,284.0979007331015L571.4390625,260.02478122895303L572.570625,304.9118463522866L573.13640625,302.1659953687994L573.7021875,300.51855818128644L574.26796875,329.22625359744137L574.83375,356.37829845518576L575.39953125,323.14285714285717L576.53109375,323.01587471045593L577.66265625,322.9396854079729L578.2284375,303.0904873709504L579.36,301.07323276739544L579.92578125,309.77294871464306L580.4915625,295.1932032575744L582.18890625,276.5619283139077L582.7546875,285.155035672404L583.32046875,270.5410580837798L583.88625,281.5417956107728L584.45203125,278.2575797201659L585.58359375,305.9692856669539L586.149375,263.2373724156143L586.71515625,227.7402795675802L587.2809375,216.32573320052938L587.84671875,169.99001175371123L588.4125,161.94842232767897L588.97828125,137.38707429598136L590.10984375,152.24589050043573L590.675625,161.16333022906363L591.8071875,176.37802212639224L592.37296875,175.64381099047955L592.93875,194.95546117095984L593.50453125,236.16641439675894L594.63609375,181.8822789774283L595.201875,129.60655519872364L595.76765625,187.04633102963749L596.3334375,182.04442398616362L597.465,188.90948420576203L598.5965625,183.16219403330564L599.728125,140.24970223994495L600.29390625,163.82490798195025L600.8596875,187.86100122374674L601.42546875,202.28828392770035L601.99125,220.81902826941248L604.254375,212.17382715579242L604.82015625,226.75234616173807L605.3859375,245.3787936279548L605.95171875,306.02500348848736L606.5175,322.6372308439238L607.6490625,263.34595180557517L608.21484375,227.8053802840991L608.780625,216.36478457783733L609.34640625,179.8775743984374L609.9121875,197.49667080930018L610.47796875,168.56421450370271L611.04375,161.09307855348638L611.60953125,186.221086108966L612.1753125,211.17445727130135L612.74109375,315.1619594784575L613.87265625,308.3154649948673L614.4384375,314.1189272331391L615.00421875,327.49506227336855L615.57,276.14052062053173L616.13578125,255.2525296817482L616.7015625,242.72398164337196L617.26734375,215.44007903112794L617.833125,228.71265090295537L618.39890625,246.55541156914137L618.9646875,267.14579612070514L619.53046875,289.4100930716038L620.09625,292.86487650412016L620.66203125,294.9378627725256L621.2278125,266.5252974075096L621.79359375,269.24773210811713L622.359375,270.88126509032264L622.92515625,301.5408761536437L624.05671875,319.9457988095116L625.18828125,301.294856654042L625.7540625,270.3371978802059L626.31984375,330.91137805715294L626.885625,337.5725804383592L627.45140625,331.6731795843996L628.0171875,347.9275522007427L628.58296875,318.07565243609L629.14875,310.06341735002763L629.71453125,305.2567012276755L630.2803125,292.4842063282401L631.411875,324.40267765259597L631.97765625,294.0789141296861L632.5434375,256.1089860350359L633.10921875,243.23772310196125L634.24078125,304.73876882121965L634.8065625,232.84371904407908L635.37234375,209.51496355090558L635.938125,156.04591639511793L636.50390625,163.44372305284483L637.0696875,167.88293992692311L638.20125,131.0895572623564L638.76703125,148.46614481850176L639.89859375,188.50655580906718L640.464375,173.05570218238503L641.03015625,213.14161682717852L641.5959375,266.8674251427109L642.16171875,309.0210584143065L642.7275,265.06682702639654L643.8590625,209.0714064065661L644.990625,215.01715679157698L646.68796875,198.8233124499711L647.25375,198.97753399726102L647.81953125,199.0700671572356L648.3853125,307.8836347569188L649.516875,284.1729182663429L650.08265625,319.4125072320123L650.6484375,281.20016532434414L651.78,238.50941263048077L652.34578125,212.91269340077545L652.9115625,187.69334616621524L653.47734375,212.0582552385957L654.60890625,266.21669660851904L655.1746875,249.3005176629288L655.74046875,288.58323973870796L656.30625,242.93529040238857L656.87203125,264.9727842032591L657.4378125,268.3161668804631L658.00359375,270.32230532185616L658.569375,271.5260275708073L659.13515625,262.3656246134766L660.26671875,207.45250689484075L660.8325,214.0456935570568L661.9640625,198.24062363313345L663.095625,198.62791878715444L663.66140625,169.24256197500497L664.79296875,200.9814840207171L665.35875,200.27242965358454L665.92453125,180.11267743781912L666.4903125,207.50746581074074L667.05609375,204.18785875413215L667.621875,202.19620180222148L668.18765625,210.8914214747878L668.7534375,206.21806757543857L669.31921875,233.0525447872474L669.885,308.5097025430524L670.45078125,343.9404761531285L671.0165625,325.57816127689284L672.148125,294.78376727803914L672.71390625,286.2018066594277L673.2796875,281.05334724481145L673.84546875,317.5394026017967L674.41125,270.1731022723711L674.97703125,311.00613465506603L676.10859375,286.0454936691024L677.24015625,271.0751726071419L677.8059375,321.4602016714123L678.9375,341.79749102746445L679.50328125,334.20777918036697L680.63484375,399.0090964326897L682.3321875,395.9269111243332L683.46375,366.6732993354494L684.02953125,339.21151800199743L684.5953125,293.0694135386808L685.726875,275.288124958902L686.29265625,264.6224292316403L686.8584375,297.7831432817484L687.42421875,337.4996338332136L688.55578125,391.0782933492196L689.1215625,393.500656306648L690.253125,315.6920359174329L691.3846875,278.9695783240425L691.95046875,266.8307904584703L693.08203125,249.6688466546256L693.6478125,239.37454717205176L694.21359375,252.9545882756741L694.779375,320.4682553636053L695.9109375,361.0208772991454L697.0425,365.5398810662517L697.60828125,279.16610146255516L698.1740625,276.8322444432626L698.73984375,265.54869471334797L699.305625,268.6617358129761L699.87140625,240.86884653083726L700.4371875,263.7323531594792L701.00296875,277.4555482017363L701.56875,305.48779463167307L702.13453125,312.42210583267513L703.26609375,286.89464147753256L703.831875,301.263803406247L704.39765625,299.97725911040897L704.9634375,299.2053486473721L706.66078125,259.18241480131155L707.2265625,274.7247748187756L707.79234375,264.2844914899217L708.358125,238.24393341005143L708.92390625,202.88275534280663L710.05546875,240.92661545393563L710.62125,244.00710916943936L711.18703125,265.6161601865429L711.7528125,298.37978061782513L712.31859375,337.85790386594834L715.1475,351.6395173052573L715.71328125,300.5188614142807L716.2790625,240.2114788349461L716.84484375,263.33774853840185L717.410625,356.4189360975391L717.97640625,382.60589075102575L718.5421875,358.68499612199565L719.10796875,383.96623663600604L719.67375,369.4029456012399L720.23953125,360.66703541078374L720.8053125,365.32755616785096L721.37109375,338.40451732217537L721.936875,361.88808537225043L722.50265625,375.9835972021594L723.0684375,354.71344059948376L723.63421875,312.25195261495986L724.2,286.79260232347656L724.76578125,271.5233003484713L725.3315625,252.4833190847632L725.89734375,300.382709159537L726.463125,348.95865139008674L727.02890625,348.4016148345667L727.5946875,298.57810775577195L728.16046875,298.36586621337506L729.29203125,268.5808858793959L730.42359375,250.71853099270157L730.989375,200.47169960318914L731.55515625,190.09838920624802L732.1209375,183.87545044144605L732.68671875,209.7663499824057L733.81828125,136.45993194810978L734.94984375,171.4321868213372L735.515625,222.0393009836039L736.08140625,262.32902075839615L736.6471875,256.84823982615956L737.77875,332.7023854506807L738.34453125,388.19675861747436L739.47609375,380.0274548479105L740.041875,337.3214270406844L741.73921875,301.82499140195176L742.305,310.2240821188668L744.00234375,275.6911760023951L744.568125,235.20680603952817L745.13390625,260.3334750510524L746.83125,315.00831250199366L747.39703125,298.333426016169L748.52859375,327.91439904167015L749.094375,296.1846213855801L749.66015625,267.2729178149852L750.2259375,299.3744893320437L750.79171875,298.8436915584552L751.3575,298.5252156372963L751.92328125,239.01674399433975L752.4890625,213.2169335955552L753.05484375,197.7435253667913L753.620625,218.09109775917946L754.7521875,200.66704832523277L755.31796875,239.59615305690386L755.88375,213.56439634060587L757.0153125,217.71322674761123L757.58109375,200.44040548331643L758.146875,190.07961668216748L758.71265625,154.25545765674565L759.2784375,132.77345032816046L759.84421875,139.61875604182143L760.41,133.84968349820844L760.97578125,110.68201669432243L761.5415625,116.48763329560192L762.10734375,129.84526351854512L762.673125,108.28045443714025L763.8046875,115.04651221547803L764.37046875,99.4045534452865L764.93625,90.02175971550295L765.50203125,64.68500560058786L766.0678125,59.32926767637346L766.63359375,46.276678443653445L767.199375,58.14423044678653L767.76515625,65.26613308038712L768.3309375,138.52915034817076L768.89671875,143.0725749456853L769.4625,165.51942230949516L770.02828125,159.26645749005726L770.5940625,145.63598533652592L771.15984375,137.45951050483148L772.29140625,122.69958532631073L772.8571875,94.12604133276172L773.42296875,76.98986039449957L773.98875,76.57428016174325L775.1203125,105.88688566637934L775.68609375,123.48281796762346L777.94921875,124.16861971909522L779.08078125,183.77969429488653L779.6465625,249.22896615551733L780.778125,248.98866308033442L781.34390625,219.19671278614842L781.9096875,211.2006021294695L782.47546875,196.5340962239918L783.04125,158.12523097677516L784.1728125,214.04649700182944L784.73859375,198.24110554548275L785.304375,257.91683049021714L785.87015625,214.6770882224076L786.4359375,257.9079499158941L787.00171875,264.07685736223095L787.5675,277.6623079779408L788.13328125,275.9300055589613L788.6990625,265.0074732817173L789.26484375,218.9276218584817L789.830625,171.54966195044994L790.39640625,172.74678128379483L790.9621875,153.7215014266704L791.52796875,171.9114119262914L792.09375,232.2215854074566L792.65953125,209.14185901324578L793.2253125,205.16842214780468L794.356875,222.54774065541116L794.92265625,213.21086544966232L796.05421875,197.7398856216436L796.62,208.21711182855776L797.18578125,194.7445128165807L798.31734375,196.5302060692336L798.883125,167.9846735815039L799.44890625,160.74540587196947L800.0146875,255.16504699045223L800.58046875,301.99329242220625L801.14625,340.02771596090315L802.2778125,343.04291998387185L803.409375,315.1465890315406L804.5409375,298.41636383154685L806.23828125,298.2688202129451L806.8040625,317.98180616229695L807.36984375,349.62760574098746L807.935625,279.5189388868066L808.50140625,237.50154297183076L809.0671875,192.54915941922133L810.19875,195.21293459089836L810.76453125,186.94372668705583L811.3303125,172.11829258332284L811.89609375,202.70801339502725L812.461875,270.4824691943178L813.02765625,301.3014493828979L813.5934375,211.0375946385077L814.15921875,255.72230591456352L814.725,252.88454532058304L815.29078125,231.4072611138463L816.42234375,179.02987415787825L816.988125,157.48980657122954L817.55390625,164.31018208797545L818.68546875,148.661321626653L819.25125,129.41835469678585L819.81703125,147.4630630102069L820.3828125,158.29305896410656L820.94859375,154.9310622476863L821.514375,103.60031946098636L822.08015625,102.38736108158119L822.6459375,101.65960037779682L823.21171875,91.37451802347638L823.7775,85.20449834327782L824.34328125,61.7960772749186L824.9090625,37.91859995374064L825.47484375,112.2418096117111L826.040625,107.57194585010099L827.1721875,163.94603263922528L827.73796875,168.18435220295942L828.30375,190.47789702702164L828.86953125,233.47758055675894L829.4353125,209.8950995649091L830.00109375,205.62032867546338L830.566875,193.18685221875705L831.13265625,205.4846607339388L831.6984375,104.31594533392136L832.83,73.25661311514926L833.39578125,113.74600751191778L834.52734375,118.32622143157545L836.2246875,160.5434398753419L836.79046875,156.28118639663086" style="fill: none;" fill="none"></path></g></g></g></g><g opacity="0.2"><g><g><g><path stroke="rgb(255, 112, 67)" stroke-width="2px" d="M114.2878125,273.3316660506729L115.419375,75.95091638077953L116.5509375,273.3316660506729L117.11671874999999,125.19734023339169L118.24828124999999,248.62821066362812L119.37984374999999,75.95091638077953L119.945625,125.19734023339169L120.51140625,100.56797946412986L121.07718750000001,125.19734023339169L121.64296875,125.19734023339169L122.20875000000001,248.62821066362812L122.77453125,174.54251478729677L123.34031250000001,248.62821066362812L123.90609375,298.0475056128758L124.47187500000001,125.19734023339169L125.03765625,-96.17293800386018L125.60343750000001,149.88849699673722L126.16921875,125.19734023339169L126.73500000000001,125.19734023339169L127.30078125,174.54251478729677L127.86656249999999,149.88849699673722L128.998125,2.1240526205764505L130.69546875,51.29675150440789L131.26125,2.1240526205764505L131.82703125,51.29675150440789L132.3928125,-22.493231044199852L132.95859375,75.95091638077953L134.09015625,199.2088672228353L135.7875,-22.493231044199852L137.48484375,-22.493231044199852L138.050625,51.29675150440789L138.61640625,100.56797946412986L139.1821875,149.88849699673722L139.74796875,2.1240526205764505L140.31375,149.88849699673722L141.4453125,2.1240526205764505L142.01109375,26.70427161617739L143.7084375,51.29675150440789L144.27421875,75.95091638077953L144.84,51.29675150440789L145.40578125,51.29675150440789L145.9715625,100.56797946412986L147.66890625,-47.048940339813086L148.2346875,2.1240526205764505L148.80046875,75.95091638077953L149.36625,-47.048940339813086L149.93203125,75.95091638077953L150.4978125,100.56797946412986L151.06359375,51.29675150440789L151.629375,51.29675150440789L152.19515625,2.1240526205764505L152.7609375,174.54251478729677L153.8925,-22.493231044199852L154.45828125,-71.59242537112505L155.0240625,100.56797946412986L155.58984375,51.29675150440789L156.72140625,223.93712704759773L157.2871875,75.95091638077953L157.85296875,-22.493231044199852L158.41875,174.54251478729677L159.5503125,174.54251478729677L160.11609375,223.93712704759773L161.24765625,26.70427161617739L161.8134375,100.56797946412986L162.37921875,51.29675150440789L162.945,149.88849699673722L163.51078125,2.1240526205764505L164.0765625,125.19734023339169L165.208125,174.54251478729677L165.77390625,100.56797946412986L166.3396875,75.95091638077953L166.90546875,174.54251478729677L168.03703125,125.19734023339169L168.6028125,125.19734023339169L169.734375,26.70427161617739L170.30015625,2.1240526205764505L170.8659375,2.1240526205764505L171.43171875,51.29675150440789L171.9975,75.95091638077953L172.56328125,125.19734023339169L173.1290625,75.95091638077953L173.69484375,199.2088672228353L175.3921875,51.29675150440789L175.95796875,75.95091638077953L177.6553125,149.88849699673722L178.786875,75.95091638077953L179.35265625,100.56797946412986L179.9184375,347.56607180166606L180.48421875,322.8254016750112L181.05,248.62821066362812L181.61578125,273.3316660506729L182.1815625,149.88849699673722L183.313125,174.54251478729677L183.87890625,75.95091638077953L184.4446875,75.95091638077953L185.01046875,75.95091638077953L185.57625,51.29675150440789L186.7078125,223.93712704759773L187.27359375,2.1240526205764505L188.9709375,75.95091638077953L189.53671875,100.56797946412986L190.66828125,149.88849699673722L191.2340625,149.88849699673722L192.365625,26.70427161617739L193.4971875,26.70427161617739L194.06296875,75.95091638077953L194.62875,26.70427161617739L195.19453125,100.56797946412986L195.7603125,125.19734023339169L196.32609375,51.29675150440789L197.45765625,248.62821066362812L198.0234375,100.56797946412986L198.58921875,174.54251478729677L199.155,174.54251478729677L200.2865625,100.56797946412986L200.85234375,149.88849699673722L201.418125,51.29675150440789L202.5496875,125.19734023339169L203.11546875,125.19734023339169L203.68125,149.88849699673722L204.8128125,2.1240526205764505L205.37859375,100.56797946412986L206.51015625,2.1240526205764505L207.0759375,125.19734023339169L208.2075,51.29675150440789L208.77328125,199.2088672228353L209.3390625,174.54251478729677L210.470625,75.95091638077953L211.03640625,51.29675150440789L211.6021875,75.95091638077953L212.73375,174.54251478729677L213.29953125,199.2088672228353L213.8653125,199.2088672228353L214.43109375,199.2088672228353L215.56265625,100.56797946412986L216.1284375,100.56797946412986L216.69421875,125.19734023339169L217.26,149.88849699673722L217.82578125,223.93712704759773L218.3915625,100.56797946412986L218.95734375,2.1240526205764505L219.523125,2.1240526205764505L220.08890625,75.95091638077953L221.22046875,174.54251478729677L221.78625,199.2088672228353L223.48359375,174.54251478729677L225.74671875,248.62821066362812L226.3125,75.95091638077953L227.44406249999997,125.19734023339169L228.00984375000002,51.29675150440789L228.575625,199.2088672228353L229.70718749999997,26.70427161617739L230.27296875000002,-47.048940339813086L230.83875,149.88849699673722L231.40453125,125.19734023339169L231.97031249999998,149.88849699673722L233.66765625,75.95091638077953L234.23343749999998,2.1240526205764505L234.79921875000002,100.56797946412986L235.365,51.29675150440789L237.06234375000003,125.19734023339169L237.628125,75.95091638077953L238.19390625,26.70427161617739L238.75968749999998,51.29675150440789L239.32546875000003,51.29675150440789L239.89125,-47.048940339813086L241.0228125,51.29675150440789L241.58859374999997,26.70427161617739L242.15437500000002,75.95091638077953L243.2859375,2.1240526205764505L243.85171874999997,26.70427161617739L244.41750000000002,75.95091638077953L244.98328125,100.56797946412986L245.5490625,125.19734023339169L246.11484374999998,51.29675150440789L246.68062500000002,51.29675150440789L247.8121875,-22.493231044199852L248.37796874999998,-47.048940339813086L249.50953125,26.70427161617739L250.0753125,174.54251478729677L250.64109374999998,248.62821066362812L251.77265625,174.54251478729677L252.3384375,149.88849699673722L252.90421874999998,149.88849699673722L253.47000000000003,149.88849699673722L254.03578125,174.54251478729677L254.6015625,199.2088672228353L255.16734375,100.56797946412986L255.73312499999997,125.19734023339169L256.29890625,51.29675150440789L256.8646875,199.2088672228353L257.43046875,199.2088672228353L257.99625,223.93712704759773L259.69359375,273.3316660506729L260.259375,174.54251478729677L260.82515625,174.54251478729677L261.3909375,100.56797946412986L262.5225,149.88849699673722L263.6540625,-22.493231044199852L264.785625,75.95091638077953L265.9171875,100.56797946412986L267.04875,26.70427161617739L267.61453125,26.70427161617739L268.1803125,26.70427161617739L268.74609375,125.19734023339169L269.311875,125.19734023339169L270.4434375,149.88849699673722L271.00921875,75.95091638077953L271.575,149.88849699673722L272.14078125,199.2088672228353L272.7065625,149.88849699673722L273.27234375,248.62821066362812L273.838125,125.19734023339169L274.40390625,100.56797946412986L277.2328125,125.19734023339169L278.364375,199.2088672228353L278.93015625,51.29675150440789L280.06171875,149.88849699673722L280.6275,75.95091638077953L281.19328125,174.54251478729677L281.7590625,125.19734023339169L282.32484375,100.56797946412986L282.890625,100.56797946412986L283.45640625,26.70427161617739L284.0221875,125.19734023339169L284.58796875,100.56797946412986L285.15375,125.19734023339169L285.71953125,100.56797946412986L287.416875,199.2088672228353L287.98265625,248.62821066362812L289.11421875,248.62821066362812L290.8115625,174.54251478729677L291.37734375,125.19734023339169L292.50890625,347.56607180166606L293.0746875,397.1344239161163L293.64046875,174.54251478729677L294.20625,273.3316660506729L294.77203125,347.56607180166606L295.3378125,298.0475056128758L295.90359375,248.62821066362812L296.469375,223.93712704759773L297.03515625,273.3316660506729L297.6009375,248.62821066362812L298.16671875,174.54251478729677L298.7325,223.93712704759773L299.29828125,199.2088672228353L300.42984375,125.19734023339169L300.995625,75.95091638077953L302.1271875,174.54251478729677L303.25875,174.54251478729677L304.3903125,149.88849699673722L305.521875,199.2088672228353L306.08765625,100.56797946412986L306.6534375,322.8254016750112L307.21921875,248.62821066362812L307.785,199.2088672228353L308.35078125,248.62821066362812L308.9165625,174.54251478729677L309.48234375,298.0475056128758L310.048125,149.88849699673722L310.61390625,322.8254016750112L311.1796875,298.0475056128758L311.74546875,273.3316660506729L312.31125,298.0475056128758L312.87703125,273.3316660506729L313.4428125,298.0475056128758L314.00859375,248.62821066362812L315.14015625,223.93712704759773L315.7059375,174.54251478729677L316.27171875,223.93712704759773L316.8375,223.93712704759773L317.40328125,372.3191634534958L317.9690625,248.62821066362812L318.53484375,298.0475056128758L319.100625,248.62821066362812L319.66640625,248.62821066362812L320.2321875,223.93712704759773L320.79796875,149.88849699673722L321.36375,298.0475056128758L321.92953125,248.62821066362812L323.06109375,298.0475056128758L323.626875,322.8254016750112L324.7584375,174.54251478729677L325.32421875,248.62821066362812L325.89,223.93712704759773L326.45578125,223.93712704759773L327.0215625,199.2088672228353L327.58734375,174.54251478729677L328.153125,199.2088672228353L329.2846875,149.88849699673722L329.85046875,298.0475056128758L330.98203125,174.54251478729677L331.5478125,100.56797946412986L332.11359375,149.88849699673722L332.679375,174.54251478729677L333.24515625,51.29675150440789L334.37671875,75.95091638077953L334.9425,100.56797946412986L335.50828125,125.19734023339169L336.0740625,174.54251478729677L337.77140625,223.93712704759773L338.90296875,273.3316660506729L339.46875,347.56607180166606L340.6003125,273.3316660506729L341.16609375,273.3316660506729L341.731875,223.93712704759773L342.8634375,223.93712704759773L343.42921875,223.93712704759773L344.56078125,298.0475056128758L345.69234375,248.62821066362812L346.258125,273.3316660506729L347.95546875,322.8254016750112L348.52125,174.54251478729677L349.08703125,223.93712704759773L350.784375,223.93712704759773L351.35015625,149.88849699673722L351.9159375,174.54251478729677L352.48171875,223.93712704759773L353.0475,100.56797946412986L353.61328125,199.2088672228353L354.74484375,125.19734023339169L355.87640625,199.2088672228353L357.00796875,125.19734023339169L358.13953125,199.2088672228353L359.836875,322.8254016750112L360.40265625,273.3316660506729L361.53421875,248.62821066362812L362.1,100.56797946412986L362.66578125,51.29675150440789L363.2315625,100.56797946412986L363.79734375,51.29675150440789L364.92890625,75.95091638077953L365.4946875,100.56797946412986L366.06046875,174.54251478729677L366.62625,174.54251478729677L367.19203125,149.88849699673722L367.7578125,75.95091638077953L368.32359375,149.88849699673722L368.889375,149.88849699673722L369.45515625,51.29675150440789L370.0209375,149.88849699673722L370.58671875,149.88849699673722L371.1525,100.56797946412986L372.2840625,26.70427161617739L372.84984375,75.95091638077953L373.415625,2.1240526205764505L373.98140625,125.19734023339169L374.5471875,125.19734023339169L375.11296875,100.56797946412986L375.67875,75.95091638077953L376.24453125,100.56797946412986L376.8103125,75.95091638077953L377.37609375,174.54251478729677L377.941875,75.95091638077953L378.50765625,100.56797946412986L379.0734375,125.19734023339169L379.63921875,149.88849699673722L380.205,75.95091638077953L380.77078125,75.95091638077953L381.3365625,26.70427161617739L381.90234375,51.29675150440789L383.5996875,125.19734023339169L384.16546875,26.70427161617739L386.42859375,125.19734023339169L387.56015625,75.95091638077953L388.1259375,100.56797946412986L388.69171875,-22.493231044199852L389.2575,26.70427161617739L389.82328125,248.62821066362812L390.3890625,223.93712704759773L391.520625,2.1240526205764505L392.08640625,149.88849699673722L392.6521875,223.93712704759773L394.34953125,26.70427161617739L394.9153125,75.95091638077953L396.046875,125.19734023339169L398.31,75.95091638077953L398.87578125,100.56797946412986L399.4415625,248.62821066362812L400.00734375,174.54251478729677L400.573125,223.93712704759773L401.13890625,199.2088672228353L401.7046875,199.2088672228353L402.27046875,125.19734023339169L402.83625,223.93712704759773L403.40203125,174.54251478729677L404.53359375,75.95091638077953L405.099375,100.56797946412986L405.66515625,223.93712704759773L406.2309375,100.56797946412986L406.79671875,149.88849699673722L407.3625,223.93712704759773L407.92828125,125.19734023339169L409.625625,199.2088672228353L410.19140625,174.54251478729677L410.7571875,26.70427161617739L414.151875,125.19734023339169L415.2834375,125.19734023339169L415.84921875,149.88849699673722L416.415,223.93712704759773L416.98078125,174.54251478729677L417.5465625,26.70427161617739L418.11234375,26.70427161617739L418.678125,-22.493231044199852L419.24390625,125.19734023339169L419.8096875,100.56797946412986L420.37546875,125.19734023339169L420.94125,248.62821066362812L421.50703125,2.1240526205764505L422.0728125,51.29675150440789L422.63859375,149.88849699673722L423.204375,248.62821066362812L423.77015625,100.56797946412986L424.3359375,100.56797946412986L425.4675,199.2088672228353L426.03328125,100.56797946412986L426.5990625,2.1240526205764505L427.730625,248.62821066362812L428.8621875,100.56797946412986L429.99375,75.95091638077953L430.55953125,51.29675150440789L431.1253125,75.95091638077953L432.256875,51.29675150440789L432.82265625,125.19734023339169L433.3884375,75.95091638077953L433.95421875,125.19734023339169L434.52,75.95091638077953L435.08578125,149.88849699673722L435.6515625,100.56797946412986L436.21734375,149.88849699673722L436.783125,125.19734023339169L437.34890625,174.54251478729677L437.9146875,125.19734023339169L438.48046875,26.70427161617739L439.61203125,2.1240526205764505L440.1778125,51.29675150440789L440.74359375,322.8254016750112L441.309375,125.19734023339169L441.87515625,149.88849699673722L442.4409375,149.88849699673722L443.00671875,100.56797946412986L443.5725,125.19734023339169L444.13828125,75.95091638077953L444.7040625,149.88849699673722L445.26984375,75.95091638077953L445.835625,174.54251478729677L446.40140625,174.54251478729677L446.9671875,100.56797946412986L448.09875,149.88849699673722L448.66453125,75.95091638077953L449.2303125,248.62821066362812L450.361875,199.2088672228353L450.92765625,149.88849699673722L451.4934375,199.2088672228353L452.05921875,298.0475056128758L453.19078125,174.54251478729677L453.7565625,51.29675150440789L454.32234374999996,125.19734023339169L454.88812499999995,273.3316660506729L455.45390625000005,174.54251478729677L456.01968750000003,100.56797946412986L456.58546875,26.70427161617739L457.71703125,199.2088672228353L458.84859374999996,26.70427161617739L459.41437499999995,2.1240526205764505L459.98015625000005,100.56797946412986L461.6775,51.29675150440789L463.94062499999995,174.54251478729677L464.50640625000005,199.2088672228353L465.07218750000004,26.70427161617739L465.63796875,223.93712704759773L466.20375,149.88849699673722L466.76953125,125.19734023339169L467.3353125,51.29675150440789L467.90109375,75.95091638077953L469.59843750000005,51.29675150440789L470.16421875000003,2.1240526205764505L470.73,125.19734023339169L471.29578125,26.70427161617739L472.42734375,100.56797946412986L472.99312499999996,75.95091638077953L473.55890624999995,51.29675150440789L474.69046875000004,174.54251478729677L475.25625,75.95091638077953L475.82203125,26.70427161617739L476.3878125,51.29675150440789L476.95359375,26.70427161617739L477.51937499999997,199.2088672228353L478.08515624999995,199.2088672228353L478.65093750000005,199.2088672228353L479.21671875000004,199.2088672228353L479.7825,149.88849699673722L480.34828125,223.93712704759773L480.9140625,199.2088672228353L481.47984375,223.93712704759773L482.045625,149.88849699673722L482.61140624999996,125.19734023339169L483.17718749999995,149.88849699673722L484.87453125,223.93712704759773L485.4403125,75.95091638077953L486.571875,174.54251478729677L487.13765624999996,125.19734023339169L487.70343749999995,322.8254016750112L488.26921875000005,273.3316660506729L488.83500000000004,174.54251478729677L489.40078125,372.3191634534958L489.9665625,372.3191634534958L490.53234375,273.3316660506729L491.098125,174.54251478729677L491.66390624999997,51.29675150440789L492.22968749999995,248.62821066362812L493.36125000000004,174.54251478729677L493.92703125,125.19734023339169L494.4928125,125.19734023339169L495.05859375,199.2088672228353L495.624375,248.62821066362812L496.75593749999996,125.19734023339169L497.32171874999995,125.19734023339169L497.88750000000005,125.19734023339169L498.45328125000003,2.1240526205764505L499.0190625,51.29675150440789L499.58484375,199.2088672228353L500.150625,100.56797946412986L500.71640625,26.70427161617739L501.28218749999996,149.88849699673722L501.84796874999995,125.19734023339169L502.41375000000005,51.29675150440789L502.97953125000004,75.95091638077953L503.5453125,75.95091638077953L505.24265625,100.56797946412986L506.37421874999995,199.2088672228353L507.50578125000004,322.8254016750112L509.203125,298.0475056128758L509.76890625,125.19734023339169L510.3346875,125.19734023339169L510.90046874999996,298.0475056128758L511.46624999999995,125.19734023339169L512.03203125,149.88849699673722L512.5978125,298.0475056128758L513.16359375,100.56797946412986L513.729375,174.54251478729677L514.29515625,273.3316660506729L514.8609375,248.62821066362812L515.42671875,149.88849699673722L515.9925,149.88849699673722L517.68984375,51.29675150440789L518.255625,-22.493231044199852L518.82140625,2.1240526205764505L519.95296875,100.56797946412986L520.51875,100.56797946412986L521.6503125,248.62821066362812L522.21609375,26.70427161617739L522.781875,26.70427161617739L523.34765625,26.70427161617739L523.9134375,174.54251478729677L524.47921875,125.19734023339169L526.1765625,174.54251478729677L526.74234375,174.54251478729677L527.308125,149.88849699673722L527.87390625,125.19734023339169L529.00546875,248.62821066362812L529.57125,100.56797946412986L530.13703125,273.3316660506729L531.26859375,298.0475056128758L531.834375,273.3316660506729L532.40015625,174.54251478729677L532.9659375,199.2088672228353L533.53171875,149.88849699673722L534.0975,100.56797946412986L534.66328125,100.56797946412986L535.2290625,223.93712704759773L535.79484375,248.62821066362812L536.360625,51.29675150440789L537.4921875,174.54251478729677L538.05796875,322.8254016750112L538.62375,223.93712704759773L539.18953125,248.62821066362812L539.7553125,372.3191634534958L540.32109375,397.1344239161163L540.886875,670.5297487413317L541.45265625,273.3316660506729L543.15,174.54251478729677L543.71578125,174.54251478729677L544.84734375,298.0475056128758L545.413125,298.0475056128758L545.97890625,322.8254016750112L546.5446875,125.19734023339169L547.11046875,149.88849699673722L547.67625,199.2088672228353L548.8078125,372.3191634534958L549.37359375,199.2088672228353L549.939375,174.54251478729677L550.50515625,75.95091638077953L551.0709375,100.56797946412986L551.63671875,248.62821066362812L552.2025,149.88849699673722L552.76828125,199.2088672228353L553.89984375,174.54251478729677L554.465625,125.19734023339169L555.03140625,397.1344239161163L556.16296875,273.3316660506729L556.72875,174.54251478729677L557.29453125,273.3316660506729L557.8603125,174.54251478729677L558.42609375,174.54251478729677L558.991875,223.93712704759773L560.1234375,248.62821066362812L560.68921875,199.2088672228353L561.255,199.2088672228353L561.82078125,223.93712704759773L562.3865625,125.19734023339169L562.95234375,248.62821066362812L563.518125,199.2088672228353L564.08390625,174.54251478729677L564.6496875,100.56797946412986L565.21546875,125.19734023339169L565.78125,273.3316660506729L566.34703125,347.56607180166606L567.47859375,100.56797946412986L568.61015625,174.54251478729677L569.1759375,199.2088672228353L569.74171875,223.93712704759773L570.3075,298.0475056128758L570.87328125,347.56607180166606L571.4390625,223.93712704759773L572.570625,372.3191634534958L573.13640625,298.0475056128758L573.7021875,298.0475056128758L574.26796875,372.3191634534958L574.83375,397.1344239161163L575.39953125,273.3316660506729L576.53109375,322.8254016750112L577.66265625,322.8254016750112L578.2284375,273.3316660506729L579.36,298.0475056128758L579.92578125,322.8254016750112L580.4915625,273.3316660506729L582.18890625,248.62821066362812L582.7546875,298.0475056128758L583.32046875,248.62821066362812L583.88625,298.0475056128758L584.45203125,273.3316660506729L585.58359375,347.56607180166606L586.149375,199.2088672228353L586.71515625,174.54251478729677L587.2809375,199.2088672228353L587.84671875,100.56797946412986L588.4125,149.88849699673722L588.97828125,100.56797946412986L590.10984375,174.54251478729677L590.675625,174.54251478729677L591.8071875,199.2088672228353L592.37296875,174.54251478729677L592.93875,223.93712704759773L593.50453125,298.0475056128758L594.63609375,100.56797946412986L595.201875,51.29675150440789L595.76765625,273.3316660506729L596.3334375,174.54251478729677L597.465,199.2088672228353L598.5965625,174.54251478729677L599.728125,75.95091638077953L600.29390625,199.2088672228353L600.8596875,223.93712704759773L601.42546875,223.93712704759773L601.99125,248.62821066362812L604.254375,199.2088672228353L604.82015625,248.62821066362812L605.3859375,273.3316660506729L605.95171875,397.1344239161163L606.5175,347.56607180166606L607.6490625,174.54251478729677L608.21484375,174.54251478729677L608.780625,199.2088672228353L609.34640625,125.19734023339169L609.9121875,223.93712704759773L610.47796875,125.19734023339169L611.04375,149.88849699673722L611.60953125,223.93712704759773L612.1753125,248.62821066362812L612.74109375,471.55561500354804L613.87265625,298.0475056128758L614.4384375,322.8254016750112L615.00421875,347.56607180166606L615.57,199.2088672228353L616.13578125,223.93712704759773L616.7015625,223.93712704759773L617.26734375,174.54251478729677L617.833125,248.62821066362812L618.39890625,273.3316660506729L618.9646875,298.0475056128758L619.53046875,322.8254016750112L620.09625,298.0475056128758L620.66203125,298.0475056128758L621.2278125,223.93712704759773L621.79359375,273.3316660506729L622.359375,273.3316660506729L622.92515625,347.56607180166606L624.05671875,347.56607180166606L625.18828125,273.3316660506729L625.7540625,223.93712704759773L626.31984375,421.9124210764682L626.885625,347.56607180166606L627.45140625,322.8254016750112L628.0171875,372.3191634534958L628.58296875,273.3316660506729L629.14875,298.0475056128758L629.71453125,298.0475056128758L630.2803125,273.3316660506729L631.411875,372.3191634534958L631.97765625,248.62821066362812L632.5434375,199.2088672228353L633.10921875,223.93712704759773L634.24078125,397.1344239161163L634.8065625,125.19734023339169L635.37234375,174.54251478729677L635.938125,75.95091638077953L636.50390625,174.54251478729677L637.0696875,174.54251478729677L638.20125,75.95091638077953L638.76703125,174.54251478729677L639.89859375,248.62821066362812L640.464375,149.88849699673722L641.03015625,273.3316660506729L641.5959375,347.56607180166606L642.16171875,372.3191634534958L642.7275,199.2088672228353L643.8590625,125.19734023339169L644.990625,223.93712704759773L646.68796875,174.54251478729677L647.25375,199.2088672228353L647.81953125,199.2088672228353L648.3853125,471.55561500354804L649.516875,248.62821066362812L650.08265625,372.3191634534958L650.6484375,223.93712704759773L651.78,174.54251478729677L652.34578125,174.54251478729677L652.9115625,149.88849699673722L653.47734375,248.62821066362812L654.60890625,347.56607180166606L655.1746875,223.93712704759773L655.74046875,347.56607180166606L656.30625,174.54251478729677L656.87203125,298.0475056128758L657.4378125,273.3316660506729L658.00359375,273.3316660506729L658.569375,273.3316660506729L659.13515625,248.62821066362812L660.26671875,125.19734023339169L660.8325,223.93712704759773L661.9640625,174.54251478729677L663.095625,199.2088672228353L663.66140625,125.19734023339169L664.79296875,248.62821066362812L665.35875,199.2088672228353L665.92453125,149.88849699673722L666.4903125,248.62821066362812L667.05609375,199.2088672228353L667.621875,199.2088672228353L668.18765625,223.93712704759773L668.7534375,199.2088672228353L669.31921875,273.3316660506729L669.885,421.9124210764682L670.45078125,397.1344239161163L671.0165625,298.0475056128758L672.148125,248.62821066362812L672.71390625,273.3316660506729L673.2796875,273.3316660506729L673.84546875,372.3191634534958L674.41125,199.2088672228353L674.97703125,372.3191634534958L676.10859375,248.62821066362812L677.24015625,248.62821066362812L677.8059375,397.1344239161163L678.9375,372.3191634534958L679.50328125,322.8254016750112L680.63484375,496.37105200082016L681.200625,372.3191634534958L681.76640625,446.7028772813005L682.3321875,372.3191634534958L683.46375,322.8254016750112L684.02953125,298.0475056128758L684.5953125,223.93712704759773L685.726875,248.62821066362812L686.29265625,248.62821066362812L686.8584375,347.56607180166606L687.42421875,397.1344239161163L689.1215625,397.1344239161163L690.253125,199.2088672228353L691.3846875,223.93712704759773L691.95046875,248.62821066362812L693.08203125,223.93712704759773L693.6478125,223.93712704759773L694.21359375,273.3316660506729L694.779375,421.9124210764682L695.9109375,421.9124210764682L697.0425,372.3191634534958L697.60828125,149.88849699673722L698.1740625,273.3316660506729L698.73984375,248.62821066362812L699.305625,273.3316660506729L699.87140625,199.2088672228353L700.4371875,298.0475056128758L701.00296875,298.0475056128758L701.56875,347.56607180166606L702.13453125,322.8254016750112L703.26609375,248.62821066362812L703.831875,322.8254016750112L704.39765625,298.0475056128758L704.9634375,298.0475056128758L706.66078125,199.2088672228353L707.2265625,298.0475056128758L707.79234375,248.62821066362812L708.358125,199.2088672228353L708.92390625,149.88849699673722L710.05546875,298.0475056128758L710.62125,248.62821066362812L711.18703125,298.0475056128758L711.7528125,347.56607180166606L712.31859375,397.1344239161163L715.1475,372.3191634534958L715.71328125,223.93712704759773L716.2790625,149.88849699673722L716.84484375,298.0475056128758L717.410625,496.37105200082016L717.97640625,421.9124210764682L718.5421875,322.8254016750112L719.10796875,421.9124210764682L719.67375,347.56607180166606L720.23953125,347.56607180166606L720.8053125,372.3191634534958L721.37109375,298.0475056128758L721.936875,397.1344239161163L722.50265625,397.1344239161163L723.0684375,322.8254016750112L723.63421875,248.62821066362812L724.2,248.62821066362812L724.76578125,248.62821066362812L725.3315625,223.93712704759773L725.89734375,372.3191634534958L726.463125,421.9124210764682L727.02890625,347.56607180166606L727.5946875,223.93712704759773L728.16046875,298.0475056128758L729.29203125,223.93712704759773L730.42359375,223.93712704759773L730.989375,125.19734023339169L731.55515625,174.54251478729677L732.1209375,174.54251478729677L732.68671875,248.62821066362812L733.81828125,26.70427161617739L734.94984375,223.93712704759773L735.515625,298.0475056128758L736.08140625,322.8254016750112L736.6471875,248.62821066362812L737.77875,446.7028772813005L738.9103125,421.9124210764682L739.47609375,347.56607180166606L740.041875,273.3316660506729L741.73921875,248.62821066362812L742.305,322.8254016750112L744.00234375,223.93712704759773L744.568125,174.54251478729677L745.13390625,298.0475056128758L746.83125,397.1344239161163L747.39703125,273.3316660506729L748.52859375,372.3191634534958L749.094375,248.62821066362812L749.66015625,223.93712704759773L750.2259375,347.56607180166606L750.79171875,298.0475056128758L751.3575,298.0475056128758L751.92328125,149.88849699673722L752.4890625,174.54251478729677L753.05484375,174.54251478729677L753.620625,248.62821066362812L754.7521875,174.54251478729677L755.31796875,298.0475056128758L755.88375,174.54251478729677L757.0153125,223.93712704759773L757.58109375,174.54251478729677L758.146875,174.54251478729677L758.71265625,100.56797946412986L759.2784375,100.56797946412986L759.84421875,149.88849699673722L760.41,125.19734023339169L760.97578125,75.95091638077953L761.5415625,125.19734023339169L762.10734375,149.88849699673722L762.673125,75.95091638077953L763.8046875,125.19734023339169L764.37046875,75.95091638077953L764.93625,75.95091638077953L765.50203125,26.70427161617739L766.0678125,51.29675150440789L766.63359375,26.70427161617739L767.199375,75.95091638077953L767.76515625,75.95091638077953L768.3309375,248.62821066362812L768.89671875,149.88849699673722L769.4625,199.2088672228353L770.02828125,149.88849699673722L770.5940625,125.19734023339169L771.15984375,125.19734023339169L772.29140625,100.56797946412986L772.8571875,51.29675150440789L773.42296875,51.29675150440789L773.98875,75.95091638077953L775.1203125,149.88849699673722L775.68609375,149.88849699673722L777.94921875,125.19734023339169L779.08078125,273.3316660506729L779.6465625,347.56607180166606L780.778125,248.62821066362812L781.34390625,174.54251478729677L781.9096875,199.2088672228353L782.47546875,174.54251478729677L783.04125,100.56797946412986L784.1728125,298.0475056128758L784.73859375,174.54251478729677L785.304375,347.56607180166606L785.87015625,149.88849699673722L786.4359375,322.8254016750112L787.00171875,273.3316660506729L787.5675,298.0475056128758L788.13328125,273.3316660506729L788.6990625,248.62821066362812L789.26484375,149.88849699673722L789.830625,100.56797946412986L790.39640625,174.54251478729677L790.9621875,125.19734023339169L791.52796875,199.2088672228353L792.09375,322.8254016750112L792.65953125,174.54251478729677L793.2253125,199.2088672228353L794.356875,248.62821066362812L794.92265625,199.2088672228353L796.05421875,174.54251478729677L796.62,223.93712704759773L797.18578125,174.54251478729677L798.31734375,199.2088672228353L798.883125,125.19734023339169L799.44890625,149.88849699673722L800.0146875,397.1344239161163L800.58046875,372.3191634534958L801.14625,397.1344239161163L802.2778125,347.56607180166606L803.409375,273.3316660506729L804.5409375,273.3316660506729L806.23828125,298.0475056128758L806.8040625,347.56607180166606L807.36984375,397.1344239161163L807.935625,174.54251478729677L808.50140625,174.54251478729677L809.0671875,125.19734023339169L810.19875,199.2088672228353L810.76453125,174.54251478729677L811.3303125,149.88849699673722L811.89609375,248.62821066362812L812.461875,372.3191634534958L813.02765625,347.56607180166606L813.5934375,75.95091638077953L814.15921875,322.8254016750112L814.725,248.62821066362812L815.29078125,199.2088672228353L816.42234375,100.56797946412986L816.988125,125.19734023339169L817.55390625,174.54251478729677L818.68546875,125.19734023339169L819.25125,100.56797946412986L819.81703125,174.54251478729677L820.3828125,174.54251478729677L820.94859375,149.88849699673722L821.514375,26.70427161617739L822.08015625,100.56797946412986L822.6459375,100.56797946412986L823.21171875,75.95091638077953L823.7775,75.95091638077953L824.34328125,26.70427161617739L824.9090625,2.1240526205764505L825.47484375,223.93712704759773L826.040625,100.56797946412986L827.1721875,248.62821066362812L827.73796875,174.54251478729677L828.30375,223.93712704759773L828.86953125,298.0475056128758L829.4353125,174.54251478729677L830.00109375,199.2088672228353L830.566875,174.54251478729677L831.13265625,223.93712704759773L831.6984375,-47.048940339813086L832.83,26.70427161617739L833.39578125,174.54251478729677L834.52734375,125.19734023339169L836.2246875,223.93712704759773L836.79046875,149.88849699673722" style="fill: none;" fill="none"></path></g></g></g></g></g></g><g transform="translate(10, 377)" clip-path="url(#clip_1)"><clipPath id="clip_1"><rect width="905" height="23"></rect></clipPath><g><g><line x1="0" y1="0" x2="0" y2="5" style="visibility: inherit;" fill="rgb(0, 0, 0)" stroke="rgb(204, 204, 204)" stroke-width="1px"></line><line x1="113.15625" y1="0" x2="113.15625" y2="5" style="visibility: inherit;" fill="rgb(0, 0, 0)" stroke="rgb(204, 204, 204)" stroke-width="1px"></line><line x1="226.3125" y1="0" x2="226.3125" y2="5" style="visibility: inherit;" fill="rgb(0, 0, 0)" stroke="rgb(204, 204, 204)" stroke-width="1px"></line><line x1="339.46875" y1="0" x2="339.46875" y2="5" style="visibility: inherit;" fill="rgb(0, 0, 0)" stroke="rgb(204, 204, 204)" stroke-width="1px"></line><line x1="452.625" y1="0" x2="452.625" y2="5" style="visibility: inherit;" fill="rgb(0, 0, 0)" stroke="rgb(204, 204, 204)" stroke-width="1px"></line><line x1="565.78125" y1="0" x2="565.78125" y2="5" style="visibility: inherit;" fill="rgb(0, 0, 0)" stroke="rgb(204, 204, 204)" stroke-width="1px"></line><line x1="678.9375" y1="0" x2="678.9375" y2="5" style="visibility: inherit;" fill="rgb(0, 0, 0)" stroke="rgb(204, 204, 204)" stroke-width="1px"></line><line x1="792.09375" y1="0" x2="792.09375" y2="5" style="visibility: inherit;" fill="rgb(0, 0, 0)" stroke="rgb(204, 204, 204)" stroke-width="1px"></line><line x1="905.25" y1="0" x2="905.25" y2="5" style="visibility: inherit;" fill="rgb(0, 0, 0)" stroke="rgb(204, 204, 204)" stroke-width="1px"></line></g><g transform="translate(0, 8)"><text x="0" y="0" dx="0em" dy="0.95em" style="text-anchor: middle; visibility: hidden; font-family: Roboto, sans-serif; font-size: 12px; font-weight: 200;" fill="rgb(33, 33, 33)" stroke="none" stroke-width="1px">-200</text><text x="113.15625" y="0" dx="0em" dy="0.95em" style="text-anchor: middle; visibility: inherit; font-family: Roboto, sans-serif; font-size: 12px; font-weight: 200;" fill="rgb(33, 33, 33)" stroke="none" stroke-width="1px">0</text><text x="226.3125" y="0" dx="0em" dy="0.95em" style="text-anchor: middle; visibility: inherit; font-family: Roboto, sans-serif; font-size: 12px; font-weight: 200;" fill="rgb(33, 33, 33)" stroke="none" stroke-width="1px">200</text><text x="339.46875" y="0" dx="0em" dy="0.95em" style="text-anchor: middle; visibility: inherit; font-family: Roboto, sans-serif; font-size: 12px; font-weight: 200;" fill="rgb(33, 33, 33)" stroke="none" stroke-width="1px">400</text><text x="452.625" y="0" dx="0em" dy="0.95em" style="text-anchor: middle; visibility: inherit; font-family: Roboto, sans-serif; font-size: 12px; font-weight: 200;" fill="rgb(33, 33, 33)" stroke="none" stroke-width="1px">600</text><text x="565.78125" y="0" dx="0em" dy="0.95em" style="text-anchor: middle; visibility: inherit; font-family: Roboto, sans-serif; font-size: 12px; font-weight: 200;" fill="rgb(33, 33, 33)" stroke="none" stroke-width="1px">800</text><text x="678.9375" y="0" dx="0em" dy="0.95em" style="text-anchor: middle; visibility: inherit; font-family: Roboto, sans-serif; font-size: 12px; font-weight: 200;" fill="rgb(33, 33, 33)" stroke="none" stroke-width="1px">1k</text><text x="792.09375" y="0" dx="0em" dy="0.95em" style="text-anchor: middle; visibility: inherit; font-family: Roboto, sans-serif; font-size: 12px; font-weight: 200;" fill="rgb(33, 33, 33)" stroke="none" stroke-width="1px">1.2k</text><text x="905.25" y="0" dx="0em" dy="0.95em" style="text-anchor: middle; visibility: hidden; font-family: Roboto, sans-serif; font-size: 12px; font-weight: 200;" fill="rgb(33, 33, 33)" stroke="none" stroke-width="1px">1.4k</text></g><line x1="0" y1="0" x2="905.25" y2="0" fill="rgb(0, 0, 0)" stroke="rgb(204, 204, 204)" stroke-width="1px"></line></g></g></g></g></svg>