<svg viewBox="0 0 915.25 400" xmlns="http://www.w3.org/2000/svg"><g><g><g><g><g><line x1="53.1875" y1="376" x2="48.1875" y2="376" style="visibility: inherit;" fill="rgb(0, 0, 0)" stroke="rgb(204, 204, 204)" stroke-width="1px"></line><line x1="53.1875" y1="347.07692307692434" x2="48.1875" y2="347.07692307692434" style="visibility: inherit;" fill="rgb(0, 0, 0)" stroke="rgb(204, 204, 204)" stroke-width="1px"></line><line x1="53.1875" y1="318.1538461538487" x2="48.1875" y2="318.1538461538487" style="visibility: inherit;" fill="rgb(0, 0, 0)" stroke="rgb(204, 204, 204)" stroke-width="1px"></line><line x1="53.1875" y1="289.23076923077303" x2="48.1875" y2="289.23076923077303" style="visibility: inherit;" fill="rgb(0, 0, 0)" stroke="rgb(204, 204, 204)" stroke-width="1px"></line><line x1="53.1875" y1="260.3076923076974" x2="48.1875" y2="260.3076923076974" style="visibility: inherit;" fill="rgb(0, 0, 0)" stroke="rgb(204, 204, 204)" stroke-width="1px"></line><line x1="53.1875" y1="231.38461538461348" x2="48.1875" y2="231.38461538461348" style="visibility: inherit;" fill="rgb(0, 0, 0)" stroke="rgb(204, 204, 204)" stroke-width="1px"></line><line x1="53.1875" y1="202.46153846153783" x2="48.1875" y2="202.46153846153783" style="visibility: inherit;" fill="rgb(0, 0, 0)" stroke="rgb(204, 204, 204)" stroke-width="1px"></line><line x1="53.1875" y1="173.53846153846217" x2="48.1875" y2="173.53846153846217" style="visibility: inherit;" fill="rgb(0, 0, 0)" stroke="rgb(204, 204, 204)" stroke-width="1px"></line><line x1="53.1875" y1="144.61538461538652" x2="48.1875" y2="144.61538461538652" style="visibility: inherit;" fill="rgb(0, 0, 0)" stroke="rgb(204, 204, 204)" stroke-width="1px"></line><line x1="53.1875" y1="115.69230769231088" x2="48.1875" y2="115.69230769231088" style="visibility: inherit;" fill="rgb(0, 0, 0)" stroke="rgb(204, 204, 204)" stroke-width="1px"></line><line x1="53.1875" y1="86.76923076922695" x2="48.1875" y2="86.76923076922695" style="visibility: inherit;" fill="rgb(0, 0, 0)" stroke="rgb(204, 204, 204)" stroke-width="1px"></line><line x1="53.1875" y1="57.8461538461513" x2="48.1875" y2="57.8461538461513" style="visibility: inherit;" fill="rgb(0, 0, 0)" stroke="rgb(204, 204, 204)" stroke-width="1px"></line><line x1="53.1875" y1="28.92307692307565" x2="48.1875" y2="28.92307692307565" style="visibility: inherit;" fill="rgb(0, 0, 0)" stroke="rgb(204, 204, 204)" stroke-width="1px"></line><line x1="53.1875" y1="0" x2="48.1875" y2="0" style="visibility: inherit;" fill="rgb(0, 0, 0)" stroke="rgb(204, 204, 204)" stroke-width="1px"></line></g><g transform="translate(43.1875, 0)"><text x="0" y="376" dx="0em" dy="0.3em" style="text-anchor: end; visibility: hidden; font-family: Roboto, sans-serif; font-size: 12px; font-weight: 200;" fill="rgb(33, 33, 33)" stroke="none" stroke-width="1px">98.4</text><text x="0" y="347.07692307692434" dx="0em" dy="0.3em" style="text-anchor: end; visibility: inherit; font-family: Roboto, sans-serif; font-size: 12px; font-weight: 200;" fill="rgb(33, 33, 33)" stroke="none" stroke-width="1px">98.5</text><text x="0" y="318.1538461538487" dx="0em" dy="0.3em" style="text-anchor: end; visibility: inherit; font-family: Roboto, sans-serif; font-size: 12px; font-weight: 200;" fill="rgb(33, 33, 33)" stroke="none" stroke-width="1px">98.5</text><text x="0" y="289.23076923077303" dx="0em" dy="0.3em" style="text-anchor: end; visibility: inherit; font-family: Roboto, sans-serif; font-size: 12px; font-weight: 200;" fill="rgb(33, 33, 33)" stroke="none" stroke-width="1px">98.5</text><text x="0" y="260.3076923076974" dx="0em" dy="0.3em" style="text-anchor: end; visibility: inherit; font-family: Roboto, sans-serif; font-size: 12px; font-weight: 200;" fill="rgb(33, 33, 33)" stroke="none" stroke-width="1px">98.6</text><text x="0" y="231.38461538461348" dx="0em" dy="0.3em" style="text-anchor: end; visibility: inherit; font-family: Roboto, sans-serif; font-size: 12px; font-weight: 200;" fill="rgb(33, 33, 33)" stroke="none" stroke-width="1px">98.7</text><text x="0" y="202.46153846153783" dx="0em" dy="0.3em" style="text-anchor: end; visibility: inherit; font-family: Roboto, sans-serif; font-size: 12px; font-weight: 200;" fill="rgb(33, 33, 33)" stroke="none" stroke-width="1px">98.7</text><text x="0" y="173.53846153846217" dx="0em" dy="0.3em" style="text-anchor: end; visibility: inherit; font-family: Roboto, sans-serif; font-size: 12px; font-weight: 200;" fill="rgb(33, 33, 33)" stroke="none" stroke-width="1px">98.8</text><text x="0" y="144.61538461538652" dx="0em" dy="0.3em" style="text-anchor: end; visibility: inherit; font-family: Roboto, sans-serif; font-size: 12px; font-weight: 200;" fill="rgb(33, 33, 33)" stroke="none" stroke-width="1px">98.8</text><text x="0" y="115.69230769231088" dx="0em" dy="0.3em" style="text-anchor: end; visibility: inherit; font-family: Roboto, sans-serif; font-size: 12px; font-weight: 200;" fill="rgb(33, 33, 33)" stroke="none" stroke-width="1px">98.8</text><text x="0" y="86.76923076922695" dx="0em" dy="0.3em" style="text-anchor: end; visibility: inherit; font-family: Roboto, sans-serif; font-size: 12px; font-weight: 200;" fill="rgb(33, 33, 33)" stroke="none" stroke-width="1px">98.9</text><text x="0" y="57.8461538461513" dx="0em" dy="0.3em" style="text-anchor: end; visibility: inherit; font-family: Roboto, sans-serif; font-size: 12px; font-weight: 200;" fill="rgb(33, 33, 33)" stroke="none" stroke-width="1px">99</text><text x="0" y="28.92307692307565" dx="0em" dy="0.3em" style="text-anchor: end; visibility: inherit; font-family: Roboto, sans-serif; font-size: 12px; font-weight: 200;" fill="rgb(33, 33, 33)" stroke="none" stroke-width="1px">99</text><text x="0" y="0" dx="0em" dy="0.3em" style="text-anchor: end; visibility: hidden; font-family: Roboto, sans-serif; font-size: 12px; font-weight: 200;" fill="rgb(33, 33, 33)" stroke="none" stroke-width="1px">99</text></g><line x1="53.1875" y1="0" x2="53.1875" y2="376" fill="rgb(0, 0, 0)" stroke="rgb(204, 204, 204)" stroke-width="1px"></line></g></g><g transform="translate(53, 0)" clip-path="url(#clip_0)"><clipPath id="clip_0"><rect width="862" height="376"></rect></clipPath><g><g><g><line x1="0" y1="0" x2="0" y2="376" fill="rgb(0, 0, 0)" stroke="rgb(66, 66, 66)" stroke-width="1px" opacity="0.25"></line><line x1="107.7578125" y1="0" x2="107.7578125" y2="376" fill="rgb(0, 0, 0)" stroke="rgb(66, 66, 66)" stroke-width="1px" opacity="0.25"></line><line x1="215.515625" y1="0" x2="215.515625" y2="376" fill="rgb(0, 0, 0)" stroke="rgb(66, 66, 66)" stroke-width="1px" opacity="0.25"></line><line x1="323.2734375" y1="0" x2="323.2734375" y2="376" fill="rgb(0, 0, 0)" stroke="rgb(66, 66, 66)" stroke-width="1px" opacity="0.25"></line><line x1="431.03125" y1="0" x2="431.03125" y2="376" fill="rgb(0, 0, 0)" stroke="rgb(66, 66, 66)" stroke-width="1px" opacity="0.25"></line><line x1="538.7890625" y1="0" x2="538.7890625" y2="376" fill="rgb(0, 0, 0)" stroke="rgb(66, 66, 66)" stroke-width="1px" opacity="0.25"></line><line x1="646.546875" y1="0" x2="646.546875" y2="376" fill="rgb(0, 0, 0)" stroke="rgb(66, 66, 66)" stroke-width="1px" opacity="0.25"></line><line x1="754.3046875" y1="0" x2="754.3046875" y2="376" fill="rgb(0, 0, 0)" stroke="rgb(66, 66, 66)" stroke-width="1px" opacity="0.25"></line><line x1="862.0625" y1="0" x2="862.0625" y2="376" fill="rgb(0, 0, 0)" stroke="rgb(66, 66, 66)" stroke-width="1px" opacity="0.25"></line></g><g><line x1="0" y1="376" x2="862.0625" y2="376" fill="rgb(0, 0, 0)" stroke="rgb(66, 66, 66)" stroke-width="1px" opacity="0.25"></line><line x1="0" y1="347.07692307692434" x2="862.0625" y2="347.07692307692434" fill="rgb(0, 0, 0)" stroke="rgb(66, 66, 66)" stroke-width="1px" opacity="0.25"></line><line x1="0" y1="318.1538461538487" x2="862.0625" y2="318.1538461538487" fill="rgb(0, 0, 0)" stroke="rgb(66, 66, 66)" stroke-width="1px" opacity="0.25"></line><line x1="0" y1="289.23076923077303" x2="862.0625" y2="289.23076923077303" fill="rgb(0, 0, 0)" stroke="rgb(66, 66, 66)" stroke-width="1px" opacity="0.25"></line><line x1="0" y1="260.3076923076974" x2="862.0625" y2="260.3076923076974" fill="rgb(0, 0, 0)" stroke="rgb(66, 66, 66)" stroke-width="1px" opacity="0.25"></line><line x1="0" y1="231.38461538461348" x2="862.0625" y2="231.38461538461348" fill="rgb(0, 0, 0)" stroke="rgb(66, 66, 66)" stroke-width="1px" opacity="0.25"></line><line x1="0" y1="202.46153846153783" x2="862.0625" y2="202.46153846153783" fill="rgb(0, 0, 0)" stroke="rgb(66, 66, 66)" stroke-width="1px" opacity="0.25"></line><line x1="0" y1="173.53846153846217" x2="862.0625" y2="173.53846153846217" fill="rgb(0, 0, 0)" stroke="rgb(66, 66, 66)" stroke-width="1px" opacity="0.25"></line><line x1="0" y1="144.61538461538652" x2="862.0625" y2="144.61538461538652" fill="rgb(0, 0, 0)" stroke="rgb(66, 66, 66)" stroke-width="1px" opacity="0.25"></line><line x1="0" y1="115.69230769231088" x2="862.0625" y2="115.69230769231088" fill="rgb(0, 0, 0)" stroke="rgb(66, 66, 66)" stroke-width="1px" opacity="0.25"></line><line x1="0" y1="86.76923076922695" x2="862.0625" y2="86.76923076922695" fill="rgb(0, 0, 0)" stroke="rgb(66, 66, 66)" stroke-width="1px" opacity="0.25"></line><line x1="0" y1="57.8461538461513" x2="862.0625" y2="57.8461538461513" fill="rgb(0, 0, 0)" stroke="rgb(66, 66, 66)" stroke-width="1px" opacity="0.25"></line><line x1="0" y1="28.92307692307565" x2="862.0625" y2="28.92307692307565" fill="rgb(0, 0, 0)" stroke="rgb(66, 66, 66)" stroke-width="1px" opacity="0.25"></line><line x1="0" y1="0" x2="862.0625" y2="0" fill="rgb(0, 0, 0)" stroke="rgb(66, 66, 66)" stroke-width="1px" opacity="0.25"></line></g></g></g><g><g><line x1="0" y1="57296.61538461613" x2="862.0625" y2="57296.61538461613" fill="rgb(0, 0, 0)" stroke="rgb(153, 153, 153)" stroke-width="1.5px"></line></g></g><g><g><line x1="107.7578125" y1="0" x2="107.7578125" y2="376" fill="rgb(0, 0, 0)" stroke="rgb(153, 153, 153)" stroke-width="1.5px"></line></g></g><g><g><g><g><g><path stroke="rgb(255, 112, 67)" stroke-width="2px" d="M108.835390625,279.6874248798097L109.91296875,136.7347552959737L110.990546875,209.66979079792364L111.5293359375,162.99963641273652L112.6069140625,201.2159782812492L113.6844921875,138.17354040547576L114.22328125,125.80407224160797L114.7620703125,106.98204321418083L115.300859375,107.44005558021507L115.83964843749999,107.7118909751077L116.3784375,165.28048544088128L116.91722656249999,165.29844604594638L117.456015625,199.6684509291801L117.9948046875,243.14058334463203L118.53359375000001,189.10515730312736L119.0723828125,53.72798292097164L119.61117187500001,86.94205120788716L120.1499609375,95.41230490564382L120.68875000000001,100.49390653804154L121.2275390625,126.42740777781584L121.76632812499999,130.556174662325L122.84390624999999,64.40371750093614L124.4602734375,47.57393352817218L124.9990625,14.61508735877576L125.53785156250001,17.70089712580161L126.076640625,-14.762059167695286L126.61542968750001,11.528052825320035L127.6930078125,84.47746844012066L129.309375,25.303917193887166L129.84816406250002,-21.630678389003705L131.46453125,-14.084732922371527L132.00332031250002,23.36489971514814L132.542109375,68.71858055160587L133.0808984375,27.30203103243938L133.6196875,71.08085849409555L134.697265625,28.719398247750323L135.2360546875,14.73299857218537L136.852421875,17.77163508758268L137.39121093749998,31.04824248856638L137.93,27.560781427841025L138.46878906249998,25.468304793183123L139.007578125,47.096720562447274L140.62394531249998,-8.554986001497367L141.162734375,-19.06210818853434L141.7015234375,8.94799650689592L142.24031250000002,-31.444220426698127L142.7791015625,1.5187291629864994L143.31789062500002,32.72697517849607L143.8566796875,28.568021044557668L144.39546875000002,26.072648564224206L144.9342578125,1.7144725519179174L145.47304687500002,67.15879921635565L146.550625,14.912737462458665L147.0894140625,-39.29585211391331L147.628203125,8.23822641196323L148.1669921875,13.874771784669196L149.2445703125,97.33888049870306L149.783359375,78.7885897174874L150.3221484375,21.89061176318541L150.86093749999998,79.26448274301089L151.93851562499998,113.68880533090456L152.4773046875,157.22730062643112L153.5548828125,91.83774005134042L154.09367187499998,86.91838171109578L154.6324609375,61.08286496415034L155.17125,91.34935840157543L155.71003906250002,40.88049845440925L156.248828125,67.77451301495148L157.32640625,106.79482349406727L157.86519531250002,95.89263177672035L158.403984375,77.92084048430435L158.94277343750002,112.88261997567405L160.0203515625,110.97578592771858L160.559140625,109.83168549893877L161.63671875,63.40037097484333L162.1755078125,24.111105998369972L162.714296875,0.5375470124826807L163.2530859375,9.25436414498909L163.791875,25.937879905260647L164.33066406249998,58.80894188545907L164.869453125,55.67062654954099L165.40824218749998,110.96296787683868L167.024609375,75.50961666360269L167.56339843749998,65.69103141643538L169.17976562500002,94.11425827293984L170.25734375000002,76.85381638203768L170.7961328125,77.92802750951081L171.33492187500002,192.94616446243523L171.8737109375,250.52657037217054L172.41250000000002,250.76043591320354L172.9512890625,262.3312314998427L173.490078125,212.09837832298263L174.56765625,193.38914267888262L175.1064453125,136.41874702559514L175.645234375,102.23650963362594L176.1840234375,81.72716719844439L176.7228125,57.9681362565661L177.80039062499998,123.79489918183135L178.3391796875,60.34782292255625L179.95554687499998,56.59395517180257L180.4943359375,65.77211078336647L181.5719140625,94.16290589309851L182.110703125,111.19738295893117L183.18828125,64.2197894508322L184.265859375,36.03323334597281L184.80464843750002,42.00520142584925L185.3434375,22.704480530992925L185.88222656250002,45.43842599888726L186.421015625,70.50926954164323L186.9598046875,51.237397662485385L188.0373828125,131.18693228739573L188.576171875,110.52789705271908L189.1149609375,132.44685391672454L189.65375,145.59822803512782L190.731328125,119.17467450135833L191.27011718749998,126.20444412389529L191.80890625,84.65450241183335L192.886484375,94.0389153894043L193.42527343749998,99.66956317595347L193.9640625,114.50137732864742L195.041640625,54.77170981064917L195.5804296875,64.67876356668266L196.6580078125,24.878141553470293L197.19679687500002,58.17309887438977L198.27437500000002,43.835695262131686L198.8131640625,103.86200910439476L199.35195312500002,128.44732114773157L200.42953125,97.4536541069078L200.9683203125,67.40402840163756L201.507109375,60.82767845924809L202.5846875,102.62672276064356L203.1234765625,139.13662560350187L203.662265625,161.04256730921688L204.2010546875,174.18613233264753L205.2786328125,136.32741707987674L205.81742187499998,113.61218792820767L206.3562109375,111.41352669923059L206.89499999999998,121.54775544261368L207.4337890625,161.94267069345662L207.97257812499998,128.98134009635888L208.5113671875,63.45968747127275L209.05015625,24.146695896217757L209.58894531250002,34.873278955992916L210.66652343750002,87.05408305868885L211.2053125,129.7930417823307L212.82167968750002,144.0059407544997L214.9768359375,186.84805814260105L215.515625,132.49409630382945L216.59320312499997,122.74267172460198L217.1319921875,82.5774389722541L217.67078125,127.10705533046489L218.74835937499998,73.76559287375245L219.2871484375,7.446337394929978L219.8259375,59.167441860031694L220.36472656249998,78.74667905832331L220.90351562499998,101.9476468580726L222.5198828125,81.55384953310748L223.058671875,35.00319313332189L223.59746093750002,52.81765356027808L224.13625000000002,40.622428073659734L225.75261718750002,67.61967078650673L226.29140625000002,60.95706389017122L226.8301953125,34.07559800958283L227.368984375,29.377194743247514L227.90777343750003,26.55815278344634L228.4465625,-20.87812665926196L230.06292968749997,-4.655664359355196L230.60171875,17.59186280265573L231.67929687499998,-3.373998904952412L232.21808593749998,-4.5230396674880975L232.756875,17.671437617772675L233.2956640625,42.418600250951854L233.83445312499998,68.6973740928754L234.37324218749998,50.15026039322472L234.91203125,39.02199217343264L235.989609375,-1.9693467632491046L237.60597656250002,-25.295416156882794L238.144765625,50.952865990966664L238.6835546875,131.01621328448778L239.76113281250002,144.73984365578906L240.299921875,141.54354561655205L240.8387109375,139.62576679300327L241.37750000000003,138.4750994988806L241.9162890625,149.21517538442635L242.455078125,167.08969717777484L242.9938671875,132.06955598694987L243.53265624999997,122.48794753447751L244.0714453125,82.42460445818432L244.610234375,127.01535462203128L245.14902343749998,153.7698047203378L245.68781249999998,181.27590026008778L247.30417968749998,220.64051010797823L247.84296874999998,198.5144217498833L248.3817578125,185.2387687350247L248.920546875,142.95899892129975L249.998125,140.47503877585845L251.07570312500002,58.90248119820478L252.15328125,55.726750137195L253.23085937500002,65.2517877626052L254.3084375,36.652432333046484L254.84722656250003,19.49281907531128L255.386015625,9.1970511206652L255.9248046875,48.76444461470671L256.46359375,72.50488071113165L257.54117187500003,98.20256784975763L258.0799609375,79.30680212812341L258.61875,102.28372069995268L259.1575390625,138.93082436708735L259.69632812500004,138.05813404333432L260.2351171875,183.27937411590185L260.77390625,153.2138384118421L261.31269531249995,123.74404072739677L264.00664062500005,117.49263837874403L265.08421875,148.0561749743671L265.62300781249996,97.76554092211643L266.7005859375,113.35896397634848L267.239375,88.40063980407959L267.77816406249997,119.17049956754575L268.316953125,114.74851368283342L268.8557421875,100.6648458899817L269.39453125,92.21464521427393L269.9333203125,52.83014680404114L270.472109375,74.94430202473558L271.01089843750003,76.78231889512791L271.5496875,89.31560527937941L272.0884765625,85.4051008479126L273.70484375,128.80365245586495L274.2436328125,177.72668516342185L275.32121093750004,207.0805047879609L276.93757812499996,190.3784185578745L277.47636718750005,157.47326507703724L278.5539453125,240.6733070029544L279.09273437499996,313.47723390129175L279.6315234375,254.21645602586977L280.1703125,264.40484356744577L280.7091015625,304.83225409720274L281.24789062499997,306.20479867226163L281.7866796875,284.16737289326477L282.32546875,259.5144411638506L282.8642578125,267.5836346502342L283.403046875,260.9946744800467L283.9418359375,222.72692037312933L284.48062500000003,222.65016965176434L285.0194140625,211.15069373816942L286.0969921875,169.9366301852027L286.63578125000004,122.34723952939373L287.713359375,139.53845940273098L288.79093750000004,149.85319132673658L289.868515625,144.61155421911891L290.94609375000005,164.32752447858712L291.4848828125,130.4122523674405L292.023671875,213.00622311518353L292.56246093749996,228.2482275590113L293.10125,214.50952848252257L293.6400390625,229.15021077942134L294.178828125,203.62024215274587L294.71761718749997,245.4775915055908L295.25640625,201.98619432643474L295.7951953125,255.95058829057024L296.333984375,276.87579918828703L296.8727734375,278.0004494648945L297.4115625,290.1057158928766L297.95035156250003,285.93839948764986L298.489140625,294.8684859065398L299.0279296875,277.36558523383L300.10550781250004,255.4333685681881L300.644296875,219.3901368260125L301.1830859375,220.64809952348935L301.72187499999995,221.40287714198038L302.26066406250004,290.46155050394293L302.799453125,274.7214239922686L303.3382421875,288.138300609311L303.87703124999996,273.3274740554878L304.41582031250005,264.4409781231939L304.954609375,247.67860430180804L305.4933984375,203.30680200416182L306.03218749999996,245.2895274164469L306.5709765625,247.61821013977269L307.6485546875,271.8763722978035L308.18734374999997,297.88469507340136L309.264921875,244.86093272913882L309.8037109375,247.3610533273862L310.3425,237.43064942431354L310.8812890625,231.47240708246997L311.42007812500003,216.4440361965994L311.9588671875,195.99653740306093L312.49765625,195.15851438895558L313.57523437500004,171.79474805644705L314.1140234375,226.3822950478082L315.19160156249995,201.9594927137846L315.73039062500004,152.99143330855895L316.2691796875,146.4944994082124L316.80796875,154.02681533002377L317.34675781249996,101.34792513550713L318.4243359375,81.19401649956654L318.963125,80.53214758002485L319.50191406249996,91.56550249032254L320.040703125,121.06941717929153L321.65707031249997,161.6556677354617L322.7346484375,208.8683705932042L323.2734375,271.51037031265616L324.351015625,274.78119213951925L324.88980468750003,276.74368523563874L325.42859375,255.06022856927166L326.506171875,242.05015456944977L327.04496093750004,234.24411016955335L328.1225390625,263.85191231567694L329.20011718750004,258.75564107931064L329.73890625,267.1283545995152L331.35527343750005,295.03588445442506L331.8940625,243.151646357753L332.4328515625,234.9050052425419L334.04921875,229.95702057340696L334.5880078125,192.67385176712116L335.12679687499997,181.73442674536903L335.6655859375,198.05467347510327L336.204375,150.6485417653485L336.7431640625,167.94971700632487L337.8207421875,144.01604414610748L338.8983203125,163.9702184347786L339.9758984375,141.6283450031764L341.0534765625,162.53759894902157L342.66984375000004,232.2814310641256L343.2086328125,251.24382859039926L344.28621093749996,251.19079084414736L344.82500000000005,182.53021218677333L345.3637890625,118.44996324955687L345.902578125,102.88571563001905L346.44136718749996,70.66326531550924L347.5189453125,62.783220607569476L348.057734375,69.4856700448299L348.59652343749997,107.82151771199432L349.1353125,130.82302631229294L349.6741015625,133.19345521045602L350.212890625,100.30133454453589L350.7516796875,114.88044014980015L351.29046875,123.62790351295546L351.82925781250003,83.10857804526944L352.368046875,104.56478625023864L352.9068359375,117.43851117322018L353.445625,102.2788443842236L354.523203125,58.868666306007675L355.0619921875,55.70646120186688L355.60078124999995,19.494760134577543L356.13957031250004,54.943070023047525L356.678359375,76.21205595613286L357.2171484375,77.54297125396793L357.75593749999996,66.91104417064795L358.29472656250005,71.962364182677L358.833515625,63.562679927876694L359.3723046875,104.26772364182236L359.91109374999996,82.94589560336225L360.4498828125,81.58327504230559L360.988671875,92.19617896769425L361.5274609375,110.01734680369022L362.06624999999997,86.39566950048298L362.6050390625,72.22266311855535L363.143828125,40.83495754661659L363.6826171875,33.4328104654727L365.29898437500003,63.30590022158466L365.8377734375,35.48489980843086L367.9929296875,64.53715382736286L369.07050781249995,59.10755371468326L369.60929687500004,67.28026990909818L370.1480859375,14.9856198781502L370.686875,6.49273160237352L371.22566406249996,104.34013265132532L371.76445312500005,151.61809701867702L372.84203125,77.0417416246669L373.38082031249996,100.92468439787714L373.919609375,149.56882806661798L375.53597656249997,87.24265651544756L376.074765625,72.73085532753409L377.15234375,86.88472713882807L379.3075,72.51609770155908L379.8462890625,75.32539630122696L380.385078125,145.63973147064397L380.92386718750004,153.51395456748438L381.46265625,181.1223901683774L382.0014453125,186.23402604814547L382.54023437499995,189.30100757600135L383.07902343750004,156.82681848790844L383.6178125,183.11010852062853L384.1566015625,175.9961807974735L385.23417968750005,125.98296989675131L385.77296875,107.40551961833734L386.3117578125,153.45732919889414L386.85054687499996,123.89013519961811L387.3893359375,129.03372054284785L387.928125,166.4342497535971L388.4669140625,143.10676379445928L390.08328125,163.42465022378803L390.6220703125,164.1849058193659L391.160859375,96.012303167098L394.39359375000004,100.8535958425664L395.471171875,103.75837144784741L396.00996093749995,116.9546622917904L396.54875000000004,159.18681480296263L397.0875390625,161.6422045668756L397.626328125,94.48668241560706L398.16511718749996,54.193369124837766L398.70390625000005,7.133479407595594L399.2426953125,47.52630158686988L399.781484375,60.33151863241346L400.32027343749996,79.44512512175237L400.8590625,148.11156876295595L401.3978515625,74.93782467123425L401.936640625,53.89453074023674L402.47542968749997,87.03635786721573L403.01421875,152.66630841023724L403.5530078125,123.41552272642893L404.091796875,105.86505131614555L405.169375,141.07962273680144L405.70816406250003,116.4635113223658L406.246953125,55.94899020687853L407.32453125,134.01388781403165L408.402109375,112.2240703687121L409.47968749999995,87.71970363949613L410.01847656250004,61.563658121197136L410.557265625,57.32345629098385L411.63484374999996,43.32590971208975L412.17363281250005,69.24175976956475L412.712421875,61.93031728000604L413.2512109375,80.40440431031287L413.78999999999996,68.62790400445492L414.3287890625,95.87638182575158L414.867578125,89.34156677573753L415.4063671875,108.30457948852114L415.94515624999997,108.22896163541863L416.4839453125,131.0674926663525L417.022734375,121.88670954211746L417.5615234375,70.63338540074889L418.6391015625,28.450914653903467L419.17789062500003,26.002384729834976L419.7166796875,150.36030253261362L420.25546875,133.46239546186922L420.7942578125,134.77707670019686L421.33304687500004,135.56588544319015L421.8718359375,113.15526894620066L422.410625,111.13937531002635L422.94941406249995,87.06888660427806L423.48820312500004,106.94097138564547L424.0269921875,84.54984424965447L424.56578125,116.86002223488575L425.10457031249996,136.2461290260278L425.64335937500005,113.56341509590328L426.7209375,122.83768848062387L427.25972656249996,94.08787450663988L427.798515625,156.89721839389009L428.87609375,171.6989229834514L429.41488281249997,157.71899321314947L429.953671875,172.19198787500542L430.4924609375,226.6206389389465L431.5700390625,202.10249904846427L432.108828125,130.1933353665731L432.6476171875,121.36221516224816L433.18640624999995,184.6922990492761L433.72519531250003,176.9454951146637L434.263984375,137.98303474908806L434.80277343750004,80.29118052493128L435.8803515625,125.73530026207284L436.9579296875,72.94253983271723L437.49671874999996,29.836407313091016L438.03550781250004,49.717582068141176L439.651875,38.762385178385834L441.80703124999997,89.38754679212457L442.34582031250005,131.1931200223872L442.884609375,76.2172316889058L443.4233984375,134.74435644122863L443.9621875,135.54625328781412L444.5009765625,124.5739659149961L445.039765625,83.67621548649548L445.5785546875,70.59099071016614L447.19492187500003,51.286430363594214L447.7337109375,16.842741631617233L448.27250000000004,53.351858921277945L448.8112890625,29.51247502825011L449.88886718749995,49.52322269724158L450.42765625,50.09919503661049L450.96644531249996,38.991352959465765L452.0440234375,89.52492746077912L452.58281250000005,74.10021789473632L453.1216015625,41.96149041231859L453.660390625,34.10873018489061L454.19917968749996,17.966597786417708L454.73796875,88.34055061896966L455.27675781249997,130.56492231849754L455.81554687500005,155.89954533821265L456.3543359375,171.10031915004825L456.893125,157.35983091310428L457.4319140625,183.42991597574604L457.970703125,187.61854153256502L458.5094921875,201.5851423474225L459.04828125,175.65072483153213L459.5870703125,148.63664884122852L460.12585937499995,143.88162872781737L461.74222656250004,175.34299466457225L462.281015625,125.59105821701057L463.35859374999995,141.48475061530104L463.8973828125,128.13706431148822L464.43617187499996,211.64111028160886L464.97496093750004,238.8596361208925L465.51375,209.44589735763023L466.05253906250005,283.28736263332956L466.591328125,327.5922417987491L467.1301171875,308.4303150311717L467.66890624999996,251.18830470380104L468.2076953125,159.64481875978174L468.74648437499997,196.23138494577682L469.8240625,183.86894665256244L470.3628515625,153.56758193384508L470.901640625,135.386763102613L471.4404296875,158.79264980868356L471.97921875,195.720083575113L473.056796875,160.6782640873754L473.59558593749995,139.65317239472955L474.13437500000003,127.03811737914862L474.6731640625,62.29375384094328L475.21195312500004,46.30808824206874L475.7507421875,105.34544489236026L476.28953125,95.02300461570765L476.82832031249995,54.51516244490467L477.367109375,87.40873689002306L477.90589843749996,95.69145607632474L478.44468750000004,66.34670958329761L478.9834765625,60.19328716824081L479.52226562500005,56.50123371921331L481.13863281249996,65.71647791181458L482.21621093749997,116.9904786942045L483.2937890625,204.95315891123695L484.91015625,246.2773415606871L485.4489453125,191.01261887871496L485.987734375,157.8537852695366L486.5265234375,218.01771737566685L487.06531249999995,174.05684436770608L487.60410156250003,159.13374604369733L488.142890625,218.7856938401584L488.68167968750004,163.0871539843767L489.22046875,163.9824080757191L489.7592578125,210.2644147973553L490.29804687499995,226.60314256831936L490.8368359375,190.6615249640735L491.37562499999996,169.0965544015244L492.99199218750005,110.38976857841243L493.53078125,40.851319079743696L494.0695703125,10.58167486130527L495.1471484375,38.16474259707631L495.68593749999997,54.714583238534026L496.763515625,133.2732436330282L497.3023046875,77.46530585529537L497.84109375,43.98054318865894L498.3798828125,23.889685588673796L498.918671875,80.463927038299L499.4574609375,91.52457016528702L501.07382812500003,121.04485778426529L501.6126171875,138.75703035565553L502.15140625000004,137.95385763647195L502.6901953125,126.0185285241957L503.76777343749995,176.05561080441865L504.3065625,137.44910416293777L504.84535156249996,194.34443244968816L505.9229296875,239.91210568376277L506.46171875000005,255.82223336218811L507.0005078125,219.62345570240595L507.539296875,209.33466536856093L508.07808593749996,180.30043864421356L508.616875,139.99600086681636L509.15566406249997,115.81333820037968L509.69445312500005,158.5020203481195L510.2332421875,195.54570589878278L510.77203125,126.25925947676747L511.849609375,141.88567137115686L512.3883984375,219.89027451740841L512.9271875,220.94818213832687L513.4659765624999,233.0134029729072L514.004765625,297.4278660025023L514.5435546875001,347.52996930102216L515.0823437500001,503.3953178185989L515.6211328125,413.91216064308816L517.2375,314.477412070946L517.7762890624999,254.81656292766067L518.8538671875,276.19538397054623L519.3926562500001,289.0226765962727L519.9314453125,308.1724776524763L520.470234375,228.14970053379827L521.0090234375,191.58945974335757L521.5478125,192.51426779313528L522.6253906249999,273.1283848946391L523.1641796875,241.43762288389922L523.7029687500001,210.99268941543917L524.2417578125,146.98087506752577L524.780546875,120.0042627208037L525.3193359375,172.4470513223867L525.858125,158.16787021651228L526.3969140625,172.46131407702475L527.4744921875,169.6069041313096L528.0132812500001,145.01035642109173L528.5520703125001,256.0794635521725L529.6296484375,265.52264808322906L530.1684375,225.44370453503217L530.7072265625,247.14119267294154L531.2460156249999,214.41483128885798L531.7848046875,194.7790144584095L532.32359375,205.8814261029358L533.401171875,223.97334935166765L533.9399609375,211.94460155811137L534.47875,204.72735288197927L535.0175390625,211.85042915707928L535.5563281249999,170.35647143655189L536.0951171874999,202.65837655183728L536.63390625,199.15561787821318L537.1726953125001,185.62348641202263L537.711484375,143.1898295275067L538.2502734375,129.16011165880838L538.7890625,189.37103694721222L539.3278515625,259.81197012506095L540.4054296874999,187.70291975532317L541.4830078125001,178.75186753829024L542.0217968750001,184.8117124700899L542.5605859375,199.9010449099391L543.099375,243.24607315990835L543.6381640625,292.13699185268035L544.176953125,264.2962125394933L545.25453125,316.19755174245233L545.7933203125,313.02397725941466L546.3321093750001,311.11983256959536L546.8708984375,344.2917237605152L547.4096875,375.6482839558299L547.9484765625,337.2639403254235L549.0260546874999,337.1172358899717L550.1036328125,337.02921322869565L550.6424218750001,314.09249788914457L551.72,311.76094494743165L552.2587890625,321.81543866317656L552.797578125,304.96423314982655L554.4139453125,283.42303357979716L554.9527343750001,293.3592663618183L555.4915234375001,276.4600535069922L556.0303125,289.1814783181402L556.5691015625,285.38385694280635L557.6466796875,317.41966212241914L558.1854687499999,268.01238922056393L558.7242578125,226.9375492174331L559.263046875,213.7231214775756L559.8018359375001,160.04961056682868L560.340625,150.72940576317745L560.8794140625,122.25338113819471L561.9569921875,139.4821443680099L562.4957812499999,149.8194023059023L563.573359375,167.45223333065383L564.1121484375001,166.60145568348867L564.6509375,188.97489083797996L565.1897265625,236.69038071673614L566.2673046875,173.82996611032993L566.80609375,113.22981560369577L567.3448828124999,179.8128593141397L567.883671875,174.01783127358019L568.9612500000001,181.97129071126056L570.038828125,175.31289011185103L571.11640625,125.57299548538113L571.6551953124999,152.9043892383411L572.193984375,180.75665097089637L572.7327734375,197.46800801041968L573.2715625000001,218.9252984961596L575.42671875,208.9157710448148L575.9655078124999,225.79395631679006L576.5042968749999,247.35134374199467L577.0430859375,317.48405594472086L577.5818750000001,336.6797815235613L578.659453125,268.1379845992298L579.1982421875,227.01290644463754L579.73703125,213.7683358138999L580.2758203125,171.50721543064262L580.8146093749999,191.91834668627234L581.3533984375,158.39722195406935L581.8921875000001,149.73797259551532L582.4309765625001,178.856800985191L582.969765625,207.75857428101915L583.5085546875,328.0427722729371L584.5861328125,320.13110957770886L585.1249218749999,326.8375374413396L585.6637109375,342.29187042153745L586.2025,282.93571420004145L586.7412890625001,258.77544594791334L587.280078125,244.27928499663636L587.8188671875,212.6976866830782L588.35765625,228.06310569974812L588.8964453125,248.7128333717695L589.4352343749999,272.5331462370083L589.9740234374999,298.2787594369143L590.5128125,302.27270187609514L591.0516015625001,304.66906733959706L591.590390625,271.81545783164006L592.1291796875,274.96424465091445L592.66796875,276.8535167424726L593.2067578125,312.30145800221885L594.2843359374999,333.5702227580633L595.3619140625001,312.01710360676844L595.9007031250001,276.2242795919479L596.4394921875,346.23829371671053L596.97828125,353.93232418676L597.5170703125,347.11826620677357L598.055859375,365.89078394281887L598.5946484374999,331.4094403176152L599.1334375,322.15111040451404L599.6722265625,316.5961124566566L600.2110156250001,301.8326374259178L601.28859375,338.7194066743087L601.8273828125,303.67613769449304L602.366171875,259.7662745638149L602.9049609374999,244.87378216617404L603.9825390625,315.9975189992236L604.5213281250001,232.84472534184337L605.0601171875,205.83695089020404L605.59890625,143.88743195238965L606.1376953125,152.46257485652683L606.676484375,157.60766059901084L607.7540624999999,114.94985777767039L608.2928515625,135.1000303517019L609.3704296875001,181.50451190092565L609.90921875,163.60234656362908L610.4480078125,210.03637789010463L610.986796875,272.21117469079644L611.5255859375,320.9465290332276L612.0643749999999,270.12850936705235L613.141953125,205.3233195625357L614.21953125,212.20800916540819L615.8358984375,193.45492118433967L616.3746874999999,193.6335446577212L616.9134765624999,193.74071874174842L617.452265625,319.632058949378L618.52984375,292.2237290595313L619.0686328125,332.95406165446855L619.607421875,288.78645442056296L620.685,239.4019883374358L621.2237890624999,209.7713086875562L621.762578125,180.5624246356107L622.3013671875001,208.7819484712709L623.3789453125,271.45851703949455L623.917734375,251.8891276515786L624.4565234375,297.3228245476792L624.9953125,244.52381041370057L625.5341015624999,270.0197324621669L626.072890625,273.88680942922076L626.6116796875,276.207055609458L627.1504687500001,277.599203317597L627.6892578125,267.0040156804595L628.7668359375,203.4486233505767L629.305625,211.08319143823772L630.3832031249999,192.78003054804066L631.4607812500001,193.22861027593848L631.9995703125,159.18338010786906L633.0771484375,195.9545217546243L633.6159375,195.13330499988703L634.1547265625,171.77962242301084L634.6935156249999,203.51226714370608L635.2323046875,199.66795223333938L635.7710937500001,197.36136328711936L636.3098828125001,207.43083540016002L636.848671875,202.0190931872134L637.3874609375,233.08642586424696L637.92625,320.3555814800818L638.4650390625,361.2865985875666L639.0038281249999,340.0774053664898L640.08140625,304.4909369098017L640.6201953125001,294.5695320978049L641.158984375,288.6166892106101L641.6977734375,330.78983774511744L642.2365625,276.03449459418624L642.7753515625,323.24052097525987L643.8529296874999,294.38880627506046L644.9305078125001,277.07777745493746L645.469296875,335.3199161724816L646.546875,358.811773922242L647.0856640625,350.04593604805785L648.1632421874999,424.84566559518305L650.8571875,387.53295931883366L651.3959765625,355.8252218052451L651.934765625,302.50915051102726L653.01234375,281.94998399652417L653.5511328125,269.6144840878223L654.0899218750001,307.958038409432L654.6287109375,353.8480727451734L655.7062890625,415.69647135142645L656.245078125,418.491132510375L657.3226562499999,328.6552714533424L658.4002343750001,286.2071802998873L658.9390234375,272.16880186983684L660.0166015625,252.31529854978396L660.555390625,240.40319655776207L661.0941796875,256.1168878865811L661.6329687499999,334.17385869348226L662.7105468750001,381.00804117762954L663.788125,386.2246489253357L664.3269140625,286.43442877827675L664.865703125,283.73562721888993L665.4044921875,270.6858700212385L665.9432812499999,274.28649196466694L666.4820703125,242.13248712591098L667.020859375,268.58493848949314L667.5596484375001,284.4564093076408L668.0984375,316.86319354131484L668.6372265625,324.8767878195016L669.7148046875,295.3705663816022L670.2535937499999,311.98121152367065L670.7923828124999,310.4941731281424L671.331171875,309.60195009082537L672.9475390625,263.3217620016143L673.486328125,281.2985034149184L674.0251171875,269.2235957388621L674.56390625,239.09474939043304L675.1026953124999,198.15648905733846L676.1802734375001,242.19933964835127L676.7190625000001,245.76409747891856L677.2578515625,270.76390470129604L677.796640625,308.64769077751293L678.3354296875,354.26186416602525L681.0293750000001,370.1769427183715L681.5681640625,311.1201830589146L682.106953125,241.3717492584241L682.6457421875,268.1284957689928L683.18453125,375.695201427744L683.7233203124999,405.9208468181899L686.417265625,385.9795578851271L686.9560546875,354.89318094502283L687.49484375,382.0091582665328L688.0336328125,398.2787446594356L688.5724218749999,373.72611849037725L689.1112109375,324.68016478412756L689.6500000000001,295.25259256038106L690.1887890625001,277.5960492261332L690.727578125,255.5716469635683L691.2663671875,310.9628123968924L691.80515625,367.0814133996739L692.3439453125,366.4381959965348L692.8827343749999,308.87693502580765L693.4215234375,308.6316072294295L694.4991015625001,274.1929817655461L695.5766796875,253.52980648721277L696.11546875,195.3640978346353L696.6542578125,183.34857438587588L697.1930468749999,176.13926031662027L697.7318359374999,206.12804987987994L698.8094140625001,121.17818960340806L699.8869921875,161.72093118992666L700.42578125,220.33800492789598L700.9645703125,266.9616746514568L701.503359375,260.62149848078025L702.5809375,348.30710131202767L703.1197265625001,412.37188849154717L704.1973046875,402.9454633906092L704.73609375,353.6422479862861L706.3524609374999,312.6298424816794L706.89125,322.3367771837203L708.5076171875,282.41608373812386L709.04640625,235.57976592796905L709.5851953125,264.6533057707296L711.2015624999999,327.86523316196184L711.7403515625,308.594109849101L712.8179296875,342.7762901282153L713.35671875,306.11026776684025L713.8955078125,272.68017808798595L714.434296875,309.7974548095253L714.9730859375,309.1839190996535L715.5118749999999,308.815797673737L716.0506640625,239.98911802731755L716.5894531250001,210.12358650148525L717.1282421875001,192.2042675859826L717.66703125,215.76705424150066L718.744609375,195.59034822999678L719.2833984375,240.6596551519479L719.8221874999999,210.52590877626346L720.899765625,215.32956269364487L721.4385546875001,195.32785330128326L721.97734375,183.32682766586962L722.5161328125,141.81183427980835L723.054921875,116.90283824817818L723.5937109375,124.84134237198225L724.1324999999999,118.15101936549857L724.6712890624999,91.27587303756802L725.210078125,98.01173776484511L725.7488671875001,113.5066820819857L726.28765625,88.48927066746519L727.365234375,96.33977634278506L727.9040234375,78.18912722393826L728.4428125,67.29873775262851L728.9816015624999,37.88060232705062L729.520390625,31.660197333723243L730.0591796875001,16.49747807571731L730.5979687500001,30.283748263702513L731.1367578125,38.55551037648707L731.675546875,123.57779991580003L732.2143359375,128.8463193725603L732.753125,154.86838357065358L733.2919140624999,147.6206695654642L733.830703125,131.81861568157953L734.3694921875,122.33738335125861L735.4470703125,105.21816769104011L735.985859375,72.06273655212682L736.5246484375,52.16947786877391L737.0634375,51.686948139534806L738.1410156249999,85.71180830679789L738.6798046875,106.1267244071557L740.8349609375,106.92224858659773L741.9125390625,176.0283191038842L742.4513281249999,251.80633941906254L743.5289062500001,251.52829734134366L744.0676953125001,217.04709408990422L744.606484375,207.78884840105664L745.1452734375,190.80342472573201L745.6840625,146.29779251572577L746.7616406249999,211.0841217233853L747.3004296875,192.7805887191243L747.83921875,261.8577011882033L748.3780078125001,211.81426013599895L748.916796875,261.84742777630873L749.4555859375,268.9834266177108L749.994375,284.6955021845648L750.5331640625,282.69227126266605L751.0719531249999,270.0598564475074L751.6107421874999,216.73555329158145L752.14953125,161.85706965524037L752.6883203125001,163.2443574782406L753.227109375,141.19282842924866L753.7658984375,162.27628900466823L754.3046875,232.12464509751524L754.8434765625,205.40490274360386L755.382265625,200.8035335932748L756.45984375,220.9266138458661L756.9986328125001,210.11656025463702L758.0762109375,192.20005183787697L758.615,204.33404853061455L759.1537890625,188.7305448034618L760.2313671874999,190.79891882919446L760.77015625,157.72556523982266L761.3089453125,149.33497856697056L761.8477343750001,258.67423683969656L762.3865234375,312.82436632256935L762.9253125,356.76786949305585L764.002890625,360.2500696525721L765.0804687499999,328.0250117434672L766.1580468750001,308.68997699800417L767.7744140625,308.51943241274745L768.313203125,331.30100740438047L768.8519921875,367.85385414214744L769.3907812499999,286.8424281703832L769.9295703125,238.23557258732467L770.4683593750001,186.18755749469582L771.5459375,189.27312644393487L772.0847265625,179.69399155145564L772.623515625,162.51603435394708L773.1623046875,197.95411430227603L773.7010937499999,276.39229280012034L774.2398828125,312.0247236368075L774.778671875,207.60009560034675L775.3174609375001,259.318929054924L775.85625,256.0358511228655L776.3950390625,231.18210262083832L777.4726171875,170.52499925279122L778.0114062499999,145.56121349397577L778.5501953124999,153.46684378147856L779.6277734375001,135.32632021119144L780.1665625,113.01152980699979L780.7053515625,133.93703356929458L781.244140625,146.49233582667807L781.7829296875,142.59504091908545L782.32171875,83.05838422693135L782.8605078124999,81.65076821644703L783.399296875,80.80619861015644L783.9380859375001,68.86898058436272L784.4768750000001,61.70664976888152L785.0156640625,34.52534953680898L785.554453125,6.786093135544441L786.0932421875,93.08567330921016L786.63203125,87.66714166580773L787.709609375,153.04477868938588L788.2483984375,157.9569828987246L788.7871875000001,183.78820716712315L789.3259765625,233.57837051421387L789.864765625,206.27713799362144L790.4035546875,201.32687474328858L790.94234375,186.92624053107116L791.4811328124999,201.16976174652618L792.0199218749999,83.88883871859422L793.0975000000001,47.83466290663991L793.6362890625,94.83091342908195L794.7138671875,100.14476199975515L796.3302343749999,149.10087462774476L796.8690234375,144.16016419972385" style="fill: none;" fill="none"></path></g></g></g></g><g opacity="0.2"><g><g><g><path stroke="rgb(255, 112, 67)" stroke-width="2px" d="M108.835390625,279.6874248798097L109.91296875,50.96315354567209L110.990546875,279.6874248798097L111.5293359375,108.115534855769L112.6069140625,251.11123422476126L113.6844921875,50.96315354567209L114.22328125,108.115534855769L114.7620703125,79.53934420072056L115.300859375,108.115534855769L115.83964843749999,108.115534855769L116.3784375,251.11123422476126L116.91722656249999,165.3252892127409L117.456015625,251.11123422476126L117.9948046875,308.26361553485816L118.53359375000001,108.115534855769L119.0723828125,-149.2423001802921L119.61117187500001,136.74909855769246L120.1499609375,108.115534855769L120.68875000000001,108.115534855769L121.2275390625,165.3252892127409L121.76632812499999,136.74909855769246L122.84390624999999,-34.82279146634828L124.4602734375,22.329589843748664L124.9990625,-34.82279146634828L125.53785156250001,22.329589843748664L126.076640625,-63.45635516827171L126.61542968750001,50.96315354567209L127.6930078125,193.90147986778936L129.309375,-63.45635516827171L130.92574218750002,-63.45635516827171L131.46453125,22.329589843748664L132.00332031250002,79.53934420072056L132.542109375,136.74909855769246L133.0808984375,-34.82279146634828L133.6196875,136.74909855769246L134.697265625,-34.82279146634828L135.2360546875,-6.246600811299766L136.852421875,22.329589843748664L137.39121093749998,50.96315354567209L137.93,22.329589843748664L138.46878906249998,22.329589843748664L139.007578125,79.53934420072056L140.62394531249998,-92.03254582332013L141.162734375,-34.82279146634828L141.7015234375,50.96315354567209L142.24031250000002,-92.03254582332013L142.7791015625,50.96315354567209L143.31789062500002,79.53934420072056L143.8566796875,22.329589843748664L144.39546875000002,22.329589843748664L144.9342578125,-34.82279146634828L145.47304687500002,165.3252892127409L146.550625,-63.45635516827171L147.0894140625,-120.60873647836857L147.628203125,79.53934420072056L148.1669921875,22.329589843748664L149.2445703125,222.53504356971285L149.783359375,50.96315354567209L150.3221484375,-63.45635516827171L150.86093749999998,165.3252892127409L151.93851562499998,165.3252892127409L152.4773046875,222.53504356971285L153.5548828125,-6.246600811299766L154.09367187499998,79.53934420072056L154.6324609375,22.329589843748664L155.17125,136.74909855769246L155.71003906250002,-34.82279146634828L156.248828125,108.115534855769L157.32640625,165.3252892127409L157.86519531250002,79.53934420072056L158.403984375,50.96315354567209L158.94277343750002,165.3252892127409L160.0203515625,108.115534855769L160.559140625,108.115534855769L161.63671875,-6.246600811299766L162.714296875,-34.82279146634828L163.2530859375,22.329589843748664L163.791875,50.96315354567209L164.33066406249998,108.115534855769L164.869453125,50.96315354567209L165.40824218749998,193.90147986778936L167.024609375,22.329589843748664L167.56339843749998,50.96315354567209L169.17976562500002,136.74909855769246L170.25734375000002,50.96315354567209L170.7961328125,79.53934420072056L171.33492187500002,365.4733698918301L171.8737109375,336.8971792367816L172.41250000000002,251.11123422476126L172.9512890625,279.6874248798097L173.490078125,136.74909855769246L174.56765625,165.3252892127409L175.1064453125,50.96315354567209L175.645234375,50.96315354567209L176.1840234375,50.96315354567209L176.7228125,22.329589843748664L177.80039062499998,222.53504356971285L178.3391796875,-34.82279146634828L179.95554687499998,50.96315354567209L180.4943359375,79.53934420072056L181.5719140625,136.74909855769246L182.110703125,136.74909855769246L183.18828125,-6.246600811299766L184.265859375,-6.246600811299766L184.80464843750002,50.96315354567209L185.3434375,-6.246600811299766L185.88222656250002,79.53934420072056L186.421015625,108.115534855769L186.9598046875,22.329589843748664L188.0373828125,251.11123422476126L188.576171875,79.53934420072056L189.1149609375,165.3252892127409L189.65375,165.3252892127409L190.731328125,79.53934420072056L191.27011718749998,136.74909855769246L191.80890625,22.329589843748664L192.886484375,108.115534855769L193.42527343749998,108.115534855769L193.9640625,136.74909855769246L195.041640625,-34.82279146634828L195.5804296875,79.53934420072056L196.6580078125,-34.82279146634828L197.19679687500002,108.115534855769L198.27437500000002,22.329589843748664L198.8131640625,193.90147986778936L199.35195312500002,165.3252892127409L200.42953125,50.96315354567209L200.9683203125,22.329589843748664L201.507109375,50.96315354567209L202.5846875,165.3252892127409L203.1234765625,193.90147986778936L203.662265625,193.90147986778936L204.2010546875,193.90147986778936L205.2786328125,79.53934420072056L205.81742187499998,79.53934420072056L206.3562109375,108.115534855769L206.89499999999998,136.74909855769246L207.4337890625,222.53504356971285L207.97257812499998,79.53934420072056L208.5113671875,-34.82279146634828L209.05015625,-34.82279146634828L209.58894531250002,50.96315354567209L210.66652343750002,165.3252892127409L211.2053125,193.90147986778936L212.82167968750002,165.3252892127409L214.9768359375,251.11123422476126L215.515625,50.96315354567209L216.59320312499997,108.115534855769L217.1319921875,22.329589843748664L217.67078125,193.90147986778936L218.74835937499998,-6.246600811299766L219.2871484375,-92.03254582332013L219.8259375,136.74909855769246L220.36472656249998,108.115534855769L220.90351562499998,136.74909855769246L222.5198828125,50.96315354567209L223.058671875,-34.82279146634828L223.59746093750002,79.53934420072056L224.13625000000002,22.329589843748664L225.75261718750002,108.115534855769L226.29140625000002,50.96315354567209L226.8301953125,-6.246600811299766L227.368984375,22.329589843748664L227.90777343750003,22.329589843748664L228.4465625,-92.03254582332013L229.524140625,22.329589843748664L230.06292968749997,-6.246600811299766L230.60171875,50.96315354567209L231.67929687499998,-34.82279146634828L232.21808593749998,-6.246600811299766L232.756875,50.96315354567209L233.2956640625,79.53934420072056L233.83445312499998,108.115534855769L234.37324218749998,22.329589843748664L234.91203125,22.329589843748664L235.989609375,-63.45635516827171L237.60597656250002,-6.246600811299766L238.144765625,165.3252892127409L238.6835546875,251.11123422476126L239.76113281250002,165.3252892127409L240.299921875,136.74909855769246L240.8387109375,136.74909855769246L241.37750000000003,136.74909855769246L241.9162890625,165.3252892127409L242.455078125,193.90147986778936L242.9938671875,79.53934420072056L243.53265624999997,108.115534855769L244.0714453125,22.329589843748664L244.610234375,193.90147986778936L245.14902343749998,193.90147986778936L245.68781249999998,222.53504356971285L247.30417968749998,279.6874248798097L247.84296874999998,165.3252892127409L248.3817578125,165.3252892127409L248.920546875,79.53934420072056L249.998125,136.74909855769246L251.07570312500002,-63.45635516827171L252.15328125,50.96315354567209L253.23085937500002,79.53934420072056L254.3084375,-6.246600811299766L255.386015625,-6.246600811299766L255.9248046875,108.115534855769L256.46359375,108.115534855769L257.54117187500003,136.74909855769246L258.0799609375,50.96315354567209L258.61875,136.74909855769246L259.1575390625,193.90147986778936L259.69632812500004,136.74909855769246L260.2351171875,251.11123422476126L260.77390625,108.115534855769L261.31269531249995,79.53934420072056L264.00664062500005,108.115534855769L265.08421875,193.90147986778936L265.62300781249996,22.329589843748664L266.7005859375,136.74909855769246L267.239375,50.96315354567209L267.77816406249997,165.3252892127409L268.316953125,108.115534855769L268.8557421875,79.53934420072056L269.39453125,79.53934420072056L269.9333203125,-6.246600811299766L270.472109375,108.115534855769L271.01089843750003,79.53934420072056L271.5496875,108.115534855769L272.0884765625,79.53934420072056L273.70484375,193.90147986778936L274.2436328125,251.11123422476126L275.32121093750004,251.11123422476126L276.93757812499996,165.3252892127409L277.47636718750005,108.115534855769L278.5539453125,365.4733698918301L279.09273437499996,422.683124248802L279.6315234375,165.3252892127409L280.1703125,279.6874248798097L280.7091015625,365.4733698918301L281.24789062499997,308.26361553485816L281.7866796875,251.11123422476126L282.32546875,222.53504356971285L282.8642578125,279.6874248798097L283.403046875,251.11123422476126L283.9418359375,165.3252892127409L284.48062500000003,222.53504356971285L285.0194140625,193.90147986778936L286.0969921875,108.115534855769L286.63578125000004,50.96315354567209L287.713359375,165.3252892127409L288.79093750000004,165.3252892127409L289.868515625,136.74909855769246L290.94609375000005,193.90147986778936L291.4848828125,79.53934420072056L292.023671875,336.8971792367816L292.56246093749996,251.11123422476126L293.10125,193.90147986778936L293.6400390625,251.11123422476126L294.178828125,165.3252892127409L294.71761718749997,308.26361553485816L295.25640625,136.74909855769246L295.7951953125,336.8971792367816L296.333984375,308.26361553485816L296.8727734375,279.6874248798097L297.4115625,308.26361553485816L297.95035156250003,279.6874248798097L298.489140625,308.26361553485816L299.0279296875,251.11123422476126L300.10550781250004,222.53504356971285L300.644296875,165.3252892127409L301.1830859375,222.53504356971285L301.72187499999995,222.53504356971285L302.26066406250004,394.0495605468785L302.799453125,251.11123422476126L303.3382421875,308.26361553485816L303.87703124999996,251.11123422476126L304.41582031250005,251.11123422476126L304.954609375,222.53504356971285L305.4933984375,136.74909855769246L306.03218749999996,308.26361553485816L306.5709765625,251.11123422476126L307.6485546875,308.26361553485816L308.18734374999997,336.8971792367816L309.264921875,165.3252892127409L309.8037109375,251.11123422476126L310.3425,222.53504356971285L310.8812890625,222.53504356971285L311.42007812500003,193.90147986778936L311.9588671875,165.3252892127409L312.49765625,193.90147986778936L313.57523437500004,136.74909855769246L314.1140234375,308.26361553485816L315.19160156249995,165.3252892127409L315.73039062500004,79.53934420072056L316.2691796875,136.74909855769246L316.80796875,165.3252892127409L317.34675781249996,22.329589843748664L318.4243359375,50.96315354567209L318.963125,79.53934420072056L319.50191406249996,108.115534855769L320.040703125,165.3252892127409L321.65707031249997,222.53504356971285L322.7346484375,279.6874248798097L323.2734375,365.4733698918301L324.351015625,279.6874248798097L324.88980468750003,279.6874248798097L325.42859375,222.53504356971285L326.506171875,222.53504356971285L327.04496093750004,222.53504356971285L328.1225390625,308.26361553485816L329.20011718750004,251.11123422476126L329.73890625,279.6874248798097L331.35527343750005,336.8971792367816L331.8940625,165.3252892127409L332.4328515625,222.53504356971285L334.04921875,222.53504356971285L334.5880078125,136.74909855769246L335.12679687499997,165.3252892127409L335.6655859375,222.53504356971285L336.204375,79.53934420072056L336.7431640625,193.90147986778936L337.8207421875,108.115534855769L338.8983203125,193.90147986778936L339.9758984375,108.115534855769L341.0534765625,193.90147986778936L342.66984375000004,336.8971792367816L343.2086328125,279.6874248798097L344.28621093749996,251.11123422476126L344.82500000000005,79.53934420072056L345.3637890625,22.329589843748664L345.902578125,79.53934420072056L346.44136718749996,22.329589843748664L347.5189453125,50.96315354567209L348.057734375,79.53934420072056L348.59652343749997,165.3252892127409L349.1353125,165.3252892127409L349.6741015625,136.74909855769246L350.212890625,50.96315354567209L350.7516796875,136.74909855769246L351.29046875,136.74909855769246L351.82925781250003,22.329589843748664L352.368046875,136.74909855769246L352.9068359375,136.74909855769246L353.445625,79.53934420072056L354.523203125,-6.246600811299766L355.0619921875,50.96315354567209L355.60078124999995,-34.82279146634828L356.13957031250004,108.115534855769L356.678359375,108.115534855769L357.2171484375,79.53934420072056L357.75593749999996,50.96315354567209L358.29472656250005,79.53934420072056L358.833515625,50.96315354567209L359.3723046875,165.3252892127409L359.91109374999996,50.96315354567209L360.4498828125,79.53934420072056L360.988671875,108.115534855769L361.5274609375,136.74909855769246L362.06624999999997,50.96315354567209L362.6050390625,50.96315354567209L363.143828125,-6.246600811299766L363.6826171875,22.329589843748664L365.29898437500003,108.115534855769L365.8377734375,-6.246600811299766L367.9929296875,108.115534855769L369.07050781249995,50.96315354567209L369.60929687500004,79.53934420072056L370.1480859375,-63.45635516827171L370.686875,-6.246600811299766L371.22566406249996,251.11123422476126L371.76445312500005,222.53504356971285L372.84203125,-34.82279146634828L373.38082031249996,136.74909855769246L373.919609375,222.53504356971285L375.53597656249997,-6.246600811299766L376.074765625,50.96315354567209L377.15234375,108.115534855769L379.3075,50.96315354567209L379.8462890625,79.53934420072056L380.385078125,251.11123422476126L380.92386718750004,165.3252892127409L381.46265625,222.53504356971285L382.0014453125,193.90147986778936L382.54023437499995,193.90147986778936L383.07902343750004,108.115534855769L383.6178125,222.53504356971285L384.1566015625,165.3252892127409L385.23417968750005,50.96315354567209L385.77296875,79.53934420072056L386.3117578125,222.53504356971285L386.85054687499996,79.53934420072056L387.3893359375,136.74909855769246L387.928125,222.53504356971285L388.4669140625,108.115534855769L390.08328125,193.90147986778936L390.6220703125,165.3252892127409L391.160859375,-6.246600811299766L394.39359375000004,108.115534855769L395.471171875,108.115534855769L396.00996093749995,136.74909855769246L396.54875000000004,222.53504356971285L397.0875390625,165.3252892127409L397.626328125,-6.246600811299766L398.70390625000005,-63.45635516827171L399.2426953125,108.115534855769L399.781484375,79.53934420072056L400.32027343749996,108.115534855769L400.8590625,251.11123422476126L401.3978515625,-34.82279146634828L401.936640625,22.329589843748664L402.47542968749997,136.74909855769246L403.01421875,251.11123422476126L403.5530078125,79.53934420072056L404.091796875,79.53934420072056L405.169375,193.90147986778936L405.70816406250003,79.53934420072056L406.246953125,-34.82279146634828L407.32453125,251.11123422476126L408.402109375,79.53934420072056L409.47968749999995,50.96315354567209L410.01847656250004,22.329589843748664L410.557265625,50.96315354567209L411.63484374999996,22.329589843748664L412.17363281250005,108.115534855769L412.712421875,50.96315354567209L413.2512109375,108.115534855769L413.78999999999996,50.96315354567209L414.3287890625,136.74909855769246L414.867578125,79.53934420072056L415.4063671875,136.74909855769246L415.94515624999997,108.115534855769L416.4839453125,165.3252892127409L417.022734375,108.115534855769L417.5615234375,-6.246600811299766L418.6391015625,-34.82279146634828L419.17789062500003,22.329589843748664L419.7166796875,336.8971792367816L420.25546875,108.115534855769L420.7942578125,136.74909855769246L421.33304687500004,136.74909855769246L421.8718359375,79.53934420072056L422.410625,108.115534855769L422.94941406249995,50.96315354567209L423.48820312500004,136.74909855769246L424.0269921875,50.96315354567209L424.56578125,165.3252892127409L425.10457031249996,165.3252892127409L425.64335937500005,79.53934420072056L426.7209375,136.74909855769246L427.25972656249996,50.96315354567209L427.798515625,251.11123422476126L428.87609375,193.90147986778936L429.41488281249997,136.74909855769246L429.953671875,193.90147986778936L430.4924609375,308.26361553485816L431.5700390625,165.3252892127409L432.108828125,22.329589843748664L432.6476171875,108.115534855769L433.18640624999995,279.6874248798097L433.72519531250003,165.3252892127409L434.263984375,79.53934420072056L434.80277343750004,-6.246600811299766L435.8803515625,193.90147986778936L436.9579296875,-6.246600811299766L437.49671874999996,-34.82279146634828L438.03550781250004,79.53934420072056L439.651875,22.329589843748664L441.80703124999997,165.3252892127409L442.34582031250005,193.90147986778936L442.884609375,-6.246600811299766L443.4233984375,222.53504356971285L443.9621875,136.74909855769246L444.5009765625,108.115534855769L445.039765625,22.329589843748664L445.5785546875,50.96315354567209L447.19492187500003,22.329589843748664L447.7337109375,-34.82279146634828L448.27250000000004,108.115534855769L448.8112890625,-6.246600811299766L449.88886718749995,79.53934420072056L450.42765625,50.96315354567209L450.96644531249996,22.329589843748664L452.0440234375,165.3252892127409L452.58281250000005,50.96315354567209L453.1216015625,-6.246600811299766L453.660390625,22.329589843748664L454.19917968749996,-6.246600811299766L454.73796875,193.90147986778936L455.27675781249997,193.90147986778936L455.81554687500005,193.90147986778936L456.3543359375,193.90147986778936L456.893125,136.74909855769246L457.4319140625,222.53504356971285L457.970703125,193.90147986778936L458.5094921875,222.53504356971285L459.04828125,136.74909855769246L459.5870703125,108.115534855769L460.12585937499995,136.74909855769246L461.74222656250004,222.53504356971285L462.281015625,50.96315354567209L463.35859374999995,165.3252892127409L463.8973828125,108.115534855769L464.43617187499996,336.8971792367816L464.97496093750004,279.6874248798097L465.51375,165.3252892127409L466.05253906250005,394.0495605468785L466.591328125,394.0495605468785L467.1301171875,279.6874248798097L467.66890624999996,165.3252892127409L468.2076953125,22.329589843748664L468.74648437499997,251.11123422476126L469.8240625,165.3252892127409L470.3628515625,108.115534855769L470.901640625,108.115534855769L471.4404296875,193.90147986778936L471.97921875,251.11123422476126L473.056796875,108.115534855769L473.59558593749995,108.115534855769L474.13437500000003,108.115534855769L474.6731640625,-34.82279146634828L475.21195312500004,22.329589843748664L475.7507421875,193.90147986778936L476.28953125,79.53934420072056L476.82832031249995,-6.246600811299766L477.367109375,136.74909855769246L477.90589843749996,108.115534855769L478.44468750000004,22.329589843748664L478.9834765625,50.96315354567209L479.52226562500005,50.96315354567209L481.13863281249996,79.53934420072056L482.21621093749997,193.90147986778936L483.2937890625,336.8971792367816L484.91015625,308.26361553485816L485.4489453125,108.115534855769L485.987734375,108.115534855769L486.5265234375,308.26361553485816L487.06531249999995,108.115534855769L487.60410156250003,136.74909855769246L488.142890625,308.26361553485816L488.68167968750004,79.53934420072056L489.22046875,165.3252892127409L489.7592578125,279.6874248798097L490.29804687499995,251.11123422476126L490.8368359375,136.74909855769246L491.37562499999996,136.74909855769246L492.99199218750005,22.329589843748664L493.53078125,-63.45635516827171L494.0695703125,-34.82279146634828L495.1471484375,79.53934420072056L495.68593749999997,79.53934420072056L496.763515625,251.11123422476126L497.3023046875,-6.246600811299766L498.3798828125,-6.246600811299766L498.918671875,165.3252892127409L499.4574609375,108.115534855769L501.07382812500003,165.3252892127409L501.6126171875,165.3252892127409L502.15140625000004,136.74909855769246L502.6901953125,108.115534855769L503.76777343749995,251.11123422476126L504.3065625,79.53934420072056L504.84535156249996,279.6874248798097L505.9229296875,308.26361553485816L506.46171875000005,279.6874248798097L507.0005078125,165.3252892127409L507.539296875,193.90147986778936L508.07808593749996,136.74909855769246L508.616875,79.53934420072056L509.15566406249997,79.53934420072056L509.69445312500005,222.53504356971285L510.2332421875,251.11123422476126L510.77203125,22.329589843748664L511.849609375,165.3252892127409L512.3883984375,336.8971792367816L512.9271875,222.53504356971285L513.4659765624999,251.11123422476126L514.004765625,394.0495605468785L515.0823437500001,737.19334059496L515.6211328125,279.6874248798097L517.2375,165.3252892127409L517.7762890624999,165.3252892127409L518.8538671875,308.26361553485816L519.3926562500001,308.26361553485816L519.9314453125,336.8971792367816L520.470234375,108.115534855769L521.0090234375,136.74909855769246L521.5478125,193.90147986778936L522.6253906249999,394.0495605468785L523.1641796875,193.90147986778936L523.7029687500001,165.3252892127409L524.2417578125,50.96315354567209L524.780546875,79.53934420072056L525.3193359375,251.11123422476126L525.858125,136.74909855769246L526.3969140625,193.90147986778936L527.4744921875,165.3252892127409L528.0132812500001,108.115534855769L528.5520703125001,422.683124248802L529.6296484375,279.6874248798097L530.1684375,165.3252892127409L530.7072265625,279.6874248798097L531.2460156249999,165.3252892127409L531.7848046875,165.3252892127409L532.32359375,222.53504356971285L533.401171875,251.11123422476126L533.9399609375,193.90147986778936L534.47875,193.90147986778936L535.0175390625,222.53504356971285L535.5563281249999,108.115534855769L536.0951171874999,251.11123422476126L536.63390625,193.90147986778936L537.1726953125001,165.3252892127409L537.711484375,79.53934420072056L538.2502734375,108.115534855769L538.7890625,279.6874248798097L539.3278515625,365.4733698918301L540.4054296874999,79.53934420072056L541.4830078125001,165.3252892127409L542.0217968750001,193.90147986778936L542.5605859375,222.53504356971285L543.099375,308.26361553485816L543.6381640625,365.4733698918301L544.176953125,222.53504356971285L545.25453125,394.0495605468785L545.7933203125,308.26361553485816L546.3321093750001,308.26361553485816L546.8708984375,394.0495605468785L547.4096875,422.683124248802L547.9484765625,279.6874248798097L549.0260546874999,336.8971792367816L550.1036328125,336.8971792367816L550.6424218750001,279.6874248798097L551.72,308.26361553485816L552.2587890625,336.8971792367816L552.797578125,279.6874248798097L554.4139453125,251.11123422476126L554.9527343750001,308.26361553485816L555.4915234375001,251.11123422476126L556.0303125,308.26361553485816L556.5691015625,279.6874248798097L557.6466796875,365.4733698918301L558.1854687499999,193.90147986778936L558.7242578125,165.3252892127409L559.263046875,193.90147986778936L559.8018359375001,79.53934420072056L560.340625,136.74909855769246L560.8794140625,79.53934420072056L561.9569921875,165.3252892127409L562.4957812499999,165.3252892127409L563.573359375,193.90147986778936L564.1121484375001,165.3252892127409L564.6509375,222.53504356971285L565.1897265625,308.26361553485816L566.2673046875,79.53934420072056L566.80609375,22.329589843748664L567.3448828124999,279.6874248798097L567.883671875,165.3252892127409L568.9612500000001,193.90147986778936L570.038828125,165.3252892127409L571.11640625,50.96315354567209L571.6551953124999,193.90147986778936L572.193984375,222.53504356971285L572.7327734375,222.53504356971285L573.2715625000001,251.11123422476126L575.42671875,193.90147986778936L575.9655078124999,251.11123422476126L576.5042968749999,279.6874248798097L577.0430859375,422.683124248802L577.5818750000001,365.4733698918301L578.659453125,165.3252892127409L579.1982421875,165.3252892127409L579.73703125,193.90147986778936L580.2758203125,108.115534855769L580.8146093749999,222.53504356971285L581.3533984375,108.115534855769L581.8921875000001,136.74909855769246L582.4309765625001,222.53504356971285L582.969765625,251.11123422476126L583.5085546875,508.4690692608223L584.5861328125,308.26361553485816L585.1249218749999,336.8971792367816L585.6637109375,365.4733698918301L586.2025,193.90147986778936L586.7412890625001,222.53504356971285L587.280078125,222.53504356971285L587.8188671875,165.3252892127409L588.35765625,251.11123422476126L588.8964453125,279.6874248798097L589.4352343749999,308.26361553485816L589.9740234374999,336.8971792367816L590.5128125,308.26361553485816L591.0516015625001,308.26361553485816L591.590390625,222.53504356971285L592.1291796875,279.6874248798097L592.66796875,279.6874248798097L593.2067578125,365.4733698918301L594.2843359374999,365.4733698918301L595.3619140625001,279.6874248798097L595.9007031250001,222.53504356971285L596.4394921875,451.25931490385045L596.97828125,365.4733698918301L597.5170703125,336.8971792367816L598.055859375,394.0495605468785L598.5946484374999,279.6874248798097L599.1334375,308.26361553485816L599.6722265625,308.26361553485816L600.2110156250001,279.6874248798097L601.28859375,394.0495605468785L601.8273828125,251.11123422476126L602.366171875,193.90147986778936L602.9049609374999,222.53504356971285L603.9825390625,422.683124248802L604.5213281250001,108.115534855769L605.0601171875,165.3252892127409L605.59890625,50.96315354567209L606.1376953125,165.3252892127409L606.676484375,165.3252892127409L607.7540624999999,50.96315354567209L608.2928515625,165.3252892127409L609.3704296875001,251.11123422476126L609.90921875,136.74909855769246L610.4480078125,279.6874248798097L610.986796875,365.4733698918301L611.5255859375,394.0495605468785L612.0643749999999,193.90147986778936L613.141953125,108.115534855769L614.21953125,222.53504356971285L615.8358984375,165.3252892127409L616.3746874999999,193.90147986778936L616.9134765624999,193.90147986778936L617.452265625,508.4690692608223L618.52984375,251.11123422476126L619.0686328125,394.0495605468785L619.607421875,222.53504356971285L620.685,165.3252892127409L621.2237890624999,165.3252892127409L621.762578125,136.74909855769246L622.3013671875001,251.11123422476126L623.3789453125,365.4733698918301L623.917734375,222.53504356971285L624.4565234375,365.4733698918301L624.9953125,165.3252892127409L625.5341015624999,308.26361553485816L626.072890625,279.6874248798097L626.6116796875,279.6874248798097L627.1504687500001,279.6874248798097L627.6892578125,251.11123422476126L628.7668359375,108.115534855769L629.305625,222.53504356971285L630.3832031249999,165.3252892127409L631.4607812500001,193.90147986778936L631.9995703125,108.115534855769L633.0771484375,251.11123422476126L633.6159375,193.90147986778936L634.1547265625,136.74909855769246L634.6935156249999,251.11123422476126L635.2323046875,193.90147986778936L635.7710937500001,193.90147986778936L636.3098828125001,222.53504356971285L636.848671875,193.90147986778936L637.3874609375,279.6874248798097L637.92625,451.25931490385045L638.4650390625,422.683124248802L639.0038281249999,308.26361553485816L640.08140625,251.11123422476126L640.6201953125001,279.6874248798097L641.158984375,279.6874248798097L641.6977734375,394.0495605468785L642.2365625,193.90147986778936L642.7753515625,394.0495605468785L643.8529296874999,251.11123422476126L644.9305078125001,251.11123422476126L645.469296875,422.683124248802L646.546875,394.0495605468785L647.0856640625,336.8971792367816L648.1632421874999,537.0452599158707L649.7796093750001,394.0495605468785L650.8571875,336.8971792367816L651.3959765625,308.26361553485816L651.934765625,222.53504356971285L653.01234375,251.11123422476126L653.5511328125,251.11123422476126L654.0899218750001,365.4733698918301L654.6287109375,422.683124248802L656.245078125,422.683124248802L657.3226562499999,193.90147986778936L658.4002343750001,222.53504356971285L658.9390234375,251.11123422476126L660.0166015625,222.53504356971285L660.555390625,222.53504356971285L661.0941796875,279.6874248798097L661.6329687499999,451.25931490385045L663.788125,394.0495605468785L664.3269140625,136.74909855769246L664.865703125,279.6874248798097L665.4044921875,251.11123422476126L665.9432812499999,279.6874248798097L666.4820703125,193.90147986778936L667.020859375,308.26361553485816L667.5596484375001,308.26361553485816L668.0984375,365.4733698918301L668.6372265625,336.8971792367816L669.7148046875,251.11123422476126L670.2535937499999,336.8971792367816L670.7923828124999,308.26361553485816L671.331171875,308.26361553485816L672.9475390625,193.90147986778936L673.486328125,308.26361553485816L674.0251171875,251.11123422476126L674.56390625,193.90147986778936L675.1026953124999,136.74909855769246L676.1802734375001,308.26361553485816L676.7190625000001,251.11123422476126L677.2578515625,308.26361553485816L677.796640625,365.4733698918301L678.3354296875,422.683124248802L681.0293750000001,394.0495605468785L681.5681640625,222.53504356971285L682.106953125,136.74909855769246L682.6457421875,308.26361553485816L683.18453125,537.0452599158707L683.7233203124999,451.25931490385045L684.2621093749999,336.8971792367816L684.8008984375,451.25931490385045L685.3396875000001,365.4733698918301L685.8784765625,365.4733698918301L686.417265625,394.0495605468785L686.9560546875,308.26361553485816L687.49484375,422.683124248802L688.0336328125,422.683124248802L688.5724218749999,336.8971792367816L689.1112109375,251.11123422476126L689.6500000000001,251.11123422476126L690.1887890625001,251.11123422476126L690.727578125,222.53504356971285L691.2663671875,394.0495605468785L691.80515625,451.25931490385045L692.3439453125,365.4733698918301L692.8827343749999,222.53504356971285L693.4215234375,308.26361553485816L694.4991015625001,222.53504356971285L695.5766796875,222.53504356971285L696.11546875,108.115534855769L696.6542578125,165.3252892127409L697.1930468749999,165.3252892127409L697.7318359374999,251.11123422476126L698.8094140625001,-6.246600811299766L699.8869921875,222.53504356971285L700.42578125,308.26361553485816L700.9645703125,336.8971792367816L701.503359375,251.11123422476126L702.5809375,479.8355055588989L703.6585156250001,451.25931490385045L704.1973046875,365.4733698918301L704.73609375,279.6874248798097L706.3524609374999,251.11123422476126L706.89125,336.8971792367816L708.5076171875,222.53504356971285L709.04640625,165.3252892127409L709.5851953125,308.26361553485816L711.2015624999999,422.683124248802L711.7403515625,279.6874248798097L712.8179296875,394.0495605468785L713.35671875,251.11123422476126L713.8955078125,222.53504356971285L714.434296875,365.4733698918301L714.9730859375,308.26361553485816L715.5118749999999,308.26361553485816L716.0506640625,136.74909855769246L716.5894531250001,165.3252892127409L717.1282421875001,165.3252892127409L717.66703125,251.11123422476126L718.744609375,165.3252892127409L719.2833984375,308.26361553485816L719.8221874999999,165.3252892127409L720.899765625,222.53504356971285L721.4385546875001,165.3252892127409L721.97734375,165.3252892127409L722.5161328125,79.53934420072056L723.054921875,79.53934420072056L723.5937109375,136.74909855769246L724.1324999999999,108.115534855769L724.6712890624999,50.96315354567209L725.210078125,108.115534855769L725.7488671875001,136.74909855769246L726.28765625,50.96315354567209L727.365234375,108.115534855769L727.9040234375,50.96315354567209L728.4428125,50.96315354567209L728.9816015624999,-6.246600811299766L729.520390625,22.329589843748664L730.0591796875001,-6.246600811299766L730.5979687500001,50.96315354567209L731.1367578125,50.96315354567209L731.675546875,251.11123422476126L732.2143359375,136.74909855769246L732.753125,193.90147986778936L733.2919140624999,136.74909855769246L733.830703125,108.115534855769L734.3694921875,108.115534855769L735.4470703125,79.53934420072056L735.985859375,22.329589843748664L736.5246484375,22.329589843748664L737.0634375,50.96315354567209L738.1410156249999,136.74909855769246L738.6798046875,136.74909855769246L740.8349609375,108.115534855769L741.9125390625,279.6874248798097L742.4513281249999,365.4733698918301L743.5289062500001,251.11123422476126L744.0676953125001,165.3252892127409L744.606484375,193.90147986778936L745.1452734375,165.3252892127409L745.6840625,79.53934420072056L746.7616406249999,308.26361553485816L747.3004296875,165.3252892127409L747.83921875,365.4733698918301L748.3780078125001,136.74909855769246L748.916796875,336.8971792367816L749.4555859375,279.6874248798097L749.994375,308.26361553485816L750.5331640625,279.6874248798097L751.0719531249999,251.11123422476126L751.6107421874999,136.74909855769246L752.14953125,79.53934420072056L752.6883203125001,165.3252892127409L753.227109375,108.115534855769L753.7658984375,193.90147986778936L754.3046875,336.8971792367816L754.8434765625,165.3252892127409L755.382265625,193.90147986778936L756.45984375,251.11123422476126L756.9986328125001,193.90147986778936L758.0762109375,165.3252892127409L758.615,222.53504356971285L759.1537890625,165.3252892127409L760.2313671874999,193.90147986778936L760.77015625,108.115534855769L761.3089453125,136.74909855769246L761.8477343750001,422.683124248802L762.9253125,422.683124248802L764.002890625,365.4733698918301L765.0804687499999,279.6874248798097L766.1580468750001,279.6874248798097L767.7744140625,308.26361553485816L768.313203125,365.4733698918301L768.8519921875,422.683124248802L769.3907812499999,165.3252892127409L769.9295703125,165.3252892127409L770.4683593750001,108.115534855769L771.5459375,193.90147986778936L772.0847265625,165.3252892127409L772.623515625,136.74909855769246L773.1623046875,251.11123422476126L773.7010937499999,394.0495605468785L774.2398828125,365.4733698918301L774.778671875,50.96315354567209L775.3174609375001,336.8971792367816L775.85625,251.11123422476126L776.3950390625,193.90147986778936L777.4726171875,79.53934420072056L778.0114062499999,108.115534855769L778.5501953124999,165.3252892127409L779.6277734375001,108.115534855769L780.1665625,79.53934420072056L780.7053515625,165.3252892127409L781.244140625,165.3252892127409L781.7829296875,136.74909855769246L782.32171875,-6.246600811299766L782.8605078124999,79.53934420072056L783.399296875,79.53934420072056L783.9380859375001,50.96315354567209L784.4768750000001,50.96315354567209L785.0156640625,-6.246600811299766L785.554453125,-34.82279146634828L786.0932421875,222.53504356971285L786.63203125,79.53934420072056L787.709609375,251.11123422476126L788.2483984375,165.3252892127409L788.7871875000001,222.53504356971285L789.3259765625,308.26361553485816L789.864765625,165.3252892127409L790.4035546875,193.90147986778936L790.94234375,165.3252892127409L791.4811328124999,222.53504356971285L792.0199218749999,-92.03254582332013L793.0975000000001,-6.246600811299766L793.6362890625,165.3252892127409L794.7138671875,108.115534855769L796.3302343749999,222.53504356971285L796.8690234375,136.74909855769246" style="fill: none;" fill="none"></path></g></g></g></g></g></g><g transform="translate(53, 376)" clip-path="url(#clip_1)"><clipPath id="clip_1"><rect width="862" height="24"></rect></clipPath><g><g><line x1="0" y1="0" x2="0" y2="5" style="visibility: inherit;" fill="rgb(0, 0, 0)" stroke="rgb(204, 204, 204)" stroke-width="1px"></line><line x1="107.7578125" y1="0" x2="107.7578125" y2="5" style="visibility: inherit;" fill="rgb(0, 0, 0)" stroke="rgb(204, 204, 204)" stroke-width="1px"></line><line x1="215.515625" y1="0" x2="215.515625" y2="5" style="visibility: inherit;" fill="rgb(0, 0, 0)" stroke="rgb(204, 204, 204)" stroke-width="1px"></line><line x1="323.2734375" y1="0" x2="323.2734375" y2="5" style="visibility: inherit;" fill="rgb(0, 0, 0)" stroke="rgb(204, 204, 204)" stroke-width="1px"></line><line x1="431.03125" y1="0" x2="431.03125" y2="5" style="visibility: inherit;" fill="rgb(0, 0, 0)" stroke="rgb(204, 204, 204)" stroke-width="1px"></line><line x1="538.7890625" y1="0" x2="538.7890625" y2="5" style="visibility: inherit;" fill="rgb(0, 0, 0)" stroke="rgb(204, 204, 204)" stroke-width="1px"></line><line x1="646.546875" y1="0" x2="646.546875" y2="5" style="visibility: inherit;" fill="rgb(0, 0, 0)" stroke="rgb(204, 204, 204)" stroke-width="1px"></line><line x1="754.3046875" y1="0" x2="754.3046875" y2="5" style="visibility: inherit;" fill="rgb(0, 0, 0)" stroke="rgb(204, 204, 204)" stroke-width="1px"></line><line x1="862.0625" y1="0" x2="862.0625" y2="5" style="visibility: inherit;" fill="rgb(0, 0, 0)" stroke="rgb(204, 204, 204)" stroke-width="1px"></line></g><g transform="translate(0, 8)"><text x="0" y="0" dx="0em" dy="0.95em" style="text-anchor: middle; visibility: hidden; font-family: Roboto, sans-serif; font-size: 12px; font-weight: 200;" fill="rgb(33, 33, 33)" stroke="none" stroke-width="1px">-200</text><text x="107.7578125" y="0" dx="0em" dy="0.95em" style="text-anchor: middle; visibility: inherit; font-family: Roboto, sans-serif; font-size: 12px; font-weight: 200;" fill="rgb(33, 33, 33)" stroke="none" stroke-width="1px">0</text><text x="215.515625" y="0" dx="0em" dy="0.95em" style="text-anchor: middle; visibility: inherit; font-family: Roboto, sans-serif; font-size: 12px; font-weight: 200;" fill="rgb(33, 33, 33)" stroke="none" stroke-width="1px">200</text><text x="323.2734375" y="0" dx="0em" dy="0.95em" style="text-anchor: middle; visibility: inherit; font-family: Roboto, sans-serif; font-size: 12px; font-weight: 200;" fill="rgb(33, 33, 33)" stroke="none" stroke-width="1px">400</text><text x="431.03125" y="0" dx="0em" dy="0.95em" style="text-anchor: middle; visibility: inherit; font-family: Roboto, sans-serif; font-size: 12px; font-weight: 200;" fill="rgb(33, 33, 33)" stroke="none" stroke-width="1px">600</text><text x="538.7890625" y="0" dx="0em" dy="0.95em" style="text-anchor: middle; visibility: inherit; font-family: Roboto, sans-serif; font-size: 12px; font-weight: 200;" fill="rgb(33, 33, 33)" stroke="none" stroke-width="1px">800</text><text x="646.546875" y="0" dx="0em" dy="0.95em" style="text-anchor: middle; visibility: inherit; font-family: Roboto, sans-serif; font-size: 12px; font-weight: 200;" fill="rgb(33, 33, 33)" stroke="none" stroke-width="1px">1k</text><text x="754.3046875" y="0" dx="0em" dy="0.95em" style="text-anchor: middle; visibility: inherit; font-family: Roboto, sans-serif; font-size: 12px; font-weight: 200;" fill="rgb(33, 33, 33)" stroke="none" stroke-width="1px">1.2k</text><text x="862.0625" y="0" dx="0em" dy="0.95em" style="text-anchor: middle; visibility: hidden; font-family: Roboto, sans-serif; font-size: 12px; font-weight: 200;" fill="rgb(33, 33, 33)" stroke="none" stroke-width="1px">1.4k</text></g><line x1="0" y1="0" x2="862.0625" y2="0" fill="rgb(0, 0, 0)" stroke="rgb(204, 204, 204)" stroke-width="1px"></line></g></g></g></g></svg>